M48
;DRILL file {Pcbnew (2012-01-19 BZR 3256)-stable} date 16/02/2013 19:01:40
;FORMAT={-:-/ absolute / metric / decimal}
FMAT,2
METRIC,TZ
T1C0.399
T2C0.800
T3C0.813
T4C0.899
T5C1.016
T6C3.500
%
G90
G05
M71
T1
X103.800Y-87.201
X104.000Y-105.001
X104.082Y-82.794
X106.200Y-97.000
X107.000Y-115.999
X107.599Y-84.399
X107.800Y-95.400
X107.800Y-101.001
X108.600Y-76.799
X110.000Y-104.201
X110.599Y-82.799
X111.399Y-107.201
X111.801Y-101.399
X111.801Y-112.199
X112.400Y-75.001
X112.400Y-115.999
X112.799Y-88.600
X112.799Y-91.001
X112.799Y-95.199
X113.599Y-83.000
X114.000Y-92.390
X115.311Y-84.331
X117.180Y-84.211
X117.399Y-81.999
X117.399Y-115.801
X118.001Y-97.600
X118.001Y-107.800
X118.400Y-111.999
X118.791Y-104.889
X119.390Y-84.079
X119.410Y-95.199
X120.200Y-75.001
X120.200Y-89.200
X121.310Y-83.919
X121.399Y-81.999
X121.600Y-103.200
X123.200Y-95.601
X124.130Y-103.190
X124.399Y-115.801
X124.590Y-81.801
X125.001Y-112.199
X125.171Y-86.919
X125.529Y-78.651
X125.600Y-108.270
X126.030Y-81.110
X126.200Y-90.599
X126.939Y-105.240
X127.399Y-75.001
X127.541Y-80.721
X127.599Y-97.000
X127.749Y-103.919
X127.770Y-87.201
X128.900Y-106.680
X129.601Y-94.000
X130.190Y-87.701
X130.401Y-97.800
X130.401Y-112.799
X130.500Y-100.759
X130.599Y-116.200
X131.011Y-99.680
X131.950Y-102.380
X132.001Y-105.199
X132.179Y-88.440
X132.601Y-95.001
X132.911Y-100.970
X133.840Y-81.090
X134.181Y-107.371
X134.399Y-84.000
X134.399Y-102.400
X134.511Y-99.019
X134.950Y-97.920
X135.199Y-75.001
X135.270Y-96.810
X135.321Y-100.919
X135.400Y-104.399
X135.400Y-113.200
X135.791Y-80.909
X135.801Y-115.999
X135.941Y-107.269
X136.200Y-102.410
X136.459Y-98.410
X136.469Y-87.729
X136.830Y-101.481
X136.840Y-104.331
X137.089Y-95.829
X137.841Y-109.131
X137.899Y-89.560
X138.440Y-96.139
X138.910Y-87.960
X139.009Y-89.591
X139.149Y-93.800
X139.169Y-91.491
X139.339Y-100.500
X139.349Y-104.079
X139.870Y-103.040
X140.139Y-107.119
X140.310Y-94.811
X140.381Y-99.411
X140.429Y-86.700
X140.429Y-88.471
X140.459Y-105.100
X140.640Y-101.981
X141.049Y-93.990
X141.450Y-102.730
X141.600Y-113.200
X142.001Y-116.200
X142.151Y-101.730
X142.199Y-75.001
X142.210Y-95.560
X142.799Y-81.999
X143.101Y-102.339
X143.391Y-87.729
X143.391Y-98.209
X143.810Y-90.340
X144.531Y-89.499
X144.981Y-95.641
X145.080Y-92.329
X145.100Y-93.429
X145.209Y-87.729
X145.369Y-103.861
X145.801Y-98.999
X145.989Y-94.099
X146.469Y-103.650
X146.601Y-112.799
X147.130Y-109.710
X147.231Y-93.119
X147.399Y-116.200
X147.521Y-89.530
X147.599Y-106.601
X147.919Y-102.631
X148.400Y-96.319
X149.200Y-89.200
X149.400Y-75.001
X149.421Y-95.720
X149.896Y-109.144
X149.901Y-98.151
X151.201Y-88.001
X151.310Y-99.601
X152.131Y-96.670
X152.819Y-109.629
X153.231Y-96.411
X153.721Y-92.271
X154.221Y-107.899
X154.600Y-116.200
X154.800Y-88.001
X154.940Y-91.821
X155.001Y-112.601
X155.311Y-109.510
X155.710Y-91.031
X155.801Y-97.201
X155.999Y-75.001
X156.200Y-81.999
X156.741Y-107.569
X156.799Y-94.399
X156.799Y-104.600
X158.001Y-111.999
X158.191Y-105.771
X159.421Y-91.219
X159.799Y-115.600
X160.190Y-109.271
X160.401Y-93.101
X160.411Y-82.580
X160.800Y-86.799
X160.800Y-94.800
X160.861Y-99.400
X161.059Y-89.421
X161.300Y-75.098
X161.300Y-76.098
X161.361Y-109.319
X161.511Y-82.989
X162.301Y-75.098
X162.301Y-76.098
X163.060Y-89.431
X163.302Y-75.098
X163.302Y-76.098
X163.800Y-95.001
X163.871Y-102.009
X163.970Y-97.071
X164.302Y-75.098
X164.302Y-76.098
X164.371Y-98.600
X164.399Y-107.599
X165.400Y-115.600
X165.801Y-99.860
X166.091Y-93.690
X166.649Y-110.800
X166.860Y-100.360
X166.949Y-99.261
X167.000Y-80.800
X167.020Y-101.460
X167.599Y-107.599
X168.999Y-87.000
X172.799Y-110.401
X172.999Y-101.600
T2
X160.901Y-77.696
X164.701Y-77.696
T3
X100.599Y-81.331
X100.599Y-83.871
X100.599Y-87.930
X100.599Y-90.470
X100.599Y-94.531
X100.599Y-97.071
X100.599Y-101.130
X100.599Y-103.670
X100.599Y-107.729
X100.599Y-110.269
X170.454Y-102.834
X170.454Y-105.374
X170.454Y-107.914
X172.499Y-84.229
X172.499Y-86.769
T4
X103.000Y-91.991
X103.000Y-94.531
X103.000Y-97.071
X103.000Y-99.611
X168.999Y-90.691
X168.999Y-93.231
X168.999Y-95.771
X168.999Y-98.311
X172.499Y-90.691
X172.499Y-93.231
X172.499Y-95.771
X172.499Y-98.311
T5
X111.280Y-77.130
X111.280Y-79.670
X113.820Y-77.130
X113.820Y-79.670
X116.360Y-77.130
X116.360Y-79.670
X118.900Y-77.130
X118.900Y-79.670
X121.440Y-77.130
X121.440Y-79.670
X123.980Y-77.130
X123.980Y-79.670
X126.520Y-77.130
X126.520Y-79.670
X129.060Y-77.130
X129.060Y-79.670
X131.600Y-77.130
X131.600Y-79.670
X134.140Y-77.130
X134.140Y-79.670
X136.680Y-77.130
X136.680Y-79.670
X139.220Y-77.130
X139.220Y-79.670
X141.760Y-77.130
X141.760Y-79.670
X144.300Y-77.130
X144.300Y-79.670
X146.840Y-77.130
X146.840Y-79.670
X149.380Y-77.130
X149.380Y-79.670
X151.920Y-77.130
X151.920Y-79.670
T6
X102.601Y-77.201
X102.601Y-114.399
X170.800Y-77.201
X170.800Y-114.399
T0
M30
