G04 (created by PCBNEW-RS274X (2012-01-19 BZR 3256)-stable) date 16/02/2013 19:01:43*
G01*
G70*
G90*
%MOIN*%
G04 Gerber Fmt 3.4, Leading zero omitted, Abs format*
%FSLAX34Y34*%
G04 APERTURE LIST*
%ADD10C,0.006000*%
%ADD11C,0.031500*%
%ADD12R,0.039400X0.039400*%
%ADD13R,0.055100X0.055100*%
%ADD14C,0.055100*%
%ADD15R,0.055000X0.055000*%
%ADD16C,0.055000*%
%ADD17C,0.236200*%
%ADD18C,0.060000*%
%ADD19R,0.060000X0.060000*%
%ADD20C,0.066000*%
%ADD21C,0.035400*%
%ADD22C,0.019700*%
%ADD23C,0.007900*%
%ADD24C,0.010000*%
G04 APERTURE END LIST*
G54D10*
G54D11*
X63347Y-30589D03*
X64843Y-30589D03*
G54D12*
X64292Y-29566D03*
X64686Y-29960D03*
X63504Y-29960D03*
X64292Y-29960D03*
X64686Y-29566D03*
X63898Y-29566D03*
X63898Y-29960D03*
X63504Y-29566D03*
G54D13*
X66535Y-38705D03*
G54D14*
X66535Y-37705D03*
X66535Y-36705D03*
X66535Y-35705D03*
G54D13*
X67913Y-38705D03*
G54D14*
X67913Y-37705D03*
X67913Y-36705D03*
X67913Y-35705D03*
G54D15*
X67913Y-34161D03*
G54D16*
X67913Y-33161D03*
G54D17*
X67244Y-30394D03*
X40394Y-30394D03*
X40394Y-45039D03*
X67244Y-45039D03*
G54D18*
X57811Y-30366D03*
X59811Y-31366D03*
X59811Y-30366D03*
X58811Y-30366D03*
X58811Y-31366D03*
X50811Y-30366D03*
X52811Y-30366D03*
X51811Y-31366D03*
X56811Y-31366D03*
X53811Y-31366D03*
X52811Y-31366D03*
X57811Y-31366D03*
X56811Y-30366D03*
X54811Y-31366D03*
X49811Y-31366D03*
X51811Y-30366D03*
X53811Y-30366D03*
X55811Y-30366D03*
X55811Y-31366D03*
X54811Y-30366D03*
X48811Y-30366D03*
X49811Y-30366D03*
X50811Y-31366D03*
X48811Y-31366D03*
X47811Y-31366D03*
X47811Y-30366D03*
G54D19*
X43811Y-31366D03*
G54D18*
X43811Y-30366D03*
X44811Y-31366D03*
X44811Y-30366D03*
X45811Y-31366D03*
X45811Y-30366D03*
X46811Y-31366D03*
X46811Y-30366D03*
G54D15*
X67108Y-40486D03*
G54D16*
X67108Y-41486D03*
X67108Y-42486D03*
G54D13*
X40551Y-36217D03*
G54D14*
X40551Y-37217D03*
X40551Y-38217D03*
X40551Y-39217D03*
G54D20*
X39606Y-33020D03*
X39606Y-32020D03*
X39606Y-35618D03*
X39606Y-34618D03*
X39606Y-38217D03*
X39606Y-37217D03*
X39606Y-40815D03*
X39606Y-39815D03*
X39606Y-43413D03*
X39606Y-42413D03*
G54D21*
X57965Y-36661D03*
X64516Y-40161D03*
X54791Y-36020D03*
X53520Y-42232D03*
X60717Y-42480D03*
X48870Y-40626D03*
X51579Y-39244D03*
X65756Y-39945D03*
X53874Y-41075D03*
X65276Y-39315D03*
X63528Y-43039D03*
X44882Y-36374D03*
X58079Y-35248D03*
X57126Y-36783D03*
X54291Y-35260D03*
X57118Y-36350D03*
X53256Y-38114D03*
X53622Y-40319D03*
X56339Y-40291D03*
X55988Y-37622D03*
X51378Y-39669D03*
X52327Y-39752D03*
X49421Y-30965D03*
X54783Y-36929D03*
X55370Y-40150D03*
X57169Y-34539D03*
X56453Y-34539D03*
X53728Y-34539D03*
X55287Y-34134D03*
X54689Y-34630D03*
X56453Y-38665D03*
X60520Y-36327D03*
X46134Y-33154D03*
X58827Y-37685D03*
X47760Y-33039D03*
X57476Y-37047D03*
X49280Y-34220D03*
X54858Y-39567D03*
X53972Y-37728D03*
X51256Y-34528D03*
X53130Y-38551D03*
X53276Y-39732D03*
X55689Y-40445D03*
X55240Y-37327D03*
X51949Y-40307D03*
X52957Y-38984D03*
X45398Y-33201D03*
X58425Y-37921D03*
X57079Y-37654D03*
X47004Y-33102D03*
X55268Y-39138D03*
X50303Y-34331D03*
X54504Y-37850D03*
X52039Y-34819D03*
X53724Y-38744D03*
X53870Y-39953D03*
X55531Y-37004D03*
X55965Y-40051D03*
X61000Y-36150D03*
X63150Y-36654D03*
X56618Y-35567D03*
X61303Y-35839D03*
X62764Y-35913D03*
X56902Y-35236D03*
X57232Y-40890D03*
X59894Y-38059D03*
X60327Y-37957D03*
X57665Y-40807D03*
X58236Y-40406D03*
X55173Y-42173D03*
X65693Y-39512D03*
X65728Y-39079D03*
X55299Y-41378D03*
X59016Y-38642D03*
X59571Y-39213D03*
X64713Y-38819D03*
X54862Y-40976D03*
X63587Y-32673D03*
X63154Y-32512D03*
X55067Y-40567D03*
X54268Y-42965D03*
X47012Y-37480D03*
X61732Y-41181D03*
X61417Y-29528D03*
X58819Y-29528D03*
X55984Y-29528D03*
X53228Y-29528D03*
X52913Y-33071D03*
X56220Y-32283D03*
X60945Y-34646D03*
X59528Y-34646D03*
X58740Y-35118D03*
X52205Y-37402D03*
X51339Y-38504D03*
X51969Y-41417D03*
X57717Y-44409D03*
X49051Y-32205D03*
X65748Y-31811D03*
X61496Y-32283D03*
X64724Y-42362D03*
X65984Y-42362D03*
X68031Y-43465D03*
X65118Y-45512D03*
X62913Y-45512D03*
X60866Y-45748D03*
X58031Y-45748D03*
X55906Y-45748D03*
X53465Y-45669D03*
X51417Y-45748D03*
X62205Y-44094D03*
X61024Y-44331D03*
X53307Y-41102D03*
X66535Y-34252D03*
X63067Y-43020D03*
X44252Y-45669D03*
X59014Y-42970D03*
X61339Y-38268D03*
X68110Y-40000D03*
X64488Y-37402D03*
X63307Y-37323D03*
X61732Y-37165D03*
X65610Y-43622D03*
X50213Y-31780D03*
X54728Y-35272D03*
X50157Y-29528D03*
X47323Y-29528D03*
X44252Y-29528D03*
X42756Y-30236D03*
X43543Y-32598D03*
X42362Y-33228D03*
X40866Y-34331D03*
X57402Y-38976D03*
X47795Y-32283D03*
X50295Y-40913D03*
X50748Y-42000D03*
X63331Y-39134D03*
X64555Y-38217D03*
X65390Y-36886D03*
X40977Y-32596D03*
X64197Y-35209D03*
X44724Y-32677D03*
X55287Y-34831D03*
X61146Y-43114D03*
X57925Y-43193D03*
X52827Y-42272D03*
X63307Y-34173D03*
X53461Y-31854D03*
X49449Y-42626D03*
X62280Y-41642D03*
X60165Y-43161D03*
X63409Y-35205D03*
X61709Y-42350D03*
X53307Y-44567D03*
X51339Y-44409D03*
X52913Y-40315D03*
X51024Y-37008D03*
X50236Y-38189D03*
X48504Y-37638D03*
X49685Y-35669D03*
X47323Y-35118D03*
X46457Y-38425D03*
X47874Y-40630D03*
X46457Y-42441D03*
X49213Y-44173D03*
X46614Y-44094D03*
X52693Y-31925D03*
X46220Y-45591D03*
X42126Y-45669D03*
X44016Y-44173D03*
X43858Y-42205D03*
X43307Y-41024D03*
X40945Y-41339D03*
X44016Y-39921D03*
X42441Y-39764D03*
X41811Y-38189D03*
X42441Y-37559D03*
X44409Y-37480D03*
X44409Y-35827D03*
X44409Y-34882D03*
X58110Y-41969D03*
X49618Y-31933D03*
X46220Y-32283D03*
X55748Y-44567D03*
X48976Y-45591D03*
X46768Y-41295D03*
X49976Y-41433D03*
G54D22*
X65756Y-39945D02*
X64516Y-40161D01*
X55026Y-42528D02*
X54500Y-42334D01*
X56917Y-37296D02*
X56911Y-37293D01*
X57330Y-37402D02*
X57226Y-37299D01*
X57831Y-37194D02*
X57623Y-37402D01*
X57965Y-36661D02*
X57831Y-37194D01*
X50984Y-40094D02*
X48870Y-40626D01*
X51231Y-39315D02*
X51579Y-39244D01*
X51023Y-39522D02*
X51231Y-39315D01*
X50984Y-40094D02*
X51023Y-39522D01*
X56911Y-37293D02*
X56616Y-36998D01*
X57226Y-37299D02*
X56917Y-37296D01*
X57623Y-37402D02*
X57330Y-37402D01*
X54500Y-42334D02*
X53520Y-42232D01*
X55320Y-42528D02*
X55026Y-42528D01*
X60717Y-42480D02*
X55320Y-42528D01*
X53520Y-42232D02*
X50984Y-40094D01*
X55803Y-36176D02*
X54791Y-36020D01*
X55925Y-36227D02*
X55803Y-36176D01*
X56309Y-36611D02*
X55925Y-36227D01*
X56616Y-36998D02*
X56309Y-36611D01*
X64953Y-39489D02*
X65017Y-39462D01*
X53874Y-41075D02*
X55152Y-41732D01*
X63602Y-39961D02*
X63724Y-39911D01*
X57874Y-41319D02*
X63602Y-39961D01*
X64301Y-39652D02*
X64307Y-39649D01*
X64307Y-39649D02*
X64953Y-39489D01*
X65017Y-39462D02*
X65276Y-39315D01*
X57441Y-41402D02*
X57874Y-41319D01*
X63724Y-39911D02*
X64301Y-39652D01*
X55152Y-41732D02*
X55446Y-41732D01*
X55446Y-41732D02*
X57441Y-41402D01*
X57778Y-43547D02*
X58072Y-43547D01*
X58072Y-43547D02*
X60312Y-43516D01*
X46413Y-41442D02*
X46621Y-41650D01*
X63421Y-43167D02*
X63528Y-43039D01*
X60312Y-43516D02*
X61293Y-43469D01*
X54121Y-43319D02*
X57778Y-43547D01*
X44882Y-36374D02*
X46413Y-41442D01*
X49596Y-42271D02*
X54121Y-43319D01*
X46621Y-41650D02*
X49596Y-42271D01*
X63214Y-43374D02*
X63421Y-43167D01*
X61293Y-43469D02*
X63214Y-43374D01*
G54D23*
X45638Y-29948D02*
X44811Y-30366D01*
X45984Y-29948D02*
X45638Y-29948D01*
X57984Y-29948D02*
X45984Y-29948D01*
X58229Y-30193D02*
X57984Y-29948D01*
X58229Y-31193D02*
X58229Y-30193D01*
X58229Y-31539D02*
X58229Y-31193D01*
X58079Y-35248D02*
X58229Y-31539D01*
X55877Y-35802D02*
X54979Y-35567D01*
X56137Y-35909D02*
X55877Y-35802D01*
X57126Y-36783D02*
X56137Y-35909D01*
X54979Y-35567D02*
X54606Y-35567D01*
X49174Y-31909D02*
X48638Y-31784D01*
X49496Y-32229D02*
X49174Y-31909D01*
X48638Y-31784D02*
X47811Y-31366D01*
X52489Y-33958D02*
X49496Y-32229D01*
X54606Y-35567D02*
X54169Y-35555D01*
X54169Y-35555D02*
X53541Y-34993D01*
X53541Y-34993D02*
X52489Y-33958D01*
X53606Y-34835D02*
X54291Y-35260D01*
X53433Y-34662D02*
X53606Y-34835D01*
X49811Y-30366D02*
X50229Y-31193D01*
X50229Y-31193D02*
X50393Y-31539D01*
X50508Y-31657D02*
X53433Y-34662D01*
X50393Y-31539D02*
X50508Y-31657D01*
X53165Y-31977D02*
X52811Y-31366D01*
X55165Y-34429D02*
X54992Y-34256D01*
X55410Y-34535D02*
X55165Y-34429D01*
X56323Y-35689D02*
X55583Y-34708D01*
X56496Y-35862D02*
X56323Y-35689D01*
X57118Y-36350D02*
X56496Y-35862D01*
X54992Y-34256D02*
X53165Y-31977D01*
X55583Y-34708D02*
X55410Y-34535D01*
X53571Y-39610D02*
X53429Y-38866D01*
X53622Y-40319D02*
X53575Y-40075D01*
X53425Y-38429D02*
X53256Y-38114D01*
X53429Y-38866D02*
X53425Y-38429D01*
X53575Y-40075D02*
X53571Y-39610D01*
X56339Y-40291D02*
X55988Y-37622D01*
X51378Y-39669D02*
X52327Y-39752D01*
X54945Y-37449D02*
X55563Y-39015D01*
X54783Y-36929D02*
X54945Y-37449D01*
X44111Y-31184D02*
X44160Y-31184D01*
X53811Y-31366D02*
X54638Y-30948D01*
X43811Y-31366D02*
X44072Y-31184D01*
X53728Y-34539D02*
X54689Y-34630D01*
X56453Y-34539D02*
X55287Y-34134D01*
X57169Y-34539D02*
X56453Y-34539D01*
X55563Y-39260D02*
X55370Y-40150D01*
X55563Y-39015D02*
X55563Y-39260D01*
X44072Y-31184D02*
X44111Y-31184D01*
X48811Y-31366D02*
X49421Y-30965D01*
X54638Y-30948D02*
X54984Y-30784D01*
X44984Y-30784D02*
X45811Y-30366D01*
X44638Y-30948D02*
X44984Y-30784D01*
X44160Y-31184D02*
X44638Y-30948D01*
X54984Y-30784D02*
X55811Y-30366D01*
X58745Y-38049D02*
X58787Y-38031D01*
X58548Y-38217D02*
X58745Y-38049D01*
X59125Y-37799D02*
X59167Y-37699D01*
X58949Y-37981D02*
X59122Y-37807D01*
X58787Y-38031D02*
X58949Y-37981D01*
X56453Y-38665D02*
X58548Y-38217D01*
X59167Y-37699D02*
X60520Y-36327D01*
X59122Y-37807D02*
X59125Y-37799D01*
X46882Y-33398D02*
X47572Y-33493D01*
X46134Y-33154D02*
X46882Y-33398D01*
X55985Y-36816D02*
X56299Y-37210D01*
X47572Y-33493D02*
X50491Y-33878D01*
X58548Y-37626D02*
X58827Y-37685D01*
X58303Y-37626D02*
X58548Y-37626D01*
X57201Y-37949D02*
X58303Y-37626D01*
X56956Y-37949D02*
X57201Y-37949D01*
X56299Y-37210D02*
X56783Y-37776D01*
X56783Y-37776D02*
X56956Y-37949D01*
X55719Y-36551D02*
X55985Y-36816D01*
X52227Y-34366D02*
X53279Y-35400D01*
X54604Y-36473D02*
X54971Y-36476D01*
X54971Y-36476D02*
X55719Y-36551D01*
X53279Y-35400D02*
X53932Y-35987D01*
X50491Y-33878D02*
X51444Y-34074D01*
X51444Y-34074D02*
X52227Y-34366D01*
X53932Y-35987D02*
X54604Y-36473D01*
X50563Y-33562D02*
X51516Y-33759D01*
X57004Y-37079D02*
X57248Y-37079D01*
X47760Y-33039D02*
X50563Y-33562D01*
X51516Y-33759D02*
X52299Y-34050D01*
X52299Y-34050D02*
X52399Y-34092D01*
X54541Y-35724D02*
X54914Y-35724D01*
X56048Y-36043D02*
X56492Y-36488D01*
X52399Y-34092D02*
X53458Y-35133D01*
X54104Y-35713D02*
X54541Y-35724D01*
X56831Y-36906D02*
X57004Y-37079D01*
X54914Y-35724D02*
X55846Y-35960D01*
X56492Y-36488D02*
X56831Y-36906D01*
X55846Y-35960D02*
X56048Y-36043D01*
X57248Y-37079D02*
X57476Y-37047D01*
X53458Y-35133D02*
X54104Y-35713D01*
X53551Y-37992D02*
X54858Y-39567D01*
X53378Y-37819D02*
X53551Y-37992D01*
X49280Y-34220D02*
X53378Y-37819D01*
X51256Y-34528D02*
X53972Y-37728D01*
X53130Y-38551D02*
X53252Y-38862D01*
X53252Y-38862D02*
X53276Y-39732D01*
X55240Y-37327D02*
X55721Y-38950D01*
X55721Y-39326D02*
X55669Y-39929D01*
X55669Y-39929D02*
X55669Y-40174D01*
X55669Y-40174D02*
X55689Y-40445D01*
X55721Y-38950D02*
X55721Y-39326D01*
X51949Y-40307D02*
X52449Y-40047D01*
X52622Y-39874D02*
X52957Y-38984D01*
X52449Y-40047D02*
X52622Y-39874D01*
X46011Y-33449D02*
X50426Y-34035D01*
X56626Y-37841D02*
X56891Y-38107D01*
X51378Y-34232D02*
X52162Y-34523D01*
X50426Y-34035D02*
X51378Y-34232D01*
X54906Y-36634D02*
X55654Y-36708D01*
X45398Y-33201D02*
X46011Y-33449D01*
X52162Y-34523D02*
X53190Y-35534D01*
X55827Y-36882D02*
X56165Y-37299D01*
X53190Y-35534D02*
X53842Y-36121D01*
X53842Y-36121D02*
X54521Y-36613D01*
X54521Y-36613D02*
X54563Y-36631D01*
X56891Y-38107D02*
X57266Y-38107D01*
X57266Y-38107D02*
X58425Y-37921D01*
X55654Y-36708D02*
X55827Y-36882D01*
X54563Y-36631D02*
X54906Y-36634D01*
X56165Y-37299D02*
X56626Y-37841D01*
X47004Y-33102D02*
X47637Y-33335D01*
X51484Y-33917D02*
X52268Y-34208D01*
X47637Y-33335D02*
X50531Y-33720D01*
X50531Y-33720D02*
X51484Y-33917D01*
X55802Y-36411D02*
X56125Y-36733D01*
X56433Y-37121D02*
X56789Y-37477D01*
X52268Y-34208D02*
X52310Y-34226D01*
X55012Y-36318D02*
X55760Y-36393D01*
X56789Y-37477D02*
X57079Y-37654D01*
X56125Y-36733D02*
X56433Y-37121D01*
X54021Y-35853D02*
X54669Y-36315D01*
X55760Y-36393D02*
X55802Y-36411D01*
X52310Y-34226D02*
X53369Y-35266D01*
X54669Y-36315D02*
X55012Y-36318D01*
X53369Y-35266D02*
X54021Y-35853D01*
X53850Y-38024D02*
X55268Y-39138D01*
X53677Y-37851D02*
X53850Y-38024D01*
X50303Y-34331D02*
X53677Y-37851D01*
X52039Y-34819D02*
X54504Y-37850D01*
X53870Y-39953D02*
X53724Y-38744D01*
X55879Y-38909D02*
X55965Y-40051D01*
X55531Y-37004D02*
X55879Y-38909D01*
X60642Y-36031D02*
X61000Y-36150D01*
X63150Y-36654D02*
X65267Y-37181D01*
X66698Y-37311D02*
X67913Y-37705D01*
X56618Y-35567D02*
X60642Y-36031D01*
X65267Y-37181D02*
X66698Y-37311D01*
X66698Y-36099D02*
X67913Y-35705D01*
X66372Y-36099D02*
X66698Y-36099D01*
X57956Y-35544D02*
X61303Y-35839D01*
X62764Y-35913D02*
X66372Y-36099D01*
X56902Y-35236D02*
X57956Y-35544D01*
X57370Y-40685D02*
X57232Y-40890D01*
X57783Y-40218D02*
X57370Y-40685D01*
X58049Y-39952D02*
X57783Y-40218D01*
X59894Y-38059D02*
X59311Y-38764D01*
X59311Y-38764D02*
X59138Y-38937D01*
X59138Y-38937D02*
X58049Y-39952D01*
X60327Y-37957D02*
X60189Y-38181D01*
X60016Y-38355D02*
X58114Y-40110D01*
X60189Y-38181D02*
X60016Y-38355D01*
X57941Y-40283D02*
X57665Y-40807D01*
X58114Y-40110D02*
X57941Y-40283D01*
X67756Y-39029D02*
X67756Y-38981D01*
X64233Y-39275D02*
X64835Y-39114D01*
X64089Y-39334D02*
X64233Y-39275D01*
X58236Y-40406D02*
X63518Y-39587D01*
X66210Y-39099D02*
X66761Y-39099D01*
X65851Y-38783D02*
X66210Y-39099D01*
X64835Y-39114D02*
X65088Y-38862D01*
X63518Y-39587D02*
X64089Y-39334D01*
X65088Y-38862D02*
X65606Y-38783D01*
X65606Y-38783D02*
X65851Y-38783D01*
X66761Y-39099D02*
X66860Y-39099D01*
X66860Y-39099D02*
X67686Y-39099D01*
X67686Y-39099D02*
X67756Y-39029D01*
X67756Y-38981D02*
X67756Y-38941D01*
X67756Y-38941D02*
X67913Y-38705D01*
X57917Y-41536D02*
X63645Y-40178D01*
X55173Y-42173D02*
X57917Y-41536D01*
X65398Y-39610D02*
X65693Y-39512D01*
X64393Y-39866D02*
X65398Y-39610D01*
X63847Y-40095D02*
X64393Y-39866D01*
X63645Y-40178D02*
X63847Y-40095D01*
X65728Y-39079D02*
X65398Y-39019D01*
X57355Y-41185D02*
X55299Y-41378D01*
X57788Y-41103D02*
X57355Y-41185D01*
X63559Y-39745D02*
X57788Y-41103D01*
X65398Y-39019D02*
X65153Y-39019D01*
X65153Y-39019D02*
X64900Y-39272D01*
X64900Y-39272D02*
X64264Y-39432D01*
X64264Y-39432D02*
X64178Y-39468D01*
X64178Y-39468D02*
X63601Y-39727D01*
X63601Y-39727D02*
X63559Y-39745D01*
X68070Y-34397D02*
X67913Y-34161D01*
X59598Y-37937D02*
X59771Y-37764D01*
X68070Y-34485D02*
X68070Y-34436D01*
X60449Y-37661D02*
X64678Y-37921D01*
X68070Y-34436D02*
X68070Y-34397D01*
X59595Y-37945D02*
X59598Y-37937D01*
X59554Y-38045D02*
X59595Y-37945D01*
X59016Y-38642D02*
X59554Y-38045D01*
X64678Y-37921D02*
X66372Y-38099D01*
X60204Y-37661D02*
X60449Y-37661D01*
X68307Y-35542D02*
X68070Y-34485D01*
X59771Y-37764D02*
X60204Y-37661D01*
X68307Y-37542D02*
X68307Y-35542D01*
X66372Y-38099D02*
X67750Y-38099D01*
X67750Y-38099D02*
X68076Y-38099D01*
X68076Y-38099D02*
X68307Y-37868D01*
X68307Y-37868D02*
X68307Y-37542D01*
X59571Y-39213D02*
X63208Y-39429D01*
X63208Y-39429D02*
X63453Y-39429D01*
X63453Y-39429D02*
X64713Y-38819D01*
X61431Y-36359D02*
X61430Y-36361D01*
X61430Y-36361D02*
X61216Y-36574D01*
X61430Y-36361D02*
X61430Y-36361D01*
X61216Y-36574D02*
X61216Y-36574D01*
X61734Y-36049D02*
X61725Y-36057D01*
X61725Y-36057D02*
X61431Y-36359D01*
X61725Y-36057D02*
X61725Y-36057D01*
X61431Y-36359D02*
X61431Y-36359D01*
X61199Y-36589D02*
X61193Y-36593D01*
X58697Y-38542D02*
X58697Y-38542D01*
X56550Y-40721D02*
X56511Y-40742D01*
X61216Y-36574D02*
X61211Y-36579D01*
X61211Y-36579D02*
X61211Y-36579D01*
X61211Y-36579D02*
X61199Y-36589D01*
X61193Y-36593D02*
X59719Y-37593D01*
X59719Y-37593D02*
X59719Y-37593D01*
X59719Y-37593D02*
X59439Y-37876D01*
X61199Y-36589D02*
X61199Y-36589D01*
X55122Y-41018D02*
X54862Y-40976D01*
X63587Y-32673D02*
X63357Y-32886D01*
X55215Y-41018D02*
X55122Y-41018D01*
X61734Y-36049D02*
X61734Y-36049D01*
X63357Y-32886D02*
X61753Y-36019D01*
X61753Y-36019D02*
X61753Y-36019D01*
X61753Y-36019D02*
X61747Y-36029D01*
X61747Y-36029D02*
X61747Y-36029D01*
X61747Y-36029D02*
X61734Y-36049D01*
X56768Y-40502D02*
X56768Y-40502D01*
X56768Y-40502D02*
X56565Y-40705D01*
X58697Y-38542D02*
X56769Y-40501D01*
X56769Y-40501D02*
X56769Y-40501D01*
X56769Y-40501D02*
X56768Y-40502D01*
X56565Y-40705D02*
X56565Y-40705D01*
X56565Y-40705D02*
X56550Y-40721D01*
X56550Y-40721D02*
X56550Y-40721D01*
X59439Y-37876D02*
X59438Y-37888D01*
X59439Y-37876D02*
X59439Y-37876D01*
X61193Y-36593D02*
X61193Y-36593D01*
X56490Y-40747D02*
X56490Y-40747D01*
X56511Y-40742D02*
X56511Y-40742D01*
X56511Y-40742D02*
X56490Y-40747D01*
X56490Y-40747D02*
X55864Y-40895D01*
X55864Y-40895D02*
X55857Y-40897D01*
X55857Y-40897D02*
X55857Y-40897D01*
X55864Y-40895D02*
X55864Y-40895D01*
X55857Y-40897D02*
X55215Y-41018D01*
X58902Y-38338D02*
X58697Y-38542D01*
X59438Y-37888D02*
X59438Y-37888D01*
X59438Y-37888D02*
X59434Y-37914D01*
X59434Y-37914D02*
X59434Y-37914D01*
X59434Y-37914D02*
X59411Y-37960D01*
X59411Y-37960D02*
X59411Y-37960D01*
X59411Y-37960D02*
X59393Y-37979D01*
X59393Y-37979D02*
X59393Y-37979D01*
X59393Y-37979D02*
X59116Y-38255D01*
X59116Y-38255D02*
X59116Y-38255D01*
X58902Y-38338D02*
X58902Y-38338D01*
X59048Y-38295D02*
X58902Y-38338D01*
X59048Y-38295D02*
X59048Y-38295D01*
X59067Y-38290D02*
X59048Y-38295D01*
X59067Y-38290D02*
X59067Y-38290D01*
X59102Y-38270D02*
X59067Y-38290D01*
X59102Y-38270D02*
X59102Y-38270D01*
X59116Y-38255D02*
X59102Y-38270D01*
X61613Y-35947D02*
X61613Y-35947D01*
X61613Y-35947D02*
X61318Y-36249D01*
X63217Y-32814D02*
X61613Y-35947D01*
X61318Y-36249D02*
X61105Y-36463D01*
X61105Y-36463D02*
X61105Y-36463D01*
X61105Y-36463D02*
X59630Y-37463D01*
X59630Y-37463D02*
X59630Y-37463D01*
X59630Y-37463D02*
X59624Y-37467D01*
X59624Y-37467D02*
X59624Y-37467D01*
X59606Y-37483D02*
X59606Y-37483D01*
X59612Y-37477D02*
X59612Y-37477D01*
X59612Y-37477D02*
X59606Y-37483D01*
X61318Y-36249D02*
X61318Y-36249D01*
X59606Y-37483D02*
X59327Y-37766D01*
X59624Y-37467D02*
X59612Y-37477D01*
X59286Y-37830D02*
X59283Y-37856D01*
X59309Y-37784D02*
X59286Y-37830D01*
X59327Y-37766D02*
X59309Y-37784D01*
X55186Y-40864D02*
X55067Y-40567D01*
X63154Y-32512D02*
X63217Y-32814D01*
X58839Y-38192D02*
X58805Y-38212D01*
X58791Y-38226D02*
X58586Y-38431D01*
X55828Y-40742D02*
X55828Y-40742D01*
X56454Y-40594D02*
X55828Y-40742D01*
X58839Y-38192D02*
X58839Y-38192D01*
X56657Y-40391D02*
X56454Y-40594D01*
X56657Y-40391D02*
X56657Y-40391D01*
X58585Y-38432D02*
X56657Y-40391D01*
X58585Y-38432D02*
X58585Y-38432D01*
X58586Y-38431D02*
X58585Y-38432D01*
X58586Y-38431D02*
X58586Y-38431D01*
X58805Y-38212D02*
X58805Y-38212D01*
X58791Y-38226D02*
X58791Y-38226D01*
X58805Y-38212D02*
X58791Y-38226D01*
X56454Y-40594D02*
X56454Y-40594D01*
X59286Y-37830D02*
X59286Y-37830D01*
X55828Y-40742D02*
X55186Y-40864D01*
X59309Y-37784D02*
X59309Y-37784D01*
X59327Y-37766D02*
X59327Y-37766D01*
X58858Y-38186D02*
X58839Y-38192D01*
X58858Y-38186D02*
X58858Y-38186D01*
X59005Y-38144D02*
X58858Y-38186D01*
X59005Y-38144D02*
X59005Y-38144D01*
X59281Y-37867D02*
X59005Y-38144D01*
X59281Y-37867D02*
X59281Y-37867D01*
X59283Y-37856D02*
X59281Y-37867D01*
X59283Y-37856D02*
X59283Y-37856D01*
X50173Y-40618D02*
X50418Y-40618D01*
X47012Y-37480D02*
X48575Y-40748D01*
X48992Y-40921D02*
X50173Y-40618D01*
X53299Y-42804D02*
X54268Y-42965D01*
X52704Y-42567D02*
X53299Y-42804D01*
X48575Y-40748D02*
X48748Y-40921D01*
X48748Y-40921D02*
X48992Y-40921D01*
X50418Y-40618D02*
X52704Y-42567D01*
G54D22*
X45811Y-31366D02*
X46613Y-31843D01*
X56613Y-30889D02*
X57009Y-30843D01*
X57009Y-30843D02*
X57811Y-30366D01*
X53465Y-45669D02*
X55906Y-45748D01*
X55906Y-45748D02*
X55748Y-44567D01*
X55906Y-45748D02*
X58031Y-45748D01*
X58031Y-45748D02*
X57717Y-44409D01*
X58031Y-45748D02*
X60866Y-45748D01*
X60866Y-45748D02*
X62913Y-45512D01*
X61024Y-44331D02*
X60866Y-45748D01*
X62205Y-44094D02*
X62913Y-45512D01*
X62913Y-45512D02*
X65118Y-45512D01*
X68031Y-43465D02*
X67244Y-45039D01*
X64724Y-42362D02*
X65984Y-42362D01*
X65984Y-42362D02*
X65610Y-43622D01*
X68031Y-43465D02*
X68110Y-40000D01*
X61732Y-41181D02*
X62280Y-41642D01*
X63307Y-37323D02*
X64488Y-37402D01*
X58740Y-35118D02*
X59528Y-34646D01*
X47874Y-40630D02*
X46457Y-38425D01*
X50236Y-38189D02*
X48504Y-37638D01*
X50236Y-38189D02*
X51339Y-38504D01*
X51339Y-38504D02*
X52205Y-37402D01*
X53307Y-41102D02*
X52913Y-40315D01*
X59026Y-43177D02*
X57925Y-43193D01*
X59026Y-43177D02*
X59014Y-42970D01*
X61709Y-42350D02*
X61146Y-43114D01*
X45009Y-31843D02*
X44785Y-31843D01*
X57925Y-43193D02*
X54941Y-42804D01*
X49618Y-31933D02*
X50009Y-31843D01*
X50009Y-31843D02*
X50213Y-31780D01*
X52693Y-31925D02*
X51613Y-31843D01*
X51613Y-31843D02*
X50811Y-31366D01*
X62280Y-41642D02*
X61709Y-42350D01*
X54941Y-42804D02*
X54415Y-42610D01*
X54415Y-42610D02*
X53373Y-42587D01*
X53373Y-42587D02*
X52827Y-42272D01*
X61146Y-43114D02*
X60165Y-43161D01*
X61146Y-43114D02*
X63067Y-43020D01*
X63067Y-43020D02*
X63173Y-42893D01*
X63173Y-42893D02*
X63381Y-42685D01*
X63381Y-42685D02*
X63674Y-42685D01*
X63674Y-42685D02*
X65610Y-43622D01*
X50748Y-42000D02*
X50295Y-40913D01*
X49449Y-42626D02*
X46473Y-43120D01*
X45811Y-31366D02*
X45009Y-31843D01*
X60165Y-43161D02*
X59026Y-43177D01*
X59528Y-34646D02*
X60945Y-34646D01*
X53465Y-45669D02*
X53307Y-44567D01*
X63409Y-35205D02*
X64197Y-35209D01*
X54728Y-35272D02*
X55287Y-34831D01*
X64555Y-38217D02*
X63331Y-39134D01*
X46613Y-31843D02*
X47795Y-32283D01*
X66535Y-36705D02*
X65390Y-36886D01*
X47795Y-32283D02*
X49051Y-32205D01*
X44785Y-31843D02*
X44184Y-31843D01*
X44184Y-31843D02*
X44038Y-31843D01*
X46613Y-30889D02*
X47009Y-30843D01*
X43438Y-31843D02*
X40394Y-30394D01*
X44785Y-31843D02*
X44724Y-32677D01*
X45811Y-31366D02*
X46220Y-32283D01*
X44409Y-34882D02*
X44409Y-35827D01*
X44409Y-35827D02*
X44409Y-37480D01*
X44409Y-37480D02*
X42441Y-37559D01*
X42441Y-37559D02*
X41811Y-38189D01*
X41811Y-38189D02*
X41004Y-38029D01*
X41004Y-38029D02*
X41004Y-38405D01*
X41004Y-38405D02*
X40551Y-39217D01*
X45811Y-31366D02*
X46613Y-30889D01*
X40945Y-41339D02*
X42441Y-39764D01*
X42441Y-39764D02*
X43307Y-41024D01*
X43307Y-41024D02*
X44016Y-39921D01*
X43307Y-41024D02*
X43858Y-42205D01*
X43858Y-42205D02*
X46457Y-42441D01*
X46473Y-43120D02*
X41264Y-43984D01*
X46473Y-43120D02*
X46614Y-44094D01*
X40394Y-45039D02*
X42126Y-45669D01*
X42126Y-45669D02*
X44252Y-45669D01*
X44252Y-45669D02*
X46220Y-45591D01*
X46220Y-45591D02*
X48976Y-45591D01*
X48976Y-45591D02*
X49213Y-44173D01*
X48976Y-45591D02*
X51417Y-45748D01*
X51417Y-45748D02*
X51339Y-44409D01*
X51417Y-45748D02*
X53465Y-45669D01*
X67244Y-45039D02*
X65610Y-43622D01*
X47009Y-30843D02*
X47811Y-30366D01*
X50811Y-31366D02*
X51613Y-30889D01*
X51613Y-30889D02*
X52009Y-30843D01*
X52009Y-30843D02*
X52811Y-30366D01*
X55811Y-31366D02*
X55009Y-31843D01*
X55009Y-31843D02*
X53461Y-31854D01*
X55811Y-31366D02*
X56613Y-30889D01*
X66535Y-36705D02*
X67913Y-36705D01*
X47323Y-35118D02*
X44409Y-34882D01*
X44038Y-31843D02*
X43438Y-31843D01*
X40394Y-45039D02*
X41264Y-43984D01*
X39606Y-42413D02*
X40114Y-42343D01*
X39606Y-34618D02*
X40112Y-35406D01*
X39606Y-37217D02*
X40363Y-37670D01*
X39606Y-39815D02*
X40551Y-39217D01*
X40113Y-35826D02*
X39606Y-37217D01*
X40114Y-42343D02*
X41264Y-43984D01*
X40363Y-37670D02*
X40739Y-37764D01*
X40739Y-37764D02*
X41004Y-38029D01*
X39606Y-32020D02*
X40394Y-30394D01*
X67913Y-33161D02*
X67244Y-30394D01*
X40113Y-35410D02*
X40113Y-35826D01*
X40112Y-35406D02*
X40113Y-35410D01*
X40551Y-39217D02*
X40114Y-42343D01*
X40113Y-33228D02*
X39606Y-34618D01*
X40113Y-32812D02*
X40113Y-33228D01*
X40112Y-32808D02*
X40113Y-32812D01*
X39606Y-32020D02*
X40112Y-32808D01*
G54D23*
X46768Y-41295D02*
X49976Y-41433D01*
G54D10*
G36*
X51986Y-33448D02*
X49611Y-32077D01*
X49307Y-31775D01*
X49293Y-31765D01*
X49283Y-31755D01*
X49265Y-31746D01*
X49246Y-31734D01*
X49229Y-31730D01*
X49217Y-31725D01*
X49111Y-31700D01*
X49191Y-31621D01*
X49260Y-31456D01*
X49260Y-31297D01*
X49302Y-31269D01*
X49356Y-31292D01*
X49362Y-31292D01*
X49362Y-31455D01*
X49430Y-31620D01*
X49556Y-31746D01*
X49721Y-31815D01*
X49900Y-31815D01*
X50065Y-31747D01*
X50191Y-31621D01*
X50205Y-31585D01*
X50216Y-31607D01*
X50217Y-31610D01*
X50219Y-31613D01*
X50222Y-31619D01*
X50232Y-31633D01*
X50258Y-31671D01*
X50372Y-31788D01*
X50373Y-31789D01*
X51986Y-33448D01*
X51986Y-33448D01*
G37*
G54D24*
X51986Y-33448D02*
X49611Y-32077D01*
X49307Y-31775D01*
X49293Y-31765D01*
X49283Y-31755D01*
X49265Y-31746D01*
X49246Y-31734D01*
X49229Y-31730D01*
X49217Y-31725D01*
X49111Y-31700D01*
X49191Y-31621D01*
X49260Y-31456D01*
X49260Y-31297D01*
X49302Y-31269D01*
X49356Y-31292D01*
X49362Y-31292D01*
X49362Y-31455D01*
X49430Y-31620D01*
X49556Y-31746D01*
X49721Y-31815D01*
X49900Y-31815D01*
X50065Y-31747D01*
X50191Y-31621D01*
X50205Y-31585D01*
X50216Y-31607D01*
X50217Y-31610D01*
X50219Y-31613D01*
X50222Y-31619D01*
X50232Y-31633D01*
X50258Y-31671D01*
X50372Y-31788D01*
X50373Y-31789D01*
X51986Y-33448D01*
G54D10*
G36*
X55325Y-39465D02*
X55241Y-39849D01*
X55185Y-39873D01*
X55093Y-39965D01*
X55043Y-40085D01*
X55043Y-40215D01*
X55053Y-40240D01*
X55002Y-40240D01*
X54882Y-40290D01*
X54790Y-40382D01*
X54740Y-40502D01*
X54740Y-40632D01*
X54754Y-40666D01*
X54677Y-40699D01*
X54585Y-40791D01*
X54535Y-40911D01*
X54535Y-41041D01*
X54585Y-41161D01*
X54176Y-40951D01*
X54151Y-40890D01*
X54059Y-40798D01*
X53939Y-40748D01*
X53809Y-40748D01*
X53689Y-40798D01*
X53597Y-40890D01*
X53547Y-41010D01*
X53547Y-41140D01*
X53597Y-41260D01*
X53689Y-41352D01*
X53809Y-41402D01*
X53939Y-41402D01*
X53954Y-41395D01*
X54967Y-41916D01*
X54896Y-41988D01*
X54846Y-42108D01*
X54846Y-42197D01*
X54586Y-42101D01*
X54555Y-42096D01*
X54525Y-42087D01*
X53757Y-42007D01*
X53705Y-41955D01*
X53585Y-41905D01*
X53519Y-41905D01*
X52010Y-40634D01*
X52014Y-40634D01*
X52134Y-40584D01*
X52226Y-40492D01*
X52276Y-40372D01*
X52276Y-40350D01*
X52522Y-40222D01*
X52536Y-40215D01*
X52553Y-40200D01*
X52583Y-40181D01*
X52593Y-40169D01*
X52755Y-40008D01*
X52756Y-40005D01*
X52760Y-40003D01*
X52779Y-39972D01*
X52796Y-39947D01*
X52796Y-39943D01*
X52799Y-39940D01*
X53037Y-39304D01*
X53074Y-39289D01*
X53079Y-39466D01*
X52999Y-39547D01*
X52949Y-39667D01*
X52949Y-39797D01*
X52999Y-39917D01*
X53091Y-40009D01*
X53211Y-40059D01*
X53341Y-40059D01*
X53385Y-40040D01*
X53386Y-40077D01*
X53388Y-40090D01*
X53345Y-40134D01*
X53295Y-40254D01*
X53295Y-40384D01*
X53345Y-40504D01*
X53437Y-40596D01*
X53557Y-40646D01*
X53687Y-40646D01*
X53807Y-40596D01*
X53899Y-40504D01*
X53949Y-40384D01*
X53949Y-40274D01*
X54055Y-40230D01*
X54147Y-40138D01*
X54197Y-40018D01*
X54197Y-39888D01*
X54147Y-39768D01*
X54055Y-39676D01*
X54025Y-39663D01*
X53944Y-38985D01*
X54001Y-38929D01*
X54028Y-38862D01*
X54540Y-39479D01*
X54531Y-39502D01*
X54531Y-39632D01*
X54581Y-39752D01*
X54673Y-39844D01*
X54793Y-39894D01*
X54923Y-39894D01*
X55043Y-39844D01*
X55135Y-39752D01*
X55185Y-39632D01*
X55185Y-39502D01*
X55162Y-39448D01*
X55203Y-39465D01*
X55325Y-39465D01*
X55325Y-39465D01*
G37*
G54D24*
X55325Y-39465D02*
X55241Y-39849D01*
X55185Y-39873D01*
X55093Y-39965D01*
X55043Y-40085D01*
X55043Y-40215D01*
X55053Y-40240D01*
X55002Y-40240D01*
X54882Y-40290D01*
X54790Y-40382D01*
X54740Y-40502D01*
X54740Y-40632D01*
X54754Y-40666D01*
X54677Y-40699D01*
X54585Y-40791D01*
X54535Y-40911D01*
X54535Y-41041D01*
X54585Y-41161D01*
X54176Y-40951D01*
X54151Y-40890D01*
X54059Y-40798D01*
X53939Y-40748D01*
X53809Y-40748D01*
X53689Y-40798D01*
X53597Y-40890D01*
X53547Y-41010D01*
X53547Y-41140D01*
X53597Y-41260D01*
X53689Y-41352D01*
X53809Y-41402D01*
X53939Y-41402D01*
X53954Y-41395D01*
X54967Y-41916D01*
X54896Y-41988D01*
X54846Y-42108D01*
X54846Y-42197D01*
X54586Y-42101D01*
X54555Y-42096D01*
X54525Y-42087D01*
X53757Y-42007D01*
X53705Y-41955D01*
X53585Y-41905D01*
X53519Y-41905D01*
X52010Y-40634D01*
X52014Y-40634D01*
X52134Y-40584D01*
X52226Y-40492D01*
X52276Y-40372D01*
X52276Y-40350D01*
X52522Y-40222D01*
X52536Y-40215D01*
X52553Y-40200D01*
X52583Y-40181D01*
X52593Y-40169D01*
X52755Y-40008D01*
X52756Y-40005D01*
X52760Y-40003D01*
X52779Y-39972D01*
X52796Y-39947D01*
X52796Y-39943D01*
X52799Y-39940D01*
X53037Y-39304D01*
X53074Y-39289D01*
X53079Y-39466D01*
X52999Y-39547D01*
X52949Y-39667D01*
X52949Y-39797D01*
X52999Y-39917D01*
X53091Y-40009D01*
X53211Y-40059D01*
X53341Y-40059D01*
X53385Y-40040D01*
X53386Y-40077D01*
X53388Y-40090D01*
X53345Y-40134D01*
X53295Y-40254D01*
X53295Y-40384D01*
X53345Y-40504D01*
X53437Y-40596D01*
X53557Y-40646D01*
X53687Y-40646D01*
X53807Y-40596D01*
X53899Y-40504D01*
X53949Y-40384D01*
X53949Y-40274D01*
X54055Y-40230D01*
X54147Y-40138D01*
X54197Y-40018D01*
X54197Y-39888D01*
X54147Y-39768D01*
X54055Y-39676D01*
X54025Y-39663D01*
X53944Y-38985D01*
X54001Y-38929D01*
X54028Y-38862D01*
X54540Y-39479D01*
X54531Y-39502D01*
X54531Y-39632D01*
X54581Y-39752D01*
X54673Y-39844D01*
X54793Y-39894D01*
X54923Y-39894D01*
X55043Y-39844D01*
X55135Y-39752D01*
X55185Y-39632D01*
X55185Y-39502D01*
X55162Y-39448D01*
X55203Y-39465D01*
X55325Y-39465D01*
G54D10*
G36*
X56079Y-35680D02*
X55949Y-35627D01*
X55933Y-35623D01*
X55925Y-35620D01*
X55027Y-35384D01*
X55000Y-35382D01*
X54979Y-35378D01*
X54611Y-35378D01*
X54596Y-35377D01*
X54618Y-35325D01*
X54618Y-35195D01*
X54568Y-35075D01*
X54476Y-34983D01*
X54356Y-34933D01*
X54226Y-34933D01*
X54164Y-34958D01*
X53921Y-34807D01*
X53976Y-34752D01*
X54402Y-34792D01*
X54412Y-34815D01*
X54504Y-34907D01*
X54624Y-34957D01*
X54754Y-34957D01*
X54874Y-34907D01*
X54966Y-34815D01*
X55016Y-34695D01*
X55016Y-34565D01*
X55003Y-34534D01*
X55027Y-34558D01*
X55029Y-34561D01*
X55031Y-34562D01*
X55090Y-34602D01*
X55091Y-34602D01*
X55092Y-34603D01*
X55300Y-34693D01*
X55438Y-34830D01*
X56079Y-35680D01*
X56079Y-35680D01*
G37*
G54D24*
X56079Y-35680D02*
X55949Y-35627D01*
X55933Y-35623D01*
X55925Y-35620D01*
X55027Y-35384D01*
X55000Y-35382D01*
X54979Y-35378D01*
X54611Y-35378D01*
X54596Y-35377D01*
X54618Y-35325D01*
X54618Y-35195D01*
X54568Y-35075D01*
X54476Y-34983D01*
X54356Y-34933D01*
X54226Y-34933D01*
X54164Y-34958D01*
X53921Y-34807D01*
X53976Y-34752D01*
X54402Y-34792D01*
X54412Y-34815D01*
X54504Y-34907D01*
X54624Y-34957D01*
X54754Y-34957D01*
X54874Y-34907D01*
X54966Y-34815D01*
X55016Y-34695D01*
X55016Y-34565D01*
X55003Y-34534D01*
X55027Y-34558D01*
X55029Y-34561D01*
X55031Y-34562D01*
X55090Y-34602D01*
X55091Y-34602D01*
X55092Y-34603D01*
X55300Y-34693D01*
X55438Y-34830D01*
X56079Y-35680D01*
G54D10*
G36*
X58040Y-30975D02*
X57901Y-30917D01*
X57722Y-30917D01*
X57557Y-30985D01*
X57431Y-31111D01*
X57362Y-31276D01*
X57362Y-31455D01*
X57430Y-31620D01*
X57556Y-31746D01*
X57721Y-31815D01*
X57900Y-31815D01*
X58029Y-31761D01*
X57900Y-34968D01*
X57894Y-34971D01*
X57802Y-35063D01*
X57752Y-35183D01*
X57752Y-35287D01*
X57211Y-35130D01*
X57179Y-35051D01*
X57087Y-34959D01*
X56967Y-34909D01*
X56837Y-34909D01*
X56717Y-34959D01*
X56625Y-35051D01*
X56575Y-35171D01*
X56575Y-35240D01*
X56553Y-35240D01*
X56433Y-35290D01*
X56341Y-35382D01*
X56336Y-35393D01*
X55734Y-34594D01*
X55722Y-34583D01*
X55716Y-34574D01*
X55577Y-34434D01*
X56136Y-34629D01*
X56176Y-34724D01*
X56268Y-34816D01*
X56388Y-34866D01*
X56518Y-34866D01*
X56638Y-34816D01*
X56726Y-34728D01*
X56896Y-34728D01*
X56984Y-34816D01*
X57104Y-34866D01*
X57234Y-34866D01*
X57354Y-34816D01*
X57446Y-34724D01*
X57496Y-34604D01*
X57496Y-34474D01*
X57446Y-34354D01*
X57354Y-34262D01*
X57260Y-34222D01*
X57260Y-31456D01*
X57260Y-31277D01*
X57192Y-31112D01*
X57066Y-30986D01*
X56901Y-30917D01*
X56722Y-30917D01*
X56557Y-30985D01*
X56431Y-31111D01*
X56362Y-31276D01*
X56362Y-31455D01*
X56430Y-31620D01*
X56556Y-31746D01*
X56721Y-31815D01*
X56900Y-31815D01*
X57065Y-31747D01*
X57191Y-31621D01*
X57260Y-31456D01*
X57260Y-34222D01*
X57234Y-34212D01*
X57104Y-34212D01*
X56984Y-34262D01*
X56896Y-34350D01*
X56726Y-34350D01*
X56638Y-34262D01*
X56518Y-34212D01*
X56388Y-34212D01*
X56272Y-34260D01*
X56272Y-31284D01*
X56206Y-31114D01*
X56194Y-31099D01*
X56118Y-31072D01*
X56105Y-31085D01*
X56105Y-31059D01*
X56078Y-30983D01*
X55911Y-30909D01*
X55729Y-30905D01*
X55559Y-30971D01*
X55544Y-30983D01*
X55517Y-31059D01*
X55811Y-31353D01*
X56105Y-31059D01*
X56105Y-31085D01*
X55824Y-31366D01*
X56118Y-31660D01*
X56194Y-31633D01*
X56268Y-31466D01*
X56272Y-31284D01*
X56272Y-34260D01*
X56268Y-34262D01*
X56258Y-34271D01*
X56105Y-34217D01*
X56105Y-31673D01*
X55811Y-31379D01*
X55798Y-31392D01*
X55798Y-31366D01*
X55504Y-31072D01*
X55428Y-31099D01*
X55354Y-31266D01*
X55350Y-31448D01*
X55416Y-31618D01*
X55428Y-31633D01*
X55504Y-31660D01*
X55798Y-31366D01*
X55798Y-31392D01*
X55517Y-31673D01*
X55544Y-31749D01*
X55711Y-31823D01*
X55893Y-31827D01*
X56063Y-31761D01*
X56078Y-31749D01*
X56105Y-31673D01*
X56105Y-34217D01*
X55603Y-34044D01*
X55564Y-33949D01*
X55472Y-33857D01*
X55352Y-33807D01*
X55222Y-33807D01*
X55102Y-33857D01*
X55010Y-33949D01*
X55002Y-33968D01*
X53322Y-31871D01*
X53182Y-31629D01*
X53191Y-31621D01*
X53260Y-31456D01*
X53260Y-31277D01*
X53192Y-31112D01*
X53105Y-31025D01*
X53105Y-30673D01*
X52811Y-30379D01*
X52517Y-30673D01*
X52544Y-30749D01*
X52711Y-30823D01*
X52893Y-30827D01*
X53063Y-30761D01*
X53078Y-30749D01*
X53105Y-30673D01*
X53105Y-31025D01*
X53066Y-30986D01*
X52901Y-30917D01*
X52722Y-30917D01*
X52557Y-30985D01*
X52431Y-31111D01*
X52362Y-31276D01*
X52362Y-31455D01*
X52430Y-31620D01*
X52556Y-31746D01*
X52721Y-31815D01*
X52852Y-31815D01*
X53002Y-32072D01*
X53009Y-32080D01*
X53017Y-32095D01*
X54802Y-34323D01*
X54754Y-34303D01*
X54624Y-34303D01*
X54504Y-34353D01*
X54440Y-34416D01*
X54014Y-34376D01*
X54005Y-34354D01*
X53913Y-34262D01*
X53793Y-34212D01*
X53663Y-34212D01*
X53543Y-34262D01*
X53451Y-34354D01*
X53434Y-34394D01*
X52260Y-33187D01*
X52260Y-31456D01*
X52260Y-31277D01*
X52192Y-31112D01*
X52066Y-30986D01*
X51901Y-30917D01*
X51722Y-30917D01*
X51557Y-30985D01*
X51431Y-31111D01*
X51362Y-31276D01*
X51362Y-31455D01*
X51430Y-31620D01*
X51556Y-31746D01*
X51721Y-31815D01*
X51900Y-31815D01*
X52065Y-31747D01*
X52191Y-31621D01*
X52260Y-31456D01*
X52260Y-33187D01*
X51272Y-32171D01*
X51272Y-31284D01*
X51206Y-31114D01*
X51194Y-31099D01*
X51118Y-31072D01*
X51105Y-31085D01*
X51105Y-31059D01*
X51078Y-30983D01*
X50911Y-30909D01*
X50729Y-30905D01*
X50559Y-30971D01*
X50544Y-30983D01*
X50517Y-31059D01*
X50811Y-31353D01*
X51105Y-31059D01*
X51105Y-31085D01*
X50824Y-31366D01*
X51118Y-31660D01*
X51194Y-31633D01*
X51268Y-31466D01*
X51272Y-31284D01*
X51272Y-32171D01*
X50924Y-31814D01*
X51063Y-31761D01*
X51078Y-31749D01*
X51105Y-31673D01*
X50846Y-31414D01*
X50811Y-31379D01*
X50798Y-31366D01*
X50763Y-31331D01*
X50504Y-31072D01*
X50428Y-31099D01*
X50411Y-31136D01*
X50400Y-31112D01*
X50397Y-31108D01*
X50397Y-31107D01*
X50164Y-30647D01*
X50191Y-30621D01*
X50260Y-30456D01*
X50260Y-30277D01*
X50202Y-30137D01*
X50420Y-30137D01*
X50362Y-30276D01*
X50362Y-30455D01*
X50430Y-30620D01*
X50556Y-30746D01*
X50721Y-30815D01*
X50900Y-30815D01*
X51065Y-30747D01*
X51191Y-30621D01*
X51260Y-30456D01*
X51260Y-30277D01*
X51202Y-30137D01*
X51420Y-30137D01*
X51362Y-30276D01*
X51362Y-30455D01*
X51430Y-30620D01*
X51556Y-30746D01*
X51721Y-30815D01*
X51900Y-30815D01*
X52065Y-30747D01*
X52191Y-30621D01*
X52260Y-30456D01*
X52260Y-30277D01*
X52202Y-30137D01*
X52411Y-30137D01*
X52354Y-30266D01*
X52350Y-30448D01*
X52416Y-30618D01*
X52428Y-30633D01*
X52504Y-30660D01*
X52763Y-30401D01*
X52798Y-30366D01*
X52811Y-30353D01*
X52824Y-30366D01*
X52859Y-30401D01*
X53118Y-30660D01*
X53194Y-30633D01*
X53268Y-30466D01*
X53272Y-30284D01*
X53214Y-30137D01*
X53420Y-30137D01*
X53362Y-30276D01*
X53362Y-30455D01*
X53430Y-30620D01*
X53556Y-30746D01*
X53721Y-30815D01*
X53900Y-30815D01*
X54065Y-30747D01*
X54191Y-30621D01*
X54260Y-30456D01*
X54260Y-30277D01*
X54202Y-30137D01*
X54420Y-30137D01*
X54362Y-30276D01*
X54362Y-30455D01*
X54430Y-30620D01*
X54556Y-30746D01*
X54591Y-30760D01*
X54557Y-30777D01*
X54553Y-30779D01*
X54552Y-30780D01*
X54092Y-31012D01*
X54066Y-30986D01*
X53901Y-30917D01*
X53722Y-30917D01*
X53557Y-30985D01*
X53431Y-31111D01*
X53362Y-31276D01*
X53362Y-31455D01*
X53430Y-31620D01*
X53556Y-31746D01*
X53721Y-31815D01*
X53900Y-31815D01*
X54065Y-31747D01*
X54191Y-31621D01*
X54260Y-31456D01*
X54260Y-31351D01*
X54362Y-31299D01*
X54362Y-31455D01*
X54430Y-31620D01*
X54556Y-31746D01*
X54721Y-31815D01*
X54900Y-31815D01*
X55065Y-31747D01*
X55191Y-31621D01*
X55260Y-31456D01*
X55260Y-31277D01*
X55192Y-31112D01*
X55066Y-30986D01*
X55030Y-30971D01*
X55064Y-30955D01*
X55065Y-30954D01*
X55069Y-30953D01*
X55529Y-30719D01*
X55556Y-30746D01*
X55721Y-30815D01*
X55900Y-30815D01*
X56065Y-30747D01*
X56191Y-30621D01*
X56260Y-30456D01*
X56260Y-30277D01*
X56202Y-30137D01*
X56420Y-30137D01*
X56362Y-30276D01*
X56362Y-30455D01*
X56430Y-30620D01*
X56556Y-30746D01*
X56721Y-30815D01*
X56900Y-30815D01*
X57065Y-30747D01*
X57191Y-30621D01*
X57260Y-30456D01*
X57260Y-30277D01*
X57202Y-30137D01*
X57411Y-30137D01*
X57354Y-30266D01*
X57350Y-30448D01*
X57416Y-30618D01*
X57428Y-30633D01*
X57504Y-30660D01*
X57763Y-30401D01*
X57798Y-30366D01*
X57811Y-30353D01*
X57824Y-30366D01*
X57811Y-30379D01*
X57776Y-30414D01*
X57517Y-30673D01*
X57544Y-30749D01*
X57711Y-30823D01*
X57893Y-30827D01*
X58040Y-30769D01*
X58040Y-30975D01*
X58040Y-30975D01*
G37*
G54D24*
X58040Y-30975D02*
X57901Y-30917D01*
X57722Y-30917D01*
X57557Y-30985D01*
X57431Y-31111D01*
X57362Y-31276D01*
X57362Y-31455D01*
X57430Y-31620D01*
X57556Y-31746D01*
X57721Y-31815D01*
X57900Y-31815D01*
X58029Y-31761D01*
X57900Y-34968D01*
X57894Y-34971D01*
X57802Y-35063D01*
X57752Y-35183D01*
X57752Y-35287D01*
X57211Y-35130D01*
X57179Y-35051D01*
X57087Y-34959D01*
X56967Y-34909D01*
X56837Y-34909D01*
X56717Y-34959D01*
X56625Y-35051D01*
X56575Y-35171D01*
X56575Y-35240D01*
X56553Y-35240D01*
X56433Y-35290D01*
X56341Y-35382D01*
X56336Y-35393D01*
X55734Y-34594D01*
X55722Y-34583D01*
X55716Y-34574D01*
X55577Y-34434D01*
X56136Y-34629D01*
X56176Y-34724D01*
X56268Y-34816D01*
X56388Y-34866D01*
X56518Y-34866D01*
X56638Y-34816D01*
X56726Y-34728D01*
X56896Y-34728D01*
X56984Y-34816D01*
X57104Y-34866D01*
X57234Y-34866D01*
X57354Y-34816D01*
X57446Y-34724D01*
X57496Y-34604D01*
X57496Y-34474D01*
X57446Y-34354D01*
X57354Y-34262D01*
X57260Y-34222D01*
X57260Y-31456D01*
X57260Y-31277D01*
X57192Y-31112D01*
X57066Y-30986D01*
X56901Y-30917D01*
X56722Y-30917D01*
X56557Y-30985D01*
X56431Y-31111D01*
X56362Y-31276D01*
X56362Y-31455D01*
X56430Y-31620D01*
X56556Y-31746D01*
X56721Y-31815D01*
X56900Y-31815D01*
X57065Y-31747D01*
X57191Y-31621D01*
X57260Y-31456D01*
X57260Y-34222D01*
X57234Y-34212D01*
X57104Y-34212D01*
X56984Y-34262D01*
X56896Y-34350D01*
X56726Y-34350D01*
X56638Y-34262D01*
X56518Y-34212D01*
X56388Y-34212D01*
X56272Y-34260D01*
X56272Y-31284D01*
X56206Y-31114D01*
X56194Y-31099D01*
X56118Y-31072D01*
X56105Y-31085D01*
X56105Y-31059D01*
X56078Y-30983D01*
X55911Y-30909D01*
X55729Y-30905D01*
X55559Y-30971D01*
X55544Y-30983D01*
X55517Y-31059D01*
X55811Y-31353D01*
X56105Y-31059D01*
X56105Y-31085D01*
X55824Y-31366D01*
X56118Y-31660D01*
X56194Y-31633D01*
X56268Y-31466D01*
X56272Y-31284D01*
X56272Y-34260D01*
X56268Y-34262D01*
X56258Y-34271D01*
X56105Y-34217D01*
X56105Y-31673D01*
X55811Y-31379D01*
X55798Y-31392D01*
X55798Y-31366D01*
X55504Y-31072D01*
X55428Y-31099D01*
X55354Y-31266D01*
X55350Y-31448D01*
X55416Y-31618D01*
X55428Y-31633D01*
X55504Y-31660D01*
X55798Y-31366D01*
X55798Y-31392D01*
X55517Y-31673D01*
X55544Y-31749D01*
X55711Y-31823D01*
X55893Y-31827D01*
X56063Y-31761D01*
X56078Y-31749D01*
X56105Y-31673D01*
X56105Y-34217D01*
X55603Y-34044D01*
X55564Y-33949D01*
X55472Y-33857D01*
X55352Y-33807D01*
X55222Y-33807D01*
X55102Y-33857D01*
X55010Y-33949D01*
X55002Y-33968D01*
X53322Y-31871D01*
X53182Y-31629D01*
X53191Y-31621D01*
X53260Y-31456D01*
X53260Y-31277D01*
X53192Y-31112D01*
X53105Y-31025D01*
X53105Y-30673D01*
X52811Y-30379D01*
X52517Y-30673D01*
X52544Y-30749D01*
X52711Y-30823D01*
X52893Y-30827D01*
X53063Y-30761D01*
X53078Y-30749D01*
X53105Y-30673D01*
X53105Y-31025D01*
X53066Y-30986D01*
X52901Y-30917D01*
X52722Y-30917D01*
X52557Y-30985D01*
X52431Y-31111D01*
X52362Y-31276D01*
X52362Y-31455D01*
X52430Y-31620D01*
X52556Y-31746D01*
X52721Y-31815D01*
X52852Y-31815D01*
X53002Y-32072D01*
X53009Y-32080D01*
X53017Y-32095D01*
X54802Y-34323D01*
X54754Y-34303D01*
X54624Y-34303D01*
X54504Y-34353D01*
X54440Y-34416D01*
X54014Y-34376D01*
X54005Y-34354D01*
X53913Y-34262D01*
X53793Y-34212D01*
X53663Y-34212D01*
X53543Y-34262D01*
X53451Y-34354D01*
X53434Y-34394D01*
X52260Y-33187D01*
X52260Y-31456D01*
X52260Y-31277D01*
X52192Y-31112D01*
X52066Y-30986D01*
X51901Y-30917D01*
X51722Y-30917D01*
X51557Y-30985D01*
X51431Y-31111D01*
X51362Y-31276D01*
X51362Y-31455D01*
X51430Y-31620D01*
X51556Y-31746D01*
X51721Y-31815D01*
X51900Y-31815D01*
X52065Y-31747D01*
X52191Y-31621D01*
X52260Y-31456D01*
X52260Y-33187D01*
X51272Y-32171D01*
X51272Y-31284D01*
X51206Y-31114D01*
X51194Y-31099D01*
X51118Y-31072D01*
X51105Y-31085D01*
X51105Y-31059D01*
X51078Y-30983D01*
X50911Y-30909D01*
X50729Y-30905D01*
X50559Y-30971D01*
X50544Y-30983D01*
X50517Y-31059D01*
X50811Y-31353D01*
X51105Y-31059D01*
X51105Y-31085D01*
X50824Y-31366D01*
X51118Y-31660D01*
X51194Y-31633D01*
X51268Y-31466D01*
X51272Y-31284D01*
X51272Y-32171D01*
X50924Y-31814D01*
X51063Y-31761D01*
X51078Y-31749D01*
X51105Y-31673D01*
X50846Y-31414D01*
X50811Y-31379D01*
X50798Y-31366D01*
X50763Y-31331D01*
X50504Y-31072D01*
X50428Y-31099D01*
X50411Y-31136D01*
X50400Y-31112D01*
X50397Y-31108D01*
X50397Y-31107D01*
X50164Y-30647D01*
X50191Y-30621D01*
X50260Y-30456D01*
X50260Y-30277D01*
X50202Y-30137D01*
X50420Y-30137D01*
X50362Y-30276D01*
X50362Y-30455D01*
X50430Y-30620D01*
X50556Y-30746D01*
X50721Y-30815D01*
X50900Y-30815D01*
X51065Y-30747D01*
X51191Y-30621D01*
X51260Y-30456D01*
X51260Y-30277D01*
X51202Y-30137D01*
X51420Y-30137D01*
X51362Y-30276D01*
X51362Y-30455D01*
X51430Y-30620D01*
X51556Y-30746D01*
X51721Y-30815D01*
X51900Y-30815D01*
X52065Y-30747D01*
X52191Y-30621D01*
X52260Y-30456D01*
X52260Y-30277D01*
X52202Y-30137D01*
X52411Y-30137D01*
X52354Y-30266D01*
X52350Y-30448D01*
X52416Y-30618D01*
X52428Y-30633D01*
X52504Y-30660D01*
X52763Y-30401D01*
X52798Y-30366D01*
X52811Y-30353D01*
X52824Y-30366D01*
X52859Y-30401D01*
X53118Y-30660D01*
X53194Y-30633D01*
X53268Y-30466D01*
X53272Y-30284D01*
X53214Y-30137D01*
X53420Y-30137D01*
X53362Y-30276D01*
X53362Y-30455D01*
X53430Y-30620D01*
X53556Y-30746D01*
X53721Y-30815D01*
X53900Y-30815D01*
X54065Y-30747D01*
X54191Y-30621D01*
X54260Y-30456D01*
X54260Y-30277D01*
X54202Y-30137D01*
X54420Y-30137D01*
X54362Y-30276D01*
X54362Y-30455D01*
X54430Y-30620D01*
X54556Y-30746D01*
X54591Y-30760D01*
X54557Y-30777D01*
X54553Y-30779D01*
X54552Y-30780D01*
X54092Y-31012D01*
X54066Y-30986D01*
X53901Y-30917D01*
X53722Y-30917D01*
X53557Y-30985D01*
X53431Y-31111D01*
X53362Y-31276D01*
X53362Y-31455D01*
X53430Y-31620D01*
X53556Y-31746D01*
X53721Y-31815D01*
X53900Y-31815D01*
X54065Y-31747D01*
X54191Y-31621D01*
X54260Y-31456D01*
X54260Y-31351D01*
X54362Y-31299D01*
X54362Y-31455D01*
X54430Y-31620D01*
X54556Y-31746D01*
X54721Y-31815D01*
X54900Y-31815D01*
X55065Y-31747D01*
X55191Y-31621D01*
X55260Y-31456D01*
X55260Y-31277D01*
X55192Y-31112D01*
X55066Y-30986D01*
X55030Y-30971D01*
X55064Y-30955D01*
X55065Y-30954D01*
X55069Y-30953D01*
X55529Y-30719D01*
X55556Y-30746D01*
X55721Y-30815D01*
X55900Y-30815D01*
X56065Y-30747D01*
X56191Y-30621D01*
X56260Y-30456D01*
X56260Y-30277D01*
X56202Y-30137D01*
X56420Y-30137D01*
X56362Y-30276D01*
X56362Y-30455D01*
X56430Y-30620D01*
X56556Y-30746D01*
X56721Y-30815D01*
X56900Y-30815D01*
X57065Y-30747D01*
X57191Y-30621D01*
X57260Y-30456D01*
X57260Y-30277D01*
X57202Y-30137D01*
X57411Y-30137D01*
X57354Y-30266D01*
X57350Y-30448D01*
X57416Y-30618D01*
X57428Y-30633D01*
X57504Y-30660D01*
X57763Y-30401D01*
X57798Y-30366D01*
X57811Y-30353D01*
X57824Y-30366D01*
X57811Y-30379D01*
X57776Y-30414D01*
X57517Y-30673D01*
X57544Y-30749D01*
X57711Y-30823D01*
X57893Y-30827D01*
X58040Y-30769D01*
X58040Y-30975D01*
G54D10*
G36*
X58283Y-38465D02*
X56632Y-40146D01*
X56616Y-40106D01*
X56524Y-40014D01*
X56492Y-40000D01*
X56357Y-38979D01*
X56388Y-38992D01*
X56518Y-38992D01*
X56638Y-38942D01*
X56730Y-38850D01*
X56753Y-38794D01*
X58283Y-38465D01*
X58283Y-38465D01*
G37*
G54D24*
X58283Y-38465D02*
X56632Y-40146D01*
X56616Y-40106D01*
X56524Y-40014D01*
X56492Y-40000D01*
X56357Y-38979D01*
X56388Y-38992D01*
X56518Y-38992D01*
X56638Y-38942D01*
X56730Y-38850D01*
X56753Y-38794D01*
X58283Y-38465D01*
G54D10*
G36*
X66294Y-38281D02*
X66230Y-38281D01*
X66175Y-38304D01*
X66133Y-38346D01*
X66111Y-38401D01*
X66111Y-38460D01*
X66111Y-38759D01*
X65985Y-38649D01*
X65976Y-38641D01*
X65948Y-38624D01*
X65923Y-38608D01*
X65918Y-38607D01*
X65913Y-38604D01*
X65878Y-38599D01*
X65851Y-38594D01*
X65839Y-38594D01*
X65606Y-38594D01*
X65592Y-38596D01*
X65576Y-38596D01*
X65059Y-38675D01*
X65040Y-38681D01*
X65015Y-38687D01*
X65012Y-38688D01*
X64990Y-38634D01*
X64898Y-38542D01*
X64778Y-38492D01*
X64648Y-38492D01*
X64528Y-38542D01*
X64436Y-38634D01*
X64386Y-38754D01*
X64386Y-38768D01*
X63410Y-39240D01*
X63219Y-39240D01*
X59853Y-39040D01*
X59848Y-39028D01*
X59756Y-38936D01*
X59692Y-38909D01*
X60143Y-38494D01*
X60144Y-38491D01*
X60150Y-38488D01*
X60323Y-38314D01*
X60334Y-38296D01*
X60346Y-38284D01*
X60392Y-38284D01*
X60512Y-38234D01*
X60604Y-38142D01*
X60654Y-38022D01*
X60654Y-37892D01*
X60641Y-37862D01*
X64651Y-38107D01*
X64658Y-38109D01*
X66294Y-38281D01*
X66294Y-38281D01*
G37*
G54D24*
X66294Y-38281D02*
X66230Y-38281D01*
X66175Y-38304D01*
X66133Y-38346D01*
X66111Y-38401D01*
X66111Y-38460D01*
X66111Y-38759D01*
X65985Y-38649D01*
X65976Y-38641D01*
X65948Y-38624D01*
X65923Y-38608D01*
X65918Y-38607D01*
X65913Y-38604D01*
X65878Y-38599D01*
X65851Y-38594D01*
X65839Y-38594D01*
X65606Y-38594D01*
X65592Y-38596D01*
X65576Y-38596D01*
X65059Y-38675D01*
X65040Y-38681D01*
X65015Y-38687D01*
X65012Y-38688D01*
X64990Y-38634D01*
X64898Y-38542D01*
X64778Y-38492D01*
X64648Y-38492D01*
X64528Y-38542D01*
X64436Y-38634D01*
X64386Y-38754D01*
X64386Y-38768D01*
X63410Y-39240D01*
X63219Y-39240D01*
X59853Y-39040D01*
X59848Y-39028D01*
X59756Y-38936D01*
X59692Y-38909D01*
X60143Y-38494D01*
X60144Y-38491D01*
X60150Y-38488D01*
X60323Y-38314D01*
X60334Y-38296D01*
X60346Y-38284D01*
X60392Y-38284D01*
X60512Y-38234D01*
X60604Y-38142D01*
X60654Y-38022D01*
X60654Y-37892D01*
X60641Y-37862D01*
X64651Y-38107D01*
X64658Y-38109D01*
X66294Y-38281D01*
G54D10*
G36*
X68360Y-44283D02*
X68340Y-44254D01*
X68174Y-44122D01*
X68161Y-44135D01*
X68161Y-44109D01*
X68029Y-43943D01*
X67550Y-43726D01*
X67533Y-43725D01*
X67533Y-42571D01*
X67533Y-42402D01*
X67533Y-41571D01*
X67533Y-41402D01*
X67532Y-41399D01*
X67532Y-40790D01*
X67532Y-40731D01*
X67532Y-40181D01*
X67509Y-40126D01*
X67467Y-40084D01*
X67412Y-40062D01*
X67353Y-40062D01*
X66803Y-40062D01*
X66748Y-40085D01*
X66706Y-40127D01*
X66684Y-40182D01*
X66684Y-40241D01*
X66684Y-40791D01*
X66707Y-40846D01*
X66749Y-40888D01*
X66804Y-40910D01*
X66863Y-40910D01*
X67413Y-40910D01*
X67468Y-40887D01*
X67510Y-40845D01*
X67532Y-40790D01*
X67532Y-41399D01*
X67469Y-41246D01*
X67349Y-41126D01*
X67193Y-41061D01*
X67024Y-41061D01*
X66868Y-41125D01*
X66748Y-41245D01*
X66683Y-41401D01*
X66683Y-41570D01*
X66747Y-41726D01*
X66867Y-41846D01*
X67023Y-41911D01*
X67192Y-41911D01*
X67348Y-41847D01*
X67468Y-41727D01*
X67533Y-41571D01*
X67533Y-42402D01*
X67469Y-42246D01*
X67349Y-42126D01*
X67193Y-42061D01*
X67024Y-42061D01*
X66868Y-42125D01*
X66748Y-42245D01*
X66683Y-42401D01*
X66683Y-42570D01*
X66747Y-42726D01*
X66867Y-42846D01*
X67023Y-42911D01*
X67192Y-42911D01*
X67348Y-42847D01*
X67468Y-42727D01*
X67533Y-42571D01*
X67533Y-43725D01*
X67024Y-43709D01*
X66532Y-43894D01*
X66459Y-43943D01*
X66327Y-44109D01*
X67244Y-45026D01*
X68161Y-44109D01*
X68161Y-44135D01*
X67292Y-45004D01*
X67257Y-45039D01*
X67244Y-45052D01*
X67231Y-45065D01*
X67231Y-45039D01*
X66314Y-44122D01*
X66148Y-44254D01*
X65931Y-44733D01*
X65914Y-45259D01*
X66099Y-45751D01*
X66148Y-45824D01*
X66314Y-45956D01*
X67231Y-45039D01*
X67231Y-45065D01*
X67209Y-45087D01*
X66327Y-45969D01*
X66459Y-46135D01*
X66503Y-46155D01*
X41724Y-46155D01*
X41724Y-44819D01*
X41724Y-30174D01*
X41539Y-29682D01*
X41490Y-29609D01*
X41324Y-29477D01*
X40407Y-30394D01*
X41324Y-31311D01*
X41490Y-31179D01*
X41707Y-30700D01*
X41724Y-30174D01*
X41724Y-44819D01*
X41539Y-44327D01*
X41490Y-44254D01*
X41324Y-44122D01*
X40407Y-45039D01*
X41324Y-45956D01*
X41490Y-45824D01*
X41707Y-45345D01*
X41724Y-44819D01*
X41724Y-46155D01*
X41149Y-46155D01*
X41179Y-46135D01*
X41311Y-45969D01*
X40429Y-45087D01*
X40394Y-45052D01*
X40381Y-45039D01*
X40346Y-45004D01*
X39464Y-44122D01*
X39298Y-44254D01*
X39278Y-44298D01*
X39278Y-43763D01*
X39334Y-43820D01*
X39510Y-43893D01*
X39684Y-43893D01*
X39682Y-43894D01*
X39609Y-43943D01*
X39477Y-44109D01*
X40394Y-45026D01*
X41311Y-44109D01*
X41179Y-43943D01*
X40986Y-43855D01*
X40986Y-39139D01*
X40976Y-39113D01*
X40976Y-38302D01*
X40976Y-38133D01*
X40976Y-37302D01*
X40976Y-37133D01*
X40975Y-37130D01*
X40975Y-36521D01*
X40975Y-36462D01*
X40975Y-35912D01*
X40952Y-35857D01*
X40910Y-35815D01*
X40855Y-35793D01*
X40796Y-35793D01*
X40246Y-35793D01*
X40191Y-35816D01*
X40149Y-35858D01*
X40127Y-35913D01*
X40127Y-35972D01*
X40127Y-36522D01*
X40150Y-36577D01*
X40192Y-36619D01*
X40247Y-36641D01*
X40306Y-36641D01*
X40856Y-36641D01*
X40911Y-36618D01*
X40953Y-36576D01*
X40975Y-36521D01*
X40975Y-37130D01*
X40912Y-36977D01*
X40792Y-36857D01*
X40636Y-36792D01*
X40467Y-36792D01*
X40311Y-36856D01*
X40191Y-36976D01*
X40126Y-37132D01*
X40126Y-37301D01*
X40190Y-37457D01*
X40310Y-37577D01*
X40466Y-37642D01*
X40635Y-37642D01*
X40791Y-37578D01*
X40911Y-37458D01*
X40976Y-37302D01*
X40976Y-38133D01*
X40912Y-37977D01*
X40792Y-37857D01*
X40636Y-37792D01*
X40467Y-37792D01*
X40311Y-37856D01*
X40191Y-37976D01*
X40126Y-38132D01*
X40126Y-38301D01*
X40190Y-38457D01*
X40310Y-38577D01*
X40466Y-38642D01*
X40635Y-38642D01*
X40791Y-38578D01*
X40911Y-38458D01*
X40976Y-38302D01*
X40976Y-39113D01*
X40923Y-38978D01*
X40914Y-38965D01*
X40840Y-38941D01*
X40827Y-38954D01*
X40827Y-38928D01*
X40803Y-38854D01*
X40645Y-38785D01*
X40473Y-38782D01*
X40312Y-38845D01*
X40299Y-38854D01*
X40275Y-38928D01*
X40551Y-39204D01*
X40827Y-38928D01*
X40827Y-38954D01*
X40564Y-39217D01*
X40840Y-39493D01*
X40914Y-39469D01*
X40983Y-39311D01*
X40986Y-39139D01*
X40986Y-43855D01*
X40827Y-43783D01*
X40827Y-39506D01*
X40551Y-39230D01*
X40538Y-39243D01*
X40538Y-39217D01*
X40262Y-38941D01*
X40188Y-38965D01*
X40119Y-39123D01*
X40116Y-39295D01*
X40179Y-39456D01*
X40188Y-39469D01*
X40262Y-39493D01*
X40538Y-39217D01*
X40538Y-39243D01*
X40275Y-39506D01*
X40299Y-39580D01*
X40457Y-39649D01*
X40629Y-39652D01*
X40790Y-39589D01*
X40803Y-39580D01*
X40827Y-39506D01*
X40827Y-43783D01*
X40700Y-43726D01*
X40174Y-43709D01*
X40095Y-43738D01*
X40095Y-42325D01*
X40095Y-39727D01*
X40095Y-37129D01*
X40095Y-34530D01*
X40095Y-31932D01*
X40025Y-31751D01*
X40013Y-31736D01*
X39934Y-31705D01*
X39619Y-32020D01*
X39934Y-32335D01*
X40013Y-32304D01*
X40091Y-32126D01*
X40095Y-31932D01*
X40095Y-34530D01*
X40025Y-34349D01*
X40013Y-34334D01*
X39934Y-34303D01*
X39921Y-34316D01*
X39619Y-34618D01*
X39934Y-34933D01*
X40013Y-34902D01*
X40091Y-34724D01*
X40095Y-34530D01*
X40095Y-37129D01*
X40025Y-36948D01*
X40013Y-36933D01*
X39934Y-36902D01*
X39921Y-36915D01*
X39619Y-37217D01*
X39934Y-37532D01*
X40013Y-37501D01*
X40091Y-37323D01*
X40095Y-37129D01*
X40095Y-39727D01*
X40025Y-39546D01*
X40013Y-39531D01*
X39934Y-39500D01*
X39921Y-39513D01*
X39619Y-39815D01*
X39934Y-40130D01*
X40013Y-40099D01*
X40091Y-39921D01*
X40095Y-39727D01*
X40095Y-42325D01*
X40025Y-42144D01*
X40013Y-42129D01*
X39934Y-42098D01*
X39921Y-42111D01*
X39619Y-42413D01*
X39934Y-42728D01*
X40013Y-42697D01*
X40091Y-42519D01*
X40095Y-42325D01*
X40095Y-43738D01*
X39877Y-43820D01*
X40013Y-43685D01*
X40086Y-43509D01*
X40086Y-43318D01*
X40013Y-43142D01*
X39921Y-43049D01*
X39878Y-43006D01*
X39702Y-42933D01*
X39511Y-42933D01*
X39335Y-43006D01*
X39278Y-43062D01*
X39278Y-42801D01*
X39290Y-42813D01*
X39310Y-42791D01*
X39322Y-42820D01*
X39500Y-42898D01*
X39694Y-42902D01*
X39875Y-42832D01*
X39890Y-42820D01*
X39921Y-42741D01*
X39641Y-42461D01*
X39606Y-42426D01*
X39593Y-42413D01*
X39606Y-42400D01*
X39641Y-42365D01*
X39921Y-42085D01*
X39890Y-42006D01*
X39712Y-41928D01*
X39518Y-41924D01*
X39337Y-41994D01*
X39322Y-42006D01*
X39310Y-42034D01*
X39290Y-42013D01*
X39278Y-42025D01*
X39278Y-41165D01*
X39334Y-41222D01*
X39510Y-41295D01*
X39701Y-41295D01*
X39877Y-41222D01*
X40013Y-41087D01*
X40086Y-40911D01*
X40086Y-40720D01*
X40013Y-40544D01*
X39921Y-40451D01*
X39878Y-40408D01*
X39702Y-40335D01*
X39511Y-40335D01*
X39335Y-40408D01*
X39278Y-40464D01*
X39278Y-40203D01*
X39290Y-40215D01*
X39310Y-40193D01*
X39322Y-40222D01*
X39500Y-40300D01*
X39694Y-40304D01*
X39875Y-40234D01*
X39890Y-40222D01*
X39921Y-40143D01*
X39641Y-39863D01*
X39606Y-39828D01*
X39593Y-39815D01*
X39606Y-39802D01*
X39641Y-39767D01*
X39921Y-39487D01*
X39890Y-39408D01*
X39712Y-39330D01*
X39518Y-39326D01*
X39337Y-39396D01*
X39322Y-39408D01*
X39310Y-39436D01*
X39290Y-39415D01*
X39278Y-39427D01*
X39278Y-38567D01*
X39334Y-38624D01*
X39510Y-38697D01*
X39701Y-38697D01*
X39877Y-38624D01*
X40013Y-38489D01*
X40086Y-38313D01*
X40086Y-38122D01*
X40013Y-37946D01*
X39921Y-37853D01*
X39878Y-37810D01*
X39702Y-37737D01*
X39511Y-37737D01*
X39335Y-37810D01*
X39278Y-37866D01*
X39278Y-37605D01*
X39290Y-37617D01*
X39310Y-37595D01*
X39322Y-37624D01*
X39500Y-37702D01*
X39694Y-37706D01*
X39875Y-37636D01*
X39890Y-37624D01*
X39921Y-37545D01*
X39641Y-37265D01*
X39606Y-37230D01*
X39593Y-37217D01*
X39606Y-37204D01*
X39641Y-37169D01*
X39921Y-36889D01*
X39890Y-36810D01*
X39712Y-36732D01*
X39518Y-36728D01*
X39337Y-36798D01*
X39322Y-36810D01*
X39310Y-36838D01*
X39290Y-36817D01*
X39278Y-36829D01*
X39278Y-35968D01*
X39334Y-36025D01*
X39510Y-36098D01*
X39701Y-36098D01*
X39877Y-36025D01*
X40013Y-35890D01*
X40086Y-35714D01*
X40086Y-35523D01*
X40013Y-35347D01*
X39921Y-35254D01*
X39878Y-35211D01*
X39702Y-35138D01*
X39511Y-35138D01*
X39335Y-35211D01*
X39278Y-35267D01*
X39278Y-35006D01*
X39290Y-35018D01*
X39310Y-34996D01*
X39322Y-35025D01*
X39500Y-35103D01*
X39694Y-35107D01*
X39875Y-35037D01*
X39890Y-35025D01*
X39921Y-34946D01*
X39641Y-34666D01*
X39606Y-34631D01*
X39593Y-34618D01*
X39606Y-34605D01*
X39641Y-34570D01*
X39921Y-34290D01*
X39890Y-34211D01*
X39712Y-34133D01*
X39518Y-34129D01*
X39337Y-34199D01*
X39322Y-34211D01*
X39310Y-34239D01*
X39290Y-34218D01*
X39278Y-34230D01*
X39278Y-33370D01*
X39334Y-33427D01*
X39510Y-33500D01*
X39701Y-33500D01*
X39877Y-33427D01*
X40013Y-33292D01*
X40086Y-33116D01*
X40086Y-32925D01*
X40013Y-32749D01*
X39921Y-32656D01*
X39878Y-32613D01*
X39702Y-32540D01*
X39511Y-32540D01*
X39335Y-32613D01*
X39278Y-32669D01*
X39278Y-32408D01*
X39290Y-32420D01*
X39310Y-32398D01*
X39322Y-32427D01*
X39500Y-32505D01*
X39694Y-32509D01*
X39875Y-32439D01*
X39890Y-32427D01*
X39921Y-32348D01*
X39641Y-32068D01*
X39606Y-32033D01*
X39593Y-32020D01*
X39606Y-32007D01*
X39641Y-31972D01*
X39921Y-31692D01*
X39892Y-31618D01*
X40088Y-31707D01*
X40614Y-31724D01*
X41106Y-31539D01*
X41179Y-31490D01*
X41311Y-31324D01*
X40394Y-30407D01*
X39477Y-31324D01*
X39609Y-31490D01*
X39708Y-31534D01*
X39518Y-31531D01*
X39337Y-31601D01*
X39322Y-31613D01*
X39310Y-31641D01*
X39290Y-31620D01*
X39278Y-31632D01*
X39278Y-31149D01*
X39298Y-31179D01*
X39464Y-31311D01*
X40346Y-30429D01*
X40381Y-30394D01*
X40394Y-30381D01*
X40429Y-30346D01*
X41311Y-29464D01*
X41179Y-29298D01*
X41134Y-29278D01*
X63163Y-29278D01*
X63139Y-29335D01*
X63139Y-29402D01*
X63139Y-29515D01*
X63181Y-29557D01*
X63445Y-29557D01*
X63495Y-29557D01*
X63513Y-29557D01*
X63563Y-29557D01*
X63575Y-29557D01*
X63827Y-29557D01*
X63839Y-29557D01*
X63889Y-29557D01*
X63907Y-29557D01*
X63957Y-29557D01*
X63969Y-29557D01*
X64221Y-29557D01*
X64233Y-29557D01*
X64283Y-29557D01*
X64301Y-29557D01*
X64351Y-29557D01*
X64363Y-29557D01*
X64615Y-29557D01*
X64627Y-29557D01*
X64677Y-29557D01*
X64695Y-29557D01*
X64745Y-29557D01*
X65009Y-29557D01*
X65051Y-29515D01*
X65051Y-29402D01*
X65051Y-29335D01*
X65026Y-29278D01*
X66488Y-29278D01*
X66459Y-29298D01*
X66327Y-29464D01*
X67209Y-30346D01*
X67244Y-30381D01*
X67257Y-30394D01*
X67292Y-30429D01*
X68174Y-31311D01*
X68340Y-31179D01*
X68360Y-31134D01*
X68360Y-34916D01*
X68348Y-34862D01*
X68348Y-33083D01*
X68285Y-32922D01*
X68276Y-32909D01*
X68202Y-32885D01*
X68189Y-32898D01*
X68189Y-32872D01*
X68165Y-32798D01*
X68161Y-32796D01*
X68161Y-31324D01*
X67244Y-30407D01*
X67231Y-30420D01*
X67231Y-30394D01*
X66314Y-29477D01*
X66148Y-29609D01*
X65931Y-30088D01*
X65914Y-30614D01*
X66099Y-31106D01*
X66148Y-31179D01*
X66314Y-31311D01*
X67231Y-30394D01*
X67231Y-30420D01*
X66327Y-31324D01*
X66459Y-31490D01*
X66938Y-31707D01*
X67464Y-31724D01*
X67956Y-31539D01*
X68029Y-31490D01*
X68161Y-31324D01*
X68161Y-32796D01*
X68007Y-32729D01*
X67835Y-32726D01*
X67674Y-32789D01*
X67661Y-32798D01*
X67637Y-32872D01*
X67913Y-33148D01*
X68189Y-32872D01*
X68189Y-32898D01*
X67926Y-33161D01*
X68202Y-33437D01*
X68276Y-33413D01*
X68345Y-33255D01*
X68348Y-33083D01*
X68348Y-34862D01*
X68279Y-34555D01*
X68315Y-34520D01*
X68337Y-34465D01*
X68337Y-34406D01*
X68337Y-33856D01*
X68314Y-33801D01*
X68272Y-33759D01*
X68217Y-33737D01*
X68189Y-33737D01*
X68189Y-33450D01*
X67913Y-33174D01*
X67900Y-33187D01*
X67900Y-33161D01*
X67624Y-32885D01*
X67550Y-32909D01*
X67481Y-33067D01*
X67478Y-33239D01*
X67541Y-33400D01*
X67550Y-33413D01*
X67624Y-33437D01*
X67900Y-33161D01*
X67900Y-33187D01*
X67637Y-33450D01*
X67661Y-33524D01*
X67819Y-33593D01*
X67991Y-33596D01*
X68152Y-33533D01*
X68165Y-33524D01*
X68189Y-33450D01*
X68189Y-33737D01*
X68158Y-33737D01*
X67608Y-33737D01*
X67553Y-33760D01*
X67511Y-33802D01*
X67489Y-33857D01*
X67489Y-33916D01*
X67489Y-34466D01*
X67512Y-34521D01*
X67554Y-34563D01*
X67609Y-34585D01*
X67668Y-34585D01*
X67899Y-34585D01*
X68060Y-35305D01*
X67998Y-35280D01*
X67829Y-35280D01*
X67673Y-35344D01*
X67553Y-35464D01*
X67488Y-35620D01*
X67488Y-35643D01*
X66947Y-35819D01*
X66960Y-35790D01*
X66960Y-35621D01*
X66896Y-35465D01*
X66776Y-35345D01*
X66620Y-35280D01*
X66451Y-35280D01*
X66295Y-35344D01*
X66175Y-35464D01*
X66110Y-35620D01*
X66110Y-35789D01*
X66156Y-35901D01*
X65150Y-35848D01*
X65150Y-30650D01*
X65150Y-30528D01*
X65103Y-30415D01*
X65017Y-30329D01*
X64962Y-30306D01*
X64978Y-30300D01*
X65025Y-30252D01*
X65051Y-30191D01*
X65051Y-30124D01*
X65051Y-30011D01*
X65051Y-29909D01*
X65051Y-29797D01*
X65051Y-29796D01*
X65051Y-29730D01*
X65051Y-29729D01*
X65051Y-29617D01*
X65009Y-29575D01*
X64695Y-29575D01*
X64695Y-29637D01*
X64695Y-29889D01*
X64695Y-29951D01*
X65009Y-29951D01*
X65051Y-29909D01*
X65051Y-30011D01*
X65009Y-29969D01*
X64745Y-29969D01*
X64695Y-29969D01*
X64677Y-29969D01*
X64677Y-29951D01*
X64677Y-29889D01*
X64677Y-29637D01*
X64677Y-29575D01*
X64615Y-29575D01*
X64363Y-29575D01*
X64301Y-29575D01*
X64301Y-29637D01*
X64301Y-29889D01*
X64301Y-29951D01*
X64363Y-29951D01*
X64615Y-29951D01*
X64677Y-29951D01*
X64677Y-29969D01*
X64627Y-29969D01*
X64615Y-29969D01*
X64363Y-29969D01*
X64301Y-29969D01*
X64301Y-30283D01*
X64343Y-30325D01*
X64456Y-30325D01*
X64522Y-30325D01*
X64627Y-30325D01*
X64635Y-30325D01*
X64677Y-30325D01*
X64669Y-30329D01*
X64583Y-30415D01*
X64536Y-30528D01*
X64536Y-30650D01*
X64583Y-30763D01*
X64669Y-30849D01*
X64782Y-30896D01*
X64904Y-30896D01*
X65017Y-30849D01*
X65103Y-30763D01*
X65150Y-30650D01*
X65150Y-35848D01*
X64283Y-35802D01*
X64283Y-30283D01*
X64283Y-29969D01*
X64283Y-29951D01*
X64283Y-29889D01*
X64283Y-29637D01*
X64283Y-29575D01*
X64221Y-29575D01*
X63969Y-29575D01*
X63907Y-29575D01*
X63907Y-29637D01*
X63907Y-29889D01*
X63907Y-29951D01*
X63969Y-29951D01*
X64221Y-29951D01*
X64283Y-29951D01*
X64283Y-29969D01*
X64221Y-29969D01*
X63969Y-29969D01*
X63907Y-29969D01*
X63907Y-30283D01*
X63949Y-30325D01*
X64062Y-30325D01*
X64128Y-30325D01*
X64241Y-30325D01*
X64283Y-30283D01*
X64283Y-35802D01*
X63045Y-35738D01*
X63041Y-35728D01*
X62949Y-35636D01*
X62829Y-35586D01*
X62699Y-35586D01*
X62579Y-35636D01*
X62487Y-35728D01*
X62437Y-35848D01*
X62437Y-35978D01*
X62487Y-36098D01*
X62579Y-36190D01*
X62699Y-36240D01*
X62829Y-36240D01*
X62949Y-36190D01*
X63022Y-36116D01*
X66361Y-36291D01*
X66382Y-36288D01*
X66411Y-36288D01*
X66296Y-36333D01*
X66283Y-36342D01*
X66259Y-36416D01*
X66535Y-36692D01*
X66811Y-36416D01*
X66787Y-36342D01*
X66663Y-36288D01*
X66684Y-36288D01*
X66698Y-36288D01*
X66723Y-36283D01*
X66756Y-36279D01*
X66770Y-36274D01*
X67608Y-36001D01*
X67672Y-36065D01*
X67828Y-36130D01*
X67997Y-36130D01*
X68118Y-36080D01*
X68118Y-36321D01*
X68007Y-36273D01*
X67835Y-36270D01*
X67674Y-36333D01*
X67661Y-36342D01*
X67637Y-36416D01*
X67878Y-36657D01*
X67913Y-36692D01*
X67926Y-36705D01*
X67913Y-36718D01*
X67900Y-36731D01*
X67900Y-36705D01*
X67624Y-36429D01*
X67550Y-36453D01*
X67481Y-36611D01*
X67478Y-36783D01*
X67541Y-36944D01*
X67550Y-36957D01*
X67624Y-36981D01*
X67900Y-36705D01*
X67900Y-36731D01*
X67878Y-36753D01*
X67637Y-36994D01*
X67661Y-37068D01*
X67819Y-37137D01*
X67991Y-37140D01*
X68118Y-37090D01*
X68118Y-37330D01*
X67998Y-37280D01*
X67829Y-37280D01*
X67673Y-37344D01*
X67608Y-37408D01*
X66970Y-37200D01*
X66970Y-36627D01*
X66907Y-36466D01*
X66898Y-36453D01*
X66824Y-36429D01*
X66548Y-36705D01*
X66824Y-36981D01*
X66898Y-36957D01*
X66967Y-36799D01*
X66970Y-36627D01*
X66970Y-37200D01*
X66756Y-37131D01*
X66731Y-37127D01*
X66714Y-37123D01*
X66667Y-37118D01*
X66774Y-37077D01*
X66787Y-37068D01*
X66811Y-36994D01*
X66535Y-36718D01*
X66522Y-36731D01*
X66522Y-36705D01*
X66246Y-36429D01*
X66172Y-36453D01*
X66103Y-36611D01*
X66100Y-36783D01*
X66163Y-36944D01*
X66172Y-36957D01*
X66246Y-36981D01*
X66522Y-36705D01*
X66522Y-36731D01*
X66259Y-36994D01*
X66283Y-37068D01*
X66328Y-37087D01*
X65296Y-36994D01*
X63454Y-36535D01*
X63427Y-36469D01*
X63335Y-36377D01*
X63215Y-36327D01*
X63085Y-36327D01*
X62965Y-36377D01*
X62873Y-36469D01*
X62823Y-36589D01*
X62823Y-36719D01*
X62873Y-36839D01*
X62965Y-36931D01*
X63085Y-36981D01*
X63215Y-36981D01*
X63335Y-36931D01*
X63364Y-36901D01*
X65220Y-37365D01*
X65239Y-37366D01*
X65250Y-37369D01*
X66185Y-37454D01*
X66175Y-37464D01*
X66110Y-37620D01*
X66110Y-37789D01*
X66149Y-37885D01*
X64698Y-37733D01*
X64697Y-37733D01*
X64689Y-37731D01*
X60461Y-37472D01*
X60453Y-37472D01*
X60449Y-37472D01*
X60232Y-37472D01*
X61290Y-36753D01*
X61298Y-36750D01*
X61304Y-36746D01*
X61311Y-36738D01*
X61320Y-36734D01*
X61332Y-36725D01*
X61333Y-36723D01*
X61337Y-36717D01*
X61345Y-36713D01*
X61349Y-36708D01*
X61350Y-36708D01*
X61351Y-36705D01*
X61352Y-36704D01*
X61553Y-36504D01*
X61554Y-36504D01*
X61554Y-36503D01*
X61557Y-36499D01*
X61561Y-36496D01*
X61563Y-36495D01*
X61564Y-36495D01*
X61565Y-36493D01*
X61565Y-36491D01*
X61566Y-36491D01*
X61567Y-36489D01*
X61568Y-36488D01*
X61850Y-36198D01*
X61856Y-36192D01*
X61859Y-36191D01*
X61859Y-36190D01*
X61860Y-36189D01*
X61860Y-36187D01*
X61861Y-36187D01*
X61868Y-36183D01*
X61878Y-36166D01*
X61881Y-36163D01*
X61893Y-36152D01*
X61905Y-36133D01*
X61906Y-36128D01*
X61909Y-36126D01*
X61915Y-36117D01*
X61917Y-36108D01*
X61921Y-36105D01*
X61922Y-36101D01*
X61928Y-36091D01*
X63507Y-33004D01*
X63515Y-32997D01*
X63522Y-33000D01*
X63652Y-33000D01*
X63772Y-32950D01*
X63864Y-32858D01*
X63914Y-32738D01*
X63914Y-32608D01*
X63889Y-32548D01*
X63889Y-30283D01*
X63889Y-29969D01*
X63889Y-29951D01*
X63889Y-29889D01*
X63889Y-29637D01*
X63889Y-29575D01*
X63827Y-29575D01*
X63575Y-29575D01*
X63513Y-29575D01*
X63513Y-29637D01*
X63513Y-29889D01*
X63513Y-29951D01*
X63575Y-29951D01*
X63827Y-29951D01*
X63889Y-29951D01*
X63889Y-29969D01*
X63827Y-29969D01*
X63575Y-29969D01*
X63563Y-29969D01*
X63513Y-29969D01*
X63495Y-29969D01*
X63495Y-29951D01*
X63495Y-29889D01*
X63495Y-29637D01*
X63495Y-29575D01*
X63181Y-29575D01*
X63139Y-29617D01*
X63139Y-29729D01*
X63139Y-29730D01*
X63139Y-29796D01*
X63139Y-29797D01*
X63139Y-29909D01*
X63181Y-29951D01*
X63495Y-29951D01*
X63495Y-29969D01*
X63445Y-29969D01*
X63181Y-29969D01*
X63139Y-30011D01*
X63139Y-30124D01*
X63139Y-30191D01*
X63165Y-30252D01*
X63212Y-30300D01*
X63227Y-30306D01*
X63173Y-30329D01*
X63087Y-30415D01*
X63040Y-30528D01*
X63040Y-30650D01*
X63087Y-30763D01*
X63173Y-30849D01*
X63286Y-30896D01*
X63408Y-30896D01*
X63521Y-30849D01*
X63607Y-30763D01*
X63654Y-30650D01*
X63654Y-30528D01*
X63607Y-30415D01*
X63521Y-30329D01*
X63511Y-30325D01*
X63555Y-30325D01*
X63563Y-30325D01*
X63668Y-30325D01*
X63734Y-30325D01*
X63847Y-30325D01*
X63889Y-30283D01*
X63889Y-32548D01*
X63864Y-32488D01*
X63772Y-32396D01*
X63654Y-32346D01*
X63652Y-32346D01*
X63522Y-32346D01*
X63451Y-32375D01*
X63431Y-32327D01*
X63339Y-32235D01*
X63219Y-32185D01*
X63089Y-32185D01*
X62969Y-32235D01*
X62877Y-32327D01*
X62827Y-32447D01*
X62827Y-32577D01*
X62877Y-32697D01*
X62969Y-32789D01*
X63008Y-32805D01*
X61560Y-35634D01*
X61488Y-35562D01*
X61368Y-35512D01*
X61238Y-35512D01*
X61118Y-35562D01*
X61055Y-35624D01*
X60260Y-35554D01*
X60260Y-31456D01*
X60260Y-31277D01*
X60260Y-30456D01*
X60260Y-30277D01*
X60192Y-30112D01*
X60066Y-29986D01*
X59901Y-29917D01*
X59722Y-29917D01*
X59557Y-29985D01*
X59431Y-30111D01*
X59362Y-30276D01*
X59362Y-30455D01*
X59430Y-30620D01*
X59556Y-30746D01*
X59721Y-30815D01*
X59900Y-30815D01*
X60065Y-30747D01*
X60191Y-30621D01*
X60260Y-30456D01*
X60260Y-31277D01*
X60192Y-31112D01*
X60066Y-30986D01*
X59901Y-30917D01*
X59722Y-30917D01*
X59557Y-30985D01*
X59431Y-31111D01*
X59362Y-31276D01*
X59362Y-31455D01*
X59430Y-31620D01*
X59556Y-31746D01*
X59721Y-31815D01*
X59900Y-31815D01*
X60065Y-31747D01*
X60191Y-31621D01*
X60260Y-31456D01*
X60260Y-35554D01*
X58373Y-35391D01*
X58406Y-35313D01*
X58406Y-35183D01*
X58356Y-35063D01*
X58278Y-34985D01*
X58415Y-31584D01*
X58430Y-31620D01*
X58556Y-31746D01*
X58721Y-31815D01*
X58900Y-31815D01*
X59065Y-31747D01*
X59191Y-31621D01*
X59260Y-31456D01*
X59260Y-31277D01*
X59192Y-31112D01*
X59066Y-30986D01*
X58901Y-30917D01*
X58722Y-30917D01*
X58557Y-30985D01*
X58431Y-31111D01*
X58418Y-31142D01*
X58418Y-30590D01*
X58430Y-30620D01*
X58556Y-30746D01*
X58721Y-30815D01*
X58900Y-30815D01*
X59065Y-30747D01*
X59191Y-30621D01*
X59260Y-30456D01*
X59260Y-30277D01*
X59192Y-30112D01*
X59066Y-29986D01*
X58901Y-29917D01*
X58722Y-29917D01*
X58557Y-29985D01*
X58431Y-30111D01*
X58411Y-30158D01*
X58404Y-30121D01*
X58403Y-30120D01*
X58363Y-30059D01*
X58360Y-30057D01*
X58118Y-29814D01*
X58057Y-29773D01*
X57984Y-29758D01*
X57979Y-29759D01*
X45984Y-29759D01*
X45638Y-29759D01*
X45629Y-29760D01*
X45623Y-29760D01*
X45601Y-29766D01*
X45566Y-29773D01*
X45557Y-29778D01*
X45552Y-29780D01*
X45092Y-30012D01*
X45066Y-29986D01*
X44901Y-29917D01*
X44722Y-29917D01*
X44557Y-29985D01*
X44431Y-30111D01*
X44362Y-30276D01*
X44362Y-30455D01*
X44430Y-30620D01*
X44556Y-30746D01*
X44591Y-30760D01*
X44557Y-30777D01*
X44556Y-30777D01*
X44554Y-30778D01*
X44260Y-30923D01*
X44260Y-30456D01*
X44260Y-30277D01*
X44192Y-30112D01*
X44066Y-29986D01*
X43901Y-29917D01*
X43722Y-29917D01*
X43557Y-29985D01*
X43431Y-30111D01*
X43362Y-30276D01*
X43362Y-30455D01*
X43430Y-30620D01*
X43556Y-30746D01*
X43721Y-30815D01*
X43900Y-30815D01*
X44065Y-30747D01*
X44191Y-30621D01*
X44260Y-30456D01*
X44260Y-30923D01*
X44206Y-30950D01*
X44195Y-30939D01*
X44140Y-30917D01*
X44081Y-30917D01*
X43481Y-30917D01*
X43426Y-30940D01*
X43384Y-30982D01*
X43362Y-31037D01*
X43362Y-31096D01*
X43362Y-31696D01*
X43385Y-31751D01*
X43427Y-31793D01*
X43482Y-31815D01*
X43541Y-31815D01*
X44141Y-31815D01*
X44196Y-31792D01*
X44238Y-31750D01*
X44260Y-31695D01*
X44260Y-31636D01*
X44260Y-31345D01*
X44362Y-31294D01*
X44362Y-31455D01*
X44430Y-31620D01*
X44556Y-31746D01*
X44721Y-31815D01*
X44900Y-31815D01*
X45065Y-31747D01*
X45191Y-31621D01*
X45260Y-31456D01*
X45260Y-31277D01*
X45192Y-31112D01*
X45066Y-30986D01*
X45030Y-30971D01*
X45064Y-30955D01*
X45065Y-30954D01*
X45069Y-30953D01*
X45529Y-30719D01*
X45556Y-30746D01*
X45721Y-30815D01*
X45900Y-30815D01*
X46065Y-30747D01*
X46191Y-30621D01*
X46260Y-30456D01*
X46260Y-30277D01*
X46202Y-30137D01*
X46420Y-30137D01*
X46362Y-30276D01*
X46362Y-30455D01*
X46430Y-30620D01*
X46556Y-30746D01*
X46721Y-30815D01*
X46900Y-30815D01*
X47065Y-30747D01*
X47191Y-30621D01*
X47260Y-30456D01*
X47260Y-30277D01*
X47202Y-30137D01*
X47411Y-30137D01*
X47354Y-30266D01*
X47350Y-30448D01*
X47416Y-30618D01*
X47428Y-30633D01*
X47504Y-30660D01*
X47763Y-30401D01*
X47798Y-30366D01*
X47811Y-30353D01*
X47824Y-30366D01*
X47859Y-30401D01*
X48118Y-30660D01*
X48194Y-30633D01*
X48268Y-30466D01*
X48272Y-30284D01*
X48214Y-30137D01*
X48420Y-30137D01*
X48362Y-30276D01*
X48362Y-30455D01*
X48430Y-30620D01*
X48556Y-30746D01*
X48721Y-30815D01*
X48900Y-30815D01*
X49065Y-30747D01*
X49191Y-30621D01*
X49260Y-30456D01*
X49260Y-30277D01*
X49202Y-30137D01*
X49420Y-30137D01*
X49362Y-30276D01*
X49362Y-30455D01*
X49430Y-30620D01*
X49448Y-30638D01*
X49356Y-30638D01*
X49236Y-30688D01*
X49144Y-30780D01*
X49094Y-30900D01*
X49094Y-30953D01*
X49052Y-30980D01*
X48901Y-30917D01*
X48722Y-30917D01*
X48557Y-30985D01*
X48431Y-31111D01*
X48362Y-31276D01*
X48362Y-31432D01*
X48260Y-31380D01*
X48260Y-31277D01*
X48192Y-31112D01*
X48105Y-31025D01*
X48105Y-30673D01*
X47811Y-30379D01*
X47517Y-30673D01*
X47544Y-30749D01*
X47711Y-30823D01*
X47893Y-30827D01*
X48063Y-30761D01*
X48078Y-30749D01*
X48105Y-30673D01*
X48105Y-31025D01*
X48066Y-30986D01*
X47901Y-30917D01*
X47722Y-30917D01*
X47557Y-30985D01*
X47431Y-31111D01*
X47362Y-31276D01*
X47362Y-31455D01*
X47430Y-31620D01*
X47556Y-31746D01*
X47721Y-31815D01*
X47900Y-31815D01*
X48065Y-31747D01*
X48092Y-31719D01*
X48552Y-31952D01*
X48571Y-31957D01*
X48595Y-31968D01*
X49079Y-32080D01*
X49362Y-32362D01*
X49377Y-32372D01*
X49401Y-32393D01*
X51386Y-33539D01*
X50601Y-33377D01*
X50590Y-33376D01*
X48057Y-32902D01*
X48037Y-32854D01*
X47945Y-32762D01*
X47825Y-32712D01*
X47695Y-32712D01*
X47575Y-32762D01*
X47483Y-32854D01*
X47433Y-32974D01*
X47433Y-33058D01*
X47323Y-33018D01*
X47281Y-32917D01*
X47260Y-32896D01*
X47260Y-31456D01*
X47260Y-31277D01*
X47192Y-31112D01*
X47066Y-30986D01*
X46901Y-30917D01*
X46722Y-30917D01*
X46557Y-30985D01*
X46431Y-31111D01*
X46362Y-31276D01*
X46362Y-31455D01*
X46430Y-31620D01*
X46556Y-31746D01*
X46721Y-31815D01*
X46900Y-31815D01*
X47065Y-31747D01*
X47191Y-31621D01*
X47260Y-31456D01*
X47260Y-32896D01*
X47189Y-32825D01*
X47069Y-32775D01*
X46939Y-32775D01*
X46819Y-32825D01*
X46727Y-32917D01*
X46677Y-33037D01*
X46677Y-33132D01*
X46447Y-33057D01*
X46411Y-32969D01*
X46319Y-32877D01*
X46272Y-32857D01*
X46272Y-31284D01*
X46206Y-31114D01*
X46194Y-31099D01*
X46118Y-31072D01*
X46105Y-31085D01*
X46105Y-31059D01*
X46078Y-30983D01*
X45911Y-30909D01*
X45729Y-30905D01*
X45559Y-30971D01*
X45544Y-30983D01*
X45517Y-31059D01*
X45811Y-31353D01*
X46105Y-31059D01*
X46105Y-31085D01*
X45824Y-31366D01*
X46118Y-31660D01*
X46194Y-31633D01*
X46268Y-31466D01*
X46272Y-31284D01*
X46272Y-32857D01*
X46199Y-32827D01*
X46105Y-32827D01*
X46105Y-31673D01*
X45811Y-31379D01*
X45798Y-31392D01*
X45798Y-31366D01*
X45504Y-31072D01*
X45428Y-31099D01*
X45354Y-31266D01*
X45350Y-31448D01*
X45416Y-31618D01*
X45428Y-31633D01*
X45504Y-31660D01*
X45798Y-31366D01*
X45798Y-31392D01*
X45517Y-31673D01*
X45544Y-31749D01*
X45711Y-31823D01*
X45893Y-31827D01*
X46063Y-31761D01*
X46078Y-31749D01*
X46105Y-31673D01*
X46105Y-32827D01*
X46069Y-32827D01*
X45949Y-32877D01*
X45857Y-32969D01*
X45807Y-33089D01*
X45807Y-33162D01*
X45721Y-33127D01*
X45675Y-33016D01*
X45583Y-32924D01*
X45463Y-32874D01*
X45333Y-32874D01*
X45213Y-32924D01*
X45121Y-33016D01*
X45071Y-33136D01*
X45071Y-33266D01*
X45121Y-33386D01*
X45213Y-33478D01*
X45333Y-33528D01*
X45463Y-33528D01*
X45581Y-33478D01*
X45940Y-33624D01*
X45963Y-33628D01*
X45986Y-33636D01*
X49001Y-34038D01*
X48953Y-34155D01*
X48953Y-34285D01*
X49003Y-34405D01*
X49095Y-34497D01*
X49215Y-34547D01*
X49345Y-34547D01*
X49358Y-34541D01*
X53097Y-37825D01*
X53071Y-37837D01*
X52979Y-37929D01*
X52929Y-38049D01*
X52929Y-38179D01*
X52965Y-38265D01*
X52945Y-38274D01*
X52853Y-38366D01*
X52803Y-38486D01*
X52803Y-38616D01*
X52830Y-38682D01*
X52772Y-38707D01*
X52680Y-38799D01*
X52630Y-38919D01*
X52630Y-39049D01*
X52680Y-39169D01*
X52683Y-39172D01*
X52554Y-39517D01*
X52512Y-39475D01*
X52392Y-39425D01*
X52262Y-39425D01*
X52142Y-39475D01*
X52076Y-39540D01*
X51771Y-39513D01*
X51856Y-39429D01*
X51906Y-39309D01*
X51906Y-39179D01*
X51856Y-39059D01*
X51764Y-38967D01*
X51644Y-38917D01*
X51514Y-38917D01*
X51394Y-38967D01*
X51316Y-39044D01*
X51182Y-39072D01*
X51159Y-39081D01*
X51136Y-39086D01*
X51113Y-39100D01*
X51092Y-39110D01*
X51076Y-39125D01*
X51055Y-39140D01*
X50848Y-39346D01*
X50822Y-39384D01*
X50801Y-39412D01*
X50798Y-39419D01*
X50794Y-39427D01*
X50786Y-39464D01*
X50776Y-39505D01*
X50749Y-39898D01*
X49016Y-40333D01*
X48935Y-40299D01*
X48805Y-40299D01*
X48685Y-40349D01*
X48624Y-40409D01*
X47298Y-37641D01*
X47339Y-37545D01*
X47339Y-37415D01*
X47289Y-37295D01*
X47197Y-37203D01*
X47077Y-37153D01*
X46947Y-37153D01*
X46827Y-37203D01*
X46735Y-37295D01*
X46685Y-37415D01*
X46685Y-37545D01*
X46735Y-37665D01*
X46827Y-37757D01*
X46947Y-37807D01*
X46959Y-37807D01*
X48397Y-40807D01*
X48400Y-40821D01*
X48441Y-40882D01*
X48612Y-41052D01*
X48614Y-41055D01*
X48675Y-41095D01*
X48676Y-41096D01*
X48748Y-41110D01*
X48992Y-41110D01*
X49016Y-41105D01*
X49039Y-41104D01*
X50196Y-40807D01*
X50347Y-40807D01*
X52567Y-42702D01*
X49652Y-42029D01*
X49644Y-42028D01*
X47114Y-41499D01*
X49696Y-41612D01*
X49699Y-41618D01*
X49791Y-41710D01*
X49911Y-41760D01*
X50041Y-41760D01*
X50161Y-41710D01*
X50253Y-41618D01*
X50303Y-41498D01*
X50303Y-41368D01*
X50253Y-41248D01*
X50161Y-41156D01*
X50041Y-41106D01*
X49911Y-41106D01*
X49791Y-41156D01*
X49712Y-41234D01*
X47048Y-41117D01*
X47045Y-41110D01*
X46953Y-41018D01*
X46833Y-40968D01*
X46703Y-40968D01*
X46583Y-41018D01*
X46552Y-41048D01*
X45180Y-36506D01*
X45209Y-36439D01*
X45209Y-36309D01*
X45159Y-36189D01*
X45067Y-36097D01*
X44947Y-36047D01*
X44817Y-36047D01*
X44697Y-36097D01*
X44605Y-36189D01*
X44555Y-36309D01*
X44555Y-36439D01*
X44605Y-36559D01*
X44697Y-36651D01*
X44708Y-36655D01*
X46175Y-41514D01*
X46182Y-41527D01*
X46184Y-41537D01*
X46198Y-41558D01*
X46220Y-41599D01*
X46232Y-41609D01*
X46238Y-41617D01*
X46446Y-41825D01*
X46463Y-41836D01*
X46481Y-41855D01*
X46506Y-41865D01*
X46526Y-41879D01*
X46546Y-41882D01*
X46570Y-41893D01*
X49539Y-42512D01*
X49540Y-42513D01*
X49545Y-42514D01*
X54065Y-43557D01*
X54068Y-43557D01*
X54105Y-43567D01*
X57762Y-43797D01*
X57777Y-43794D01*
X57778Y-43795D01*
X58072Y-43795D01*
X58073Y-43794D01*
X58075Y-43795D01*
X60315Y-43764D01*
X60318Y-43763D01*
X60324Y-43764D01*
X61305Y-43717D01*
X63226Y-43623D01*
X63290Y-43606D01*
X63309Y-43603D01*
X63311Y-43601D01*
X63320Y-43599D01*
X63363Y-43566D01*
X63389Y-43549D01*
X63397Y-43541D01*
X63572Y-43366D01*
X63593Y-43366D01*
X63713Y-43316D01*
X63805Y-43224D01*
X63855Y-43104D01*
X63855Y-42974D01*
X63805Y-42854D01*
X63713Y-42762D01*
X63593Y-42712D01*
X63463Y-42712D01*
X63343Y-42762D01*
X63251Y-42854D01*
X63201Y-42974D01*
X63201Y-43036D01*
X63105Y-43131D01*
X61281Y-43221D01*
X61276Y-43222D01*
X60300Y-43268D01*
X60299Y-43268D01*
X58069Y-43299D01*
X57778Y-43299D01*
X57770Y-43300D01*
X54566Y-43098D01*
X54595Y-43030D01*
X54595Y-42900D01*
X54545Y-42780D01*
X54453Y-42688D01*
X54333Y-42638D01*
X54203Y-42638D01*
X54083Y-42688D01*
X54036Y-42734D01*
X53353Y-42621D01*
X52794Y-42399D01*
X50552Y-40484D01*
X50541Y-40474D01*
X50526Y-40465D01*
X50922Y-40366D01*
X53193Y-42278D01*
X53193Y-42297D01*
X53243Y-42417D01*
X53335Y-42509D01*
X53455Y-42559D01*
X53585Y-42559D01*
X53705Y-42509D01*
X53712Y-42501D01*
X54439Y-42576D01*
X54930Y-42756D01*
X54931Y-42757D01*
X54932Y-42757D01*
X54940Y-42760D01*
X54967Y-42764D01*
X55026Y-42776D01*
X55320Y-42776D01*
X55320Y-42775D01*
X55322Y-42776D01*
X60505Y-42730D01*
X60532Y-42757D01*
X60652Y-42807D01*
X60782Y-42807D01*
X60902Y-42757D01*
X60994Y-42665D01*
X61044Y-42545D01*
X61044Y-42415D01*
X60994Y-42295D01*
X60902Y-42203D01*
X60782Y-42153D01*
X60652Y-42153D01*
X60532Y-42203D01*
X60500Y-42234D01*
X55555Y-42277D01*
X57953Y-41720D01*
X57960Y-41720D01*
X63689Y-40366D01*
X63717Y-40353D01*
X63723Y-40350D01*
X63755Y-40336D01*
X63918Y-40270D01*
X63919Y-40269D01*
X63920Y-40269D01*
X64189Y-40156D01*
X64189Y-40226D01*
X64239Y-40346D01*
X64331Y-40438D01*
X64451Y-40488D01*
X64581Y-40488D01*
X64701Y-40438D01*
X64770Y-40368D01*
X65582Y-40226D01*
X65691Y-40272D01*
X65821Y-40272D01*
X65941Y-40222D01*
X66033Y-40130D01*
X66083Y-40010D01*
X66083Y-39880D01*
X66033Y-39760D01*
X65970Y-39697D01*
X66020Y-39577D01*
X66020Y-39447D01*
X65970Y-39327D01*
X65956Y-39313D01*
X66005Y-39264D01*
X66033Y-39195D01*
X66076Y-39233D01*
X66085Y-39241D01*
X66112Y-39257D01*
X66138Y-39274D01*
X66142Y-39274D01*
X66148Y-39278D01*
X66183Y-39282D01*
X66210Y-39288D01*
X66221Y-39288D01*
X66761Y-39288D01*
X66860Y-39288D01*
X67681Y-39288D01*
X67686Y-39289D01*
X67686Y-39288D01*
X67758Y-39274D01*
X67759Y-39274D01*
X67820Y-39233D01*
X67887Y-39164D01*
X67889Y-39163D01*
X67890Y-39163D01*
X67912Y-39129D01*
X68218Y-39129D01*
X68273Y-39106D01*
X68315Y-39064D01*
X68337Y-39009D01*
X68337Y-38950D01*
X68337Y-38400D01*
X68314Y-38345D01*
X68272Y-38303D01*
X68217Y-38281D01*
X68158Y-38281D01*
X68114Y-38281D01*
X68148Y-38274D01*
X68149Y-38274D01*
X68210Y-38233D01*
X68360Y-38082D01*
X68360Y-44283D01*
X68360Y-44283D01*
G37*
G54D24*
X68360Y-44283D02*
X68340Y-44254D01*
X68174Y-44122D01*
X68161Y-44135D01*
X68161Y-44109D01*
X68029Y-43943D01*
X67550Y-43726D01*
X67533Y-43725D01*
X67533Y-42571D01*
X67533Y-42402D01*
X67533Y-41571D01*
X67533Y-41402D01*
X67532Y-41399D01*
X67532Y-40790D01*
X67532Y-40731D01*
X67532Y-40181D01*
X67509Y-40126D01*
X67467Y-40084D01*
X67412Y-40062D01*
X67353Y-40062D01*
X66803Y-40062D01*
X66748Y-40085D01*
X66706Y-40127D01*
X66684Y-40182D01*
X66684Y-40241D01*
X66684Y-40791D01*
X66707Y-40846D01*
X66749Y-40888D01*
X66804Y-40910D01*
X66863Y-40910D01*
X67413Y-40910D01*
X67468Y-40887D01*
X67510Y-40845D01*
X67532Y-40790D01*
X67532Y-41399D01*
X67469Y-41246D01*
X67349Y-41126D01*
X67193Y-41061D01*
X67024Y-41061D01*
X66868Y-41125D01*
X66748Y-41245D01*
X66683Y-41401D01*
X66683Y-41570D01*
X66747Y-41726D01*
X66867Y-41846D01*
X67023Y-41911D01*
X67192Y-41911D01*
X67348Y-41847D01*
X67468Y-41727D01*
X67533Y-41571D01*
X67533Y-42402D01*
X67469Y-42246D01*
X67349Y-42126D01*
X67193Y-42061D01*
X67024Y-42061D01*
X66868Y-42125D01*
X66748Y-42245D01*
X66683Y-42401D01*
X66683Y-42570D01*
X66747Y-42726D01*
X66867Y-42846D01*
X67023Y-42911D01*
X67192Y-42911D01*
X67348Y-42847D01*
X67468Y-42727D01*
X67533Y-42571D01*
X67533Y-43725D01*
X67024Y-43709D01*
X66532Y-43894D01*
X66459Y-43943D01*
X66327Y-44109D01*
X67244Y-45026D01*
X68161Y-44109D01*
X68161Y-44135D01*
X67292Y-45004D01*
X67257Y-45039D01*
X67244Y-45052D01*
X67231Y-45065D01*
X67231Y-45039D01*
X66314Y-44122D01*
X66148Y-44254D01*
X65931Y-44733D01*
X65914Y-45259D01*
X66099Y-45751D01*
X66148Y-45824D01*
X66314Y-45956D01*
X67231Y-45039D01*
X67231Y-45065D01*
X67209Y-45087D01*
X66327Y-45969D01*
X66459Y-46135D01*
X66503Y-46155D01*
X41724Y-46155D01*
X41724Y-44819D01*
X41724Y-30174D01*
X41539Y-29682D01*
X41490Y-29609D01*
X41324Y-29477D01*
X40407Y-30394D01*
X41324Y-31311D01*
X41490Y-31179D01*
X41707Y-30700D01*
X41724Y-30174D01*
X41724Y-44819D01*
X41539Y-44327D01*
X41490Y-44254D01*
X41324Y-44122D01*
X40407Y-45039D01*
X41324Y-45956D01*
X41490Y-45824D01*
X41707Y-45345D01*
X41724Y-44819D01*
X41724Y-46155D01*
X41149Y-46155D01*
X41179Y-46135D01*
X41311Y-45969D01*
X40429Y-45087D01*
X40394Y-45052D01*
X40381Y-45039D01*
X40346Y-45004D01*
X39464Y-44122D01*
X39298Y-44254D01*
X39278Y-44298D01*
X39278Y-43763D01*
X39334Y-43820D01*
X39510Y-43893D01*
X39684Y-43893D01*
X39682Y-43894D01*
X39609Y-43943D01*
X39477Y-44109D01*
X40394Y-45026D01*
X41311Y-44109D01*
X41179Y-43943D01*
X40986Y-43855D01*
X40986Y-39139D01*
X40976Y-39113D01*
X40976Y-38302D01*
X40976Y-38133D01*
X40976Y-37302D01*
X40976Y-37133D01*
X40975Y-37130D01*
X40975Y-36521D01*
X40975Y-36462D01*
X40975Y-35912D01*
X40952Y-35857D01*
X40910Y-35815D01*
X40855Y-35793D01*
X40796Y-35793D01*
X40246Y-35793D01*
X40191Y-35816D01*
X40149Y-35858D01*
X40127Y-35913D01*
X40127Y-35972D01*
X40127Y-36522D01*
X40150Y-36577D01*
X40192Y-36619D01*
X40247Y-36641D01*
X40306Y-36641D01*
X40856Y-36641D01*
X40911Y-36618D01*
X40953Y-36576D01*
X40975Y-36521D01*
X40975Y-37130D01*
X40912Y-36977D01*
X40792Y-36857D01*
X40636Y-36792D01*
X40467Y-36792D01*
X40311Y-36856D01*
X40191Y-36976D01*
X40126Y-37132D01*
X40126Y-37301D01*
X40190Y-37457D01*
X40310Y-37577D01*
X40466Y-37642D01*
X40635Y-37642D01*
X40791Y-37578D01*
X40911Y-37458D01*
X40976Y-37302D01*
X40976Y-38133D01*
X40912Y-37977D01*
X40792Y-37857D01*
X40636Y-37792D01*
X40467Y-37792D01*
X40311Y-37856D01*
X40191Y-37976D01*
X40126Y-38132D01*
X40126Y-38301D01*
X40190Y-38457D01*
X40310Y-38577D01*
X40466Y-38642D01*
X40635Y-38642D01*
X40791Y-38578D01*
X40911Y-38458D01*
X40976Y-38302D01*
X40976Y-39113D01*
X40923Y-38978D01*
X40914Y-38965D01*
X40840Y-38941D01*
X40827Y-38954D01*
X40827Y-38928D01*
X40803Y-38854D01*
X40645Y-38785D01*
X40473Y-38782D01*
X40312Y-38845D01*
X40299Y-38854D01*
X40275Y-38928D01*
X40551Y-39204D01*
X40827Y-38928D01*
X40827Y-38954D01*
X40564Y-39217D01*
X40840Y-39493D01*
X40914Y-39469D01*
X40983Y-39311D01*
X40986Y-39139D01*
X40986Y-43855D01*
X40827Y-43783D01*
X40827Y-39506D01*
X40551Y-39230D01*
X40538Y-39243D01*
X40538Y-39217D01*
X40262Y-38941D01*
X40188Y-38965D01*
X40119Y-39123D01*
X40116Y-39295D01*
X40179Y-39456D01*
X40188Y-39469D01*
X40262Y-39493D01*
X40538Y-39217D01*
X40538Y-39243D01*
X40275Y-39506D01*
X40299Y-39580D01*
X40457Y-39649D01*
X40629Y-39652D01*
X40790Y-39589D01*
X40803Y-39580D01*
X40827Y-39506D01*
X40827Y-43783D01*
X40700Y-43726D01*
X40174Y-43709D01*
X40095Y-43738D01*
X40095Y-42325D01*
X40095Y-39727D01*
X40095Y-37129D01*
X40095Y-34530D01*
X40095Y-31932D01*
X40025Y-31751D01*
X40013Y-31736D01*
X39934Y-31705D01*
X39619Y-32020D01*
X39934Y-32335D01*
X40013Y-32304D01*
X40091Y-32126D01*
X40095Y-31932D01*
X40095Y-34530D01*
X40025Y-34349D01*
X40013Y-34334D01*
X39934Y-34303D01*
X39921Y-34316D01*
X39619Y-34618D01*
X39934Y-34933D01*
X40013Y-34902D01*
X40091Y-34724D01*
X40095Y-34530D01*
X40095Y-37129D01*
X40025Y-36948D01*
X40013Y-36933D01*
X39934Y-36902D01*
X39921Y-36915D01*
X39619Y-37217D01*
X39934Y-37532D01*
X40013Y-37501D01*
X40091Y-37323D01*
X40095Y-37129D01*
X40095Y-39727D01*
X40025Y-39546D01*
X40013Y-39531D01*
X39934Y-39500D01*
X39921Y-39513D01*
X39619Y-39815D01*
X39934Y-40130D01*
X40013Y-40099D01*
X40091Y-39921D01*
X40095Y-39727D01*
X40095Y-42325D01*
X40025Y-42144D01*
X40013Y-42129D01*
X39934Y-42098D01*
X39921Y-42111D01*
X39619Y-42413D01*
X39934Y-42728D01*
X40013Y-42697D01*
X40091Y-42519D01*
X40095Y-42325D01*
X40095Y-43738D01*
X39877Y-43820D01*
X40013Y-43685D01*
X40086Y-43509D01*
X40086Y-43318D01*
X40013Y-43142D01*
X39921Y-43049D01*
X39878Y-43006D01*
X39702Y-42933D01*
X39511Y-42933D01*
X39335Y-43006D01*
X39278Y-43062D01*
X39278Y-42801D01*
X39290Y-42813D01*
X39310Y-42791D01*
X39322Y-42820D01*
X39500Y-42898D01*
X39694Y-42902D01*
X39875Y-42832D01*
X39890Y-42820D01*
X39921Y-42741D01*
X39641Y-42461D01*
X39606Y-42426D01*
X39593Y-42413D01*
X39606Y-42400D01*
X39641Y-42365D01*
X39921Y-42085D01*
X39890Y-42006D01*
X39712Y-41928D01*
X39518Y-41924D01*
X39337Y-41994D01*
X39322Y-42006D01*
X39310Y-42034D01*
X39290Y-42013D01*
X39278Y-42025D01*
X39278Y-41165D01*
X39334Y-41222D01*
X39510Y-41295D01*
X39701Y-41295D01*
X39877Y-41222D01*
X40013Y-41087D01*
X40086Y-40911D01*
X40086Y-40720D01*
X40013Y-40544D01*
X39921Y-40451D01*
X39878Y-40408D01*
X39702Y-40335D01*
X39511Y-40335D01*
X39335Y-40408D01*
X39278Y-40464D01*
X39278Y-40203D01*
X39290Y-40215D01*
X39310Y-40193D01*
X39322Y-40222D01*
X39500Y-40300D01*
X39694Y-40304D01*
X39875Y-40234D01*
X39890Y-40222D01*
X39921Y-40143D01*
X39641Y-39863D01*
X39606Y-39828D01*
X39593Y-39815D01*
X39606Y-39802D01*
X39641Y-39767D01*
X39921Y-39487D01*
X39890Y-39408D01*
X39712Y-39330D01*
X39518Y-39326D01*
X39337Y-39396D01*
X39322Y-39408D01*
X39310Y-39436D01*
X39290Y-39415D01*
X39278Y-39427D01*
X39278Y-38567D01*
X39334Y-38624D01*
X39510Y-38697D01*
X39701Y-38697D01*
X39877Y-38624D01*
X40013Y-38489D01*
X40086Y-38313D01*
X40086Y-38122D01*
X40013Y-37946D01*
X39921Y-37853D01*
X39878Y-37810D01*
X39702Y-37737D01*
X39511Y-37737D01*
X39335Y-37810D01*
X39278Y-37866D01*
X39278Y-37605D01*
X39290Y-37617D01*
X39310Y-37595D01*
X39322Y-37624D01*
X39500Y-37702D01*
X39694Y-37706D01*
X39875Y-37636D01*
X39890Y-37624D01*
X39921Y-37545D01*
X39641Y-37265D01*
X39606Y-37230D01*
X39593Y-37217D01*
X39606Y-37204D01*
X39641Y-37169D01*
X39921Y-36889D01*
X39890Y-36810D01*
X39712Y-36732D01*
X39518Y-36728D01*
X39337Y-36798D01*
X39322Y-36810D01*
X39310Y-36838D01*
X39290Y-36817D01*
X39278Y-36829D01*
X39278Y-35968D01*
X39334Y-36025D01*
X39510Y-36098D01*
X39701Y-36098D01*
X39877Y-36025D01*
X40013Y-35890D01*
X40086Y-35714D01*
X40086Y-35523D01*
X40013Y-35347D01*
X39921Y-35254D01*
X39878Y-35211D01*
X39702Y-35138D01*
X39511Y-35138D01*
X39335Y-35211D01*
X39278Y-35267D01*
X39278Y-35006D01*
X39290Y-35018D01*
X39310Y-34996D01*
X39322Y-35025D01*
X39500Y-35103D01*
X39694Y-35107D01*
X39875Y-35037D01*
X39890Y-35025D01*
X39921Y-34946D01*
X39641Y-34666D01*
X39606Y-34631D01*
X39593Y-34618D01*
X39606Y-34605D01*
X39641Y-34570D01*
X39921Y-34290D01*
X39890Y-34211D01*
X39712Y-34133D01*
X39518Y-34129D01*
X39337Y-34199D01*
X39322Y-34211D01*
X39310Y-34239D01*
X39290Y-34218D01*
X39278Y-34230D01*
X39278Y-33370D01*
X39334Y-33427D01*
X39510Y-33500D01*
X39701Y-33500D01*
X39877Y-33427D01*
X40013Y-33292D01*
X40086Y-33116D01*
X40086Y-32925D01*
X40013Y-32749D01*
X39921Y-32656D01*
X39878Y-32613D01*
X39702Y-32540D01*
X39511Y-32540D01*
X39335Y-32613D01*
X39278Y-32669D01*
X39278Y-32408D01*
X39290Y-32420D01*
X39310Y-32398D01*
X39322Y-32427D01*
X39500Y-32505D01*
X39694Y-32509D01*
X39875Y-32439D01*
X39890Y-32427D01*
X39921Y-32348D01*
X39641Y-32068D01*
X39606Y-32033D01*
X39593Y-32020D01*
X39606Y-32007D01*
X39641Y-31972D01*
X39921Y-31692D01*
X39892Y-31618D01*
X40088Y-31707D01*
X40614Y-31724D01*
X41106Y-31539D01*
X41179Y-31490D01*
X41311Y-31324D01*
X40394Y-30407D01*
X39477Y-31324D01*
X39609Y-31490D01*
X39708Y-31534D01*
X39518Y-31531D01*
X39337Y-31601D01*
X39322Y-31613D01*
X39310Y-31641D01*
X39290Y-31620D01*
X39278Y-31632D01*
X39278Y-31149D01*
X39298Y-31179D01*
X39464Y-31311D01*
X40346Y-30429D01*
X40381Y-30394D01*
X40394Y-30381D01*
X40429Y-30346D01*
X41311Y-29464D01*
X41179Y-29298D01*
X41134Y-29278D01*
X63163Y-29278D01*
X63139Y-29335D01*
X63139Y-29402D01*
X63139Y-29515D01*
X63181Y-29557D01*
X63445Y-29557D01*
X63495Y-29557D01*
X63513Y-29557D01*
X63563Y-29557D01*
X63575Y-29557D01*
X63827Y-29557D01*
X63839Y-29557D01*
X63889Y-29557D01*
X63907Y-29557D01*
X63957Y-29557D01*
X63969Y-29557D01*
X64221Y-29557D01*
X64233Y-29557D01*
X64283Y-29557D01*
X64301Y-29557D01*
X64351Y-29557D01*
X64363Y-29557D01*
X64615Y-29557D01*
X64627Y-29557D01*
X64677Y-29557D01*
X64695Y-29557D01*
X64745Y-29557D01*
X65009Y-29557D01*
X65051Y-29515D01*
X65051Y-29402D01*
X65051Y-29335D01*
X65026Y-29278D01*
X66488Y-29278D01*
X66459Y-29298D01*
X66327Y-29464D01*
X67209Y-30346D01*
X67244Y-30381D01*
X67257Y-30394D01*
X67292Y-30429D01*
X68174Y-31311D01*
X68340Y-31179D01*
X68360Y-31134D01*
X68360Y-34916D01*
X68348Y-34862D01*
X68348Y-33083D01*
X68285Y-32922D01*
X68276Y-32909D01*
X68202Y-32885D01*
X68189Y-32898D01*
X68189Y-32872D01*
X68165Y-32798D01*
X68161Y-32796D01*
X68161Y-31324D01*
X67244Y-30407D01*
X67231Y-30420D01*
X67231Y-30394D01*
X66314Y-29477D01*
X66148Y-29609D01*
X65931Y-30088D01*
X65914Y-30614D01*
X66099Y-31106D01*
X66148Y-31179D01*
X66314Y-31311D01*
X67231Y-30394D01*
X67231Y-30420D01*
X66327Y-31324D01*
X66459Y-31490D01*
X66938Y-31707D01*
X67464Y-31724D01*
X67956Y-31539D01*
X68029Y-31490D01*
X68161Y-31324D01*
X68161Y-32796D01*
X68007Y-32729D01*
X67835Y-32726D01*
X67674Y-32789D01*
X67661Y-32798D01*
X67637Y-32872D01*
X67913Y-33148D01*
X68189Y-32872D01*
X68189Y-32898D01*
X67926Y-33161D01*
X68202Y-33437D01*
X68276Y-33413D01*
X68345Y-33255D01*
X68348Y-33083D01*
X68348Y-34862D01*
X68279Y-34555D01*
X68315Y-34520D01*
X68337Y-34465D01*
X68337Y-34406D01*
X68337Y-33856D01*
X68314Y-33801D01*
X68272Y-33759D01*
X68217Y-33737D01*
X68189Y-33737D01*
X68189Y-33450D01*
X67913Y-33174D01*
X67900Y-33187D01*
X67900Y-33161D01*
X67624Y-32885D01*
X67550Y-32909D01*
X67481Y-33067D01*
X67478Y-33239D01*
X67541Y-33400D01*
X67550Y-33413D01*
X67624Y-33437D01*
X67900Y-33161D01*
X67900Y-33187D01*
X67637Y-33450D01*
X67661Y-33524D01*
X67819Y-33593D01*
X67991Y-33596D01*
X68152Y-33533D01*
X68165Y-33524D01*
X68189Y-33450D01*
X68189Y-33737D01*
X68158Y-33737D01*
X67608Y-33737D01*
X67553Y-33760D01*
X67511Y-33802D01*
X67489Y-33857D01*
X67489Y-33916D01*
X67489Y-34466D01*
X67512Y-34521D01*
X67554Y-34563D01*
X67609Y-34585D01*
X67668Y-34585D01*
X67899Y-34585D01*
X68060Y-35305D01*
X67998Y-35280D01*
X67829Y-35280D01*
X67673Y-35344D01*
X67553Y-35464D01*
X67488Y-35620D01*
X67488Y-35643D01*
X66947Y-35819D01*
X66960Y-35790D01*
X66960Y-35621D01*
X66896Y-35465D01*
X66776Y-35345D01*
X66620Y-35280D01*
X66451Y-35280D01*
X66295Y-35344D01*
X66175Y-35464D01*
X66110Y-35620D01*
X66110Y-35789D01*
X66156Y-35901D01*
X65150Y-35848D01*
X65150Y-30650D01*
X65150Y-30528D01*
X65103Y-30415D01*
X65017Y-30329D01*
X64962Y-30306D01*
X64978Y-30300D01*
X65025Y-30252D01*
X65051Y-30191D01*
X65051Y-30124D01*
X65051Y-30011D01*
X65051Y-29909D01*
X65051Y-29797D01*
X65051Y-29796D01*
X65051Y-29730D01*
X65051Y-29729D01*
X65051Y-29617D01*
X65009Y-29575D01*
X64695Y-29575D01*
X64695Y-29637D01*
X64695Y-29889D01*
X64695Y-29951D01*
X65009Y-29951D01*
X65051Y-29909D01*
X65051Y-30011D01*
X65009Y-29969D01*
X64745Y-29969D01*
X64695Y-29969D01*
X64677Y-29969D01*
X64677Y-29951D01*
X64677Y-29889D01*
X64677Y-29637D01*
X64677Y-29575D01*
X64615Y-29575D01*
X64363Y-29575D01*
X64301Y-29575D01*
X64301Y-29637D01*
X64301Y-29889D01*
X64301Y-29951D01*
X64363Y-29951D01*
X64615Y-29951D01*
X64677Y-29951D01*
X64677Y-29969D01*
X64627Y-29969D01*
X64615Y-29969D01*
X64363Y-29969D01*
X64301Y-29969D01*
X64301Y-30283D01*
X64343Y-30325D01*
X64456Y-30325D01*
X64522Y-30325D01*
X64627Y-30325D01*
X64635Y-30325D01*
X64677Y-30325D01*
X64669Y-30329D01*
X64583Y-30415D01*
X64536Y-30528D01*
X64536Y-30650D01*
X64583Y-30763D01*
X64669Y-30849D01*
X64782Y-30896D01*
X64904Y-30896D01*
X65017Y-30849D01*
X65103Y-30763D01*
X65150Y-30650D01*
X65150Y-35848D01*
X64283Y-35802D01*
X64283Y-30283D01*
X64283Y-29969D01*
X64283Y-29951D01*
X64283Y-29889D01*
X64283Y-29637D01*
X64283Y-29575D01*
X64221Y-29575D01*
X63969Y-29575D01*
X63907Y-29575D01*
X63907Y-29637D01*
X63907Y-29889D01*
X63907Y-29951D01*
X63969Y-29951D01*
X64221Y-29951D01*
X64283Y-29951D01*
X64283Y-29969D01*
X64221Y-29969D01*
X63969Y-29969D01*
X63907Y-29969D01*
X63907Y-30283D01*
X63949Y-30325D01*
X64062Y-30325D01*
X64128Y-30325D01*
X64241Y-30325D01*
X64283Y-30283D01*
X64283Y-35802D01*
X63045Y-35738D01*
X63041Y-35728D01*
X62949Y-35636D01*
X62829Y-35586D01*
X62699Y-35586D01*
X62579Y-35636D01*
X62487Y-35728D01*
X62437Y-35848D01*
X62437Y-35978D01*
X62487Y-36098D01*
X62579Y-36190D01*
X62699Y-36240D01*
X62829Y-36240D01*
X62949Y-36190D01*
X63022Y-36116D01*
X66361Y-36291D01*
X66382Y-36288D01*
X66411Y-36288D01*
X66296Y-36333D01*
X66283Y-36342D01*
X66259Y-36416D01*
X66535Y-36692D01*
X66811Y-36416D01*
X66787Y-36342D01*
X66663Y-36288D01*
X66684Y-36288D01*
X66698Y-36288D01*
X66723Y-36283D01*
X66756Y-36279D01*
X66770Y-36274D01*
X67608Y-36001D01*
X67672Y-36065D01*
X67828Y-36130D01*
X67997Y-36130D01*
X68118Y-36080D01*
X68118Y-36321D01*
X68007Y-36273D01*
X67835Y-36270D01*
X67674Y-36333D01*
X67661Y-36342D01*
X67637Y-36416D01*
X67878Y-36657D01*
X67913Y-36692D01*
X67926Y-36705D01*
X67913Y-36718D01*
X67900Y-36731D01*
X67900Y-36705D01*
X67624Y-36429D01*
X67550Y-36453D01*
X67481Y-36611D01*
X67478Y-36783D01*
X67541Y-36944D01*
X67550Y-36957D01*
X67624Y-36981D01*
X67900Y-36705D01*
X67900Y-36731D01*
X67878Y-36753D01*
X67637Y-36994D01*
X67661Y-37068D01*
X67819Y-37137D01*
X67991Y-37140D01*
X68118Y-37090D01*
X68118Y-37330D01*
X67998Y-37280D01*
X67829Y-37280D01*
X67673Y-37344D01*
X67608Y-37408D01*
X66970Y-37200D01*
X66970Y-36627D01*
X66907Y-36466D01*
X66898Y-36453D01*
X66824Y-36429D01*
X66548Y-36705D01*
X66824Y-36981D01*
X66898Y-36957D01*
X66967Y-36799D01*
X66970Y-36627D01*
X66970Y-37200D01*
X66756Y-37131D01*
X66731Y-37127D01*
X66714Y-37123D01*
X66667Y-37118D01*
X66774Y-37077D01*
X66787Y-37068D01*
X66811Y-36994D01*
X66535Y-36718D01*
X66522Y-36731D01*
X66522Y-36705D01*
X66246Y-36429D01*
X66172Y-36453D01*
X66103Y-36611D01*
X66100Y-36783D01*
X66163Y-36944D01*
X66172Y-36957D01*
X66246Y-36981D01*
X66522Y-36705D01*
X66522Y-36731D01*
X66259Y-36994D01*
X66283Y-37068D01*
X66328Y-37087D01*
X65296Y-36994D01*
X63454Y-36535D01*
X63427Y-36469D01*
X63335Y-36377D01*
X63215Y-36327D01*
X63085Y-36327D01*
X62965Y-36377D01*
X62873Y-36469D01*
X62823Y-36589D01*
X62823Y-36719D01*
X62873Y-36839D01*
X62965Y-36931D01*
X63085Y-36981D01*
X63215Y-36981D01*
X63335Y-36931D01*
X63364Y-36901D01*
X65220Y-37365D01*
X65239Y-37366D01*
X65250Y-37369D01*
X66185Y-37454D01*
X66175Y-37464D01*
X66110Y-37620D01*
X66110Y-37789D01*
X66149Y-37885D01*
X64698Y-37733D01*
X64697Y-37733D01*
X64689Y-37731D01*
X60461Y-37472D01*
X60453Y-37472D01*
X60449Y-37472D01*
X60232Y-37472D01*
X61290Y-36753D01*
X61298Y-36750D01*
X61304Y-36746D01*
X61311Y-36738D01*
X61320Y-36734D01*
X61332Y-36725D01*
X61333Y-36723D01*
X61337Y-36717D01*
X61345Y-36713D01*
X61349Y-36708D01*
X61350Y-36708D01*
X61351Y-36705D01*
X61352Y-36704D01*
X61553Y-36504D01*
X61554Y-36504D01*
X61554Y-36503D01*
X61557Y-36499D01*
X61561Y-36496D01*
X61563Y-36495D01*
X61564Y-36495D01*
X61565Y-36493D01*
X61565Y-36491D01*
X61566Y-36491D01*
X61567Y-36489D01*
X61568Y-36488D01*
X61850Y-36198D01*
X61856Y-36192D01*
X61859Y-36191D01*
X61859Y-36190D01*
X61860Y-36189D01*
X61860Y-36187D01*
X61861Y-36187D01*
X61868Y-36183D01*
X61878Y-36166D01*
X61881Y-36163D01*
X61893Y-36152D01*
X61905Y-36133D01*
X61906Y-36128D01*
X61909Y-36126D01*
X61915Y-36117D01*
X61917Y-36108D01*
X61921Y-36105D01*
X61922Y-36101D01*
X61928Y-36091D01*
X63507Y-33004D01*
X63515Y-32997D01*
X63522Y-33000D01*
X63652Y-33000D01*
X63772Y-32950D01*
X63864Y-32858D01*
X63914Y-32738D01*
X63914Y-32608D01*
X63889Y-32548D01*
X63889Y-30283D01*
X63889Y-29969D01*
X63889Y-29951D01*
X63889Y-29889D01*
X63889Y-29637D01*
X63889Y-29575D01*
X63827Y-29575D01*
X63575Y-29575D01*
X63513Y-29575D01*
X63513Y-29637D01*
X63513Y-29889D01*
X63513Y-29951D01*
X63575Y-29951D01*
X63827Y-29951D01*
X63889Y-29951D01*
X63889Y-29969D01*
X63827Y-29969D01*
X63575Y-29969D01*
X63563Y-29969D01*
X63513Y-29969D01*
X63495Y-29969D01*
X63495Y-29951D01*
X63495Y-29889D01*
X63495Y-29637D01*
X63495Y-29575D01*
X63181Y-29575D01*
X63139Y-29617D01*
X63139Y-29729D01*
X63139Y-29730D01*
X63139Y-29796D01*
X63139Y-29797D01*
X63139Y-29909D01*
X63181Y-29951D01*
X63495Y-29951D01*
X63495Y-29969D01*
X63445Y-29969D01*
X63181Y-29969D01*
X63139Y-30011D01*
X63139Y-30124D01*
X63139Y-30191D01*
X63165Y-30252D01*
X63212Y-30300D01*
X63227Y-30306D01*
X63173Y-30329D01*
X63087Y-30415D01*
X63040Y-30528D01*
X63040Y-30650D01*
X63087Y-30763D01*
X63173Y-30849D01*
X63286Y-30896D01*
X63408Y-30896D01*
X63521Y-30849D01*
X63607Y-30763D01*
X63654Y-30650D01*
X63654Y-30528D01*
X63607Y-30415D01*
X63521Y-30329D01*
X63511Y-30325D01*
X63555Y-30325D01*
X63563Y-30325D01*
X63668Y-30325D01*
X63734Y-30325D01*
X63847Y-30325D01*
X63889Y-30283D01*
X63889Y-32548D01*
X63864Y-32488D01*
X63772Y-32396D01*
X63654Y-32346D01*
X63652Y-32346D01*
X63522Y-32346D01*
X63451Y-32375D01*
X63431Y-32327D01*
X63339Y-32235D01*
X63219Y-32185D01*
X63089Y-32185D01*
X62969Y-32235D01*
X62877Y-32327D01*
X62827Y-32447D01*
X62827Y-32577D01*
X62877Y-32697D01*
X62969Y-32789D01*
X63008Y-32805D01*
X61560Y-35634D01*
X61488Y-35562D01*
X61368Y-35512D01*
X61238Y-35512D01*
X61118Y-35562D01*
X61055Y-35624D01*
X60260Y-35554D01*
X60260Y-31456D01*
X60260Y-31277D01*
X60260Y-30456D01*
X60260Y-30277D01*
X60192Y-30112D01*
X60066Y-29986D01*
X59901Y-29917D01*
X59722Y-29917D01*
X59557Y-29985D01*
X59431Y-30111D01*
X59362Y-30276D01*
X59362Y-30455D01*
X59430Y-30620D01*
X59556Y-30746D01*
X59721Y-30815D01*
X59900Y-30815D01*
X60065Y-30747D01*
X60191Y-30621D01*
X60260Y-30456D01*
X60260Y-31277D01*
X60192Y-31112D01*
X60066Y-30986D01*
X59901Y-30917D01*
X59722Y-30917D01*
X59557Y-30985D01*
X59431Y-31111D01*
X59362Y-31276D01*
X59362Y-31455D01*
X59430Y-31620D01*
X59556Y-31746D01*
X59721Y-31815D01*
X59900Y-31815D01*
X60065Y-31747D01*
X60191Y-31621D01*
X60260Y-31456D01*
X60260Y-35554D01*
X58373Y-35391D01*
X58406Y-35313D01*
X58406Y-35183D01*
X58356Y-35063D01*
X58278Y-34985D01*
X58415Y-31584D01*
X58430Y-31620D01*
X58556Y-31746D01*
X58721Y-31815D01*
X58900Y-31815D01*
X59065Y-31747D01*
X59191Y-31621D01*
X59260Y-31456D01*
X59260Y-31277D01*
X59192Y-31112D01*
X59066Y-30986D01*
X58901Y-30917D01*
X58722Y-30917D01*
X58557Y-30985D01*
X58431Y-31111D01*
X58418Y-31142D01*
X58418Y-30590D01*
X58430Y-30620D01*
X58556Y-30746D01*
X58721Y-30815D01*
X58900Y-30815D01*
X59065Y-30747D01*
X59191Y-30621D01*
X59260Y-30456D01*
X59260Y-30277D01*
X59192Y-30112D01*
X59066Y-29986D01*
X58901Y-29917D01*
X58722Y-29917D01*
X58557Y-29985D01*
X58431Y-30111D01*
X58411Y-30158D01*
X58404Y-30121D01*
X58403Y-30120D01*
X58363Y-30059D01*
X58360Y-30057D01*
X58118Y-29814D01*
X58057Y-29773D01*
X57984Y-29758D01*
X57979Y-29759D01*
X45984Y-29759D01*
X45638Y-29759D01*
X45629Y-29760D01*
X45623Y-29760D01*
X45601Y-29766D01*
X45566Y-29773D01*
X45557Y-29778D01*
X45552Y-29780D01*
X45092Y-30012D01*
X45066Y-29986D01*
X44901Y-29917D01*
X44722Y-29917D01*
X44557Y-29985D01*
X44431Y-30111D01*
X44362Y-30276D01*
X44362Y-30455D01*
X44430Y-30620D01*
X44556Y-30746D01*
X44591Y-30760D01*
X44557Y-30777D01*
X44556Y-30777D01*
X44554Y-30778D01*
X44260Y-30923D01*
X44260Y-30456D01*
X44260Y-30277D01*
X44192Y-30112D01*
X44066Y-29986D01*
X43901Y-29917D01*
X43722Y-29917D01*
X43557Y-29985D01*
X43431Y-30111D01*
X43362Y-30276D01*
X43362Y-30455D01*
X43430Y-30620D01*
X43556Y-30746D01*
X43721Y-30815D01*
X43900Y-30815D01*
X44065Y-30747D01*
X44191Y-30621D01*
X44260Y-30456D01*
X44260Y-30923D01*
X44206Y-30950D01*
X44195Y-30939D01*
X44140Y-30917D01*
X44081Y-30917D01*
X43481Y-30917D01*
X43426Y-30940D01*
X43384Y-30982D01*
X43362Y-31037D01*
X43362Y-31096D01*
X43362Y-31696D01*
X43385Y-31751D01*
X43427Y-31793D01*
X43482Y-31815D01*
X43541Y-31815D01*
X44141Y-31815D01*
X44196Y-31792D01*
X44238Y-31750D01*
X44260Y-31695D01*
X44260Y-31636D01*
X44260Y-31345D01*
X44362Y-31294D01*
X44362Y-31455D01*
X44430Y-31620D01*
X44556Y-31746D01*
X44721Y-31815D01*
X44900Y-31815D01*
X45065Y-31747D01*
X45191Y-31621D01*
X45260Y-31456D01*
X45260Y-31277D01*
X45192Y-31112D01*
X45066Y-30986D01*
X45030Y-30971D01*
X45064Y-30955D01*
X45065Y-30954D01*
X45069Y-30953D01*
X45529Y-30719D01*
X45556Y-30746D01*
X45721Y-30815D01*
X45900Y-30815D01*
X46065Y-30747D01*
X46191Y-30621D01*
X46260Y-30456D01*
X46260Y-30277D01*
X46202Y-30137D01*
X46420Y-30137D01*
X46362Y-30276D01*
X46362Y-30455D01*
X46430Y-30620D01*
X46556Y-30746D01*
X46721Y-30815D01*
X46900Y-30815D01*
X47065Y-30747D01*
X47191Y-30621D01*
X47260Y-30456D01*
X47260Y-30277D01*
X47202Y-30137D01*
X47411Y-30137D01*
X47354Y-30266D01*
X47350Y-30448D01*
X47416Y-30618D01*
X47428Y-30633D01*
X47504Y-30660D01*
X47763Y-30401D01*
X47798Y-30366D01*
X47811Y-30353D01*
X47824Y-30366D01*
X47859Y-30401D01*
X48118Y-30660D01*
X48194Y-30633D01*
X48268Y-30466D01*
X48272Y-30284D01*
X48214Y-30137D01*
X48420Y-30137D01*
X48362Y-30276D01*
X48362Y-30455D01*
X48430Y-30620D01*
X48556Y-30746D01*
X48721Y-30815D01*
X48900Y-30815D01*
X49065Y-30747D01*
X49191Y-30621D01*
X49260Y-30456D01*
X49260Y-30277D01*
X49202Y-30137D01*
X49420Y-30137D01*
X49362Y-30276D01*
X49362Y-30455D01*
X49430Y-30620D01*
X49448Y-30638D01*
X49356Y-30638D01*
X49236Y-30688D01*
X49144Y-30780D01*
X49094Y-30900D01*
X49094Y-30953D01*
X49052Y-30980D01*
X48901Y-30917D01*
X48722Y-30917D01*
X48557Y-30985D01*
X48431Y-31111D01*
X48362Y-31276D01*
X48362Y-31432D01*
X48260Y-31380D01*
X48260Y-31277D01*
X48192Y-31112D01*
X48105Y-31025D01*
X48105Y-30673D01*
X47811Y-30379D01*
X47517Y-30673D01*
X47544Y-30749D01*
X47711Y-30823D01*
X47893Y-30827D01*
X48063Y-30761D01*
X48078Y-30749D01*
X48105Y-30673D01*
X48105Y-31025D01*
X48066Y-30986D01*
X47901Y-30917D01*
X47722Y-30917D01*
X47557Y-30985D01*
X47431Y-31111D01*
X47362Y-31276D01*
X47362Y-31455D01*
X47430Y-31620D01*
X47556Y-31746D01*
X47721Y-31815D01*
X47900Y-31815D01*
X48065Y-31747D01*
X48092Y-31719D01*
X48552Y-31952D01*
X48571Y-31957D01*
X48595Y-31968D01*
X49079Y-32080D01*
X49362Y-32362D01*
X49377Y-32372D01*
X49401Y-32393D01*
X51386Y-33539D01*
X50601Y-33377D01*
X50590Y-33376D01*
X48057Y-32902D01*
X48037Y-32854D01*
X47945Y-32762D01*
X47825Y-32712D01*
X47695Y-32712D01*
X47575Y-32762D01*
X47483Y-32854D01*
X47433Y-32974D01*
X47433Y-33058D01*
X47323Y-33018D01*
X47281Y-32917D01*
X47260Y-32896D01*
X47260Y-31456D01*
X47260Y-31277D01*
X47192Y-31112D01*
X47066Y-30986D01*
X46901Y-30917D01*
X46722Y-30917D01*
X46557Y-30985D01*
X46431Y-31111D01*
X46362Y-31276D01*
X46362Y-31455D01*
X46430Y-31620D01*
X46556Y-31746D01*
X46721Y-31815D01*
X46900Y-31815D01*
X47065Y-31747D01*
X47191Y-31621D01*
X47260Y-31456D01*
X47260Y-32896D01*
X47189Y-32825D01*
X47069Y-32775D01*
X46939Y-32775D01*
X46819Y-32825D01*
X46727Y-32917D01*
X46677Y-33037D01*
X46677Y-33132D01*
X46447Y-33057D01*
X46411Y-32969D01*
X46319Y-32877D01*
X46272Y-32857D01*
X46272Y-31284D01*
X46206Y-31114D01*
X46194Y-31099D01*
X46118Y-31072D01*
X46105Y-31085D01*
X46105Y-31059D01*
X46078Y-30983D01*
X45911Y-30909D01*
X45729Y-30905D01*
X45559Y-30971D01*
X45544Y-30983D01*
X45517Y-31059D01*
X45811Y-31353D01*
X46105Y-31059D01*
X46105Y-31085D01*
X45824Y-31366D01*
X46118Y-31660D01*
X46194Y-31633D01*
X46268Y-31466D01*
X46272Y-31284D01*
X46272Y-32857D01*
X46199Y-32827D01*
X46105Y-32827D01*
X46105Y-31673D01*
X45811Y-31379D01*
X45798Y-31392D01*
X45798Y-31366D01*
X45504Y-31072D01*
X45428Y-31099D01*
X45354Y-31266D01*
X45350Y-31448D01*
X45416Y-31618D01*
X45428Y-31633D01*
X45504Y-31660D01*
X45798Y-31366D01*
X45798Y-31392D01*
X45517Y-31673D01*
X45544Y-31749D01*
X45711Y-31823D01*
X45893Y-31827D01*
X46063Y-31761D01*
X46078Y-31749D01*
X46105Y-31673D01*
X46105Y-32827D01*
X46069Y-32827D01*
X45949Y-32877D01*
X45857Y-32969D01*
X45807Y-33089D01*
X45807Y-33162D01*
X45721Y-33127D01*
X45675Y-33016D01*
X45583Y-32924D01*
X45463Y-32874D01*
X45333Y-32874D01*
X45213Y-32924D01*
X45121Y-33016D01*
X45071Y-33136D01*
X45071Y-33266D01*
X45121Y-33386D01*
X45213Y-33478D01*
X45333Y-33528D01*
X45463Y-33528D01*
X45581Y-33478D01*
X45940Y-33624D01*
X45963Y-33628D01*
X45986Y-33636D01*
X49001Y-34038D01*
X48953Y-34155D01*
X48953Y-34285D01*
X49003Y-34405D01*
X49095Y-34497D01*
X49215Y-34547D01*
X49345Y-34547D01*
X49358Y-34541D01*
X53097Y-37825D01*
X53071Y-37837D01*
X52979Y-37929D01*
X52929Y-38049D01*
X52929Y-38179D01*
X52965Y-38265D01*
X52945Y-38274D01*
X52853Y-38366D01*
X52803Y-38486D01*
X52803Y-38616D01*
X52830Y-38682D01*
X52772Y-38707D01*
X52680Y-38799D01*
X52630Y-38919D01*
X52630Y-39049D01*
X52680Y-39169D01*
X52683Y-39172D01*
X52554Y-39517D01*
X52512Y-39475D01*
X52392Y-39425D01*
X52262Y-39425D01*
X52142Y-39475D01*
X52076Y-39540D01*
X51771Y-39513D01*
X51856Y-39429D01*
X51906Y-39309D01*
X51906Y-39179D01*
X51856Y-39059D01*
X51764Y-38967D01*
X51644Y-38917D01*
X51514Y-38917D01*
X51394Y-38967D01*
X51316Y-39044D01*
X51182Y-39072D01*
X51159Y-39081D01*
X51136Y-39086D01*
X51113Y-39100D01*
X51092Y-39110D01*
X51076Y-39125D01*
X51055Y-39140D01*
X50848Y-39346D01*
X50822Y-39384D01*
X50801Y-39412D01*
X50798Y-39419D01*
X50794Y-39427D01*
X50786Y-39464D01*
X50776Y-39505D01*
X50749Y-39898D01*
X49016Y-40333D01*
X48935Y-40299D01*
X48805Y-40299D01*
X48685Y-40349D01*
X48624Y-40409D01*
X47298Y-37641D01*
X47339Y-37545D01*
X47339Y-37415D01*
X47289Y-37295D01*
X47197Y-37203D01*
X47077Y-37153D01*
X46947Y-37153D01*
X46827Y-37203D01*
X46735Y-37295D01*
X46685Y-37415D01*
X46685Y-37545D01*
X46735Y-37665D01*
X46827Y-37757D01*
X46947Y-37807D01*
X46959Y-37807D01*
X48397Y-40807D01*
X48400Y-40821D01*
X48441Y-40882D01*
X48612Y-41052D01*
X48614Y-41055D01*
X48675Y-41095D01*
X48676Y-41096D01*
X48748Y-41110D01*
X48992Y-41110D01*
X49016Y-41105D01*
X49039Y-41104D01*
X50196Y-40807D01*
X50347Y-40807D01*
X52567Y-42702D01*
X49652Y-42029D01*
X49644Y-42028D01*
X47114Y-41499D01*
X49696Y-41612D01*
X49699Y-41618D01*
X49791Y-41710D01*
X49911Y-41760D01*
X50041Y-41760D01*
X50161Y-41710D01*
X50253Y-41618D01*
X50303Y-41498D01*
X50303Y-41368D01*
X50253Y-41248D01*
X50161Y-41156D01*
X50041Y-41106D01*
X49911Y-41106D01*
X49791Y-41156D01*
X49712Y-41234D01*
X47048Y-41117D01*
X47045Y-41110D01*
X46953Y-41018D01*
X46833Y-40968D01*
X46703Y-40968D01*
X46583Y-41018D01*
X46552Y-41048D01*
X45180Y-36506D01*
X45209Y-36439D01*
X45209Y-36309D01*
X45159Y-36189D01*
X45067Y-36097D01*
X44947Y-36047D01*
X44817Y-36047D01*
X44697Y-36097D01*
X44605Y-36189D01*
X44555Y-36309D01*
X44555Y-36439D01*
X44605Y-36559D01*
X44697Y-36651D01*
X44708Y-36655D01*
X46175Y-41514D01*
X46182Y-41527D01*
X46184Y-41537D01*
X46198Y-41558D01*
X46220Y-41599D01*
X46232Y-41609D01*
X46238Y-41617D01*
X46446Y-41825D01*
X46463Y-41836D01*
X46481Y-41855D01*
X46506Y-41865D01*
X46526Y-41879D01*
X46546Y-41882D01*
X46570Y-41893D01*
X49539Y-42512D01*
X49540Y-42513D01*
X49545Y-42514D01*
X54065Y-43557D01*
X54068Y-43557D01*
X54105Y-43567D01*
X57762Y-43797D01*
X57777Y-43794D01*
X57778Y-43795D01*
X58072Y-43795D01*
X58073Y-43794D01*
X58075Y-43795D01*
X60315Y-43764D01*
X60318Y-43763D01*
X60324Y-43764D01*
X61305Y-43717D01*
X63226Y-43623D01*
X63290Y-43606D01*
X63309Y-43603D01*
X63311Y-43601D01*
X63320Y-43599D01*
X63363Y-43566D01*
X63389Y-43549D01*
X63397Y-43541D01*
X63572Y-43366D01*
X63593Y-43366D01*
X63713Y-43316D01*
X63805Y-43224D01*
X63855Y-43104D01*
X63855Y-42974D01*
X63805Y-42854D01*
X63713Y-42762D01*
X63593Y-42712D01*
X63463Y-42712D01*
X63343Y-42762D01*
X63251Y-42854D01*
X63201Y-42974D01*
X63201Y-43036D01*
X63105Y-43131D01*
X61281Y-43221D01*
X61276Y-43222D01*
X60300Y-43268D01*
X60299Y-43268D01*
X58069Y-43299D01*
X57778Y-43299D01*
X57770Y-43300D01*
X54566Y-43098D01*
X54595Y-43030D01*
X54595Y-42900D01*
X54545Y-42780D01*
X54453Y-42688D01*
X54333Y-42638D01*
X54203Y-42638D01*
X54083Y-42688D01*
X54036Y-42734D01*
X53353Y-42621D01*
X52794Y-42399D01*
X50552Y-40484D01*
X50541Y-40474D01*
X50526Y-40465D01*
X50922Y-40366D01*
X53193Y-42278D01*
X53193Y-42297D01*
X53243Y-42417D01*
X53335Y-42509D01*
X53455Y-42559D01*
X53585Y-42559D01*
X53705Y-42509D01*
X53712Y-42501D01*
X54439Y-42576D01*
X54930Y-42756D01*
X54931Y-42757D01*
X54932Y-42757D01*
X54940Y-42760D01*
X54967Y-42764D01*
X55026Y-42776D01*
X55320Y-42776D01*
X55320Y-42775D01*
X55322Y-42776D01*
X60505Y-42730D01*
X60532Y-42757D01*
X60652Y-42807D01*
X60782Y-42807D01*
X60902Y-42757D01*
X60994Y-42665D01*
X61044Y-42545D01*
X61044Y-42415D01*
X60994Y-42295D01*
X60902Y-42203D01*
X60782Y-42153D01*
X60652Y-42153D01*
X60532Y-42203D01*
X60500Y-42234D01*
X55555Y-42277D01*
X57953Y-41720D01*
X57960Y-41720D01*
X63689Y-40366D01*
X63717Y-40353D01*
X63723Y-40350D01*
X63755Y-40336D01*
X63918Y-40270D01*
X63919Y-40269D01*
X63920Y-40269D01*
X64189Y-40156D01*
X64189Y-40226D01*
X64239Y-40346D01*
X64331Y-40438D01*
X64451Y-40488D01*
X64581Y-40488D01*
X64701Y-40438D01*
X64770Y-40368D01*
X65582Y-40226D01*
X65691Y-40272D01*
X65821Y-40272D01*
X65941Y-40222D01*
X66033Y-40130D01*
X66083Y-40010D01*
X66083Y-39880D01*
X66033Y-39760D01*
X65970Y-39697D01*
X66020Y-39577D01*
X66020Y-39447D01*
X65970Y-39327D01*
X65956Y-39313D01*
X66005Y-39264D01*
X66033Y-39195D01*
X66076Y-39233D01*
X66085Y-39241D01*
X66112Y-39257D01*
X66138Y-39274D01*
X66142Y-39274D01*
X66148Y-39278D01*
X66183Y-39282D01*
X66210Y-39288D01*
X66221Y-39288D01*
X66761Y-39288D01*
X66860Y-39288D01*
X67681Y-39288D01*
X67686Y-39289D01*
X67686Y-39288D01*
X67758Y-39274D01*
X67759Y-39274D01*
X67820Y-39233D01*
X67887Y-39164D01*
X67889Y-39163D01*
X67890Y-39163D01*
X67912Y-39129D01*
X68218Y-39129D01*
X68273Y-39106D01*
X68315Y-39064D01*
X68337Y-39009D01*
X68337Y-38950D01*
X68337Y-38400D01*
X68314Y-38345D01*
X68272Y-38303D01*
X68217Y-38281D01*
X68158Y-38281D01*
X68114Y-38281D01*
X68148Y-38274D01*
X68149Y-38274D01*
X68210Y-38233D01*
X68360Y-38082D01*
X68360Y-44283D01*
M02*
