G04 (created by PCBNEW-RS274X (2012-01-19 BZR 3256)-stable) date 16/02/2013 19:01:43*
G01*
G70*
G90*
%MOIN*%
G04 Gerber Fmt 3.4, Leading zero omitted, Abs format*
%FSLAX34Y34*%
G04 APERTURE LIST*
%ADD10C,0.006000*%
%ADD11R,0.098400X0.082600*%
%ADD12O,0.023500X0.062900*%
%ADD13O,0.023500X0.086500*%
%ADD14R,0.047200X0.047200*%
%ADD15R,0.027800X0.037800*%
%ADD16R,0.043800X0.043800*%
%ADD17R,0.062900X0.062900*%
%ADD18C,0.062900*%
%ADD19R,0.062800X0.062800*%
%ADD20C,0.062800*%
%ADD21R,0.035400X0.043200*%
%ADD22O,0.035400X0.043200*%
%ADD23R,0.032800X0.052800*%
%ADD24R,0.052800X0.032800*%
%ADD25R,0.019600X0.055000*%
%ADD26O,0.019600X0.055000*%
%ADD27O,0.055000X0.019600*%
%ADD28R,0.086500X0.204700*%
%ADD29R,0.055000X0.019600*%
%ADD30C,0.244000*%
%ADD31R,0.055000X0.082600*%
%ADD32R,0.094400X0.094400*%
%ADD33C,0.067800*%
%ADD34R,0.067800X0.067800*%
%ADD35R,0.062800X0.042800*%
%ADD36R,0.042800X0.062800*%
%ADD37C,0.073800*%
G04 APERTURE END LIST*
G54D10*
G54D11*
X65571Y-29743D03*
X62619Y-29743D03*
G54D12*
X64607Y-31023D03*
G54D13*
X64351Y-30907D03*
X64095Y-30907D03*
X63839Y-30907D03*
G54D12*
X63583Y-31023D03*
G54D14*
X64292Y-29566D03*
X64686Y-29960D03*
X63504Y-29960D03*
X64292Y-29960D03*
X64686Y-29566D03*
X63898Y-29566D03*
X63898Y-29960D03*
X63504Y-29566D03*
G54D15*
X62961Y-34702D03*
X63711Y-34702D03*
X62961Y-33702D03*
X63336Y-34702D03*
X63711Y-33702D03*
G54D16*
X45319Y-36450D03*
X46019Y-36450D03*
X45669Y-37250D03*
G54D17*
X66535Y-38705D03*
G54D18*
X66535Y-37705D03*
X66535Y-36705D03*
X66535Y-35705D03*
G54D17*
X67913Y-38705D03*
G54D18*
X67913Y-37705D03*
X67913Y-36705D03*
X67913Y-35705D03*
G54D19*
X67913Y-34161D03*
G54D20*
X67913Y-33161D03*
G54D21*
X64350Y-43327D03*
G54D22*
X63838Y-43327D03*
X63838Y-44075D03*
X64350Y-44075D03*
G54D23*
X45054Y-38346D03*
X45654Y-38346D03*
G54D24*
X47410Y-33558D03*
X47410Y-34158D03*
X60472Y-34158D03*
X60472Y-33558D03*
X59763Y-34158D03*
X59763Y-33558D03*
X45039Y-33558D03*
X45039Y-34158D03*
X45827Y-33558D03*
X45827Y-34158D03*
X58268Y-34158D03*
X58268Y-33558D03*
X48268Y-33558D03*
X48268Y-34158D03*
G54D23*
X45054Y-39055D03*
X45654Y-39055D03*
X45054Y-39764D03*
X45654Y-39764D03*
X45054Y-40472D03*
X45654Y-40472D03*
G54D24*
X60524Y-41283D03*
X60524Y-40683D03*
X59055Y-34158D03*
X59055Y-33558D03*
X56614Y-33558D03*
X56614Y-34158D03*
X65277Y-38427D03*
X65277Y-37827D03*
X62066Y-33764D03*
X62066Y-34364D03*
X65274Y-40408D03*
X65274Y-39808D03*
X46772Y-37072D03*
X46772Y-36472D03*
G54D23*
X52573Y-39110D03*
X51973Y-39110D03*
X52590Y-38171D03*
X51990Y-38171D03*
G54D24*
X57480Y-33558D03*
X57480Y-34158D03*
X46626Y-33558D03*
X46626Y-34158D03*
X54803Y-33558D03*
X54803Y-34158D03*
X53780Y-33558D03*
X53780Y-34158D03*
X51811Y-33558D03*
X51811Y-34158D03*
X50787Y-33558D03*
X50787Y-34158D03*
X49764Y-33558D03*
X49764Y-34158D03*
G54D25*
X49189Y-40703D03*
G54D26*
X49386Y-40703D03*
X49583Y-40703D03*
X49780Y-40703D03*
X49977Y-40703D03*
G54D27*
X50174Y-40309D03*
X50174Y-40112D03*
X50174Y-39915D03*
G54D26*
X49977Y-39521D03*
X49780Y-39521D03*
X49583Y-39521D03*
X49386Y-39521D03*
X49189Y-39521D03*
G54D27*
X48992Y-39915D03*
X48992Y-40112D03*
X48992Y-40309D03*
G54D28*
X42322Y-35532D03*
X43504Y-35532D03*
G54D29*
X58894Y-41910D03*
G54D27*
X58894Y-41714D03*
X58894Y-41517D03*
X58894Y-41320D03*
X58894Y-41123D03*
X58894Y-40926D03*
X58894Y-40729D03*
X58894Y-40532D03*
X58895Y-40337D03*
X58895Y-40140D03*
X58895Y-39943D03*
X58896Y-39746D03*
X58895Y-39548D03*
X58895Y-39351D03*
X58895Y-39154D03*
X58895Y-38958D03*
G54D26*
X58107Y-38171D03*
X57910Y-38171D03*
X57713Y-38171D03*
X57517Y-38171D03*
X57320Y-38171D03*
X57123Y-38171D03*
X56927Y-38171D03*
X56730Y-38171D03*
G54D27*
X54366Y-38958D03*
X54366Y-39155D03*
X54366Y-39352D03*
X54366Y-39549D03*
G54D26*
X56533Y-38170D03*
X56336Y-38170D03*
X56139Y-38170D03*
X55942Y-38170D03*
X55745Y-38170D03*
X55548Y-38170D03*
X55351Y-38170D03*
X55155Y-38170D03*
G54D27*
X54367Y-39745D03*
X54367Y-39942D03*
X54367Y-40139D03*
X54367Y-40336D03*
X54367Y-40532D03*
X54367Y-40729D03*
X54367Y-40926D03*
X54367Y-41123D03*
X54367Y-41320D03*
X54367Y-41517D03*
X54367Y-41714D03*
X54367Y-41910D03*
G54D26*
X55155Y-42698D03*
X55351Y-42698D03*
X55548Y-42698D03*
X55745Y-42698D03*
X55942Y-42698D03*
X56139Y-42698D03*
X56336Y-42698D03*
X56533Y-42698D03*
X56729Y-42698D03*
X56926Y-42698D03*
X57123Y-42698D03*
X57320Y-42698D03*
X57517Y-42698D03*
X57714Y-42698D03*
X57911Y-42698D03*
X58107Y-42698D03*
G54D30*
X67244Y-30394D03*
X40394Y-30394D03*
X40394Y-45039D03*
X67244Y-45039D03*
G54D31*
X63640Y-41237D03*
X63640Y-39781D03*
X62774Y-39781D03*
X62774Y-41237D03*
G54D32*
X42677Y-44488D03*
X42677Y-43307D03*
X42677Y-42126D03*
X45196Y-42716D03*
X45196Y-43898D03*
G54D33*
X57811Y-30366D03*
X59811Y-31366D03*
X59811Y-30366D03*
X58811Y-30366D03*
X58811Y-31366D03*
X50811Y-30366D03*
X52811Y-30366D03*
X51811Y-31366D03*
X56811Y-31366D03*
X53811Y-31366D03*
X52811Y-31366D03*
X57811Y-31366D03*
X56811Y-30366D03*
X54811Y-31366D03*
X49811Y-31366D03*
X51811Y-30366D03*
X53811Y-30366D03*
X55811Y-30366D03*
X55811Y-31366D03*
X54811Y-30366D03*
X48811Y-30366D03*
X49811Y-30366D03*
X50811Y-31366D03*
X48811Y-31366D03*
X47811Y-31366D03*
X47811Y-30366D03*
G54D34*
X43811Y-31366D03*
G54D33*
X43811Y-30366D03*
X44811Y-31366D03*
X44811Y-30366D03*
X45811Y-31366D03*
X45811Y-30366D03*
X46811Y-31366D03*
X46811Y-30366D03*
G54D35*
X64618Y-33728D03*
X64618Y-34478D03*
G54D36*
X63715Y-35954D03*
X64465Y-35954D03*
X45058Y-35276D03*
X45808Y-35276D03*
G54D35*
X47638Y-39509D03*
X47638Y-38759D03*
X58653Y-44077D03*
X58653Y-44827D03*
G54D23*
X58348Y-36846D03*
X58948Y-36846D03*
X62691Y-42291D03*
X62091Y-42291D03*
G54D24*
X61575Y-40221D03*
X61575Y-39621D03*
G54D23*
X54237Y-37279D03*
X53637Y-37279D03*
G54D24*
X53685Y-42887D03*
X53685Y-43487D03*
X59743Y-44025D03*
X59743Y-44625D03*
G54D23*
X53212Y-41722D03*
X52612Y-41722D03*
G54D24*
X55433Y-35814D03*
X55433Y-35214D03*
X62992Y-44001D03*
X62992Y-43401D03*
X60484Y-39085D03*
X60484Y-39685D03*
X60303Y-42180D03*
X60303Y-42780D03*
X48968Y-42003D03*
X48968Y-42603D03*
X50079Y-41983D03*
X50079Y-42583D03*
X65197Y-43322D03*
X65197Y-43922D03*
G54D23*
X45054Y-41181D03*
X45654Y-41181D03*
G54D19*
X67108Y-40486D03*
G54D20*
X67108Y-41486D03*
X67108Y-42486D03*
G54D17*
X40551Y-36217D03*
G54D18*
X40551Y-37217D03*
X40551Y-38217D03*
X40551Y-39217D03*
G54D37*
X39606Y-33020D03*
X39606Y-32020D03*
X39606Y-35618D03*
X39606Y-34618D03*
X39606Y-38217D03*
X39606Y-37217D03*
X39606Y-40815D03*
X39606Y-39815D03*
X39606Y-43413D03*
X39606Y-42413D03*
M02*
