G04 (created by PCBNEW (2013-07-07 BZR 4022)-stable) date 24/01/2015 20:57:02*
%MOIN*%
G04 Gerber Fmt 3.4, Leading zero omitted, Abs format*
%FSLAX34Y34*%
G01*
G70*
G90*
G04 APERTURE LIST*
%ADD10C,0.00590551*%
%ADD11C,0.0394*%
%ADD12R,0.04X0.035*%
%ADD13C,0.0118*%
%ADD14R,0.0433071X0.0629921*%
%ADD15R,0.055X0.045*%
%ADD16R,0.0590551X0.0590551*%
%ADD17C,0.0590551*%
%ADD18R,0.045X0.055*%
%ADD19R,0.035X0.04*%
%ADD20C,0.0354331*%
%ADD21C,0.019685*%
%ADD22C,0.00787402*%
%ADD23C,0.01*%
G04 APERTURE END LIST*
G54D10*
G54D11*
X68818Y-46062D03*
G54D12*
X73070Y-52425D03*
X73070Y-51825D03*
X62519Y-49906D03*
X62519Y-49306D03*
X63779Y-49906D03*
X63779Y-49306D03*
X63149Y-49906D03*
X63149Y-49306D03*
X67519Y-47140D03*
X67519Y-47740D03*
X65944Y-47140D03*
X65944Y-47740D03*
X66732Y-47140D03*
X66732Y-47740D03*
X71811Y-52425D03*
X71811Y-51825D03*
X60039Y-48125D03*
X60039Y-48725D03*
X72440Y-52425D03*
X72440Y-51825D03*
G54D10*
G36*
X69846Y-45563D02*
X69930Y-45480D01*
X70263Y-45814D01*
X70180Y-45897D01*
X69846Y-45563D01*
X69846Y-45563D01*
G37*
G54D13*
X69791Y-45702D02*
X70041Y-45952D01*
X69652Y-45841D02*
X69902Y-46092D01*
X69512Y-45981D02*
X69763Y-46231D01*
X69373Y-46120D02*
X69623Y-46370D01*
X69234Y-46259D02*
X69484Y-46509D01*
X69094Y-46398D02*
X69345Y-46649D01*
X68955Y-46538D02*
X69206Y-46788D01*
X68817Y-46676D02*
X69067Y-46927D01*
X68677Y-46816D02*
X68928Y-47066D01*
X68538Y-46955D02*
X68788Y-47205D01*
X68398Y-47094D02*
X68648Y-47344D01*
X68399Y-48181D02*
X68650Y-47931D01*
X68538Y-48320D02*
X68788Y-48069D01*
X68677Y-48459D02*
X68928Y-48209D01*
X68817Y-48598D02*
X69067Y-48348D01*
X68956Y-48738D02*
X69206Y-48487D01*
X69095Y-48877D02*
X69346Y-48627D01*
X69235Y-49016D02*
X69485Y-48766D01*
X69373Y-49155D02*
X69623Y-48904D01*
X69512Y-49294D02*
X69763Y-49044D01*
X69652Y-49433D02*
X69902Y-49183D01*
X69790Y-49572D02*
X70041Y-49322D01*
X69930Y-49711D02*
X70180Y-49461D01*
X70765Y-49462D02*
X71015Y-49712D01*
X70904Y-49322D02*
X71154Y-49573D01*
X71043Y-49183D02*
X71294Y-49433D01*
X71183Y-49044D02*
X71433Y-49294D01*
X71322Y-48904D02*
X71572Y-49155D01*
X71461Y-48765D02*
X71711Y-49015D01*
X71600Y-48626D02*
X71851Y-48876D01*
X71739Y-48487D02*
X71989Y-48738D01*
X71878Y-48348D02*
X72129Y-48598D01*
X72018Y-48209D02*
X72268Y-48459D01*
X72157Y-48069D02*
X72407Y-48320D01*
X72296Y-47930D02*
X72547Y-48180D01*
X72296Y-47345D02*
X72546Y-47095D01*
X72156Y-47206D02*
X72407Y-46956D01*
X72017Y-47067D02*
X72267Y-46816D01*
X71878Y-46927D02*
X72128Y-46677D01*
X71738Y-46788D02*
X71989Y-46538D01*
X71599Y-46649D02*
X71849Y-46398D01*
X71460Y-46510D02*
X71711Y-46260D01*
X71321Y-46371D02*
X71571Y-46121D01*
X71182Y-46232D02*
X71432Y-45981D01*
X71043Y-46092D02*
X71293Y-45842D01*
X70903Y-45953D02*
X71154Y-45703D01*
X70764Y-45814D02*
X71014Y-45563D01*
G54D14*
X73858Y-55708D03*
X73228Y-55708D03*
X72598Y-55708D03*
X73858Y-53740D03*
X73228Y-53740D03*
X72598Y-53740D03*
X66102Y-44291D03*
X66732Y-44291D03*
X67362Y-44291D03*
X66102Y-46259D03*
X66732Y-46259D03*
X67362Y-46259D03*
X60866Y-55708D03*
X60236Y-55708D03*
X59606Y-55708D03*
X60866Y-53740D03*
X60236Y-53740D03*
X59606Y-53740D03*
G54D15*
X73228Y-54383D03*
X73228Y-55183D03*
X66732Y-45616D03*
X66732Y-44816D03*
X60236Y-54383D03*
X60236Y-55183D03*
G54D16*
X74015Y-45940D03*
G54D17*
X74015Y-46940D03*
X74015Y-47940D03*
X74015Y-48940D03*
G54D16*
X74015Y-50181D03*
G54D17*
X74015Y-51181D03*
X74015Y-52181D03*
G54D16*
X66232Y-50000D03*
G54D17*
X67232Y-50000D03*
G54D16*
X59291Y-50393D03*
X59291Y-51968D03*
G54D18*
X66332Y-49015D03*
X67132Y-49015D03*
G54D19*
X70959Y-44881D03*
X71559Y-44881D03*
G54D12*
X68976Y-45260D03*
X68976Y-44660D03*
X73070Y-48203D03*
X73070Y-48803D03*
X68346Y-45733D03*
X68346Y-45133D03*
G54D19*
X70142Y-50393D03*
X69542Y-50393D03*
G54D20*
X59840Y-50207D03*
X72878Y-47489D03*
X70234Y-45422D03*
X70383Y-49906D03*
X66702Y-48524D03*
X62929Y-48830D03*
X67975Y-47790D03*
X71794Y-50308D03*
X70375Y-49018D03*
X71314Y-50324D03*
X70100Y-48601D03*
X63405Y-48871D03*
X67318Y-48204D03*
X69798Y-50849D03*
X60729Y-56282D03*
X62024Y-50135D03*
X68474Y-44700D03*
X69440Y-47007D03*
X67618Y-48846D03*
X60000Y-47322D03*
X61811Y-47322D03*
X63622Y-47322D03*
X59921Y-45590D03*
X61811Y-45511D03*
X63622Y-45511D03*
X64645Y-44330D03*
X66582Y-43718D03*
X68818Y-43700D03*
X70000Y-44488D03*
X72598Y-45748D03*
X70051Y-47263D03*
X64962Y-49646D03*
X63779Y-50787D03*
X59291Y-53070D03*
X60078Y-51496D03*
X61259Y-50708D03*
X70708Y-51102D03*
X70866Y-51732D03*
X71889Y-53385D03*
X72440Y-54724D03*
X73345Y-56280D03*
X72783Y-50573D03*
X64881Y-46535D03*
X68582Y-49763D03*
X59492Y-51417D03*
X60495Y-48802D03*
X68050Y-46876D03*
G54D21*
X68976Y-45337D02*
X68976Y-45260D01*
X68976Y-45435D02*
X68976Y-45337D01*
X68976Y-45518D02*
X68976Y-45435D01*
X68859Y-45635D02*
X68976Y-45518D01*
X68664Y-45690D02*
X68859Y-45635D01*
X68618Y-45733D02*
X68664Y-45690D01*
X68546Y-45733D02*
X68618Y-45733D01*
X68448Y-45733D02*
X68546Y-45733D01*
X68346Y-45733D02*
X68448Y-45733D01*
X72969Y-48203D02*
X73070Y-48203D01*
X72870Y-48203D02*
X72969Y-48203D01*
X72798Y-48203D02*
X72870Y-48203D01*
X72696Y-48301D02*
X72798Y-48203D01*
X73070Y-47946D02*
X72878Y-47489D01*
X73070Y-48028D02*
X73070Y-47946D01*
X73070Y-48127D02*
X73070Y-48028D01*
X73070Y-48203D02*
X73070Y-48127D01*
G54D22*
X69930Y-49711D02*
X70055Y-49586D01*
X70048Y-50044D02*
X69930Y-49711D01*
X70125Y-50128D02*
X70048Y-50044D01*
X70142Y-50193D02*
X70125Y-50128D01*
X70142Y-50233D02*
X70142Y-50193D01*
X70142Y-50393D02*
X70142Y-50233D01*
G54D21*
X59676Y-50315D02*
X59840Y-50207D01*
X59586Y-50315D02*
X59676Y-50315D01*
X59488Y-50315D02*
X59586Y-50315D01*
X59291Y-50393D02*
X59488Y-50315D01*
G54D22*
X72547Y-48180D02*
X72696Y-48301D01*
X72421Y-48055D02*
X72547Y-48180D01*
G54D21*
X69248Y-45260D02*
X69814Y-45345D01*
X69176Y-45260D02*
X69248Y-45260D01*
X69077Y-45260D02*
X69176Y-45260D01*
X68976Y-45260D02*
X69077Y-45260D01*
X70517Y-50110D02*
X70383Y-49906D01*
X70517Y-50276D02*
X70517Y-50110D01*
X70400Y-50393D02*
X70517Y-50276D01*
X70317Y-50393D02*
X70400Y-50393D01*
X70219Y-50393D02*
X70317Y-50393D01*
X70142Y-50393D02*
X70219Y-50393D01*
X66323Y-49192D02*
X66332Y-49015D01*
X66323Y-49290D02*
X66323Y-49192D01*
X66323Y-49380D02*
X66323Y-49290D01*
X66310Y-49615D02*
X66323Y-49380D01*
X66310Y-49704D02*
X66310Y-49615D01*
X66310Y-49803D02*
X66310Y-49704D01*
X66232Y-50000D02*
X66310Y-49803D01*
X70883Y-44881D02*
X70959Y-44881D01*
X70784Y-44881D02*
X70883Y-44881D01*
X70702Y-44881D02*
X70784Y-44881D01*
X70584Y-44999D02*
X70702Y-44881D01*
X70234Y-45422D02*
X70584Y-44999D01*
X66467Y-48524D02*
X66702Y-48524D01*
X66340Y-48651D02*
X66467Y-48524D01*
X66340Y-48740D02*
X66340Y-48651D01*
X66340Y-48839D02*
X66340Y-48740D01*
X66332Y-49015D02*
X66340Y-48839D01*
X70003Y-45303D02*
X70234Y-45422D01*
X69856Y-45303D02*
X70003Y-45303D01*
X69814Y-45345D02*
X69856Y-45303D01*
X68346Y-45809D02*
X68346Y-45733D01*
X68346Y-45908D02*
X68346Y-45809D01*
X68346Y-45990D02*
X68346Y-45908D01*
X68405Y-46234D02*
X68346Y-45990D01*
X68647Y-46476D02*
X68405Y-46234D01*
X68660Y-46482D02*
X68647Y-46476D01*
G54D22*
X69916Y-45550D02*
X70055Y-45689D01*
X69888Y-45522D02*
X69916Y-45550D01*
X69871Y-45504D02*
X69888Y-45522D01*
X69814Y-45345D02*
X69871Y-45504D01*
X68759Y-46619D02*
X68660Y-46482D01*
X68817Y-46676D02*
X68759Y-46619D01*
X68942Y-46802D02*
X68817Y-46676D01*
X70959Y-45042D02*
X70959Y-44881D01*
X70959Y-45081D02*
X70959Y-45042D01*
X71014Y-45563D02*
X70959Y-45081D01*
X70889Y-45689D02*
X71014Y-45563D01*
X72586Y-48212D02*
X72711Y-48243D01*
X72586Y-48212D02*
X72643Y-48327D01*
X69861Y-45479D02*
X69772Y-45386D01*
X69861Y-45479D02*
X69873Y-45350D01*
X68743Y-46597D02*
X68631Y-46533D01*
X68743Y-46597D02*
X68718Y-46470D01*
X68560Y-47714D02*
X67975Y-47790D01*
X68739Y-47714D02*
X68560Y-47714D01*
X70581Y-48344D02*
X68739Y-47714D01*
X71768Y-51690D02*
X71811Y-51825D01*
X71768Y-51650D02*
X71768Y-51690D01*
X71768Y-51585D02*
X71768Y-51650D01*
X70979Y-50463D02*
X71768Y-51585D01*
X70717Y-49767D02*
X70979Y-50463D01*
X70548Y-49551D02*
X70717Y-49767D01*
X70548Y-49372D02*
X70548Y-49551D01*
X70709Y-49157D02*
X70548Y-49372D01*
X70709Y-48880D02*
X70709Y-49157D01*
X70581Y-48344D02*
X70709Y-48880D01*
X72017Y-47067D02*
X72142Y-46942D01*
X71959Y-47124D02*
X72017Y-47067D01*
X70581Y-48344D02*
X71959Y-47124D01*
X67784Y-47758D02*
X67975Y-47790D01*
X67719Y-47758D02*
X67784Y-47758D01*
X67680Y-47758D02*
X67719Y-47758D01*
X67519Y-47740D02*
X67680Y-47758D01*
X62654Y-48973D02*
X62929Y-48830D01*
X62562Y-49066D02*
X62654Y-48973D01*
X62562Y-49131D02*
X62562Y-49066D01*
X62562Y-49170D02*
X62562Y-49131D01*
X62519Y-49306D02*
X62562Y-49170D01*
X73028Y-51585D02*
X71794Y-50308D01*
X73028Y-51650D02*
X73028Y-51585D01*
X73028Y-51690D02*
X73028Y-51650D01*
X73070Y-51825D02*
X73028Y-51690D01*
X65784Y-47758D02*
X65944Y-47740D01*
X65744Y-47758D02*
X65784Y-47758D01*
X65679Y-47758D02*
X65744Y-47758D01*
X63914Y-48973D02*
X65679Y-47758D01*
X63822Y-49066D02*
X63914Y-48973D01*
X63822Y-49131D02*
X63822Y-49066D01*
X63822Y-49170D02*
X63822Y-49131D01*
X63779Y-49306D02*
X63822Y-49170D01*
X66105Y-47758D02*
X65944Y-47740D01*
X66144Y-47758D02*
X66105Y-47758D01*
X66210Y-47758D02*
X66144Y-47758D01*
X66302Y-47850D02*
X66210Y-47758D01*
X66374Y-47981D02*
X66302Y-47850D01*
X66467Y-48073D02*
X66374Y-47981D01*
X66839Y-48193D02*
X66467Y-48073D01*
X67181Y-48535D02*
X66839Y-48193D01*
X67455Y-48535D02*
X67181Y-48535D01*
X67480Y-48513D02*
X67455Y-48535D01*
X67756Y-48513D02*
X67480Y-48513D01*
X68793Y-49132D02*
X67756Y-48513D01*
X69119Y-49132D02*
X68793Y-49132D01*
X69177Y-49074D02*
X69119Y-49132D01*
X69235Y-49016D02*
X69177Y-49074D01*
X69360Y-48891D02*
X69235Y-49016D01*
X69485Y-48766D02*
X69360Y-48891D01*
X69542Y-48708D02*
X69485Y-48766D01*
X69705Y-48708D02*
X69542Y-48708D01*
X69852Y-48827D02*
X69705Y-48708D01*
X69961Y-48936D02*
X69852Y-48827D01*
X70375Y-49018D02*
X69961Y-48936D01*
X66892Y-47758D02*
X66732Y-47740D01*
X66932Y-47758D02*
X66892Y-47758D01*
X66997Y-47758D02*
X66932Y-47758D01*
X67089Y-47850D02*
X66997Y-47758D01*
X67162Y-47981D02*
X67089Y-47850D01*
X67318Y-48204D02*
X67162Y-47981D01*
X63284Y-48973D02*
X63405Y-48871D01*
X63192Y-49066D02*
X63284Y-48973D01*
X63192Y-49131D02*
X63192Y-49066D01*
X63192Y-49170D02*
X63192Y-49131D01*
X63149Y-49306D02*
X63192Y-49170D01*
X67830Y-48315D02*
X67318Y-48204D01*
X67843Y-48320D02*
X67830Y-48315D01*
X68874Y-48935D02*
X67843Y-48320D01*
X69037Y-48935D02*
X68874Y-48935D01*
X69095Y-48877D02*
X69037Y-48935D01*
X69220Y-48752D02*
X69095Y-48877D01*
X69346Y-48627D02*
X69220Y-48752D01*
X69461Y-48511D02*
X69346Y-48627D01*
X69786Y-48511D02*
X69461Y-48511D01*
X70100Y-48601D02*
X69786Y-48511D01*
X72398Y-51585D02*
X71314Y-50324D01*
X72398Y-51650D02*
X72398Y-51585D01*
X72398Y-51690D02*
X72398Y-51650D01*
X72440Y-51825D02*
X72398Y-51690D01*
X71851Y-48876D02*
X71726Y-48751D01*
X71908Y-48934D02*
X71851Y-48876D01*
X73655Y-50043D02*
X71908Y-48934D01*
X73720Y-50043D02*
X73655Y-50043D01*
X73759Y-50043D02*
X73720Y-50043D01*
X74015Y-50181D02*
X73759Y-50043D01*
X72546Y-47095D02*
X74015Y-46940D01*
X72421Y-47220D02*
X72546Y-47095D01*
X72268Y-48459D02*
X72143Y-48334D01*
X72326Y-48517D02*
X72268Y-48459D01*
X72425Y-48813D02*
X72326Y-48517D01*
X72686Y-49074D02*
X72425Y-48813D01*
X72805Y-49136D02*
X72686Y-49074D01*
X73205Y-49136D02*
X72805Y-49136D01*
X73336Y-49136D02*
X73205Y-49136D01*
X73466Y-49101D02*
X73336Y-49136D01*
X74015Y-48940D02*
X73466Y-49101D01*
X71712Y-49015D02*
X71586Y-48890D01*
X71827Y-49131D02*
X71712Y-49015D01*
X74015Y-51181D02*
X71827Y-49131D01*
G54D21*
X64744Y-50322D02*
X64962Y-49646D01*
X63779Y-50787D02*
X64744Y-50322D01*
X61259Y-50708D02*
X62024Y-50135D01*
X60078Y-51496D02*
X61259Y-50708D01*
X59888Y-52475D02*
X60078Y-51496D01*
X59291Y-53070D02*
X59888Y-52475D01*
X60000Y-47322D02*
X59921Y-45590D01*
X60000Y-47322D02*
X60039Y-48125D01*
X61811Y-47322D02*
X60000Y-47322D01*
X61811Y-45511D02*
X63622Y-45511D01*
X64645Y-44330D02*
X66102Y-44291D01*
X63622Y-45511D02*
X64645Y-44330D01*
X64881Y-46535D02*
X63622Y-45511D01*
X63622Y-47322D02*
X64881Y-46535D01*
X68976Y-44660D02*
X68818Y-43700D01*
X70000Y-44488D02*
X68976Y-44660D01*
X72157Y-45016D02*
X71559Y-44881D01*
X72598Y-45748D02*
X72157Y-45016D01*
X71968Y-53858D02*
X71889Y-53385D01*
X72440Y-54724D02*
X71968Y-53858D01*
X72598Y-55118D02*
X73228Y-55124D01*
X72440Y-54724D02*
X72598Y-55118D01*
X70708Y-51102D02*
X70866Y-51732D01*
X69440Y-47007D02*
X70051Y-47263D01*
X68414Y-50226D02*
X67232Y-50000D01*
X68582Y-49763D02*
X68414Y-50226D01*
X67447Y-48957D02*
X67618Y-48846D01*
X67357Y-48957D02*
X67447Y-48957D01*
X67258Y-48957D02*
X67357Y-48957D01*
X67132Y-49015D02*
X67258Y-48957D01*
X66102Y-44074D02*
X66102Y-44291D01*
X66102Y-43976D02*
X66102Y-44074D01*
X66102Y-43886D02*
X66102Y-43976D01*
X66229Y-43759D02*
X66102Y-43886D01*
X66582Y-43718D02*
X66229Y-43759D01*
X73228Y-55250D02*
X73228Y-55124D01*
X73228Y-55349D02*
X73228Y-55250D01*
X73228Y-55393D02*
X73228Y-55349D01*
X73228Y-55492D02*
X73228Y-55393D01*
X73228Y-55708D02*
X73228Y-55492D01*
X73445Y-48701D02*
X74015Y-47940D01*
X73343Y-48803D02*
X73445Y-48701D01*
X73270Y-48803D02*
X73343Y-48803D01*
X73172Y-48803D02*
X73270Y-48803D01*
X73070Y-48803D02*
X73172Y-48803D01*
X71559Y-44983D02*
X71559Y-44881D01*
X71559Y-45081D02*
X71559Y-44983D01*
X71559Y-45154D02*
X71559Y-45081D01*
X71290Y-45505D02*
X71559Y-45154D01*
X73228Y-56113D02*
X73345Y-56280D01*
X73228Y-56023D02*
X73228Y-56113D01*
X73228Y-55925D02*
X73228Y-56023D01*
X73228Y-55708D02*
X73228Y-55925D01*
G54D22*
X69206Y-46788D02*
X69080Y-46663D01*
X69263Y-46846D02*
X69206Y-46788D01*
X69440Y-47007D02*
X69263Y-46846D01*
G54D21*
X73404Y-55115D02*
X73228Y-55124D01*
X73503Y-55115D02*
X73404Y-55115D01*
X73593Y-55115D02*
X73503Y-55115D01*
X73719Y-54989D02*
X73593Y-55115D01*
X74291Y-54144D02*
X73719Y-54989D01*
X74291Y-53965D02*
X74291Y-54144D01*
X74291Y-53335D02*
X74291Y-53965D01*
X74015Y-52181D02*
X74291Y-53335D01*
X60889Y-48639D02*
X62024Y-50135D01*
X60658Y-48408D02*
X60889Y-48639D01*
X60311Y-48125D02*
X60658Y-48408D01*
X60239Y-48125D02*
X60311Y-48125D01*
X60140Y-48125D02*
X60239Y-48125D01*
X60039Y-48125D02*
X60140Y-48125D01*
X60866Y-55925D02*
X60866Y-55708D01*
X60866Y-56023D02*
X60866Y-55925D01*
X60866Y-56113D02*
X60866Y-56023D01*
X60729Y-56282D02*
X60866Y-56113D01*
X66732Y-43886D02*
X66582Y-43718D01*
X66732Y-43976D02*
X66732Y-43886D01*
X66732Y-44074D02*
X66732Y-43976D01*
X66732Y-44291D02*
X66732Y-44074D01*
X72598Y-55925D02*
X72598Y-55708D01*
X72598Y-56023D02*
X72598Y-55925D01*
X72598Y-56113D02*
X72598Y-56023D01*
X72725Y-56240D02*
X72598Y-56113D01*
X73338Y-56280D02*
X72725Y-56240D01*
X73345Y-56280D02*
X73338Y-56280D01*
X66732Y-44507D02*
X66732Y-44291D01*
X66732Y-44606D02*
X66732Y-44507D01*
X66732Y-44650D02*
X66732Y-44606D01*
X66732Y-44749D02*
X66732Y-44650D01*
X66732Y-44875D02*
X66732Y-44749D01*
X67668Y-44389D02*
X68474Y-44700D01*
X67578Y-44389D02*
X67668Y-44389D01*
X67480Y-44389D02*
X67578Y-44389D01*
X67362Y-44291D02*
X67480Y-44389D01*
X68346Y-44875D02*
X68474Y-44700D01*
X68346Y-44958D02*
X68346Y-44875D01*
X68346Y-45056D02*
X68346Y-44958D01*
X68346Y-45133D02*
X68346Y-45056D01*
G54D22*
X69733Y-49630D02*
X69670Y-49842D01*
X69790Y-49572D02*
X69733Y-49630D01*
X69915Y-49447D02*
X69790Y-49572D01*
G54D21*
X59606Y-55925D02*
X59606Y-55708D01*
X59606Y-56023D02*
X59606Y-55925D01*
X59606Y-56113D02*
X59606Y-56023D01*
X59733Y-56240D02*
X59606Y-56113D01*
X59929Y-56240D02*
X59733Y-56240D01*
X60109Y-56240D02*
X59929Y-56240D01*
X60236Y-56113D02*
X60109Y-56240D01*
X60236Y-56023D02*
X60236Y-56113D01*
X60236Y-55925D02*
X60236Y-56023D01*
X60236Y-55708D02*
X60236Y-55925D01*
X69542Y-50495D02*
X69542Y-50393D01*
X69542Y-50593D02*
X69542Y-50495D01*
X69542Y-50666D02*
X69542Y-50593D01*
X69645Y-50768D02*
X69542Y-50666D01*
X69798Y-50849D02*
X69645Y-50768D01*
X73858Y-55925D02*
X73858Y-55708D01*
X73858Y-56023D02*
X73858Y-55925D01*
X73858Y-56113D02*
X73858Y-56023D01*
X73731Y-56240D02*
X73858Y-56113D01*
X73345Y-56280D02*
X73731Y-56240D01*
X67362Y-44074D02*
X67362Y-44291D01*
X67362Y-43976D02*
X67362Y-44074D01*
X67362Y-43886D02*
X67362Y-43976D01*
X67235Y-43759D02*
X67362Y-43886D01*
X66622Y-43718D02*
X67235Y-43759D01*
X66582Y-43718D02*
X66622Y-43718D01*
G54D22*
X72507Y-48442D02*
X72681Y-48617D01*
X72462Y-48398D02*
X72507Y-48442D01*
X72462Y-48378D02*
X72462Y-48398D01*
X72407Y-48320D02*
X72462Y-48378D01*
X72282Y-48195D02*
X72407Y-48320D01*
G54D21*
X68874Y-44660D02*
X68976Y-44660D01*
X68776Y-44660D02*
X68874Y-44660D01*
X68703Y-44660D02*
X68776Y-44660D01*
X68474Y-44700D02*
X68703Y-44660D01*
G54D22*
X71211Y-45645D02*
X71290Y-45505D01*
X71154Y-45703D02*
X71211Y-45645D01*
X71028Y-45828D02*
X71154Y-45703D01*
G54D21*
X60236Y-55250D02*
X60236Y-55124D01*
X60236Y-55349D02*
X60236Y-55250D01*
X60236Y-55393D02*
X60236Y-55349D01*
X60236Y-55492D02*
X60236Y-55393D01*
X60236Y-55708D02*
X60236Y-55492D01*
X72969Y-48803D02*
X73070Y-48803D01*
X72870Y-48803D02*
X72969Y-48803D01*
X72798Y-48803D02*
X72870Y-48803D01*
X72695Y-48701D02*
X72798Y-48803D01*
X72681Y-48617D02*
X72695Y-48701D01*
X69284Y-50393D02*
X68414Y-50226D01*
X69367Y-50393D02*
X69284Y-50393D01*
X69465Y-50393D02*
X69367Y-50393D01*
X69542Y-50393D02*
X69465Y-50393D01*
G54D22*
X70903Y-45953D02*
X71028Y-45828D01*
X70846Y-46011D02*
X70903Y-45953D01*
X70827Y-46265D02*
X70846Y-46011D01*
G54D21*
X60363Y-56240D02*
X60729Y-56282D01*
X60236Y-56113D02*
X60363Y-56240D01*
X60236Y-56023D02*
X60236Y-56113D01*
X60236Y-55925D02*
X60236Y-56023D01*
X60236Y-55708D02*
X60236Y-55925D01*
X67140Y-49192D02*
X67132Y-49015D01*
X67140Y-49290D02*
X67140Y-49192D01*
X67140Y-49380D02*
X67140Y-49290D01*
X67232Y-50000D02*
X67140Y-49380D01*
X69440Y-47007D02*
X70827Y-46265D01*
G54D22*
X71321Y-46371D02*
X71446Y-46246D01*
X71263Y-46429D02*
X71321Y-46371D01*
X71100Y-46429D02*
X71263Y-46429D01*
X70827Y-46265D02*
X71100Y-46429D01*
G54D21*
X69542Y-50121D02*
X69670Y-49842D01*
X69542Y-50193D02*
X69542Y-50121D01*
X69542Y-50292D02*
X69542Y-50193D01*
X69542Y-50393D02*
X69542Y-50292D01*
G54D22*
X69710Y-49706D02*
X69729Y-49833D01*
X69710Y-49706D02*
X69626Y-49803D01*
X72581Y-48517D02*
X72702Y-48562D01*
X72581Y-48517D02*
X72625Y-48638D01*
X71221Y-45628D02*
X71231Y-45500D01*
X71221Y-45628D02*
X71325Y-45553D01*
X70837Y-46124D02*
X70882Y-46245D01*
X70837Y-46124D02*
X70775Y-46237D01*
X70949Y-46338D02*
X70821Y-46324D01*
X70949Y-46338D02*
X70876Y-46232D01*
X65987Y-47005D02*
X65944Y-47140D01*
X65987Y-46965D02*
X65987Y-47005D01*
X65987Y-46900D02*
X65987Y-46965D01*
X66043Y-46640D02*
X65987Y-46900D01*
X66043Y-46574D02*
X66043Y-46640D01*
X66043Y-46535D02*
X66043Y-46574D01*
X66102Y-46259D02*
X66043Y-46535D01*
X72483Y-52561D02*
X72440Y-52425D01*
X72483Y-52600D02*
X72483Y-52561D01*
X72483Y-52666D02*
X72483Y-52600D01*
X73169Y-53359D02*
X72483Y-52666D01*
X73169Y-53425D02*
X73169Y-53359D01*
X73169Y-53464D02*
X73169Y-53425D01*
X73228Y-53740D02*
X73169Y-53464D01*
X73228Y-54015D02*
X73228Y-53740D01*
X73228Y-54055D02*
X73228Y-54015D01*
X73228Y-54099D02*
X73228Y-54055D01*
X73228Y-54138D02*
X73228Y-54099D01*
X73228Y-54324D02*
X73228Y-54138D01*
X66732Y-45984D02*
X66732Y-46259D01*
X66732Y-45944D02*
X66732Y-45984D01*
X66732Y-45900D02*
X66732Y-45944D01*
X66732Y-45861D02*
X66732Y-45900D01*
X66732Y-45675D02*
X66732Y-45861D01*
X66732Y-47005D02*
X66732Y-47140D01*
X66732Y-46965D02*
X66732Y-47005D01*
X66732Y-46574D02*
X66732Y-46965D01*
X66732Y-46535D02*
X66732Y-46574D01*
X66732Y-46259D02*
X66732Y-46535D01*
X60236Y-54015D02*
X60236Y-53740D01*
X60236Y-54055D02*
X60236Y-54015D01*
X60236Y-54099D02*
X60236Y-54055D01*
X60236Y-54138D02*
X60236Y-54099D01*
X60236Y-54324D02*
X60236Y-54138D01*
X63107Y-50041D02*
X63149Y-49906D01*
X63107Y-50081D02*
X63107Y-50041D01*
X63107Y-50146D02*
X63107Y-50081D01*
X60295Y-53359D02*
X63107Y-50146D01*
X60295Y-53425D02*
X60295Y-53359D01*
X60295Y-53464D02*
X60295Y-53425D01*
X60236Y-53740D02*
X60295Y-53464D01*
X63737Y-50041D02*
X63779Y-49906D01*
X63737Y-50081D02*
X63737Y-50041D01*
X63737Y-50146D02*
X63737Y-50081D01*
X60925Y-53359D02*
X63737Y-50146D01*
X60925Y-53425D02*
X60925Y-53359D01*
X60925Y-53464D02*
X60925Y-53425D01*
X60866Y-53740D02*
X60925Y-53464D01*
X67477Y-47005D02*
X67519Y-47140D01*
X67477Y-46965D02*
X67477Y-47005D01*
X67477Y-46900D02*
X67477Y-46965D01*
X67421Y-46640D02*
X67477Y-46900D01*
X67421Y-46574D02*
X67421Y-46640D01*
X67421Y-46535D02*
X67421Y-46574D01*
X67362Y-46259D02*
X67421Y-46535D01*
X69037Y-46341D02*
X68818Y-46062D01*
X69095Y-46398D02*
X69037Y-46341D01*
X69220Y-46524D02*
X69095Y-46398D01*
X60304Y-48742D02*
X60495Y-48802D01*
X60239Y-48742D02*
X60304Y-48742D01*
X60200Y-48742D02*
X60239Y-48742D01*
X60039Y-48725D02*
X60200Y-48742D01*
X60175Y-50345D02*
X59492Y-51417D01*
X60175Y-50068D02*
X60175Y-50345D01*
X60081Y-48965D02*
X60175Y-50068D01*
X60081Y-48900D02*
X60081Y-48965D01*
X60081Y-48860D02*
X60081Y-48900D01*
X60039Y-48725D02*
X60081Y-48860D01*
X59429Y-51712D02*
X59291Y-51968D01*
X59429Y-51673D02*
X59429Y-51712D01*
X59429Y-51607D02*
X59429Y-51673D01*
X59492Y-51417D02*
X59429Y-51607D01*
X68677Y-46816D02*
X68802Y-46941D01*
X68620Y-46758D02*
X68677Y-46816D01*
X68456Y-46758D02*
X68620Y-46758D01*
X68050Y-46876D02*
X68456Y-46758D01*
X62477Y-50041D02*
X62519Y-49906D01*
X62477Y-50081D02*
X62477Y-50041D01*
X62477Y-50146D02*
X62477Y-50081D01*
X59665Y-53359D02*
X62477Y-50146D01*
X59665Y-53425D02*
X59665Y-53359D01*
X59665Y-53464D02*
X59665Y-53425D01*
X59606Y-53740D02*
X59665Y-53464D01*
X71853Y-52561D02*
X71811Y-52425D01*
X71853Y-52600D02*
X71853Y-52561D01*
X71853Y-52666D02*
X71853Y-52600D01*
X72539Y-53359D02*
X71853Y-52666D01*
X72539Y-53425D02*
X72539Y-53359D01*
X72539Y-53464D02*
X72539Y-53425D01*
X72598Y-53740D02*
X72539Y-53464D01*
X73113Y-52561D02*
X73070Y-52425D01*
X73113Y-52600D02*
X73113Y-52561D01*
X73113Y-52666D02*
X73113Y-52600D01*
X73799Y-53359D02*
X73113Y-52666D01*
X73799Y-53425D02*
X73799Y-53359D01*
X73799Y-53464D02*
X73799Y-53425D01*
X73858Y-53740D02*
X73799Y-53464D01*
G54D10*
G36*
X71700Y-47076D02*
X70533Y-48109D01*
X68807Y-47518D01*
X68803Y-47518D01*
X68815Y-47510D01*
X68864Y-47436D01*
X68866Y-47424D01*
X68881Y-47421D01*
X68955Y-47371D01*
X69004Y-47298D01*
X69006Y-47284D01*
X69020Y-47281D01*
X69094Y-47232D01*
X69143Y-47158D01*
X69146Y-47145D01*
X69159Y-47142D01*
X69233Y-47093D01*
X69282Y-47019D01*
X69286Y-47000D01*
X69314Y-46988D01*
X69314Y-46938D01*
X69298Y-46922D01*
X69287Y-46869D01*
X69338Y-46879D01*
X69356Y-46896D01*
X69405Y-46897D01*
X69418Y-46868D01*
X69437Y-46864D01*
X69511Y-46815D01*
X69560Y-46741D01*
X69563Y-46728D01*
X69577Y-46725D01*
X69650Y-46676D01*
X69700Y-46602D01*
X69702Y-46588D01*
X69716Y-46586D01*
X69790Y-46536D01*
X69839Y-46463D01*
X69842Y-46449D01*
X69855Y-46446D01*
X69929Y-46397D01*
X69978Y-46323D01*
X69981Y-46310D01*
X69995Y-46307D01*
X70068Y-46258D01*
X70117Y-46184D01*
X70120Y-46170D01*
X70134Y-46168D01*
X70208Y-46118D01*
X70254Y-46048D01*
X70275Y-46040D01*
X70322Y-45992D01*
X70406Y-45909D01*
X70431Y-45847D01*
X70431Y-45780D01*
X70408Y-45724D01*
X70429Y-45715D01*
X70526Y-45618D01*
X70579Y-45491D01*
X70579Y-45423D01*
X70730Y-45241D01*
X70751Y-45249D01*
X70770Y-45249D01*
X70794Y-45463D01*
X70598Y-45659D01*
X70549Y-45732D01*
X70531Y-45819D01*
X70549Y-45906D01*
X70598Y-45980D01*
X70671Y-46029D01*
X70691Y-46033D01*
X70704Y-46061D01*
X70753Y-46061D01*
X70771Y-46044D01*
X70823Y-46034D01*
X70812Y-46086D01*
X70795Y-46103D01*
X70795Y-46152D01*
X70823Y-46166D01*
X70827Y-46185D01*
X70876Y-46258D01*
X70950Y-46308D01*
X70964Y-46310D01*
X70966Y-46324D01*
X71016Y-46398D01*
X71089Y-46447D01*
X71109Y-46451D01*
X71122Y-46479D01*
X71171Y-46479D01*
X71188Y-46462D01*
X71241Y-46451D01*
X71230Y-46504D01*
X71213Y-46521D01*
X71213Y-46570D01*
X71241Y-46584D01*
X71245Y-46603D01*
X71294Y-46676D01*
X71368Y-46726D01*
X71381Y-46728D01*
X71384Y-46741D01*
X71433Y-46815D01*
X71507Y-46864D01*
X71520Y-46867D01*
X71523Y-46881D01*
X71572Y-46954D01*
X71646Y-47003D01*
X71660Y-47006D01*
X71662Y-47020D01*
X71700Y-47076D01*
X71700Y-47076D01*
G37*
G54D23*
X71700Y-47076D02*
X70533Y-48109D01*
X68807Y-47518D01*
X68803Y-47518D01*
X68815Y-47510D01*
X68864Y-47436D01*
X68866Y-47424D01*
X68881Y-47421D01*
X68955Y-47371D01*
X69004Y-47298D01*
X69006Y-47284D01*
X69020Y-47281D01*
X69094Y-47232D01*
X69143Y-47158D01*
X69146Y-47145D01*
X69159Y-47142D01*
X69233Y-47093D01*
X69282Y-47019D01*
X69286Y-47000D01*
X69314Y-46988D01*
X69314Y-46938D01*
X69298Y-46922D01*
X69287Y-46869D01*
X69338Y-46879D01*
X69356Y-46896D01*
X69405Y-46897D01*
X69418Y-46868D01*
X69437Y-46864D01*
X69511Y-46815D01*
X69560Y-46741D01*
X69563Y-46728D01*
X69577Y-46725D01*
X69650Y-46676D01*
X69700Y-46602D01*
X69702Y-46588D01*
X69716Y-46586D01*
X69790Y-46536D01*
X69839Y-46463D01*
X69842Y-46449D01*
X69855Y-46446D01*
X69929Y-46397D01*
X69978Y-46323D01*
X69981Y-46310D01*
X69995Y-46307D01*
X70068Y-46258D01*
X70117Y-46184D01*
X70120Y-46170D01*
X70134Y-46168D01*
X70208Y-46118D01*
X70254Y-46048D01*
X70275Y-46040D01*
X70322Y-45992D01*
X70406Y-45909D01*
X70431Y-45847D01*
X70431Y-45780D01*
X70408Y-45724D01*
X70429Y-45715D01*
X70526Y-45618D01*
X70579Y-45491D01*
X70579Y-45423D01*
X70730Y-45241D01*
X70751Y-45249D01*
X70770Y-45249D01*
X70794Y-45463D01*
X70598Y-45659D01*
X70549Y-45732D01*
X70531Y-45819D01*
X70549Y-45906D01*
X70598Y-45980D01*
X70671Y-46029D01*
X70691Y-46033D01*
X70704Y-46061D01*
X70753Y-46061D01*
X70771Y-46044D01*
X70823Y-46034D01*
X70812Y-46086D01*
X70795Y-46103D01*
X70795Y-46152D01*
X70823Y-46166D01*
X70827Y-46185D01*
X70876Y-46258D01*
X70950Y-46308D01*
X70964Y-46310D01*
X70966Y-46324D01*
X71016Y-46398D01*
X71089Y-46447D01*
X71109Y-46451D01*
X71122Y-46479D01*
X71171Y-46479D01*
X71188Y-46462D01*
X71241Y-46451D01*
X71230Y-46504D01*
X71213Y-46521D01*
X71213Y-46570D01*
X71241Y-46584D01*
X71245Y-46603D01*
X71294Y-46676D01*
X71368Y-46726D01*
X71381Y-46728D01*
X71384Y-46741D01*
X71433Y-46815D01*
X71507Y-46864D01*
X71520Y-46867D01*
X71523Y-46881D01*
X71572Y-46954D01*
X71646Y-47003D01*
X71660Y-47006D01*
X71662Y-47020D01*
X71700Y-47076D01*
G54D10*
G36*
X72744Y-48755D02*
X72702Y-48755D01*
X72702Y-48797D01*
X72606Y-48701D01*
X72543Y-48513D01*
X72589Y-48545D01*
X72690Y-48567D01*
X72716Y-48563D01*
X72702Y-48595D01*
X72702Y-48713D01*
X72744Y-48755D01*
X72744Y-48755D01*
G37*
G54D23*
X72744Y-48755D02*
X72702Y-48755D01*
X72702Y-48797D01*
X72606Y-48701D01*
X72543Y-48513D01*
X72589Y-48545D01*
X72690Y-48567D01*
X72716Y-48563D01*
X72702Y-48595D01*
X72702Y-48713D01*
X72744Y-48755D01*
G54D10*
G36*
X74418Y-46702D02*
X74408Y-46678D01*
X74278Y-46548D01*
X74108Y-46477D01*
X73923Y-46477D01*
X73753Y-46547D01*
X73623Y-46678D01*
X73581Y-46777D01*
X72629Y-46878D01*
X72625Y-46877D01*
X72622Y-46863D01*
X72573Y-46789D01*
X72499Y-46740D01*
X72485Y-46738D01*
X72483Y-46724D01*
X72433Y-46650D01*
X72360Y-46601D01*
X72346Y-46598D01*
X72343Y-46585D01*
X72294Y-46511D01*
X72220Y-46462D01*
X72207Y-46459D01*
X72204Y-46445D01*
X72155Y-46372D01*
X72081Y-46322D01*
X72068Y-46320D01*
X72065Y-46306D01*
X72016Y-46232D01*
X71942Y-46183D01*
X71929Y-46180D01*
X71926Y-46167D01*
X71902Y-46132D01*
X71902Y-45048D01*
X71902Y-44715D01*
X71902Y-44648D01*
X71877Y-44586D01*
X71829Y-44539D01*
X71768Y-44513D01*
X71650Y-44513D01*
X71608Y-44555D01*
X71608Y-44833D01*
X71860Y-44833D01*
X71902Y-44791D01*
X71902Y-44715D01*
X71902Y-45048D01*
X71902Y-44972D01*
X71860Y-44930D01*
X71608Y-44930D01*
X71608Y-45207D01*
X71650Y-45250D01*
X71768Y-45250D01*
X71829Y-45224D01*
X71877Y-45177D01*
X71902Y-45115D01*
X71902Y-45048D01*
X71902Y-46132D01*
X71877Y-46094D01*
X71803Y-46044D01*
X71784Y-46041D01*
X71771Y-46012D01*
X71722Y-46012D01*
X71704Y-46030D01*
X71652Y-46040D01*
X71662Y-45988D01*
X71680Y-45970D01*
X71680Y-45921D01*
X71651Y-45908D01*
X71648Y-45889D01*
X71598Y-45815D01*
X71525Y-45766D01*
X71511Y-45763D01*
X71508Y-45749D01*
X71459Y-45676D01*
X71385Y-45627D01*
X71366Y-45623D01*
X71353Y-45594D01*
X71304Y-45594D01*
X71286Y-45612D01*
X71234Y-45622D01*
X71245Y-45570D01*
X71262Y-45553D01*
X71262Y-45503D01*
X71234Y-45490D01*
X71230Y-45471D01*
X71209Y-45440D01*
X71186Y-45242D01*
X71229Y-45224D01*
X71259Y-45194D01*
X71289Y-45224D01*
X71351Y-45250D01*
X71469Y-45250D01*
X71511Y-45207D01*
X71511Y-44930D01*
X71503Y-44930D01*
X71503Y-44833D01*
X71511Y-44833D01*
X71511Y-44555D01*
X71469Y-44513D01*
X71351Y-44513D01*
X71289Y-44539D01*
X71259Y-44569D01*
X71230Y-44539D01*
X71168Y-44513D01*
X71101Y-44513D01*
X70751Y-44513D01*
X70689Y-44539D01*
X70642Y-44586D01*
X70624Y-44630D01*
X70600Y-44635D01*
X70513Y-44693D01*
X70396Y-44810D01*
X70389Y-44820D01*
X70379Y-44829D01*
X70174Y-45077D01*
X70166Y-45077D01*
X70155Y-45081D01*
X70125Y-45066D01*
X70114Y-45063D01*
X70105Y-45056D01*
X70065Y-45048D01*
X70025Y-45037D01*
X70014Y-45038D01*
X70003Y-45036D01*
X69856Y-45036D01*
X69856Y-45036D01*
X69754Y-45056D01*
X69742Y-45064D01*
X69323Y-45002D01*
X69318Y-44990D01*
X69289Y-44960D01*
X69318Y-44930D01*
X69344Y-44868D01*
X69344Y-44452D01*
X69318Y-44390D01*
X69271Y-44343D01*
X69209Y-44317D01*
X69143Y-44317D01*
X69066Y-44317D01*
X69024Y-44359D01*
X69024Y-44612D01*
X69302Y-44612D01*
X69344Y-44570D01*
X69344Y-44452D01*
X69344Y-44868D01*
X69344Y-44751D01*
X69302Y-44709D01*
X69024Y-44709D01*
X69024Y-44716D01*
X68927Y-44716D01*
X68927Y-44709D01*
X68927Y-44612D01*
X68927Y-44359D01*
X68885Y-44317D01*
X68809Y-44317D01*
X68742Y-44317D01*
X68681Y-44343D01*
X68633Y-44390D01*
X68608Y-44452D01*
X68608Y-44570D01*
X68650Y-44612D01*
X68927Y-44612D01*
X68927Y-44709D01*
X68650Y-44709D01*
X68608Y-44751D01*
X68608Y-44801D01*
X68580Y-44789D01*
X68513Y-44789D01*
X68436Y-44789D01*
X68394Y-44831D01*
X68394Y-45084D01*
X68402Y-45084D01*
X68402Y-45181D01*
X68394Y-45181D01*
X68394Y-45189D01*
X68298Y-45189D01*
X68298Y-45181D01*
X68298Y-45084D01*
X68298Y-44831D01*
X68256Y-44789D01*
X68179Y-44789D01*
X68112Y-44789D01*
X68051Y-44815D01*
X68003Y-44862D01*
X67978Y-44924D01*
X67978Y-45042D01*
X68020Y-45084D01*
X68298Y-45084D01*
X68298Y-45181D01*
X68020Y-45181D01*
X67978Y-45223D01*
X67978Y-45341D01*
X68003Y-45403D01*
X68033Y-45433D01*
X68004Y-45462D01*
X67978Y-45524D01*
X67978Y-45591D01*
X67978Y-45941D01*
X68003Y-46003D01*
X68051Y-46050D01*
X68090Y-46066D01*
X68146Y-46296D01*
X68154Y-46315D01*
X68159Y-46336D01*
X68176Y-46362D01*
X68189Y-46391D01*
X68205Y-46405D01*
X68216Y-46422D01*
X68363Y-46569D01*
X68261Y-46599D01*
X68246Y-46584D01*
X68119Y-46531D01*
X67982Y-46531D01*
X67855Y-46584D01*
X67758Y-46681D01*
X67709Y-46797D01*
X67686Y-46797D01*
X67667Y-46797D01*
X67651Y-46726D01*
X67673Y-46717D01*
X67721Y-46670D01*
X67746Y-46608D01*
X67746Y-46541D01*
X67746Y-45911D01*
X67746Y-44639D01*
X67746Y-43943D01*
X67721Y-43881D01*
X67674Y-43833D01*
X67612Y-43808D01*
X67545Y-43808D01*
X67452Y-43808D01*
X67410Y-43850D01*
X67410Y-44242D01*
X67704Y-44242D01*
X67746Y-44200D01*
X67746Y-43943D01*
X67746Y-44639D01*
X67746Y-44381D01*
X67704Y-44339D01*
X67410Y-44339D01*
X67410Y-44732D01*
X67452Y-44774D01*
X67545Y-44774D01*
X67612Y-44774D01*
X67674Y-44748D01*
X67721Y-44701D01*
X67746Y-44639D01*
X67746Y-45911D01*
X67721Y-45849D01*
X67674Y-45802D01*
X67612Y-45776D01*
X67545Y-45776D01*
X67313Y-45776D01*
X67313Y-44732D01*
X67313Y-44339D01*
X67313Y-44242D01*
X67313Y-43850D01*
X67271Y-43808D01*
X67178Y-43808D01*
X67112Y-43808D01*
X67050Y-43833D01*
X67047Y-43837D01*
X67044Y-43833D01*
X66982Y-43808D01*
X66915Y-43808D01*
X66822Y-43808D01*
X66780Y-43850D01*
X66780Y-44242D01*
X67019Y-44242D01*
X67074Y-44242D01*
X67313Y-44242D01*
X67313Y-44339D01*
X67074Y-44339D01*
X67019Y-44339D01*
X66780Y-44339D01*
X66780Y-44465D01*
X66780Y-44732D01*
X66780Y-44768D01*
X66816Y-44768D01*
X66822Y-44774D01*
X66915Y-44774D01*
X66982Y-44774D01*
X66997Y-44768D01*
X67096Y-44768D01*
X67112Y-44774D01*
X67178Y-44774D01*
X67271Y-44774D01*
X67313Y-44732D01*
X67313Y-45776D01*
X67175Y-45776D01*
X67175Y-45358D01*
X67175Y-45074D01*
X67175Y-44906D01*
X67133Y-44864D01*
X66780Y-44864D01*
X66780Y-45167D01*
X66822Y-45209D01*
X66973Y-45209D01*
X67040Y-45209D01*
X67102Y-45183D01*
X67149Y-45136D01*
X67175Y-45074D01*
X67175Y-45358D01*
X67149Y-45296D01*
X67102Y-45249D01*
X67040Y-45223D01*
X66973Y-45223D01*
X66683Y-45223D01*
X66683Y-45167D01*
X66683Y-44864D01*
X66683Y-44768D01*
X66683Y-44732D01*
X66683Y-44465D01*
X66683Y-44339D01*
X66683Y-44242D01*
X66683Y-43850D01*
X66641Y-43808D01*
X66549Y-43808D01*
X66482Y-43808D01*
X66420Y-43833D01*
X66417Y-43837D01*
X66414Y-43833D01*
X66352Y-43808D01*
X66285Y-43808D01*
X66192Y-43808D01*
X66150Y-43850D01*
X66150Y-44242D01*
X66389Y-44242D01*
X66444Y-44242D01*
X66683Y-44242D01*
X66683Y-44339D01*
X66444Y-44339D01*
X66389Y-44339D01*
X66150Y-44339D01*
X66150Y-44732D01*
X66192Y-44774D01*
X66285Y-44774D01*
X66352Y-44774D01*
X66367Y-44768D01*
X66467Y-44768D01*
X66482Y-44774D01*
X66549Y-44774D01*
X66641Y-44774D01*
X66648Y-44768D01*
X66683Y-44768D01*
X66683Y-44864D01*
X66331Y-44864D01*
X66289Y-44906D01*
X66289Y-45074D01*
X66314Y-45136D01*
X66361Y-45183D01*
X66423Y-45209D01*
X66490Y-45209D01*
X66641Y-45209D01*
X66683Y-45167D01*
X66683Y-45223D01*
X66423Y-45223D01*
X66362Y-45248D01*
X66314Y-45296D01*
X66289Y-45357D01*
X66289Y-45424D01*
X66289Y-45776D01*
X66285Y-45776D01*
X66053Y-45776D01*
X66053Y-44732D01*
X66053Y-44339D01*
X66053Y-44242D01*
X66053Y-43850D01*
X66011Y-43808D01*
X65919Y-43808D01*
X65852Y-43808D01*
X65790Y-43833D01*
X65743Y-43881D01*
X65717Y-43943D01*
X65717Y-44200D01*
X65759Y-44242D01*
X66053Y-44242D01*
X66053Y-44339D01*
X65759Y-44339D01*
X65717Y-44381D01*
X65717Y-44639D01*
X65743Y-44701D01*
X65790Y-44748D01*
X65852Y-44774D01*
X65919Y-44774D01*
X66011Y-44774D01*
X66053Y-44732D01*
X66053Y-45776D01*
X65852Y-45776D01*
X65790Y-45802D01*
X65743Y-45849D01*
X65717Y-45911D01*
X65717Y-45978D01*
X65717Y-46608D01*
X65743Y-46669D01*
X65790Y-46717D01*
X65812Y-46726D01*
X65797Y-46797D01*
X65711Y-46797D01*
X65649Y-46823D01*
X65602Y-46870D01*
X65576Y-46932D01*
X65576Y-46999D01*
X65576Y-47349D01*
X65602Y-47411D01*
X65632Y-47440D01*
X65602Y-47470D01*
X65576Y-47532D01*
X65576Y-47582D01*
X65574Y-47583D01*
X65563Y-47588D01*
X63796Y-48802D01*
X63783Y-48816D01*
X63767Y-48827D01*
X63751Y-48843D01*
X63751Y-48803D01*
X63698Y-48676D01*
X63601Y-48579D01*
X63474Y-48526D01*
X63337Y-48526D01*
X63210Y-48579D01*
X63188Y-48601D01*
X63124Y-48538D01*
X62998Y-48485D01*
X62860Y-48485D01*
X62733Y-48537D01*
X62636Y-48634D01*
X62583Y-48761D01*
X62583Y-48776D01*
X62558Y-48789D01*
X62534Y-48809D01*
X62507Y-48827D01*
X62415Y-48919D01*
X62386Y-48963D01*
X62286Y-48963D01*
X62224Y-48988D01*
X62177Y-49035D01*
X62151Y-49097D01*
X62151Y-49164D01*
X62151Y-49514D01*
X62177Y-49576D01*
X62206Y-49606D01*
X62177Y-49635D01*
X62151Y-49697D01*
X62151Y-49764D01*
X62151Y-50114D01*
X62176Y-50175D01*
X59509Y-53223D01*
X59492Y-53252D01*
X59489Y-53257D01*
X59356Y-53257D01*
X59294Y-53282D01*
X59247Y-53329D01*
X59221Y-53391D01*
X59221Y-53458D01*
X59221Y-54088D01*
X59247Y-54150D01*
X59294Y-54197D01*
X59356Y-54223D01*
X59423Y-54223D01*
X59793Y-54223D01*
X59793Y-54641D01*
X59818Y-54703D01*
X59865Y-54750D01*
X59927Y-54776D01*
X59994Y-54776D01*
X60544Y-54776D01*
X60606Y-54751D01*
X60653Y-54703D01*
X60679Y-54642D01*
X60679Y-54575D01*
X60679Y-54223D01*
X60682Y-54223D01*
X61115Y-54223D01*
X61177Y-54197D01*
X61225Y-54150D01*
X61250Y-54088D01*
X61250Y-54021D01*
X61250Y-53391D01*
X61225Y-53331D01*
X63893Y-50283D01*
X63913Y-50249D01*
X64012Y-50249D01*
X64074Y-50223D01*
X64121Y-50176D01*
X64147Y-50114D01*
X64147Y-50048D01*
X64147Y-49698D01*
X64122Y-49636D01*
X64092Y-49606D01*
X64121Y-49576D01*
X64147Y-49514D01*
X64147Y-49448D01*
X64147Y-49098D01*
X64137Y-49072D01*
X65634Y-48043D01*
X65649Y-48058D01*
X65711Y-48084D01*
X65778Y-48084D01*
X66178Y-48084D01*
X66191Y-48078D01*
X66193Y-48081D01*
X66212Y-48104D01*
X66228Y-48127D01*
X66320Y-48220D01*
X66327Y-48224D01*
X66332Y-48231D01*
X66360Y-48247D01*
X66387Y-48265D01*
X66396Y-48266D01*
X66402Y-48270D01*
X66365Y-48277D01*
X66279Y-48335D01*
X66152Y-48462D01*
X66094Y-48549D01*
X66089Y-48572D01*
X66073Y-48572D01*
X66012Y-48598D01*
X65964Y-48645D01*
X65939Y-48707D01*
X65939Y-48774D01*
X65939Y-49324D01*
X65964Y-49385D01*
X66011Y-49433D01*
X66052Y-49450D01*
X66048Y-49536D01*
X65903Y-49536D01*
X65841Y-49562D01*
X65794Y-49609D01*
X65768Y-49671D01*
X65768Y-49738D01*
X65768Y-50328D01*
X65794Y-50390D01*
X65841Y-50437D01*
X65903Y-50463D01*
X65970Y-50463D01*
X66416Y-50463D01*
X64661Y-50810D01*
X64594Y-50838D01*
X64587Y-50845D01*
X62876Y-51986D01*
X62868Y-51990D01*
X62816Y-52042D01*
X61669Y-53760D01*
X61663Y-53767D01*
X61635Y-53834D01*
X61250Y-55779D01*
X61250Y-55360D01*
X61225Y-55298D01*
X61178Y-55251D01*
X61116Y-55225D01*
X61049Y-55225D01*
X60956Y-55225D01*
X60914Y-55267D01*
X60914Y-55660D01*
X61208Y-55660D01*
X61250Y-55618D01*
X61250Y-55360D01*
X61250Y-55779D01*
X61247Y-55795D01*
X61208Y-55757D01*
X60914Y-55757D01*
X60914Y-56149D01*
X60956Y-56191D01*
X61049Y-56191D01*
X61116Y-56191D01*
X61178Y-56166D01*
X61225Y-56118D01*
X61229Y-56108D01*
X61229Y-56898D01*
X60817Y-56898D01*
X60817Y-56149D01*
X60817Y-55757D01*
X60817Y-55660D01*
X60817Y-55267D01*
X60775Y-55225D01*
X60682Y-55225D01*
X60679Y-55225D01*
X60679Y-54925D01*
X60653Y-54863D01*
X60606Y-54816D01*
X60544Y-54790D01*
X60477Y-54790D01*
X60326Y-54790D01*
X60284Y-54832D01*
X60284Y-55135D01*
X60637Y-55135D01*
X60679Y-55093D01*
X60679Y-54925D01*
X60679Y-55225D01*
X60616Y-55225D01*
X60600Y-55231D01*
X60501Y-55231D01*
X60486Y-55225D01*
X60419Y-55225D01*
X60326Y-55225D01*
X60320Y-55231D01*
X60284Y-55231D01*
X60284Y-55267D01*
X60284Y-55534D01*
X60284Y-55660D01*
X60523Y-55660D01*
X60578Y-55660D01*
X60817Y-55660D01*
X60817Y-55757D01*
X60578Y-55757D01*
X60523Y-55757D01*
X60284Y-55757D01*
X60284Y-56149D01*
X60326Y-56191D01*
X60419Y-56191D01*
X60486Y-56191D01*
X60548Y-56166D01*
X60551Y-56162D01*
X60554Y-56166D01*
X60616Y-56191D01*
X60682Y-56191D01*
X60775Y-56191D01*
X60817Y-56149D01*
X60817Y-56898D01*
X60187Y-56898D01*
X60187Y-56149D01*
X60187Y-55757D01*
X60187Y-55660D01*
X60187Y-55534D01*
X60187Y-55267D01*
X60187Y-55231D01*
X60187Y-55135D01*
X60187Y-54832D01*
X60145Y-54790D01*
X59994Y-54790D01*
X59927Y-54790D01*
X59865Y-54816D01*
X59818Y-54863D01*
X59793Y-54925D01*
X59793Y-55093D01*
X59835Y-55135D01*
X60187Y-55135D01*
X60187Y-55231D01*
X60152Y-55231D01*
X60145Y-55225D01*
X60052Y-55225D01*
X59986Y-55225D01*
X59970Y-55231D01*
X59871Y-55231D01*
X59856Y-55225D01*
X59789Y-55225D01*
X59696Y-55225D01*
X59654Y-55267D01*
X59654Y-55660D01*
X59893Y-55660D01*
X59948Y-55660D01*
X60187Y-55660D01*
X60187Y-55757D01*
X59948Y-55757D01*
X59893Y-55757D01*
X59654Y-55757D01*
X59654Y-56149D01*
X59696Y-56191D01*
X59789Y-56191D01*
X59856Y-56191D01*
X59918Y-56166D01*
X59921Y-56162D01*
X59924Y-56166D01*
X59986Y-56191D01*
X60052Y-56191D01*
X60145Y-56191D01*
X60187Y-56149D01*
X60187Y-56898D01*
X59557Y-56898D01*
X59557Y-56149D01*
X59557Y-55757D01*
X59557Y-55660D01*
X59557Y-55267D01*
X59515Y-55225D01*
X59423Y-55225D01*
X59356Y-55225D01*
X59294Y-55251D01*
X59247Y-55298D01*
X59221Y-55360D01*
X59221Y-55618D01*
X59263Y-55660D01*
X59557Y-55660D01*
X59557Y-55757D01*
X59263Y-55757D01*
X59221Y-55799D01*
X59221Y-56056D01*
X59247Y-56118D01*
X59294Y-56166D01*
X59356Y-56191D01*
X59423Y-56191D01*
X59515Y-56191D01*
X59557Y-56149D01*
X59557Y-56898D01*
X59046Y-56898D01*
X59046Y-52431D01*
X59619Y-52431D01*
X59681Y-52406D01*
X59729Y-52359D01*
X59754Y-52297D01*
X59754Y-52230D01*
X59754Y-51642D01*
X59784Y-51613D01*
X59837Y-51486D01*
X59837Y-51348D01*
X59815Y-51295D01*
X60349Y-50456D01*
X60355Y-50443D01*
X60367Y-50425D01*
X60372Y-50398D01*
X60379Y-50381D01*
X60378Y-50366D01*
X60383Y-50345D01*
X60383Y-50068D01*
X60381Y-50062D01*
X60383Y-50050D01*
X60301Y-49095D01*
X60426Y-49147D01*
X60563Y-49147D01*
X60690Y-49095D01*
X60787Y-48998D01*
X60840Y-48871D01*
X60840Y-48733D01*
X60788Y-48606D01*
X60691Y-48509D01*
X60564Y-48457D01*
X60426Y-48456D01*
X60389Y-48472D01*
X60381Y-48455D01*
X60352Y-48425D01*
X60381Y-48395D01*
X60407Y-48333D01*
X60407Y-47916D01*
X60381Y-47855D01*
X60334Y-47807D01*
X60272Y-47782D01*
X60206Y-47782D01*
X60129Y-47782D01*
X60087Y-47824D01*
X60087Y-48076D01*
X60365Y-48076D01*
X60407Y-48034D01*
X60407Y-47916D01*
X60407Y-48333D01*
X60407Y-48215D01*
X60365Y-48173D01*
X60087Y-48173D01*
X60087Y-48181D01*
X59990Y-48181D01*
X59990Y-48173D01*
X59990Y-48076D01*
X59990Y-47824D01*
X59948Y-47782D01*
X59872Y-47782D01*
X59805Y-47782D01*
X59744Y-47807D01*
X59696Y-47855D01*
X59671Y-47916D01*
X59671Y-48034D01*
X59713Y-48076D01*
X59990Y-48076D01*
X59990Y-48173D01*
X59713Y-48173D01*
X59671Y-48215D01*
X59671Y-48333D01*
X59696Y-48395D01*
X59726Y-48425D01*
X59696Y-48454D01*
X59671Y-48516D01*
X59671Y-48583D01*
X59671Y-48933D01*
X59696Y-48995D01*
X59744Y-49042D01*
X59805Y-49068D01*
X59872Y-49068D01*
X59882Y-49068D01*
X59951Y-49879D01*
X59909Y-49861D01*
X59772Y-49861D01*
X59645Y-49914D01*
X59626Y-49933D01*
X59620Y-49930D01*
X59553Y-49930D01*
X59046Y-49930D01*
X59046Y-45391D01*
X66726Y-41545D01*
X74418Y-45397D01*
X74418Y-45515D01*
X74406Y-45503D01*
X74344Y-45477D01*
X74277Y-45477D01*
X73687Y-45477D01*
X73625Y-45503D01*
X73578Y-45550D01*
X73552Y-45612D01*
X73552Y-45678D01*
X73552Y-46269D01*
X73577Y-46331D01*
X73625Y-46378D01*
X73686Y-46404D01*
X73753Y-46404D01*
X74344Y-46404D01*
X74406Y-46378D01*
X74418Y-46366D01*
X74418Y-46702D01*
X74418Y-46702D01*
G37*
G54D23*
X74418Y-46702D02*
X74408Y-46678D01*
X74278Y-46548D01*
X74108Y-46477D01*
X73923Y-46477D01*
X73753Y-46547D01*
X73623Y-46678D01*
X73581Y-46777D01*
X72629Y-46878D01*
X72625Y-46877D01*
X72622Y-46863D01*
X72573Y-46789D01*
X72499Y-46740D01*
X72485Y-46738D01*
X72483Y-46724D01*
X72433Y-46650D01*
X72360Y-46601D01*
X72346Y-46598D01*
X72343Y-46585D01*
X72294Y-46511D01*
X72220Y-46462D01*
X72207Y-46459D01*
X72204Y-46445D01*
X72155Y-46372D01*
X72081Y-46322D01*
X72068Y-46320D01*
X72065Y-46306D01*
X72016Y-46232D01*
X71942Y-46183D01*
X71929Y-46180D01*
X71926Y-46167D01*
X71902Y-46132D01*
X71902Y-45048D01*
X71902Y-44715D01*
X71902Y-44648D01*
X71877Y-44586D01*
X71829Y-44539D01*
X71768Y-44513D01*
X71650Y-44513D01*
X71608Y-44555D01*
X71608Y-44833D01*
X71860Y-44833D01*
X71902Y-44791D01*
X71902Y-44715D01*
X71902Y-45048D01*
X71902Y-44972D01*
X71860Y-44930D01*
X71608Y-44930D01*
X71608Y-45207D01*
X71650Y-45250D01*
X71768Y-45250D01*
X71829Y-45224D01*
X71877Y-45177D01*
X71902Y-45115D01*
X71902Y-45048D01*
X71902Y-46132D01*
X71877Y-46094D01*
X71803Y-46044D01*
X71784Y-46041D01*
X71771Y-46012D01*
X71722Y-46012D01*
X71704Y-46030D01*
X71652Y-46040D01*
X71662Y-45988D01*
X71680Y-45970D01*
X71680Y-45921D01*
X71651Y-45908D01*
X71648Y-45889D01*
X71598Y-45815D01*
X71525Y-45766D01*
X71511Y-45763D01*
X71508Y-45749D01*
X71459Y-45676D01*
X71385Y-45627D01*
X71366Y-45623D01*
X71353Y-45594D01*
X71304Y-45594D01*
X71286Y-45612D01*
X71234Y-45622D01*
X71245Y-45570D01*
X71262Y-45553D01*
X71262Y-45503D01*
X71234Y-45490D01*
X71230Y-45471D01*
X71209Y-45440D01*
X71186Y-45242D01*
X71229Y-45224D01*
X71259Y-45194D01*
X71289Y-45224D01*
X71351Y-45250D01*
X71469Y-45250D01*
X71511Y-45207D01*
X71511Y-44930D01*
X71503Y-44930D01*
X71503Y-44833D01*
X71511Y-44833D01*
X71511Y-44555D01*
X71469Y-44513D01*
X71351Y-44513D01*
X71289Y-44539D01*
X71259Y-44569D01*
X71230Y-44539D01*
X71168Y-44513D01*
X71101Y-44513D01*
X70751Y-44513D01*
X70689Y-44539D01*
X70642Y-44586D01*
X70624Y-44630D01*
X70600Y-44635D01*
X70513Y-44693D01*
X70396Y-44810D01*
X70389Y-44820D01*
X70379Y-44829D01*
X70174Y-45077D01*
X70166Y-45077D01*
X70155Y-45081D01*
X70125Y-45066D01*
X70114Y-45063D01*
X70105Y-45056D01*
X70065Y-45048D01*
X70025Y-45037D01*
X70014Y-45038D01*
X70003Y-45036D01*
X69856Y-45036D01*
X69856Y-45036D01*
X69754Y-45056D01*
X69742Y-45064D01*
X69323Y-45002D01*
X69318Y-44990D01*
X69289Y-44960D01*
X69318Y-44930D01*
X69344Y-44868D01*
X69344Y-44452D01*
X69318Y-44390D01*
X69271Y-44343D01*
X69209Y-44317D01*
X69143Y-44317D01*
X69066Y-44317D01*
X69024Y-44359D01*
X69024Y-44612D01*
X69302Y-44612D01*
X69344Y-44570D01*
X69344Y-44452D01*
X69344Y-44868D01*
X69344Y-44751D01*
X69302Y-44709D01*
X69024Y-44709D01*
X69024Y-44716D01*
X68927Y-44716D01*
X68927Y-44709D01*
X68927Y-44612D01*
X68927Y-44359D01*
X68885Y-44317D01*
X68809Y-44317D01*
X68742Y-44317D01*
X68681Y-44343D01*
X68633Y-44390D01*
X68608Y-44452D01*
X68608Y-44570D01*
X68650Y-44612D01*
X68927Y-44612D01*
X68927Y-44709D01*
X68650Y-44709D01*
X68608Y-44751D01*
X68608Y-44801D01*
X68580Y-44789D01*
X68513Y-44789D01*
X68436Y-44789D01*
X68394Y-44831D01*
X68394Y-45084D01*
X68402Y-45084D01*
X68402Y-45181D01*
X68394Y-45181D01*
X68394Y-45189D01*
X68298Y-45189D01*
X68298Y-45181D01*
X68298Y-45084D01*
X68298Y-44831D01*
X68256Y-44789D01*
X68179Y-44789D01*
X68112Y-44789D01*
X68051Y-44815D01*
X68003Y-44862D01*
X67978Y-44924D01*
X67978Y-45042D01*
X68020Y-45084D01*
X68298Y-45084D01*
X68298Y-45181D01*
X68020Y-45181D01*
X67978Y-45223D01*
X67978Y-45341D01*
X68003Y-45403D01*
X68033Y-45433D01*
X68004Y-45462D01*
X67978Y-45524D01*
X67978Y-45591D01*
X67978Y-45941D01*
X68003Y-46003D01*
X68051Y-46050D01*
X68090Y-46066D01*
X68146Y-46296D01*
X68154Y-46315D01*
X68159Y-46336D01*
X68176Y-46362D01*
X68189Y-46391D01*
X68205Y-46405D01*
X68216Y-46422D01*
X68363Y-46569D01*
X68261Y-46599D01*
X68246Y-46584D01*
X68119Y-46531D01*
X67982Y-46531D01*
X67855Y-46584D01*
X67758Y-46681D01*
X67709Y-46797D01*
X67686Y-46797D01*
X67667Y-46797D01*
X67651Y-46726D01*
X67673Y-46717D01*
X67721Y-46670D01*
X67746Y-46608D01*
X67746Y-46541D01*
X67746Y-45911D01*
X67746Y-44639D01*
X67746Y-43943D01*
X67721Y-43881D01*
X67674Y-43833D01*
X67612Y-43808D01*
X67545Y-43808D01*
X67452Y-43808D01*
X67410Y-43850D01*
X67410Y-44242D01*
X67704Y-44242D01*
X67746Y-44200D01*
X67746Y-43943D01*
X67746Y-44639D01*
X67746Y-44381D01*
X67704Y-44339D01*
X67410Y-44339D01*
X67410Y-44732D01*
X67452Y-44774D01*
X67545Y-44774D01*
X67612Y-44774D01*
X67674Y-44748D01*
X67721Y-44701D01*
X67746Y-44639D01*
X67746Y-45911D01*
X67721Y-45849D01*
X67674Y-45802D01*
X67612Y-45776D01*
X67545Y-45776D01*
X67313Y-45776D01*
X67313Y-44732D01*
X67313Y-44339D01*
X67313Y-44242D01*
X67313Y-43850D01*
X67271Y-43808D01*
X67178Y-43808D01*
X67112Y-43808D01*
X67050Y-43833D01*
X67047Y-43837D01*
X67044Y-43833D01*
X66982Y-43808D01*
X66915Y-43808D01*
X66822Y-43808D01*
X66780Y-43850D01*
X66780Y-44242D01*
X67019Y-44242D01*
X67074Y-44242D01*
X67313Y-44242D01*
X67313Y-44339D01*
X67074Y-44339D01*
X67019Y-44339D01*
X66780Y-44339D01*
X66780Y-44465D01*
X66780Y-44732D01*
X66780Y-44768D01*
X66816Y-44768D01*
X66822Y-44774D01*
X66915Y-44774D01*
X66982Y-44774D01*
X66997Y-44768D01*
X67096Y-44768D01*
X67112Y-44774D01*
X67178Y-44774D01*
X67271Y-44774D01*
X67313Y-44732D01*
X67313Y-45776D01*
X67175Y-45776D01*
X67175Y-45358D01*
X67175Y-45074D01*
X67175Y-44906D01*
X67133Y-44864D01*
X66780Y-44864D01*
X66780Y-45167D01*
X66822Y-45209D01*
X66973Y-45209D01*
X67040Y-45209D01*
X67102Y-45183D01*
X67149Y-45136D01*
X67175Y-45074D01*
X67175Y-45358D01*
X67149Y-45296D01*
X67102Y-45249D01*
X67040Y-45223D01*
X66973Y-45223D01*
X66683Y-45223D01*
X66683Y-45167D01*
X66683Y-44864D01*
X66683Y-44768D01*
X66683Y-44732D01*
X66683Y-44465D01*
X66683Y-44339D01*
X66683Y-44242D01*
X66683Y-43850D01*
X66641Y-43808D01*
X66549Y-43808D01*
X66482Y-43808D01*
X66420Y-43833D01*
X66417Y-43837D01*
X66414Y-43833D01*
X66352Y-43808D01*
X66285Y-43808D01*
X66192Y-43808D01*
X66150Y-43850D01*
X66150Y-44242D01*
X66389Y-44242D01*
X66444Y-44242D01*
X66683Y-44242D01*
X66683Y-44339D01*
X66444Y-44339D01*
X66389Y-44339D01*
X66150Y-44339D01*
X66150Y-44732D01*
X66192Y-44774D01*
X66285Y-44774D01*
X66352Y-44774D01*
X66367Y-44768D01*
X66467Y-44768D01*
X66482Y-44774D01*
X66549Y-44774D01*
X66641Y-44774D01*
X66648Y-44768D01*
X66683Y-44768D01*
X66683Y-44864D01*
X66331Y-44864D01*
X66289Y-44906D01*
X66289Y-45074D01*
X66314Y-45136D01*
X66361Y-45183D01*
X66423Y-45209D01*
X66490Y-45209D01*
X66641Y-45209D01*
X66683Y-45167D01*
X66683Y-45223D01*
X66423Y-45223D01*
X66362Y-45248D01*
X66314Y-45296D01*
X66289Y-45357D01*
X66289Y-45424D01*
X66289Y-45776D01*
X66285Y-45776D01*
X66053Y-45776D01*
X66053Y-44732D01*
X66053Y-44339D01*
X66053Y-44242D01*
X66053Y-43850D01*
X66011Y-43808D01*
X65919Y-43808D01*
X65852Y-43808D01*
X65790Y-43833D01*
X65743Y-43881D01*
X65717Y-43943D01*
X65717Y-44200D01*
X65759Y-44242D01*
X66053Y-44242D01*
X66053Y-44339D01*
X65759Y-44339D01*
X65717Y-44381D01*
X65717Y-44639D01*
X65743Y-44701D01*
X65790Y-44748D01*
X65852Y-44774D01*
X65919Y-44774D01*
X66011Y-44774D01*
X66053Y-44732D01*
X66053Y-45776D01*
X65852Y-45776D01*
X65790Y-45802D01*
X65743Y-45849D01*
X65717Y-45911D01*
X65717Y-45978D01*
X65717Y-46608D01*
X65743Y-46669D01*
X65790Y-46717D01*
X65812Y-46726D01*
X65797Y-46797D01*
X65711Y-46797D01*
X65649Y-46823D01*
X65602Y-46870D01*
X65576Y-46932D01*
X65576Y-46999D01*
X65576Y-47349D01*
X65602Y-47411D01*
X65632Y-47440D01*
X65602Y-47470D01*
X65576Y-47532D01*
X65576Y-47582D01*
X65574Y-47583D01*
X65563Y-47588D01*
X63796Y-48802D01*
X63783Y-48816D01*
X63767Y-48827D01*
X63751Y-48843D01*
X63751Y-48803D01*
X63698Y-48676D01*
X63601Y-48579D01*
X63474Y-48526D01*
X63337Y-48526D01*
X63210Y-48579D01*
X63188Y-48601D01*
X63124Y-48538D01*
X62998Y-48485D01*
X62860Y-48485D01*
X62733Y-48537D01*
X62636Y-48634D01*
X62583Y-48761D01*
X62583Y-48776D01*
X62558Y-48789D01*
X62534Y-48809D01*
X62507Y-48827D01*
X62415Y-48919D01*
X62386Y-48963D01*
X62286Y-48963D01*
X62224Y-48988D01*
X62177Y-49035D01*
X62151Y-49097D01*
X62151Y-49164D01*
X62151Y-49514D01*
X62177Y-49576D01*
X62206Y-49606D01*
X62177Y-49635D01*
X62151Y-49697D01*
X62151Y-49764D01*
X62151Y-50114D01*
X62176Y-50175D01*
X59509Y-53223D01*
X59492Y-53252D01*
X59489Y-53257D01*
X59356Y-53257D01*
X59294Y-53282D01*
X59247Y-53329D01*
X59221Y-53391D01*
X59221Y-53458D01*
X59221Y-54088D01*
X59247Y-54150D01*
X59294Y-54197D01*
X59356Y-54223D01*
X59423Y-54223D01*
X59793Y-54223D01*
X59793Y-54641D01*
X59818Y-54703D01*
X59865Y-54750D01*
X59927Y-54776D01*
X59994Y-54776D01*
X60544Y-54776D01*
X60606Y-54751D01*
X60653Y-54703D01*
X60679Y-54642D01*
X60679Y-54575D01*
X60679Y-54223D01*
X60682Y-54223D01*
X61115Y-54223D01*
X61177Y-54197D01*
X61225Y-54150D01*
X61250Y-54088D01*
X61250Y-54021D01*
X61250Y-53391D01*
X61225Y-53331D01*
X63893Y-50283D01*
X63913Y-50249D01*
X64012Y-50249D01*
X64074Y-50223D01*
X64121Y-50176D01*
X64147Y-50114D01*
X64147Y-50048D01*
X64147Y-49698D01*
X64122Y-49636D01*
X64092Y-49606D01*
X64121Y-49576D01*
X64147Y-49514D01*
X64147Y-49448D01*
X64147Y-49098D01*
X64137Y-49072D01*
X65634Y-48043D01*
X65649Y-48058D01*
X65711Y-48084D01*
X65778Y-48084D01*
X66178Y-48084D01*
X66191Y-48078D01*
X66193Y-48081D01*
X66212Y-48104D01*
X66228Y-48127D01*
X66320Y-48220D01*
X66327Y-48224D01*
X66332Y-48231D01*
X66360Y-48247D01*
X66387Y-48265D01*
X66396Y-48266D01*
X66402Y-48270D01*
X66365Y-48277D01*
X66279Y-48335D01*
X66152Y-48462D01*
X66094Y-48549D01*
X66089Y-48572D01*
X66073Y-48572D01*
X66012Y-48598D01*
X65964Y-48645D01*
X65939Y-48707D01*
X65939Y-48774D01*
X65939Y-49324D01*
X65964Y-49385D01*
X66011Y-49433D01*
X66052Y-49450D01*
X66048Y-49536D01*
X65903Y-49536D01*
X65841Y-49562D01*
X65794Y-49609D01*
X65768Y-49671D01*
X65768Y-49738D01*
X65768Y-50328D01*
X65794Y-50390D01*
X65841Y-50437D01*
X65903Y-50463D01*
X65970Y-50463D01*
X66416Y-50463D01*
X64661Y-50810D01*
X64594Y-50838D01*
X64587Y-50845D01*
X62876Y-51986D01*
X62868Y-51990D01*
X62816Y-52042D01*
X61669Y-53760D01*
X61663Y-53767D01*
X61635Y-53834D01*
X61250Y-55779D01*
X61250Y-55360D01*
X61225Y-55298D01*
X61178Y-55251D01*
X61116Y-55225D01*
X61049Y-55225D01*
X60956Y-55225D01*
X60914Y-55267D01*
X60914Y-55660D01*
X61208Y-55660D01*
X61250Y-55618D01*
X61250Y-55360D01*
X61250Y-55779D01*
X61247Y-55795D01*
X61208Y-55757D01*
X60914Y-55757D01*
X60914Y-56149D01*
X60956Y-56191D01*
X61049Y-56191D01*
X61116Y-56191D01*
X61178Y-56166D01*
X61225Y-56118D01*
X61229Y-56108D01*
X61229Y-56898D01*
X60817Y-56898D01*
X60817Y-56149D01*
X60817Y-55757D01*
X60817Y-55660D01*
X60817Y-55267D01*
X60775Y-55225D01*
X60682Y-55225D01*
X60679Y-55225D01*
X60679Y-54925D01*
X60653Y-54863D01*
X60606Y-54816D01*
X60544Y-54790D01*
X60477Y-54790D01*
X60326Y-54790D01*
X60284Y-54832D01*
X60284Y-55135D01*
X60637Y-55135D01*
X60679Y-55093D01*
X60679Y-54925D01*
X60679Y-55225D01*
X60616Y-55225D01*
X60600Y-55231D01*
X60501Y-55231D01*
X60486Y-55225D01*
X60419Y-55225D01*
X60326Y-55225D01*
X60320Y-55231D01*
X60284Y-55231D01*
X60284Y-55267D01*
X60284Y-55534D01*
X60284Y-55660D01*
X60523Y-55660D01*
X60578Y-55660D01*
X60817Y-55660D01*
X60817Y-55757D01*
X60578Y-55757D01*
X60523Y-55757D01*
X60284Y-55757D01*
X60284Y-56149D01*
X60326Y-56191D01*
X60419Y-56191D01*
X60486Y-56191D01*
X60548Y-56166D01*
X60551Y-56162D01*
X60554Y-56166D01*
X60616Y-56191D01*
X60682Y-56191D01*
X60775Y-56191D01*
X60817Y-56149D01*
X60817Y-56898D01*
X60187Y-56898D01*
X60187Y-56149D01*
X60187Y-55757D01*
X60187Y-55660D01*
X60187Y-55534D01*
X60187Y-55267D01*
X60187Y-55231D01*
X60187Y-55135D01*
X60187Y-54832D01*
X60145Y-54790D01*
X59994Y-54790D01*
X59927Y-54790D01*
X59865Y-54816D01*
X59818Y-54863D01*
X59793Y-54925D01*
X59793Y-55093D01*
X59835Y-55135D01*
X60187Y-55135D01*
X60187Y-55231D01*
X60152Y-55231D01*
X60145Y-55225D01*
X60052Y-55225D01*
X59986Y-55225D01*
X59970Y-55231D01*
X59871Y-55231D01*
X59856Y-55225D01*
X59789Y-55225D01*
X59696Y-55225D01*
X59654Y-55267D01*
X59654Y-55660D01*
X59893Y-55660D01*
X59948Y-55660D01*
X60187Y-55660D01*
X60187Y-55757D01*
X59948Y-55757D01*
X59893Y-55757D01*
X59654Y-55757D01*
X59654Y-56149D01*
X59696Y-56191D01*
X59789Y-56191D01*
X59856Y-56191D01*
X59918Y-56166D01*
X59921Y-56162D01*
X59924Y-56166D01*
X59986Y-56191D01*
X60052Y-56191D01*
X60145Y-56191D01*
X60187Y-56149D01*
X60187Y-56898D01*
X59557Y-56898D01*
X59557Y-56149D01*
X59557Y-55757D01*
X59557Y-55660D01*
X59557Y-55267D01*
X59515Y-55225D01*
X59423Y-55225D01*
X59356Y-55225D01*
X59294Y-55251D01*
X59247Y-55298D01*
X59221Y-55360D01*
X59221Y-55618D01*
X59263Y-55660D01*
X59557Y-55660D01*
X59557Y-55757D01*
X59263Y-55757D01*
X59221Y-55799D01*
X59221Y-56056D01*
X59247Y-56118D01*
X59294Y-56166D01*
X59356Y-56191D01*
X59423Y-56191D01*
X59515Y-56191D01*
X59557Y-56149D01*
X59557Y-56898D01*
X59046Y-56898D01*
X59046Y-52431D01*
X59619Y-52431D01*
X59681Y-52406D01*
X59729Y-52359D01*
X59754Y-52297D01*
X59754Y-52230D01*
X59754Y-51642D01*
X59784Y-51613D01*
X59837Y-51486D01*
X59837Y-51348D01*
X59815Y-51295D01*
X60349Y-50456D01*
X60355Y-50443D01*
X60367Y-50425D01*
X60372Y-50398D01*
X60379Y-50381D01*
X60378Y-50366D01*
X60383Y-50345D01*
X60383Y-50068D01*
X60381Y-50062D01*
X60383Y-50050D01*
X60301Y-49095D01*
X60426Y-49147D01*
X60563Y-49147D01*
X60690Y-49095D01*
X60787Y-48998D01*
X60840Y-48871D01*
X60840Y-48733D01*
X60788Y-48606D01*
X60691Y-48509D01*
X60564Y-48457D01*
X60426Y-48456D01*
X60389Y-48472D01*
X60381Y-48455D01*
X60352Y-48425D01*
X60381Y-48395D01*
X60407Y-48333D01*
X60407Y-47916D01*
X60381Y-47855D01*
X60334Y-47807D01*
X60272Y-47782D01*
X60206Y-47782D01*
X60129Y-47782D01*
X60087Y-47824D01*
X60087Y-48076D01*
X60365Y-48076D01*
X60407Y-48034D01*
X60407Y-47916D01*
X60407Y-48333D01*
X60407Y-48215D01*
X60365Y-48173D01*
X60087Y-48173D01*
X60087Y-48181D01*
X59990Y-48181D01*
X59990Y-48173D01*
X59990Y-48076D01*
X59990Y-47824D01*
X59948Y-47782D01*
X59872Y-47782D01*
X59805Y-47782D01*
X59744Y-47807D01*
X59696Y-47855D01*
X59671Y-47916D01*
X59671Y-48034D01*
X59713Y-48076D01*
X59990Y-48076D01*
X59990Y-48173D01*
X59713Y-48173D01*
X59671Y-48215D01*
X59671Y-48333D01*
X59696Y-48395D01*
X59726Y-48425D01*
X59696Y-48454D01*
X59671Y-48516D01*
X59671Y-48583D01*
X59671Y-48933D01*
X59696Y-48995D01*
X59744Y-49042D01*
X59805Y-49068D01*
X59872Y-49068D01*
X59882Y-49068D01*
X59951Y-49879D01*
X59909Y-49861D01*
X59772Y-49861D01*
X59645Y-49914D01*
X59626Y-49933D01*
X59620Y-49930D01*
X59553Y-49930D01*
X59046Y-49930D01*
X59046Y-45391D01*
X66726Y-41545D01*
X74418Y-45397D01*
X74418Y-45515D01*
X74406Y-45503D01*
X74344Y-45477D01*
X74277Y-45477D01*
X73687Y-45477D01*
X73625Y-45503D01*
X73578Y-45550D01*
X73552Y-45612D01*
X73552Y-45678D01*
X73552Y-46269D01*
X73577Y-46331D01*
X73625Y-46378D01*
X73686Y-46404D01*
X73753Y-46404D01*
X74344Y-46404D01*
X74406Y-46378D01*
X74418Y-46366D01*
X74418Y-46702D01*
G54D10*
G36*
X74418Y-48702D02*
X74408Y-48678D01*
X74283Y-48553D01*
X74283Y-48277D01*
X74015Y-48009D01*
X73947Y-48077D01*
X73947Y-47940D01*
X73679Y-47672D01*
X73607Y-47703D01*
X73547Y-47878D01*
X73559Y-48062D01*
X73607Y-48178D01*
X73679Y-48209D01*
X73947Y-47940D01*
X73947Y-48077D01*
X73747Y-48277D01*
X73778Y-48349D01*
X73953Y-48409D01*
X74137Y-48397D01*
X74252Y-48349D01*
X74283Y-48277D01*
X74283Y-48553D01*
X74278Y-48548D01*
X74108Y-48477D01*
X73923Y-48477D01*
X73753Y-48547D01*
X73623Y-48678D01*
X73552Y-48848D01*
X73552Y-48860D01*
X73438Y-48893D01*
X73396Y-48852D01*
X73119Y-48852D01*
X73119Y-48860D01*
X73022Y-48860D01*
X73022Y-48852D01*
X73014Y-48852D01*
X73014Y-48755D01*
X73022Y-48755D01*
X73022Y-48747D01*
X73119Y-48747D01*
X73119Y-48755D01*
X73396Y-48755D01*
X73438Y-48713D01*
X73439Y-48595D01*
X73413Y-48533D01*
X73383Y-48503D01*
X73413Y-48474D01*
X73438Y-48412D01*
X73439Y-48345D01*
X73439Y-47995D01*
X73413Y-47933D01*
X73366Y-47886D01*
X73321Y-47868D01*
X73317Y-47844D01*
X73316Y-47843D01*
X73316Y-47842D01*
X73210Y-47590D01*
X73223Y-47558D01*
X73223Y-47421D01*
X73171Y-47294D01*
X73120Y-47243D01*
X73617Y-47191D01*
X73622Y-47203D01*
X73752Y-47333D01*
X73923Y-47404D01*
X74107Y-47404D01*
X74277Y-47334D01*
X74408Y-47203D01*
X74418Y-47179D01*
X74418Y-47701D01*
X74352Y-47672D01*
X74283Y-47741D01*
X74283Y-47604D01*
X74252Y-47532D01*
X74078Y-47472D01*
X73894Y-47484D01*
X73778Y-47532D01*
X73747Y-47604D01*
X74015Y-47872D01*
X74283Y-47604D01*
X74283Y-47741D01*
X74084Y-47940D01*
X74352Y-48209D01*
X74418Y-48180D01*
X74418Y-48702D01*
X74418Y-48702D01*
G37*
G54D23*
X74418Y-48702D02*
X74408Y-48678D01*
X74283Y-48553D01*
X74283Y-48277D01*
X74015Y-48009D01*
X73947Y-48077D01*
X73947Y-47940D01*
X73679Y-47672D01*
X73607Y-47703D01*
X73547Y-47878D01*
X73559Y-48062D01*
X73607Y-48178D01*
X73679Y-48209D01*
X73947Y-47940D01*
X73947Y-48077D01*
X73747Y-48277D01*
X73778Y-48349D01*
X73953Y-48409D01*
X74137Y-48397D01*
X74252Y-48349D01*
X74283Y-48277D01*
X74283Y-48553D01*
X74278Y-48548D01*
X74108Y-48477D01*
X73923Y-48477D01*
X73753Y-48547D01*
X73623Y-48678D01*
X73552Y-48848D01*
X73552Y-48860D01*
X73438Y-48893D01*
X73396Y-48852D01*
X73119Y-48852D01*
X73119Y-48860D01*
X73022Y-48860D01*
X73022Y-48852D01*
X73014Y-48852D01*
X73014Y-48755D01*
X73022Y-48755D01*
X73022Y-48747D01*
X73119Y-48747D01*
X73119Y-48755D01*
X73396Y-48755D01*
X73438Y-48713D01*
X73439Y-48595D01*
X73413Y-48533D01*
X73383Y-48503D01*
X73413Y-48474D01*
X73438Y-48412D01*
X73439Y-48345D01*
X73439Y-47995D01*
X73413Y-47933D01*
X73366Y-47886D01*
X73321Y-47868D01*
X73317Y-47844D01*
X73316Y-47843D01*
X73316Y-47842D01*
X73210Y-47590D01*
X73223Y-47558D01*
X73223Y-47421D01*
X73171Y-47294D01*
X73120Y-47243D01*
X73617Y-47191D01*
X73622Y-47203D01*
X73752Y-47333D01*
X73923Y-47404D01*
X74107Y-47404D01*
X74277Y-47334D01*
X74408Y-47203D01*
X74418Y-47179D01*
X74418Y-47701D01*
X74352Y-47672D01*
X74283Y-47741D01*
X74283Y-47604D01*
X74252Y-47532D01*
X74078Y-47472D01*
X73894Y-47484D01*
X73778Y-47532D01*
X73747Y-47604D01*
X74015Y-47872D01*
X74283Y-47604D01*
X74283Y-47741D01*
X74084Y-47940D01*
X74352Y-48209D01*
X74418Y-48180D01*
X74418Y-48702D01*
G54D10*
G36*
X74418Y-56898D02*
X74283Y-56898D01*
X74283Y-52517D01*
X74015Y-52249D01*
X73947Y-52318D01*
X73947Y-52181D01*
X73679Y-51912D01*
X73607Y-51944D01*
X73547Y-52118D01*
X73559Y-52302D01*
X73607Y-52418D01*
X73679Y-52449D01*
X73947Y-52181D01*
X73947Y-52318D01*
X73747Y-52517D01*
X73778Y-52589D01*
X73953Y-52649D01*
X74137Y-52637D01*
X74252Y-52589D01*
X74283Y-52517D01*
X74283Y-56898D01*
X74242Y-56898D01*
X74242Y-56056D01*
X74242Y-55360D01*
X74217Y-55298D01*
X74170Y-55251D01*
X74108Y-55225D01*
X74041Y-55225D01*
X73948Y-55225D01*
X73906Y-55267D01*
X73906Y-55660D01*
X74200Y-55660D01*
X74242Y-55618D01*
X74242Y-55360D01*
X74242Y-56056D01*
X74242Y-55799D01*
X74200Y-55757D01*
X73906Y-55757D01*
X73906Y-56149D01*
X73948Y-56191D01*
X74041Y-56191D01*
X74108Y-56191D01*
X74170Y-56166D01*
X74217Y-56118D01*
X74242Y-56056D01*
X74242Y-56898D01*
X73809Y-56898D01*
X73809Y-56149D01*
X73809Y-55757D01*
X73809Y-55660D01*
X73809Y-55267D01*
X73767Y-55225D01*
X73675Y-55225D01*
X73671Y-55225D01*
X73671Y-54925D01*
X73645Y-54863D01*
X73598Y-54816D01*
X73536Y-54790D01*
X73470Y-54790D01*
X73318Y-54790D01*
X73276Y-54832D01*
X73276Y-55135D01*
X73629Y-55135D01*
X73671Y-55093D01*
X73671Y-54925D01*
X73671Y-55225D01*
X73608Y-55225D01*
X73593Y-55231D01*
X73493Y-55231D01*
X73478Y-55225D01*
X73411Y-55225D01*
X73318Y-55225D01*
X73312Y-55231D01*
X73276Y-55231D01*
X73276Y-55267D01*
X73276Y-55534D01*
X73276Y-55660D01*
X73515Y-55660D01*
X73570Y-55660D01*
X73809Y-55660D01*
X73809Y-55757D01*
X73570Y-55757D01*
X73515Y-55757D01*
X73276Y-55757D01*
X73276Y-56149D01*
X73318Y-56191D01*
X73411Y-56191D01*
X73478Y-56191D01*
X73540Y-56166D01*
X73543Y-56162D01*
X73546Y-56166D01*
X73608Y-56191D01*
X73675Y-56191D01*
X73767Y-56191D01*
X73809Y-56149D01*
X73809Y-56898D01*
X73179Y-56898D01*
X73179Y-56149D01*
X73179Y-55757D01*
X73179Y-55660D01*
X73179Y-55534D01*
X73179Y-55267D01*
X73179Y-55231D01*
X73179Y-55135D01*
X73179Y-54832D01*
X73137Y-54790D01*
X72986Y-54790D01*
X72919Y-54790D01*
X72857Y-54816D01*
X72810Y-54863D01*
X72785Y-54925D01*
X72785Y-55093D01*
X72827Y-55135D01*
X73179Y-55135D01*
X73179Y-55231D01*
X73144Y-55231D01*
X73137Y-55225D01*
X73045Y-55225D01*
X72978Y-55225D01*
X72963Y-55231D01*
X72863Y-55231D01*
X72848Y-55225D01*
X72781Y-55225D01*
X72688Y-55225D01*
X72646Y-55267D01*
X72646Y-55660D01*
X72885Y-55660D01*
X72941Y-55660D01*
X73179Y-55660D01*
X73179Y-55757D01*
X72941Y-55757D01*
X72885Y-55757D01*
X72646Y-55757D01*
X72646Y-56149D01*
X72688Y-56191D01*
X72781Y-56191D01*
X72848Y-56191D01*
X72910Y-56166D01*
X72913Y-56162D01*
X72916Y-56166D01*
X72978Y-56191D01*
X73045Y-56191D01*
X73137Y-56191D01*
X73179Y-56149D01*
X73179Y-56898D01*
X72235Y-56898D01*
X72235Y-56108D01*
X72239Y-56118D01*
X72286Y-56166D01*
X72348Y-56191D01*
X72415Y-56191D01*
X72507Y-56191D01*
X72550Y-56149D01*
X72550Y-55757D01*
X72550Y-55660D01*
X72550Y-55267D01*
X72507Y-55225D01*
X72415Y-55225D01*
X72348Y-55225D01*
X72286Y-55251D01*
X72239Y-55298D01*
X72213Y-55360D01*
X72213Y-55618D01*
X72255Y-55660D01*
X72550Y-55660D01*
X72550Y-55757D01*
X72255Y-55757D01*
X72215Y-55797D01*
X71826Y-53835D01*
X71798Y-53767D01*
X71792Y-53760D01*
X70650Y-52049D01*
X70647Y-52041D01*
X70595Y-51989D01*
X69494Y-51254D01*
X69494Y-50719D01*
X69494Y-50442D01*
X69494Y-50345D01*
X69494Y-50067D01*
X69452Y-50025D01*
X69334Y-50025D01*
X69272Y-50051D01*
X69225Y-50098D01*
X69199Y-50160D01*
X69199Y-50226D01*
X69199Y-50303D01*
X69241Y-50345D01*
X69494Y-50345D01*
X69494Y-50442D01*
X69241Y-50442D01*
X69199Y-50484D01*
X69199Y-50560D01*
X69199Y-50627D01*
X69225Y-50689D01*
X69272Y-50736D01*
X69334Y-50761D01*
X69452Y-50761D01*
X69494Y-50719D01*
X69494Y-51254D01*
X68876Y-50843D01*
X68870Y-50837D01*
X68803Y-50809D01*
X67700Y-50590D01*
X67700Y-50062D01*
X67688Y-49878D01*
X67640Y-49762D01*
X67568Y-49731D01*
X67525Y-49775D01*
X67525Y-49257D01*
X67525Y-49106D01*
X67483Y-49064D01*
X67180Y-49064D01*
X67180Y-49416D01*
X67222Y-49458D01*
X67390Y-49458D01*
X67452Y-49433D01*
X67499Y-49386D01*
X67525Y-49324D01*
X67525Y-49257D01*
X67525Y-49775D01*
X67500Y-49800D01*
X67500Y-49663D01*
X67469Y-49591D01*
X67294Y-49531D01*
X67110Y-49543D01*
X67083Y-49554D01*
X67083Y-49416D01*
X67083Y-49064D01*
X66781Y-49064D01*
X66739Y-49106D01*
X66739Y-49257D01*
X66739Y-49324D01*
X66764Y-49386D01*
X66812Y-49433D01*
X66873Y-49458D01*
X67041Y-49458D01*
X67083Y-49416D01*
X67083Y-49554D01*
X66995Y-49591D01*
X66964Y-49663D01*
X67232Y-49931D01*
X67500Y-49663D01*
X67500Y-49800D01*
X67300Y-50000D01*
X67568Y-50268D01*
X67640Y-50237D01*
X67700Y-50062D01*
X67700Y-50590D01*
X67500Y-50551D01*
X67500Y-50336D01*
X67232Y-50068D01*
X67163Y-50136D01*
X67163Y-50000D01*
X66895Y-49731D01*
X66823Y-49762D01*
X66763Y-49937D01*
X66775Y-50121D01*
X66823Y-50237D01*
X66895Y-50268D01*
X67163Y-50000D01*
X67163Y-50136D01*
X66964Y-50336D01*
X66995Y-50408D01*
X67169Y-50468D01*
X67353Y-50456D01*
X67469Y-50408D01*
X67500Y-50336D01*
X67500Y-50551D01*
X66768Y-50406D01*
X66695Y-50406D01*
X66686Y-50409D01*
X66641Y-50418D01*
X66669Y-50390D01*
X66695Y-50328D01*
X66695Y-50261D01*
X66695Y-49671D01*
X66670Y-49609D01*
X66622Y-49562D01*
X66581Y-49545D01*
X66586Y-49458D01*
X66590Y-49458D01*
X66652Y-49433D01*
X66699Y-49386D01*
X66725Y-49324D01*
X66725Y-49257D01*
X66725Y-48869D01*
X66739Y-48869D01*
X66739Y-48925D01*
X66781Y-48967D01*
X67083Y-48967D01*
X67083Y-48959D01*
X67180Y-48959D01*
X67180Y-48967D01*
X67483Y-48967D01*
X67525Y-48925D01*
X67525Y-48774D01*
X67525Y-48730D01*
X67528Y-48728D01*
X67535Y-48727D01*
X67543Y-48721D01*
X67698Y-48721D01*
X68686Y-49310D01*
X68701Y-49315D01*
X68713Y-49323D01*
X68738Y-49328D01*
X68763Y-49337D01*
X68778Y-49336D01*
X68793Y-49339D01*
X69119Y-49339D01*
X69199Y-49323D01*
X69199Y-49323D01*
X69205Y-49319D01*
X69207Y-49321D01*
X69281Y-49370D01*
X69294Y-49373D01*
X69297Y-49387D01*
X69346Y-49460D01*
X69420Y-49509D01*
X69434Y-49512D01*
X69436Y-49526D01*
X69486Y-49600D01*
X69559Y-49649D01*
X69578Y-49652D01*
X69591Y-49680D01*
X69640Y-49680D01*
X69657Y-49664D01*
X69709Y-49653D01*
X69699Y-49705D01*
X69682Y-49722D01*
X69682Y-49771D01*
X69710Y-49785D01*
X69714Y-49804D01*
X69763Y-49877D01*
X69770Y-49882D01*
X69839Y-50078D01*
X69812Y-50051D01*
X69750Y-50025D01*
X69632Y-50025D01*
X69590Y-50067D01*
X69590Y-50345D01*
X69598Y-50345D01*
X69598Y-50442D01*
X69590Y-50442D01*
X69590Y-50719D01*
X69632Y-50761D01*
X69750Y-50761D01*
X69812Y-50736D01*
X69842Y-50706D01*
X69872Y-50736D01*
X69933Y-50761D01*
X70000Y-50761D01*
X70350Y-50761D01*
X70412Y-50736D01*
X70459Y-50689D01*
X70478Y-50644D01*
X70502Y-50639D01*
X70502Y-50639D01*
X70588Y-50582D01*
X70705Y-50465D01*
X70705Y-50465D01*
X70739Y-50415D01*
X70784Y-50536D01*
X70799Y-50559D01*
X70809Y-50582D01*
X71483Y-51540D01*
X71468Y-51555D01*
X71442Y-51617D01*
X71442Y-51684D01*
X71442Y-52034D01*
X71468Y-52096D01*
X71498Y-52125D01*
X71468Y-52155D01*
X71442Y-52217D01*
X71442Y-52284D01*
X71442Y-52634D01*
X71468Y-52696D01*
X71515Y-52743D01*
X71577Y-52769D01*
X71644Y-52769D01*
X71677Y-52769D01*
X71683Y-52778D01*
X71706Y-52812D01*
X72233Y-53344D01*
X72213Y-53391D01*
X72213Y-53458D01*
X72213Y-54088D01*
X72239Y-54150D01*
X72286Y-54197D01*
X72348Y-54223D01*
X72415Y-54223D01*
X72785Y-54223D01*
X72785Y-54641D01*
X72810Y-54703D01*
X72857Y-54750D01*
X72919Y-54776D01*
X72986Y-54776D01*
X73536Y-54776D01*
X73598Y-54751D01*
X73645Y-54703D01*
X73671Y-54642D01*
X73671Y-54575D01*
X73671Y-54223D01*
X73675Y-54223D01*
X74108Y-54223D01*
X74169Y-54197D01*
X74217Y-54150D01*
X74242Y-54088D01*
X74242Y-54021D01*
X74242Y-53391D01*
X74217Y-53330D01*
X74170Y-53282D01*
X74108Y-53257D01*
X74041Y-53257D01*
X73975Y-53257D01*
X73947Y-53213D01*
X73419Y-52680D01*
X73438Y-52634D01*
X73439Y-52567D01*
X73439Y-52217D01*
X73413Y-52155D01*
X73383Y-52125D01*
X73413Y-52096D01*
X73438Y-52034D01*
X73439Y-51967D01*
X73439Y-51617D01*
X73413Y-51555D01*
X73366Y-51508D01*
X73304Y-51482D01*
X73237Y-51482D01*
X73204Y-51482D01*
X73199Y-51476D01*
X73177Y-51441D01*
X72139Y-50366D01*
X72139Y-50239D01*
X72087Y-50112D01*
X71990Y-50015D01*
X71863Y-49962D01*
X71726Y-49962D01*
X71599Y-50015D01*
X71546Y-50068D01*
X71509Y-50031D01*
X71383Y-49979D01*
X71245Y-49979D01*
X71118Y-50031D01*
X71060Y-50089D01*
X71004Y-49941D01*
X71021Y-49945D01*
X71108Y-49927D01*
X71181Y-49878D01*
X71230Y-49804D01*
X71233Y-49791D01*
X71247Y-49788D01*
X71320Y-49739D01*
X71370Y-49665D01*
X71372Y-49651D01*
X71386Y-49649D01*
X71460Y-49600D01*
X71509Y-49526D01*
X71512Y-49512D01*
X71525Y-49509D01*
X71599Y-49460D01*
X71648Y-49387D01*
X71651Y-49373D01*
X71665Y-49370D01*
X71731Y-49326D01*
X73570Y-51046D01*
X73552Y-51088D01*
X73552Y-51272D01*
X73622Y-51443D01*
X73752Y-51573D01*
X73923Y-51644D01*
X74107Y-51644D01*
X74277Y-51574D01*
X74408Y-51443D01*
X74418Y-51419D01*
X74418Y-51941D01*
X74352Y-51912D01*
X74283Y-51981D01*
X74283Y-51844D01*
X74252Y-51772D01*
X74078Y-51712D01*
X73894Y-51724D01*
X73778Y-51772D01*
X73747Y-51844D01*
X74015Y-52112D01*
X74283Y-51844D01*
X74283Y-51981D01*
X74084Y-52181D01*
X74352Y-52449D01*
X74418Y-52420D01*
X74418Y-56898D01*
X74418Y-56898D01*
G37*
G54D23*
X74418Y-56898D02*
X74283Y-56898D01*
X74283Y-52517D01*
X74015Y-52249D01*
X73947Y-52318D01*
X73947Y-52181D01*
X73679Y-51912D01*
X73607Y-51944D01*
X73547Y-52118D01*
X73559Y-52302D01*
X73607Y-52418D01*
X73679Y-52449D01*
X73947Y-52181D01*
X73947Y-52318D01*
X73747Y-52517D01*
X73778Y-52589D01*
X73953Y-52649D01*
X74137Y-52637D01*
X74252Y-52589D01*
X74283Y-52517D01*
X74283Y-56898D01*
X74242Y-56898D01*
X74242Y-56056D01*
X74242Y-55360D01*
X74217Y-55298D01*
X74170Y-55251D01*
X74108Y-55225D01*
X74041Y-55225D01*
X73948Y-55225D01*
X73906Y-55267D01*
X73906Y-55660D01*
X74200Y-55660D01*
X74242Y-55618D01*
X74242Y-55360D01*
X74242Y-56056D01*
X74242Y-55799D01*
X74200Y-55757D01*
X73906Y-55757D01*
X73906Y-56149D01*
X73948Y-56191D01*
X74041Y-56191D01*
X74108Y-56191D01*
X74170Y-56166D01*
X74217Y-56118D01*
X74242Y-56056D01*
X74242Y-56898D01*
X73809Y-56898D01*
X73809Y-56149D01*
X73809Y-55757D01*
X73809Y-55660D01*
X73809Y-55267D01*
X73767Y-55225D01*
X73675Y-55225D01*
X73671Y-55225D01*
X73671Y-54925D01*
X73645Y-54863D01*
X73598Y-54816D01*
X73536Y-54790D01*
X73470Y-54790D01*
X73318Y-54790D01*
X73276Y-54832D01*
X73276Y-55135D01*
X73629Y-55135D01*
X73671Y-55093D01*
X73671Y-54925D01*
X73671Y-55225D01*
X73608Y-55225D01*
X73593Y-55231D01*
X73493Y-55231D01*
X73478Y-55225D01*
X73411Y-55225D01*
X73318Y-55225D01*
X73312Y-55231D01*
X73276Y-55231D01*
X73276Y-55267D01*
X73276Y-55534D01*
X73276Y-55660D01*
X73515Y-55660D01*
X73570Y-55660D01*
X73809Y-55660D01*
X73809Y-55757D01*
X73570Y-55757D01*
X73515Y-55757D01*
X73276Y-55757D01*
X73276Y-56149D01*
X73318Y-56191D01*
X73411Y-56191D01*
X73478Y-56191D01*
X73540Y-56166D01*
X73543Y-56162D01*
X73546Y-56166D01*
X73608Y-56191D01*
X73675Y-56191D01*
X73767Y-56191D01*
X73809Y-56149D01*
X73809Y-56898D01*
X73179Y-56898D01*
X73179Y-56149D01*
X73179Y-55757D01*
X73179Y-55660D01*
X73179Y-55534D01*
X73179Y-55267D01*
X73179Y-55231D01*
X73179Y-55135D01*
X73179Y-54832D01*
X73137Y-54790D01*
X72986Y-54790D01*
X72919Y-54790D01*
X72857Y-54816D01*
X72810Y-54863D01*
X72785Y-54925D01*
X72785Y-55093D01*
X72827Y-55135D01*
X73179Y-55135D01*
X73179Y-55231D01*
X73144Y-55231D01*
X73137Y-55225D01*
X73045Y-55225D01*
X72978Y-55225D01*
X72963Y-55231D01*
X72863Y-55231D01*
X72848Y-55225D01*
X72781Y-55225D01*
X72688Y-55225D01*
X72646Y-55267D01*
X72646Y-55660D01*
X72885Y-55660D01*
X72941Y-55660D01*
X73179Y-55660D01*
X73179Y-55757D01*
X72941Y-55757D01*
X72885Y-55757D01*
X72646Y-55757D01*
X72646Y-56149D01*
X72688Y-56191D01*
X72781Y-56191D01*
X72848Y-56191D01*
X72910Y-56166D01*
X72913Y-56162D01*
X72916Y-56166D01*
X72978Y-56191D01*
X73045Y-56191D01*
X73137Y-56191D01*
X73179Y-56149D01*
X73179Y-56898D01*
X72235Y-56898D01*
X72235Y-56108D01*
X72239Y-56118D01*
X72286Y-56166D01*
X72348Y-56191D01*
X72415Y-56191D01*
X72507Y-56191D01*
X72550Y-56149D01*
X72550Y-55757D01*
X72550Y-55660D01*
X72550Y-55267D01*
X72507Y-55225D01*
X72415Y-55225D01*
X72348Y-55225D01*
X72286Y-55251D01*
X72239Y-55298D01*
X72213Y-55360D01*
X72213Y-55618D01*
X72255Y-55660D01*
X72550Y-55660D01*
X72550Y-55757D01*
X72255Y-55757D01*
X72215Y-55797D01*
X71826Y-53835D01*
X71798Y-53767D01*
X71792Y-53760D01*
X70650Y-52049D01*
X70647Y-52041D01*
X70595Y-51989D01*
X69494Y-51254D01*
X69494Y-50719D01*
X69494Y-50442D01*
X69494Y-50345D01*
X69494Y-50067D01*
X69452Y-50025D01*
X69334Y-50025D01*
X69272Y-50051D01*
X69225Y-50098D01*
X69199Y-50160D01*
X69199Y-50226D01*
X69199Y-50303D01*
X69241Y-50345D01*
X69494Y-50345D01*
X69494Y-50442D01*
X69241Y-50442D01*
X69199Y-50484D01*
X69199Y-50560D01*
X69199Y-50627D01*
X69225Y-50689D01*
X69272Y-50736D01*
X69334Y-50761D01*
X69452Y-50761D01*
X69494Y-50719D01*
X69494Y-51254D01*
X68876Y-50843D01*
X68870Y-50837D01*
X68803Y-50809D01*
X67700Y-50590D01*
X67700Y-50062D01*
X67688Y-49878D01*
X67640Y-49762D01*
X67568Y-49731D01*
X67525Y-49775D01*
X67525Y-49257D01*
X67525Y-49106D01*
X67483Y-49064D01*
X67180Y-49064D01*
X67180Y-49416D01*
X67222Y-49458D01*
X67390Y-49458D01*
X67452Y-49433D01*
X67499Y-49386D01*
X67525Y-49324D01*
X67525Y-49257D01*
X67525Y-49775D01*
X67500Y-49800D01*
X67500Y-49663D01*
X67469Y-49591D01*
X67294Y-49531D01*
X67110Y-49543D01*
X67083Y-49554D01*
X67083Y-49416D01*
X67083Y-49064D01*
X66781Y-49064D01*
X66739Y-49106D01*
X66739Y-49257D01*
X66739Y-49324D01*
X66764Y-49386D01*
X66812Y-49433D01*
X66873Y-49458D01*
X67041Y-49458D01*
X67083Y-49416D01*
X67083Y-49554D01*
X66995Y-49591D01*
X66964Y-49663D01*
X67232Y-49931D01*
X67500Y-49663D01*
X67500Y-49800D01*
X67300Y-50000D01*
X67568Y-50268D01*
X67640Y-50237D01*
X67700Y-50062D01*
X67700Y-50590D01*
X67500Y-50551D01*
X67500Y-50336D01*
X67232Y-50068D01*
X67163Y-50136D01*
X67163Y-50000D01*
X66895Y-49731D01*
X66823Y-49762D01*
X66763Y-49937D01*
X66775Y-50121D01*
X66823Y-50237D01*
X66895Y-50268D01*
X67163Y-50000D01*
X67163Y-50136D01*
X66964Y-50336D01*
X66995Y-50408D01*
X67169Y-50468D01*
X67353Y-50456D01*
X67469Y-50408D01*
X67500Y-50336D01*
X67500Y-50551D01*
X66768Y-50406D01*
X66695Y-50406D01*
X66686Y-50409D01*
X66641Y-50418D01*
X66669Y-50390D01*
X66695Y-50328D01*
X66695Y-50261D01*
X66695Y-49671D01*
X66670Y-49609D01*
X66622Y-49562D01*
X66581Y-49545D01*
X66586Y-49458D01*
X66590Y-49458D01*
X66652Y-49433D01*
X66699Y-49386D01*
X66725Y-49324D01*
X66725Y-49257D01*
X66725Y-48869D01*
X66739Y-48869D01*
X66739Y-48925D01*
X66781Y-48967D01*
X67083Y-48967D01*
X67083Y-48959D01*
X67180Y-48959D01*
X67180Y-48967D01*
X67483Y-48967D01*
X67525Y-48925D01*
X67525Y-48774D01*
X67525Y-48730D01*
X67528Y-48728D01*
X67535Y-48727D01*
X67543Y-48721D01*
X67698Y-48721D01*
X68686Y-49310D01*
X68701Y-49315D01*
X68713Y-49323D01*
X68738Y-49328D01*
X68763Y-49337D01*
X68778Y-49336D01*
X68793Y-49339D01*
X69119Y-49339D01*
X69199Y-49323D01*
X69199Y-49323D01*
X69205Y-49319D01*
X69207Y-49321D01*
X69281Y-49370D01*
X69294Y-49373D01*
X69297Y-49387D01*
X69346Y-49460D01*
X69420Y-49509D01*
X69434Y-49512D01*
X69436Y-49526D01*
X69486Y-49600D01*
X69559Y-49649D01*
X69578Y-49652D01*
X69591Y-49680D01*
X69640Y-49680D01*
X69657Y-49664D01*
X69709Y-49653D01*
X69699Y-49705D01*
X69682Y-49722D01*
X69682Y-49771D01*
X69710Y-49785D01*
X69714Y-49804D01*
X69763Y-49877D01*
X69770Y-49882D01*
X69839Y-50078D01*
X69812Y-50051D01*
X69750Y-50025D01*
X69632Y-50025D01*
X69590Y-50067D01*
X69590Y-50345D01*
X69598Y-50345D01*
X69598Y-50442D01*
X69590Y-50442D01*
X69590Y-50719D01*
X69632Y-50761D01*
X69750Y-50761D01*
X69812Y-50736D01*
X69842Y-50706D01*
X69872Y-50736D01*
X69933Y-50761D01*
X70000Y-50761D01*
X70350Y-50761D01*
X70412Y-50736D01*
X70459Y-50689D01*
X70478Y-50644D01*
X70502Y-50639D01*
X70502Y-50639D01*
X70588Y-50582D01*
X70705Y-50465D01*
X70705Y-50465D01*
X70739Y-50415D01*
X70784Y-50536D01*
X70799Y-50559D01*
X70809Y-50582D01*
X71483Y-51540D01*
X71468Y-51555D01*
X71442Y-51617D01*
X71442Y-51684D01*
X71442Y-52034D01*
X71468Y-52096D01*
X71498Y-52125D01*
X71468Y-52155D01*
X71442Y-52217D01*
X71442Y-52284D01*
X71442Y-52634D01*
X71468Y-52696D01*
X71515Y-52743D01*
X71577Y-52769D01*
X71644Y-52769D01*
X71677Y-52769D01*
X71683Y-52778D01*
X71706Y-52812D01*
X72233Y-53344D01*
X72213Y-53391D01*
X72213Y-53458D01*
X72213Y-54088D01*
X72239Y-54150D01*
X72286Y-54197D01*
X72348Y-54223D01*
X72415Y-54223D01*
X72785Y-54223D01*
X72785Y-54641D01*
X72810Y-54703D01*
X72857Y-54750D01*
X72919Y-54776D01*
X72986Y-54776D01*
X73536Y-54776D01*
X73598Y-54751D01*
X73645Y-54703D01*
X73671Y-54642D01*
X73671Y-54575D01*
X73671Y-54223D01*
X73675Y-54223D01*
X74108Y-54223D01*
X74169Y-54197D01*
X74217Y-54150D01*
X74242Y-54088D01*
X74242Y-54021D01*
X74242Y-53391D01*
X74217Y-53330D01*
X74170Y-53282D01*
X74108Y-53257D01*
X74041Y-53257D01*
X73975Y-53257D01*
X73947Y-53213D01*
X73419Y-52680D01*
X73438Y-52634D01*
X73439Y-52567D01*
X73439Y-52217D01*
X73413Y-52155D01*
X73383Y-52125D01*
X73413Y-52096D01*
X73438Y-52034D01*
X73439Y-51967D01*
X73439Y-51617D01*
X73413Y-51555D01*
X73366Y-51508D01*
X73304Y-51482D01*
X73237Y-51482D01*
X73204Y-51482D01*
X73199Y-51476D01*
X73177Y-51441D01*
X72139Y-50366D01*
X72139Y-50239D01*
X72087Y-50112D01*
X71990Y-50015D01*
X71863Y-49962D01*
X71726Y-49962D01*
X71599Y-50015D01*
X71546Y-50068D01*
X71509Y-50031D01*
X71383Y-49979D01*
X71245Y-49979D01*
X71118Y-50031D01*
X71060Y-50089D01*
X71004Y-49941D01*
X71021Y-49945D01*
X71108Y-49927D01*
X71181Y-49878D01*
X71230Y-49804D01*
X71233Y-49791D01*
X71247Y-49788D01*
X71320Y-49739D01*
X71370Y-49665D01*
X71372Y-49651D01*
X71386Y-49649D01*
X71460Y-49600D01*
X71509Y-49526D01*
X71512Y-49512D01*
X71525Y-49509D01*
X71599Y-49460D01*
X71648Y-49387D01*
X71651Y-49373D01*
X71665Y-49370D01*
X71731Y-49326D01*
X73570Y-51046D01*
X73552Y-51088D01*
X73552Y-51272D01*
X73622Y-51443D01*
X73752Y-51573D01*
X73923Y-51644D01*
X74107Y-51644D01*
X74277Y-51574D01*
X74408Y-51443D01*
X74418Y-51419D01*
X74418Y-51941D01*
X74352Y-51912D01*
X74283Y-51981D01*
X74283Y-51844D01*
X74252Y-51772D01*
X74078Y-51712D01*
X73894Y-51724D01*
X73778Y-51772D01*
X73747Y-51844D01*
X74015Y-52112D01*
X74283Y-51844D01*
X74283Y-51981D01*
X74084Y-52181D01*
X74352Y-52449D01*
X74418Y-52420D01*
X74418Y-56898D01*
M02*
