G04 (created by PCBNEW (2013-07-07 BZR 4022)-stable) date 15/12/2014 22:10:53*
%MOIN*%
G04 Gerber Fmt 3.4, Leading zero omitted, Abs format*
%FSLAX34Y34*%
G01*
G70*
G90*
G04 APERTURE LIST*
%ADD10C,0.00590551*%
%ADD11C,0.00787402*%
%ADD12C,0.00625*%
%ADD13C,0.0063*%
G04 APERTURE END LIST*
G54D10*
X44400Y-22935D02*
X44400Y-23250D01*
X44400Y-23250D02*
X43218Y-23250D01*
X43218Y-23250D02*
X43218Y-22620D01*
X43218Y-22620D02*
X44400Y-22620D01*
X44400Y-22620D02*
X44400Y-22935D01*
X44905Y-24610D02*
X44984Y-24531D01*
X44984Y-24531D02*
X44984Y-24767D01*
X45063Y-24354D02*
X45201Y-24492D01*
X45063Y-24492D02*
X47031Y-24492D01*
X47031Y-24492D02*
X47031Y-22524D01*
X47031Y-22524D02*
X45063Y-22524D01*
X45063Y-22524D02*
X45063Y-24492D01*
X44408Y-23313D02*
X44467Y-23313D01*
X44467Y-23313D02*
X44467Y-23943D01*
X44467Y-23943D02*
X44408Y-23943D01*
X44408Y-23943D02*
X44506Y-23943D01*
X44506Y-23943D02*
X44506Y-23313D01*
X44506Y-23313D02*
X44467Y-23313D01*
X43226Y-23628D02*
X43226Y-23313D01*
X43226Y-23313D02*
X44408Y-23313D01*
X44408Y-23313D02*
X44408Y-23943D01*
X44408Y-23943D02*
X43226Y-23943D01*
X43226Y-23943D02*
X43226Y-23588D01*
G54D11*
X42900Y-25600D02*
X42900Y-25700D01*
X42900Y-25700D02*
X41900Y-25700D01*
X41900Y-25700D02*
X41900Y-25600D01*
X41900Y-25600D02*
X41900Y-25650D01*
X41900Y-25650D02*
X42900Y-25650D01*
X41900Y-24600D02*
X42900Y-24600D01*
X41900Y-25600D02*
X41900Y-21600D01*
X41900Y-21600D02*
X42900Y-21600D01*
X42900Y-21600D02*
X42900Y-25600D01*
X42900Y-25600D02*
X41900Y-25600D01*
X43174Y-21849D02*
X43224Y-21849D01*
X43224Y-20849D02*
X43124Y-20849D01*
X43124Y-20849D02*
X43124Y-21849D01*
X43124Y-21849D02*
X43174Y-21849D01*
X43174Y-21849D02*
X43174Y-20899D01*
X46224Y-21849D02*
X43224Y-21849D01*
X43224Y-20849D02*
X46224Y-20849D01*
X44224Y-20849D02*
X44224Y-21849D01*
X46224Y-20849D02*
X46224Y-21849D01*
X43224Y-21849D02*
X43224Y-20849D01*
X48433Y-23173D02*
X48433Y-25173D01*
X47433Y-23173D02*
X47433Y-25173D01*
X48433Y-25223D02*
X48433Y-25173D01*
X47433Y-25173D02*
X47433Y-25273D01*
X47433Y-25273D02*
X48433Y-25273D01*
X48433Y-25273D02*
X48433Y-25223D01*
X48433Y-25223D02*
X47483Y-25223D01*
X47433Y-24173D02*
X48433Y-24173D01*
X47433Y-23173D02*
X48433Y-23173D01*
X48433Y-25173D02*
X47433Y-25173D01*
G54D10*
X45885Y-25042D02*
X46200Y-25042D01*
X46200Y-25042D02*
X46200Y-26223D01*
X46200Y-26223D02*
X45570Y-26223D01*
X45570Y-26223D02*
X45570Y-25042D01*
X45570Y-25042D02*
X45885Y-25042D01*
X46771Y-22225D02*
X46456Y-22225D01*
X46456Y-22225D02*
X46456Y-21044D01*
X46456Y-21044D02*
X47086Y-21044D01*
X47086Y-21044D02*
X47086Y-22225D01*
X47086Y-22225D02*
X46771Y-22225D01*
X44979Y-25605D02*
X44979Y-25920D01*
X44979Y-25920D02*
X43797Y-25920D01*
X43797Y-25920D02*
X43797Y-25290D01*
X43797Y-25290D02*
X44979Y-25290D01*
X44979Y-25290D02*
X44979Y-25605D01*
X46568Y-25042D02*
X46883Y-25042D01*
X46883Y-25042D02*
X46883Y-26223D01*
X46883Y-26223D02*
X46253Y-26223D01*
X46253Y-26223D02*
X46253Y-25042D01*
X46253Y-25042D02*
X46568Y-25042D01*
G54D11*
X44821Y-24963D02*
X42821Y-24963D01*
X44821Y-23963D02*
X42821Y-23963D01*
X42771Y-24963D02*
X42821Y-24963D01*
X42821Y-23963D02*
X42721Y-23963D01*
X42721Y-23963D02*
X42721Y-24963D01*
X42721Y-24963D02*
X42771Y-24963D01*
X42771Y-24963D02*
X42771Y-24013D01*
X43821Y-23963D02*
X43821Y-24963D01*
X44821Y-23963D02*
X44821Y-24963D01*
X42821Y-24963D02*
X42821Y-23963D01*
G54D12*
X44964Y-25011D02*
X45107Y-25011D01*
X45035Y-25261D02*
X45035Y-25011D01*
X45190Y-25261D02*
X45190Y-25011D01*
X45285Y-25011D01*
X45309Y-25023D01*
X45321Y-25035D01*
X45333Y-25058D01*
X45333Y-25094D01*
X45321Y-25118D01*
X45309Y-25130D01*
X45285Y-25142D01*
X45190Y-25142D01*
X45571Y-25261D02*
X45428Y-25261D01*
X45500Y-25261D02*
X45500Y-25011D01*
X45476Y-25046D01*
X45452Y-25070D01*
X45428Y-25082D01*
G54D13*
G54D10*
X43840Y-22995D02*
X43761Y-22883D01*
X43705Y-22995D02*
X43705Y-22759D01*
X43795Y-22759D01*
X43818Y-22770D01*
X43829Y-22781D01*
X43840Y-22804D01*
X43840Y-22838D01*
X43829Y-22860D01*
X43818Y-22871D01*
X43795Y-22883D01*
X43705Y-22883D01*
X44065Y-22995D02*
X43930Y-22995D01*
X43998Y-22995D02*
X43998Y-22759D01*
X43975Y-22793D01*
X43953Y-22815D01*
X43930Y-22826D01*
X43665Y-22279D02*
X43553Y-22279D01*
X43541Y-22391D01*
X43553Y-22380D01*
X43575Y-22369D01*
X43631Y-22369D01*
X43654Y-22380D01*
X43665Y-22391D01*
X43676Y-22414D01*
X43676Y-22470D01*
X43665Y-22493D01*
X43654Y-22504D01*
X43631Y-22515D01*
X43575Y-22515D01*
X43553Y-22504D01*
X43541Y-22493D01*
X43901Y-22515D02*
X43766Y-22515D01*
X43834Y-22515D02*
X43834Y-22279D01*
X43811Y-22313D01*
X43789Y-22335D01*
X43766Y-22346D01*
X44138Y-22515D02*
X44059Y-22403D01*
X44003Y-22515D02*
X44003Y-22279D01*
X44093Y-22279D01*
X44115Y-22290D01*
X44126Y-22301D01*
X44138Y-22324D01*
X44138Y-22358D01*
X44126Y-22380D01*
X44115Y-22391D01*
X44093Y-22403D01*
X44003Y-22403D01*
X45767Y-23735D02*
X45767Y-23499D01*
X45823Y-23499D01*
X45857Y-23510D01*
X45880Y-23533D01*
X45891Y-23555D01*
X45902Y-23600D01*
X45902Y-23634D01*
X45891Y-23679D01*
X45880Y-23701D01*
X45857Y-23724D01*
X45823Y-23735D01*
X45767Y-23735D01*
X46003Y-23735D02*
X46003Y-23499D01*
X46060Y-23499D01*
X46093Y-23510D01*
X46116Y-23533D01*
X46127Y-23555D01*
X46138Y-23600D01*
X46138Y-23634D01*
X46127Y-23679D01*
X46116Y-23701D01*
X46093Y-23724D01*
X46060Y-23735D01*
X46003Y-23735D01*
X46363Y-23735D02*
X46228Y-23735D01*
X46296Y-23735D02*
X46296Y-23499D01*
X46273Y-23533D01*
X46251Y-23555D01*
X46228Y-23566D01*
X43510Y-22164D02*
X43544Y-22175D01*
X43600Y-22175D01*
X43623Y-22164D01*
X43634Y-22153D01*
X43645Y-22130D01*
X43645Y-22108D01*
X43634Y-22085D01*
X43623Y-22074D01*
X43600Y-22063D01*
X43555Y-22051D01*
X43533Y-22040D01*
X43522Y-22029D01*
X43510Y-22006D01*
X43510Y-21984D01*
X43522Y-21961D01*
X43533Y-21950D01*
X43555Y-21939D01*
X43612Y-21939D01*
X43645Y-21950D01*
X43713Y-21939D02*
X43848Y-21939D01*
X43780Y-22175D02*
X43780Y-21939D01*
X43926Y-22175D02*
X43926Y-21939D01*
X44005Y-22108D01*
X44084Y-21939D01*
X44084Y-22175D01*
X44174Y-21939D02*
X44320Y-21939D01*
X44241Y-22029D01*
X44275Y-22029D01*
X44298Y-22040D01*
X44309Y-22051D01*
X44320Y-22074D01*
X44320Y-22130D01*
X44309Y-22153D01*
X44298Y-22164D01*
X44275Y-22175D01*
X44208Y-22175D01*
X44185Y-22164D01*
X44174Y-22153D01*
X44410Y-21961D02*
X44421Y-21950D01*
X44444Y-21939D01*
X44500Y-21939D01*
X44523Y-21950D01*
X44534Y-21961D01*
X44545Y-21984D01*
X44545Y-22006D01*
X44534Y-22040D01*
X44399Y-22175D01*
X44545Y-22175D01*
X44725Y-22051D02*
X44646Y-22051D01*
X44646Y-22175D02*
X44646Y-21939D01*
X44759Y-21939D01*
X44894Y-21939D02*
X44916Y-21939D01*
X44939Y-21950D01*
X44950Y-21961D01*
X44961Y-21984D01*
X44973Y-22029D01*
X44973Y-22085D01*
X44961Y-22130D01*
X44950Y-22153D01*
X44939Y-22164D01*
X44916Y-22175D01*
X44894Y-22175D01*
X44871Y-22164D01*
X44860Y-22153D01*
X44849Y-22130D01*
X44838Y-22085D01*
X44838Y-22029D01*
X44849Y-21984D01*
X44860Y-21961D01*
X44871Y-21950D01*
X44894Y-21939D01*
X45186Y-21939D02*
X45074Y-21939D01*
X45063Y-22051D01*
X45074Y-22040D01*
X45096Y-22029D01*
X45153Y-22029D01*
X45175Y-22040D01*
X45186Y-22051D01*
X45198Y-22074D01*
X45198Y-22130D01*
X45186Y-22153D01*
X45175Y-22164D01*
X45153Y-22175D01*
X45096Y-22175D01*
X45074Y-22164D01*
X45063Y-22153D01*
X45344Y-21939D02*
X45366Y-21939D01*
X45389Y-21950D01*
X45400Y-21961D01*
X45411Y-21984D01*
X45423Y-22029D01*
X45423Y-22085D01*
X45411Y-22130D01*
X45400Y-22153D01*
X45389Y-22164D01*
X45366Y-22175D01*
X45344Y-22175D01*
X45321Y-22164D01*
X45310Y-22153D01*
X45299Y-22130D01*
X45288Y-22085D01*
X45288Y-22029D01*
X45299Y-21984D01*
X45310Y-21961D01*
X45321Y-21950D01*
X45344Y-21939D01*
X45524Y-22175D02*
X45524Y-21939D01*
X45659Y-22175D02*
X45558Y-22040D01*
X45659Y-21939D02*
X45524Y-22074D01*
X45861Y-22018D02*
X45861Y-22175D01*
X45805Y-21928D02*
X45749Y-22096D01*
X45895Y-22096D01*
X45929Y-22198D02*
X46109Y-22198D01*
X46266Y-21939D02*
X46221Y-21939D01*
X46199Y-21950D01*
X46187Y-21961D01*
X46165Y-21995D01*
X46154Y-22040D01*
X46154Y-22130D01*
X46165Y-22153D01*
X46176Y-22164D01*
X46199Y-22175D01*
X46244Y-22175D01*
X46266Y-22164D01*
X46277Y-22153D01*
X46289Y-22130D01*
X46289Y-22074D01*
X46277Y-22051D01*
X46266Y-22040D01*
X46244Y-22029D01*
X46199Y-22029D01*
X46176Y-22040D01*
X46165Y-22051D01*
X46154Y-22074D01*
X43685Y-23735D02*
X43685Y-23499D01*
X43741Y-23499D01*
X43775Y-23510D01*
X43798Y-23533D01*
X43809Y-23555D01*
X43820Y-23600D01*
X43820Y-23634D01*
X43809Y-23679D01*
X43798Y-23701D01*
X43775Y-23724D01*
X43741Y-23735D01*
X43685Y-23735D01*
X44045Y-23735D02*
X43910Y-23735D01*
X43978Y-23735D02*
X43978Y-23499D01*
X43955Y-23533D01*
X43933Y-23555D01*
X43910Y-23566D01*
X43155Y-23751D02*
X43155Y-23864D01*
X42919Y-23864D01*
X43031Y-23673D02*
X43031Y-23594D01*
X43155Y-23560D02*
X43155Y-23673D01*
X42919Y-23673D01*
X42919Y-23560D01*
X43155Y-23459D02*
X42919Y-23459D01*
X42919Y-23403D01*
X42930Y-23369D01*
X42953Y-23346D01*
X42975Y-23335D01*
X43020Y-23324D01*
X43054Y-23324D01*
X43099Y-23335D01*
X43121Y-23346D01*
X43144Y-23369D01*
X43155Y-23403D01*
X43155Y-23459D01*
X41531Y-25362D02*
X41767Y-25205D01*
X41531Y-25205D02*
X41767Y-25362D01*
X41767Y-25002D02*
X41767Y-25115D01*
X41531Y-25115D01*
X41531Y-24946D02*
X41531Y-24800D01*
X41621Y-24879D01*
X41621Y-24845D01*
X41632Y-24822D01*
X41643Y-24811D01*
X41666Y-24800D01*
X41722Y-24800D01*
X41745Y-24811D01*
X41756Y-24822D01*
X41767Y-24845D01*
X41767Y-24912D01*
X41756Y-24935D01*
X41745Y-24946D01*
X42453Y-21099D02*
X42610Y-21335D01*
X42610Y-21099D02*
X42453Y-21335D01*
X42813Y-21335D02*
X42700Y-21335D01*
X42700Y-21099D01*
X42993Y-21178D02*
X42993Y-21335D01*
X42936Y-21088D02*
X42880Y-21256D01*
X43026Y-21256D01*
X48044Y-26014D02*
X48055Y-25981D01*
X48055Y-25924D01*
X48044Y-25902D01*
X48033Y-25891D01*
X48010Y-25879D01*
X47988Y-25879D01*
X47965Y-25891D01*
X47954Y-25902D01*
X47943Y-25924D01*
X47931Y-25969D01*
X47920Y-25992D01*
X47909Y-26003D01*
X47886Y-26014D01*
X47864Y-26014D01*
X47841Y-26003D01*
X47830Y-25992D01*
X47819Y-25969D01*
X47819Y-25913D01*
X47830Y-25879D01*
X47819Y-25801D02*
X48055Y-25744D01*
X47886Y-25700D01*
X48055Y-25655D01*
X47819Y-25598D01*
X48055Y-25385D02*
X48055Y-25520D01*
X48055Y-25452D02*
X47819Y-25452D01*
X47853Y-25475D01*
X47875Y-25497D01*
X47886Y-25520D01*
X45993Y-25679D02*
X46004Y-25690D01*
X46015Y-25724D01*
X46015Y-25746D01*
X46004Y-25780D01*
X45981Y-25803D01*
X45959Y-25814D01*
X45914Y-25825D01*
X45880Y-25825D01*
X45835Y-25814D01*
X45813Y-25803D01*
X45790Y-25780D01*
X45779Y-25746D01*
X45779Y-25724D01*
X45790Y-25690D01*
X45801Y-25679D01*
X45858Y-25476D02*
X46015Y-25476D01*
X45768Y-25533D02*
X45936Y-25589D01*
X45936Y-25443D01*
X45513Y-26339D02*
X45535Y-26339D01*
X45558Y-26350D01*
X45569Y-26361D01*
X45580Y-26384D01*
X45591Y-26429D01*
X45591Y-26485D01*
X45580Y-26530D01*
X45569Y-26553D01*
X45558Y-26564D01*
X45535Y-26575D01*
X45513Y-26575D01*
X45490Y-26564D01*
X45479Y-26553D01*
X45468Y-26530D01*
X45456Y-26485D01*
X45456Y-26429D01*
X45468Y-26384D01*
X45479Y-26361D01*
X45490Y-26350D01*
X45513Y-26339D01*
X45693Y-26553D02*
X45704Y-26564D01*
X45693Y-26575D01*
X45681Y-26564D01*
X45693Y-26553D01*
X45693Y-26575D01*
X45929Y-26575D02*
X45794Y-26575D01*
X45861Y-26575D02*
X45861Y-26339D01*
X45839Y-26373D01*
X45816Y-26395D01*
X45794Y-26406D01*
X46131Y-26418D02*
X46131Y-26575D01*
X46030Y-26418D02*
X46030Y-26541D01*
X46041Y-26564D01*
X46064Y-26575D01*
X46098Y-26575D01*
X46120Y-26564D01*
X46131Y-26553D01*
X46344Y-21699D02*
X46356Y-21710D01*
X46367Y-21744D01*
X46367Y-21766D01*
X46356Y-21800D01*
X46333Y-21822D01*
X46311Y-21834D01*
X46266Y-21845D01*
X46232Y-21845D01*
X46187Y-21834D01*
X46164Y-21822D01*
X46142Y-21800D01*
X46131Y-21766D01*
X46131Y-21744D01*
X46142Y-21710D01*
X46153Y-21699D01*
X46153Y-21609D02*
X46142Y-21597D01*
X46131Y-21575D01*
X46131Y-21519D01*
X46142Y-21496D01*
X46153Y-21485D01*
X46176Y-21474D01*
X46198Y-21474D01*
X46232Y-21485D01*
X46367Y-21620D01*
X46367Y-21474D01*
X47182Y-21882D02*
X47182Y-21860D01*
X47193Y-21837D01*
X47204Y-21826D01*
X47227Y-21815D01*
X47272Y-21803D01*
X47328Y-21803D01*
X47373Y-21815D01*
X47395Y-21826D01*
X47407Y-21837D01*
X47418Y-21860D01*
X47418Y-21882D01*
X47407Y-21905D01*
X47395Y-21916D01*
X47373Y-21927D01*
X47328Y-21938D01*
X47272Y-21938D01*
X47227Y-21927D01*
X47204Y-21916D01*
X47193Y-21905D01*
X47182Y-21882D01*
X47395Y-21702D02*
X47407Y-21691D01*
X47418Y-21702D01*
X47407Y-21713D01*
X47395Y-21702D01*
X47418Y-21702D01*
X47418Y-21466D02*
X47418Y-21601D01*
X47418Y-21533D02*
X47182Y-21533D01*
X47215Y-21556D01*
X47238Y-21578D01*
X47249Y-21601D01*
X47260Y-21263D02*
X47418Y-21263D01*
X47260Y-21365D02*
X47384Y-21365D01*
X47407Y-21353D01*
X47418Y-21331D01*
X47418Y-21297D01*
X47407Y-21275D01*
X47395Y-21263D01*
X44360Y-25713D02*
X44349Y-25724D01*
X44315Y-25735D01*
X44293Y-25735D01*
X44259Y-25724D01*
X44236Y-25701D01*
X44225Y-25679D01*
X44214Y-25634D01*
X44214Y-25600D01*
X44225Y-25555D01*
X44236Y-25533D01*
X44259Y-25510D01*
X44293Y-25499D01*
X44315Y-25499D01*
X44349Y-25510D01*
X44360Y-25521D01*
X44585Y-25735D02*
X44450Y-25735D01*
X44518Y-25735D02*
X44518Y-25499D01*
X44495Y-25533D01*
X44473Y-25555D01*
X44450Y-25566D01*
X44153Y-26019D02*
X44175Y-26019D01*
X44198Y-26030D01*
X44209Y-26041D01*
X44220Y-26064D01*
X44231Y-26109D01*
X44231Y-26165D01*
X44220Y-26210D01*
X44209Y-26233D01*
X44198Y-26244D01*
X44175Y-26255D01*
X44153Y-26255D01*
X44130Y-26244D01*
X44119Y-26233D01*
X44108Y-26210D01*
X44096Y-26165D01*
X44096Y-26109D01*
X44108Y-26064D01*
X44119Y-26041D01*
X44130Y-26030D01*
X44153Y-26019D01*
X44333Y-26233D02*
X44344Y-26244D01*
X44333Y-26255D01*
X44321Y-26244D01*
X44333Y-26233D01*
X44333Y-26255D01*
X44569Y-26255D02*
X44434Y-26255D01*
X44501Y-26255D02*
X44501Y-26019D01*
X44479Y-26053D01*
X44456Y-26075D01*
X44434Y-26086D01*
X44771Y-26098D02*
X44771Y-26255D01*
X44670Y-26098D02*
X44670Y-26221D01*
X44681Y-26244D01*
X44704Y-26255D01*
X44738Y-26255D01*
X44760Y-26244D01*
X44771Y-26233D01*
X46673Y-25659D02*
X46684Y-25670D01*
X46695Y-25704D01*
X46695Y-25726D01*
X46684Y-25760D01*
X46661Y-25783D01*
X46639Y-25794D01*
X46594Y-25805D01*
X46560Y-25805D01*
X46515Y-25794D01*
X46493Y-25783D01*
X46470Y-25760D01*
X46459Y-25726D01*
X46459Y-25704D01*
X46470Y-25670D01*
X46481Y-25659D01*
X46459Y-25580D02*
X46459Y-25434D01*
X46549Y-25513D01*
X46549Y-25479D01*
X46560Y-25456D01*
X46571Y-25445D01*
X46594Y-25434D01*
X46650Y-25434D01*
X46673Y-25445D01*
X46684Y-25456D01*
X46695Y-25479D01*
X46695Y-25546D01*
X46684Y-25569D01*
X46673Y-25580D01*
X46600Y-26575D02*
X46465Y-26575D01*
X46533Y-26575D02*
X46533Y-26339D01*
X46510Y-26373D01*
X46488Y-26395D01*
X46465Y-26406D01*
X46803Y-26418D02*
X46803Y-26575D01*
X46701Y-26418D02*
X46701Y-26541D01*
X46713Y-26564D01*
X46735Y-26575D01*
X46769Y-26575D01*
X46791Y-26564D01*
X46803Y-26553D01*
X43133Y-25079D02*
X43290Y-25315D01*
X43290Y-25079D02*
X43133Y-25315D01*
X43493Y-25315D02*
X43380Y-25315D01*
X43380Y-25079D01*
X43695Y-25315D02*
X43560Y-25315D01*
X43628Y-25315D02*
X43628Y-25079D01*
X43605Y-25113D01*
X43583Y-25135D01*
X43560Y-25146D01*
M02*
