G04 (created by PCBNEW (2013-07-07 BZR 4022)-stable) date 12/7/2014 2:09:54 AM*
%MOIN*%
G04 Gerber Fmt 3.4, Leading zero omitted, Abs format*
%FSLAX34Y34*%
G01*
G70*
G90*
G04 APERTURE LIST*
%ADD10C,0.00590551*%
%ADD11R,0.0393701X0.0393701*%
%ADD12R,0.0590551X0.0590551*%
%ADD13C,0.0590551*%
%ADD14R,0.1181X0.1024*%
%ADD15R,0.1102X0.1417*%
%ADD16C,0.0354331*%
%ADD17C,0.019685*%
%ADD18C,0.01*%
G04 APERTURE END LIST*
G54D10*
G54D11*
X46047Y-23508D03*
X46440Y-23508D03*
X45653Y-23508D03*
X45653Y-23114D03*
X46047Y-23114D03*
X46440Y-23114D03*
X45653Y-23901D03*
X46047Y-23901D03*
X46440Y-23901D03*
G54D12*
X42400Y-25100D03*
G54D13*
X42400Y-24100D03*
X42400Y-23100D03*
X42400Y-22100D03*
G54D12*
X43724Y-21349D03*
G54D13*
X44724Y-21349D03*
X45724Y-21349D03*
G54D12*
X47933Y-24673D03*
G54D13*
X47933Y-23673D03*
G54D14*
X41254Y-24000D03*
G54D15*
X49639Y-24000D03*
G54D12*
X43321Y-24463D03*
G54D13*
X44321Y-24463D03*
G54D16*
X48832Y-24284D03*
X46215Y-21637D03*
X45428Y-26082D03*
G54D17*
X49088Y-24284D02*
X48832Y-24284D01*
X49186Y-24284D02*
X49088Y-24284D01*
X49639Y-24000D02*
X49186Y-24284D01*
X44321Y-24463D02*
X45428Y-26082D01*
X44938Y-21859D02*
X45724Y-21349D01*
X42232Y-23116D02*
X44938Y-21859D01*
X41942Y-23528D02*
X42232Y-23116D01*
X41885Y-23586D02*
X41942Y-23528D01*
X41844Y-23586D02*
X41885Y-23586D01*
X41746Y-23586D02*
X41844Y-23586D01*
X41254Y-24000D02*
X41746Y-23586D01*
X45724Y-21349D02*
X46215Y-21637D01*
X46145Y-23015D02*
X46047Y-23114D01*
X46145Y-22917D02*
X46145Y-23015D01*
X46145Y-22876D02*
X46145Y-22917D01*
X46215Y-21637D02*
X46145Y-22876D01*
X46678Y-23606D02*
X47933Y-23673D01*
X46637Y-23606D02*
X46678Y-23606D01*
X46539Y-23606D02*
X46637Y-23606D01*
X46440Y-23508D02*
X46539Y-23606D01*
G54D10*
G36*
X45711Y-23098D02*
X45708Y-23099D01*
X45638Y-23169D01*
X45637Y-23172D01*
X45603Y-23172D01*
X45603Y-23164D01*
X45603Y-23123D01*
X45544Y-23064D01*
X45603Y-23064D01*
X45603Y-23004D01*
X45662Y-23064D01*
X45703Y-23064D01*
X45711Y-23064D01*
X45711Y-23098D01*
X45711Y-23098D01*
G37*
G54D18*
X45711Y-23098D02*
X45708Y-23099D01*
X45638Y-23169D01*
X45637Y-23172D01*
X45603Y-23172D01*
X45603Y-23164D01*
X45603Y-23123D01*
X45544Y-23064D01*
X45603Y-23064D01*
X45603Y-23004D01*
X45662Y-23064D01*
X45703Y-23064D01*
X45711Y-23064D01*
X45711Y-23098D01*
G54D10*
G36*
X45711Y-23951D02*
X45703Y-23951D01*
X45662Y-23951D01*
X45603Y-24011D01*
X45603Y-23951D01*
X45544Y-23951D01*
X45603Y-23892D01*
X45603Y-23851D01*
X45603Y-23843D01*
X45637Y-23843D01*
X45638Y-23846D01*
X45708Y-23916D01*
X45711Y-23917D01*
X45711Y-23951D01*
X45711Y-23951D01*
G37*
G54D18*
X45711Y-23951D02*
X45703Y-23951D01*
X45662Y-23951D01*
X45603Y-24011D01*
X45603Y-23951D01*
X45544Y-23951D01*
X45603Y-23892D01*
X45603Y-23851D01*
X45603Y-23843D01*
X45637Y-23843D01*
X45638Y-23846D01*
X45708Y-23916D01*
X45711Y-23917D01*
X45711Y-23951D01*
G54D10*
G36*
X46550Y-23064D02*
X46490Y-23123D01*
X46490Y-23164D01*
X46490Y-23172D01*
X46457Y-23172D01*
X46455Y-23169D01*
X46385Y-23099D01*
X46383Y-23098D01*
X46383Y-23064D01*
X46390Y-23064D01*
X46431Y-23064D01*
X46490Y-23004D01*
X46490Y-23064D01*
X46550Y-23064D01*
X46550Y-23064D01*
G37*
G54D18*
X46550Y-23064D02*
X46490Y-23123D01*
X46490Y-23164D01*
X46490Y-23172D01*
X46457Y-23172D01*
X46455Y-23169D01*
X46385Y-23099D01*
X46383Y-23098D01*
X46383Y-23064D01*
X46390Y-23064D01*
X46431Y-23064D01*
X46490Y-23004D01*
X46490Y-23064D01*
X46550Y-23064D01*
G54D10*
G36*
X46550Y-23951D02*
X46490Y-23951D01*
X46490Y-24011D01*
X46431Y-23951D01*
X46390Y-23951D01*
X46383Y-23951D01*
X46383Y-23917D01*
X46385Y-23916D01*
X46455Y-23846D01*
X46457Y-23843D01*
X46490Y-23843D01*
X46490Y-23851D01*
X46490Y-23892D01*
X46550Y-23951D01*
X46550Y-23951D01*
G37*
G54D18*
X46550Y-23951D02*
X46490Y-23951D01*
X46490Y-24011D01*
X46431Y-23951D01*
X46390Y-23951D01*
X46383Y-23951D01*
X46383Y-23917D01*
X46385Y-23916D01*
X46455Y-23846D01*
X46457Y-23843D01*
X46490Y-23843D01*
X46490Y-23851D01*
X46490Y-23892D01*
X46550Y-23951D01*
G54D10*
G36*
X49060Y-24876D02*
X49052Y-24920D01*
X49052Y-27012D01*
X48483Y-27012D01*
X48483Y-23753D01*
X48472Y-23537D01*
X48411Y-23388D01*
X48316Y-23361D01*
X48245Y-23432D01*
X48245Y-23290D01*
X48218Y-23195D01*
X48014Y-23123D01*
X47797Y-23134D01*
X47648Y-23195D01*
X47622Y-23290D01*
X47933Y-23602D01*
X48245Y-23290D01*
X48245Y-23432D01*
X48004Y-23673D01*
X48316Y-23985D01*
X48411Y-23958D01*
X48483Y-23753D01*
X48483Y-27012D01*
X48397Y-27012D01*
X48397Y-24935D01*
X48397Y-24344D01*
X48371Y-24282D01*
X48324Y-24235D01*
X48262Y-24209D01*
X48195Y-24209D01*
X48075Y-24209D01*
X48218Y-24150D01*
X48245Y-24055D01*
X47933Y-23743D01*
X47863Y-23814D01*
X47863Y-23673D01*
X47551Y-23361D01*
X47456Y-23388D01*
X47383Y-23592D01*
X47394Y-23809D01*
X47456Y-23958D01*
X47551Y-23985D01*
X47863Y-23673D01*
X47863Y-23814D01*
X47622Y-24055D01*
X47648Y-24150D01*
X47815Y-24209D01*
X47605Y-24209D01*
X47543Y-24235D01*
X47496Y-24282D01*
X47470Y-24344D01*
X47470Y-24411D01*
X47470Y-25001D01*
X47495Y-25063D01*
X47543Y-25110D01*
X47604Y-25136D01*
X47671Y-25136D01*
X48262Y-25136D01*
X48324Y-25111D01*
X48371Y-25063D01*
X48397Y-25002D01*
X48397Y-24935D01*
X48397Y-27012D01*
X46887Y-27012D01*
X46887Y-24049D01*
X46887Y-24014D01*
X46825Y-23951D01*
X46695Y-23951D01*
X46779Y-23916D01*
X46849Y-23846D01*
X46863Y-23813D01*
X46887Y-23789D01*
X46887Y-23754D01*
X46887Y-23704D01*
X46887Y-23655D01*
X46887Y-23620D01*
X46863Y-23596D01*
X46849Y-23563D01*
X46794Y-23508D01*
X46849Y-23452D01*
X46863Y-23420D01*
X46887Y-23395D01*
X46887Y-23360D01*
X46887Y-23311D01*
X46887Y-23261D01*
X46887Y-23226D01*
X46863Y-23202D01*
X46849Y-23169D01*
X46779Y-23099D01*
X46695Y-23064D01*
X46825Y-23064D01*
X46887Y-23001D01*
X46887Y-22966D01*
X46887Y-22867D01*
X46849Y-22775D01*
X46779Y-22705D01*
X46687Y-22667D01*
X46553Y-22667D01*
X46490Y-22729D01*
X46490Y-22860D01*
X46455Y-22775D01*
X46385Y-22705D01*
X46352Y-22691D01*
X46328Y-22667D01*
X46293Y-22667D01*
X46293Y-22667D01*
X46274Y-22667D01*
X46244Y-22667D01*
X46194Y-22667D01*
X46194Y-22667D01*
X46159Y-22667D01*
X46135Y-22691D01*
X46102Y-22705D01*
X46047Y-22760D01*
X46036Y-22749D01*
X46036Y-21732D01*
X45724Y-21420D01*
X45412Y-21732D01*
X45439Y-21827D01*
X45643Y-21899D01*
X45860Y-21888D01*
X46009Y-21827D01*
X46036Y-21732D01*
X46036Y-22749D01*
X45991Y-22705D01*
X45959Y-22691D01*
X45934Y-22667D01*
X45899Y-22667D01*
X45899Y-22667D01*
X45850Y-22667D01*
X45800Y-22667D01*
X45800Y-22667D01*
X45766Y-22667D01*
X45741Y-22691D01*
X45708Y-22705D01*
X45638Y-22775D01*
X45603Y-22860D01*
X45603Y-22729D01*
X45541Y-22667D01*
X45407Y-22667D01*
X45315Y-22705D01*
X45244Y-22775D01*
X45206Y-22867D01*
X45206Y-22966D01*
X45206Y-23001D01*
X45269Y-23064D01*
X45399Y-23064D01*
X45315Y-23099D01*
X45244Y-23169D01*
X45231Y-23202D01*
X45206Y-23226D01*
X45206Y-23261D01*
X45206Y-23311D01*
X45206Y-23360D01*
X45206Y-23395D01*
X45231Y-23420D01*
X45244Y-23452D01*
X45300Y-23508D01*
X45244Y-23563D01*
X45231Y-23596D01*
X45206Y-23620D01*
X45206Y-23655D01*
X45206Y-23704D01*
X45206Y-23754D01*
X45206Y-23789D01*
X45231Y-23813D01*
X45244Y-23846D01*
X45315Y-23916D01*
X45399Y-23951D01*
X45269Y-23951D01*
X45206Y-24014D01*
X45206Y-24049D01*
X45206Y-24148D01*
X45244Y-24240D01*
X45315Y-24310D01*
X45407Y-24348D01*
X45541Y-24348D01*
X45603Y-24286D01*
X45603Y-24156D01*
X45638Y-24240D01*
X45708Y-24310D01*
X45741Y-24324D01*
X45766Y-24348D01*
X45800Y-24348D01*
X45800Y-24348D01*
X45850Y-24348D01*
X45899Y-24348D01*
X45899Y-24348D01*
X45934Y-24348D01*
X45959Y-24324D01*
X45991Y-24310D01*
X46047Y-24255D01*
X46102Y-24310D01*
X46135Y-24324D01*
X46159Y-24348D01*
X46194Y-24348D01*
X46194Y-24348D01*
X46244Y-24348D01*
X46293Y-24348D01*
X46293Y-24348D01*
X46328Y-24348D01*
X46352Y-24324D01*
X46385Y-24310D01*
X46455Y-24240D01*
X46490Y-24156D01*
X46490Y-24286D01*
X46553Y-24348D01*
X46687Y-24348D01*
X46779Y-24310D01*
X46849Y-24240D01*
X46887Y-24148D01*
X46887Y-24049D01*
X46887Y-27012D01*
X44871Y-27012D01*
X44871Y-24543D01*
X44860Y-24327D01*
X44798Y-24178D01*
X44703Y-24151D01*
X44633Y-24222D01*
X44633Y-24080D01*
X44606Y-23985D01*
X44402Y-23913D01*
X44185Y-23924D01*
X44036Y-23985D01*
X44009Y-24080D01*
X44321Y-24392D01*
X44633Y-24080D01*
X44633Y-24222D01*
X44392Y-24463D01*
X44703Y-24774D01*
X44798Y-24748D01*
X44871Y-24543D01*
X44871Y-27012D01*
X44633Y-27012D01*
X44633Y-24845D01*
X44321Y-24533D01*
X44250Y-24604D01*
X44250Y-24463D01*
X43938Y-24151D01*
X43844Y-24178D01*
X43784Y-24344D01*
X43784Y-24134D01*
X43759Y-24072D01*
X43712Y-24025D01*
X43650Y-23999D01*
X43583Y-23999D01*
X42992Y-23999D01*
X42950Y-24017D01*
X42950Y-23180D01*
X42939Y-22963D01*
X42877Y-22814D01*
X42863Y-22811D01*
X42863Y-22008D01*
X42793Y-21837D01*
X42662Y-21707D01*
X42492Y-21636D01*
X42308Y-21636D01*
X42137Y-21706D01*
X42007Y-21837D01*
X41936Y-22007D01*
X41936Y-22191D01*
X42006Y-22362D01*
X42137Y-22492D01*
X42297Y-22559D01*
X42263Y-22560D01*
X42114Y-22622D01*
X42088Y-22717D01*
X42400Y-23029D01*
X42711Y-22717D01*
X42685Y-22622D01*
X42504Y-22558D01*
X42662Y-22493D01*
X42792Y-22362D01*
X42863Y-22192D01*
X42863Y-22008D01*
X42863Y-22811D01*
X42782Y-22788D01*
X42470Y-23100D01*
X42782Y-23411D01*
X42877Y-23385D01*
X42950Y-23180D01*
X42950Y-24017D01*
X42931Y-24025D01*
X42883Y-24072D01*
X42863Y-24121D01*
X42863Y-24008D01*
X42793Y-23837D01*
X42662Y-23707D01*
X42502Y-23640D01*
X42536Y-23639D01*
X42685Y-23577D01*
X42711Y-23482D01*
X42400Y-23170D01*
X42394Y-23176D01*
X42323Y-23105D01*
X42329Y-23100D01*
X42017Y-22788D01*
X41922Y-22814D01*
X41849Y-23019D01*
X41860Y-23236D01*
X41861Y-23237D01*
X41366Y-23238D01*
X41304Y-23300D01*
X41304Y-23950D01*
X41311Y-23950D01*
X41311Y-24050D01*
X41304Y-24050D01*
X41304Y-24699D01*
X41366Y-24762D01*
X41894Y-24762D01*
X41950Y-24738D01*
X41936Y-24771D01*
X41936Y-24838D01*
X41936Y-25428D01*
X41962Y-25490D01*
X42009Y-25537D01*
X42071Y-25563D01*
X42138Y-25563D01*
X42728Y-25563D01*
X42790Y-25537D01*
X42837Y-25490D01*
X42863Y-25428D01*
X42863Y-25361D01*
X42863Y-24804D01*
X42883Y-24853D01*
X42930Y-24900D01*
X42992Y-24926D01*
X43059Y-24926D01*
X43649Y-24926D01*
X43711Y-24901D01*
X43759Y-24853D01*
X43784Y-24792D01*
X43784Y-24725D01*
X43784Y-24605D01*
X43844Y-24748D01*
X43938Y-24774D01*
X44250Y-24463D01*
X44250Y-24604D01*
X44009Y-24845D01*
X44036Y-24940D01*
X44240Y-25013D01*
X44457Y-25002D01*
X44606Y-24940D01*
X44633Y-24845D01*
X44633Y-27012D01*
X41627Y-27012D01*
X40763Y-24762D01*
X41141Y-24762D01*
X41204Y-24699D01*
X41204Y-24050D01*
X41196Y-24050D01*
X41196Y-23950D01*
X41204Y-23950D01*
X41204Y-23300D01*
X41141Y-23238D01*
X40763Y-23237D01*
X41627Y-20987D01*
X43274Y-20987D01*
X43261Y-21020D01*
X43260Y-21087D01*
X43260Y-21678D01*
X43286Y-21740D01*
X43333Y-21787D01*
X43395Y-21813D01*
X43462Y-21813D01*
X44052Y-21813D01*
X44114Y-21787D01*
X44162Y-21740D01*
X44187Y-21678D01*
X44187Y-21611D01*
X44187Y-21021D01*
X44174Y-20987D01*
X44431Y-20987D01*
X44331Y-21086D01*
X44261Y-21257D01*
X44260Y-21441D01*
X44331Y-21611D01*
X44461Y-21742D01*
X44631Y-21813D01*
X44816Y-21813D01*
X44986Y-21742D01*
X45117Y-21612D01*
X45183Y-21452D01*
X45185Y-21485D01*
X45247Y-21634D01*
X45341Y-21661D01*
X45653Y-21349D01*
X45648Y-21344D01*
X45718Y-21273D01*
X45724Y-21279D01*
X45729Y-21273D01*
X45800Y-21344D01*
X45795Y-21349D01*
X46106Y-21661D01*
X46201Y-21634D01*
X46274Y-21430D01*
X46263Y-21213D01*
X46201Y-21064D01*
X46106Y-21037D01*
X46152Y-20992D01*
X46147Y-20987D01*
X49052Y-20987D01*
X49052Y-23080D01*
X49060Y-23123D01*
X49054Y-23123D01*
X48992Y-23148D01*
X48945Y-23196D01*
X48919Y-23257D01*
X48919Y-23324D01*
X48919Y-23947D01*
X48901Y-23939D01*
X48763Y-23939D01*
X48636Y-23991D01*
X48539Y-24088D01*
X48486Y-24215D01*
X48486Y-24352D01*
X48539Y-24479D01*
X48636Y-24577D01*
X48763Y-24629D01*
X48900Y-24629D01*
X48919Y-24621D01*
X48919Y-24741D01*
X48945Y-24803D01*
X48992Y-24850D01*
X49054Y-24876D01*
X49060Y-24876D01*
X49060Y-24876D01*
G37*
G54D18*
X49060Y-24876D02*
X49052Y-24920D01*
X49052Y-27012D01*
X48483Y-27012D01*
X48483Y-23753D01*
X48472Y-23537D01*
X48411Y-23388D01*
X48316Y-23361D01*
X48245Y-23432D01*
X48245Y-23290D01*
X48218Y-23195D01*
X48014Y-23123D01*
X47797Y-23134D01*
X47648Y-23195D01*
X47622Y-23290D01*
X47933Y-23602D01*
X48245Y-23290D01*
X48245Y-23432D01*
X48004Y-23673D01*
X48316Y-23985D01*
X48411Y-23958D01*
X48483Y-23753D01*
X48483Y-27012D01*
X48397Y-27012D01*
X48397Y-24935D01*
X48397Y-24344D01*
X48371Y-24282D01*
X48324Y-24235D01*
X48262Y-24209D01*
X48195Y-24209D01*
X48075Y-24209D01*
X48218Y-24150D01*
X48245Y-24055D01*
X47933Y-23743D01*
X47863Y-23814D01*
X47863Y-23673D01*
X47551Y-23361D01*
X47456Y-23388D01*
X47383Y-23592D01*
X47394Y-23809D01*
X47456Y-23958D01*
X47551Y-23985D01*
X47863Y-23673D01*
X47863Y-23814D01*
X47622Y-24055D01*
X47648Y-24150D01*
X47815Y-24209D01*
X47605Y-24209D01*
X47543Y-24235D01*
X47496Y-24282D01*
X47470Y-24344D01*
X47470Y-24411D01*
X47470Y-25001D01*
X47495Y-25063D01*
X47543Y-25110D01*
X47604Y-25136D01*
X47671Y-25136D01*
X48262Y-25136D01*
X48324Y-25111D01*
X48371Y-25063D01*
X48397Y-25002D01*
X48397Y-24935D01*
X48397Y-27012D01*
X46887Y-27012D01*
X46887Y-24049D01*
X46887Y-24014D01*
X46825Y-23951D01*
X46695Y-23951D01*
X46779Y-23916D01*
X46849Y-23846D01*
X46863Y-23813D01*
X46887Y-23789D01*
X46887Y-23754D01*
X46887Y-23704D01*
X46887Y-23655D01*
X46887Y-23620D01*
X46863Y-23596D01*
X46849Y-23563D01*
X46794Y-23508D01*
X46849Y-23452D01*
X46863Y-23420D01*
X46887Y-23395D01*
X46887Y-23360D01*
X46887Y-23311D01*
X46887Y-23261D01*
X46887Y-23226D01*
X46863Y-23202D01*
X46849Y-23169D01*
X46779Y-23099D01*
X46695Y-23064D01*
X46825Y-23064D01*
X46887Y-23001D01*
X46887Y-22966D01*
X46887Y-22867D01*
X46849Y-22775D01*
X46779Y-22705D01*
X46687Y-22667D01*
X46553Y-22667D01*
X46490Y-22729D01*
X46490Y-22860D01*
X46455Y-22775D01*
X46385Y-22705D01*
X46352Y-22691D01*
X46328Y-22667D01*
X46293Y-22667D01*
X46293Y-22667D01*
X46274Y-22667D01*
X46244Y-22667D01*
X46194Y-22667D01*
X46194Y-22667D01*
X46159Y-22667D01*
X46135Y-22691D01*
X46102Y-22705D01*
X46047Y-22760D01*
X46036Y-22749D01*
X46036Y-21732D01*
X45724Y-21420D01*
X45412Y-21732D01*
X45439Y-21827D01*
X45643Y-21899D01*
X45860Y-21888D01*
X46009Y-21827D01*
X46036Y-21732D01*
X46036Y-22749D01*
X45991Y-22705D01*
X45959Y-22691D01*
X45934Y-22667D01*
X45899Y-22667D01*
X45899Y-22667D01*
X45850Y-22667D01*
X45800Y-22667D01*
X45800Y-22667D01*
X45766Y-22667D01*
X45741Y-22691D01*
X45708Y-22705D01*
X45638Y-22775D01*
X45603Y-22860D01*
X45603Y-22729D01*
X45541Y-22667D01*
X45407Y-22667D01*
X45315Y-22705D01*
X45244Y-22775D01*
X45206Y-22867D01*
X45206Y-22966D01*
X45206Y-23001D01*
X45269Y-23064D01*
X45399Y-23064D01*
X45315Y-23099D01*
X45244Y-23169D01*
X45231Y-23202D01*
X45206Y-23226D01*
X45206Y-23261D01*
X45206Y-23311D01*
X45206Y-23360D01*
X45206Y-23395D01*
X45231Y-23420D01*
X45244Y-23452D01*
X45300Y-23508D01*
X45244Y-23563D01*
X45231Y-23596D01*
X45206Y-23620D01*
X45206Y-23655D01*
X45206Y-23704D01*
X45206Y-23754D01*
X45206Y-23789D01*
X45231Y-23813D01*
X45244Y-23846D01*
X45315Y-23916D01*
X45399Y-23951D01*
X45269Y-23951D01*
X45206Y-24014D01*
X45206Y-24049D01*
X45206Y-24148D01*
X45244Y-24240D01*
X45315Y-24310D01*
X45407Y-24348D01*
X45541Y-24348D01*
X45603Y-24286D01*
X45603Y-24156D01*
X45638Y-24240D01*
X45708Y-24310D01*
X45741Y-24324D01*
X45766Y-24348D01*
X45800Y-24348D01*
X45800Y-24348D01*
X45850Y-24348D01*
X45899Y-24348D01*
X45899Y-24348D01*
X45934Y-24348D01*
X45959Y-24324D01*
X45991Y-24310D01*
X46047Y-24255D01*
X46102Y-24310D01*
X46135Y-24324D01*
X46159Y-24348D01*
X46194Y-24348D01*
X46194Y-24348D01*
X46244Y-24348D01*
X46293Y-24348D01*
X46293Y-24348D01*
X46328Y-24348D01*
X46352Y-24324D01*
X46385Y-24310D01*
X46455Y-24240D01*
X46490Y-24156D01*
X46490Y-24286D01*
X46553Y-24348D01*
X46687Y-24348D01*
X46779Y-24310D01*
X46849Y-24240D01*
X46887Y-24148D01*
X46887Y-24049D01*
X46887Y-27012D01*
X44871Y-27012D01*
X44871Y-24543D01*
X44860Y-24327D01*
X44798Y-24178D01*
X44703Y-24151D01*
X44633Y-24222D01*
X44633Y-24080D01*
X44606Y-23985D01*
X44402Y-23913D01*
X44185Y-23924D01*
X44036Y-23985D01*
X44009Y-24080D01*
X44321Y-24392D01*
X44633Y-24080D01*
X44633Y-24222D01*
X44392Y-24463D01*
X44703Y-24774D01*
X44798Y-24748D01*
X44871Y-24543D01*
X44871Y-27012D01*
X44633Y-27012D01*
X44633Y-24845D01*
X44321Y-24533D01*
X44250Y-24604D01*
X44250Y-24463D01*
X43938Y-24151D01*
X43844Y-24178D01*
X43784Y-24344D01*
X43784Y-24134D01*
X43759Y-24072D01*
X43712Y-24025D01*
X43650Y-23999D01*
X43583Y-23999D01*
X42992Y-23999D01*
X42950Y-24017D01*
X42950Y-23180D01*
X42939Y-22963D01*
X42877Y-22814D01*
X42863Y-22811D01*
X42863Y-22008D01*
X42793Y-21837D01*
X42662Y-21707D01*
X42492Y-21636D01*
X42308Y-21636D01*
X42137Y-21706D01*
X42007Y-21837D01*
X41936Y-22007D01*
X41936Y-22191D01*
X42006Y-22362D01*
X42137Y-22492D01*
X42297Y-22559D01*
X42263Y-22560D01*
X42114Y-22622D01*
X42088Y-22717D01*
X42400Y-23029D01*
X42711Y-22717D01*
X42685Y-22622D01*
X42504Y-22558D01*
X42662Y-22493D01*
X42792Y-22362D01*
X42863Y-22192D01*
X42863Y-22008D01*
X42863Y-22811D01*
X42782Y-22788D01*
X42470Y-23100D01*
X42782Y-23411D01*
X42877Y-23385D01*
X42950Y-23180D01*
X42950Y-24017D01*
X42931Y-24025D01*
X42883Y-24072D01*
X42863Y-24121D01*
X42863Y-24008D01*
X42793Y-23837D01*
X42662Y-23707D01*
X42502Y-23640D01*
X42536Y-23639D01*
X42685Y-23577D01*
X42711Y-23482D01*
X42400Y-23170D01*
X42394Y-23176D01*
X42323Y-23105D01*
X42329Y-23100D01*
X42017Y-22788D01*
X41922Y-22814D01*
X41849Y-23019D01*
X41860Y-23236D01*
X41861Y-23237D01*
X41366Y-23238D01*
X41304Y-23300D01*
X41304Y-23950D01*
X41311Y-23950D01*
X41311Y-24050D01*
X41304Y-24050D01*
X41304Y-24699D01*
X41366Y-24762D01*
X41894Y-24762D01*
X41950Y-24738D01*
X41936Y-24771D01*
X41936Y-24838D01*
X41936Y-25428D01*
X41962Y-25490D01*
X42009Y-25537D01*
X42071Y-25563D01*
X42138Y-25563D01*
X42728Y-25563D01*
X42790Y-25537D01*
X42837Y-25490D01*
X42863Y-25428D01*
X42863Y-25361D01*
X42863Y-24804D01*
X42883Y-24853D01*
X42930Y-24900D01*
X42992Y-24926D01*
X43059Y-24926D01*
X43649Y-24926D01*
X43711Y-24901D01*
X43759Y-24853D01*
X43784Y-24792D01*
X43784Y-24725D01*
X43784Y-24605D01*
X43844Y-24748D01*
X43938Y-24774D01*
X44250Y-24463D01*
X44250Y-24604D01*
X44009Y-24845D01*
X44036Y-24940D01*
X44240Y-25013D01*
X44457Y-25002D01*
X44606Y-24940D01*
X44633Y-24845D01*
X44633Y-27012D01*
X41627Y-27012D01*
X40763Y-24762D01*
X41141Y-24762D01*
X41204Y-24699D01*
X41204Y-24050D01*
X41196Y-24050D01*
X41196Y-23950D01*
X41204Y-23950D01*
X41204Y-23300D01*
X41141Y-23238D01*
X40763Y-23237D01*
X41627Y-20987D01*
X43274Y-20987D01*
X43261Y-21020D01*
X43260Y-21087D01*
X43260Y-21678D01*
X43286Y-21740D01*
X43333Y-21787D01*
X43395Y-21813D01*
X43462Y-21813D01*
X44052Y-21813D01*
X44114Y-21787D01*
X44162Y-21740D01*
X44187Y-21678D01*
X44187Y-21611D01*
X44187Y-21021D01*
X44174Y-20987D01*
X44431Y-20987D01*
X44331Y-21086D01*
X44261Y-21257D01*
X44260Y-21441D01*
X44331Y-21611D01*
X44461Y-21742D01*
X44631Y-21813D01*
X44816Y-21813D01*
X44986Y-21742D01*
X45117Y-21612D01*
X45183Y-21452D01*
X45185Y-21485D01*
X45247Y-21634D01*
X45341Y-21661D01*
X45653Y-21349D01*
X45648Y-21344D01*
X45718Y-21273D01*
X45724Y-21279D01*
X45729Y-21273D01*
X45800Y-21344D01*
X45795Y-21349D01*
X46106Y-21661D01*
X46201Y-21634D01*
X46274Y-21430D01*
X46263Y-21213D01*
X46201Y-21064D01*
X46106Y-21037D01*
X46152Y-20992D01*
X46147Y-20987D01*
X49052Y-20987D01*
X49052Y-23080D01*
X49060Y-23123D01*
X49054Y-23123D01*
X48992Y-23148D01*
X48945Y-23196D01*
X48919Y-23257D01*
X48919Y-23324D01*
X48919Y-23947D01*
X48901Y-23939D01*
X48763Y-23939D01*
X48636Y-23991D01*
X48539Y-24088D01*
X48486Y-24215D01*
X48486Y-24352D01*
X48539Y-24479D01*
X48636Y-24577D01*
X48763Y-24629D01*
X48900Y-24629D01*
X48919Y-24621D01*
X48919Y-24741D01*
X48945Y-24803D01*
X48992Y-24850D01*
X49054Y-24876D01*
X49060Y-24876D01*
M02*
