G04 (created by PCBNEW (2013-07-07 BZR 4022)-stable) date 15/12/2014 22:10:53*
%MOIN*%
G04 Gerber Fmt 3.4, Leading zero omitted, Abs format*
%FSLAX34Y34*%
G01*
G70*
G90*
G04 APERTURE LIST*
%ADD10C,0.00590551*%
%ADD11C,0.047274*%
%ADD12R,0.042874X0.047874*%
%ADD13R,0.019685X0.0472441*%
%ADD14O,0.019685X0.0472441*%
%ADD15O,0.0472441X0.019685*%
%ADD16R,0.0472441X0.0472441*%
%ADD17R,0.0669291X0.0669291*%
%ADD18C,0.0669291*%
%ADD19R,0.047874X0.042874*%
G04 APERTURE END LIST*
G54D10*
G54D11*
X45302Y-25586D03*
G54D12*
X44109Y-22935D03*
X43509Y-22935D03*
G54D13*
X45358Y-24492D03*
G54D14*
X45555Y-24492D03*
X45751Y-24492D03*
X45948Y-24492D03*
X46145Y-24492D03*
X46342Y-24492D03*
X46539Y-24492D03*
X46736Y-24492D03*
G54D15*
X47031Y-24197D03*
X47031Y-24000D03*
X47031Y-23803D03*
X47031Y-23606D03*
X47031Y-23409D03*
X47031Y-23212D03*
X47031Y-23015D03*
X47031Y-22819D03*
G54D14*
X46736Y-22523D03*
X46539Y-22523D03*
X46342Y-22523D03*
X46145Y-22523D03*
X45948Y-22523D03*
X45751Y-22523D03*
X45555Y-22523D03*
X45358Y-22523D03*
G54D15*
X45062Y-22819D03*
X45062Y-23015D03*
X45062Y-23212D03*
X45062Y-23409D03*
X45062Y-23606D03*
X45062Y-23803D03*
X45062Y-24000D03*
X45062Y-24197D03*
G54D16*
X46047Y-23508D03*
X46440Y-23508D03*
X45653Y-23508D03*
X45653Y-23114D03*
X46047Y-23114D03*
X46440Y-23114D03*
X45653Y-23901D03*
X46047Y-23901D03*
X46440Y-23901D03*
G54D12*
X43517Y-23628D03*
X44117Y-23628D03*
G54D17*
X42400Y-25100D03*
G54D18*
X42400Y-24100D03*
X42400Y-23100D03*
X42400Y-22100D03*
G54D17*
X43724Y-21349D03*
G54D18*
X44724Y-21349D03*
X45724Y-21349D03*
G54D17*
X47933Y-24673D03*
G54D18*
X47933Y-23673D03*
G54D19*
X45885Y-25333D03*
X45885Y-25933D03*
X46771Y-21934D03*
X46771Y-21334D03*
G54D12*
X44688Y-25605D03*
X44088Y-25605D03*
G54D19*
X46568Y-25333D03*
X46568Y-25933D03*
G54D17*
X43321Y-24463D03*
G54D18*
X44321Y-24463D03*
M02*
