M48
;DRILL file {Pcbnew (2013-07-07 BZR 4022)-stable} date 12/7/2014 2:10:44 AM
;FORMAT={-:-/ absolute / metric / decimal}
FMAT,2
METRIC,TZ
T1C0.400
T2C0.900
%
G90
G05
M71
T1
X115.389Y-66.249
X115.96Y-58.71
X115.96Y-59.71
X115.96Y-60.71
X116.96Y-58.71
X116.96Y-59.71
X116.96Y-60.71
X117.388Y-54.96
X117.96Y-58.71
X117.96Y-59.71
X117.96Y-60.71
X124.033Y-61.683
T2
X107.696Y-56.134
X107.696Y-58.674
X107.696Y-61.214
X107.696Y-63.754
X110.036Y-62.136
X111.06Y-54.228
X112.576Y-62.136
X113.6Y-54.228
X116.14Y-54.228
X121.752Y-60.13
X121.752Y-62.67
T0
M30
