M48
;DRILL file {Pcbnew (2013-03-19 BZR 4004)-stable} date 29/05/2013 23:51:24
;FORMAT={-:-/ absolute / metric / decimal}
FMAT,2
METRIC,TZ
T1C0.800
T2C0.813
T3C1.501
T4C2.200
%
G90
G05
M71
T1
X137.699Y-115.501
X137.699Y-117.5
X137.699Y-119.499
X137.699Y-129.501
X137.699Y-131.5
X137.699Y-133.499
X142.301Y-115.501
X142.301Y-117.5
X142.301Y-119.499
X142.301Y-129.501
X142.301Y-131.5
X142.301Y-133.499
X167.699Y-115.001
X167.699Y-117.
X167.699Y-118.999
X167.699Y-129.001
X167.699Y-131.
X167.699Y-132.999
X172.301Y-115.001
X172.301Y-117.
X172.301Y-118.999
X172.301Y-129.001
X172.301Y-131.
X172.301Y-132.999
T2
X138.112Y-108.458
X139.102Y-139.102
X139.908Y-106.662
X140.898Y-140.898
X168.33Y-106.866
X170.102Y-140.398
X170.126Y-108.662
X171.898Y-138.602
T3
X155.25Y-101.
X155.25Y-147.
T4
X144.3Y-104.
X144.7Y-124.
X145.7Y-143.8
X164.7Y-104.4
X165.Y-124.7
X165.4Y-143.6
T0
M30
