G04 (created by PCBNEW (2013-05-16 BZR 4016)-stable) date 14/07/2013 17:33:33*
%MOIN*%
G04 Gerber Fmt 3.4, Leading zero omitted, Abs format*
%FSLAX34Y34*%
G01*
G70*
G90*
G04 APERTURE LIST*
%ADD10C,0.00590551*%
%ADD11C,0.005*%
%ADD12C,0.00625*%
%ADD13C,0.0063*%
G04 APERTURE END LIST*
G54D10*
X38503Y-35826D02*
X38503Y-36614D01*
X38110Y-36220D02*
X38897Y-36220D01*
X38897Y-33228D02*
X38110Y-33228D01*
X38503Y-33622D02*
X38503Y-32834D01*
X81771Y-35393D02*
X83110Y-35393D01*
X81771Y-34212D02*
X83110Y-34212D01*
X83110Y-36535D02*
X81771Y-36535D01*
X81771Y-36535D02*
X81771Y-33070D01*
X81771Y-33070D02*
X83110Y-33070D01*
X86062Y-34212D02*
X84724Y-34212D01*
X86062Y-35393D02*
X84724Y-35393D01*
X84724Y-33070D02*
X86062Y-33070D01*
X86062Y-33070D02*
X86062Y-36535D01*
X86062Y-36535D02*
X84724Y-36535D01*
X86377Y-35393D02*
X87716Y-35393D01*
X86377Y-34212D02*
X87716Y-34212D01*
X87716Y-36535D02*
X86377Y-36535D01*
X86377Y-36535D02*
X86377Y-33070D01*
X86377Y-33070D02*
X87716Y-33070D01*
G54D11*
X65739Y-34803D02*
G75*
G03X65739Y-34803I-700J0D01*
G74*
G01*
X66239Y-36003D02*
X63839Y-36003D01*
X63839Y-36003D02*
X63839Y-33603D01*
X63839Y-33603D02*
X66239Y-33603D01*
X66239Y-33603D02*
X66239Y-36003D01*
X62983Y-34803D02*
G75*
G03X62983Y-34803I-700J0D01*
G74*
G01*
X63483Y-36003D02*
X61083Y-36003D01*
X61083Y-36003D02*
X61083Y-33603D01*
X61083Y-33603D02*
X63483Y-33603D01*
X63483Y-33603D02*
X63483Y-36003D01*
G54D10*
X81546Y-36709D02*
X81389Y-36946D01*
X81389Y-36709D02*
X81546Y-36946D01*
X81186Y-36946D02*
X81299Y-36946D01*
X81299Y-36709D01*
X81006Y-36788D02*
X81006Y-36946D01*
X81062Y-36698D02*
X81119Y-36867D01*
X80973Y-36867D01*
X82941Y-36923D02*
X82952Y-36934D01*
X82986Y-36946D01*
X83008Y-36946D01*
X83042Y-36934D01*
X83065Y-36912D01*
X83076Y-36889D01*
X83087Y-36844D01*
X83087Y-36811D01*
X83076Y-36766D01*
X83065Y-36743D01*
X83042Y-36721D01*
X83008Y-36709D01*
X82986Y-36709D01*
X82952Y-36721D01*
X82941Y-36732D01*
X82795Y-36709D02*
X82750Y-36709D01*
X82727Y-36721D01*
X82705Y-36743D01*
X82694Y-36788D01*
X82694Y-36867D01*
X82705Y-36912D01*
X82727Y-36934D01*
X82750Y-36946D01*
X82795Y-36946D01*
X82817Y-36934D01*
X82840Y-36912D01*
X82851Y-36867D01*
X82851Y-36788D01*
X82840Y-36743D01*
X82817Y-36721D01*
X82795Y-36709D01*
X82592Y-36946D02*
X82592Y-36709D01*
X82457Y-36946D01*
X82457Y-36709D01*
X82345Y-36946D02*
X82345Y-36709D01*
X82210Y-36946D01*
X82210Y-36709D01*
X82154Y-36968D02*
X81974Y-36968D01*
X81940Y-36709D02*
X81794Y-36709D01*
X81872Y-36799D01*
X81839Y-36799D01*
X81816Y-36811D01*
X81805Y-36822D01*
X81794Y-36844D01*
X81794Y-36901D01*
X81805Y-36923D01*
X81816Y-36934D01*
X81839Y-36946D01*
X81906Y-36946D01*
X81929Y-36934D01*
X81940Y-36923D01*
X84111Y-33413D02*
X84347Y-33571D01*
X84111Y-33571D02*
X84347Y-33413D01*
X84347Y-33773D02*
X84347Y-33661D01*
X84111Y-33661D01*
X84133Y-33841D02*
X84122Y-33852D01*
X84111Y-33875D01*
X84111Y-33931D01*
X84122Y-33953D01*
X84133Y-33965D01*
X84156Y-33976D01*
X84178Y-33976D01*
X84212Y-33965D01*
X84347Y-33830D01*
X84347Y-33976D01*
X84088Y-34302D02*
X84100Y-34291D01*
X84111Y-34257D01*
X84111Y-34235D01*
X84100Y-34201D01*
X84077Y-34178D01*
X84055Y-34167D01*
X84010Y-34156D01*
X83976Y-34156D01*
X83931Y-34167D01*
X83908Y-34178D01*
X83886Y-34201D01*
X83875Y-34235D01*
X83875Y-34257D01*
X83886Y-34291D01*
X83897Y-34302D01*
X83875Y-34448D02*
X83875Y-34493D01*
X83886Y-34516D01*
X83908Y-34538D01*
X83953Y-34550D01*
X84032Y-34550D01*
X84077Y-34538D01*
X84100Y-34516D01*
X84111Y-34493D01*
X84111Y-34448D01*
X84100Y-34426D01*
X84077Y-34403D01*
X84032Y-34392D01*
X83953Y-34392D01*
X83908Y-34403D01*
X83886Y-34426D01*
X83875Y-34448D01*
X84111Y-34651D02*
X83875Y-34651D01*
X84111Y-34786D01*
X83875Y-34786D01*
X84111Y-34898D02*
X83875Y-34898D01*
X84111Y-35033D01*
X83875Y-35033D01*
X84133Y-35089D02*
X84133Y-35269D01*
X83875Y-35303D02*
X83875Y-35449D01*
X83965Y-35371D01*
X83965Y-35404D01*
X83976Y-35427D01*
X83987Y-35438D01*
X84010Y-35449D01*
X84066Y-35449D01*
X84088Y-35438D01*
X84100Y-35427D01*
X84111Y-35404D01*
X84111Y-35337D01*
X84100Y-35314D01*
X84088Y-35303D01*
X88048Y-35461D02*
X88284Y-35618D01*
X88048Y-35618D02*
X88284Y-35461D01*
X88284Y-35821D02*
X88284Y-35708D01*
X88048Y-35708D01*
X88048Y-35877D02*
X88048Y-36023D01*
X88138Y-35944D01*
X88138Y-35978D01*
X88149Y-36001D01*
X88160Y-36012D01*
X88183Y-36023D01*
X88239Y-36023D01*
X88262Y-36012D01*
X88273Y-36001D01*
X88284Y-35978D01*
X88284Y-35911D01*
X88273Y-35888D01*
X88262Y-35877D01*
X88577Y-34145D02*
X88588Y-34133D01*
X88599Y-34100D01*
X88599Y-34077D01*
X88588Y-34043D01*
X88565Y-34021D01*
X88543Y-34010D01*
X88498Y-33998D01*
X88464Y-33998D01*
X88419Y-34010D01*
X88397Y-34021D01*
X88374Y-34043D01*
X88363Y-34077D01*
X88363Y-34100D01*
X88374Y-34133D01*
X88385Y-34145D01*
X88363Y-34291D02*
X88363Y-34336D01*
X88374Y-34358D01*
X88397Y-34381D01*
X88442Y-34392D01*
X88520Y-34392D01*
X88565Y-34381D01*
X88588Y-34358D01*
X88599Y-34336D01*
X88599Y-34291D01*
X88588Y-34268D01*
X88565Y-34246D01*
X88520Y-34235D01*
X88442Y-34235D01*
X88397Y-34246D01*
X88374Y-34268D01*
X88363Y-34291D01*
X88599Y-34493D02*
X88363Y-34493D01*
X88599Y-34628D01*
X88363Y-34628D01*
X88599Y-34741D02*
X88363Y-34741D01*
X88599Y-34876D01*
X88363Y-34876D01*
X88622Y-34932D02*
X88622Y-35112D01*
X88363Y-35146D02*
X88363Y-35292D01*
X88453Y-35213D01*
X88453Y-35247D01*
X88464Y-35269D01*
X88475Y-35281D01*
X88498Y-35292D01*
X88554Y-35292D01*
X88577Y-35281D01*
X88588Y-35269D01*
X88599Y-35247D01*
X88599Y-35179D01*
X88588Y-35157D01*
X88577Y-35146D01*
G54D12*
X66396Y-32687D02*
X66360Y-32699D01*
X66301Y-32699D01*
X66277Y-32687D01*
X66265Y-32675D01*
X66253Y-32651D01*
X66253Y-32628D01*
X66265Y-32604D01*
X66277Y-32592D01*
X66301Y-32580D01*
X66348Y-32568D01*
X66372Y-32556D01*
X66384Y-32544D01*
X66396Y-32521D01*
X66396Y-32497D01*
X66384Y-32473D01*
X66372Y-32461D01*
X66348Y-32449D01*
X66289Y-32449D01*
X66253Y-32461D01*
X66170Y-32449D02*
X66110Y-32699D01*
X66062Y-32521D01*
X66015Y-32699D01*
X65955Y-32449D01*
X65884Y-32449D02*
X65729Y-32449D01*
X65812Y-32544D01*
X65777Y-32544D01*
X65753Y-32556D01*
X65741Y-32568D01*
X65729Y-32592D01*
X65729Y-32651D01*
X65741Y-32675D01*
X65753Y-32687D01*
X65777Y-32699D01*
X65848Y-32699D01*
X65872Y-32687D01*
X65884Y-32675D01*
G54D13*
G54D12*
X62144Y-32687D02*
X62108Y-32699D01*
X62049Y-32699D01*
X62025Y-32687D01*
X62013Y-32675D01*
X62001Y-32651D01*
X62001Y-32628D01*
X62013Y-32604D01*
X62025Y-32592D01*
X62049Y-32580D01*
X62096Y-32568D01*
X62120Y-32556D01*
X62132Y-32544D01*
X62144Y-32521D01*
X62144Y-32497D01*
X62132Y-32473D01*
X62120Y-32461D01*
X62096Y-32449D01*
X62037Y-32449D01*
X62001Y-32461D01*
X61918Y-32449D02*
X61858Y-32699D01*
X61811Y-32521D01*
X61763Y-32699D01*
X61703Y-32449D01*
X61501Y-32532D02*
X61501Y-32699D01*
X61561Y-32437D02*
X61620Y-32616D01*
X61465Y-32616D01*
G54D13*
M02*
