G04 (created by PCBNEW-RS274X (2012-01-19 BZR 3256)-stable) date 30/09/2012 19:30:16*
G01*
G70*
G90*
%MOIN*%
G04 Gerber Fmt 3.4, Leading zero omitted, Abs format*
%FSLAX34Y34*%
G04 APERTURE LIST*
%ADD10C,0.006000*%
%ADD11C,0.039400*%
%ADD12C,0.035400*%
%ADD13C,0.019700*%
%ADD14C,0.010000*%
G04 APERTURE END LIST*
G54D10*
G54D11*
X54646Y-33543D03*
X55197Y-33543D03*
X55748Y-33543D03*
X56299Y-33543D03*
X56850Y-33543D03*
X53071Y-32520D03*
X53071Y-33543D03*
G54D12*
X53874Y-33622D03*
X55827Y-31732D03*
X54882Y-31102D03*
X56929Y-31024D03*
X54858Y-32831D03*
G54D13*
X55663Y-32128D02*
X55354Y-32087D01*
X55991Y-32128D02*
X55663Y-32128D01*
X56222Y-31896D02*
X55991Y-32128D01*
X56929Y-31024D02*
X56222Y-31896D01*
X54882Y-31102D02*
X55827Y-31732D01*
X54474Y-33127D02*
X54858Y-32831D01*
X53874Y-33622D02*
X54474Y-33127D01*
X55354Y-32087D02*
X54858Y-32831D01*
X55354Y-32087D02*
X54882Y-31102D01*
G54D10*
G36*
X57001Y-33210D02*
X56923Y-33178D01*
X56778Y-33178D01*
X56644Y-33233D01*
X56574Y-33302D01*
X56506Y-33234D01*
X56372Y-33178D01*
X56227Y-33178D01*
X56093Y-33233D01*
X56023Y-33302D01*
X55955Y-33234D01*
X55821Y-33178D01*
X55676Y-33178D01*
X55542Y-33233D01*
X55472Y-33302D01*
X55404Y-33234D01*
X55270Y-33178D01*
X55125Y-33178D01*
X54991Y-33233D01*
X54921Y-33302D01*
X54853Y-33234D01*
X54719Y-33178D01*
X54574Y-33178D01*
X54440Y-33233D01*
X54337Y-33336D01*
X54281Y-33470D01*
X54281Y-33615D01*
X54313Y-33694D01*
X52920Y-33694D01*
X52920Y-32852D01*
X52998Y-32885D01*
X53143Y-32885D01*
X53277Y-32830D01*
X53380Y-32727D01*
X53436Y-32593D01*
X53436Y-32448D01*
X53381Y-32314D01*
X53278Y-32211D01*
X53144Y-32155D01*
X52999Y-32155D01*
X52920Y-32187D01*
X52920Y-30715D01*
X57001Y-30715D01*
X57001Y-33210D01*
X57001Y-33210D01*
G37*
G54D14*
X57001Y-33210D02*
X56923Y-33178D01*
X56778Y-33178D01*
X56644Y-33233D01*
X56574Y-33302D01*
X56506Y-33234D01*
X56372Y-33178D01*
X56227Y-33178D01*
X56093Y-33233D01*
X56023Y-33302D01*
X55955Y-33234D01*
X55821Y-33178D01*
X55676Y-33178D01*
X55542Y-33233D01*
X55472Y-33302D01*
X55404Y-33234D01*
X55270Y-33178D01*
X55125Y-33178D01*
X54991Y-33233D01*
X54921Y-33302D01*
X54853Y-33234D01*
X54719Y-33178D01*
X54574Y-33178D01*
X54440Y-33233D01*
X54337Y-33336D01*
X54281Y-33470D01*
X54281Y-33615D01*
X54313Y-33694D01*
X52920Y-33694D01*
X52920Y-32852D01*
X52998Y-32885D01*
X53143Y-32885D01*
X53277Y-32830D01*
X53380Y-32727D01*
X53436Y-32593D01*
X53436Y-32448D01*
X53381Y-32314D01*
X53278Y-32211D01*
X53144Y-32155D01*
X52999Y-32155D01*
X52920Y-32187D01*
X52920Y-30715D01*
X57001Y-30715D01*
X57001Y-33210D01*
M02*
