G04 (created by PCBNEW-RS274X (2012-01-19 BZR 3256)-stable) date 16/02/2013 19:01:43*
G01*
G70*
G90*
%MOIN*%
G04 Gerber Fmt 3.4, Leading zero omitted, Abs format*
%FSLAX34Y34*%
G04 APERTURE LIST*
%ADD10C,0.006000*%
%ADD11R,0.062900X0.062900*%
%ADD12C,0.062900*%
%ADD13R,0.062800X0.062800*%
%ADD14C,0.062800*%
%ADD15C,0.244000*%
%ADD16C,0.067800*%
%ADD17R,0.067800X0.067800*%
%ADD18C,0.073800*%
G04 APERTURE END LIST*
G54D10*
G54D11*
X66535Y-38705D03*
G54D12*
X66535Y-37705D03*
X66535Y-36705D03*
X66535Y-35705D03*
G54D11*
X67913Y-38705D03*
G54D12*
X67913Y-37705D03*
X67913Y-36705D03*
X67913Y-35705D03*
G54D13*
X67913Y-34161D03*
G54D14*
X67913Y-33161D03*
G54D15*
X67244Y-30394D03*
X40394Y-30394D03*
X40394Y-45039D03*
X67244Y-45039D03*
G54D16*
X57811Y-30366D03*
X59811Y-31366D03*
X59811Y-30366D03*
X58811Y-30366D03*
X58811Y-31366D03*
X50811Y-30366D03*
X52811Y-30366D03*
X51811Y-31366D03*
X56811Y-31366D03*
X53811Y-31366D03*
X52811Y-31366D03*
X57811Y-31366D03*
X56811Y-30366D03*
X54811Y-31366D03*
X49811Y-31366D03*
X51811Y-30366D03*
X53811Y-30366D03*
X55811Y-30366D03*
X55811Y-31366D03*
X54811Y-30366D03*
X48811Y-30366D03*
X49811Y-30366D03*
X50811Y-31366D03*
X48811Y-31366D03*
X47811Y-31366D03*
X47811Y-30366D03*
G54D17*
X43811Y-31366D03*
G54D16*
X43811Y-30366D03*
X44811Y-31366D03*
X44811Y-30366D03*
X45811Y-31366D03*
X45811Y-30366D03*
X46811Y-31366D03*
X46811Y-30366D03*
G54D13*
X67108Y-40486D03*
G54D14*
X67108Y-41486D03*
X67108Y-42486D03*
G54D11*
X40551Y-36217D03*
G54D12*
X40551Y-37217D03*
X40551Y-38217D03*
X40551Y-39217D03*
G54D18*
X39606Y-33020D03*
X39606Y-32020D03*
X39606Y-35618D03*
X39606Y-34618D03*
X39606Y-38217D03*
X39606Y-37217D03*
X39606Y-40815D03*
X39606Y-39815D03*
X39606Y-43413D03*
X39606Y-42413D03*
M02*
