G04 (created by PCBNEW (2013-07-07 BZR 4022)-stable) date 18/10/2014 20:02:36*
%MOIN*%
G04 Gerber Fmt 3.4, Leading zero omitted, Abs format*
%FSLAX34Y34*%
G01*
G70*
G90*
G04 APERTURE LIST*
%ADD10C,0.00590551*%
%ADD11R,0.1181X0.1181*%
%ADD12C,0.1181*%
%ADD13R,0.0551X0.0551*%
%ADD14C,0.0551*%
%ADD15R,0.055X0.055*%
%ADD16C,0.055*%
%ADD17R,0.0433071X0.0433071*%
%ADD18R,0.0314961X0.0314961*%
%ADD19C,0.2362*%
%ADD20C,0.0629921*%
%ADD21C,0.0787402*%
%ADD22C,0.0354331*%
%ADD23C,0.019685*%
%ADD24C,0.00787402*%
%ADD25C,0.01*%
G04 APERTURE END LIST*
G54D10*
G54D11*
X81496Y-55669D03*
G54D12*
X79606Y-55669D03*
G54D13*
X80393Y-40311D03*
G54D14*
X80393Y-41311D03*
X80393Y-42311D03*
X80393Y-43311D03*
G54D15*
X88661Y-42858D03*
G54D16*
X88661Y-43858D03*
X88661Y-44858D03*
G54D15*
X87637Y-42858D03*
G54D16*
X87637Y-43858D03*
X87637Y-44858D03*
G54D15*
X72992Y-42937D03*
G54D16*
X72992Y-43937D03*
X72992Y-44937D03*
G54D15*
X74094Y-42937D03*
G54D16*
X74094Y-43937D03*
X74094Y-44937D03*
G54D15*
X75641Y-55905D03*
G54D16*
X76641Y-55905D03*
G54D17*
X88936Y-47794D03*
X89369Y-47794D03*
X88936Y-48227D03*
X89369Y-48227D03*
G54D18*
X76456Y-53464D03*
X76141Y-53464D03*
X75826Y-53464D03*
X75511Y-53464D03*
X76456Y-53149D03*
X76141Y-53149D03*
X75826Y-53149D03*
X75511Y-53149D03*
G54D19*
X73779Y-41102D03*
X73779Y-55118D03*
X88267Y-41102D03*
X88267Y-55118D03*
G54D20*
X84724Y-55590D03*
X83937Y-55590D03*
X85511Y-55590D03*
G54D21*
X83110Y-55590D03*
X86338Y-55590D03*
G54D22*
X90459Y-49752D03*
X89295Y-50062D03*
X90095Y-46370D03*
X87742Y-47810D03*
X85425Y-50534D03*
X85469Y-52928D03*
X83605Y-51522D03*
X73529Y-47173D03*
X74109Y-48839D03*
X74959Y-49427D03*
X84435Y-46791D03*
X80016Y-51677D03*
X79689Y-45856D03*
X79038Y-47091D03*
X85625Y-45730D03*
X76870Y-53492D03*
X76711Y-50642D03*
X79137Y-53621D03*
X78283Y-49348D03*
X78957Y-50897D03*
X78248Y-42499D03*
X77575Y-44979D03*
X76170Y-55259D03*
X81830Y-46810D03*
X78155Y-47387D03*
X79497Y-50603D03*
X82236Y-50350D03*
X80670Y-49863D03*
X77003Y-51175D03*
X81884Y-45824D03*
X88184Y-49150D03*
X87144Y-49642D03*
X83735Y-49320D03*
X84727Y-49257D03*
X87058Y-47653D03*
X79603Y-51313D03*
X78451Y-53077D03*
X81420Y-49292D03*
X84484Y-42292D03*
X80639Y-47456D03*
X81998Y-45272D03*
X81076Y-47441D03*
X82806Y-45570D03*
X84877Y-42687D03*
X84462Y-43623D03*
X85367Y-42571D03*
X81996Y-43540D03*
X79277Y-47503D03*
X82668Y-43034D03*
X80206Y-47454D03*
X72881Y-53762D03*
X74803Y-47574D03*
X72755Y-50787D03*
X74803Y-46450D03*
X82218Y-49754D03*
X83208Y-50354D03*
X86247Y-47371D03*
X79561Y-46791D03*
X80692Y-45340D03*
X82594Y-49517D03*
X83796Y-51944D03*
X81967Y-51338D03*
X83736Y-47995D03*
X76924Y-48345D03*
X80671Y-49425D03*
X75295Y-48371D03*
X82263Y-46810D03*
X77139Y-46147D03*
X80233Y-48360D03*
X77046Y-46829D03*
X88658Y-50062D03*
X90551Y-45511D03*
X75253Y-51828D03*
X81289Y-53854D03*
X80684Y-52925D03*
X74425Y-45767D03*
X74803Y-46883D03*
X86844Y-44833D03*
X78252Y-44217D03*
X78706Y-43602D03*
X75900Y-46891D03*
X86253Y-49904D03*
X83486Y-54255D03*
X85001Y-54534D03*
X82063Y-52162D03*
X85787Y-48366D03*
X86502Y-52402D03*
X78582Y-52559D03*
X77972Y-51948D03*
X78087Y-50078D03*
X77464Y-54590D03*
X76715Y-54681D03*
X72840Y-47181D03*
X73832Y-48430D03*
X90000Y-45354D03*
X90000Y-44409D03*
X90000Y-43464D03*
X90000Y-42519D03*
X90000Y-41574D03*
X90000Y-40314D03*
X89291Y-42992D03*
X89291Y-43937D03*
X89291Y-44881D03*
X87962Y-45768D03*
X88267Y-46850D03*
X87401Y-46850D03*
X86692Y-42440D03*
X85826Y-43385D03*
X84960Y-41102D03*
X85748Y-40236D03*
X84015Y-40314D03*
X82519Y-40314D03*
X82047Y-41811D03*
X81732Y-42834D03*
X83622Y-43700D03*
X82913Y-44566D03*
X83937Y-44960D03*
X85039Y-44960D03*
X85984Y-44409D03*
X84094Y-45905D03*
X83385Y-47086D03*
X82677Y-47874D03*
X81732Y-48031D03*
X82598Y-48740D03*
X84094Y-50944D03*
X78740Y-51496D03*
X75748Y-51181D03*
X77952Y-55826D03*
X90000Y-50708D03*
X90000Y-51811D03*
X90000Y-52834D03*
X90000Y-53858D03*
X90000Y-54881D03*
X90000Y-56062D03*
X89133Y-53543D03*
X88661Y-51732D03*
X88346Y-52913D03*
X87480Y-52440D03*
X86692Y-54251D03*
X87480Y-53543D03*
X89133Y-52362D03*
X74803Y-50708D03*
X74645Y-50000D03*
X73543Y-50551D03*
X72755Y-49842D03*
X75275Y-47637D03*
X76220Y-47874D03*
X76614Y-49685D03*
X75590Y-44881D03*
X75039Y-43228D03*
X83464Y-52913D03*
X82519Y-52913D03*
X83721Y-42613D03*
X81201Y-48448D03*
X76708Y-44841D03*
G54D23*
X79957Y-51167D02*
X80016Y-51677D01*
X79749Y-50959D02*
X79957Y-51167D01*
X79350Y-50957D02*
X79749Y-50959D01*
X78957Y-50897D02*
X79350Y-50957D01*
X86461Y-50416D02*
X88216Y-50086D01*
X85425Y-50534D02*
X86461Y-50416D01*
X76649Y-51028D02*
X76711Y-50642D01*
X76649Y-51322D02*
X76649Y-51028D01*
X76870Y-53492D02*
X76649Y-51322D01*
X88538Y-49297D02*
X88216Y-50086D01*
X88538Y-49003D02*
X88538Y-49297D01*
X87742Y-47810D02*
X88538Y-49003D01*
X84763Y-51572D02*
X85469Y-52928D01*
X85425Y-50534D02*
X84763Y-51572D01*
X81821Y-50984D02*
X80016Y-51677D01*
X82757Y-50728D02*
X81821Y-50984D01*
X90095Y-46370D02*
X87742Y-47810D01*
X87814Y-42858D02*
X87637Y-42858D01*
X87912Y-42858D02*
X87814Y-42858D01*
X88386Y-42858D02*
X87912Y-42858D01*
X88484Y-42858D02*
X88386Y-42858D01*
X88661Y-42858D02*
X88484Y-42858D01*
X80016Y-51677D02*
X79137Y-53621D01*
X82853Y-50207D02*
X82757Y-50728D01*
X83103Y-49731D02*
X82853Y-50207D01*
X83106Y-49725D02*
X83103Y-49731D01*
X83223Y-49111D02*
X83106Y-49725D01*
X83225Y-49105D02*
X83223Y-49111D01*
X84091Y-48142D02*
X83225Y-49105D01*
X84435Y-46791D02*
X84091Y-48142D01*
X80295Y-40488D02*
X80393Y-40311D01*
X80295Y-40586D02*
X80295Y-40488D01*
X80295Y-40660D02*
X80295Y-40586D01*
X79940Y-41123D02*
X80295Y-40660D01*
X79783Y-42082D02*
X79940Y-41123D01*
X79689Y-45856D02*
X79783Y-42082D01*
X74186Y-48577D02*
X74109Y-48839D01*
X74186Y-48284D02*
X74186Y-48577D01*
X73529Y-47173D02*
X74186Y-48284D01*
X87185Y-43670D02*
X85625Y-45730D01*
X87540Y-43206D02*
X87185Y-43670D01*
X87540Y-43133D02*
X87540Y-43206D01*
X87540Y-43034D02*
X87540Y-43133D01*
X87637Y-42858D02*
X87540Y-43034D01*
X88805Y-50416D02*
X89295Y-50062D01*
X88511Y-50416D02*
X88805Y-50416D01*
X88303Y-50209D02*
X88511Y-50416D01*
X88216Y-50086D02*
X88303Y-50209D01*
X83605Y-51522D02*
X84763Y-51572D01*
X78283Y-49348D02*
X78957Y-50897D01*
X83605Y-51522D02*
X82757Y-50728D01*
X74959Y-49427D02*
X76711Y-50642D01*
X90459Y-49752D02*
X89295Y-50062D01*
X79206Y-46644D02*
X79038Y-47091D01*
X79689Y-45856D02*
X79206Y-46644D01*
X78248Y-42499D02*
X77575Y-44979D01*
X84140Y-55098D02*
X84724Y-55590D01*
X82160Y-54901D02*
X84140Y-55098D01*
X80979Y-54901D02*
X82160Y-54901D01*
X80832Y-54901D02*
X80979Y-54901D01*
X79346Y-54901D02*
X80832Y-54901D01*
X76170Y-55259D02*
X79346Y-54901D01*
G54D24*
X79154Y-47799D02*
X78155Y-47387D01*
X79399Y-47799D02*
X79154Y-47799D01*
X80004Y-47749D02*
X79399Y-47799D01*
X80461Y-47749D02*
X80004Y-47749D01*
X80516Y-47752D02*
X80461Y-47749D01*
X80761Y-47752D02*
X80516Y-47752D01*
X81199Y-47737D02*
X80761Y-47752D01*
X81372Y-47563D02*
X81199Y-47737D01*
X81830Y-46810D02*
X81372Y-47563D01*
X79497Y-50603D02*
X82236Y-50350D01*
X77988Y-49226D02*
X77003Y-51175D01*
X78160Y-49053D02*
X77988Y-49226D01*
X78405Y-49053D02*
X78160Y-49053D01*
X78808Y-49207D02*
X78405Y-49053D01*
X80670Y-49863D02*
X78808Y-49207D01*
X87447Y-47932D02*
X88184Y-49150D01*
X87353Y-47531D02*
X87447Y-47932D01*
X87180Y-47358D02*
X87353Y-47531D01*
X86369Y-47075D02*
X87180Y-47358D01*
X84558Y-46495D02*
X86369Y-47075D01*
X81884Y-45824D02*
X84558Y-46495D01*
X86130Y-50199D02*
X83735Y-49320D01*
X86375Y-50199D02*
X86130Y-50199D01*
X87144Y-49642D02*
X86375Y-50199D01*
X85665Y-48070D02*
X87058Y-47653D01*
X85492Y-48243D02*
X85665Y-48070D01*
X84727Y-49257D02*
X85492Y-48243D01*
X78705Y-52854D02*
X78451Y-53077D01*
X78878Y-52681D02*
X78705Y-52854D01*
X79603Y-51313D02*
X78878Y-52681D01*
X76023Y-46595D02*
X74094Y-44937D01*
X76196Y-46768D02*
X76023Y-46595D01*
X76453Y-47100D02*
X76196Y-46768D01*
X77160Y-47926D02*
X76453Y-47100D01*
X77616Y-48382D02*
X77160Y-47926D01*
X77832Y-48471D02*
X77616Y-48382D01*
X78542Y-48581D02*
X77832Y-48471D01*
X78642Y-48622D02*
X78542Y-48581D01*
X78650Y-48630D02*
X78642Y-48622D01*
X78923Y-48743D02*
X78650Y-48630D01*
X80004Y-48971D02*
X78923Y-48743D01*
X80859Y-48971D02*
X80004Y-48971D01*
X80931Y-49041D02*
X80859Y-48971D01*
X81420Y-49292D02*
X80931Y-49041D01*
X81430Y-45636D02*
X80639Y-47456D01*
X81702Y-45150D02*
X81430Y-45636D01*
X84484Y-42292D02*
X81702Y-45150D01*
X81588Y-45701D02*
X81076Y-47441D01*
X81998Y-45272D02*
X81588Y-45701D01*
X84166Y-43501D02*
X82806Y-45570D01*
X84877Y-42687D02*
X84166Y-43501D01*
X85172Y-42809D02*
X84462Y-43623D01*
X85367Y-42571D02*
X85172Y-42809D01*
X79856Y-46914D02*
X79277Y-47503D01*
X80987Y-45462D02*
X79856Y-46914D01*
X81996Y-43540D02*
X80987Y-45462D01*
X82668Y-43034D02*
X80206Y-47454D01*
X74562Y-49026D02*
X74803Y-47574D01*
X72881Y-53762D02*
X74562Y-49026D01*
X74507Y-46761D02*
X74803Y-46450D01*
X74404Y-48961D02*
X74507Y-46761D01*
X72755Y-50787D02*
X74404Y-48961D01*
X74257Y-44543D02*
X72992Y-43937D01*
X74487Y-44774D02*
X74257Y-44543D01*
X76354Y-46703D02*
X74487Y-44774D01*
X76593Y-47017D02*
X76354Y-46703D01*
X77294Y-47837D02*
X76593Y-47017D01*
X77705Y-48248D02*
X77294Y-47837D01*
X77864Y-48314D02*
X77705Y-48248D01*
X78574Y-48423D02*
X77864Y-48314D01*
X78731Y-48489D02*
X78574Y-48423D01*
X78739Y-48497D02*
X78731Y-48489D01*
X78954Y-48586D02*
X78739Y-48497D01*
X80045Y-48813D02*
X78954Y-48586D01*
X80900Y-48814D02*
X80045Y-48813D01*
X80942Y-48831D02*
X80900Y-48814D01*
X81013Y-48901D02*
X80942Y-48831D01*
X81542Y-48996D02*
X81013Y-48901D01*
X81715Y-49169D02*
X81542Y-48996D01*
X82218Y-49754D02*
X81715Y-49169D01*
X83613Y-49024D02*
X86247Y-47371D01*
X83440Y-49198D02*
X83613Y-49024D01*
X83208Y-50354D02*
X83440Y-49198D01*
X79999Y-42147D02*
X80393Y-41311D01*
X79984Y-45978D02*
X79999Y-42147D01*
X79561Y-46791D02*
X79984Y-45978D01*
X80692Y-45340D02*
X80393Y-43311D01*
X81608Y-48839D02*
X82594Y-49517D01*
X81079Y-48743D02*
X81608Y-48839D01*
X81031Y-48697D02*
X81079Y-48743D01*
X80931Y-48656D02*
X81031Y-48697D01*
X80110Y-48656D02*
X80931Y-48656D01*
X78986Y-48428D02*
X80110Y-48656D01*
X78828Y-48363D02*
X78986Y-48428D01*
X78820Y-48355D02*
X78828Y-48363D01*
X78605Y-48266D02*
X78820Y-48355D01*
X77895Y-48156D02*
X78605Y-48266D01*
X77795Y-48114D02*
X77895Y-48156D01*
X77428Y-47747D02*
X77795Y-48114D01*
X76751Y-46951D02*
X77428Y-47747D01*
X76494Y-46620D02*
X76751Y-46951D01*
X74094Y-43937D02*
X76494Y-46620D01*
X83796Y-51944D02*
X81967Y-51338D01*
X77801Y-48629D02*
X76924Y-48345D01*
X78511Y-48738D02*
X77801Y-48629D01*
X78553Y-48756D02*
X78511Y-48738D01*
X78561Y-48763D02*
X78553Y-48756D01*
X78892Y-48901D02*
X78561Y-48763D01*
X79973Y-49129D02*
X78892Y-48901D01*
X80794Y-49129D02*
X79973Y-49129D01*
X80841Y-49175D02*
X80794Y-49129D01*
X81297Y-49587D02*
X80841Y-49175D01*
X82095Y-50049D02*
X81297Y-49587D01*
X82340Y-50049D02*
X82095Y-50049D01*
X82716Y-49812D02*
X82340Y-50049D01*
X82889Y-49639D02*
X82716Y-49812D01*
X83006Y-49068D02*
X82889Y-49639D01*
X83042Y-48983D02*
X83006Y-49068D01*
X83736Y-47995D02*
X83042Y-48983D01*
X76802Y-48641D02*
X75295Y-48371D01*
X78470Y-48896D02*
X76802Y-48641D01*
X78478Y-48899D02*
X78470Y-48896D01*
X78854Y-49056D02*
X78478Y-48899D01*
X79942Y-49286D02*
X78854Y-49056D01*
X80671Y-49425D02*
X79942Y-49286D01*
X77499Y-46641D02*
X77139Y-46147D01*
X77859Y-47510D02*
X77499Y-46641D01*
X78032Y-47683D02*
X77859Y-47510D01*
X78692Y-47794D02*
X78032Y-47683D01*
X78705Y-47796D02*
X78692Y-47794D01*
X79082Y-47952D02*
X78705Y-47796D01*
X79089Y-47956D02*
X79082Y-47952D01*
X79464Y-47956D02*
X79089Y-47956D01*
X80045Y-47907D02*
X79464Y-47956D01*
X80420Y-47907D02*
X80045Y-47907D01*
X80451Y-47909D02*
X80420Y-47907D01*
X80827Y-47909D02*
X80451Y-47909D01*
X81264Y-47894D02*
X80827Y-47909D01*
X81530Y-47629D02*
X81264Y-47894D01*
X82263Y-46810D02*
X81530Y-47629D01*
X77561Y-47658D02*
X77046Y-46829D01*
X77884Y-47981D02*
X77561Y-47658D01*
X77926Y-47998D02*
X77884Y-47981D01*
X78636Y-48109D02*
X77926Y-47998D01*
X78910Y-48222D02*
X78636Y-48109D01*
X78917Y-48230D02*
X78910Y-48222D01*
X79017Y-48271D02*
X78917Y-48230D01*
X80233Y-48360D02*
X79017Y-48271D01*
G54D23*
X78740Y-51496D02*
X77972Y-51948D01*
X82047Y-42362D02*
X82047Y-41811D01*
X83721Y-42613D02*
X82047Y-42362D01*
X83622Y-43700D02*
X82913Y-44566D01*
X84094Y-45905D02*
X85039Y-44960D01*
X85039Y-44960D02*
X85984Y-44409D01*
X77464Y-54590D02*
X77972Y-51948D01*
X86844Y-44833D02*
X87637Y-44858D01*
X88897Y-48345D02*
X88936Y-48227D01*
X88897Y-48444D02*
X88897Y-48345D01*
X88897Y-48517D02*
X88897Y-48444D01*
X88814Y-49382D02*
X88897Y-48517D01*
X88658Y-50062D02*
X88814Y-49382D01*
X89487Y-47755D02*
X89369Y-47794D01*
X89586Y-47755D02*
X89487Y-47755D01*
X89659Y-47755D02*
X89586Y-47755D01*
X89763Y-47651D02*
X89659Y-47755D01*
X90449Y-46517D02*
X89763Y-47651D01*
X90449Y-46223D02*
X90449Y-46517D01*
X90551Y-45511D02*
X90449Y-46223D01*
X76456Y-53523D02*
X76456Y-53464D01*
X76456Y-53622D02*
X76456Y-53523D01*
X76456Y-53687D02*
X76456Y-53622D01*
X76715Y-54681D02*
X76456Y-53687D01*
X87637Y-44858D02*
X88661Y-44858D01*
X72840Y-47181D02*
X73832Y-48430D01*
X72992Y-44937D02*
X74425Y-45767D01*
X74950Y-46804D02*
X75175Y-46601D01*
X74803Y-46883D02*
X74950Y-46804D01*
X75442Y-52922D02*
X75511Y-53149D01*
X75511Y-52992D02*
X75442Y-52922D01*
X75511Y-52926D02*
X75511Y-52992D01*
X75253Y-51828D02*
X75511Y-52926D01*
X75157Y-46303D02*
X75175Y-46601D01*
X74950Y-46095D02*
X75157Y-46303D01*
X74425Y-45767D02*
X74950Y-46095D01*
X76715Y-54681D02*
X77464Y-54590D01*
X77972Y-51948D02*
X78087Y-50078D01*
X75900Y-46891D02*
X75175Y-46601D01*
X83486Y-54255D02*
X85001Y-54534D01*
X78582Y-52559D02*
X77972Y-51948D01*
X81289Y-53854D02*
X80684Y-52925D01*
X82063Y-52162D02*
X80684Y-52925D01*
X78252Y-44217D02*
X78706Y-43602D01*
X85787Y-48366D02*
X86253Y-49904D01*
G54D24*
X76844Y-46269D02*
X76708Y-44841D01*
X77017Y-46442D02*
X76844Y-46269D01*
X77169Y-46534D02*
X77017Y-46442D01*
X77342Y-46707D02*
X77169Y-46534D01*
X77701Y-47575D02*
X77342Y-46707D01*
X77967Y-47841D02*
X77701Y-47575D01*
X78667Y-47951D02*
X77967Y-47841D01*
X78999Y-48088D02*
X78667Y-47951D01*
X79006Y-48096D02*
X78999Y-48088D01*
X79048Y-48113D02*
X79006Y-48096D01*
X79505Y-48113D02*
X79048Y-48113D01*
X80110Y-48065D02*
X79505Y-48113D01*
X80355Y-48065D02*
X80110Y-48065D01*
X81201Y-48448D02*
X80355Y-48065D01*
G54D10*
G36*
X74152Y-49551D02*
X72778Y-53431D01*
X72685Y-53470D01*
X72638Y-53517D01*
X72638Y-51112D01*
X72686Y-51132D01*
X72824Y-51132D01*
X72951Y-51080D01*
X73048Y-50983D01*
X73101Y-50856D01*
X73101Y-50719D01*
X73100Y-50716D01*
X74152Y-49551D01*
X74152Y-49551D01*
G37*
G54D25*
X74152Y-49551D02*
X72778Y-53431D01*
X72685Y-53470D01*
X72638Y-53517D01*
X72638Y-51112D01*
X72686Y-51132D01*
X72824Y-51132D01*
X72951Y-51080D01*
X73048Y-50983D01*
X73101Y-50856D01*
X73101Y-50719D01*
X73100Y-50716D01*
X74152Y-49551D01*
G54D10*
G36*
X77902Y-49019D02*
X77841Y-49079D01*
X77824Y-49105D01*
X77802Y-49133D01*
X77056Y-50609D01*
X77056Y-50573D01*
X77004Y-50446D01*
X76907Y-50349D01*
X76780Y-50297D01*
X76683Y-50296D01*
X75295Y-49335D01*
X75252Y-49232D01*
X75155Y-49135D01*
X75028Y-49082D01*
X74891Y-49082D01*
X74764Y-49134D01*
X74726Y-49171D01*
X74753Y-49097D01*
X74767Y-49060D01*
X74962Y-47882D01*
X74998Y-47867D01*
X75095Y-47770D01*
X75148Y-47643D01*
X75148Y-47506D01*
X75096Y-47379D01*
X74999Y-47282D01*
X74872Y-47229D01*
X74734Y-47229D01*
X74693Y-47246D01*
X74712Y-46847D01*
X74761Y-46795D01*
X74871Y-46795D01*
X74998Y-46743D01*
X75095Y-46646D01*
X75148Y-46519D01*
X75148Y-46382D01*
X75096Y-46255D01*
X74998Y-46157D01*
X74872Y-46105D01*
X74734Y-46105D01*
X74607Y-46157D01*
X74510Y-46254D01*
X74457Y-46381D01*
X74457Y-46512D01*
X74357Y-46618D01*
X74334Y-46654D01*
X74320Y-46672D01*
X74319Y-46678D01*
X74313Y-46686D01*
X74306Y-46730D01*
X74301Y-46751D01*
X74300Y-46764D01*
X74300Y-46766D01*
X74300Y-46767D01*
X74248Y-47865D01*
X73874Y-47233D01*
X73874Y-47105D01*
X73822Y-46978D01*
X73725Y-46881D01*
X73598Y-46828D01*
X73461Y-46828D01*
X73334Y-46880D01*
X73237Y-46977D01*
X73184Y-47104D01*
X73184Y-47242D01*
X73236Y-47369D01*
X73333Y-47466D01*
X73412Y-47498D01*
X73920Y-48358D01*
X73920Y-48538D01*
X73918Y-48544D01*
X73913Y-48546D01*
X73816Y-48643D01*
X73764Y-48770D01*
X73763Y-48907D01*
X73816Y-49034D01*
X73913Y-49131D01*
X73956Y-49149D01*
X72788Y-50442D01*
X72687Y-50442D01*
X72638Y-50462D01*
X72638Y-44210D01*
X72740Y-44312D01*
X72903Y-44380D01*
X73079Y-44380D01*
X73242Y-44312D01*
X73260Y-44295D01*
X73834Y-44570D01*
X73719Y-44685D01*
X73651Y-44848D01*
X73651Y-45024D01*
X73718Y-45187D01*
X73843Y-45312D01*
X74005Y-45380D01*
X74182Y-45380D01*
X74256Y-45349D01*
X75885Y-46751D01*
X76040Y-46906D01*
X76289Y-47227D01*
X76293Y-47230D01*
X76295Y-47235D01*
X76951Y-48000D01*
X76856Y-48000D01*
X76729Y-48052D01*
X76632Y-48149D01*
X76579Y-48276D01*
X76579Y-48389D01*
X75604Y-48216D01*
X75588Y-48176D01*
X75491Y-48079D01*
X75364Y-48026D01*
X75227Y-48026D01*
X75100Y-48079D01*
X75003Y-48176D01*
X74950Y-48302D01*
X74950Y-48440D01*
X75002Y-48567D01*
X75099Y-48664D01*
X75226Y-48717D01*
X75364Y-48717D01*
X75490Y-48664D01*
X75531Y-48624D01*
X76765Y-48844D01*
X76766Y-48844D01*
X76770Y-48846D01*
X77902Y-49019D01*
X77902Y-49019D01*
G37*
G54D25*
X77902Y-49019D02*
X77841Y-49079D01*
X77824Y-49105D01*
X77802Y-49133D01*
X77056Y-50609D01*
X77056Y-50573D01*
X77004Y-50446D01*
X76907Y-50349D01*
X76780Y-50297D01*
X76683Y-50296D01*
X75295Y-49335D01*
X75252Y-49232D01*
X75155Y-49135D01*
X75028Y-49082D01*
X74891Y-49082D01*
X74764Y-49134D01*
X74726Y-49171D01*
X74753Y-49097D01*
X74767Y-49060D01*
X74962Y-47882D01*
X74998Y-47867D01*
X75095Y-47770D01*
X75148Y-47643D01*
X75148Y-47506D01*
X75096Y-47379D01*
X74999Y-47282D01*
X74872Y-47229D01*
X74734Y-47229D01*
X74693Y-47246D01*
X74712Y-46847D01*
X74761Y-46795D01*
X74871Y-46795D01*
X74998Y-46743D01*
X75095Y-46646D01*
X75148Y-46519D01*
X75148Y-46382D01*
X75096Y-46255D01*
X74998Y-46157D01*
X74872Y-46105D01*
X74734Y-46105D01*
X74607Y-46157D01*
X74510Y-46254D01*
X74457Y-46381D01*
X74457Y-46512D01*
X74357Y-46618D01*
X74334Y-46654D01*
X74320Y-46672D01*
X74319Y-46678D01*
X74313Y-46686D01*
X74306Y-46730D01*
X74301Y-46751D01*
X74300Y-46764D01*
X74300Y-46766D01*
X74300Y-46767D01*
X74248Y-47865D01*
X73874Y-47233D01*
X73874Y-47105D01*
X73822Y-46978D01*
X73725Y-46881D01*
X73598Y-46828D01*
X73461Y-46828D01*
X73334Y-46880D01*
X73237Y-46977D01*
X73184Y-47104D01*
X73184Y-47242D01*
X73236Y-47369D01*
X73333Y-47466D01*
X73412Y-47498D01*
X73920Y-48358D01*
X73920Y-48538D01*
X73918Y-48544D01*
X73913Y-48546D01*
X73816Y-48643D01*
X73764Y-48770D01*
X73763Y-48907D01*
X73816Y-49034D01*
X73913Y-49131D01*
X73956Y-49149D01*
X72788Y-50442D01*
X72687Y-50442D01*
X72638Y-50462D01*
X72638Y-44210D01*
X72740Y-44312D01*
X72903Y-44380D01*
X73079Y-44380D01*
X73242Y-44312D01*
X73260Y-44295D01*
X73834Y-44570D01*
X73719Y-44685D01*
X73651Y-44848D01*
X73651Y-45024D01*
X73718Y-45187D01*
X73843Y-45312D01*
X74005Y-45380D01*
X74182Y-45380D01*
X74256Y-45349D01*
X75885Y-46751D01*
X76040Y-46906D01*
X76289Y-47227D01*
X76293Y-47230D01*
X76295Y-47235D01*
X76951Y-48000D01*
X76856Y-48000D01*
X76729Y-48052D01*
X76632Y-48149D01*
X76579Y-48276D01*
X76579Y-48389D01*
X75604Y-48216D01*
X75588Y-48176D01*
X75491Y-48079D01*
X75364Y-48026D01*
X75227Y-48026D01*
X75100Y-48079D01*
X75003Y-48176D01*
X74950Y-48302D01*
X74950Y-48440D01*
X75002Y-48567D01*
X75099Y-48664D01*
X75226Y-48717D01*
X75364Y-48717D01*
X75490Y-48664D01*
X75531Y-48624D01*
X76765Y-48844D01*
X76766Y-48844D01*
X76770Y-48846D01*
X77902Y-49019D01*
G54D10*
G36*
X79966Y-39961D02*
X79950Y-40001D01*
X79950Y-40068D01*
X79950Y-40619D01*
X79964Y-40654D01*
X79729Y-40961D01*
X79724Y-40971D01*
X79713Y-40982D01*
X79698Y-41024D01*
X79683Y-41054D01*
X79682Y-41066D01*
X79677Y-41080D01*
X79520Y-42039D01*
X79520Y-42050D01*
X79514Y-42076D01*
X79427Y-45628D01*
X79396Y-45660D01*
X79343Y-45787D01*
X79343Y-45909D01*
X78979Y-46506D01*
X78971Y-46528D01*
X78957Y-46551D01*
X78867Y-46788D01*
X78843Y-46799D01*
X78746Y-46896D01*
X78693Y-47022D01*
X78693Y-47160D01*
X78745Y-47287D01*
X78842Y-47384D01*
X78936Y-47423D01*
X78931Y-47434D01*
X78931Y-47483D01*
X78493Y-47303D01*
X78447Y-47192D01*
X78350Y-47095D01*
X78224Y-47042D01*
X78086Y-47042D01*
X77959Y-47095D01*
X77926Y-47128D01*
X77691Y-46562D01*
X77676Y-46539D01*
X77667Y-46520D01*
X77471Y-46249D01*
X77485Y-46216D01*
X77485Y-46078D01*
X77432Y-45951D01*
X77335Y-45854D01*
X77208Y-45801D01*
X77071Y-45801D01*
X77010Y-45826D01*
X76941Y-45097D01*
X77001Y-45037D01*
X77054Y-44910D01*
X77054Y-44773D01*
X77001Y-44646D01*
X76904Y-44549D01*
X76777Y-44496D01*
X76640Y-44496D01*
X76513Y-44548D01*
X76416Y-44645D01*
X76363Y-44772D01*
X76363Y-44909D01*
X76415Y-45036D01*
X76512Y-45134D01*
X76528Y-45140D01*
X76637Y-46289D01*
X76648Y-46325D01*
X76652Y-46348D01*
X76657Y-46355D01*
X76660Y-46366D01*
X76683Y-46395D01*
X76697Y-46416D01*
X76834Y-46553D01*
X76761Y-46626D01*
X76658Y-46493D01*
X76652Y-46488D01*
X76648Y-46482D01*
X74510Y-44090D01*
X74537Y-44025D01*
X74537Y-43849D01*
X74470Y-43686D01*
X74345Y-43561D01*
X74183Y-43493D01*
X74006Y-43493D01*
X73843Y-43561D01*
X73719Y-43685D01*
X73651Y-43848D01*
X73651Y-44022D01*
X73435Y-43919D01*
X73435Y-43849D01*
X73367Y-43686D01*
X73243Y-43561D01*
X73080Y-43493D01*
X72904Y-43493D01*
X72741Y-43561D01*
X72638Y-43663D01*
X72638Y-43361D01*
X72683Y-43380D01*
X72750Y-43380D01*
X73300Y-43380D01*
X73362Y-43354D01*
X73409Y-43307D01*
X73435Y-43245D01*
X73435Y-43178D01*
X73435Y-42628D01*
X73409Y-42566D01*
X73362Y-42519D01*
X73300Y-42493D01*
X73233Y-42493D01*
X72683Y-42493D01*
X72638Y-42512D01*
X72638Y-39961D01*
X75668Y-39961D01*
X75668Y-41968D01*
X75683Y-42044D01*
X75726Y-42108D01*
X75790Y-42151D01*
X75866Y-42166D01*
X78151Y-42166D01*
X78052Y-42206D01*
X77955Y-42303D01*
X77902Y-42430D01*
X77902Y-42568D01*
X77933Y-42643D01*
X77378Y-44688D01*
X77282Y-44783D01*
X77230Y-44910D01*
X77230Y-45047D01*
X77282Y-45174D01*
X77379Y-45272D01*
X77506Y-45324D01*
X77643Y-45324D01*
X77770Y-45272D01*
X77867Y-45175D01*
X77920Y-45048D01*
X77920Y-44911D01*
X77890Y-44837D01*
X78446Y-42789D01*
X78540Y-42695D01*
X78593Y-42568D01*
X78593Y-42431D01*
X78540Y-42304D01*
X78443Y-42207D01*
X78344Y-42166D01*
X78937Y-42166D01*
X79012Y-42151D01*
X79076Y-42108D01*
X79119Y-42044D01*
X79134Y-41968D01*
X79134Y-39961D01*
X79966Y-39961D01*
X79966Y-39961D01*
G37*
G54D25*
X79966Y-39961D02*
X79950Y-40001D01*
X79950Y-40068D01*
X79950Y-40619D01*
X79964Y-40654D01*
X79729Y-40961D01*
X79724Y-40971D01*
X79713Y-40982D01*
X79698Y-41024D01*
X79683Y-41054D01*
X79682Y-41066D01*
X79677Y-41080D01*
X79520Y-42039D01*
X79520Y-42050D01*
X79514Y-42076D01*
X79427Y-45628D01*
X79396Y-45660D01*
X79343Y-45787D01*
X79343Y-45909D01*
X78979Y-46506D01*
X78971Y-46528D01*
X78957Y-46551D01*
X78867Y-46788D01*
X78843Y-46799D01*
X78746Y-46896D01*
X78693Y-47022D01*
X78693Y-47160D01*
X78745Y-47287D01*
X78842Y-47384D01*
X78936Y-47423D01*
X78931Y-47434D01*
X78931Y-47483D01*
X78493Y-47303D01*
X78447Y-47192D01*
X78350Y-47095D01*
X78224Y-47042D01*
X78086Y-47042D01*
X77959Y-47095D01*
X77926Y-47128D01*
X77691Y-46562D01*
X77676Y-46539D01*
X77667Y-46520D01*
X77471Y-46249D01*
X77485Y-46216D01*
X77485Y-46078D01*
X77432Y-45951D01*
X77335Y-45854D01*
X77208Y-45801D01*
X77071Y-45801D01*
X77010Y-45826D01*
X76941Y-45097D01*
X77001Y-45037D01*
X77054Y-44910D01*
X77054Y-44773D01*
X77001Y-44646D01*
X76904Y-44549D01*
X76777Y-44496D01*
X76640Y-44496D01*
X76513Y-44548D01*
X76416Y-44645D01*
X76363Y-44772D01*
X76363Y-44909D01*
X76415Y-45036D01*
X76512Y-45134D01*
X76528Y-45140D01*
X76637Y-46289D01*
X76648Y-46325D01*
X76652Y-46348D01*
X76657Y-46355D01*
X76660Y-46366D01*
X76683Y-46395D01*
X76697Y-46416D01*
X76834Y-46553D01*
X76761Y-46626D01*
X76658Y-46493D01*
X76652Y-46488D01*
X76648Y-46482D01*
X74510Y-44090D01*
X74537Y-44025D01*
X74537Y-43849D01*
X74470Y-43686D01*
X74345Y-43561D01*
X74183Y-43493D01*
X74006Y-43493D01*
X73843Y-43561D01*
X73719Y-43685D01*
X73651Y-43848D01*
X73651Y-44022D01*
X73435Y-43919D01*
X73435Y-43849D01*
X73367Y-43686D01*
X73243Y-43561D01*
X73080Y-43493D01*
X72904Y-43493D01*
X72741Y-43561D01*
X72638Y-43663D01*
X72638Y-43361D01*
X72683Y-43380D01*
X72750Y-43380D01*
X73300Y-43380D01*
X73362Y-43354D01*
X73409Y-43307D01*
X73435Y-43245D01*
X73435Y-43178D01*
X73435Y-42628D01*
X73409Y-42566D01*
X73362Y-42519D01*
X73300Y-42493D01*
X73233Y-42493D01*
X72683Y-42493D01*
X72638Y-42512D01*
X72638Y-39961D01*
X75668Y-39961D01*
X75668Y-41968D01*
X75683Y-42044D01*
X75726Y-42108D01*
X75790Y-42151D01*
X75866Y-42166D01*
X78151Y-42166D01*
X78052Y-42206D01*
X77955Y-42303D01*
X77902Y-42430D01*
X77902Y-42568D01*
X77933Y-42643D01*
X77378Y-44688D01*
X77282Y-44783D01*
X77230Y-44910D01*
X77230Y-45047D01*
X77282Y-45174D01*
X77379Y-45272D01*
X77506Y-45324D01*
X77643Y-45324D01*
X77770Y-45272D01*
X77867Y-45175D01*
X77920Y-45048D01*
X77920Y-44911D01*
X77890Y-44837D01*
X78446Y-42789D01*
X78540Y-42695D01*
X78593Y-42568D01*
X78593Y-42431D01*
X78540Y-42304D01*
X78443Y-42207D01*
X78344Y-42166D01*
X78937Y-42166D01*
X79012Y-42151D01*
X79076Y-42108D01*
X79119Y-42044D01*
X79134Y-41968D01*
X79134Y-39961D01*
X79966Y-39961D01*
G54D10*
G36*
X80737Y-56259D02*
X76914Y-56259D01*
X77017Y-56156D01*
X77084Y-55994D01*
X77084Y-55817D01*
X77017Y-55654D01*
X76893Y-55530D01*
X76734Y-55464D01*
X79376Y-55168D01*
X79376Y-55167D01*
X80737Y-55167D01*
X80737Y-56259D01*
X80737Y-56259D01*
G37*
G54D25*
X80737Y-56259D02*
X76914Y-56259D01*
X77017Y-56156D01*
X77084Y-55994D01*
X77084Y-55817D01*
X77017Y-55654D01*
X76893Y-55530D01*
X76734Y-55464D01*
X79376Y-55168D01*
X79376Y-55167D01*
X80737Y-55167D01*
X80737Y-56259D01*
G54D10*
G36*
X84139Y-46604D02*
X84090Y-46722D01*
X84090Y-46859D01*
X84122Y-46938D01*
X83928Y-47701D01*
X83805Y-47650D01*
X83668Y-47650D01*
X83541Y-47702D01*
X83443Y-47799D01*
X83391Y-47926D01*
X83391Y-48064D01*
X83407Y-48102D01*
X82872Y-48863D01*
X82863Y-48884D01*
X82850Y-48903D01*
X82814Y-48989D01*
X82810Y-49010D01*
X82803Y-49026D01*
X82765Y-49214D01*
X82663Y-49172D01*
X82525Y-49171D01*
X82483Y-49189D01*
X81725Y-48668D01*
X81723Y-48667D01*
X81720Y-48664D01*
X81677Y-48647D01*
X81651Y-48636D01*
X81648Y-48636D01*
X81644Y-48634D01*
X81508Y-48610D01*
X81546Y-48517D01*
X81546Y-48379D01*
X81494Y-48252D01*
X81397Y-48155D01*
X81270Y-48102D01*
X81245Y-48102D01*
X81271Y-48101D01*
X81306Y-48093D01*
X81343Y-48086D01*
X81347Y-48084D01*
X81350Y-48083D01*
X81379Y-48062D01*
X81411Y-48041D01*
X81676Y-47775D01*
X81679Y-47771D01*
X81684Y-47767D01*
X82233Y-47155D01*
X82331Y-47156D01*
X82458Y-47103D01*
X82556Y-47006D01*
X82608Y-46879D01*
X82608Y-46742D01*
X82556Y-46615D01*
X82459Y-46518D01*
X82332Y-46465D01*
X82195Y-46465D01*
X82068Y-46517D01*
X82047Y-46538D01*
X82026Y-46518D01*
X81899Y-46465D01*
X81761Y-46465D01*
X81634Y-46517D01*
X81537Y-46614D01*
X81533Y-46624D01*
X81684Y-46112D01*
X81688Y-46116D01*
X81815Y-46169D01*
X81952Y-46169D01*
X82079Y-46117D01*
X82103Y-46093D01*
X84139Y-46604D01*
X84139Y-46604D01*
G37*
G54D25*
X84139Y-46604D02*
X84090Y-46722D01*
X84090Y-46859D01*
X84122Y-46938D01*
X83928Y-47701D01*
X83805Y-47650D01*
X83668Y-47650D01*
X83541Y-47702D01*
X83443Y-47799D01*
X83391Y-47926D01*
X83391Y-48064D01*
X83407Y-48102D01*
X82872Y-48863D01*
X82863Y-48884D01*
X82850Y-48903D01*
X82814Y-48989D01*
X82810Y-49010D01*
X82803Y-49026D01*
X82765Y-49214D01*
X82663Y-49172D01*
X82525Y-49171D01*
X82483Y-49189D01*
X81725Y-48668D01*
X81723Y-48667D01*
X81720Y-48664D01*
X81677Y-48647D01*
X81651Y-48636D01*
X81648Y-48636D01*
X81644Y-48634D01*
X81508Y-48610D01*
X81546Y-48517D01*
X81546Y-48379D01*
X81494Y-48252D01*
X81397Y-48155D01*
X81270Y-48102D01*
X81245Y-48102D01*
X81271Y-48101D01*
X81306Y-48093D01*
X81343Y-48086D01*
X81347Y-48084D01*
X81350Y-48083D01*
X81379Y-48062D01*
X81411Y-48041D01*
X81676Y-47775D01*
X81679Y-47771D01*
X81684Y-47767D01*
X82233Y-47155D01*
X82331Y-47156D01*
X82458Y-47103D01*
X82556Y-47006D01*
X82608Y-46879D01*
X82608Y-46742D01*
X82556Y-46615D01*
X82459Y-46518D01*
X82332Y-46465D01*
X82195Y-46465D01*
X82068Y-46517D01*
X82047Y-46538D01*
X82026Y-46518D01*
X81899Y-46465D01*
X81761Y-46465D01*
X81634Y-46517D01*
X81537Y-46614D01*
X81533Y-46624D01*
X81684Y-46112D01*
X81688Y-46116D01*
X81815Y-46169D01*
X81952Y-46169D01*
X82079Y-46117D01*
X82103Y-46093D01*
X84139Y-46604D01*
G54D10*
G36*
X84535Y-42763D02*
X84010Y-43365D01*
X84005Y-43373D01*
X83992Y-43386D01*
X82784Y-45224D01*
X82737Y-45224D01*
X82610Y-45277D01*
X82513Y-45374D01*
X82460Y-45501D01*
X82460Y-45638D01*
X82513Y-45765D01*
X82516Y-45769D01*
X82202Y-45690D01*
X82177Y-45628D01*
X82137Y-45588D01*
X82193Y-45565D01*
X82290Y-45468D01*
X82343Y-45341D01*
X82343Y-45204D01*
X82290Y-45077D01*
X82193Y-44980D01*
X82167Y-44969D01*
X84435Y-42637D01*
X84532Y-42637D01*
X84532Y-42755D01*
X84535Y-42763D01*
X84535Y-42763D01*
G37*
G54D25*
X84535Y-42763D02*
X84010Y-43365D01*
X84005Y-43373D01*
X83992Y-43386D01*
X82784Y-45224D01*
X82737Y-45224D01*
X82610Y-45277D01*
X82513Y-45374D01*
X82460Y-45501D01*
X82460Y-45638D01*
X82513Y-45765D01*
X82516Y-45769D01*
X82202Y-45690D01*
X82177Y-45628D01*
X82137Y-45588D01*
X82193Y-45565D01*
X82290Y-45468D01*
X82343Y-45341D01*
X82343Y-45204D01*
X82290Y-45077D01*
X82193Y-44980D01*
X82167Y-44969D01*
X84435Y-42637D01*
X84532Y-42637D01*
X84532Y-42755D01*
X84535Y-42763D01*
G54D10*
G36*
X85639Y-50242D02*
X85623Y-50243D01*
X85621Y-50242D01*
X85494Y-50189D01*
X85357Y-50189D01*
X85230Y-50241D01*
X85132Y-50338D01*
X85080Y-50465D01*
X85080Y-50580D01*
X84621Y-51299D01*
X83837Y-51265D01*
X83801Y-51229D01*
X83674Y-51177D01*
X83626Y-51177D01*
X83099Y-50683D01*
X83139Y-50700D01*
X83276Y-50700D01*
X83403Y-50647D01*
X83500Y-50550D01*
X83553Y-50423D01*
X83553Y-50286D01*
X83501Y-50159D01*
X83465Y-50124D01*
X83565Y-49623D01*
X83666Y-49665D01*
X83803Y-49665D01*
X83930Y-49613D01*
X85639Y-50242D01*
X85639Y-50242D01*
G37*
G54D25*
X85639Y-50242D02*
X85623Y-50243D01*
X85621Y-50242D01*
X85494Y-50189D01*
X85357Y-50189D01*
X85230Y-50241D01*
X85132Y-50338D01*
X85080Y-50465D01*
X85080Y-50580D01*
X84621Y-51299D01*
X83837Y-51265D01*
X83801Y-51229D01*
X83674Y-51177D01*
X83626Y-51177D01*
X83099Y-50683D01*
X83139Y-50700D01*
X83276Y-50700D01*
X83403Y-50647D01*
X83500Y-50550D01*
X83553Y-50423D01*
X83553Y-50286D01*
X83501Y-50159D01*
X83465Y-50124D01*
X83565Y-49623D01*
X83666Y-49665D01*
X83803Y-49665D01*
X83930Y-49613D01*
X85639Y-50242D01*
G54D10*
G36*
X88169Y-49495D02*
X88025Y-49849D01*
X86925Y-50057D01*
X87041Y-49973D01*
X87075Y-49987D01*
X87212Y-49987D01*
X87339Y-49935D01*
X87437Y-49838D01*
X87489Y-49711D01*
X87489Y-49574D01*
X87437Y-49447D01*
X87340Y-49349D01*
X87213Y-49297D01*
X87076Y-49297D01*
X86949Y-49349D01*
X86851Y-49446D01*
X86799Y-49573D01*
X86799Y-49636D01*
X86308Y-49992D01*
X86162Y-49992D01*
X84933Y-49540D01*
X85019Y-49453D01*
X85072Y-49326D01*
X85072Y-49189D01*
X85060Y-49160D01*
X85645Y-48383D01*
X85774Y-48254D01*
X86848Y-47932D01*
X86862Y-47946D01*
X86989Y-47999D01*
X87126Y-47999D01*
X87238Y-47952D01*
X87245Y-47980D01*
X87260Y-48014D01*
X87270Y-48040D01*
X87863Y-49021D01*
X87838Y-49081D01*
X87838Y-49218D01*
X87891Y-49345D01*
X87988Y-49442D01*
X88115Y-49495D01*
X88169Y-49495D01*
X88169Y-49495D01*
G37*
G54D25*
X88169Y-49495D02*
X88025Y-49849D01*
X86925Y-50057D01*
X87041Y-49973D01*
X87075Y-49987D01*
X87212Y-49987D01*
X87339Y-49935D01*
X87437Y-49838D01*
X87489Y-49711D01*
X87489Y-49574D01*
X87437Y-49447D01*
X87340Y-49349D01*
X87213Y-49297D01*
X87076Y-49297D01*
X86949Y-49349D01*
X86851Y-49446D01*
X86799Y-49573D01*
X86799Y-49636D01*
X86308Y-49992D01*
X86162Y-49992D01*
X84933Y-49540D01*
X85019Y-49453D01*
X85072Y-49326D01*
X85072Y-49189D01*
X85060Y-49160D01*
X85645Y-48383D01*
X85774Y-48254D01*
X86848Y-47932D01*
X86862Y-47946D01*
X86989Y-47999D01*
X87126Y-47999D01*
X87238Y-47952D01*
X87245Y-47980D01*
X87260Y-48014D01*
X87270Y-48040D01*
X87863Y-49021D01*
X87838Y-49081D01*
X87838Y-49218D01*
X87891Y-49345D01*
X87988Y-49442D01*
X88115Y-49495D01*
X88169Y-49495D01*
G54D10*
G36*
X90080Y-49577D02*
X89439Y-49748D01*
X89364Y-49716D01*
X89227Y-49716D01*
X89100Y-49769D01*
X89002Y-49866D01*
X88956Y-49978D01*
X88718Y-50150D01*
X88621Y-50150D01*
X88520Y-50048D01*
X88785Y-49397D01*
X88796Y-49343D01*
X88805Y-49297D01*
X88805Y-49295D01*
X88805Y-49295D01*
X88805Y-49295D01*
X88805Y-49003D01*
X88800Y-48977D01*
X88800Y-48951D01*
X88790Y-48928D01*
X88784Y-48901D01*
X88770Y-48879D01*
X88760Y-48855D01*
X88118Y-47893D01*
X89516Y-47036D01*
X89516Y-49577D01*
X90080Y-49577D01*
X90080Y-49577D01*
G37*
G54D25*
X90080Y-49577D02*
X89439Y-49748D01*
X89364Y-49716D01*
X89227Y-49716D01*
X89100Y-49769D01*
X89002Y-49866D01*
X88956Y-49978D01*
X88718Y-50150D01*
X88621Y-50150D01*
X88520Y-50048D01*
X88785Y-49397D01*
X88796Y-49343D01*
X88805Y-49297D01*
X88805Y-49295D01*
X88805Y-49295D01*
X88805Y-49295D01*
X88805Y-49003D01*
X88800Y-48977D01*
X88800Y-48951D01*
X88790Y-48928D01*
X88784Y-48901D01*
X88770Y-48879D01*
X88760Y-48855D01*
X88118Y-47893D01*
X89516Y-47036D01*
X89516Y-49577D01*
X90080Y-49577D01*
G54D10*
G36*
X90186Y-46034D02*
X90164Y-46025D01*
X90026Y-46025D01*
X89899Y-46077D01*
X89802Y-46174D01*
X89768Y-46256D01*
X89104Y-46663D01*
X89104Y-43770D01*
X89104Y-43770D01*
X89104Y-43099D01*
X89104Y-42549D01*
X89079Y-42488D01*
X89031Y-42440D01*
X88970Y-42415D01*
X88903Y-42415D01*
X88353Y-42415D01*
X88291Y-42440D01*
X88243Y-42487D01*
X88218Y-42549D01*
X88218Y-42591D01*
X88080Y-42591D01*
X88080Y-42549D01*
X88055Y-42488D01*
X88008Y-42440D01*
X87946Y-42415D01*
X87879Y-42415D01*
X87329Y-42415D01*
X87267Y-42440D01*
X87220Y-42487D01*
X87194Y-42549D01*
X87194Y-42616D01*
X87194Y-43166D01*
X87208Y-43201D01*
X86977Y-43504D01*
X86971Y-43509D01*
X85550Y-45388D01*
X85430Y-45438D01*
X85333Y-45535D01*
X85280Y-45661D01*
X85280Y-45799D01*
X85332Y-45926D01*
X85429Y-46023D01*
X85556Y-46076D01*
X85694Y-46076D01*
X85820Y-46023D01*
X85918Y-45926D01*
X85970Y-45799D01*
X85970Y-45716D01*
X87235Y-44044D01*
X87261Y-44108D01*
X87386Y-44233D01*
X87549Y-44301D01*
X87725Y-44301D01*
X87888Y-44234D01*
X88013Y-44109D01*
X88080Y-43946D01*
X88080Y-43770D01*
X88013Y-43607D01*
X87889Y-43482D01*
X87726Y-43415D01*
X87716Y-43415D01*
X87751Y-43368D01*
X87767Y-43336D01*
X87786Y-43308D01*
X87787Y-43301D01*
X87946Y-43301D01*
X88007Y-43275D01*
X88055Y-43228D01*
X88080Y-43166D01*
X88080Y-43124D01*
X88218Y-43124D01*
X88218Y-43166D01*
X88243Y-43228D01*
X88291Y-43275D01*
X88352Y-43301D01*
X88419Y-43301D01*
X88969Y-43301D01*
X89031Y-43275D01*
X89078Y-43228D01*
X89104Y-43166D01*
X89104Y-43099D01*
X89104Y-43770D01*
X89037Y-43607D01*
X88912Y-43482D01*
X88749Y-43415D01*
X88573Y-43415D01*
X88410Y-43482D01*
X88285Y-43606D01*
X88218Y-43769D01*
X88218Y-43946D01*
X88285Y-44108D01*
X88410Y-44233D01*
X88572Y-44301D01*
X88749Y-44301D01*
X88912Y-44234D01*
X89036Y-44109D01*
X89104Y-43946D01*
X89104Y-43770D01*
X89104Y-46663D01*
X87796Y-47465D01*
X87674Y-47465D01*
X87562Y-47511D01*
X87555Y-47484D01*
X87548Y-47468D01*
X87545Y-47452D01*
X87532Y-47432D01*
X87522Y-47410D01*
X87509Y-47399D01*
X87500Y-47384D01*
X87327Y-47211D01*
X87322Y-47208D01*
X87318Y-47203D01*
X87288Y-47185D01*
X87260Y-47166D01*
X87254Y-47165D01*
X87248Y-47162D01*
X86437Y-46880D01*
X86429Y-46878D01*
X84621Y-46298D01*
X84614Y-46297D01*
X84608Y-46294D01*
X82959Y-45880D01*
X83001Y-45863D01*
X83098Y-45766D01*
X83151Y-45639D01*
X83151Y-45501D01*
X83131Y-45453D01*
X84190Y-43840D01*
X84266Y-43916D01*
X84393Y-43969D01*
X84530Y-43969D01*
X84657Y-43916D01*
X84754Y-43819D01*
X84807Y-43692D01*
X84807Y-43555D01*
X84804Y-43547D01*
X85328Y-42945D01*
X85330Y-42943D01*
X85333Y-42940D01*
X85352Y-42917D01*
X85435Y-42917D01*
X85562Y-42864D01*
X85659Y-42767D01*
X85712Y-42640D01*
X85712Y-42503D01*
X85660Y-42376D01*
X85563Y-42279D01*
X85436Y-42226D01*
X85298Y-42226D01*
X85171Y-42279D01*
X85074Y-42376D01*
X85067Y-42392D01*
X84946Y-42341D01*
X84829Y-42341D01*
X84829Y-42223D01*
X84776Y-42096D01*
X84679Y-41999D01*
X84552Y-41946D01*
X84415Y-41946D01*
X84288Y-41999D01*
X84191Y-42096D01*
X84138Y-42223D01*
X84138Y-42347D01*
X82144Y-44398D01*
X82711Y-43379D01*
X82737Y-43379D01*
X82864Y-43327D01*
X82961Y-43230D01*
X83013Y-43103D01*
X83014Y-42965D01*
X82961Y-42838D01*
X82864Y-42741D01*
X82737Y-42688D01*
X82600Y-42688D01*
X82473Y-42741D01*
X82376Y-42838D01*
X82323Y-42965D01*
X82323Y-43102D01*
X82352Y-43172D01*
X82267Y-43324D01*
X82192Y-43248D01*
X82065Y-43195D01*
X81927Y-43195D01*
X81800Y-43248D01*
X81703Y-43345D01*
X81651Y-43471D01*
X81650Y-43609D01*
X81684Y-43689D01*
X80942Y-45102D01*
X80888Y-45047D01*
X80857Y-45034D01*
X80657Y-43674D01*
X80769Y-43562D01*
X80837Y-43399D01*
X80837Y-43223D01*
X80769Y-43060D01*
X80645Y-42935D01*
X80482Y-42867D01*
X80305Y-42867D01*
X80202Y-42909D01*
X80205Y-42198D01*
X80414Y-41754D01*
X80481Y-41754D01*
X80644Y-41687D01*
X80769Y-41562D01*
X80837Y-41399D01*
X80837Y-41223D01*
X80769Y-41060D01*
X80645Y-40935D01*
X80482Y-40867D01*
X80472Y-40867D01*
X80507Y-40821D01*
X80521Y-40792D01*
X80541Y-40761D01*
X80543Y-40754D01*
X80702Y-40754D01*
X80764Y-40729D01*
X80811Y-40681D01*
X80837Y-40620D01*
X80837Y-40553D01*
X80837Y-40002D01*
X80820Y-39961D01*
X90186Y-39961D01*
X90186Y-46034D01*
X90186Y-46034D01*
G37*
G54D25*
X90186Y-46034D02*
X90164Y-46025D01*
X90026Y-46025D01*
X89899Y-46077D01*
X89802Y-46174D01*
X89768Y-46256D01*
X89104Y-46663D01*
X89104Y-43770D01*
X89104Y-43770D01*
X89104Y-43099D01*
X89104Y-42549D01*
X89079Y-42488D01*
X89031Y-42440D01*
X88970Y-42415D01*
X88903Y-42415D01*
X88353Y-42415D01*
X88291Y-42440D01*
X88243Y-42487D01*
X88218Y-42549D01*
X88218Y-42591D01*
X88080Y-42591D01*
X88080Y-42549D01*
X88055Y-42488D01*
X88008Y-42440D01*
X87946Y-42415D01*
X87879Y-42415D01*
X87329Y-42415D01*
X87267Y-42440D01*
X87220Y-42487D01*
X87194Y-42549D01*
X87194Y-42616D01*
X87194Y-43166D01*
X87208Y-43201D01*
X86977Y-43504D01*
X86971Y-43509D01*
X85550Y-45388D01*
X85430Y-45438D01*
X85333Y-45535D01*
X85280Y-45661D01*
X85280Y-45799D01*
X85332Y-45926D01*
X85429Y-46023D01*
X85556Y-46076D01*
X85694Y-46076D01*
X85820Y-46023D01*
X85918Y-45926D01*
X85970Y-45799D01*
X85970Y-45716D01*
X87235Y-44044D01*
X87261Y-44108D01*
X87386Y-44233D01*
X87549Y-44301D01*
X87725Y-44301D01*
X87888Y-44234D01*
X88013Y-44109D01*
X88080Y-43946D01*
X88080Y-43770D01*
X88013Y-43607D01*
X87889Y-43482D01*
X87726Y-43415D01*
X87716Y-43415D01*
X87751Y-43368D01*
X87767Y-43336D01*
X87786Y-43308D01*
X87787Y-43301D01*
X87946Y-43301D01*
X88007Y-43275D01*
X88055Y-43228D01*
X88080Y-43166D01*
X88080Y-43124D01*
X88218Y-43124D01*
X88218Y-43166D01*
X88243Y-43228D01*
X88291Y-43275D01*
X88352Y-43301D01*
X88419Y-43301D01*
X88969Y-43301D01*
X89031Y-43275D01*
X89078Y-43228D01*
X89104Y-43166D01*
X89104Y-43099D01*
X89104Y-43770D01*
X89037Y-43607D01*
X88912Y-43482D01*
X88749Y-43415D01*
X88573Y-43415D01*
X88410Y-43482D01*
X88285Y-43606D01*
X88218Y-43769D01*
X88218Y-43946D01*
X88285Y-44108D01*
X88410Y-44233D01*
X88572Y-44301D01*
X88749Y-44301D01*
X88912Y-44234D01*
X89036Y-44109D01*
X89104Y-43946D01*
X89104Y-43770D01*
X89104Y-46663D01*
X87796Y-47465D01*
X87674Y-47465D01*
X87562Y-47511D01*
X87555Y-47484D01*
X87548Y-47468D01*
X87545Y-47452D01*
X87532Y-47432D01*
X87522Y-47410D01*
X87509Y-47399D01*
X87500Y-47384D01*
X87327Y-47211D01*
X87322Y-47208D01*
X87318Y-47203D01*
X87288Y-47185D01*
X87260Y-47166D01*
X87254Y-47165D01*
X87248Y-47162D01*
X86437Y-46880D01*
X86429Y-46878D01*
X84621Y-46298D01*
X84614Y-46297D01*
X84608Y-46294D01*
X82959Y-45880D01*
X83001Y-45863D01*
X83098Y-45766D01*
X83151Y-45639D01*
X83151Y-45501D01*
X83131Y-45453D01*
X84190Y-43840D01*
X84266Y-43916D01*
X84393Y-43969D01*
X84530Y-43969D01*
X84657Y-43916D01*
X84754Y-43819D01*
X84807Y-43692D01*
X84807Y-43555D01*
X84804Y-43547D01*
X85328Y-42945D01*
X85330Y-42943D01*
X85333Y-42940D01*
X85352Y-42917D01*
X85435Y-42917D01*
X85562Y-42864D01*
X85659Y-42767D01*
X85712Y-42640D01*
X85712Y-42503D01*
X85660Y-42376D01*
X85563Y-42279D01*
X85436Y-42226D01*
X85298Y-42226D01*
X85171Y-42279D01*
X85074Y-42376D01*
X85067Y-42392D01*
X84946Y-42341D01*
X84829Y-42341D01*
X84829Y-42223D01*
X84776Y-42096D01*
X84679Y-41999D01*
X84552Y-41946D01*
X84415Y-41946D01*
X84288Y-41999D01*
X84191Y-42096D01*
X84138Y-42223D01*
X84138Y-42347D01*
X82144Y-44398D01*
X82711Y-43379D01*
X82737Y-43379D01*
X82864Y-43327D01*
X82961Y-43230D01*
X83013Y-43103D01*
X83014Y-42965D01*
X82961Y-42838D01*
X82864Y-42741D01*
X82737Y-42688D01*
X82600Y-42688D01*
X82473Y-42741D01*
X82376Y-42838D01*
X82323Y-42965D01*
X82323Y-43102D01*
X82352Y-43172D01*
X82267Y-43324D01*
X82192Y-43248D01*
X82065Y-43195D01*
X81927Y-43195D01*
X81800Y-43248D01*
X81703Y-43345D01*
X81651Y-43471D01*
X81650Y-43609D01*
X81684Y-43689D01*
X80942Y-45102D01*
X80888Y-45047D01*
X80857Y-45034D01*
X80657Y-43674D01*
X80769Y-43562D01*
X80837Y-43399D01*
X80837Y-43223D01*
X80769Y-43060D01*
X80645Y-42935D01*
X80482Y-42867D01*
X80305Y-42867D01*
X80202Y-42909D01*
X80205Y-42198D01*
X80414Y-41754D01*
X80481Y-41754D01*
X80644Y-41687D01*
X80769Y-41562D01*
X80837Y-41399D01*
X80837Y-41223D01*
X80769Y-41060D01*
X80645Y-40935D01*
X80482Y-40867D01*
X80472Y-40867D01*
X80507Y-40821D01*
X80521Y-40792D01*
X80541Y-40761D01*
X80543Y-40754D01*
X80702Y-40754D01*
X80764Y-40729D01*
X80811Y-40681D01*
X80837Y-40620D01*
X80837Y-40553D01*
X80837Y-40002D01*
X80820Y-39961D01*
X90186Y-39961D01*
X90186Y-46034D01*
G54D10*
G36*
X90186Y-56259D02*
X82254Y-56259D01*
X82254Y-56226D01*
X82254Y-55178D01*
X83537Y-55306D01*
X83527Y-55316D01*
X83454Y-55494D01*
X83453Y-55686D01*
X83527Y-55863D01*
X83663Y-55999D01*
X83840Y-56073D01*
X84032Y-56073D01*
X84210Y-56000D01*
X84330Y-55880D01*
X84450Y-55999D01*
X84627Y-56073D01*
X84820Y-56073D01*
X84997Y-56000D01*
X85118Y-55880D01*
X85237Y-55999D01*
X85415Y-56073D01*
X85607Y-56073D01*
X85785Y-56000D01*
X85921Y-55864D01*
X85994Y-55687D01*
X85994Y-55494D01*
X85921Y-55317D01*
X85785Y-55181D01*
X85608Y-55107D01*
X85416Y-55107D01*
X85238Y-55180D01*
X85118Y-55301D01*
X84998Y-55181D01*
X84820Y-55107D01*
X84628Y-55107D01*
X84585Y-55125D01*
X84312Y-54894D01*
X84284Y-54879D01*
X84266Y-54864D01*
X84247Y-54858D01*
X84221Y-54844D01*
X84189Y-54840D01*
X84167Y-54833D01*
X82186Y-54636D01*
X82173Y-54637D01*
X82160Y-54634D01*
X80979Y-54634D01*
X80832Y-54634D01*
X80831Y-54634D01*
X79346Y-54634D01*
X79325Y-54639D01*
X79317Y-54638D01*
X76368Y-54969D01*
X76365Y-54966D01*
X76239Y-54914D01*
X76101Y-54914D01*
X75974Y-54966D01*
X75877Y-55063D01*
X75824Y-55190D01*
X75824Y-55327D01*
X75877Y-55454D01*
X75884Y-55462D01*
X75883Y-55462D01*
X75333Y-55462D01*
X75271Y-55487D01*
X75224Y-55535D01*
X75198Y-55596D01*
X75198Y-55663D01*
X75198Y-56213D01*
X75217Y-56259D01*
X72638Y-56259D01*
X72638Y-54008D01*
X72685Y-54055D01*
X72812Y-54108D01*
X72949Y-54108D01*
X73076Y-54055D01*
X73173Y-53958D01*
X73226Y-53831D01*
X73226Y-53694D01*
X73173Y-53567D01*
X73171Y-53564D01*
X74614Y-49490D01*
X74614Y-49496D01*
X74666Y-49622D01*
X74763Y-49720D01*
X74890Y-49772D01*
X74989Y-49772D01*
X76375Y-50732D01*
X76412Y-50822D01*
X76385Y-50985D01*
X76386Y-51007D01*
X76382Y-51028D01*
X76382Y-51322D01*
X76385Y-51335D01*
X76383Y-51349D01*
X76581Y-53293D01*
X76577Y-53296D01*
X76525Y-53423D01*
X76524Y-53561D01*
X76577Y-53688D01*
X76674Y-53785D01*
X76801Y-53837D01*
X76938Y-53838D01*
X77065Y-53785D01*
X77162Y-53688D01*
X77215Y-53561D01*
X77215Y-53424D01*
X77163Y-53297D01*
X77112Y-53246D01*
X76937Y-51520D01*
X77071Y-51520D01*
X77198Y-51468D01*
X77296Y-51371D01*
X77348Y-51244D01*
X77348Y-51106D01*
X77313Y-51021D01*
X78036Y-49590D01*
X78087Y-49641D01*
X78126Y-49657D01*
X78624Y-50801D01*
X78612Y-50828D01*
X78612Y-50966D01*
X78665Y-51093D01*
X78762Y-51190D01*
X78888Y-51243D01*
X79026Y-51243D01*
X79141Y-51195D01*
X79270Y-51215D01*
X79257Y-51244D01*
X79257Y-51382D01*
X79290Y-51460D01*
X78709Y-52557D01*
X78560Y-52705D01*
X78527Y-52734D01*
X78520Y-52731D01*
X78383Y-52731D01*
X78256Y-52784D01*
X78159Y-52881D01*
X78106Y-53008D01*
X78106Y-53145D01*
X78158Y-53272D01*
X78255Y-53369D01*
X78382Y-53422D01*
X78520Y-53422D01*
X78647Y-53369D01*
X78744Y-53272D01*
X78797Y-53146D01*
X78797Y-53050D01*
X78842Y-53011D01*
X78846Y-53004D01*
X78852Y-53001D01*
X79025Y-52828D01*
X79042Y-52802D01*
X79061Y-52778D01*
X79654Y-51659D01*
X79671Y-51659D01*
X79671Y-51746D01*
X79681Y-51770D01*
X78985Y-53310D01*
X78942Y-53328D01*
X78844Y-53425D01*
X78792Y-53552D01*
X78792Y-53689D01*
X78844Y-53816D01*
X78941Y-53914D01*
X79068Y-53966D01*
X79205Y-53966D01*
X79332Y-53914D01*
X79430Y-53817D01*
X79482Y-53690D01*
X79482Y-53553D01*
X79472Y-53527D01*
X80166Y-51989D01*
X80211Y-51970D01*
X80309Y-51873D01*
X80320Y-51846D01*
X81622Y-51346D01*
X81622Y-51407D01*
X81675Y-51534D01*
X81772Y-51631D01*
X81898Y-51683D01*
X82036Y-51684D01*
X82163Y-51631D01*
X82170Y-51624D01*
X83467Y-52053D01*
X83503Y-52139D01*
X83600Y-52237D01*
X83727Y-52289D01*
X83864Y-52289D01*
X83991Y-52237D01*
X84088Y-52140D01*
X84141Y-52013D01*
X84141Y-51876D01*
X84114Y-51811D01*
X84598Y-51832D01*
X85128Y-52850D01*
X85124Y-52859D01*
X85124Y-52996D01*
X85176Y-53123D01*
X85273Y-53221D01*
X85400Y-53273D01*
X85537Y-53273D01*
X85664Y-53221D01*
X85761Y-53124D01*
X85814Y-52997D01*
X85814Y-52860D01*
X85762Y-52733D01*
X85665Y-52636D01*
X85604Y-52610D01*
X85071Y-51586D01*
X85531Y-50864D01*
X85620Y-50827D01*
X85673Y-50774D01*
X86491Y-50681D01*
X86501Y-50678D01*
X86511Y-50678D01*
X88102Y-50377D01*
X88102Y-50378D01*
X88115Y-50397D01*
X88323Y-50605D01*
X88323Y-50605D01*
X88409Y-50662D01*
X88511Y-50683D01*
X88805Y-50683D01*
X88835Y-50677D01*
X88867Y-50676D01*
X88886Y-50667D01*
X88907Y-50662D01*
X88933Y-50645D01*
X88961Y-50632D01*
X89272Y-50407D01*
X89363Y-50407D01*
X89490Y-50355D01*
X89585Y-50260D01*
X90186Y-50100D01*
X90186Y-56259D01*
X90186Y-56259D01*
G37*
G54D25*
X90186Y-56259D02*
X82254Y-56259D01*
X82254Y-56226D01*
X82254Y-55178D01*
X83537Y-55306D01*
X83527Y-55316D01*
X83454Y-55494D01*
X83453Y-55686D01*
X83527Y-55863D01*
X83663Y-55999D01*
X83840Y-56073D01*
X84032Y-56073D01*
X84210Y-56000D01*
X84330Y-55880D01*
X84450Y-55999D01*
X84627Y-56073D01*
X84820Y-56073D01*
X84997Y-56000D01*
X85118Y-55880D01*
X85237Y-55999D01*
X85415Y-56073D01*
X85607Y-56073D01*
X85785Y-56000D01*
X85921Y-55864D01*
X85994Y-55687D01*
X85994Y-55494D01*
X85921Y-55317D01*
X85785Y-55181D01*
X85608Y-55107D01*
X85416Y-55107D01*
X85238Y-55180D01*
X85118Y-55301D01*
X84998Y-55181D01*
X84820Y-55107D01*
X84628Y-55107D01*
X84585Y-55125D01*
X84312Y-54894D01*
X84284Y-54879D01*
X84266Y-54864D01*
X84247Y-54858D01*
X84221Y-54844D01*
X84189Y-54840D01*
X84167Y-54833D01*
X82186Y-54636D01*
X82173Y-54637D01*
X82160Y-54634D01*
X80979Y-54634D01*
X80832Y-54634D01*
X80831Y-54634D01*
X79346Y-54634D01*
X79325Y-54639D01*
X79317Y-54638D01*
X76368Y-54969D01*
X76365Y-54966D01*
X76239Y-54914D01*
X76101Y-54914D01*
X75974Y-54966D01*
X75877Y-55063D01*
X75824Y-55190D01*
X75824Y-55327D01*
X75877Y-55454D01*
X75884Y-55462D01*
X75883Y-55462D01*
X75333Y-55462D01*
X75271Y-55487D01*
X75224Y-55535D01*
X75198Y-55596D01*
X75198Y-55663D01*
X75198Y-56213D01*
X75217Y-56259D01*
X72638Y-56259D01*
X72638Y-54008D01*
X72685Y-54055D01*
X72812Y-54108D01*
X72949Y-54108D01*
X73076Y-54055D01*
X73173Y-53958D01*
X73226Y-53831D01*
X73226Y-53694D01*
X73173Y-53567D01*
X73171Y-53564D01*
X74614Y-49490D01*
X74614Y-49496D01*
X74666Y-49622D01*
X74763Y-49720D01*
X74890Y-49772D01*
X74989Y-49772D01*
X76375Y-50732D01*
X76412Y-50822D01*
X76385Y-50985D01*
X76386Y-51007D01*
X76382Y-51028D01*
X76382Y-51322D01*
X76385Y-51335D01*
X76383Y-51349D01*
X76581Y-53293D01*
X76577Y-53296D01*
X76525Y-53423D01*
X76524Y-53561D01*
X76577Y-53688D01*
X76674Y-53785D01*
X76801Y-53837D01*
X76938Y-53838D01*
X77065Y-53785D01*
X77162Y-53688D01*
X77215Y-53561D01*
X77215Y-53424D01*
X77163Y-53297D01*
X77112Y-53246D01*
X76937Y-51520D01*
X77071Y-51520D01*
X77198Y-51468D01*
X77296Y-51371D01*
X77348Y-51244D01*
X77348Y-51106D01*
X77313Y-51021D01*
X78036Y-49590D01*
X78087Y-49641D01*
X78126Y-49657D01*
X78624Y-50801D01*
X78612Y-50828D01*
X78612Y-50966D01*
X78665Y-51093D01*
X78762Y-51190D01*
X78888Y-51243D01*
X79026Y-51243D01*
X79141Y-51195D01*
X79270Y-51215D01*
X79257Y-51244D01*
X79257Y-51382D01*
X79290Y-51460D01*
X78709Y-52557D01*
X78560Y-52705D01*
X78527Y-52734D01*
X78520Y-52731D01*
X78383Y-52731D01*
X78256Y-52784D01*
X78159Y-52881D01*
X78106Y-53008D01*
X78106Y-53145D01*
X78158Y-53272D01*
X78255Y-53369D01*
X78382Y-53422D01*
X78520Y-53422D01*
X78647Y-53369D01*
X78744Y-53272D01*
X78797Y-53146D01*
X78797Y-53050D01*
X78842Y-53011D01*
X78846Y-53004D01*
X78852Y-53001D01*
X79025Y-52828D01*
X79042Y-52802D01*
X79061Y-52778D01*
X79654Y-51659D01*
X79671Y-51659D01*
X79671Y-51746D01*
X79681Y-51770D01*
X78985Y-53310D01*
X78942Y-53328D01*
X78844Y-53425D01*
X78792Y-53552D01*
X78792Y-53689D01*
X78844Y-53816D01*
X78941Y-53914D01*
X79068Y-53966D01*
X79205Y-53966D01*
X79332Y-53914D01*
X79430Y-53817D01*
X79482Y-53690D01*
X79482Y-53553D01*
X79472Y-53527D01*
X80166Y-51989D01*
X80211Y-51970D01*
X80309Y-51873D01*
X80320Y-51846D01*
X81622Y-51346D01*
X81622Y-51407D01*
X81675Y-51534D01*
X81772Y-51631D01*
X81898Y-51683D01*
X82036Y-51684D01*
X82163Y-51631D01*
X82170Y-51624D01*
X83467Y-52053D01*
X83503Y-52139D01*
X83600Y-52237D01*
X83727Y-52289D01*
X83864Y-52289D01*
X83991Y-52237D01*
X84088Y-52140D01*
X84141Y-52013D01*
X84141Y-51876D01*
X84114Y-51811D01*
X84598Y-51832D01*
X85128Y-52850D01*
X85124Y-52859D01*
X85124Y-52996D01*
X85176Y-53123D01*
X85273Y-53221D01*
X85400Y-53273D01*
X85537Y-53273D01*
X85664Y-53221D01*
X85761Y-53124D01*
X85814Y-52997D01*
X85814Y-52860D01*
X85762Y-52733D01*
X85665Y-52636D01*
X85604Y-52610D01*
X85071Y-51586D01*
X85531Y-50864D01*
X85620Y-50827D01*
X85673Y-50774D01*
X86491Y-50681D01*
X86501Y-50678D01*
X86511Y-50678D01*
X88102Y-50377D01*
X88102Y-50378D01*
X88115Y-50397D01*
X88323Y-50605D01*
X88323Y-50605D01*
X88409Y-50662D01*
X88511Y-50683D01*
X88805Y-50683D01*
X88835Y-50677D01*
X88867Y-50676D01*
X88886Y-50667D01*
X88907Y-50662D01*
X88933Y-50645D01*
X88961Y-50632D01*
X89272Y-50407D01*
X89363Y-50407D01*
X89490Y-50355D01*
X89585Y-50260D01*
X90186Y-50100D01*
X90186Y-56259D01*
M02*
