M48
;DRILL file {PCBnew (2011-03-30 BZR 2932)-stable} date 29/05/2011 23:50:29
;FORMAT={-:-/ absolute / metric / decimal}
FMAT,2
METRIC,TZ
T1C0.399
T2C0.813
T3C3.500
%
G90
G05
M71
T1
X148.951Y-137.145
X153.309Y-133.688
X154.889Y-140.561
X155.011Y-135.209
X156.025Y-143.027
X156.271Y-133.772
X156.972Y-140.805
X162.669Y-141.399
X163.594Y-133.741
X164.511Y-137.333
X167.162Y-141.234
X167.211Y-137.221
X167.480Y-138.321
X171.745Y-141.234
X173.401Y-137.589
X173.893Y-141.270
X176.591Y-139.591
X177.460Y-137.269
T2
X147.828Y-143.002
X150.368Y-143.002
X152.908Y-143.002
X159.004Y-143.002
X161.544Y-143.002
X164.592Y-143.002
X167.640Y-143.002
X170.180Y-143.002
X172.974Y-134.112
X173.228Y-143.002
X175.514Y-134.112
X176.276Y-143.002
X178.054Y-134.112
T3
X160.274Y-136.144
T0
M30
