G04 (created by PCBNEW-RS274X (2011-03-30 BZR 2932)-stable) date 29/05/2011 23:50:55*
G01*
G70*
G90*
%MOIN*%
G04 Gerber Fmt 3.4, Leading zero omitted, Abs format*
%FSLAX34Y34*%
G04 APERTURE LIST*
%ADD10C,0.006000*%
%ADD11R,0.075100X0.067200*%
%ADD12R,0.051500X0.067200*%
%ADD13R,0.083000X0.138100*%
%ADD14R,0.075000X0.075000*%
%ADD15C,0.075000*%
%ADD16O,0.075000X0.075000*%
%ADD17R,0.065000X0.045000*%
%ADD18R,0.045000X0.065000*%
%ADD19R,0.045000X0.063300*%
%ADD20O,0.045000X0.063300*%
%ADD21R,0.031800X0.039700*%
%ADD22R,0.051500X0.090900*%
%ADD23C,0.256200*%
G04 APERTURE END LIST*
G54D10*
G54D11*
X61501Y-54282D03*
X60517Y-54282D03*
G54D12*
X61383Y-53652D03*
X60635Y-53652D03*
X61383Y-54912D03*
X60635Y-54912D03*
G54D13*
X59516Y-55063D03*
X58729Y-55063D03*
X57942Y-55063D03*
X59516Y-52937D03*
X58729Y-52937D03*
X57942Y-52937D03*
G54D14*
X62600Y-56300D03*
G54D15*
X63600Y-56300D03*
G54D16*
X69400Y-56300D03*
X68200Y-56300D03*
X64800Y-56300D03*
G54D14*
X66000Y-56300D03*
G54D15*
X67000Y-56300D03*
G54D14*
X68100Y-52800D03*
G54D15*
X69100Y-52800D03*
X70100Y-52800D03*
G54D14*
X60200Y-56300D03*
G54D15*
X59200Y-56300D03*
X58200Y-56300D03*
G54D17*
X70300Y-55100D03*
X70300Y-54500D03*
G54D18*
X70207Y-55640D03*
X70807Y-55640D03*
X69500Y-53700D03*
X68900Y-53700D03*
G54D17*
X65300Y-55200D03*
X65300Y-54600D03*
X64500Y-54600D03*
X64500Y-55200D03*
G54D18*
X62800Y-55461D03*
X63400Y-55461D03*
G54D19*
X68954Y-55516D03*
G54D20*
X69328Y-55516D03*
X69702Y-55516D03*
X69702Y-54492D03*
X69328Y-54492D03*
X68954Y-54492D03*
G54D19*
X67109Y-54423D03*
G54D20*
X66735Y-54423D03*
X66361Y-54423D03*
X66361Y-55447D03*
X66735Y-55447D03*
X67109Y-55447D03*
G54D21*
X67903Y-55235D03*
X68100Y-55235D03*
X68297Y-55235D03*
X68297Y-54565D03*
X67903Y-54565D03*
G54D22*
X65850Y-53400D03*
X65350Y-53400D03*
X66350Y-53400D03*
X66850Y-53400D03*
G54D23*
X63100Y-53600D03*
M02*
