G04 (created by PCBNEW-RS274X (2012-01-19 BZR 3256)-stable) date 24/12/2012 01:38:17*
G01*
G70*
G90*
%MOIN*%
G04 Gerber Fmt 3.4, Leading zero omitted, Abs format*
%FSLAX34Y34*%
G04 APERTURE LIST*
%ADD10C,0.006000*%
%ADD11C,0.070900*%
%ADD12R,0.020000X0.030000*%
%ADD13R,0.036000X0.036000*%
%ADD14R,0.038600X0.045000*%
%ADD15R,0.118100X0.118100*%
%ADD16C,0.118100*%
%ADD17R,0.055100X0.055100*%
%ADD18C,0.055100*%
%ADD19R,0.027600X0.035400*%
%ADD20O,0.027600X0.035400*%
%ADD21R,0.055000X0.035000*%
%ADD22R,0.035000X0.055000*%
%ADD23R,0.025000X0.045000*%
%ADD24R,0.045000X0.025000*%
%ADD25R,0.047200X0.011800*%
%ADD26O,0.047200X0.011800*%
%ADD27O,0.011800X0.047200*%
%ADD28R,0.039400X0.039400*%
%ADD29R,0.066000X0.066000*%
%ADD30C,0.066000*%
%ADD31R,0.084600X0.228300*%
%ADD32R,0.059100X0.126000*%
%ADD33C,0.236200*%
%ADD34R,0.070900X0.078700*%
%ADD35R,0.070900X0.129900*%
%ADD36O,0.021700X0.011800*%
%ADD37R,0.021700X0.011800*%
%ADD38R,0.030000X0.009800*%
%ADD39R,0.051200X0.051200*%
%ADD40C,0.051200*%
%ADD41C,0.059100*%
%ADD42C,0.078700*%
%ADD43R,0.055000X0.055000*%
%ADD44C,0.055000*%
%ADD45C,0.035400*%
%ADD46C,0.007900*%
%ADD47C,0.019700*%
%ADD48C,0.010000*%
G04 APERTURE END LIST*
G54D10*
G54D11*
X65050Y-40150D03*
X66231Y-40150D03*
X63869Y-40150D03*
G54D12*
X70475Y-37500D03*
X71225Y-37500D03*
X70475Y-36500D03*
X70850Y-37500D03*
X71225Y-36500D03*
G54D13*
X54655Y-29985D03*
X55355Y-29985D03*
X55005Y-30785D03*
X50650Y-30500D03*
X49950Y-30500D03*
X50300Y-29700D03*
X64976Y-35607D03*
X64976Y-34907D03*
X65776Y-35257D03*
G54D14*
X50168Y-28750D03*
X50632Y-28750D03*
G54D15*
X68262Y-40435D03*
G54D16*
X47850Y-40700D03*
G54D17*
X65450Y-28300D03*
G54D18*
X64450Y-28300D03*
X63450Y-28300D03*
X62450Y-28300D03*
G54D19*
X69944Y-37374D03*
G54D20*
X70456Y-37374D03*
X70456Y-36626D03*
X69944Y-36626D03*
G54D21*
X55200Y-35275D03*
X55200Y-36025D03*
G54D22*
X48325Y-37200D03*
X47575Y-37200D03*
G54D21*
X53200Y-35275D03*
X53200Y-36025D03*
X52150Y-35275D03*
X52150Y-36025D03*
G54D22*
X48325Y-39300D03*
X47575Y-39300D03*
X48325Y-38200D03*
X47575Y-38200D03*
G54D21*
X54200Y-35275D03*
X54200Y-36025D03*
G54D22*
X48325Y-36200D03*
X47575Y-36200D03*
G54D23*
X64762Y-38430D03*
X65362Y-38430D03*
X48250Y-33850D03*
X47650Y-33850D03*
X63252Y-38411D03*
X63852Y-38411D03*
G54D24*
X64252Y-35576D03*
X64252Y-34976D03*
G54D23*
X60930Y-31417D03*
X60330Y-31417D03*
G54D24*
X49996Y-31198D03*
X49996Y-31798D03*
G54D23*
X56122Y-30061D03*
X56722Y-30061D03*
G54D25*
X58927Y-33717D03*
G54D26*
X58927Y-33913D03*
X58927Y-34110D03*
X58927Y-34307D03*
X58927Y-34504D03*
X58927Y-34701D03*
X58927Y-34898D03*
X58927Y-35095D03*
X58927Y-35291D03*
X58927Y-35488D03*
X58927Y-35685D03*
X58926Y-35882D03*
G54D27*
X59519Y-36473D03*
X59715Y-36473D03*
X59912Y-36473D03*
X60109Y-36473D03*
X60306Y-36473D03*
X60503Y-36473D03*
X60700Y-36473D03*
X60896Y-36473D03*
X61093Y-36473D03*
X61290Y-36473D03*
X61486Y-36473D03*
X61683Y-36473D03*
G54D26*
X62274Y-35883D03*
X62274Y-35686D03*
X62274Y-35489D03*
X62274Y-35292D03*
X62274Y-35095D03*
X62274Y-34898D03*
X62274Y-34701D03*
X62274Y-34505D03*
X62274Y-34308D03*
X62274Y-34111D03*
X62274Y-33914D03*
X62274Y-33717D03*
G54D27*
X61683Y-33127D03*
X61486Y-33127D03*
X61289Y-33127D03*
X61092Y-33127D03*
X60895Y-33127D03*
X60698Y-33127D03*
X60502Y-33127D03*
X60305Y-33127D03*
X60108Y-33127D03*
X59911Y-33127D03*
X59714Y-33127D03*
X59517Y-33127D03*
G54D28*
X68047Y-33153D03*
X67653Y-33153D03*
X67653Y-33547D03*
X68047Y-33547D03*
X68441Y-33547D03*
X68441Y-33153D03*
X68441Y-32759D03*
X68047Y-32759D03*
X67653Y-32759D03*
X67259Y-32759D03*
X67259Y-33153D03*
X67259Y-33547D03*
X67259Y-33941D03*
X67653Y-33941D03*
X68047Y-33941D03*
X68441Y-33941D03*
X68834Y-32956D03*
X68834Y-33350D03*
X68834Y-33744D03*
X68244Y-32366D03*
X67850Y-32366D03*
X67456Y-32366D03*
X66866Y-32956D03*
X66866Y-33350D03*
X66866Y-33744D03*
X67456Y-34334D03*
X67850Y-34334D03*
X68244Y-34334D03*
X66472Y-33350D03*
X67850Y-31972D03*
X69228Y-33350D03*
X67850Y-34728D03*
G54D29*
X63450Y-30050D03*
G54D30*
X64450Y-30050D03*
G54D31*
X53658Y-38000D03*
X52142Y-38000D03*
G54D32*
X55593Y-32196D03*
X54215Y-32196D03*
G54D33*
X48150Y-28950D03*
X70650Y-40300D03*
G54D28*
X52838Y-30950D03*
X53862Y-30950D03*
G54D34*
X50551Y-38781D03*
X50551Y-37281D03*
G54D35*
X50300Y-35600D03*
G54D36*
X50831Y-35600D03*
X49769Y-35600D03*
X50831Y-35403D03*
X50831Y-35206D03*
X50831Y-35009D03*
X50831Y-35797D03*
X50831Y-35994D03*
X50831Y-36191D03*
X49769Y-35403D03*
X49769Y-35206D03*
G54D37*
X49769Y-35009D03*
G54D36*
X49769Y-35797D03*
X49769Y-35994D03*
X49769Y-36191D03*
G54D38*
X53980Y-29346D03*
X53980Y-29149D03*
X53980Y-28952D03*
X53980Y-28755D03*
X53980Y-28558D03*
X51618Y-28558D03*
X51618Y-28755D03*
X51618Y-28952D03*
X51618Y-29149D03*
X51618Y-29346D03*
G54D21*
X58300Y-38275D03*
X58300Y-39025D03*
X56308Y-38275D03*
X56308Y-39025D03*
X57250Y-38275D03*
X57250Y-39025D03*
X59350Y-38275D03*
X59350Y-39025D03*
G54D23*
X58676Y-31417D03*
X59276Y-31417D03*
G54D24*
X62677Y-36629D03*
X62677Y-37229D03*
X69971Y-35600D03*
X69971Y-35000D03*
G54D23*
X69400Y-38500D03*
X70000Y-38500D03*
G54D24*
X63431Y-33397D03*
X63431Y-32797D03*
G54D23*
X58676Y-32047D03*
X59276Y-32047D03*
X57544Y-35276D03*
X56944Y-35276D03*
X56936Y-33527D03*
X57536Y-33527D03*
X48250Y-34900D03*
X47650Y-34900D03*
G54D24*
X55050Y-38500D03*
X55050Y-39100D03*
G54D23*
X56865Y-32047D03*
X57465Y-32047D03*
X51954Y-30945D03*
X51354Y-30945D03*
G54D39*
X67537Y-37000D03*
G54D40*
X65963Y-37000D03*
G54D41*
X71469Y-28664D03*
X71469Y-30436D03*
G54D42*
X70485Y-28172D03*
X70485Y-30928D03*
G54D41*
X67314Y-28081D03*
X69086Y-28081D03*
G54D42*
X66822Y-29065D03*
X69578Y-29065D03*
G54D43*
X61000Y-28300D03*
G54D44*
X60000Y-28300D03*
G54D45*
X58295Y-31862D03*
X58079Y-32614D03*
X57445Y-35760D03*
X51693Y-30240D03*
X54744Y-35665D03*
X54390Y-36528D03*
X60354Y-34850D03*
X55634Y-33736D03*
X58051Y-35673D03*
X58421Y-35917D03*
X58752Y-36201D03*
X59205Y-36197D03*
X59984Y-35980D03*
X64189Y-33280D03*
X56260Y-34783D03*
X59453Y-35551D03*
X60480Y-34071D03*
X56972Y-30839D03*
X55004Y-29610D03*
X60799Y-35114D03*
X59996Y-34106D03*
X55394Y-29161D03*
X64980Y-38937D03*
X55539Y-38941D03*
X66850Y-37043D03*
X58583Y-37189D03*
X61898Y-31953D03*
X61780Y-33654D03*
X61701Y-34224D03*
X64236Y-38248D03*
X60949Y-36969D03*
X61508Y-36969D03*
X59291Y-30787D03*
X57035Y-33043D03*
X59291Y-29291D03*
X63252Y-32413D03*
X68189Y-29606D03*
X64433Y-37236D03*
X60358Y-32634D03*
X58043Y-34181D03*
X58031Y-30787D03*
X62677Y-29213D03*
X61811Y-29134D03*
X63071Y-31102D03*
X62441Y-32598D03*
X65984Y-30157D03*
X59764Y-32634D03*
X71417Y-34567D03*
X49291Y-38268D03*
X68976Y-36693D03*
X68583Y-39134D03*
X63307Y-35984D03*
X63622Y-34961D03*
X61811Y-37874D03*
X59528Y-40394D03*
X61220Y-30992D03*
X52520Y-40157D03*
X65512Y-34016D03*
X49291Y-36850D03*
X49134Y-34016D03*
X51575Y-33858D03*
X48583Y-31654D03*
X51811Y-31732D03*
X55669Y-31181D03*
X62768Y-33886D03*
X69547Y-37402D03*
X64795Y-36272D03*
X61775Y-39050D03*
X69764Y-32835D03*
X62205Y-40079D03*
X57874Y-29134D03*
X61024Y-33937D03*
X64961Y-31575D03*
X69370Y-31102D03*
X70409Y-35276D03*
X53307Y-30157D03*
X56220Y-40236D03*
X71575Y-32520D03*
X62130Y-31512D03*
G54D46*
X53650Y-32750D02*
X53650Y-32775D01*
X53975Y-32975D02*
X54000Y-33000D01*
X53850Y-32975D02*
X53975Y-32975D01*
X53650Y-32775D02*
X53850Y-32975D01*
G54D47*
X70475Y-36449D02*
X70475Y-36350D01*
X70475Y-36350D02*
X70475Y-36309D01*
X70475Y-36309D02*
X70018Y-35799D01*
X70018Y-35799D02*
X70018Y-35725D01*
X70018Y-35725D02*
X70018Y-35626D01*
X70018Y-35626D02*
X69971Y-35600D01*
X63557Y-33397D02*
X63431Y-33397D01*
X62902Y-36629D02*
X62954Y-36629D01*
X70475Y-36500D02*
X70475Y-36449D01*
X58676Y-31642D02*
X58676Y-31544D01*
X57734Y-33574D02*
X58512Y-33693D01*
X63708Y-33397D02*
X63656Y-33397D01*
X63781Y-33324D02*
X63708Y-33397D01*
X63834Y-33133D02*
X63781Y-33324D01*
X64957Y-30258D02*
X63834Y-33133D01*
X65352Y-28649D02*
X64957Y-30258D01*
X65352Y-28576D02*
X65352Y-28649D01*
X65352Y-28477D02*
X65352Y-28576D01*
X65450Y-28300D02*
X65352Y-28477D01*
X66496Y-36896D02*
X66862Y-35972D01*
X66396Y-37180D02*
X66496Y-36896D01*
X66143Y-37433D02*
X66396Y-37180D01*
X65783Y-37433D02*
X66143Y-37433D01*
X58676Y-31544D02*
X58676Y-31417D01*
X57536Y-33527D02*
X57562Y-33574D01*
X58815Y-36558D02*
X58864Y-36579D01*
G54D46*
X51508Y-29346D02*
X51468Y-29346D01*
G54D47*
X62804Y-36629D02*
X62902Y-36629D01*
X62677Y-36629D02*
X62804Y-36629D01*
X63154Y-33397D02*
X62811Y-33531D01*
X63206Y-33397D02*
X63154Y-33397D01*
X63304Y-33397D02*
X63206Y-33397D01*
X63431Y-33397D02*
X63304Y-33397D01*
G54D46*
X59517Y-32950D02*
X59517Y-33127D01*
X58920Y-32223D02*
X59517Y-32950D01*
X58801Y-32095D02*
X58920Y-32223D01*
X58762Y-32095D02*
X58801Y-32095D01*
X58676Y-32047D02*
X58762Y-32095D01*
G54D47*
X57562Y-33574D02*
X57661Y-33574D01*
X58676Y-32047D02*
X58676Y-31921D01*
X57669Y-35291D02*
X58512Y-35291D01*
X57571Y-35291D02*
X57669Y-35291D01*
X57544Y-35276D02*
X57571Y-35291D01*
X57544Y-35149D02*
X57544Y-35276D01*
X57544Y-35051D02*
X57544Y-35149D01*
X57544Y-34999D02*
X57544Y-35051D01*
X57536Y-33803D02*
X57544Y-34999D01*
X57536Y-33752D02*
X57536Y-33803D01*
X57536Y-33653D02*
X57536Y-33752D01*
X57536Y-33527D02*
X57536Y-33653D01*
X64580Y-36882D02*
X65783Y-37433D01*
X57661Y-33574D02*
X57734Y-33574D01*
G54D46*
X51618Y-29346D02*
X51508Y-29346D01*
G54D47*
X66862Y-35972D02*
X66133Y-35004D01*
X57536Y-33250D02*
X58079Y-32614D01*
X57536Y-33302D02*
X57536Y-33250D01*
X57536Y-33400D02*
X57536Y-33302D01*
X57536Y-33527D02*
X57536Y-33400D01*
G54D46*
X58667Y-33717D02*
X58512Y-33693D01*
X58691Y-33717D02*
X58667Y-33717D01*
X58731Y-33717D02*
X58691Y-33717D01*
X58927Y-33717D02*
X58731Y-33717D01*
X58750Y-35291D02*
X58512Y-35291D01*
X58927Y-35291D02*
X58750Y-35291D01*
X62645Y-33590D02*
X62811Y-33531D01*
X62451Y-33717D02*
X62645Y-33590D01*
X62274Y-33717D02*
X62451Y-33717D01*
X51468Y-29346D02*
X51350Y-29370D01*
G54D47*
X58676Y-31921D02*
X58676Y-31822D01*
X66133Y-35004D02*
X66029Y-34900D01*
X58650Y-31999D02*
X58676Y-32047D01*
X58551Y-31999D02*
X58650Y-31999D01*
X58478Y-31999D02*
X58551Y-31999D01*
X58295Y-31862D02*
X58478Y-31999D01*
X57544Y-35402D02*
X57544Y-35276D01*
X57544Y-35501D02*
X57544Y-35402D01*
X57544Y-35552D02*
X57544Y-35501D01*
X57445Y-35760D02*
X57544Y-35552D01*
X61862Y-37115D02*
X61878Y-36815D01*
X61655Y-37323D02*
X61862Y-37115D01*
X61361Y-37323D02*
X61655Y-37323D01*
X60802Y-37323D02*
X61361Y-37323D01*
X59421Y-36886D02*
X60802Y-37323D01*
X58864Y-36579D02*
X59421Y-36886D01*
X63582Y-33700D02*
X63478Y-33596D01*
X62954Y-36629D02*
X64580Y-36882D01*
X58676Y-31822D02*
X58676Y-31642D01*
X58605Y-36555D02*
X58815Y-36558D01*
X57445Y-35760D02*
X58605Y-36555D01*
G54D46*
X51350Y-29444D02*
X51350Y-29370D01*
X51693Y-30240D02*
X51350Y-29444D01*
X61683Y-36650D02*
X61683Y-36473D01*
X61878Y-36815D02*
X61683Y-36650D01*
G54D47*
X62551Y-36629D02*
X62677Y-36629D01*
X62452Y-36629D02*
X62551Y-36629D01*
X62400Y-36629D02*
X62452Y-36629D01*
X61878Y-36815D02*
X62400Y-36629D01*
X63478Y-33424D02*
X63431Y-33397D01*
X63478Y-33522D02*
X63478Y-33424D01*
X63478Y-33596D02*
X63478Y-33522D01*
X66029Y-34900D02*
X63582Y-33700D01*
X69844Y-35600D02*
X69971Y-35600D01*
X69746Y-35600D02*
X69844Y-35600D01*
X69694Y-35600D02*
X69746Y-35600D01*
X66862Y-35972D02*
X69694Y-35600D01*
G54D46*
X51508Y-29149D02*
X51618Y-29149D01*
X51468Y-29149D02*
X51508Y-29149D01*
X51448Y-29149D02*
X51468Y-29149D01*
X51419Y-29178D02*
X51448Y-29149D01*
X51350Y-29248D02*
X51419Y-29178D01*
X51350Y-29346D02*
X51350Y-29248D01*
X51350Y-29370D02*
X51350Y-29346D01*
G54D47*
X63656Y-33397D02*
X63557Y-33397D01*
X70475Y-37500D02*
X70475Y-37551D01*
X71225Y-37691D02*
X71225Y-37650D01*
X70475Y-37691D02*
X70416Y-37750D01*
X71225Y-37551D02*
X71225Y-37500D01*
X55102Y-35450D02*
X55102Y-35523D01*
X70475Y-37650D02*
X70475Y-37691D01*
X59174Y-38275D02*
X59350Y-38275D01*
X65050Y-40150D02*
X67728Y-37894D01*
X70876Y-37827D02*
X71024Y-37827D01*
X69473Y-38150D02*
X69400Y-38223D01*
X70416Y-37750D02*
X69473Y-38150D01*
X69400Y-38275D02*
X69400Y-38374D01*
X69400Y-38374D02*
X69400Y-38500D01*
X70676Y-37827D02*
X70876Y-37827D01*
X70475Y-37551D02*
X70475Y-37650D01*
X59697Y-38275D02*
X59800Y-38172D01*
X56865Y-32174D02*
X56865Y-32272D01*
X56033Y-38275D02*
X56132Y-38275D01*
X55102Y-35523D02*
X54998Y-35627D01*
X54998Y-35627D02*
X54744Y-35665D01*
X69944Y-36626D02*
X69944Y-36665D01*
X69944Y-36665D02*
X70456Y-37316D01*
X70456Y-37316D02*
X70456Y-37335D01*
X55102Y-35351D02*
X55102Y-35450D01*
X71024Y-37827D02*
X71166Y-37750D01*
X70475Y-37551D02*
X70475Y-37650D01*
X70475Y-37650D02*
X70475Y-37691D01*
X70475Y-37691D02*
X70534Y-37750D01*
X70534Y-37750D02*
X70676Y-37827D01*
X56865Y-32324D02*
X56681Y-32896D01*
X55200Y-35275D02*
X55102Y-35351D01*
X54200Y-35275D02*
X54376Y-35275D01*
X54376Y-35275D02*
X54475Y-35275D01*
X54475Y-35275D02*
X54925Y-35275D01*
X54925Y-35275D02*
X55024Y-35275D01*
X55024Y-35275D02*
X55200Y-35275D01*
X52150Y-35275D02*
X52326Y-35275D01*
X52326Y-35275D02*
X52425Y-35275D01*
X52425Y-35275D02*
X52925Y-35275D01*
X52925Y-35275D02*
X53024Y-35275D01*
X53024Y-35275D02*
X53200Y-35275D01*
X53200Y-35275D02*
X53376Y-35275D01*
X53376Y-35275D02*
X53475Y-35275D01*
X53475Y-35275D02*
X53925Y-35275D01*
X53925Y-35275D02*
X54024Y-35275D01*
X54024Y-35275D02*
X54200Y-35275D01*
X59800Y-38172D02*
X59807Y-38087D01*
X59075Y-38275D02*
X59174Y-38275D01*
X58575Y-38275D02*
X59075Y-38275D01*
X58476Y-38275D02*
X58575Y-38275D01*
X58300Y-38275D02*
X58476Y-38275D01*
X57074Y-38275D02*
X57250Y-38275D01*
X56975Y-38275D02*
X57074Y-38275D01*
X56583Y-38275D02*
X56975Y-38275D01*
X56485Y-38275D02*
X56583Y-38275D01*
X56308Y-38275D02*
X56485Y-38275D01*
X58124Y-38275D02*
X58300Y-38275D01*
X58025Y-38275D02*
X58124Y-38275D01*
X57525Y-38275D02*
X58025Y-38275D01*
X57426Y-38275D02*
X57525Y-38275D01*
X57250Y-38275D02*
X57426Y-38275D01*
X63252Y-38411D02*
X63252Y-38538D01*
X70475Y-37500D02*
X70475Y-37551D01*
X55050Y-38500D02*
X55176Y-38500D01*
X55176Y-38500D02*
X55275Y-38500D01*
X55275Y-38500D02*
X55327Y-38500D01*
X55327Y-38500D02*
X55961Y-38275D01*
X55961Y-38275D02*
X56033Y-38275D01*
X58937Y-37042D02*
X59802Y-38026D01*
X59625Y-38275D02*
X59697Y-38275D01*
X71225Y-37650D02*
X71225Y-37551D01*
X63252Y-38538D02*
X63252Y-38636D01*
X63252Y-38636D02*
X63252Y-38688D01*
X63252Y-38688D02*
X63193Y-38815D01*
X59350Y-38275D02*
X59526Y-38275D01*
X70456Y-37335D02*
X70456Y-37374D01*
X56132Y-38275D02*
X56308Y-38275D01*
X67616Y-37157D02*
X67616Y-37256D01*
X56746Y-35678D02*
X57298Y-36114D01*
X58730Y-36834D02*
X58937Y-37042D01*
X57298Y-36114D02*
X58470Y-36811D01*
X54924Y-38500D02*
X55050Y-38500D01*
X58520Y-36831D02*
X58730Y-36834D01*
X59802Y-38026D02*
X59807Y-38087D01*
X56633Y-33929D02*
X56642Y-35574D01*
X56633Y-33825D02*
X56633Y-33929D01*
X56642Y-35574D02*
X56746Y-35678D01*
X56865Y-32047D02*
X56865Y-32174D01*
X56865Y-32272D02*
X56865Y-32324D01*
X59526Y-38275D02*
X59625Y-38275D01*
X56633Y-33228D02*
X56633Y-33678D01*
X56633Y-33678D02*
X56633Y-33825D01*
X56681Y-32896D02*
X56633Y-33228D01*
X69400Y-38223D02*
X69400Y-38275D01*
X55889Y-32095D02*
X56740Y-32095D01*
X54825Y-38500D02*
X54924Y-38500D01*
X59807Y-38087D02*
X63053Y-38814D01*
X67616Y-37329D02*
X67728Y-37894D01*
G54D46*
X50831Y-35403D02*
X50880Y-35403D01*
X50880Y-35403D02*
X51003Y-35403D01*
X51003Y-35403D02*
X51157Y-35390D01*
G54D47*
X55593Y-32196D02*
X55790Y-32095D01*
X55790Y-32095D02*
X55889Y-32095D01*
X67616Y-37256D02*
X67616Y-37329D01*
X56740Y-32095D02*
X56839Y-32095D01*
X56839Y-32095D02*
X56865Y-32047D01*
X53658Y-38000D02*
X53982Y-38500D01*
X53982Y-38500D02*
X54081Y-38500D01*
X54081Y-38500D02*
X54825Y-38500D01*
X71166Y-37750D02*
X71225Y-37691D01*
X58470Y-36811D02*
X58520Y-36831D01*
X51157Y-35390D02*
X51803Y-35275D01*
X63053Y-38814D02*
X63193Y-38815D01*
X63193Y-38815D02*
X65050Y-40150D01*
X67728Y-37894D02*
X69202Y-38452D01*
X69202Y-38452D02*
X69275Y-38452D01*
X69275Y-38452D02*
X69374Y-38452D01*
X69374Y-38452D02*
X69400Y-38500D01*
X67537Y-37000D02*
X67616Y-37157D01*
X51803Y-35275D02*
X51875Y-35275D01*
X51875Y-35275D02*
X51974Y-35275D01*
X51974Y-35275D02*
X52150Y-35275D01*
X54390Y-36528D02*
X54258Y-36932D01*
X54258Y-36932D02*
X54154Y-37036D01*
X54154Y-37036D02*
X54081Y-37036D01*
X54081Y-37036D02*
X53982Y-37036D01*
X53982Y-37036D02*
X53658Y-38000D01*
X67671Y-40150D02*
X66231Y-40150D01*
X67770Y-40150D02*
X67671Y-40150D01*
X68262Y-40435D02*
X67770Y-40150D01*
G54D46*
X49996Y-31798D02*
X50102Y-31884D01*
X62097Y-35686D02*
X62274Y-35686D01*
X50102Y-31923D02*
X50102Y-31972D01*
X50102Y-31972D02*
X50172Y-32042D01*
X60922Y-34819D02*
X61893Y-35588D01*
X62024Y-35666D02*
X62097Y-35686D01*
X60354Y-34850D02*
X60677Y-34819D01*
X50102Y-31884D02*
X50102Y-31923D01*
X50172Y-32042D02*
X55634Y-33736D01*
X61893Y-35588D02*
X62024Y-35666D01*
X60677Y-34819D02*
X60922Y-34819D01*
G54D47*
X54059Y-30970D02*
X54132Y-30970D01*
X54132Y-30970D02*
X54287Y-31098D01*
X54287Y-31098D02*
X54751Y-30788D01*
X54751Y-30788D02*
X54825Y-30788D01*
X54825Y-30788D02*
X54923Y-30788D01*
X53961Y-30970D02*
X54059Y-30970D01*
X53862Y-30950D02*
X53961Y-30970D01*
X54287Y-31664D02*
X54215Y-32196D01*
X54287Y-31566D02*
X54287Y-31664D01*
X54923Y-30788D02*
X55005Y-30785D01*
X54287Y-31098D02*
X54287Y-31566D01*
G54D46*
X58750Y-35488D02*
X58051Y-35673D01*
X58927Y-35488D02*
X58750Y-35488D01*
X58750Y-35685D02*
X58927Y-35685D01*
X58675Y-35705D02*
X58750Y-35685D01*
X58421Y-35917D02*
X58675Y-35705D01*
X58752Y-36201D02*
X58752Y-35882D01*
X58752Y-35882D02*
X58926Y-35882D01*
X59519Y-36473D02*
X59519Y-36296D01*
X59519Y-36296D02*
X59205Y-36197D01*
X67334Y-29274D02*
X67334Y-28856D01*
X67332Y-29279D02*
X67334Y-29274D01*
X64189Y-33280D02*
X67332Y-29279D01*
X67334Y-28856D02*
X67314Y-28081D01*
X59839Y-36119D02*
X59984Y-35980D01*
X59715Y-36296D02*
X59735Y-36222D01*
X59735Y-36222D02*
X59839Y-36119D01*
X59715Y-36473D02*
X59715Y-36296D01*
X63978Y-35569D02*
X62525Y-35115D01*
X62451Y-35095D02*
X62274Y-35095D01*
X62525Y-35115D02*
X62451Y-35095D01*
X64027Y-35569D02*
X63978Y-35569D01*
X64066Y-35569D02*
X64027Y-35569D01*
X64252Y-35576D02*
X64066Y-35569D01*
X65837Y-35437D02*
X65837Y-35486D01*
X65837Y-35486D02*
X65963Y-37000D01*
X65837Y-35398D02*
X65837Y-35437D01*
X65776Y-35257D02*
X65837Y-35398D01*
G54D47*
X48325Y-36475D02*
X48325Y-36925D01*
X48325Y-37200D02*
X48325Y-37376D01*
X48325Y-38024D02*
X48325Y-38200D01*
X48325Y-39124D02*
X48325Y-39300D01*
G54D46*
X49769Y-36191D02*
X49720Y-36191D01*
G54D47*
X48325Y-38376D02*
X48325Y-38475D01*
X48325Y-38200D02*
X48325Y-38376D01*
X48325Y-37024D02*
X48325Y-37200D01*
X48325Y-36925D02*
X48325Y-37024D01*
G54D46*
X49720Y-36191D02*
X49679Y-36191D01*
G54D47*
X48325Y-36376D02*
X48325Y-36475D01*
X48325Y-36200D02*
X48325Y-36376D01*
X49413Y-35909D02*
X49476Y-35909D01*
X48325Y-37925D02*
X48325Y-38024D01*
X48500Y-36102D02*
X48573Y-36102D01*
X48325Y-37475D02*
X48325Y-37925D01*
G54D46*
X49646Y-36171D02*
X49480Y-36071D01*
X49679Y-36191D02*
X49646Y-36171D01*
G54D47*
X48325Y-36200D02*
X48401Y-36102D01*
X48325Y-39025D02*
X48325Y-39124D01*
X48325Y-38475D02*
X48325Y-39025D01*
G54D46*
X49720Y-35797D02*
X49769Y-35797D01*
X49679Y-35797D02*
X49720Y-35797D01*
X49476Y-35909D02*
X49679Y-35797D01*
X49720Y-35994D02*
X49769Y-35994D01*
G54D47*
X48325Y-37376D02*
X48325Y-37475D01*
G54D46*
X49679Y-35994D02*
X49720Y-35994D01*
G54D47*
X49480Y-36071D02*
X49476Y-35909D01*
G54D46*
X49543Y-36071D02*
X49679Y-35994D01*
G54D47*
X48573Y-36102D02*
X49413Y-35909D01*
G54D46*
X49480Y-36071D02*
X49543Y-36071D01*
G54D47*
X48401Y-36102D02*
X48500Y-36102D01*
G54D46*
X60107Y-35685D02*
X60576Y-36119D01*
X60576Y-36119D02*
X60680Y-36222D01*
X49769Y-34905D02*
X49833Y-34841D01*
X49896Y-34832D02*
X56260Y-34783D01*
X60680Y-36222D02*
X60700Y-36296D01*
X49769Y-34990D02*
X49769Y-34950D01*
X49769Y-34950D02*
X49769Y-34905D01*
X49769Y-35009D02*
X49769Y-34990D01*
X49833Y-34841D02*
X49896Y-34832D01*
X60700Y-36296D02*
X60700Y-36473D01*
X59453Y-35551D02*
X60107Y-35685D01*
X62024Y-35272D02*
X62097Y-35292D01*
X60480Y-34071D02*
X61070Y-34520D01*
X61070Y-34520D02*
X62024Y-35272D01*
X56722Y-30061D02*
X56728Y-30247D01*
X56728Y-30247D02*
X56728Y-30286D01*
X56728Y-30286D02*
X56728Y-30335D01*
X56728Y-30335D02*
X56972Y-30839D01*
X62097Y-35292D02*
X62274Y-35292D01*
X54090Y-29346D02*
X54130Y-29346D01*
X53980Y-29346D02*
X54090Y-29346D01*
X54130Y-29346D02*
X54150Y-29346D01*
X61958Y-35824D02*
X62024Y-35863D01*
X61893Y-35785D02*
X61958Y-35824D01*
X62024Y-35863D02*
X62097Y-35883D01*
X54150Y-29346D02*
X55004Y-29610D01*
X62097Y-35883D02*
X62274Y-35883D01*
X60799Y-35114D02*
X61893Y-35785D01*
X61073Y-36222D02*
X61093Y-36296D01*
X56896Y-29718D02*
X56965Y-29787D01*
X61093Y-36296D02*
X61093Y-36473D01*
X56965Y-29787D02*
X57842Y-32050D01*
X58107Y-32316D02*
X58201Y-32319D01*
X58201Y-32319D02*
X58374Y-32492D01*
X55271Y-29457D02*
X56896Y-29718D01*
X55126Y-29315D02*
X55271Y-29457D01*
X54150Y-29149D02*
X55126Y-29315D01*
X54090Y-29149D02*
X54130Y-29149D01*
X59901Y-35038D02*
X61073Y-36222D01*
X53980Y-29149D02*
X54090Y-29149D01*
X57842Y-32050D02*
X58107Y-32316D01*
X54130Y-29149D02*
X54150Y-29149D01*
X58374Y-32492D02*
X59281Y-33609D01*
X59281Y-33609D02*
X59542Y-34294D01*
X59542Y-34294D02*
X59901Y-35038D01*
X53980Y-28755D02*
X54090Y-28755D01*
X54150Y-28755D02*
X55394Y-29161D01*
X62024Y-35469D02*
X62097Y-35489D01*
X60987Y-34661D02*
X61958Y-35430D01*
X60358Y-34366D02*
X60987Y-34661D01*
X59996Y-34106D02*
X60358Y-34366D01*
X54130Y-28755D02*
X54150Y-28755D01*
X61958Y-35430D02*
X62024Y-35469D01*
X62097Y-35489D02*
X62274Y-35489D01*
X54090Y-28755D02*
X54130Y-28755D01*
X59439Y-33544D02*
X59700Y-34229D01*
X58532Y-32426D02*
X59439Y-33544D01*
X58267Y-32161D02*
X58532Y-32426D01*
X53980Y-28558D02*
X54090Y-28558D01*
X54090Y-28558D02*
X54130Y-28558D01*
X54130Y-28558D02*
X54232Y-28558D01*
X54232Y-28558D02*
X55516Y-28866D01*
X55516Y-28866D02*
X56961Y-29560D01*
X58000Y-31985D02*
X58173Y-32158D01*
X58173Y-32158D02*
X58267Y-32161D01*
X59700Y-34229D02*
X60059Y-34973D01*
X60059Y-34973D02*
X61231Y-36157D01*
X61231Y-36157D02*
X61270Y-36222D01*
X61270Y-36222D02*
X61290Y-36296D01*
X61290Y-36296D02*
X61290Y-36473D01*
X57123Y-29722D02*
X58000Y-31985D01*
X56961Y-29560D02*
X57123Y-29722D01*
G54D47*
X51000Y-36398D02*
X50728Y-36815D01*
X51000Y-36398D02*
X51646Y-37036D01*
X51646Y-37036D02*
X51719Y-37036D01*
G54D46*
X50921Y-35994D02*
X50880Y-35994D01*
X51058Y-36117D02*
X50954Y-36014D01*
G54D47*
X51818Y-37036D02*
X52142Y-38000D01*
G54D46*
X51058Y-36264D02*
X51058Y-36117D01*
G54D47*
X50728Y-36815D02*
X50728Y-36888D01*
G54D46*
X51000Y-36398D02*
X51058Y-36264D01*
G54D47*
X50728Y-36986D02*
X50551Y-37281D01*
G54D46*
X50954Y-36014D02*
X50921Y-35994D01*
G54D47*
X51719Y-37036D02*
X51818Y-37036D01*
G54D46*
X50831Y-36191D02*
X50880Y-36191D01*
X50880Y-35994D02*
X50831Y-35994D01*
X50880Y-36191D02*
X51000Y-36398D01*
G54D47*
X50728Y-36888D02*
X50728Y-36986D01*
G54D46*
X51788Y-28558D02*
X51817Y-28587D01*
X51768Y-28558D02*
X51788Y-28558D01*
G54D47*
X52079Y-30947D02*
X52641Y-30947D01*
X51980Y-30947D02*
X52079Y-30947D01*
X51954Y-30945D02*
X51980Y-30947D01*
G54D46*
X51618Y-28558D02*
X51728Y-28558D01*
X51728Y-28558D02*
X51768Y-28558D01*
X51817Y-28587D02*
X51886Y-28657D01*
X51886Y-28657D02*
X51989Y-30118D01*
X51989Y-30118D02*
X51989Y-30363D01*
X51989Y-30363D02*
X51954Y-30720D01*
X51954Y-30720D02*
X51954Y-30759D01*
X51954Y-30759D02*
X51954Y-30945D01*
G54D47*
X52641Y-30947D02*
X52739Y-30947D01*
X52739Y-30947D02*
X52838Y-30950D01*
G54D46*
X51508Y-28755D02*
X51468Y-28755D01*
X50632Y-28750D02*
X50557Y-28935D01*
X50362Y-29471D02*
X50362Y-29520D01*
X50557Y-28935D02*
X50557Y-28975D01*
X50557Y-29024D02*
X50362Y-29471D01*
X51618Y-28755D02*
X51508Y-28755D01*
X51468Y-28755D02*
X50825Y-28755D01*
X50557Y-28975D02*
X50557Y-29024D01*
X50362Y-29520D02*
X50362Y-29560D01*
X50362Y-29560D02*
X50300Y-29700D01*
X50825Y-28755D02*
X50785Y-28755D01*
X50785Y-28755D02*
X50632Y-28750D01*
G54D47*
X55050Y-39100D02*
X55176Y-39100D01*
X65665Y-38729D02*
X66850Y-37043D01*
X50832Y-39352D02*
X50979Y-39352D01*
X50728Y-39076D02*
X50728Y-39175D01*
X55176Y-39100D02*
X55275Y-39100D01*
X54924Y-39100D02*
X55050Y-39100D01*
X54773Y-39100D02*
X54825Y-39100D01*
X54154Y-39319D02*
X54773Y-39100D01*
X50979Y-39352D02*
X54154Y-39319D01*
X55275Y-39100D02*
X55327Y-39100D01*
X50728Y-39249D02*
X50832Y-39352D01*
X50728Y-39175D02*
X50728Y-39249D01*
X55327Y-39100D02*
X55539Y-38941D01*
X50551Y-38781D02*
X50728Y-39076D01*
X65561Y-38833D02*
X65665Y-38729D01*
X64980Y-38937D02*
X65561Y-38833D01*
X54825Y-39100D02*
X54924Y-39100D01*
X55547Y-36025D02*
X58583Y-37189D01*
X53475Y-36025D02*
X53925Y-36025D01*
X53376Y-36025D02*
X53475Y-36025D01*
X53925Y-36025D02*
X54024Y-36025D01*
X54024Y-36025D02*
X54200Y-36025D01*
X55200Y-36025D02*
X55376Y-36025D01*
X55376Y-36025D02*
X55475Y-36025D01*
X55475Y-36025D02*
X55547Y-36025D01*
X52150Y-36025D02*
X52326Y-36025D01*
X54475Y-36025D02*
X54925Y-36025D01*
X52425Y-36025D02*
X52925Y-36025D01*
X55024Y-36025D02*
X55200Y-36025D01*
X53024Y-36025D02*
X53200Y-36025D01*
X52925Y-36025D02*
X53024Y-36025D01*
X54925Y-36025D02*
X55024Y-36025D01*
X52326Y-36025D02*
X52425Y-36025D01*
X54376Y-36025D02*
X54475Y-36025D01*
X54200Y-36025D02*
X54376Y-36025D01*
G54D46*
X50880Y-35600D02*
X50954Y-35620D01*
G54D47*
X53200Y-36025D02*
X53376Y-36025D01*
X51803Y-36025D02*
X51875Y-36025D01*
X51122Y-35697D02*
X51803Y-36025D01*
X51875Y-36025D02*
X51974Y-36025D01*
G54D46*
X50954Y-35620D02*
X51122Y-35697D01*
X50831Y-35600D02*
X50880Y-35600D01*
G54D47*
X51974Y-36025D02*
X52150Y-36025D01*
G54D46*
X61683Y-33127D02*
X61683Y-32950D01*
X61683Y-32950D02*
X61898Y-31953D01*
X61920Y-33988D02*
X61780Y-33654D01*
X62274Y-34111D02*
X62097Y-34111D01*
X62097Y-34111D02*
X62024Y-34091D01*
X62024Y-34091D02*
X61920Y-33988D01*
X61920Y-34774D02*
X61701Y-34224D01*
X62274Y-34898D02*
X62097Y-34898D01*
X62024Y-34878D02*
X61920Y-34774D01*
X62097Y-34898D02*
X62024Y-34878D01*
X60949Y-36969D02*
X60626Y-36827D01*
X60626Y-36827D02*
X60523Y-36724D01*
X64026Y-38305D02*
X64236Y-38248D01*
X63852Y-38411D02*
X63937Y-38305D01*
X60503Y-36650D02*
X60503Y-36473D01*
X60523Y-36724D02*
X60503Y-36650D01*
X64677Y-38324D02*
X64762Y-38430D01*
X64637Y-38324D02*
X64677Y-38324D01*
X64588Y-38324D02*
X64637Y-38324D01*
X64236Y-38248D02*
X64588Y-38324D01*
X63937Y-38305D02*
X63977Y-38305D01*
X63977Y-38305D02*
X64026Y-38305D01*
X69150Y-29500D02*
X69150Y-29232D01*
X69200Y-29600D02*
X69200Y-29350D01*
X69200Y-29350D02*
X69250Y-29300D01*
G54D47*
X47575Y-36024D02*
X47575Y-36200D01*
X70850Y-37500D02*
X70850Y-37449D01*
X47575Y-38475D02*
X47575Y-39025D01*
G54D46*
X58750Y-35095D02*
X58676Y-35075D01*
X58927Y-35095D02*
X58750Y-35095D01*
G54D47*
X64973Y-35689D02*
X64973Y-35787D01*
X47650Y-34900D02*
X47650Y-35026D01*
X56936Y-33527D02*
X56936Y-33400D01*
X70472Y-32737D02*
X70453Y-35232D01*
X54475Y-29982D02*
X54401Y-29982D01*
X70453Y-35232D02*
X70409Y-35276D01*
X57860Y-28311D02*
X53756Y-28332D01*
X53756Y-28332D02*
X53653Y-28435D01*
X68583Y-39134D02*
X70650Y-40300D01*
X61775Y-39050D02*
X62205Y-40079D01*
X53653Y-29026D02*
X53654Y-28976D01*
X53653Y-29321D02*
X53653Y-29026D01*
X53653Y-29469D02*
X53653Y-29321D01*
X53756Y-29572D02*
X53653Y-29469D01*
X71575Y-32520D02*
X70485Y-30928D01*
X53653Y-28435D02*
X53516Y-28610D01*
X57874Y-29134D02*
X57860Y-28311D01*
X62677Y-29213D02*
X63450Y-28300D01*
X61811Y-29134D02*
X62677Y-29213D01*
X68189Y-29606D02*
X69150Y-29232D01*
X69150Y-29232D02*
X69578Y-29065D01*
X65984Y-30157D02*
X66822Y-29065D01*
X64961Y-31575D02*
X65984Y-30157D01*
X71575Y-32520D02*
X71417Y-34567D01*
X59291Y-29291D02*
X60000Y-28300D01*
X54573Y-29982D02*
X54475Y-29982D01*
X69764Y-32835D02*
X70472Y-32737D01*
X69370Y-31102D02*
X69764Y-32835D01*
X71051Y-37173D02*
X71370Y-37142D01*
X70909Y-37250D02*
X71051Y-37173D01*
X70850Y-37309D02*
X70909Y-37250D01*
X70850Y-37350D02*
X70850Y-37309D01*
X70850Y-37449D02*
X70850Y-37350D01*
X54401Y-29982D02*
X53756Y-29572D01*
X54655Y-29985D02*
X54573Y-29982D01*
X50653Y-30247D02*
X50673Y-30142D01*
X50653Y-30320D02*
X50653Y-30247D01*
X50653Y-30419D02*
X50653Y-30320D01*
X50650Y-30500D02*
X50653Y-30419D01*
X64973Y-35861D02*
X64795Y-36272D01*
X64973Y-35787D02*
X64973Y-35861D01*
X47575Y-39575D02*
X47575Y-39647D01*
X69733Y-37374D02*
X69547Y-37402D01*
X69806Y-37374D02*
X69733Y-37374D01*
X69905Y-37374D02*
X69806Y-37374D01*
X47575Y-39025D02*
X47575Y-39124D01*
X47575Y-38024D02*
X47575Y-38200D01*
X47575Y-37925D02*
X47575Y-38024D01*
X47575Y-37475D02*
X47575Y-37925D01*
X47575Y-37376D02*
X47575Y-37475D01*
X47575Y-37200D02*
X47575Y-37376D01*
X47575Y-39647D02*
X47850Y-40700D01*
X47850Y-40700D02*
X50031Y-39264D01*
X47575Y-39476D02*
X47575Y-39575D01*
X47575Y-39300D02*
X47575Y-39476D01*
X47575Y-39124D02*
X47575Y-39300D01*
X69944Y-37374D02*
X69905Y-37374D01*
G54D46*
X58676Y-35075D02*
X58573Y-34971D01*
G54D47*
X62954Y-37229D02*
X64433Y-37236D01*
X62902Y-37229D02*
X62954Y-37229D01*
X62804Y-37229D02*
X62902Y-37229D01*
X62677Y-37229D02*
X62804Y-37229D01*
X70321Y-35073D02*
X70409Y-35276D01*
X54269Y-39595D02*
X51093Y-39628D01*
X47575Y-36376D02*
X47575Y-36475D01*
X47575Y-36200D02*
X47575Y-36376D01*
X59174Y-39025D02*
X59350Y-39025D01*
X56033Y-39025D02*
X55961Y-39025D01*
X58575Y-39025D02*
X59075Y-39025D01*
X70000Y-38725D02*
X70000Y-38777D01*
X58300Y-39025D02*
X58476Y-39025D01*
X50123Y-39352D02*
X50031Y-39264D01*
X50718Y-39628D02*
X50123Y-39352D01*
X51093Y-39628D02*
X50718Y-39628D01*
X70247Y-35000D02*
X70321Y-35073D01*
X55349Y-39402D02*
X54269Y-39595D01*
X55686Y-39296D02*
X55349Y-39402D01*
X55961Y-39025D02*
X55686Y-39296D01*
X59075Y-39025D02*
X59174Y-39025D01*
X64976Y-35607D02*
X64973Y-35689D01*
X49902Y-28798D02*
X48150Y-28950D01*
X49975Y-28798D02*
X49902Y-28798D01*
X50074Y-28798D02*
X49975Y-28798D01*
X50168Y-28750D02*
X50074Y-28798D01*
X59303Y-32095D02*
X59276Y-32047D01*
X58124Y-39025D02*
X58300Y-39025D01*
X58025Y-39025D02*
X58124Y-39025D01*
X57525Y-39025D02*
X58025Y-39025D01*
X65289Y-38080D02*
X64433Y-37236D01*
X47650Y-34774D02*
X47650Y-34900D01*
X59276Y-31642D02*
X59276Y-31544D01*
X57426Y-39025D02*
X57525Y-39025D01*
X65362Y-38304D02*
X65362Y-38205D01*
X65362Y-38205D02*
X65362Y-38154D01*
X56132Y-39025D02*
X56033Y-39025D01*
X56308Y-39025D02*
X56485Y-39025D01*
X57250Y-39025D02*
X57426Y-39025D01*
X47650Y-34675D02*
X47650Y-34774D01*
X47650Y-34075D02*
X47650Y-34675D01*
G54D46*
X59714Y-33539D02*
X59725Y-33550D01*
X59725Y-33550D02*
X59750Y-33550D01*
X59714Y-33127D02*
X59714Y-33539D01*
X60305Y-33470D02*
X60300Y-33475D01*
X60305Y-33127D02*
X60305Y-33470D01*
X61475Y-36462D02*
X61486Y-36473D01*
X61475Y-36100D02*
X61475Y-36462D01*
G54D47*
X63431Y-32797D02*
X63383Y-32771D01*
X70196Y-35000D02*
X70247Y-35000D01*
X70097Y-35000D02*
X70196Y-35000D01*
X65362Y-38430D02*
X65362Y-38304D01*
X70000Y-38777D02*
X70650Y-40300D01*
X71502Y-37576D02*
X71502Y-37276D01*
X70000Y-38626D02*
X70000Y-38725D01*
X70000Y-38500D02*
X70000Y-38626D01*
X63383Y-32599D02*
X63252Y-32413D01*
X63383Y-32672D02*
X63383Y-32599D01*
X63383Y-32771D02*
X63383Y-32672D01*
G54D46*
X61486Y-36650D02*
X61508Y-36969D01*
G54D47*
X59276Y-31544D02*
X59276Y-31417D01*
X59475Y-32095D02*
X59401Y-32095D01*
X65362Y-38154D02*
X65289Y-38080D01*
X59401Y-32095D02*
X59303Y-32095D01*
X56308Y-39025D02*
X56132Y-39025D01*
X57074Y-39025D02*
X57250Y-39025D01*
X56975Y-39025D02*
X57074Y-39025D01*
X56583Y-39025D02*
X56975Y-39025D01*
X56485Y-39025D02*
X56583Y-39025D01*
X47650Y-35177D02*
X47575Y-35853D01*
X56936Y-33803D02*
X56936Y-33752D01*
X56944Y-34999D02*
X56936Y-33803D01*
X56944Y-35051D02*
X56944Y-34999D01*
X56944Y-35149D02*
X56944Y-35051D01*
X56944Y-35276D02*
X56944Y-35149D01*
X53654Y-28976D02*
X53516Y-28610D01*
X56936Y-33302D02*
X56936Y-33250D01*
X56936Y-33400D02*
X56936Y-33302D01*
X47575Y-35925D02*
X47575Y-36024D01*
X47575Y-35853D02*
X47575Y-35925D01*
X56936Y-33752D02*
X56936Y-33653D01*
X47650Y-35125D02*
X47650Y-35177D01*
X47650Y-35026D02*
X47650Y-35125D01*
X56936Y-33250D02*
X57035Y-33043D01*
G54D46*
X58573Y-34971D02*
X58043Y-34181D01*
G54D47*
X61220Y-30992D02*
X60000Y-28300D01*
X50673Y-30142D02*
X50046Y-30057D01*
X71502Y-36276D02*
X71502Y-36576D01*
X71399Y-36173D02*
X71502Y-36276D01*
X70409Y-35276D02*
X71399Y-36173D01*
X49901Y-28348D02*
X48150Y-28950D01*
X70650Y-40300D02*
X71502Y-37806D01*
G54D46*
X61486Y-36473D02*
X61486Y-36650D01*
X62451Y-33914D02*
X62768Y-33886D01*
X62274Y-33914D02*
X62451Y-33914D01*
X60305Y-32950D02*
X60358Y-32634D01*
X60305Y-33127D02*
X60305Y-32950D01*
G54D47*
X47650Y-33976D02*
X47650Y-34075D01*
X71502Y-37276D02*
X71370Y-37142D01*
X58476Y-39025D02*
X58575Y-39025D01*
X71502Y-37724D02*
X71502Y-37576D01*
X71502Y-37806D02*
X71502Y-37724D01*
X47575Y-36475D02*
X47575Y-36925D01*
X50019Y-39249D02*
X50031Y-39264D01*
X50019Y-39101D02*
X50019Y-39249D01*
X50019Y-36814D02*
X50019Y-39101D01*
X50123Y-36323D02*
X50019Y-36814D01*
X50123Y-36249D02*
X50123Y-36323D01*
X69971Y-35000D02*
X70097Y-35000D01*
X59276Y-31921D02*
X59276Y-31822D01*
X59276Y-32047D02*
X59276Y-31921D01*
X56936Y-33653D02*
X56936Y-33527D01*
X59579Y-32199D02*
X59475Y-32095D01*
X59764Y-32634D02*
X59579Y-32199D01*
X71502Y-36724D02*
X71370Y-37142D01*
X71502Y-36576D02*
X71502Y-36724D01*
G54D46*
X53830Y-28952D02*
X53654Y-28976D01*
X53870Y-28952D02*
X53830Y-28952D01*
X59714Y-32950D02*
X59714Y-33127D01*
X59764Y-32634D02*
X59714Y-32950D01*
G54D47*
X58031Y-30787D02*
X57874Y-29134D01*
X59291Y-30787D02*
X59291Y-29291D01*
X53307Y-30157D02*
X53756Y-29572D01*
X57465Y-32272D02*
X57465Y-32174D01*
X57465Y-32324D02*
X57465Y-32272D01*
X57035Y-33043D02*
X57465Y-32324D01*
X62277Y-31157D02*
X61220Y-30992D01*
X47650Y-33850D02*
X47650Y-33976D01*
X47575Y-38376D02*
X47575Y-38475D01*
X47575Y-38200D02*
X47575Y-38376D01*
X47575Y-37024D02*
X47575Y-37200D01*
X47575Y-36925D02*
X47575Y-37024D01*
X51394Y-28332D02*
X49901Y-28348D01*
X51882Y-28332D02*
X51541Y-28332D01*
X51541Y-28332D02*
X51394Y-28332D01*
X50123Y-36151D02*
X50123Y-36249D01*
X64450Y-30050D02*
X63450Y-28300D01*
X59276Y-31822D02*
X59276Y-31642D01*
X51354Y-30818D02*
X51354Y-30945D01*
X51354Y-30720D02*
X51354Y-30818D01*
X51354Y-30668D02*
X51354Y-30720D01*
X51007Y-30246D02*
X51354Y-30668D01*
X50904Y-30143D02*
X51007Y-30246D01*
X50673Y-30142D02*
X50904Y-30143D01*
X57465Y-32174D02*
X57465Y-32047D01*
X50300Y-35600D02*
X50123Y-36151D01*
X53516Y-28610D02*
X51882Y-28332D01*
X62485Y-31365D02*
X62277Y-31157D01*
X50046Y-30057D02*
X48150Y-28950D01*
X63252Y-32413D02*
X62485Y-31365D01*
G54D46*
X53980Y-28952D02*
X53870Y-28952D01*
G54D47*
X70485Y-30928D02*
X70472Y-32737D01*
X70485Y-30928D02*
X69578Y-29065D01*
X60000Y-28300D02*
X57860Y-28311D01*
G54D46*
X48375Y-33957D02*
X48335Y-33957D01*
X48424Y-33957D02*
X48375Y-33957D01*
X48335Y-33957D02*
X48250Y-33850D01*
X48493Y-34026D02*
X48424Y-33957D01*
X49720Y-35206D02*
X49611Y-35186D01*
X49611Y-35186D02*
X49542Y-35117D01*
X49542Y-35117D02*
X48493Y-34026D01*
X49769Y-35206D02*
X49720Y-35206D01*
X50880Y-35009D02*
X50831Y-35009D01*
X50921Y-35009D02*
X50880Y-35009D01*
X50979Y-35067D02*
X50921Y-35009D01*
X50979Y-35148D02*
X50979Y-35067D01*
X50921Y-35206D02*
X50979Y-35148D01*
X50880Y-35206D02*
X50921Y-35206D01*
X50831Y-35206D02*
X50880Y-35206D01*
X48335Y-35007D02*
X48250Y-34900D01*
X48375Y-35007D02*
X48335Y-35007D01*
X48424Y-35007D02*
X48375Y-35007D01*
X49646Y-35383D02*
X48424Y-35007D01*
X49720Y-35403D02*
X49646Y-35383D01*
X49769Y-35403D02*
X49720Y-35403D01*
X49973Y-31113D02*
X49996Y-31198D01*
X49973Y-31073D02*
X49973Y-31113D01*
X49973Y-30680D02*
X49973Y-31073D01*
X49973Y-30640D02*
X49973Y-30680D01*
X49950Y-30500D02*
X49973Y-30640D01*
X61015Y-31512D02*
X61055Y-31512D01*
X61055Y-31512D02*
X62130Y-31512D01*
X60930Y-31417D02*
X61015Y-31512D01*
X60323Y-31603D02*
X60330Y-31417D01*
X60323Y-31642D02*
X60323Y-31603D01*
X60323Y-31691D02*
X60323Y-31642D01*
X60063Y-32511D02*
X60323Y-31691D01*
X60063Y-32756D02*
X60063Y-32511D01*
X60108Y-32950D02*
X60063Y-32756D01*
X60108Y-33127D02*
X60108Y-32950D01*
X64437Y-34969D02*
X64252Y-34976D01*
X64477Y-34969D02*
X64437Y-34969D01*
X64796Y-34969D02*
X64477Y-34969D01*
X64835Y-34969D02*
X64796Y-34969D01*
X64976Y-34907D02*
X64835Y-34969D01*
X56036Y-30023D02*
X56122Y-30061D01*
X55997Y-30023D02*
X56036Y-30023D01*
X55535Y-30023D02*
X55997Y-30023D01*
X55495Y-30023D02*
X55535Y-30023D01*
X55355Y-29985D02*
X55495Y-30023D01*
G54D10*
G36*
X58542Y-34799D02*
X58520Y-34853D01*
X58520Y-34942D01*
X58538Y-34985D01*
X58534Y-34991D01*
X58530Y-35028D01*
X58512Y-35025D01*
X57837Y-35025D01*
X57837Y-35018D01*
X57812Y-34956D01*
X57809Y-34953D01*
X57802Y-33853D01*
X58472Y-33956D01*
X58520Y-33954D01*
X58520Y-33957D01*
X58542Y-34011D01*
X58520Y-34065D01*
X58520Y-34154D01*
X58542Y-34208D01*
X58520Y-34262D01*
X58520Y-34351D01*
X58542Y-34405D01*
X58520Y-34459D01*
X58520Y-34548D01*
X58542Y-34602D01*
X58520Y-34656D01*
X58520Y-34745D01*
X58542Y-34799D01*
X58542Y-34799D01*
G37*
G54D48*
X58542Y-34799D02*
X58520Y-34853D01*
X58520Y-34942D01*
X58538Y-34985D01*
X58534Y-34991D01*
X58530Y-35028D01*
X58512Y-35025D01*
X57837Y-35025D01*
X57837Y-35018D01*
X57812Y-34956D01*
X57809Y-34953D01*
X57802Y-33853D01*
X58472Y-33956D01*
X58520Y-33954D01*
X58520Y-33957D01*
X58542Y-34011D01*
X58520Y-34065D01*
X58520Y-34154D01*
X58542Y-34208D01*
X58520Y-34262D01*
X58520Y-34351D01*
X58542Y-34405D01*
X58520Y-34459D01*
X58520Y-34548D01*
X58542Y-34602D01*
X58520Y-34656D01*
X58520Y-34745D01*
X58542Y-34799D01*
G54D10*
G36*
X61609Y-36868D02*
X61601Y-36999D01*
X61544Y-37057D01*
X61361Y-37057D01*
X61285Y-37057D01*
X61293Y-37038D01*
X61293Y-36901D01*
X61284Y-36880D01*
X61334Y-36880D01*
X61376Y-36862D01*
X61382Y-36866D01*
X61442Y-36872D01*
X61477Y-36834D01*
X61477Y-36785D01*
X61479Y-36784D01*
X61486Y-36765D01*
X61494Y-36783D01*
X61495Y-36784D01*
X61495Y-36834D01*
X61530Y-36872D01*
X61590Y-36866D01*
X61595Y-36862D01*
X61609Y-36868D01*
X61609Y-36868D01*
G37*
G54D48*
X61609Y-36868D02*
X61601Y-36999D01*
X61544Y-37057D01*
X61361Y-37057D01*
X61285Y-37057D01*
X61293Y-37038D01*
X61293Y-36901D01*
X61284Y-36880D01*
X61334Y-36880D01*
X61376Y-36862D01*
X61382Y-36866D01*
X61442Y-36872D01*
X61477Y-36834D01*
X61477Y-36785D01*
X61479Y-36784D01*
X61486Y-36765D01*
X61494Y-36783D01*
X61495Y-36784D01*
X61495Y-36834D01*
X61530Y-36872D01*
X61590Y-36866D01*
X61595Y-36862D01*
X61609Y-36868D01*
G54D10*
G36*
X61682Y-34738D02*
X61198Y-34357D01*
X61195Y-34355D01*
X60824Y-34072D01*
X60824Y-34003D01*
X60772Y-33877D01*
X60675Y-33780D01*
X60549Y-33727D01*
X60412Y-33727D01*
X60286Y-33779D01*
X60220Y-33844D01*
X60191Y-33815D01*
X60065Y-33762D01*
X59928Y-33762D01*
X59802Y-33814D01*
X59774Y-33841D01*
X59652Y-33524D01*
X59670Y-33526D01*
X59705Y-33488D01*
X59705Y-33438D01*
X59706Y-33438D01*
X59714Y-33418D01*
X59722Y-33437D01*
X59723Y-33438D01*
X59723Y-33488D01*
X59758Y-33526D01*
X59818Y-33520D01*
X59823Y-33516D01*
X59866Y-33534D01*
X59955Y-33534D01*
X60009Y-33511D01*
X60063Y-33534D01*
X60152Y-33534D01*
X60195Y-33515D01*
X60201Y-33520D01*
X60261Y-33526D01*
X60296Y-33488D01*
X60296Y-33438D01*
X60297Y-33438D01*
X60305Y-33418D01*
X60313Y-33437D01*
X60314Y-33438D01*
X60314Y-33488D01*
X60349Y-33526D01*
X60409Y-33520D01*
X60414Y-33516D01*
X60457Y-33534D01*
X60546Y-33534D01*
X60599Y-33511D01*
X60653Y-33534D01*
X60742Y-33534D01*
X60796Y-33511D01*
X60850Y-33534D01*
X60939Y-33534D01*
X60993Y-33511D01*
X61047Y-33534D01*
X61136Y-33534D01*
X61190Y-33511D01*
X61244Y-33534D01*
X61333Y-33534D01*
X61387Y-33511D01*
X61441Y-33534D01*
X61457Y-33534D01*
X61436Y-33585D01*
X61436Y-33722D01*
X61488Y-33848D01*
X61553Y-33913D01*
X61507Y-33932D01*
X61410Y-34029D01*
X61357Y-34155D01*
X61357Y-34292D01*
X61409Y-34418D01*
X61506Y-34515D01*
X61611Y-34559D01*
X61682Y-34738D01*
X61682Y-34738D01*
G37*
G54D48*
X61682Y-34738D02*
X61198Y-34357D01*
X61195Y-34355D01*
X60824Y-34072D01*
X60824Y-34003D01*
X60772Y-33877D01*
X60675Y-33780D01*
X60549Y-33727D01*
X60412Y-33727D01*
X60286Y-33779D01*
X60220Y-33844D01*
X60191Y-33815D01*
X60065Y-33762D01*
X59928Y-33762D01*
X59802Y-33814D01*
X59774Y-33841D01*
X59652Y-33524D01*
X59670Y-33526D01*
X59705Y-33488D01*
X59705Y-33438D01*
X59706Y-33438D01*
X59714Y-33418D01*
X59722Y-33437D01*
X59723Y-33438D01*
X59723Y-33488D01*
X59758Y-33526D01*
X59818Y-33520D01*
X59823Y-33516D01*
X59866Y-33534D01*
X59955Y-33534D01*
X60009Y-33511D01*
X60063Y-33534D01*
X60152Y-33534D01*
X60195Y-33515D01*
X60201Y-33520D01*
X60261Y-33526D01*
X60296Y-33488D01*
X60296Y-33438D01*
X60297Y-33438D01*
X60305Y-33418D01*
X60313Y-33437D01*
X60314Y-33438D01*
X60314Y-33488D01*
X60349Y-33526D01*
X60409Y-33520D01*
X60414Y-33516D01*
X60457Y-33534D01*
X60546Y-33534D01*
X60599Y-33511D01*
X60653Y-33534D01*
X60742Y-33534D01*
X60796Y-33511D01*
X60850Y-33534D01*
X60939Y-33534D01*
X60993Y-33511D01*
X61047Y-33534D01*
X61136Y-33534D01*
X61190Y-33511D01*
X61244Y-33534D01*
X61333Y-33534D01*
X61387Y-33511D01*
X61441Y-33534D01*
X61457Y-33534D01*
X61436Y-33585D01*
X61436Y-33722D01*
X61488Y-33848D01*
X61553Y-33913D01*
X61507Y-33932D01*
X61410Y-34029D01*
X61357Y-34155D01*
X61357Y-34292D01*
X61409Y-34418D01*
X61506Y-34515D01*
X61611Y-34559D01*
X61682Y-34738D01*
G54D10*
G36*
X65726Y-36638D02*
X65723Y-36640D01*
X65604Y-36760D01*
X65539Y-36915D01*
X65539Y-37028D01*
X65324Y-36929D01*
X65324Y-35820D01*
X65324Y-35658D01*
X65324Y-35556D01*
X65324Y-35394D01*
X65299Y-35332D01*
X65251Y-35285D01*
X65190Y-35259D01*
X65123Y-35259D01*
X65027Y-35259D01*
X64985Y-35301D01*
X64985Y-35598D01*
X65282Y-35598D01*
X65324Y-35556D01*
X65324Y-35658D01*
X65282Y-35616D01*
X64985Y-35616D01*
X64985Y-35913D01*
X65027Y-35955D01*
X65123Y-35955D01*
X65190Y-35955D01*
X65251Y-35929D01*
X65299Y-35882D01*
X65324Y-35820D01*
X65324Y-36929D01*
X64691Y-36640D01*
X64662Y-36633D01*
X64620Y-36618D01*
X63002Y-36367D01*
X62997Y-36362D01*
X62936Y-36336D01*
X62869Y-36336D01*
X62419Y-36336D01*
X62357Y-36361D01*
X62344Y-36373D01*
X62311Y-36379D01*
X62301Y-36382D01*
X62298Y-36383D01*
X62296Y-36384D01*
X61906Y-36522D01*
X61906Y-36245D01*
X61872Y-36163D01*
X61810Y-36100D01*
X61728Y-36066D01*
X61639Y-36066D01*
X61595Y-36084D01*
X61590Y-36080D01*
X61530Y-36074D01*
X61495Y-36112D01*
X61495Y-36161D01*
X61494Y-36162D01*
X61486Y-36180D01*
X61479Y-36163D01*
X61477Y-36160D01*
X61477Y-36112D01*
X61442Y-36074D01*
X61423Y-36075D01*
X61408Y-36050D01*
X61388Y-36029D01*
X61377Y-36011D01*
X60830Y-35458D01*
X60867Y-35458D01*
X60925Y-35433D01*
X61784Y-35960D01*
X61785Y-35961D01*
X61786Y-35962D01*
X61851Y-36001D01*
X61852Y-36001D01*
X61853Y-36002D01*
X61918Y-36041D01*
X61938Y-36047D01*
X61939Y-36048D01*
X61963Y-36072D01*
X62045Y-36106D01*
X62134Y-36106D01*
X62502Y-36106D01*
X62584Y-36072D01*
X62647Y-36010D01*
X62681Y-35928D01*
X62681Y-35839D01*
X62658Y-35785D01*
X62681Y-35731D01*
X62681Y-35642D01*
X62658Y-35588D01*
X62681Y-35534D01*
X62681Y-35445D01*
X62658Y-35391D01*
X62664Y-35376D01*
X63866Y-35752D01*
X63884Y-35796D01*
X63932Y-35843D01*
X63993Y-35869D01*
X64060Y-35869D01*
X64510Y-35869D01*
X64572Y-35844D01*
X64619Y-35796D01*
X64628Y-35774D01*
X64628Y-35820D01*
X64653Y-35882D01*
X64701Y-35929D01*
X64762Y-35955D01*
X64829Y-35955D01*
X64925Y-35955D01*
X64967Y-35913D01*
X64967Y-35666D01*
X64967Y-35616D01*
X64967Y-35598D01*
X64967Y-35548D01*
X64967Y-35301D01*
X64925Y-35259D01*
X64829Y-35259D01*
X64762Y-35259D01*
X64701Y-35285D01*
X64653Y-35332D01*
X64631Y-35384D01*
X64620Y-35356D01*
X64572Y-35309D01*
X64511Y-35283D01*
X64444Y-35283D01*
X63994Y-35283D01*
X63932Y-35308D01*
X63908Y-35332D01*
X62679Y-34946D01*
X62681Y-34943D01*
X62681Y-34854D01*
X62658Y-34800D01*
X62681Y-34746D01*
X62681Y-34657D01*
X62658Y-34603D01*
X62681Y-34550D01*
X62681Y-34461D01*
X62658Y-34407D01*
X62681Y-34353D01*
X62681Y-34264D01*
X62658Y-34210D01*
X62681Y-34156D01*
X62681Y-34067D01*
X62662Y-34023D01*
X62667Y-34018D01*
X62673Y-33958D01*
X62635Y-33923D01*
X62585Y-33923D01*
X62585Y-33922D01*
X62565Y-33913D01*
X62584Y-33906D01*
X62585Y-33905D01*
X62635Y-33905D01*
X62673Y-33870D01*
X62668Y-33822D01*
X62732Y-33780D01*
X62805Y-33797D01*
X62908Y-33779D01*
X63154Y-33682D01*
X63172Y-33690D01*
X63230Y-33690D01*
X63232Y-33698D01*
X63290Y-33784D01*
X63382Y-33876D01*
X63394Y-33888D01*
X63428Y-33911D01*
X63465Y-33939D01*
X63480Y-33946D01*
X64745Y-34566D01*
X64701Y-34584D01*
X64654Y-34632D01*
X64628Y-34693D01*
X64628Y-34760D01*
X64628Y-34762D01*
X64622Y-34762D01*
X64620Y-34756D01*
X64572Y-34709D01*
X64511Y-34683D01*
X64444Y-34683D01*
X63994Y-34683D01*
X63932Y-34708D01*
X63885Y-34756D01*
X63859Y-34817D01*
X63859Y-34884D01*
X63859Y-35134D01*
X63884Y-35196D01*
X63932Y-35243D01*
X63993Y-35269D01*
X64060Y-35269D01*
X64510Y-35269D01*
X64572Y-35244D01*
X64619Y-35196D01*
X64627Y-35176D01*
X64650Y-35176D01*
X64653Y-35182D01*
X64701Y-35229D01*
X64762Y-35255D01*
X64829Y-35255D01*
X65189Y-35255D01*
X65251Y-35230D01*
X65298Y-35182D01*
X65324Y-35121D01*
X65324Y-35054D01*
X65324Y-34849D01*
X65499Y-34935D01*
X65454Y-34982D01*
X65428Y-35043D01*
X65428Y-35110D01*
X65428Y-35470D01*
X65453Y-35532D01*
X65501Y-35579D01*
X65562Y-35605D01*
X65629Y-35605D01*
X65639Y-35605D01*
X65726Y-36638D01*
X65726Y-36638D01*
G37*
G54D48*
X65726Y-36638D02*
X65723Y-36640D01*
X65604Y-36760D01*
X65539Y-36915D01*
X65539Y-37028D01*
X65324Y-36929D01*
X65324Y-35820D01*
X65324Y-35658D01*
X65324Y-35556D01*
X65324Y-35394D01*
X65299Y-35332D01*
X65251Y-35285D01*
X65190Y-35259D01*
X65123Y-35259D01*
X65027Y-35259D01*
X64985Y-35301D01*
X64985Y-35598D01*
X65282Y-35598D01*
X65324Y-35556D01*
X65324Y-35658D01*
X65282Y-35616D01*
X64985Y-35616D01*
X64985Y-35913D01*
X65027Y-35955D01*
X65123Y-35955D01*
X65190Y-35955D01*
X65251Y-35929D01*
X65299Y-35882D01*
X65324Y-35820D01*
X65324Y-36929D01*
X64691Y-36640D01*
X64662Y-36633D01*
X64620Y-36618D01*
X63002Y-36367D01*
X62997Y-36362D01*
X62936Y-36336D01*
X62869Y-36336D01*
X62419Y-36336D01*
X62357Y-36361D01*
X62344Y-36373D01*
X62311Y-36379D01*
X62301Y-36382D01*
X62298Y-36383D01*
X62296Y-36384D01*
X61906Y-36522D01*
X61906Y-36245D01*
X61872Y-36163D01*
X61810Y-36100D01*
X61728Y-36066D01*
X61639Y-36066D01*
X61595Y-36084D01*
X61590Y-36080D01*
X61530Y-36074D01*
X61495Y-36112D01*
X61495Y-36161D01*
X61494Y-36162D01*
X61486Y-36180D01*
X61479Y-36163D01*
X61477Y-36160D01*
X61477Y-36112D01*
X61442Y-36074D01*
X61423Y-36075D01*
X61408Y-36050D01*
X61388Y-36029D01*
X61377Y-36011D01*
X60830Y-35458D01*
X60867Y-35458D01*
X60925Y-35433D01*
X61784Y-35960D01*
X61785Y-35961D01*
X61786Y-35962D01*
X61851Y-36001D01*
X61852Y-36001D01*
X61853Y-36002D01*
X61918Y-36041D01*
X61938Y-36047D01*
X61939Y-36048D01*
X61963Y-36072D01*
X62045Y-36106D01*
X62134Y-36106D01*
X62502Y-36106D01*
X62584Y-36072D01*
X62647Y-36010D01*
X62681Y-35928D01*
X62681Y-35839D01*
X62658Y-35785D01*
X62681Y-35731D01*
X62681Y-35642D01*
X62658Y-35588D01*
X62681Y-35534D01*
X62681Y-35445D01*
X62658Y-35391D01*
X62664Y-35376D01*
X63866Y-35752D01*
X63884Y-35796D01*
X63932Y-35843D01*
X63993Y-35869D01*
X64060Y-35869D01*
X64510Y-35869D01*
X64572Y-35844D01*
X64619Y-35796D01*
X64628Y-35774D01*
X64628Y-35820D01*
X64653Y-35882D01*
X64701Y-35929D01*
X64762Y-35955D01*
X64829Y-35955D01*
X64925Y-35955D01*
X64967Y-35913D01*
X64967Y-35666D01*
X64967Y-35616D01*
X64967Y-35598D01*
X64967Y-35548D01*
X64967Y-35301D01*
X64925Y-35259D01*
X64829Y-35259D01*
X64762Y-35259D01*
X64701Y-35285D01*
X64653Y-35332D01*
X64631Y-35384D01*
X64620Y-35356D01*
X64572Y-35309D01*
X64511Y-35283D01*
X64444Y-35283D01*
X63994Y-35283D01*
X63932Y-35308D01*
X63908Y-35332D01*
X62679Y-34946D01*
X62681Y-34943D01*
X62681Y-34854D01*
X62658Y-34800D01*
X62681Y-34746D01*
X62681Y-34657D01*
X62658Y-34603D01*
X62681Y-34550D01*
X62681Y-34461D01*
X62658Y-34407D01*
X62681Y-34353D01*
X62681Y-34264D01*
X62658Y-34210D01*
X62681Y-34156D01*
X62681Y-34067D01*
X62662Y-34023D01*
X62667Y-34018D01*
X62673Y-33958D01*
X62635Y-33923D01*
X62585Y-33923D01*
X62585Y-33922D01*
X62565Y-33913D01*
X62584Y-33906D01*
X62585Y-33905D01*
X62635Y-33905D01*
X62673Y-33870D01*
X62668Y-33822D01*
X62732Y-33780D01*
X62805Y-33797D01*
X62908Y-33779D01*
X63154Y-33682D01*
X63172Y-33690D01*
X63230Y-33690D01*
X63232Y-33698D01*
X63290Y-33784D01*
X63382Y-33876D01*
X63394Y-33888D01*
X63428Y-33911D01*
X63465Y-33939D01*
X63480Y-33946D01*
X64745Y-34566D01*
X64701Y-34584D01*
X64654Y-34632D01*
X64628Y-34693D01*
X64628Y-34760D01*
X64628Y-34762D01*
X64622Y-34762D01*
X64620Y-34756D01*
X64572Y-34709D01*
X64511Y-34683D01*
X64444Y-34683D01*
X63994Y-34683D01*
X63932Y-34708D01*
X63885Y-34756D01*
X63859Y-34817D01*
X63859Y-34884D01*
X63859Y-35134D01*
X63884Y-35196D01*
X63932Y-35243D01*
X63993Y-35269D01*
X64060Y-35269D01*
X64510Y-35269D01*
X64572Y-35244D01*
X64619Y-35196D01*
X64627Y-35176D01*
X64650Y-35176D01*
X64653Y-35182D01*
X64701Y-35229D01*
X64762Y-35255D01*
X64829Y-35255D01*
X65189Y-35255D01*
X65251Y-35230D01*
X65298Y-35182D01*
X65324Y-35121D01*
X65324Y-35054D01*
X65324Y-34849D01*
X65499Y-34935D01*
X65454Y-34982D01*
X65428Y-35043D01*
X65428Y-35110D01*
X65428Y-35470D01*
X65453Y-35532D01*
X65501Y-35579D01*
X65562Y-35605D01*
X65629Y-35605D01*
X65639Y-35605D01*
X65726Y-36638D01*
G54D10*
G36*
X67436Y-37792D02*
X65223Y-39656D01*
X65155Y-39628D01*
X64947Y-39628D01*
X64840Y-39671D01*
X63521Y-38724D01*
X63545Y-38670D01*
X63545Y-38603D01*
X63545Y-38153D01*
X63520Y-38091D01*
X63472Y-38044D01*
X63411Y-38018D01*
X63344Y-38018D01*
X63094Y-38018D01*
X63070Y-38027D01*
X63070Y-37387D01*
X63070Y-37280D01*
X63070Y-37178D01*
X63070Y-37071D01*
X63045Y-37009D01*
X62997Y-36962D01*
X62936Y-36936D01*
X62869Y-36936D01*
X62728Y-36936D01*
X62686Y-36978D01*
X62686Y-37220D01*
X63028Y-37220D01*
X63070Y-37178D01*
X63070Y-37280D01*
X63028Y-37238D01*
X62686Y-37238D01*
X62686Y-37480D01*
X62728Y-37522D01*
X62869Y-37522D01*
X62936Y-37522D01*
X62997Y-37496D01*
X63045Y-37449D01*
X63070Y-37387D01*
X63070Y-38027D01*
X63032Y-38043D01*
X62985Y-38091D01*
X62959Y-38152D01*
X62959Y-38219D01*
X62959Y-38519D01*
X62668Y-38453D01*
X62668Y-37480D01*
X62668Y-37238D01*
X62668Y-37220D01*
X62668Y-36978D01*
X62626Y-36936D01*
X62485Y-36936D01*
X62418Y-36936D01*
X62357Y-36962D01*
X62309Y-37009D01*
X62284Y-37071D01*
X62284Y-37178D01*
X62326Y-37220D01*
X62668Y-37220D01*
X62668Y-37238D01*
X62326Y-37238D01*
X62284Y-37280D01*
X62284Y-37387D01*
X62309Y-37449D01*
X62357Y-37496D01*
X62418Y-37522D01*
X62485Y-37522D01*
X62626Y-37522D01*
X62668Y-37480D01*
X62668Y-38453D01*
X60005Y-37858D01*
X60001Y-37851D01*
X59391Y-37155D01*
X60721Y-37577D01*
X60769Y-37582D01*
X60802Y-37589D01*
X60824Y-37589D01*
X61361Y-37589D01*
X61655Y-37589D01*
X61757Y-37569D01*
X61843Y-37511D01*
X62040Y-37313D01*
X62050Y-37303D01*
X62073Y-37268D01*
X62102Y-37230D01*
X62103Y-37223D01*
X62108Y-37217D01*
X62116Y-37173D01*
X62128Y-37129D01*
X62128Y-37115D01*
X62134Y-37006D01*
X62396Y-36912D01*
X62418Y-36922D01*
X62485Y-36922D01*
X62935Y-36922D01*
X62982Y-36902D01*
X64499Y-37137D01*
X65672Y-37675D01*
X65676Y-37676D01*
X65681Y-37679D01*
X65725Y-37687D01*
X65773Y-37699D01*
X65778Y-37698D01*
X65783Y-37699D01*
X66063Y-37699D01*
X65655Y-38280D01*
X65655Y-38238D01*
X65655Y-38171D01*
X65629Y-38110D01*
X65582Y-38062D01*
X65520Y-38037D01*
X65413Y-38037D01*
X65371Y-38079D01*
X65371Y-38371D01*
X65371Y-38421D01*
X65371Y-38439D01*
X65353Y-38439D01*
X65353Y-38421D01*
X65353Y-38079D01*
X65311Y-38037D01*
X65204Y-38037D01*
X65142Y-38062D01*
X65095Y-38110D01*
X65069Y-38171D01*
X65069Y-38238D01*
X65069Y-38379D01*
X65111Y-38421D01*
X65353Y-38421D01*
X65353Y-38439D01*
X65303Y-38439D01*
X65111Y-38439D01*
X65069Y-38481D01*
X65069Y-38601D01*
X65055Y-38595D01*
X65055Y-38172D01*
X65030Y-38110D01*
X64982Y-38063D01*
X64921Y-38037D01*
X64854Y-38037D01*
X64604Y-38037D01*
X64542Y-38062D01*
X64534Y-38069D01*
X64528Y-38054D01*
X64431Y-37957D01*
X64305Y-37904D01*
X64168Y-37904D01*
X64042Y-37956D01*
X63980Y-38018D01*
X63944Y-38018D01*
X63694Y-38018D01*
X63632Y-38043D01*
X63585Y-38091D01*
X63559Y-38152D01*
X63559Y-38219D01*
X63559Y-38669D01*
X63584Y-38731D01*
X63632Y-38778D01*
X63693Y-38804D01*
X63760Y-38804D01*
X64010Y-38804D01*
X64072Y-38779D01*
X64119Y-38731D01*
X64145Y-38670D01*
X64145Y-38603D01*
X64145Y-38582D01*
X64167Y-38592D01*
X64304Y-38592D01*
X64430Y-38540D01*
X64461Y-38508D01*
X64469Y-38509D01*
X64469Y-38688D01*
X64494Y-38750D01*
X64542Y-38797D01*
X64603Y-38823D01*
X64654Y-38823D01*
X64636Y-38868D01*
X64636Y-39005D01*
X64688Y-39131D01*
X64785Y-39228D01*
X64911Y-39281D01*
X65048Y-39281D01*
X65174Y-39229D01*
X65242Y-39160D01*
X65608Y-39095D01*
X65635Y-39084D01*
X65663Y-39079D01*
X65680Y-39066D01*
X65704Y-39058D01*
X65727Y-39035D01*
X65749Y-39021D01*
X65853Y-38917D01*
X65864Y-38899D01*
X65883Y-38882D01*
X66939Y-37377D01*
X67044Y-37335D01*
X67113Y-37266D01*
X67113Y-37289D01*
X67138Y-37351D01*
X67186Y-37398D01*
X67247Y-37424D01*
X67314Y-37424D01*
X67363Y-37424D01*
X67436Y-37792D01*
X67436Y-37792D01*
G37*
G54D48*
X67436Y-37792D02*
X65223Y-39656D01*
X65155Y-39628D01*
X64947Y-39628D01*
X64840Y-39671D01*
X63521Y-38724D01*
X63545Y-38670D01*
X63545Y-38603D01*
X63545Y-38153D01*
X63520Y-38091D01*
X63472Y-38044D01*
X63411Y-38018D01*
X63344Y-38018D01*
X63094Y-38018D01*
X63070Y-38027D01*
X63070Y-37387D01*
X63070Y-37280D01*
X63070Y-37178D01*
X63070Y-37071D01*
X63045Y-37009D01*
X62997Y-36962D01*
X62936Y-36936D01*
X62869Y-36936D01*
X62728Y-36936D01*
X62686Y-36978D01*
X62686Y-37220D01*
X63028Y-37220D01*
X63070Y-37178D01*
X63070Y-37280D01*
X63028Y-37238D01*
X62686Y-37238D01*
X62686Y-37480D01*
X62728Y-37522D01*
X62869Y-37522D01*
X62936Y-37522D01*
X62997Y-37496D01*
X63045Y-37449D01*
X63070Y-37387D01*
X63070Y-38027D01*
X63032Y-38043D01*
X62985Y-38091D01*
X62959Y-38152D01*
X62959Y-38219D01*
X62959Y-38519D01*
X62668Y-38453D01*
X62668Y-37480D01*
X62668Y-37238D01*
X62668Y-37220D01*
X62668Y-36978D01*
X62626Y-36936D01*
X62485Y-36936D01*
X62418Y-36936D01*
X62357Y-36962D01*
X62309Y-37009D01*
X62284Y-37071D01*
X62284Y-37178D01*
X62326Y-37220D01*
X62668Y-37220D01*
X62668Y-37238D01*
X62326Y-37238D01*
X62284Y-37280D01*
X62284Y-37387D01*
X62309Y-37449D01*
X62357Y-37496D01*
X62418Y-37522D01*
X62485Y-37522D01*
X62626Y-37522D01*
X62668Y-37480D01*
X62668Y-38453D01*
X60005Y-37858D01*
X60001Y-37851D01*
X59391Y-37155D01*
X60721Y-37577D01*
X60769Y-37582D01*
X60802Y-37589D01*
X60824Y-37589D01*
X61361Y-37589D01*
X61655Y-37589D01*
X61757Y-37569D01*
X61843Y-37511D01*
X62040Y-37313D01*
X62050Y-37303D01*
X62073Y-37268D01*
X62102Y-37230D01*
X62103Y-37223D01*
X62108Y-37217D01*
X62116Y-37173D01*
X62128Y-37129D01*
X62128Y-37115D01*
X62134Y-37006D01*
X62396Y-36912D01*
X62418Y-36922D01*
X62485Y-36922D01*
X62935Y-36922D01*
X62982Y-36902D01*
X64499Y-37137D01*
X65672Y-37675D01*
X65676Y-37676D01*
X65681Y-37679D01*
X65725Y-37687D01*
X65773Y-37699D01*
X65778Y-37698D01*
X65783Y-37699D01*
X66063Y-37699D01*
X65655Y-38280D01*
X65655Y-38238D01*
X65655Y-38171D01*
X65629Y-38110D01*
X65582Y-38062D01*
X65520Y-38037D01*
X65413Y-38037D01*
X65371Y-38079D01*
X65371Y-38371D01*
X65371Y-38421D01*
X65371Y-38439D01*
X65353Y-38439D01*
X65353Y-38421D01*
X65353Y-38079D01*
X65311Y-38037D01*
X65204Y-38037D01*
X65142Y-38062D01*
X65095Y-38110D01*
X65069Y-38171D01*
X65069Y-38238D01*
X65069Y-38379D01*
X65111Y-38421D01*
X65353Y-38421D01*
X65353Y-38439D01*
X65303Y-38439D01*
X65111Y-38439D01*
X65069Y-38481D01*
X65069Y-38601D01*
X65055Y-38595D01*
X65055Y-38172D01*
X65030Y-38110D01*
X64982Y-38063D01*
X64921Y-38037D01*
X64854Y-38037D01*
X64604Y-38037D01*
X64542Y-38062D01*
X64534Y-38069D01*
X64528Y-38054D01*
X64431Y-37957D01*
X64305Y-37904D01*
X64168Y-37904D01*
X64042Y-37956D01*
X63980Y-38018D01*
X63944Y-38018D01*
X63694Y-38018D01*
X63632Y-38043D01*
X63585Y-38091D01*
X63559Y-38152D01*
X63559Y-38219D01*
X63559Y-38669D01*
X63584Y-38731D01*
X63632Y-38778D01*
X63693Y-38804D01*
X63760Y-38804D01*
X64010Y-38804D01*
X64072Y-38779D01*
X64119Y-38731D01*
X64145Y-38670D01*
X64145Y-38603D01*
X64145Y-38582D01*
X64167Y-38592D01*
X64304Y-38592D01*
X64430Y-38540D01*
X64461Y-38508D01*
X64469Y-38509D01*
X64469Y-38688D01*
X64494Y-38750D01*
X64542Y-38797D01*
X64603Y-38823D01*
X64654Y-38823D01*
X64636Y-38868D01*
X64636Y-39005D01*
X64688Y-39131D01*
X64785Y-39228D01*
X64911Y-39281D01*
X65048Y-39281D01*
X65174Y-39229D01*
X65242Y-39160D01*
X65608Y-39095D01*
X65635Y-39084D01*
X65663Y-39079D01*
X65680Y-39066D01*
X65704Y-39058D01*
X65727Y-39035D01*
X65749Y-39021D01*
X65853Y-38917D01*
X65864Y-38899D01*
X65883Y-38882D01*
X66939Y-37377D01*
X67044Y-37335D01*
X67113Y-37266D01*
X67113Y-37289D01*
X67138Y-37351D01*
X67186Y-37398D01*
X67247Y-37424D01*
X67314Y-37424D01*
X67363Y-37424D01*
X67436Y-37792D01*
G54D10*
G36*
X70206Y-36406D02*
X70202Y-36411D01*
X70200Y-36415D01*
X70199Y-36412D01*
X70114Y-36327D01*
X70004Y-36281D01*
X69885Y-36281D01*
X69775Y-36326D01*
X69690Y-36411D01*
X69644Y-36521D01*
X69644Y-36640D01*
X69644Y-36730D01*
X69689Y-36840D01*
X69774Y-36925D01*
X69828Y-36947D01*
X69892Y-37029D01*
X69885Y-37029D01*
X69839Y-37029D01*
X69772Y-37029D01*
X69711Y-37055D01*
X69663Y-37102D01*
X69638Y-37164D01*
X69638Y-37323D01*
X69680Y-37365D01*
X69885Y-37365D01*
X69935Y-37365D01*
X69953Y-37365D01*
X69953Y-37383D01*
X69935Y-37383D01*
X69885Y-37383D01*
X69680Y-37383D01*
X69638Y-37425D01*
X69638Y-37584D01*
X69663Y-37646D01*
X69711Y-37693D01*
X69772Y-37719D01*
X69807Y-37719D01*
X69371Y-37903D01*
X69371Y-37904D01*
X69370Y-37904D01*
X69369Y-37905D01*
X69283Y-37963D01*
X69281Y-37965D01*
X69212Y-38035D01*
X69154Y-38121D01*
X69149Y-38146D01*
X67960Y-37697D01*
X67898Y-37387D01*
X67935Y-37351D01*
X67961Y-37290D01*
X67961Y-37223D01*
X67961Y-36711D01*
X67936Y-36649D01*
X67888Y-36602D01*
X67827Y-36576D01*
X67760Y-36576D01*
X67248Y-36576D01*
X67186Y-36601D01*
X67139Y-36649D01*
X67113Y-36710D01*
X67113Y-36777D01*
X67113Y-36820D01*
X67045Y-36752D01*
X66919Y-36699D01*
X66859Y-36699D01*
X67051Y-36215D01*
X69662Y-35871D01*
X69712Y-35893D01*
X69770Y-35893D01*
X69772Y-35901D01*
X69797Y-35938D01*
X69820Y-35977D01*
X70206Y-36406D01*
X70206Y-36406D01*
G37*
G54D48*
X70206Y-36406D02*
X70202Y-36411D01*
X70200Y-36415D01*
X70199Y-36412D01*
X70114Y-36327D01*
X70004Y-36281D01*
X69885Y-36281D01*
X69775Y-36326D01*
X69690Y-36411D01*
X69644Y-36521D01*
X69644Y-36640D01*
X69644Y-36730D01*
X69689Y-36840D01*
X69774Y-36925D01*
X69828Y-36947D01*
X69892Y-37029D01*
X69885Y-37029D01*
X69839Y-37029D01*
X69772Y-37029D01*
X69711Y-37055D01*
X69663Y-37102D01*
X69638Y-37164D01*
X69638Y-37323D01*
X69680Y-37365D01*
X69885Y-37365D01*
X69935Y-37365D01*
X69953Y-37365D01*
X69953Y-37383D01*
X69935Y-37383D01*
X69885Y-37383D01*
X69680Y-37383D01*
X69638Y-37425D01*
X69638Y-37584D01*
X69663Y-37646D01*
X69711Y-37693D01*
X69772Y-37719D01*
X69807Y-37719D01*
X69371Y-37903D01*
X69371Y-37904D01*
X69370Y-37904D01*
X69369Y-37905D01*
X69283Y-37963D01*
X69281Y-37965D01*
X69212Y-38035D01*
X69154Y-38121D01*
X69149Y-38146D01*
X67960Y-37697D01*
X67898Y-37387D01*
X67935Y-37351D01*
X67961Y-37290D01*
X67961Y-37223D01*
X67961Y-36711D01*
X67936Y-36649D01*
X67888Y-36602D01*
X67827Y-36576D01*
X67760Y-36576D01*
X67248Y-36576D01*
X67186Y-36601D01*
X67139Y-36649D01*
X67113Y-36710D01*
X67113Y-36777D01*
X67113Y-36820D01*
X67045Y-36752D01*
X66919Y-36699D01*
X66859Y-36699D01*
X67051Y-36215D01*
X69662Y-35871D01*
X69712Y-35893D01*
X69770Y-35893D01*
X69772Y-35901D01*
X69797Y-35938D01*
X69820Y-35977D01*
X70206Y-36406D01*
G54D10*
G36*
X72007Y-41507D02*
X71980Y-41507D01*
X71980Y-40080D01*
X71932Y-39952D01*
X71932Y-28756D01*
X71932Y-28572D01*
X71862Y-28402D01*
X71731Y-28272D01*
X71561Y-28201D01*
X71377Y-28201D01*
X71207Y-28271D01*
X71077Y-28402D01*
X71037Y-28497D01*
X71037Y-28076D01*
X70957Y-27872D01*
X70943Y-27850D01*
X70858Y-27812D01*
X70498Y-28172D01*
X70858Y-28532D01*
X70943Y-28494D01*
X71032Y-28294D01*
X71037Y-28076D01*
X71037Y-28497D01*
X71006Y-28572D01*
X71006Y-28756D01*
X71076Y-28926D01*
X71207Y-29056D01*
X71377Y-29127D01*
X71561Y-29127D01*
X71731Y-29057D01*
X71861Y-28926D01*
X71932Y-28756D01*
X71932Y-39952D01*
X71924Y-39931D01*
X71924Y-30355D01*
X71858Y-30187D01*
X71848Y-30172D01*
X71772Y-30145D01*
X71760Y-30157D01*
X71760Y-30133D01*
X71733Y-30057D01*
X71568Y-29985D01*
X71388Y-29981D01*
X71220Y-30047D01*
X71205Y-30057D01*
X71178Y-30133D01*
X71469Y-30423D01*
X71760Y-30133D01*
X71760Y-30157D01*
X71482Y-30436D01*
X71772Y-30727D01*
X71848Y-30700D01*
X71920Y-30535D01*
X71924Y-30355D01*
X71924Y-39931D01*
X71795Y-39588D01*
X71760Y-39535D01*
X71760Y-30739D01*
X71469Y-30449D01*
X71456Y-30461D01*
X71456Y-30436D01*
X71166Y-30145D01*
X71090Y-30172D01*
X71018Y-30337D01*
X71014Y-30517D01*
X71080Y-30685D01*
X71090Y-30700D01*
X71166Y-30727D01*
X71456Y-30436D01*
X71456Y-30461D01*
X71178Y-30739D01*
X71205Y-30815D01*
X71370Y-30887D01*
X71550Y-30891D01*
X71718Y-30825D01*
X71733Y-30815D01*
X71760Y-30739D01*
X71760Y-39535D01*
X71746Y-39515D01*
X71580Y-39383D01*
X71567Y-39396D01*
X71567Y-39370D01*
X71435Y-39204D01*
X70956Y-38987D01*
X70430Y-38970D01*
X70293Y-39021D01*
X70293Y-38759D01*
X70293Y-38692D01*
X70293Y-38551D01*
X70251Y-38509D01*
X70009Y-38509D01*
X70009Y-38851D01*
X70051Y-38893D01*
X70158Y-38893D01*
X70220Y-38868D01*
X70267Y-38820D01*
X70293Y-38759D01*
X70293Y-39021D01*
X69991Y-39135D01*
X69991Y-38851D01*
X69991Y-38509D01*
X69749Y-38509D01*
X69707Y-38551D01*
X69707Y-38692D01*
X69707Y-38759D01*
X69733Y-38820D01*
X69780Y-38868D01*
X69842Y-38893D01*
X69949Y-38893D01*
X69991Y-38851D01*
X69991Y-39135D01*
X69938Y-39155D01*
X69865Y-39204D01*
X69733Y-39370D01*
X70650Y-40287D01*
X71567Y-39370D01*
X71567Y-39396D01*
X70663Y-40300D01*
X71580Y-41217D01*
X71746Y-41085D01*
X71963Y-40606D01*
X71980Y-40080D01*
X71980Y-41507D01*
X71197Y-41507D01*
X71362Y-41445D01*
X71435Y-41396D01*
X71567Y-41230D01*
X70650Y-40313D01*
X70637Y-40326D01*
X70637Y-40300D01*
X69720Y-39383D01*
X69554Y-39515D01*
X69337Y-39994D01*
X69320Y-40520D01*
X69505Y-41012D01*
X69554Y-41085D01*
X69720Y-41217D01*
X70637Y-40300D01*
X70637Y-40326D01*
X69733Y-41230D01*
X69865Y-41396D01*
X70110Y-41507D01*
X59793Y-41507D01*
X59793Y-39233D01*
X59793Y-39076D01*
X59793Y-38974D01*
X59793Y-38817D01*
X59768Y-38755D01*
X59720Y-38708D01*
X59659Y-38682D01*
X59592Y-38682D01*
X59401Y-38682D01*
X59359Y-38724D01*
X59359Y-39016D01*
X59751Y-39016D01*
X59793Y-38974D01*
X59793Y-39076D01*
X59751Y-39034D01*
X59359Y-39034D01*
X59359Y-39326D01*
X59401Y-39368D01*
X59592Y-39368D01*
X59659Y-39368D01*
X59720Y-39342D01*
X59768Y-39295D01*
X59793Y-39233D01*
X59793Y-41507D01*
X59341Y-41507D01*
X59341Y-39326D01*
X59341Y-39034D01*
X59341Y-39016D01*
X59341Y-38724D01*
X59299Y-38682D01*
X59108Y-38682D01*
X59041Y-38682D01*
X58980Y-38708D01*
X58932Y-38755D01*
X58907Y-38817D01*
X58907Y-38974D01*
X58949Y-39016D01*
X59341Y-39016D01*
X59341Y-39034D01*
X58949Y-39034D01*
X58907Y-39076D01*
X58907Y-39233D01*
X58932Y-39295D01*
X58980Y-39342D01*
X59041Y-39368D01*
X59108Y-39368D01*
X59299Y-39368D01*
X59341Y-39326D01*
X59341Y-41507D01*
X58743Y-41507D01*
X58743Y-39233D01*
X58743Y-39076D01*
X58743Y-38974D01*
X58743Y-38817D01*
X58718Y-38755D01*
X58670Y-38708D01*
X58609Y-38682D01*
X58542Y-38682D01*
X58351Y-38682D01*
X58309Y-38724D01*
X58309Y-39016D01*
X58701Y-39016D01*
X58743Y-38974D01*
X58743Y-39076D01*
X58701Y-39034D01*
X58309Y-39034D01*
X58309Y-39326D01*
X58351Y-39368D01*
X58542Y-39368D01*
X58609Y-39368D01*
X58670Y-39342D01*
X58718Y-39295D01*
X58743Y-39233D01*
X58743Y-41507D01*
X58291Y-41507D01*
X58291Y-39326D01*
X58291Y-39034D01*
X58291Y-39016D01*
X58291Y-38724D01*
X58249Y-38682D01*
X58058Y-38682D01*
X57991Y-38682D01*
X57930Y-38708D01*
X57882Y-38755D01*
X57857Y-38817D01*
X57857Y-38974D01*
X57899Y-39016D01*
X58291Y-39016D01*
X58291Y-39034D01*
X57899Y-39034D01*
X57857Y-39076D01*
X57857Y-39233D01*
X57882Y-39295D01*
X57930Y-39342D01*
X57991Y-39368D01*
X58058Y-39368D01*
X58249Y-39368D01*
X58291Y-39326D01*
X58291Y-41507D01*
X57693Y-41507D01*
X57693Y-39233D01*
X57693Y-39076D01*
X57693Y-38974D01*
X57693Y-38817D01*
X57668Y-38755D01*
X57620Y-38708D01*
X57559Y-38682D01*
X57492Y-38682D01*
X57301Y-38682D01*
X57259Y-38724D01*
X57259Y-39016D01*
X57651Y-39016D01*
X57693Y-38974D01*
X57693Y-39076D01*
X57651Y-39034D01*
X57259Y-39034D01*
X57259Y-39326D01*
X57301Y-39368D01*
X57492Y-39368D01*
X57559Y-39368D01*
X57620Y-39342D01*
X57668Y-39295D01*
X57693Y-39233D01*
X57693Y-41507D01*
X57241Y-41507D01*
X57241Y-39326D01*
X57241Y-39034D01*
X57241Y-39016D01*
X57241Y-38724D01*
X57199Y-38682D01*
X57008Y-38682D01*
X56941Y-38682D01*
X56880Y-38708D01*
X56832Y-38755D01*
X56807Y-38817D01*
X56807Y-38974D01*
X56849Y-39016D01*
X57241Y-39016D01*
X57241Y-39034D01*
X56849Y-39034D01*
X56807Y-39076D01*
X56807Y-39233D01*
X56832Y-39295D01*
X56880Y-39342D01*
X56941Y-39368D01*
X57008Y-39368D01*
X57199Y-39368D01*
X57241Y-39326D01*
X57241Y-41507D01*
X56751Y-41507D01*
X56751Y-39233D01*
X56751Y-39076D01*
X56751Y-38974D01*
X56751Y-38817D01*
X56726Y-38755D01*
X56678Y-38708D01*
X56617Y-38682D01*
X56550Y-38682D01*
X56359Y-38682D01*
X56317Y-38724D01*
X56317Y-39016D01*
X56709Y-39016D01*
X56751Y-38974D01*
X56751Y-39076D01*
X56709Y-39034D01*
X56317Y-39034D01*
X56317Y-39326D01*
X56359Y-39368D01*
X56550Y-39368D01*
X56617Y-39368D01*
X56678Y-39342D01*
X56726Y-39295D01*
X56751Y-39233D01*
X56751Y-41507D01*
X56299Y-41507D01*
X48597Y-41507D01*
X48597Y-40573D01*
X48491Y-40296D01*
X48467Y-40262D01*
X48362Y-40201D01*
X48349Y-40214D01*
X48349Y-40188D01*
X48288Y-40083D01*
X48018Y-39962D01*
X47943Y-39959D01*
X47943Y-35159D01*
X47943Y-35092D01*
X47943Y-34951D01*
X47943Y-34849D01*
X47943Y-34708D01*
X47943Y-34641D01*
X47943Y-34109D01*
X47943Y-34042D01*
X47943Y-33901D01*
X47943Y-33799D01*
X47943Y-33658D01*
X47943Y-33591D01*
X47917Y-33530D01*
X47870Y-33482D01*
X47808Y-33457D01*
X47701Y-33457D01*
X47659Y-33499D01*
X47659Y-33841D01*
X47901Y-33841D01*
X47943Y-33799D01*
X47943Y-33901D01*
X47901Y-33859D01*
X47659Y-33859D01*
X47659Y-34201D01*
X47701Y-34243D01*
X47808Y-34243D01*
X47870Y-34218D01*
X47917Y-34170D01*
X47943Y-34109D01*
X47943Y-34641D01*
X47917Y-34580D01*
X47870Y-34532D01*
X47808Y-34507D01*
X47701Y-34507D01*
X47659Y-34549D01*
X47659Y-34891D01*
X47901Y-34891D01*
X47943Y-34849D01*
X47943Y-34951D01*
X47901Y-34909D01*
X47659Y-34909D01*
X47659Y-35251D01*
X47701Y-35293D01*
X47808Y-35293D01*
X47870Y-35268D01*
X47917Y-35220D01*
X47943Y-35159D01*
X47943Y-39959D01*
X47918Y-39958D01*
X47918Y-39609D01*
X47918Y-39542D01*
X47918Y-39351D01*
X47918Y-39249D01*
X47918Y-39058D01*
X47918Y-38991D01*
X47918Y-38509D01*
X47918Y-38442D01*
X47918Y-38251D01*
X47918Y-38149D01*
X47918Y-37958D01*
X47918Y-37891D01*
X47918Y-37509D01*
X47918Y-37442D01*
X47918Y-37251D01*
X47918Y-37149D01*
X47918Y-36958D01*
X47918Y-36891D01*
X47918Y-36509D01*
X47918Y-36442D01*
X47918Y-36251D01*
X47918Y-36149D01*
X47918Y-35958D01*
X47918Y-35891D01*
X47892Y-35830D01*
X47845Y-35782D01*
X47783Y-35757D01*
X47641Y-35757D01*
X47641Y-35251D01*
X47641Y-34909D01*
X47641Y-34891D01*
X47641Y-34549D01*
X47641Y-34201D01*
X47641Y-33859D01*
X47641Y-33841D01*
X47641Y-33499D01*
X47599Y-33457D01*
X47492Y-33457D01*
X47430Y-33482D01*
X47383Y-33530D01*
X47357Y-33591D01*
X47357Y-33658D01*
X47357Y-33799D01*
X47399Y-33841D01*
X47641Y-33841D01*
X47641Y-33859D01*
X47399Y-33859D01*
X47357Y-33901D01*
X47357Y-34042D01*
X47357Y-34109D01*
X47383Y-34170D01*
X47430Y-34218D01*
X47492Y-34243D01*
X47599Y-34243D01*
X47641Y-34201D01*
X47641Y-34549D01*
X47599Y-34507D01*
X47492Y-34507D01*
X47430Y-34532D01*
X47383Y-34580D01*
X47357Y-34641D01*
X47357Y-34708D01*
X47357Y-34849D01*
X47399Y-34891D01*
X47641Y-34891D01*
X47641Y-34909D01*
X47399Y-34909D01*
X47357Y-34951D01*
X47357Y-35092D01*
X47357Y-35159D01*
X47383Y-35220D01*
X47430Y-35268D01*
X47492Y-35293D01*
X47599Y-35293D01*
X47641Y-35251D01*
X47641Y-35757D01*
X47626Y-35757D01*
X47584Y-35799D01*
X47584Y-36191D01*
X47876Y-36191D01*
X47918Y-36149D01*
X47918Y-36251D01*
X47876Y-36209D01*
X47584Y-36209D01*
X47584Y-36601D01*
X47626Y-36643D01*
X47783Y-36643D01*
X47845Y-36618D01*
X47892Y-36570D01*
X47918Y-36509D01*
X47918Y-36891D01*
X47892Y-36830D01*
X47845Y-36782D01*
X47783Y-36757D01*
X47626Y-36757D01*
X47584Y-36799D01*
X47584Y-37191D01*
X47876Y-37191D01*
X47918Y-37149D01*
X47918Y-37251D01*
X47876Y-37209D01*
X47584Y-37209D01*
X47584Y-37601D01*
X47626Y-37643D01*
X47783Y-37643D01*
X47845Y-37618D01*
X47892Y-37570D01*
X47918Y-37509D01*
X47918Y-37891D01*
X47892Y-37830D01*
X47845Y-37782D01*
X47783Y-37757D01*
X47626Y-37757D01*
X47584Y-37799D01*
X47584Y-38191D01*
X47876Y-38191D01*
X47918Y-38149D01*
X47918Y-38251D01*
X47876Y-38209D01*
X47584Y-38209D01*
X47584Y-38601D01*
X47626Y-38643D01*
X47783Y-38643D01*
X47845Y-38618D01*
X47892Y-38570D01*
X47918Y-38509D01*
X47918Y-38991D01*
X47892Y-38930D01*
X47845Y-38882D01*
X47783Y-38857D01*
X47626Y-38857D01*
X47584Y-38899D01*
X47584Y-39291D01*
X47876Y-39291D01*
X47918Y-39249D01*
X47918Y-39351D01*
X47876Y-39309D01*
X47584Y-39309D01*
X47584Y-39701D01*
X47626Y-39743D01*
X47783Y-39743D01*
X47845Y-39718D01*
X47892Y-39670D01*
X47918Y-39609D01*
X47918Y-39958D01*
X47723Y-39953D01*
X47566Y-40013D01*
X47566Y-39701D01*
X47566Y-39309D01*
X47566Y-39291D01*
X47566Y-38899D01*
X47566Y-38601D01*
X47566Y-38209D01*
X47566Y-38191D01*
X47566Y-37799D01*
X47566Y-37601D01*
X47566Y-37209D01*
X47566Y-37191D01*
X47566Y-36799D01*
X47566Y-36601D01*
X47566Y-36209D01*
X47566Y-36191D01*
X47566Y-35799D01*
X47524Y-35757D01*
X47367Y-35757D01*
X47305Y-35782D01*
X47258Y-35830D01*
X47232Y-35891D01*
X47232Y-35958D01*
X47232Y-36149D01*
X47274Y-36191D01*
X47566Y-36191D01*
X47566Y-36209D01*
X47274Y-36209D01*
X47232Y-36251D01*
X47232Y-36442D01*
X47232Y-36509D01*
X47258Y-36570D01*
X47305Y-36618D01*
X47367Y-36643D01*
X47524Y-36643D01*
X47566Y-36601D01*
X47566Y-36799D01*
X47524Y-36757D01*
X47367Y-36757D01*
X47305Y-36782D01*
X47258Y-36830D01*
X47232Y-36891D01*
X47232Y-36958D01*
X47232Y-37149D01*
X47274Y-37191D01*
X47566Y-37191D01*
X47566Y-37209D01*
X47274Y-37209D01*
X47232Y-37251D01*
X47232Y-37442D01*
X47232Y-37509D01*
X47258Y-37570D01*
X47305Y-37618D01*
X47367Y-37643D01*
X47524Y-37643D01*
X47566Y-37601D01*
X47566Y-37799D01*
X47524Y-37757D01*
X47367Y-37757D01*
X47305Y-37782D01*
X47258Y-37830D01*
X47232Y-37891D01*
X47232Y-37958D01*
X47232Y-38149D01*
X47274Y-38191D01*
X47566Y-38191D01*
X47566Y-38209D01*
X47274Y-38209D01*
X47232Y-38251D01*
X47232Y-38442D01*
X47232Y-38509D01*
X47258Y-38570D01*
X47305Y-38618D01*
X47367Y-38643D01*
X47524Y-38643D01*
X47566Y-38601D01*
X47566Y-38899D01*
X47524Y-38857D01*
X47367Y-38857D01*
X47305Y-38882D01*
X47258Y-38930D01*
X47232Y-38991D01*
X47232Y-39058D01*
X47232Y-39249D01*
X47274Y-39291D01*
X47566Y-39291D01*
X47566Y-39309D01*
X47274Y-39309D01*
X47232Y-39351D01*
X47232Y-39542D01*
X47232Y-39609D01*
X47258Y-39670D01*
X47305Y-39718D01*
X47367Y-39743D01*
X47524Y-39743D01*
X47566Y-39701D01*
X47566Y-40013D01*
X47446Y-40059D01*
X47412Y-40083D01*
X47351Y-40188D01*
X47850Y-40687D01*
X48349Y-40188D01*
X48349Y-40214D01*
X47863Y-40700D01*
X48362Y-41199D01*
X48467Y-41138D01*
X48588Y-40868D01*
X48597Y-40573D01*
X48597Y-41507D01*
X48349Y-41507D01*
X48349Y-41212D01*
X47850Y-40713D01*
X47837Y-40726D01*
X47837Y-40700D01*
X47338Y-40201D01*
X47233Y-40262D01*
X47112Y-40532D01*
X47103Y-40827D01*
X47209Y-41104D01*
X47233Y-41138D01*
X47338Y-41199D01*
X47837Y-40700D01*
X47837Y-40726D01*
X47351Y-41212D01*
X47412Y-41317D01*
X47682Y-41438D01*
X47977Y-41447D01*
X48254Y-41341D01*
X48288Y-41317D01*
X48349Y-41212D01*
X48349Y-41507D01*
X47000Y-41507D01*
X46993Y-41507D01*
X46993Y-29630D01*
X47005Y-29662D01*
X47054Y-29735D01*
X47220Y-29867D01*
X48137Y-28950D01*
X47220Y-28033D01*
X47054Y-28165D01*
X46993Y-28299D01*
X46993Y-27743D01*
X47602Y-27743D01*
X47438Y-27805D01*
X47365Y-27854D01*
X47233Y-28020D01*
X48150Y-28937D01*
X49067Y-28020D01*
X48935Y-27854D01*
X48689Y-27743D01*
X66997Y-27743D01*
X66922Y-27819D01*
X66851Y-27989D01*
X66851Y-28173D01*
X66921Y-28343D01*
X67052Y-28473D01*
X67117Y-28500D01*
X67120Y-28596D01*
X66944Y-28518D01*
X66726Y-28513D01*
X66522Y-28593D01*
X66500Y-28607D01*
X66462Y-28692D01*
X66787Y-29017D01*
X66822Y-29052D01*
X66835Y-29065D01*
X66822Y-29078D01*
X66809Y-29091D01*
X66809Y-29065D01*
X66449Y-28705D01*
X66364Y-28743D01*
X66275Y-28943D01*
X66270Y-29161D01*
X66350Y-29365D01*
X66364Y-29387D01*
X66449Y-29425D01*
X66809Y-29065D01*
X66809Y-29091D01*
X66787Y-29113D01*
X66462Y-29438D01*
X66500Y-29523D01*
X66700Y-29612D01*
X66809Y-29614D01*
X64197Y-32934D01*
X65203Y-30354D01*
X65204Y-30343D01*
X65215Y-30321D01*
X65602Y-28743D01*
X65758Y-28743D01*
X65820Y-28718D01*
X65867Y-28670D01*
X65893Y-28609D01*
X65893Y-28542D01*
X65893Y-27992D01*
X65868Y-27930D01*
X65820Y-27883D01*
X65759Y-27857D01*
X65692Y-27857D01*
X65142Y-27857D01*
X65080Y-27882D01*
X65033Y-27930D01*
X65007Y-27991D01*
X65007Y-28058D01*
X65007Y-28608D01*
X65032Y-28670D01*
X65065Y-28702D01*
X64892Y-29405D01*
X64892Y-28388D01*
X64892Y-28212D01*
X64825Y-28050D01*
X64700Y-27925D01*
X64538Y-27858D01*
X64362Y-27858D01*
X64200Y-27925D01*
X64075Y-28050D01*
X64008Y-28212D01*
X64008Y-28388D01*
X64075Y-28550D01*
X64200Y-28675D01*
X64362Y-28742D01*
X64538Y-28742D01*
X64700Y-28675D01*
X64825Y-28550D01*
X64892Y-28388D01*
X64892Y-29405D01*
X64808Y-29747D01*
X64778Y-29735D01*
X64765Y-29748D01*
X64765Y-29722D01*
X64734Y-29643D01*
X64556Y-29565D01*
X64362Y-29561D01*
X64181Y-29631D01*
X64166Y-29643D01*
X64135Y-29722D01*
X64450Y-30037D01*
X64765Y-29722D01*
X64765Y-29748D01*
X64498Y-30015D01*
X64463Y-30050D01*
X64450Y-30063D01*
X64437Y-30076D01*
X64437Y-30050D01*
X64122Y-29735D01*
X64043Y-29766D01*
X63965Y-29944D01*
X63961Y-30138D01*
X64031Y-30319D01*
X64043Y-30334D01*
X64122Y-30365D01*
X64437Y-30050D01*
X64437Y-30076D01*
X64415Y-30098D01*
X64135Y-30378D01*
X64166Y-30457D01*
X64344Y-30535D01*
X64538Y-30539D01*
X64563Y-30529D01*
X63948Y-32105D01*
X63948Y-30414D01*
X63948Y-30347D01*
X63948Y-29687D01*
X63923Y-29625D01*
X63885Y-29587D01*
X63885Y-28222D01*
X63822Y-28061D01*
X63813Y-28048D01*
X63739Y-28024D01*
X63726Y-28037D01*
X63726Y-28011D01*
X63702Y-27937D01*
X63544Y-27868D01*
X63372Y-27865D01*
X63211Y-27928D01*
X63198Y-27937D01*
X63174Y-28011D01*
X63450Y-28287D01*
X63726Y-28011D01*
X63726Y-28037D01*
X63463Y-28300D01*
X63739Y-28576D01*
X63813Y-28552D01*
X63882Y-28394D01*
X63885Y-28222D01*
X63885Y-29587D01*
X63875Y-29578D01*
X63814Y-29552D01*
X63747Y-29552D01*
X63726Y-29552D01*
X63726Y-28589D01*
X63450Y-28313D01*
X63437Y-28326D01*
X63437Y-28300D01*
X63161Y-28024D01*
X63087Y-28048D01*
X63018Y-28206D01*
X63015Y-28378D01*
X63078Y-28539D01*
X63087Y-28552D01*
X63161Y-28576D01*
X63437Y-28300D01*
X63437Y-28326D01*
X63174Y-28589D01*
X63198Y-28663D01*
X63356Y-28732D01*
X63528Y-28735D01*
X63689Y-28672D01*
X63702Y-28663D01*
X63726Y-28589D01*
X63726Y-29552D01*
X63087Y-29552D01*
X63025Y-29577D01*
X62978Y-29625D01*
X62952Y-29686D01*
X62952Y-29753D01*
X62952Y-30413D01*
X62977Y-30475D01*
X63025Y-30522D01*
X63086Y-30548D01*
X63153Y-30548D01*
X63813Y-30548D01*
X63875Y-30523D01*
X63922Y-30475D01*
X63948Y-30414D01*
X63948Y-32105D01*
X63774Y-32552D01*
X63751Y-32530D01*
X63690Y-32504D01*
X63623Y-32504D01*
X63482Y-32504D01*
X63440Y-32546D01*
X63440Y-32738D01*
X63440Y-32788D01*
X63440Y-32806D01*
X63440Y-32856D01*
X63440Y-33048D01*
X63482Y-33090D01*
X63570Y-33090D01*
X63566Y-33104D01*
X63422Y-33104D01*
X63422Y-33048D01*
X63422Y-32806D01*
X63422Y-32788D01*
X63422Y-32546D01*
X63380Y-32504D01*
X63239Y-32504D01*
X63172Y-32504D01*
X63111Y-32530D01*
X63063Y-32577D01*
X63038Y-32639D01*
X63038Y-32746D01*
X63080Y-32788D01*
X63422Y-32788D01*
X63422Y-32806D01*
X63080Y-32806D01*
X63038Y-32848D01*
X63038Y-32955D01*
X63063Y-33017D01*
X63111Y-33064D01*
X63172Y-33090D01*
X63239Y-33090D01*
X63380Y-33090D01*
X63422Y-33048D01*
X63422Y-33104D01*
X63173Y-33104D01*
X63111Y-33129D01*
X63098Y-33141D01*
X63057Y-33149D01*
X62892Y-33213D01*
X62892Y-28388D01*
X62892Y-28212D01*
X62825Y-28050D01*
X62700Y-27925D01*
X62538Y-27858D01*
X62362Y-27858D01*
X62200Y-27925D01*
X62075Y-28050D01*
X62008Y-28212D01*
X62008Y-28388D01*
X62075Y-28550D01*
X62200Y-28675D01*
X62362Y-28742D01*
X62538Y-28742D01*
X62700Y-28675D01*
X62825Y-28550D01*
X62892Y-28388D01*
X62892Y-33213D01*
X62714Y-33283D01*
X62627Y-33339D01*
X62592Y-33389D01*
X62576Y-33395D01*
X62556Y-33406D01*
X62531Y-33417D01*
X62413Y-33494D01*
X62086Y-33494D01*
X62072Y-33460D01*
X61975Y-33363D01*
X61906Y-33333D01*
X61906Y-33267D01*
X61906Y-32899D01*
X61905Y-32898D01*
X62043Y-32265D01*
X62092Y-32245D01*
X62189Y-32148D01*
X62242Y-32022D01*
X62242Y-31885D01*
X62225Y-31844D01*
X62324Y-31804D01*
X62421Y-31707D01*
X62474Y-31581D01*
X62474Y-31444D01*
X62422Y-31318D01*
X62325Y-31221D01*
X62199Y-31168D01*
X62062Y-31168D01*
X61936Y-31220D01*
X61851Y-31305D01*
X61443Y-31305D01*
X61443Y-28609D01*
X61443Y-28542D01*
X61443Y-27992D01*
X61418Y-27930D01*
X61370Y-27883D01*
X61309Y-27857D01*
X61242Y-27857D01*
X60692Y-27857D01*
X60630Y-27882D01*
X60583Y-27930D01*
X60557Y-27991D01*
X60557Y-28058D01*
X60557Y-28608D01*
X60582Y-28670D01*
X60630Y-28717D01*
X60691Y-28743D01*
X60758Y-28743D01*
X61308Y-28743D01*
X61370Y-28718D01*
X61417Y-28670D01*
X61443Y-28609D01*
X61443Y-31305D01*
X61223Y-31305D01*
X61223Y-31159D01*
X61198Y-31097D01*
X61150Y-31050D01*
X61089Y-31024D01*
X61022Y-31024D01*
X60772Y-31024D01*
X60710Y-31049D01*
X60663Y-31097D01*
X60637Y-31158D01*
X60637Y-31225D01*
X60637Y-31675D01*
X60662Y-31737D01*
X60710Y-31784D01*
X60771Y-31810D01*
X60838Y-31810D01*
X61088Y-31810D01*
X61150Y-31785D01*
X61197Y-31737D01*
X61204Y-31719D01*
X61646Y-31719D01*
X61607Y-31758D01*
X61554Y-31884D01*
X61554Y-32021D01*
X61606Y-32147D01*
X61637Y-32178D01*
X61521Y-32720D01*
X61442Y-32720D01*
X61388Y-32742D01*
X61334Y-32720D01*
X61245Y-32720D01*
X61191Y-32742D01*
X61137Y-32720D01*
X61048Y-32720D01*
X60994Y-32742D01*
X60940Y-32720D01*
X60851Y-32720D01*
X60797Y-32742D01*
X60743Y-32720D01*
X60654Y-32720D01*
X60600Y-32742D01*
X60547Y-32720D01*
X60458Y-32720D01*
X60414Y-32738D01*
X60409Y-32734D01*
X60349Y-32728D01*
X60314Y-32766D01*
X60314Y-32815D01*
X60313Y-32816D01*
X60304Y-32835D01*
X60297Y-32817D01*
X60296Y-32815D01*
X60296Y-32766D01*
X60272Y-32740D01*
X60270Y-32730D01*
X60270Y-32542D01*
X60504Y-31803D01*
X60550Y-31785D01*
X60597Y-31737D01*
X60623Y-31676D01*
X60623Y-31609D01*
X60623Y-31159D01*
X60598Y-31097D01*
X60550Y-31050D01*
X60489Y-31024D01*
X60435Y-31024D01*
X60435Y-28222D01*
X60372Y-28061D01*
X60363Y-28048D01*
X60289Y-28024D01*
X60276Y-28037D01*
X60276Y-28011D01*
X60252Y-27937D01*
X60094Y-27868D01*
X59922Y-27865D01*
X59761Y-27928D01*
X59748Y-27937D01*
X59724Y-28011D01*
X60000Y-28287D01*
X60276Y-28011D01*
X60276Y-28037D01*
X60013Y-28300D01*
X60289Y-28576D01*
X60363Y-28552D01*
X60432Y-28394D01*
X60435Y-28222D01*
X60435Y-31024D01*
X60422Y-31024D01*
X60276Y-31024D01*
X60276Y-28589D01*
X60000Y-28313D01*
X59987Y-28326D01*
X59987Y-28300D01*
X59711Y-28024D01*
X59637Y-28048D01*
X59568Y-28206D01*
X59565Y-28378D01*
X59628Y-28539D01*
X59637Y-28552D01*
X59711Y-28576D01*
X59987Y-28300D01*
X59987Y-28326D01*
X59724Y-28589D01*
X59748Y-28663D01*
X59906Y-28732D01*
X60078Y-28735D01*
X60239Y-28672D01*
X60252Y-28663D01*
X60276Y-28589D01*
X60276Y-31024D01*
X60172Y-31024D01*
X60110Y-31049D01*
X60063Y-31097D01*
X60037Y-31158D01*
X60037Y-31225D01*
X60037Y-31675D01*
X60062Y-31737D01*
X60084Y-31759D01*
X59866Y-32448D01*
X59862Y-32478D01*
X59856Y-32511D01*
X59856Y-32724D01*
X59823Y-32738D01*
X59818Y-32734D01*
X59758Y-32728D01*
X59723Y-32766D01*
X59723Y-32815D01*
X59722Y-32816D01*
X59713Y-32835D01*
X59706Y-32817D01*
X59705Y-32815D01*
X59705Y-32766D01*
X59670Y-32728D01*
X59610Y-32734D01*
X59608Y-32734D01*
X59366Y-32440D01*
X59434Y-32440D01*
X59496Y-32415D01*
X59543Y-32367D01*
X59569Y-32306D01*
X59569Y-32239D01*
X59569Y-32098D01*
X59569Y-31996D01*
X59569Y-31855D01*
X59569Y-31788D01*
X59545Y-31732D01*
X59569Y-31676D01*
X59569Y-31609D01*
X59569Y-31468D01*
X59569Y-31366D01*
X59569Y-31225D01*
X59569Y-31158D01*
X59543Y-31097D01*
X59496Y-31049D01*
X59434Y-31024D01*
X59327Y-31024D01*
X59285Y-31066D01*
X59285Y-31408D01*
X59527Y-31408D01*
X59569Y-31366D01*
X59569Y-31468D01*
X59527Y-31426D01*
X59285Y-31426D01*
X59285Y-31696D01*
X59285Y-31768D01*
X59285Y-32038D01*
X59527Y-32038D01*
X59569Y-31996D01*
X59569Y-32098D01*
X59527Y-32056D01*
X59335Y-32056D01*
X59285Y-32056D01*
X59267Y-32056D01*
X59267Y-32038D01*
X59267Y-31988D01*
X59267Y-31768D01*
X59267Y-31696D01*
X59267Y-31426D01*
X59267Y-31408D01*
X59267Y-31066D01*
X59225Y-31024D01*
X59118Y-31024D01*
X59056Y-31049D01*
X59009Y-31097D01*
X58983Y-31158D01*
X58983Y-31225D01*
X58983Y-31366D01*
X59025Y-31408D01*
X59267Y-31408D01*
X59267Y-31426D01*
X59025Y-31426D01*
X58983Y-31468D01*
X58983Y-31609D01*
X58983Y-31676D01*
X59006Y-31732D01*
X58983Y-31788D01*
X58983Y-31855D01*
X58983Y-31986D01*
X58969Y-31971D01*
X58969Y-31789D01*
X58945Y-31730D01*
X58969Y-31676D01*
X58969Y-31609D01*
X58969Y-31159D01*
X58944Y-31097D01*
X58896Y-31050D01*
X58835Y-31024D01*
X58768Y-31024D01*
X58518Y-31024D01*
X58456Y-31049D01*
X58409Y-31097D01*
X58383Y-31158D01*
X58383Y-31225D01*
X58383Y-31525D01*
X58364Y-31518D01*
X58227Y-31518D01*
X58101Y-31570D01*
X58072Y-31598D01*
X57316Y-29647D01*
X57314Y-29644D01*
X57314Y-29643D01*
X57304Y-29629D01*
X57273Y-29579D01*
X57269Y-29576D01*
X57107Y-29414D01*
X57059Y-29381D01*
X57050Y-29375D01*
X57046Y-29373D01*
X57040Y-29369D01*
X57035Y-29368D01*
X55606Y-28679D01*
X55580Y-28672D01*
X55564Y-28665D01*
X54280Y-28357D01*
X54257Y-28356D01*
X54232Y-28351D01*
X54187Y-28351D01*
X54164Y-28341D01*
X54097Y-28341D01*
X53797Y-28341D01*
X53735Y-28366D01*
X53688Y-28414D01*
X53662Y-28475D01*
X53662Y-28542D01*
X53662Y-28640D01*
X53668Y-28656D01*
X53662Y-28672D01*
X53662Y-28739D01*
X53662Y-28837D01*
X53668Y-28853D01*
X53662Y-28870D01*
X53662Y-28901D01*
X53704Y-28943D01*
X53731Y-28943D01*
X53735Y-28946D01*
X53748Y-28951D01*
X53735Y-28957D01*
X53731Y-28961D01*
X53704Y-28961D01*
X53662Y-29003D01*
X53662Y-29034D01*
X53668Y-29050D01*
X53662Y-29066D01*
X53662Y-29133D01*
X53662Y-29231D01*
X53668Y-29247D01*
X53662Y-29263D01*
X53662Y-29330D01*
X53662Y-29428D01*
X53687Y-29490D01*
X53735Y-29537D01*
X53796Y-29563D01*
X53863Y-29563D01*
X54150Y-29563D01*
X54419Y-29646D01*
X54380Y-29662D01*
X54333Y-29710D01*
X54307Y-29771D01*
X54307Y-29838D01*
X54307Y-29934D01*
X54349Y-29976D01*
X54596Y-29976D01*
X54646Y-29976D01*
X54664Y-29976D01*
X54714Y-29976D01*
X54961Y-29976D01*
X54983Y-29954D01*
X55007Y-29954D01*
X55007Y-30198D01*
X55032Y-30260D01*
X55080Y-30307D01*
X55141Y-30333D01*
X55208Y-30333D01*
X55568Y-30333D01*
X55630Y-30308D01*
X55677Y-30260D01*
X55689Y-30230D01*
X55829Y-30230D01*
X55829Y-30319D01*
X55854Y-30381D01*
X55902Y-30428D01*
X55963Y-30454D01*
X56030Y-30454D01*
X56280Y-30454D01*
X56342Y-30429D01*
X56389Y-30381D01*
X56415Y-30320D01*
X56415Y-30253D01*
X56415Y-29850D01*
X56429Y-29852D01*
X56429Y-29869D01*
X56429Y-30319D01*
X56454Y-30381D01*
X56502Y-30428D01*
X56554Y-30450D01*
X56665Y-30680D01*
X56628Y-30770D01*
X56628Y-30907D01*
X56680Y-31033D01*
X56777Y-31130D01*
X56903Y-31183D01*
X57040Y-31183D01*
X57166Y-31131D01*
X57236Y-31060D01*
X57480Y-31689D01*
X57474Y-31696D01*
X57474Y-31988D01*
X57474Y-32038D01*
X57474Y-32056D01*
X57474Y-32106D01*
X57474Y-32398D01*
X57516Y-32440D01*
X57623Y-32440D01*
X57685Y-32415D01*
X57732Y-32367D01*
X57758Y-32306D01*
X57758Y-32259D01*
X57852Y-32354D01*
X57788Y-32419D01*
X57735Y-32545D01*
X57735Y-32608D01*
X57456Y-32934D01*
X57456Y-32398D01*
X57456Y-32056D01*
X57456Y-32038D01*
X57456Y-31696D01*
X57414Y-31654D01*
X57307Y-31654D01*
X57245Y-31679D01*
X57198Y-31727D01*
X57172Y-31788D01*
X57172Y-31855D01*
X57172Y-31996D01*
X57214Y-32038D01*
X57456Y-32038D01*
X57456Y-32056D01*
X57214Y-32056D01*
X57172Y-32098D01*
X57172Y-32239D01*
X57172Y-32306D01*
X57198Y-32367D01*
X57245Y-32415D01*
X57307Y-32440D01*
X57414Y-32440D01*
X57456Y-32398D01*
X57456Y-32934D01*
X57334Y-33077D01*
X57314Y-33111D01*
X57290Y-33148D01*
X57287Y-33159D01*
X57283Y-33168D01*
X57279Y-33196D01*
X57269Y-33207D01*
X57243Y-33268D01*
X57243Y-33335D01*
X57243Y-33785D01*
X57268Y-33847D01*
X57270Y-33849D01*
X57277Y-34955D01*
X57277Y-34956D01*
X57251Y-35017D01*
X57251Y-35084D01*
X57251Y-35468D01*
X57237Y-35482D01*
X57237Y-35468D01*
X57237Y-35327D01*
X57237Y-35225D01*
X57237Y-35084D01*
X57237Y-35017D01*
X57229Y-34998D01*
X57229Y-33786D01*
X57229Y-33719D01*
X57229Y-33578D01*
X57229Y-33476D01*
X57229Y-33335D01*
X57229Y-33268D01*
X57203Y-33207D01*
X57156Y-33159D01*
X57094Y-33134D01*
X56987Y-33134D01*
X56945Y-33176D01*
X56945Y-33518D01*
X57187Y-33518D01*
X57229Y-33476D01*
X57229Y-33578D01*
X57187Y-33536D01*
X56945Y-33536D01*
X56945Y-33878D01*
X56987Y-33920D01*
X57094Y-33920D01*
X57156Y-33895D01*
X57203Y-33847D01*
X57229Y-33786D01*
X57229Y-34998D01*
X57211Y-34956D01*
X57164Y-34908D01*
X57102Y-34883D01*
X56995Y-34883D01*
X56953Y-34925D01*
X56953Y-35267D01*
X57195Y-35267D01*
X57237Y-35225D01*
X57237Y-35327D01*
X57195Y-35285D01*
X57003Y-35285D01*
X56953Y-35285D01*
X56935Y-35285D01*
X56935Y-35267D01*
X56935Y-35217D01*
X56935Y-34925D01*
X56904Y-34894D01*
X56899Y-33929D01*
X56899Y-33928D01*
X56899Y-33906D01*
X56927Y-33878D01*
X56927Y-33586D01*
X56927Y-33536D01*
X56927Y-33518D01*
X56927Y-33468D01*
X56927Y-33176D01*
X56911Y-33160D01*
X56940Y-32955D01*
X57111Y-32426D01*
X57118Y-32406D01*
X57121Y-32377D01*
X57132Y-32367D01*
X57158Y-32306D01*
X57158Y-32239D01*
X57158Y-31789D01*
X57133Y-31727D01*
X57085Y-31680D01*
X57024Y-31654D01*
X56957Y-31654D01*
X56707Y-31654D01*
X56645Y-31679D01*
X56598Y-31727D01*
X56572Y-31788D01*
X56572Y-31829D01*
X56056Y-31829D01*
X56056Y-31533D01*
X56031Y-31471D01*
X55983Y-31424D01*
X55922Y-31398D01*
X55855Y-31398D01*
X55265Y-31398D01*
X55203Y-31423D01*
X55156Y-31471D01*
X55130Y-31532D01*
X55130Y-31599D01*
X55130Y-32859D01*
X55155Y-32921D01*
X55203Y-32968D01*
X55264Y-32994D01*
X55331Y-32994D01*
X55921Y-32994D01*
X55983Y-32969D01*
X56030Y-32921D01*
X56056Y-32860D01*
X56056Y-32793D01*
X56056Y-32361D01*
X56573Y-32361D01*
X56428Y-32815D01*
X56425Y-32836D01*
X56418Y-32858D01*
X56370Y-33190D01*
X56370Y-33208D01*
X56367Y-33228D01*
X56367Y-33678D01*
X56367Y-33825D01*
X56367Y-33929D01*
X56367Y-33930D01*
X56369Y-34456D01*
X56329Y-34439D01*
X56192Y-34439D01*
X56066Y-34491D01*
X55978Y-34578D01*
X55978Y-33805D01*
X55978Y-33668D01*
X55926Y-33542D01*
X55829Y-33445D01*
X55703Y-33392D01*
X55566Y-33392D01*
X55440Y-33444D01*
X55430Y-33453D01*
X53947Y-32994D01*
X53953Y-32994D01*
X54543Y-32994D01*
X54605Y-32969D01*
X54652Y-32921D01*
X54678Y-32860D01*
X54678Y-32793D01*
X54678Y-31533D01*
X54653Y-31471D01*
X54605Y-31424D01*
X54553Y-31401D01*
X54553Y-31240D01*
X54744Y-31113D01*
X54791Y-31133D01*
X54858Y-31133D01*
X55218Y-31133D01*
X55280Y-31108D01*
X55327Y-31060D01*
X55353Y-30999D01*
X55353Y-30932D01*
X55353Y-30572D01*
X55328Y-30510D01*
X55280Y-30463D01*
X55219Y-30437D01*
X55152Y-30437D01*
X55003Y-30437D01*
X55003Y-30199D01*
X55003Y-30132D01*
X55003Y-30036D01*
X54961Y-29994D01*
X54664Y-29994D01*
X54664Y-30291D01*
X54706Y-30333D01*
X54868Y-30333D01*
X54930Y-30308D01*
X54977Y-30260D01*
X55003Y-30199D01*
X55003Y-30437D01*
X54792Y-30437D01*
X54730Y-30462D01*
X54683Y-30510D01*
X54671Y-30537D01*
X54649Y-30542D01*
X54646Y-30543D01*
X54646Y-30291D01*
X54646Y-29994D01*
X54349Y-29994D01*
X54307Y-30036D01*
X54307Y-30132D01*
X54307Y-30199D01*
X54333Y-30260D01*
X54380Y-30308D01*
X54442Y-30333D01*
X54604Y-30333D01*
X54646Y-30291D01*
X54646Y-30543D01*
X54624Y-30558D01*
X54604Y-30567D01*
X54304Y-30766D01*
X54302Y-30765D01*
X54264Y-30744D01*
X54234Y-30724D01*
X54227Y-30722D01*
X54227Y-30720D01*
X54202Y-30658D01*
X54154Y-30611D01*
X54093Y-30585D01*
X54026Y-30585D01*
X53632Y-30585D01*
X53570Y-30610D01*
X53523Y-30658D01*
X53497Y-30719D01*
X53497Y-30786D01*
X53497Y-31180D01*
X53522Y-31242D01*
X53570Y-31289D01*
X53631Y-31315D01*
X53698Y-31315D01*
X54021Y-31315D01*
X54021Y-31398D01*
X53887Y-31398D01*
X53825Y-31423D01*
X53778Y-31471D01*
X53752Y-31532D01*
X53752Y-31599D01*
X53752Y-32859D01*
X53777Y-32921D01*
X53807Y-32950D01*
X53203Y-32763D01*
X53203Y-31181D01*
X53203Y-31114D01*
X53203Y-30720D01*
X53178Y-30658D01*
X53130Y-30611D01*
X53069Y-30585D01*
X53002Y-30585D01*
X52608Y-30585D01*
X52546Y-30610D01*
X52499Y-30658D01*
X52489Y-30681D01*
X52244Y-30681D01*
X52222Y-30625D01*
X52175Y-30579D01*
X52195Y-30384D01*
X52193Y-30373D01*
X52196Y-30363D01*
X52196Y-30118D01*
X52194Y-30108D01*
X52195Y-30103D01*
X52092Y-28643D01*
X52082Y-28607D01*
X52077Y-28579D01*
X52073Y-28573D01*
X52071Y-28565D01*
X52053Y-28542D01*
X52033Y-28511D01*
X51964Y-28442D01*
X51963Y-28441D01*
X51934Y-28412D01*
X51867Y-28367D01*
X51859Y-28365D01*
X51802Y-28341D01*
X51735Y-28341D01*
X51435Y-28341D01*
X51373Y-28366D01*
X51326Y-28414D01*
X51300Y-28475D01*
X51300Y-28542D01*
X51300Y-28548D01*
X50993Y-28548D01*
X50993Y-28492D01*
X50968Y-28430D01*
X50920Y-28383D01*
X50859Y-28357D01*
X50792Y-28357D01*
X50406Y-28357D01*
X50400Y-28359D01*
X50394Y-28357D01*
X50219Y-28357D01*
X50177Y-28399D01*
X50177Y-28691D01*
X50177Y-28741D01*
X50177Y-28759D01*
X50177Y-28809D01*
X50177Y-29101D01*
X50219Y-29143D01*
X50279Y-29143D01*
X50187Y-29352D01*
X50159Y-29352D01*
X50159Y-29101D01*
X50159Y-28759D01*
X50159Y-28741D01*
X50159Y-28399D01*
X50117Y-28357D01*
X49942Y-28357D01*
X49880Y-28382D01*
X49833Y-28430D01*
X49807Y-28491D01*
X49807Y-28558D01*
X49807Y-28699D01*
X49849Y-28741D01*
X50159Y-28741D01*
X50159Y-28759D01*
X49849Y-28759D01*
X49807Y-28801D01*
X49807Y-28942D01*
X49807Y-29009D01*
X49833Y-29070D01*
X49880Y-29118D01*
X49942Y-29143D01*
X50117Y-29143D01*
X50159Y-29101D01*
X50159Y-29352D01*
X50087Y-29352D01*
X50025Y-29377D01*
X49978Y-29425D01*
X49952Y-29486D01*
X49952Y-29553D01*
X49952Y-29913D01*
X49977Y-29975D01*
X50025Y-30022D01*
X50086Y-30048D01*
X50153Y-30048D01*
X50513Y-30048D01*
X50575Y-30023D01*
X50622Y-29975D01*
X50648Y-29914D01*
X50648Y-29847D01*
X50648Y-29487D01*
X50623Y-29425D01*
X50612Y-29414D01*
X50731Y-29143D01*
X50858Y-29143D01*
X50920Y-29118D01*
X50967Y-29070D01*
X50993Y-29009D01*
X50993Y-28962D01*
X51300Y-28962D01*
X51300Y-29005D01*
X51274Y-29030D01*
X51271Y-29033D01*
X51203Y-29103D01*
X51188Y-29125D01*
X51159Y-29169D01*
X51143Y-29248D01*
X51143Y-29346D01*
X51143Y-29370D01*
X51143Y-29444D01*
X51143Y-29445D01*
X51143Y-29447D01*
X51153Y-29495D01*
X51159Y-29523D01*
X51160Y-29526D01*
X51392Y-30067D01*
X51349Y-30171D01*
X51349Y-30308D01*
X51401Y-30434D01*
X51498Y-30531D01*
X51624Y-30584D01*
X51727Y-30584D01*
X51687Y-30625D01*
X51661Y-30686D01*
X51661Y-30753D01*
X51661Y-31203D01*
X51686Y-31265D01*
X51734Y-31312D01*
X51795Y-31338D01*
X51862Y-31338D01*
X52112Y-31338D01*
X52174Y-31313D01*
X52221Y-31265D01*
X52243Y-31213D01*
X52486Y-31213D01*
X52498Y-31242D01*
X52546Y-31289D01*
X52607Y-31315D01*
X52674Y-31315D01*
X53068Y-31315D01*
X53130Y-31290D01*
X53177Y-31242D01*
X53203Y-31181D01*
X53203Y-32763D01*
X51647Y-32281D01*
X51647Y-31204D01*
X51647Y-31137D01*
X51647Y-30996D01*
X51647Y-30894D01*
X51647Y-30753D01*
X51647Y-30686D01*
X51621Y-30625D01*
X51574Y-30577D01*
X51512Y-30552D01*
X51405Y-30552D01*
X51363Y-30594D01*
X51363Y-30936D01*
X51605Y-30936D01*
X51647Y-30894D01*
X51647Y-30996D01*
X51605Y-30954D01*
X51363Y-30954D01*
X51363Y-31296D01*
X51405Y-31338D01*
X51512Y-31338D01*
X51574Y-31313D01*
X51621Y-31265D01*
X51647Y-31204D01*
X51647Y-32281D01*
X51345Y-32187D01*
X51345Y-31296D01*
X51345Y-30954D01*
X51345Y-30936D01*
X51345Y-30594D01*
X51303Y-30552D01*
X51196Y-30552D01*
X51134Y-30577D01*
X51087Y-30625D01*
X51061Y-30686D01*
X51061Y-30753D01*
X51061Y-30894D01*
X51103Y-30936D01*
X51345Y-30936D01*
X51345Y-30954D01*
X51103Y-30954D01*
X51061Y-30996D01*
X51061Y-31137D01*
X51061Y-31204D01*
X51087Y-31265D01*
X51134Y-31313D01*
X51196Y-31338D01*
X51303Y-31338D01*
X51345Y-31296D01*
X51345Y-32187D01*
X50998Y-32080D01*
X50998Y-30714D01*
X50998Y-30647D01*
X50998Y-30551D01*
X50998Y-30449D01*
X50998Y-30353D01*
X50998Y-30286D01*
X50972Y-30225D01*
X50925Y-30177D01*
X50863Y-30152D01*
X50701Y-30152D01*
X50659Y-30194D01*
X50659Y-30491D01*
X50956Y-30491D01*
X50998Y-30449D01*
X50998Y-30551D01*
X50956Y-30509D01*
X50659Y-30509D01*
X50659Y-30806D01*
X50701Y-30848D01*
X50863Y-30848D01*
X50925Y-30823D01*
X50972Y-30775D01*
X50998Y-30714D01*
X50998Y-32080D01*
X50641Y-31970D01*
X50641Y-30806D01*
X50641Y-30509D01*
X50641Y-30491D01*
X50641Y-30194D01*
X50599Y-30152D01*
X50437Y-30152D01*
X50375Y-30177D01*
X50328Y-30225D01*
X50302Y-30286D01*
X50302Y-30353D01*
X50302Y-30449D01*
X50344Y-30491D01*
X50641Y-30491D01*
X50641Y-30509D01*
X50344Y-30509D01*
X50302Y-30551D01*
X50302Y-30647D01*
X50302Y-30714D01*
X50328Y-30775D01*
X50375Y-30823D01*
X50437Y-30848D01*
X50599Y-30848D01*
X50641Y-30806D01*
X50641Y-31970D01*
X50389Y-31892D01*
X50389Y-31890D01*
X50389Y-31640D01*
X50389Y-31357D01*
X50389Y-31290D01*
X50389Y-31040D01*
X50364Y-30978D01*
X50316Y-30931D01*
X50255Y-30905D01*
X50188Y-30905D01*
X50180Y-30905D01*
X50180Y-30841D01*
X50225Y-30823D01*
X50272Y-30775D01*
X50298Y-30714D01*
X50298Y-30647D01*
X50298Y-30287D01*
X50273Y-30225D01*
X50225Y-30178D01*
X50164Y-30152D01*
X50097Y-30152D01*
X49737Y-30152D01*
X49675Y-30177D01*
X49628Y-30225D01*
X49602Y-30286D01*
X49602Y-30353D01*
X49602Y-30713D01*
X49627Y-30775D01*
X49675Y-30822D01*
X49736Y-30848D01*
X49766Y-30848D01*
X49766Y-30905D01*
X49738Y-30905D01*
X49676Y-30930D01*
X49629Y-30978D01*
X49603Y-31039D01*
X49603Y-31106D01*
X49603Y-31356D01*
X49628Y-31418D01*
X49676Y-31465D01*
X49737Y-31491D01*
X49804Y-31491D01*
X50254Y-31491D01*
X50316Y-31466D01*
X50363Y-31418D01*
X50389Y-31357D01*
X50389Y-31640D01*
X50364Y-31578D01*
X50316Y-31531D01*
X50255Y-31505D01*
X50188Y-31505D01*
X49738Y-31505D01*
X49676Y-31530D01*
X49629Y-31578D01*
X49603Y-31639D01*
X49603Y-31706D01*
X49603Y-31956D01*
X49628Y-32018D01*
X49676Y-32065D01*
X49737Y-32091D01*
X49804Y-32091D01*
X49937Y-32091D01*
X49956Y-32118D01*
X50025Y-32188D01*
X50034Y-32194D01*
X50040Y-32201D01*
X50069Y-32217D01*
X50092Y-32232D01*
X50099Y-32233D01*
X50111Y-32240D01*
X55308Y-33849D01*
X55342Y-33930D01*
X55439Y-34027D01*
X55565Y-34080D01*
X55702Y-34080D01*
X55828Y-34028D01*
X55925Y-33931D01*
X55978Y-33805D01*
X55978Y-34578D01*
X55974Y-34582D01*
X49895Y-34625D01*
X49881Y-34627D01*
X49866Y-34627D01*
X49804Y-34636D01*
X49777Y-34645D01*
X49753Y-34650D01*
X49739Y-34658D01*
X49728Y-34663D01*
X49711Y-34677D01*
X49686Y-34695D01*
X49623Y-34759D01*
X49599Y-34793D01*
X49566Y-34807D01*
X49548Y-34824D01*
X49480Y-34753D01*
X49480Y-28730D01*
X49295Y-28238D01*
X49246Y-28165D01*
X49080Y-28033D01*
X48163Y-28950D01*
X49080Y-29867D01*
X49246Y-29735D01*
X49463Y-29256D01*
X49480Y-28730D01*
X49480Y-34753D01*
X49067Y-34323D01*
X49067Y-29880D01*
X48150Y-28963D01*
X47233Y-29880D01*
X47365Y-30046D01*
X47844Y-30263D01*
X48370Y-30280D01*
X48862Y-30095D01*
X48935Y-30046D01*
X49067Y-29880D01*
X49067Y-34323D01*
X48642Y-33882D01*
X48640Y-33880D01*
X48639Y-33879D01*
X48570Y-33811D01*
X48543Y-33792D01*
X48543Y-33592D01*
X48518Y-33530D01*
X48470Y-33483D01*
X48409Y-33457D01*
X48342Y-33457D01*
X48092Y-33457D01*
X48030Y-33482D01*
X47983Y-33530D01*
X47957Y-33591D01*
X47957Y-33658D01*
X47957Y-34108D01*
X47982Y-34170D01*
X48030Y-34217D01*
X48091Y-34243D01*
X48158Y-34243D01*
X48408Y-34243D01*
X48412Y-34241D01*
X49158Y-35016D01*
X48543Y-34826D01*
X48543Y-34642D01*
X48518Y-34580D01*
X48470Y-34533D01*
X48409Y-34507D01*
X48342Y-34507D01*
X48092Y-34507D01*
X48030Y-34532D01*
X47983Y-34580D01*
X47957Y-34641D01*
X47957Y-34708D01*
X47957Y-35158D01*
X47982Y-35220D01*
X48030Y-35267D01*
X48091Y-35293D01*
X48158Y-35293D01*
X48408Y-35293D01*
X48470Y-35268D01*
X48492Y-35244D01*
X49492Y-35552D01*
X49492Y-35555D01*
X49492Y-35644D01*
X49492Y-35646D01*
X49476Y-35643D01*
X49470Y-35643D01*
X49413Y-35643D01*
X49381Y-35649D01*
X49353Y-35650D01*
X48629Y-35816D01*
X48595Y-35783D01*
X48534Y-35757D01*
X48467Y-35757D01*
X48117Y-35757D01*
X48055Y-35782D01*
X48008Y-35830D01*
X47982Y-35891D01*
X47982Y-35958D01*
X47982Y-36508D01*
X48007Y-36570D01*
X48055Y-36617D01*
X48059Y-36618D01*
X48059Y-36780D01*
X48055Y-36782D01*
X48008Y-36830D01*
X47982Y-36891D01*
X47982Y-36958D01*
X47982Y-37508D01*
X48007Y-37570D01*
X48055Y-37617D01*
X48059Y-37618D01*
X48059Y-37780D01*
X48055Y-37782D01*
X48008Y-37830D01*
X47982Y-37891D01*
X47982Y-37958D01*
X47982Y-38508D01*
X48007Y-38570D01*
X48055Y-38617D01*
X48059Y-38618D01*
X48059Y-38880D01*
X48055Y-38882D01*
X48008Y-38930D01*
X47982Y-38991D01*
X47982Y-39058D01*
X47982Y-39608D01*
X48007Y-39670D01*
X48055Y-39717D01*
X48116Y-39743D01*
X48183Y-39743D01*
X48533Y-39743D01*
X48595Y-39718D01*
X48642Y-39670D01*
X48668Y-39609D01*
X48668Y-39542D01*
X48668Y-38992D01*
X48643Y-38930D01*
X48595Y-38883D01*
X48591Y-38881D01*
X48591Y-38619D01*
X48595Y-38618D01*
X48642Y-38570D01*
X48668Y-38509D01*
X48668Y-38442D01*
X48668Y-37892D01*
X48643Y-37830D01*
X48595Y-37783D01*
X48591Y-37781D01*
X48591Y-37619D01*
X48595Y-37618D01*
X48642Y-37570D01*
X48668Y-37509D01*
X48668Y-37442D01*
X48668Y-36892D01*
X48643Y-36830D01*
X48595Y-36783D01*
X48591Y-36781D01*
X48591Y-36619D01*
X48595Y-36618D01*
X48642Y-36570D01*
X48668Y-36509D01*
X48668Y-36442D01*
X48668Y-36352D01*
X49263Y-36216D01*
X49297Y-36263D01*
X49384Y-36319D01*
X49486Y-36337D01*
X49510Y-36331D01*
X49538Y-36348D01*
X49539Y-36348D01*
X49540Y-36348D01*
X49571Y-36368D01*
X49578Y-36370D01*
X49588Y-36380D01*
X49670Y-36414D01*
X49759Y-36414D01*
X49867Y-36414D01*
X49886Y-36406D01*
X49913Y-36417D01*
X50249Y-36417D01*
X50291Y-36375D01*
X50291Y-35659D01*
X50291Y-35609D01*
X50291Y-35591D01*
X50309Y-35591D01*
X50309Y-35609D01*
X50309Y-35659D01*
X50309Y-36375D01*
X50351Y-36417D01*
X50670Y-36417D01*
X50505Y-36670D01*
X50495Y-36692D01*
X50482Y-36713D01*
X50480Y-36720D01*
X50164Y-36720D01*
X50102Y-36745D01*
X50055Y-36793D01*
X50029Y-36854D01*
X50029Y-36921D01*
X50029Y-37707D01*
X50054Y-37769D01*
X50102Y-37816D01*
X50163Y-37842D01*
X50230Y-37842D01*
X50938Y-37842D01*
X51000Y-37817D01*
X51047Y-37769D01*
X51073Y-37708D01*
X51073Y-37641D01*
X51073Y-36855D01*
X51065Y-36835D01*
X51456Y-37221D01*
X51458Y-37224D01*
X51459Y-37224D01*
X51544Y-37282D01*
X51546Y-37282D01*
X51551Y-37283D01*
X51551Y-39080D01*
X51073Y-39084D01*
X51073Y-38355D01*
X51048Y-38293D01*
X51000Y-38246D01*
X50939Y-38220D01*
X50872Y-38220D01*
X50164Y-38220D01*
X50102Y-38245D01*
X50055Y-38293D01*
X50029Y-38354D01*
X50029Y-38421D01*
X50029Y-39207D01*
X50054Y-39269D01*
X50102Y-39316D01*
X50163Y-39342D01*
X50230Y-39342D01*
X50480Y-39342D01*
X50482Y-39352D01*
X50521Y-39410D01*
X50540Y-39437D01*
X50541Y-39438D01*
X50644Y-39540D01*
X50645Y-39541D01*
X50673Y-39559D01*
X50730Y-39598D01*
X50731Y-39598D01*
X50832Y-39618D01*
X50833Y-39618D01*
X50979Y-39618D01*
X50980Y-39617D01*
X50982Y-39618D01*
X54140Y-39585D01*
X54157Y-39585D01*
X54196Y-39576D01*
X54243Y-39570D01*
X54258Y-39564D01*
X54768Y-39383D01*
X54791Y-39393D01*
X54858Y-39393D01*
X55308Y-39393D01*
X55370Y-39368D01*
X55379Y-39358D01*
X55393Y-39358D01*
X55410Y-39349D01*
X55429Y-39346D01*
X55455Y-39327D01*
X55487Y-39313D01*
X55524Y-39285D01*
X55607Y-39285D01*
X55733Y-39233D01*
X55830Y-39136D01*
X55865Y-39052D01*
X55865Y-39076D01*
X55865Y-39084D01*
X55865Y-39233D01*
X55890Y-39295D01*
X55938Y-39342D01*
X55999Y-39368D01*
X56066Y-39368D01*
X56257Y-39368D01*
X56299Y-39326D01*
X56299Y-39084D01*
X56299Y-39034D01*
X56299Y-39016D01*
X56299Y-38966D01*
X56299Y-38724D01*
X56257Y-38682D01*
X56066Y-38682D01*
X55999Y-38682D01*
X55938Y-38708D01*
X55890Y-38755D01*
X55865Y-38817D01*
X55865Y-38829D01*
X55831Y-38747D01*
X55734Y-38650D01*
X55718Y-38643D01*
X55918Y-38572D01*
X55938Y-38592D01*
X55999Y-38618D01*
X56066Y-38618D01*
X56616Y-38618D01*
X56678Y-38593D01*
X56725Y-38545D01*
X56726Y-38541D01*
X56830Y-38541D01*
X56832Y-38545D01*
X56880Y-38592D01*
X56941Y-38618D01*
X57008Y-38618D01*
X57558Y-38618D01*
X57620Y-38593D01*
X57667Y-38545D01*
X57668Y-38541D01*
X57880Y-38541D01*
X57882Y-38545D01*
X57930Y-38592D01*
X57991Y-38618D01*
X58058Y-38618D01*
X58608Y-38618D01*
X58670Y-38593D01*
X58717Y-38545D01*
X58718Y-38541D01*
X58930Y-38541D01*
X58932Y-38545D01*
X58980Y-38592D01*
X59041Y-38618D01*
X59108Y-38618D01*
X59658Y-38618D01*
X59720Y-38593D01*
X59767Y-38545D01*
X59775Y-38525D01*
X59799Y-38521D01*
X59885Y-38463D01*
X59955Y-38393D01*
X62995Y-39072D01*
X63014Y-39072D01*
X63051Y-39080D01*
X63106Y-39080D01*
X63868Y-39628D01*
X63766Y-39628D01*
X63574Y-39707D01*
X63427Y-39854D01*
X63347Y-40045D01*
X63347Y-40253D01*
X63426Y-40445D01*
X63573Y-40592D01*
X63764Y-40672D01*
X63972Y-40672D01*
X64164Y-40593D01*
X64311Y-40446D01*
X64391Y-40255D01*
X64391Y-40047D01*
X64365Y-39985D01*
X64528Y-40102D01*
X64528Y-40253D01*
X64607Y-40445D01*
X64754Y-40592D01*
X64945Y-40672D01*
X65153Y-40672D01*
X65345Y-40593D01*
X65492Y-40446D01*
X65572Y-40255D01*
X65572Y-40057D01*
X65775Y-39886D01*
X65709Y-40045D01*
X65709Y-40253D01*
X65788Y-40445D01*
X65935Y-40592D01*
X66126Y-40672D01*
X66334Y-40672D01*
X66526Y-40593D01*
X66673Y-40446D01*
X66685Y-40416D01*
X67504Y-40416D01*
X67504Y-41058D01*
X67529Y-41120D01*
X67577Y-41167D01*
X67638Y-41193D01*
X67705Y-41193D01*
X68885Y-41193D01*
X68947Y-41168D01*
X68994Y-41120D01*
X69020Y-41059D01*
X69020Y-40992D01*
X69020Y-39812D01*
X68995Y-39750D01*
X68947Y-39703D01*
X68886Y-39677D01*
X68819Y-39677D01*
X67639Y-39677D01*
X67577Y-39702D01*
X67530Y-39750D01*
X67504Y-39811D01*
X67504Y-39878D01*
X67504Y-39884D01*
X66685Y-39884D01*
X66674Y-39855D01*
X66527Y-39708D01*
X66336Y-39628D01*
X66128Y-39628D01*
X66038Y-39665D01*
X67780Y-38198D01*
X69096Y-38695D01*
X69100Y-38698D01*
X69105Y-38699D01*
X69107Y-38699D01*
X69107Y-38758D01*
X69132Y-38820D01*
X69180Y-38867D01*
X69241Y-38893D01*
X69308Y-38893D01*
X69558Y-38893D01*
X69620Y-38868D01*
X69667Y-38820D01*
X69693Y-38759D01*
X69693Y-38692D01*
X69693Y-38345D01*
X69707Y-38339D01*
X69707Y-38449D01*
X69749Y-38491D01*
X69941Y-38491D01*
X69991Y-38491D01*
X70009Y-38491D01*
X70059Y-38491D01*
X70251Y-38491D01*
X70293Y-38449D01*
X70293Y-38308D01*
X70293Y-38241D01*
X70267Y-38180D01*
X70220Y-38132D01*
X70208Y-38127D01*
X70467Y-38017D01*
X70549Y-38061D01*
X70562Y-38065D01*
X70574Y-38073D01*
X70609Y-38079D01*
X70648Y-38092D01*
X70663Y-38090D01*
X70676Y-38093D01*
X70876Y-38093D01*
X71024Y-38093D01*
X71036Y-38090D01*
X71052Y-38092D01*
X71090Y-38079D01*
X71126Y-38073D01*
X71137Y-38065D01*
X71151Y-38061D01*
X71268Y-37996D01*
X71292Y-37984D01*
X71321Y-37959D01*
X71354Y-37938D01*
X71373Y-37918D01*
X71413Y-37879D01*
X71471Y-37793D01*
X71491Y-37691D01*
X71491Y-37688D01*
X71493Y-37684D01*
X71493Y-37617D01*
X71493Y-37317D01*
X71493Y-36684D01*
X71493Y-36617D01*
X71493Y-36317D01*
X71468Y-36255D01*
X71420Y-36208D01*
X71359Y-36182D01*
X71292Y-36182D01*
X71092Y-36182D01*
X71037Y-36204D01*
X71037Y-30832D01*
X70957Y-30628D01*
X70943Y-30606D01*
X70858Y-30568D01*
X70845Y-30581D01*
X70845Y-30555D01*
X70845Y-28545D01*
X70485Y-28185D01*
X70472Y-28198D01*
X70472Y-28172D01*
X70112Y-27812D01*
X70027Y-27850D01*
X69938Y-28050D01*
X69933Y-28268D01*
X70013Y-28472D01*
X70027Y-28494D01*
X70112Y-28532D01*
X70472Y-28172D01*
X70472Y-28198D01*
X70125Y-28545D01*
X70163Y-28630D01*
X70363Y-28719D01*
X70581Y-28724D01*
X70785Y-28644D01*
X70807Y-28630D01*
X70845Y-28545D01*
X70845Y-30555D01*
X70807Y-30470D01*
X70607Y-30381D01*
X70389Y-30376D01*
X70185Y-30456D01*
X70163Y-30470D01*
X70130Y-30543D01*
X70130Y-28969D01*
X70050Y-28765D01*
X70036Y-28743D01*
X69951Y-28705D01*
X69938Y-28718D01*
X69938Y-28692D01*
X69900Y-28607D01*
X69700Y-28518D01*
X69541Y-28514D01*
X69541Y-28000D01*
X69475Y-27832D01*
X69465Y-27817D01*
X69389Y-27790D01*
X69099Y-28081D01*
X69389Y-28372D01*
X69465Y-28345D01*
X69537Y-28180D01*
X69541Y-28000D01*
X69541Y-28514D01*
X69482Y-28513D01*
X69377Y-28554D01*
X69377Y-28384D01*
X69086Y-28094D01*
X69073Y-28106D01*
X69073Y-28081D01*
X68783Y-27790D01*
X68707Y-27817D01*
X68635Y-27982D01*
X68631Y-28162D01*
X68697Y-28330D01*
X68707Y-28345D01*
X68783Y-28372D01*
X69073Y-28081D01*
X69073Y-28106D01*
X68795Y-28384D01*
X68822Y-28460D01*
X68987Y-28532D01*
X69167Y-28536D01*
X69335Y-28470D01*
X69350Y-28460D01*
X69377Y-28384D01*
X69377Y-28554D01*
X69278Y-28593D01*
X69256Y-28607D01*
X69218Y-28692D01*
X69578Y-29052D01*
X69938Y-28692D01*
X69938Y-28718D01*
X69591Y-29065D01*
X69951Y-29425D01*
X70036Y-29387D01*
X70125Y-29187D01*
X70130Y-28969D01*
X70130Y-30543D01*
X70125Y-30555D01*
X70485Y-30915D01*
X70845Y-30555D01*
X70845Y-30581D01*
X70498Y-30928D01*
X70858Y-31288D01*
X70943Y-31250D01*
X71032Y-31050D01*
X71037Y-30832D01*
X71037Y-36204D01*
X71030Y-36207D01*
X70983Y-36255D01*
X70957Y-36316D01*
X70957Y-36383D01*
X70957Y-36683D01*
X70982Y-36745D01*
X71030Y-36792D01*
X71091Y-36818D01*
X71158Y-36818D01*
X71358Y-36818D01*
X71420Y-36793D01*
X71467Y-36745D01*
X71493Y-36684D01*
X71493Y-37317D01*
X71468Y-37255D01*
X71420Y-37208D01*
X71359Y-37182D01*
X71292Y-37182D01*
X71092Y-37182D01*
X71037Y-37203D01*
X70983Y-37182D01*
X70901Y-37182D01*
X70859Y-37224D01*
X70859Y-37441D01*
X70859Y-37491D01*
X70859Y-37509D01*
X70845Y-37509D01*
X70845Y-31301D01*
X70485Y-30941D01*
X70472Y-30954D01*
X70472Y-30928D01*
X70112Y-30568D01*
X70027Y-30606D01*
X69938Y-30806D01*
X69938Y-29438D01*
X69578Y-29078D01*
X69565Y-29091D01*
X69565Y-29065D01*
X69205Y-28705D01*
X69120Y-28743D01*
X69031Y-28943D01*
X69026Y-29161D01*
X69106Y-29365D01*
X69120Y-29387D01*
X69205Y-29425D01*
X69565Y-29065D01*
X69565Y-29091D01*
X69218Y-29438D01*
X69256Y-29523D01*
X69456Y-29612D01*
X69674Y-29617D01*
X69878Y-29537D01*
X69900Y-29523D01*
X69938Y-29438D01*
X69938Y-30806D01*
X69933Y-31024D01*
X70013Y-31228D01*
X70027Y-31250D01*
X70112Y-31288D01*
X70472Y-30928D01*
X70472Y-30954D01*
X70125Y-31301D01*
X70163Y-31386D01*
X70363Y-31475D01*
X70581Y-31480D01*
X70785Y-31400D01*
X70807Y-31386D01*
X70845Y-31301D01*
X70845Y-37509D01*
X70841Y-37509D01*
X70841Y-37491D01*
X70841Y-37441D01*
X70841Y-37224D01*
X70799Y-37182D01*
X70720Y-37182D01*
X70711Y-37160D01*
X70626Y-37075D01*
X70594Y-37061D01*
X70521Y-36968D01*
X70625Y-36926D01*
X70710Y-36841D01*
X70756Y-36731D01*
X70756Y-36612D01*
X70756Y-36522D01*
X70743Y-36490D01*
X70743Y-36317D01*
X70741Y-36312D01*
X70741Y-36309D01*
X70731Y-36261D01*
X70726Y-36220D01*
X70722Y-36213D01*
X70721Y-36207D01*
X70700Y-36175D01*
X70673Y-36130D01*
X70356Y-35777D01*
X70364Y-35759D01*
X70364Y-35692D01*
X70364Y-35442D01*
X70364Y-35158D01*
X70364Y-35051D01*
X70364Y-34949D01*
X70364Y-34842D01*
X70339Y-34780D01*
X70291Y-34733D01*
X70230Y-34707D01*
X70163Y-34707D01*
X70022Y-34707D01*
X69980Y-34749D01*
X69980Y-34991D01*
X70322Y-34991D01*
X70364Y-34949D01*
X70364Y-35051D01*
X70322Y-35009D01*
X69980Y-35009D01*
X69980Y-35251D01*
X70022Y-35293D01*
X70163Y-35293D01*
X70230Y-35293D01*
X70291Y-35267D01*
X70339Y-35220D01*
X70364Y-35158D01*
X70364Y-35442D01*
X70339Y-35380D01*
X70291Y-35333D01*
X70230Y-35307D01*
X70163Y-35307D01*
X69962Y-35307D01*
X69962Y-35251D01*
X69962Y-35009D01*
X69962Y-34991D01*
X69962Y-34749D01*
X69920Y-34707D01*
X69779Y-34707D01*
X69712Y-34707D01*
X69651Y-34733D01*
X69603Y-34780D01*
X69593Y-34804D01*
X69593Y-33581D01*
X69593Y-33514D01*
X69593Y-33120D01*
X69568Y-33058D01*
X69520Y-33011D01*
X69459Y-32985D01*
X69392Y-32985D01*
X69199Y-32985D01*
X69199Y-32726D01*
X69174Y-32664D01*
X69126Y-32617D01*
X69065Y-32591D01*
X68998Y-32591D01*
X68806Y-32591D01*
X68806Y-32529D01*
X68781Y-32467D01*
X68733Y-32420D01*
X68672Y-32394D01*
X68609Y-32394D01*
X68609Y-32136D01*
X68584Y-32074D01*
X68536Y-32027D01*
X68475Y-32001D01*
X68408Y-32001D01*
X68215Y-32001D01*
X68215Y-31742D01*
X68190Y-31680D01*
X68142Y-31633D01*
X68081Y-31607D01*
X68014Y-31607D01*
X67620Y-31607D01*
X67558Y-31632D01*
X67511Y-31680D01*
X67485Y-31741D01*
X67485Y-31808D01*
X67485Y-32001D01*
X67226Y-32001D01*
X67164Y-32026D01*
X67117Y-32074D01*
X67091Y-32135D01*
X67091Y-32202D01*
X67091Y-32394D01*
X67029Y-32394D01*
X66967Y-32419D01*
X66920Y-32467D01*
X66894Y-32528D01*
X66894Y-32591D01*
X66636Y-32591D01*
X66574Y-32616D01*
X66527Y-32664D01*
X66501Y-32725D01*
X66501Y-32792D01*
X66501Y-32985D01*
X66242Y-32985D01*
X66180Y-33010D01*
X66133Y-33058D01*
X66107Y-33119D01*
X66107Y-33186D01*
X66107Y-33580D01*
X66132Y-33642D01*
X66180Y-33689D01*
X66241Y-33715D01*
X66308Y-33715D01*
X66501Y-33715D01*
X66501Y-33974D01*
X66526Y-34036D01*
X66574Y-34083D01*
X66635Y-34109D01*
X66702Y-34109D01*
X66894Y-34109D01*
X66894Y-34171D01*
X66919Y-34233D01*
X66967Y-34280D01*
X67028Y-34306D01*
X67091Y-34306D01*
X67091Y-34564D01*
X67116Y-34626D01*
X67164Y-34673D01*
X67225Y-34699D01*
X67292Y-34699D01*
X67485Y-34699D01*
X67485Y-34958D01*
X67510Y-35020D01*
X67558Y-35067D01*
X67619Y-35093D01*
X67686Y-35093D01*
X68080Y-35093D01*
X68142Y-35068D01*
X68189Y-35020D01*
X68215Y-34959D01*
X68215Y-34892D01*
X68215Y-34699D01*
X68474Y-34699D01*
X68536Y-34674D01*
X68583Y-34626D01*
X68609Y-34565D01*
X68609Y-34498D01*
X68609Y-34306D01*
X68671Y-34306D01*
X68733Y-34281D01*
X68780Y-34233D01*
X68806Y-34172D01*
X68806Y-34109D01*
X69064Y-34109D01*
X69126Y-34084D01*
X69173Y-34036D01*
X69199Y-33975D01*
X69199Y-33908D01*
X69199Y-33715D01*
X69458Y-33715D01*
X69520Y-33690D01*
X69567Y-33642D01*
X69593Y-33581D01*
X69593Y-34804D01*
X69578Y-34842D01*
X69578Y-34949D01*
X69620Y-34991D01*
X69962Y-34991D01*
X69962Y-35009D01*
X69620Y-35009D01*
X69578Y-35051D01*
X69578Y-35158D01*
X69603Y-35220D01*
X69651Y-35267D01*
X69712Y-35293D01*
X69779Y-35293D01*
X69920Y-35293D01*
X69962Y-35251D01*
X69962Y-35307D01*
X69713Y-35307D01*
X69651Y-35332D01*
X69646Y-35336D01*
X66981Y-35687D01*
X66345Y-34844D01*
X66331Y-34831D01*
X66321Y-34816D01*
X66230Y-34725D01*
X66229Y-34723D01*
X66224Y-34719D01*
X66217Y-34712D01*
X66194Y-34696D01*
X66146Y-34660D01*
X63914Y-33566D01*
X63952Y-33529D01*
X63994Y-33571D01*
X64120Y-33624D01*
X64257Y-33624D01*
X64383Y-33572D01*
X64480Y-33475D01*
X64533Y-33349D01*
X64533Y-33212D01*
X64523Y-33189D01*
X67498Y-29410D01*
X67524Y-29356D01*
X67534Y-29338D01*
X67537Y-29291D01*
X67537Y-29289D01*
X67541Y-29274D01*
X67541Y-29272D01*
X67541Y-28856D01*
X67540Y-28853D01*
X67541Y-28850D01*
X67531Y-28492D01*
X67576Y-28474D01*
X67706Y-28343D01*
X67777Y-28173D01*
X67777Y-27989D01*
X67707Y-27819D01*
X67630Y-27743D01*
X68807Y-27743D01*
X68795Y-27778D01*
X69086Y-28068D01*
X69377Y-27778D01*
X69364Y-27743D01*
X70150Y-27743D01*
X70125Y-27799D01*
X70485Y-28159D01*
X70845Y-27799D01*
X70819Y-27743D01*
X72007Y-27743D01*
X72007Y-41507D01*
X72007Y-41507D01*
G37*
G54D48*
X72007Y-41507D02*
X71980Y-41507D01*
X71980Y-40080D01*
X71932Y-39952D01*
X71932Y-28756D01*
X71932Y-28572D01*
X71862Y-28402D01*
X71731Y-28272D01*
X71561Y-28201D01*
X71377Y-28201D01*
X71207Y-28271D01*
X71077Y-28402D01*
X71037Y-28497D01*
X71037Y-28076D01*
X70957Y-27872D01*
X70943Y-27850D01*
X70858Y-27812D01*
X70498Y-28172D01*
X70858Y-28532D01*
X70943Y-28494D01*
X71032Y-28294D01*
X71037Y-28076D01*
X71037Y-28497D01*
X71006Y-28572D01*
X71006Y-28756D01*
X71076Y-28926D01*
X71207Y-29056D01*
X71377Y-29127D01*
X71561Y-29127D01*
X71731Y-29057D01*
X71861Y-28926D01*
X71932Y-28756D01*
X71932Y-39952D01*
X71924Y-39931D01*
X71924Y-30355D01*
X71858Y-30187D01*
X71848Y-30172D01*
X71772Y-30145D01*
X71760Y-30157D01*
X71760Y-30133D01*
X71733Y-30057D01*
X71568Y-29985D01*
X71388Y-29981D01*
X71220Y-30047D01*
X71205Y-30057D01*
X71178Y-30133D01*
X71469Y-30423D01*
X71760Y-30133D01*
X71760Y-30157D01*
X71482Y-30436D01*
X71772Y-30727D01*
X71848Y-30700D01*
X71920Y-30535D01*
X71924Y-30355D01*
X71924Y-39931D01*
X71795Y-39588D01*
X71760Y-39535D01*
X71760Y-30739D01*
X71469Y-30449D01*
X71456Y-30461D01*
X71456Y-30436D01*
X71166Y-30145D01*
X71090Y-30172D01*
X71018Y-30337D01*
X71014Y-30517D01*
X71080Y-30685D01*
X71090Y-30700D01*
X71166Y-30727D01*
X71456Y-30436D01*
X71456Y-30461D01*
X71178Y-30739D01*
X71205Y-30815D01*
X71370Y-30887D01*
X71550Y-30891D01*
X71718Y-30825D01*
X71733Y-30815D01*
X71760Y-30739D01*
X71760Y-39535D01*
X71746Y-39515D01*
X71580Y-39383D01*
X71567Y-39396D01*
X71567Y-39370D01*
X71435Y-39204D01*
X70956Y-38987D01*
X70430Y-38970D01*
X70293Y-39021D01*
X70293Y-38759D01*
X70293Y-38692D01*
X70293Y-38551D01*
X70251Y-38509D01*
X70009Y-38509D01*
X70009Y-38851D01*
X70051Y-38893D01*
X70158Y-38893D01*
X70220Y-38868D01*
X70267Y-38820D01*
X70293Y-38759D01*
X70293Y-39021D01*
X69991Y-39135D01*
X69991Y-38851D01*
X69991Y-38509D01*
X69749Y-38509D01*
X69707Y-38551D01*
X69707Y-38692D01*
X69707Y-38759D01*
X69733Y-38820D01*
X69780Y-38868D01*
X69842Y-38893D01*
X69949Y-38893D01*
X69991Y-38851D01*
X69991Y-39135D01*
X69938Y-39155D01*
X69865Y-39204D01*
X69733Y-39370D01*
X70650Y-40287D01*
X71567Y-39370D01*
X71567Y-39396D01*
X70663Y-40300D01*
X71580Y-41217D01*
X71746Y-41085D01*
X71963Y-40606D01*
X71980Y-40080D01*
X71980Y-41507D01*
X71197Y-41507D01*
X71362Y-41445D01*
X71435Y-41396D01*
X71567Y-41230D01*
X70650Y-40313D01*
X70637Y-40326D01*
X70637Y-40300D01*
X69720Y-39383D01*
X69554Y-39515D01*
X69337Y-39994D01*
X69320Y-40520D01*
X69505Y-41012D01*
X69554Y-41085D01*
X69720Y-41217D01*
X70637Y-40300D01*
X70637Y-40326D01*
X69733Y-41230D01*
X69865Y-41396D01*
X70110Y-41507D01*
X59793Y-41507D01*
X59793Y-39233D01*
X59793Y-39076D01*
X59793Y-38974D01*
X59793Y-38817D01*
X59768Y-38755D01*
X59720Y-38708D01*
X59659Y-38682D01*
X59592Y-38682D01*
X59401Y-38682D01*
X59359Y-38724D01*
X59359Y-39016D01*
X59751Y-39016D01*
X59793Y-38974D01*
X59793Y-39076D01*
X59751Y-39034D01*
X59359Y-39034D01*
X59359Y-39326D01*
X59401Y-39368D01*
X59592Y-39368D01*
X59659Y-39368D01*
X59720Y-39342D01*
X59768Y-39295D01*
X59793Y-39233D01*
X59793Y-41507D01*
X59341Y-41507D01*
X59341Y-39326D01*
X59341Y-39034D01*
X59341Y-39016D01*
X59341Y-38724D01*
X59299Y-38682D01*
X59108Y-38682D01*
X59041Y-38682D01*
X58980Y-38708D01*
X58932Y-38755D01*
X58907Y-38817D01*
X58907Y-38974D01*
X58949Y-39016D01*
X59341Y-39016D01*
X59341Y-39034D01*
X58949Y-39034D01*
X58907Y-39076D01*
X58907Y-39233D01*
X58932Y-39295D01*
X58980Y-39342D01*
X59041Y-39368D01*
X59108Y-39368D01*
X59299Y-39368D01*
X59341Y-39326D01*
X59341Y-41507D01*
X58743Y-41507D01*
X58743Y-39233D01*
X58743Y-39076D01*
X58743Y-38974D01*
X58743Y-38817D01*
X58718Y-38755D01*
X58670Y-38708D01*
X58609Y-38682D01*
X58542Y-38682D01*
X58351Y-38682D01*
X58309Y-38724D01*
X58309Y-39016D01*
X58701Y-39016D01*
X58743Y-38974D01*
X58743Y-39076D01*
X58701Y-39034D01*
X58309Y-39034D01*
X58309Y-39326D01*
X58351Y-39368D01*
X58542Y-39368D01*
X58609Y-39368D01*
X58670Y-39342D01*
X58718Y-39295D01*
X58743Y-39233D01*
X58743Y-41507D01*
X58291Y-41507D01*
X58291Y-39326D01*
X58291Y-39034D01*
X58291Y-39016D01*
X58291Y-38724D01*
X58249Y-38682D01*
X58058Y-38682D01*
X57991Y-38682D01*
X57930Y-38708D01*
X57882Y-38755D01*
X57857Y-38817D01*
X57857Y-38974D01*
X57899Y-39016D01*
X58291Y-39016D01*
X58291Y-39034D01*
X57899Y-39034D01*
X57857Y-39076D01*
X57857Y-39233D01*
X57882Y-39295D01*
X57930Y-39342D01*
X57991Y-39368D01*
X58058Y-39368D01*
X58249Y-39368D01*
X58291Y-39326D01*
X58291Y-41507D01*
X57693Y-41507D01*
X57693Y-39233D01*
X57693Y-39076D01*
X57693Y-38974D01*
X57693Y-38817D01*
X57668Y-38755D01*
X57620Y-38708D01*
X57559Y-38682D01*
X57492Y-38682D01*
X57301Y-38682D01*
X57259Y-38724D01*
X57259Y-39016D01*
X57651Y-39016D01*
X57693Y-38974D01*
X57693Y-39076D01*
X57651Y-39034D01*
X57259Y-39034D01*
X57259Y-39326D01*
X57301Y-39368D01*
X57492Y-39368D01*
X57559Y-39368D01*
X57620Y-39342D01*
X57668Y-39295D01*
X57693Y-39233D01*
X57693Y-41507D01*
X57241Y-41507D01*
X57241Y-39326D01*
X57241Y-39034D01*
X57241Y-39016D01*
X57241Y-38724D01*
X57199Y-38682D01*
X57008Y-38682D01*
X56941Y-38682D01*
X56880Y-38708D01*
X56832Y-38755D01*
X56807Y-38817D01*
X56807Y-38974D01*
X56849Y-39016D01*
X57241Y-39016D01*
X57241Y-39034D01*
X56849Y-39034D01*
X56807Y-39076D01*
X56807Y-39233D01*
X56832Y-39295D01*
X56880Y-39342D01*
X56941Y-39368D01*
X57008Y-39368D01*
X57199Y-39368D01*
X57241Y-39326D01*
X57241Y-41507D01*
X56751Y-41507D01*
X56751Y-39233D01*
X56751Y-39076D01*
X56751Y-38974D01*
X56751Y-38817D01*
X56726Y-38755D01*
X56678Y-38708D01*
X56617Y-38682D01*
X56550Y-38682D01*
X56359Y-38682D01*
X56317Y-38724D01*
X56317Y-39016D01*
X56709Y-39016D01*
X56751Y-38974D01*
X56751Y-39076D01*
X56709Y-39034D01*
X56317Y-39034D01*
X56317Y-39326D01*
X56359Y-39368D01*
X56550Y-39368D01*
X56617Y-39368D01*
X56678Y-39342D01*
X56726Y-39295D01*
X56751Y-39233D01*
X56751Y-41507D01*
X56299Y-41507D01*
X48597Y-41507D01*
X48597Y-40573D01*
X48491Y-40296D01*
X48467Y-40262D01*
X48362Y-40201D01*
X48349Y-40214D01*
X48349Y-40188D01*
X48288Y-40083D01*
X48018Y-39962D01*
X47943Y-39959D01*
X47943Y-35159D01*
X47943Y-35092D01*
X47943Y-34951D01*
X47943Y-34849D01*
X47943Y-34708D01*
X47943Y-34641D01*
X47943Y-34109D01*
X47943Y-34042D01*
X47943Y-33901D01*
X47943Y-33799D01*
X47943Y-33658D01*
X47943Y-33591D01*
X47917Y-33530D01*
X47870Y-33482D01*
X47808Y-33457D01*
X47701Y-33457D01*
X47659Y-33499D01*
X47659Y-33841D01*
X47901Y-33841D01*
X47943Y-33799D01*
X47943Y-33901D01*
X47901Y-33859D01*
X47659Y-33859D01*
X47659Y-34201D01*
X47701Y-34243D01*
X47808Y-34243D01*
X47870Y-34218D01*
X47917Y-34170D01*
X47943Y-34109D01*
X47943Y-34641D01*
X47917Y-34580D01*
X47870Y-34532D01*
X47808Y-34507D01*
X47701Y-34507D01*
X47659Y-34549D01*
X47659Y-34891D01*
X47901Y-34891D01*
X47943Y-34849D01*
X47943Y-34951D01*
X47901Y-34909D01*
X47659Y-34909D01*
X47659Y-35251D01*
X47701Y-35293D01*
X47808Y-35293D01*
X47870Y-35268D01*
X47917Y-35220D01*
X47943Y-35159D01*
X47943Y-39959D01*
X47918Y-39958D01*
X47918Y-39609D01*
X47918Y-39542D01*
X47918Y-39351D01*
X47918Y-39249D01*
X47918Y-39058D01*
X47918Y-38991D01*
X47918Y-38509D01*
X47918Y-38442D01*
X47918Y-38251D01*
X47918Y-38149D01*
X47918Y-37958D01*
X47918Y-37891D01*
X47918Y-37509D01*
X47918Y-37442D01*
X47918Y-37251D01*
X47918Y-37149D01*
X47918Y-36958D01*
X47918Y-36891D01*
X47918Y-36509D01*
X47918Y-36442D01*
X47918Y-36251D01*
X47918Y-36149D01*
X47918Y-35958D01*
X47918Y-35891D01*
X47892Y-35830D01*
X47845Y-35782D01*
X47783Y-35757D01*
X47641Y-35757D01*
X47641Y-35251D01*
X47641Y-34909D01*
X47641Y-34891D01*
X47641Y-34549D01*
X47641Y-34201D01*
X47641Y-33859D01*
X47641Y-33841D01*
X47641Y-33499D01*
X47599Y-33457D01*
X47492Y-33457D01*
X47430Y-33482D01*
X47383Y-33530D01*
X47357Y-33591D01*
X47357Y-33658D01*
X47357Y-33799D01*
X47399Y-33841D01*
X47641Y-33841D01*
X47641Y-33859D01*
X47399Y-33859D01*
X47357Y-33901D01*
X47357Y-34042D01*
X47357Y-34109D01*
X47383Y-34170D01*
X47430Y-34218D01*
X47492Y-34243D01*
X47599Y-34243D01*
X47641Y-34201D01*
X47641Y-34549D01*
X47599Y-34507D01*
X47492Y-34507D01*
X47430Y-34532D01*
X47383Y-34580D01*
X47357Y-34641D01*
X47357Y-34708D01*
X47357Y-34849D01*
X47399Y-34891D01*
X47641Y-34891D01*
X47641Y-34909D01*
X47399Y-34909D01*
X47357Y-34951D01*
X47357Y-35092D01*
X47357Y-35159D01*
X47383Y-35220D01*
X47430Y-35268D01*
X47492Y-35293D01*
X47599Y-35293D01*
X47641Y-35251D01*
X47641Y-35757D01*
X47626Y-35757D01*
X47584Y-35799D01*
X47584Y-36191D01*
X47876Y-36191D01*
X47918Y-36149D01*
X47918Y-36251D01*
X47876Y-36209D01*
X47584Y-36209D01*
X47584Y-36601D01*
X47626Y-36643D01*
X47783Y-36643D01*
X47845Y-36618D01*
X47892Y-36570D01*
X47918Y-36509D01*
X47918Y-36891D01*
X47892Y-36830D01*
X47845Y-36782D01*
X47783Y-36757D01*
X47626Y-36757D01*
X47584Y-36799D01*
X47584Y-37191D01*
X47876Y-37191D01*
X47918Y-37149D01*
X47918Y-37251D01*
X47876Y-37209D01*
X47584Y-37209D01*
X47584Y-37601D01*
X47626Y-37643D01*
X47783Y-37643D01*
X47845Y-37618D01*
X47892Y-37570D01*
X47918Y-37509D01*
X47918Y-37891D01*
X47892Y-37830D01*
X47845Y-37782D01*
X47783Y-37757D01*
X47626Y-37757D01*
X47584Y-37799D01*
X47584Y-38191D01*
X47876Y-38191D01*
X47918Y-38149D01*
X47918Y-38251D01*
X47876Y-38209D01*
X47584Y-38209D01*
X47584Y-38601D01*
X47626Y-38643D01*
X47783Y-38643D01*
X47845Y-38618D01*
X47892Y-38570D01*
X47918Y-38509D01*
X47918Y-38991D01*
X47892Y-38930D01*
X47845Y-38882D01*
X47783Y-38857D01*
X47626Y-38857D01*
X47584Y-38899D01*
X47584Y-39291D01*
X47876Y-39291D01*
X47918Y-39249D01*
X47918Y-39351D01*
X47876Y-39309D01*
X47584Y-39309D01*
X47584Y-39701D01*
X47626Y-39743D01*
X47783Y-39743D01*
X47845Y-39718D01*
X47892Y-39670D01*
X47918Y-39609D01*
X47918Y-39958D01*
X47723Y-39953D01*
X47566Y-40013D01*
X47566Y-39701D01*
X47566Y-39309D01*
X47566Y-39291D01*
X47566Y-38899D01*
X47566Y-38601D01*
X47566Y-38209D01*
X47566Y-38191D01*
X47566Y-37799D01*
X47566Y-37601D01*
X47566Y-37209D01*
X47566Y-37191D01*
X47566Y-36799D01*
X47566Y-36601D01*
X47566Y-36209D01*
X47566Y-36191D01*
X47566Y-35799D01*
X47524Y-35757D01*
X47367Y-35757D01*
X47305Y-35782D01*
X47258Y-35830D01*
X47232Y-35891D01*
X47232Y-35958D01*
X47232Y-36149D01*
X47274Y-36191D01*
X47566Y-36191D01*
X47566Y-36209D01*
X47274Y-36209D01*
X47232Y-36251D01*
X47232Y-36442D01*
X47232Y-36509D01*
X47258Y-36570D01*
X47305Y-36618D01*
X47367Y-36643D01*
X47524Y-36643D01*
X47566Y-36601D01*
X47566Y-36799D01*
X47524Y-36757D01*
X47367Y-36757D01*
X47305Y-36782D01*
X47258Y-36830D01*
X47232Y-36891D01*
X47232Y-36958D01*
X47232Y-37149D01*
X47274Y-37191D01*
X47566Y-37191D01*
X47566Y-37209D01*
X47274Y-37209D01*
X47232Y-37251D01*
X47232Y-37442D01*
X47232Y-37509D01*
X47258Y-37570D01*
X47305Y-37618D01*
X47367Y-37643D01*
X47524Y-37643D01*
X47566Y-37601D01*
X47566Y-37799D01*
X47524Y-37757D01*
X47367Y-37757D01*
X47305Y-37782D01*
X47258Y-37830D01*
X47232Y-37891D01*
X47232Y-37958D01*
X47232Y-38149D01*
X47274Y-38191D01*
X47566Y-38191D01*
X47566Y-38209D01*
X47274Y-38209D01*
X47232Y-38251D01*
X47232Y-38442D01*
X47232Y-38509D01*
X47258Y-38570D01*
X47305Y-38618D01*
X47367Y-38643D01*
X47524Y-38643D01*
X47566Y-38601D01*
X47566Y-38899D01*
X47524Y-38857D01*
X47367Y-38857D01*
X47305Y-38882D01*
X47258Y-38930D01*
X47232Y-38991D01*
X47232Y-39058D01*
X47232Y-39249D01*
X47274Y-39291D01*
X47566Y-39291D01*
X47566Y-39309D01*
X47274Y-39309D01*
X47232Y-39351D01*
X47232Y-39542D01*
X47232Y-39609D01*
X47258Y-39670D01*
X47305Y-39718D01*
X47367Y-39743D01*
X47524Y-39743D01*
X47566Y-39701D01*
X47566Y-40013D01*
X47446Y-40059D01*
X47412Y-40083D01*
X47351Y-40188D01*
X47850Y-40687D01*
X48349Y-40188D01*
X48349Y-40214D01*
X47863Y-40700D01*
X48362Y-41199D01*
X48467Y-41138D01*
X48588Y-40868D01*
X48597Y-40573D01*
X48597Y-41507D01*
X48349Y-41507D01*
X48349Y-41212D01*
X47850Y-40713D01*
X47837Y-40726D01*
X47837Y-40700D01*
X47338Y-40201D01*
X47233Y-40262D01*
X47112Y-40532D01*
X47103Y-40827D01*
X47209Y-41104D01*
X47233Y-41138D01*
X47338Y-41199D01*
X47837Y-40700D01*
X47837Y-40726D01*
X47351Y-41212D01*
X47412Y-41317D01*
X47682Y-41438D01*
X47977Y-41447D01*
X48254Y-41341D01*
X48288Y-41317D01*
X48349Y-41212D01*
X48349Y-41507D01*
X47000Y-41507D01*
X46993Y-41507D01*
X46993Y-29630D01*
X47005Y-29662D01*
X47054Y-29735D01*
X47220Y-29867D01*
X48137Y-28950D01*
X47220Y-28033D01*
X47054Y-28165D01*
X46993Y-28299D01*
X46993Y-27743D01*
X47602Y-27743D01*
X47438Y-27805D01*
X47365Y-27854D01*
X47233Y-28020D01*
X48150Y-28937D01*
X49067Y-28020D01*
X48935Y-27854D01*
X48689Y-27743D01*
X66997Y-27743D01*
X66922Y-27819D01*
X66851Y-27989D01*
X66851Y-28173D01*
X66921Y-28343D01*
X67052Y-28473D01*
X67117Y-28500D01*
X67120Y-28596D01*
X66944Y-28518D01*
X66726Y-28513D01*
X66522Y-28593D01*
X66500Y-28607D01*
X66462Y-28692D01*
X66787Y-29017D01*
X66822Y-29052D01*
X66835Y-29065D01*
X66822Y-29078D01*
X66809Y-29091D01*
X66809Y-29065D01*
X66449Y-28705D01*
X66364Y-28743D01*
X66275Y-28943D01*
X66270Y-29161D01*
X66350Y-29365D01*
X66364Y-29387D01*
X66449Y-29425D01*
X66809Y-29065D01*
X66809Y-29091D01*
X66787Y-29113D01*
X66462Y-29438D01*
X66500Y-29523D01*
X66700Y-29612D01*
X66809Y-29614D01*
X64197Y-32934D01*
X65203Y-30354D01*
X65204Y-30343D01*
X65215Y-30321D01*
X65602Y-28743D01*
X65758Y-28743D01*
X65820Y-28718D01*
X65867Y-28670D01*
X65893Y-28609D01*
X65893Y-28542D01*
X65893Y-27992D01*
X65868Y-27930D01*
X65820Y-27883D01*
X65759Y-27857D01*
X65692Y-27857D01*
X65142Y-27857D01*
X65080Y-27882D01*
X65033Y-27930D01*
X65007Y-27991D01*
X65007Y-28058D01*
X65007Y-28608D01*
X65032Y-28670D01*
X65065Y-28702D01*
X64892Y-29405D01*
X64892Y-28388D01*
X64892Y-28212D01*
X64825Y-28050D01*
X64700Y-27925D01*
X64538Y-27858D01*
X64362Y-27858D01*
X64200Y-27925D01*
X64075Y-28050D01*
X64008Y-28212D01*
X64008Y-28388D01*
X64075Y-28550D01*
X64200Y-28675D01*
X64362Y-28742D01*
X64538Y-28742D01*
X64700Y-28675D01*
X64825Y-28550D01*
X64892Y-28388D01*
X64892Y-29405D01*
X64808Y-29747D01*
X64778Y-29735D01*
X64765Y-29748D01*
X64765Y-29722D01*
X64734Y-29643D01*
X64556Y-29565D01*
X64362Y-29561D01*
X64181Y-29631D01*
X64166Y-29643D01*
X64135Y-29722D01*
X64450Y-30037D01*
X64765Y-29722D01*
X64765Y-29748D01*
X64498Y-30015D01*
X64463Y-30050D01*
X64450Y-30063D01*
X64437Y-30076D01*
X64437Y-30050D01*
X64122Y-29735D01*
X64043Y-29766D01*
X63965Y-29944D01*
X63961Y-30138D01*
X64031Y-30319D01*
X64043Y-30334D01*
X64122Y-30365D01*
X64437Y-30050D01*
X64437Y-30076D01*
X64415Y-30098D01*
X64135Y-30378D01*
X64166Y-30457D01*
X64344Y-30535D01*
X64538Y-30539D01*
X64563Y-30529D01*
X63948Y-32105D01*
X63948Y-30414D01*
X63948Y-30347D01*
X63948Y-29687D01*
X63923Y-29625D01*
X63885Y-29587D01*
X63885Y-28222D01*
X63822Y-28061D01*
X63813Y-28048D01*
X63739Y-28024D01*
X63726Y-28037D01*
X63726Y-28011D01*
X63702Y-27937D01*
X63544Y-27868D01*
X63372Y-27865D01*
X63211Y-27928D01*
X63198Y-27937D01*
X63174Y-28011D01*
X63450Y-28287D01*
X63726Y-28011D01*
X63726Y-28037D01*
X63463Y-28300D01*
X63739Y-28576D01*
X63813Y-28552D01*
X63882Y-28394D01*
X63885Y-28222D01*
X63885Y-29587D01*
X63875Y-29578D01*
X63814Y-29552D01*
X63747Y-29552D01*
X63726Y-29552D01*
X63726Y-28589D01*
X63450Y-28313D01*
X63437Y-28326D01*
X63437Y-28300D01*
X63161Y-28024D01*
X63087Y-28048D01*
X63018Y-28206D01*
X63015Y-28378D01*
X63078Y-28539D01*
X63087Y-28552D01*
X63161Y-28576D01*
X63437Y-28300D01*
X63437Y-28326D01*
X63174Y-28589D01*
X63198Y-28663D01*
X63356Y-28732D01*
X63528Y-28735D01*
X63689Y-28672D01*
X63702Y-28663D01*
X63726Y-28589D01*
X63726Y-29552D01*
X63087Y-29552D01*
X63025Y-29577D01*
X62978Y-29625D01*
X62952Y-29686D01*
X62952Y-29753D01*
X62952Y-30413D01*
X62977Y-30475D01*
X63025Y-30522D01*
X63086Y-30548D01*
X63153Y-30548D01*
X63813Y-30548D01*
X63875Y-30523D01*
X63922Y-30475D01*
X63948Y-30414D01*
X63948Y-32105D01*
X63774Y-32552D01*
X63751Y-32530D01*
X63690Y-32504D01*
X63623Y-32504D01*
X63482Y-32504D01*
X63440Y-32546D01*
X63440Y-32738D01*
X63440Y-32788D01*
X63440Y-32806D01*
X63440Y-32856D01*
X63440Y-33048D01*
X63482Y-33090D01*
X63570Y-33090D01*
X63566Y-33104D01*
X63422Y-33104D01*
X63422Y-33048D01*
X63422Y-32806D01*
X63422Y-32788D01*
X63422Y-32546D01*
X63380Y-32504D01*
X63239Y-32504D01*
X63172Y-32504D01*
X63111Y-32530D01*
X63063Y-32577D01*
X63038Y-32639D01*
X63038Y-32746D01*
X63080Y-32788D01*
X63422Y-32788D01*
X63422Y-32806D01*
X63080Y-32806D01*
X63038Y-32848D01*
X63038Y-32955D01*
X63063Y-33017D01*
X63111Y-33064D01*
X63172Y-33090D01*
X63239Y-33090D01*
X63380Y-33090D01*
X63422Y-33048D01*
X63422Y-33104D01*
X63173Y-33104D01*
X63111Y-33129D01*
X63098Y-33141D01*
X63057Y-33149D01*
X62892Y-33213D01*
X62892Y-28388D01*
X62892Y-28212D01*
X62825Y-28050D01*
X62700Y-27925D01*
X62538Y-27858D01*
X62362Y-27858D01*
X62200Y-27925D01*
X62075Y-28050D01*
X62008Y-28212D01*
X62008Y-28388D01*
X62075Y-28550D01*
X62200Y-28675D01*
X62362Y-28742D01*
X62538Y-28742D01*
X62700Y-28675D01*
X62825Y-28550D01*
X62892Y-28388D01*
X62892Y-33213D01*
X62714Y-33283D01*
X62627Y-33339D01*
X62592Y-33389D01*
X62576Y-33395D01*
X62556Y-33406D01*
X62531Y-33417D01*
X62413Y-33494D01*
X62086Y-33494D01*
X62072Y-33460D01*
X61975Y-33363D01*
X61906Y-33333D01*
X61906Y-33267D01*
X61906Y-32899D01*
X61905Y-32898D01*
X62043Y-32265D01*
X62092Y-32245D01*
X62189Y-32148D01*
X62242Y-32022D01*
X62242Y-31885D01*
X62225Y-31844D01*
X62324Y-31804D01*
X62421Y-31707D01*
X62474Y-31581D01*
X62474Y-31444D01*
X62422Y-31318D01*
X62325Y-31221D01*
X62199Y-31168D01*
X62062Y-31168D01*
X61936Y-31220D01*
X61851Y-31305D01*
X61443Y-31305D01*
X61443Y-28609D01*
X61443Y-28542D01*
X61443Y-27992D01*
X61418Y-27930D01*
X61370Y-27883D01*
X61309Y-27857D01*
X61242Y-27857D01*
X60692Y-27857D01*
X60630Y-27882D01*
X60583Y-27930D01*
X60557Y-27991D01*
X60557Y-28058D01*
X60557Y-28608D01*
X60582Y-28670D01*
X60630Y-28717D01*
X60691Y-28743D01*
X60758Y-28743D01*
X61308Y-28743D01*
X61370Y-28718D01*
X61417Y-28670D01*
X61443Y-28609D01*
X61443Y-31305D01*
X61223Y-31305D01*
X61223Y-31159D01*
X61198Y-31097D01*
X61150Y-31050D01*
X61089Y-31024D01*
X61022Y-31024D01*
X60772Y-31024D01*
X60710Y-31049D01*
X60663Y-31097D01*
X60637Y-31158D01*
X60637Y-31225D01*
X60637Y-31675D01*
X60662Y-31737D01*
X60710Y-31784D01*
X60771Y-31810D01*
X60838Y-31810D01*
X61088Y-31810D01*
X61150Y-31785D01*
X61197Y-31737D01*
X61204Y-31719D01*
X61646Y-31719D01*
X61607Y-31758D01*
X61554Y-31884D01*
X61554Y-32021D01*
X61606Y-32147D01*
X61637Y-32178D01*
X61521Y-32720D01*
X61442Y-32720D01*
X61388Y-32742D01*
X61334Y-32720D01*
X61245Y-32720D01*
X61191Y-32742D01*
X61137Y-32720D01*
X61048Y-32720D01*
X60994Y-32742D01*
X60940Y-32720D01*
X60851Y-32720D01*
X60797Y-32742D01*
X60743Y-32720D01*
X60654Y-32720D01*
X60600Y-32742D01*
X60547Y-32720D01*
X60458Y-32720D01*
X60414Y-32738D01*
X60409Y-32734D01*
X60349Y-32728D01*
X60314Y-32766D01*
X60314Y-32815D01*
X60313Y-32816D01*
X60304Y-32835D01*
X60297Y-32817D01*
X60296Y-32815D01*
X60296Y-32766D01*
X60272Y-32740D01*
X60270Y-32730D01*
X60270Y-32542D01*
X60504Y-31803D01*
X60550Y-31785D01*
X60597Y-31737D01*
X60623Y-31676D01*
X60623Y-31609D01*
X60623Y-31159D01*
X60598Y-31097D01*
X60550Y-31050D01*
X60489Y-31024D01*
X60435Y-31024D01*
X60435Y-28222D01*
X60372Y-28061D01*
X60363Y-28048D01*
X60289Y-28024D01*
X60276Y-28037D01*
X60276Y-28011D01*
X60252Y-27937D01*
X60094Y-27868D01*
X59922Y-27865D01*
X59761Y-27928D01*
X59748Y-27937D01*
X59724Y-28011D01*
X60000Y-28287D01*
X60276Y-28011D01*
X60276Y-28037D01*
X60013Y-28300D01*
X60289Y-28576D01*
X60363Y-28552D01*
X60432Y-28394D01*
X60435Y-28222D01*
X60435Y-31024D01*
X60422Y-31024D01*
X60276Y-31024D01*
X60276Y-28589D01*
X60000Y-28313D01*
X59987Y-28326D01*
X59987Y-28300D01*
X59711Y-28024D01*
X59637Y-28048D01*
X59568Y-28206D01*
X59565Y-28378D01*
X59628Y-28539D01*
X59637Y-28552D01*
X59711Y-28576D01*
X59987Y-28300D01*
X59987Y-28326D01*
X59724Y-28589D01*
X59748Y-28663D01*
X59906Y-28732D01*
X60078Y-28735D01*
X60239Y-28672D01*
X60252Y-28663D01*
X60276Y-28589D01*
X60276Y-31024D01*
X60172Y-31024D01*
X60110Y-31049D01*
X60063Y-31097D01*
X60037Y-31158D01*
X60037Y-31225D01*
X60037Y-31675D01*
X60062Y-31737D01*
X60084Y-31759D01*
X59866Y-32448D01*
X59862Y-32478D01*
X59856Y-32511D01*
X59856Y-32724D01*
X59823Y-32738D01*
X59818Y-32734D01*
X59758Y-32728D01*
X59723Y-32766D01*
X59723Y-32815D01*
X59722Y-32816D01*
X59713Y-32835D01*
X59706Y-32817D01*
X59705Y-32815D01*
X59705Y-32766D01*
X59670Y-32728D01*
X59610Y-32734D01*
X59608Y-32734D01*
X59366Y-32440D01*
X59434Y-32440D01*
X59496Y-32415D01*
X59543Y-32367D01*
X59569Y-32306D01*
X59569Y-32239D01*
X59569Y-32098D01*
X59569Y-31996D01*
X59569Y-31855D01*
X59569Y-31788D01*
X59545Y-31732D01*
X59569Y-31676D01*
X59569Y-31609D01*
X59569Y-31468D01*
X59569Y-31366D01*
X59569Y-31225D01*
X59569Y-31158D01*
X59543Y-31097D01*
X59496Y-31049D01*
X59434Y-31024D01*
X59327Y-31024D01*
X59285Y-31066D01*
X59285Y-31408D01*
X59527Y-31408D01*
X59569Y-31366D01*
X59569Y-31468D01*
X59527Y-31426D01*
X59285Y-31426D01*
X59285Y-31696D01*
X59285Y-31768D01*
X59285Y-32038D01*
X59527Y-32038D01*
X59569Y-31996D01*
X59569Y-32098D01*
X59527Y-32056D01*
X59335Y-32056D01*
X59285Y-32056D01*
X59267Y-32056D01*
X59267Y-32038D01*
X59267Y-31988D01*
X59267Y-31768D01*
X59267Y-31696D01*
X59267Y-31426D01*
X59267Y-31408D01*
X59267Y-31066D01*
X59225Y-31024D01*
X59118Y-31024D01*
X59056Y-31049D01*
X59009Y-31097D01*
X58983Y-31158D01*
X58983Y-31225D01*
X58983Y-31366D01*
X59025Y-31408D01*
X59267Y-31408D01*
X59267Y-31426D01*
X59025Y-31426D01*
X58983Y-31468D01*
X58983Y-31609D01*
X58983Y-31676D01*
X59006Y-31732D01*
X58983Y-31788D01*
X58983Y-31855D01*
X58983Y-31986D01*
X58969Y-31971D01*
X58969Y-31789D01*
X58945Y-31730D01*
X58969Y-31676D01*
X58969Y-31609D01*
X58969Y-31159D01*
X58944Y-31097D01*
X58896Y-31050D01*
X58835Y-31024D01*
X58768Y-31024D01*
X58518Y-31024D01*
X58456Y-31049D01*
X58409Y-31097D01*
X58383Y-31158D01*
X58383Y-31225D01*
X58383Y-31525D01*
X58364Y-31518D01*
X58227Y-31518D01*
X58101Y-31570D01*
X58072Y-31598D01*
X57316Y-29647D01*
X57314Y-29644D01*
X57314Y-29643D01*
X57304Y-29629D01*
X57273Y-29579D01*
X57269Y-29576D01*
X57107Y-29414D01*
X57059Y-29381D01*
X57050Y-29375D01*
X57046Y-29373D01*
X57040Y-29369D01*
X57035Y-29368D01*
X55606Y-28679D01*
X55580Y-28672D01*
X55564Y-28665D01*
X54280Y-28357D01*
X54257Y-28356D01*
X54232Y-28351D01*
X54187Y-28351D01*
X54164Y-28341D01*
X54097Y-28341D01*
X53797Y-28341D01*
X53735Y-28366D01*
X53688Y-28414D01*
X53662Y-28475D01*
X53662Y-28542D01*
X53662Y-28640D01*
X53668Y-28656D01*
X53662Y-28672D01*
X53662Y-28739D01*
X53662Y-28837D01*
X53668Y-28853D01*
X53662Y-28870D01*
X53662Y-28901D01*
X53704Y-28943D01*
X53731Y-28943D01*
X53735Y-28946D01*
X53748Y-28951D01*
X53735Y-28957D01*
X53731Y-28961D01*
X53704Y-28961D01*
X53662Y-29003D01*
X53662Y-29034D01*
X53668Y-29050D01*
X53662Y-29066D01*
X53662Y-29133D01*
X53662Y-29231D01*
X53668Y-29247D01*
X53662Y-29263D01*
X53662Y-29330D01*
X53662Y-29428D01*
X53687Y-29490D01*
X53735Y-29537D01*
X53796Y-29563D01*
X53863Y-29563D01*
X54150Y-29563D01*
X54419Y-29646D01*
X54380Y-29662D01*
X54333Y-29710D01*
X54307Y-29771D01*
X54307Y-29838D01*
X54307Y-29934D01*
X54349Y-29976D01*
X54596Y-29976D01*
X54646Y-29976D01*
X54664Y-29976D01*
X54714Y-29976D01*
X54961Y-29976D01*
X54983Y-29954D01*
X55007Y-29954D01*
X55007Y-30198D01*
X55032Y-30260D01*
X55080Y-30307D01*
X55141Y-30333D01*
X55208Y-30333D01*
X55568Y-30333D01*
X55630Y-30308D01*
X55677Y-30260D01*
X55689Y-30230D01*
X55829Y-30230D01*
X55829Y-30319D01*
X55854Y-30381D01*
X55902Y-30428D01*
X55963Y-30454D01*
X56030Y-30454D01*
X56280Y-30454D01*
X56342Y-30429D01*
X56389Y-30381D01*
X56415Y-30320D01*
X56415Y-30253D01*
X56415Y-29850D01*
X56429Y-29852D01*
X56429Y-29869D01*
X56429Y-30319D01*
X56454Y-30381D01*
X56502Y-30428D01*
X56554Y-30450D01*
X56665Y-30680D01*
X56628Y-30770D01*
X56628Y-30907D01*
X56680Y-31033D01*
X56777Y-31130D01*
X56903Y-31183D01*
X57040Y-31183D01*
X57166Y-31131D01*
X57236Y-31060D01*
X57480Y-31689D01*
X57474Y-31696D01*
X57474Y-31988D01*
X57474Y-32038D01*
X57474Y-32056D01*
X57474Y-32106D01*
X57474Y-32398D01*
X57516Y-32440D01*
X57623Y-32440D01*
X57685Y-32415D01*
X57732Y-32367D01*
X57758Y-32306D01*
X57758Y-32259D01*
X57852Y-32354D01*
X57788Y-32419D01*
X57735Y-32545D01*
X57735Y-32608D01*
X57456Y-32934D01*
X57456Y-32398D01*
X57456Y-32056D01*
X57456Y-32038D01*
X57456Y-31696D01*
X57414Y-31654D01*
X57307Y-31654D01*
X57245Y-31679D01*
X57198Y-31727D01*
X57172Y-31788D01*
X57172Y-31855D01*
X57172Y-31996D01*
X57214Y-32038D01*
X57456Y-32038D01*
X57456Y-32056D01*
X57214Y-32056D01*
X57172Y-32098D01*
X57172Y-32239D01*
X57172Y-32306D01*
X57198Y-32367D01*
X57245Y-32415D01*
X57307Y-32440D01*
X57414Y-32440D01*
X57456Y-32398D01*
X57456Y-32934D01*
X57334Y-33077D01*
X57314Y-33111D01*
X57290Y-33148D01*
X57287Y-33159D01*
X57283Y-33168D01*
X57279Y-33196D01*
X57269Y-33207D01*
X57243Y-33268D01*
X57243Y-33335D01*
X57243Y-33785D01*
X57268Y-33847D01*
X57270Y-33849D01*
X57277Y-34955D01*
X57277Y-34956D01*
X57251Y-35017D01*
X57251Y-35084D01*
X57251Y-35468D01*
X57237Y-35482D01*
X57237Y-35468D01*
X57237Y-35327D01*
X57237Y-35225D01*
X57237Y-35084D01*
X57237Y-35017D01*
X57229Y-34998D01*
X57229Y-33786D01*
X57229Y-33719D01*
X57229Y-33578D01*
X57229Y-33476D01*
X57229Y-33335D01*
X57229Y-33268D01*
X57203Y-33207D01*
X57156Y-33159D01*
X57094Y-33134D01*
X56987Y-33134D01*
X56945Y-33176D01*
X56945Y-33518D01*
X57187Y-33518D01*
X57229Y-33476D01*
X57229Y-33578D01*
X57187Y-33536D01*
X56945Y-33536D01*
X56945Y-33878D01*
X56987Y-33920D01*
X57094Y-33920D01*
X57156Y-33895D01*
X57203Y-33847D01*
X57229Y-33786D01*
X57229Y-34998D01*
X57211Y-34956D01*
X57164Y-34908D01*
X57102Y-34883D01*
X56995Y-34883D01*
X56953Y-34925D01*
X56953Y-35267D01*
X57195Y-35267D01*
X57237Y-35225D01*
X57237Y-35327D01*
X57195Y-35285D01*
X57003Y-35285D01*
X56953Y-35285D01*
X56935Y-35285D01*
X56935Y-35267D01*
X56935Y-35217D01*
X56935Y-34925D01*
X56904Y-34894D01*
X56899Y-33929D01*
X56899Y-33928D01*
X56899Y-33906D01*
X56927Y-33878D01*
X56927Y-33586D01*
X56927Y-33536D01*
X56927Y-33518D01*
X56927Y-33468D01*
X56927Y-33176D01*
X56911Y-33160D01*
X56940Y-32955D01*
X57111Y-32426D01*
X57118Y-32406D01*
X57121Y-32377D01*
X57132Y-32367D01*
X57158Y-32306D01*
X57158Y-32239D01*
X57158Y-31789D01*
X57133Y-31727D01*
X57085Y-31680D01*
X57024Y-31654D01*
X56957Y-31654D01*
X56707Y-31654D01*
X56645Y-31679D01*
X56598Y-31727D01*
X56572Y-31788D01*
X56572Y-31829D01*
X56056Y-31829D01*
X56056Y-31533D01*
X56031Y-31471D01*
X55983Y-31424D01*
X55922Y-31398D01*
X55855Y-31398D01*
X55265Y-31398D01*
X55203Y-31423D01*
X55156Y-31471D01*
X55130Y-31532D01*
X55130Y-31599D01*
X55130Y-32859D01*
X55155Y-32921D01*
X55203Y-32968D01*
X55264Y-32994D01*
X55331Y-32994D01*
X55921Y-32994D01*
X55983Y-32969D01*
X56030Y-32921D01*
X56056Y-32860D01*
X56056Y-32793D01*
X56056Y-32361D01*
X56573Y-32361D01*
X56428Y-32815D01*
X56425Y-32836D01*
X56418Y-32858D01*
X56370Y-33190D01*
X56370Y-33208D01*
X56367Y-33228D01*
X56367Y-33678D01*
X56367Y-33825D01*
X56367Y-33929D01*
X56367Y-33930D01*
X56369Y-34456D01*
X56329Y-34439D01*
X56192Y-34439D01*
X56066Y-34491D01*
X55978Y-34578D01*
X55978Y-33805D01*
X55978Y-33668D01*
X55926Y-33542D01*
X55829Y-33445D01*
X55703Y-33392D01*
X55566Y-33392D01*
X55440Y-33444D01*
X55430Y-33453D01*
X53947Y-32994D01*
X53953Y-32994D01*
X54543Y-32994D01*
X54605Y-32969D01*
X54652Y-32921D01*
X54678Y-32860D01*
X54678Y-32793D01*
X54678Y-31533D01*
X54653Y-31471D01*
X54605Y-31424D01*
X54553Y-31401D01*
X54553Y-31240D01*
X54744Y-31113D01*
X54791Y-31133D01*
X54858Y-31133D01*
X55218Y-31133D01*
X55280Y-31108D01*
X55327Y-31060D01*
X55353Y-30999D01*
X55353Y-30932D01*
X55353Y-30572D01*
X55328Y-30510D01*
X55280Y-30463D01*
X55219Y-30437D01*
X55152Y-30437D01*
X55003Y-30437D01*
X55003Y-30199D01*
X55003Y-30132D01*
X55003Y-30036D01*
X54961Y-29994D01*
X54664Y-29994D01*
X54664Y-30291D01*
X54706Y-30333D01*
X54868Y-30333D01*
X54930Y-30308D01*
X54977Y-30260D01*
X55003Y-30199D01*
X55003Y-30437D01*
X54792Y-30437D01*
X54730Y-30462D01*
X54683Y-30510D01*
X54671Y-30537D01*
X54649Y-30542D01*
X54646Y-30543D01*
X54646Y-30291D01*
X54646Y-29994D01*
X54349Y-29994D01*
X54307Y-30036D01*
X54307Y-30132D01*
X54307Y-30199D01*
X54333Y-30260D01*
X54380Y-30308D01*
X54442Y-30333D01*
X54604Y-30333D01*
X54646Y-30291D01*
X54646Y-30543D01*
X54624Y-30558D01*
X54604Y-30567D01*
X54304Y-30766D01*
X54302Y-30765D01*
X54264Y-30744D01*
X54234Y-30724D01*
X54227Y-30722D01*
X54227Y-30720D01*
X54202Y-30658D01*
X54154Y-30611D01*
X54093Y-30585D01*
X54026Y-30585D01*
X53632Y-30585D01*
X53570Y-30610D01*
X53523Y-30658D01*
X53497Y-30719D01*
X53497Y-30786D01*
X53497Y-31180D01*
X53522Y-31242D01*
X53570Y-31289D01*
X53631Y-31315D01*
X53698Y-31315D01*
X54021Y-31315D01*
X54021Y-31398D01*
X53887Y-31398D01*
X53825Y-31423D01*
X53778Y-31471D01*
X53752Y-31532D01*
X53752Y-31599D01*
X53752Y-32859D01*
X53777Y-32921D01*
X53807Y-32950D01*
X53203Y-32763D01*
X53203Y-31181D01*
X53203Y-31114D01*
X53203Y-30720D01*
X53178Y-30658D01*
X53130Y-30611D01*
X53069Y-30585D01*
X53002Y-30585D01*
X52608Y-30585D01*
X52546Y-30610D01*
X52499Y-30658D01*
X52489Y-30681D01*
X52244Y-30681D01*
X52222Y-30625D01*
X52175Y-30579D01*
X52195Y-30384D01*
X52193Y-30373D01*
X52196Y-30363D01*
X52196Y-30118D01*
X52194Y-30108D01*
X52195Y-30103D01*
X52092Y-28643D01*
X52082Y-28607D01*
X52077Y-28579D01*
X52073Y-28573D01*
X52071Y-28565D01*
X52053Y-28542D01*
X52033Y-28511D01*
X51964Y-28442D01*
X51963Y-28441D01*
X51934Y-28412D01*
X51867Y-28367D01*
X51859Y-28365D01*
X51802Y-28341D01*
X51735Y-28341D01*
X51435Y-28341D01*
X51373Y-28366D01*
X51326Y-28414D01*
X51300Y-28475D01*
X51300Y-28542D01*
X51300Y-28548D01*
X50993Y-28548D01*
X50993Y-28492D01*
X50968Y-28430D01*
X50920Y-28383D01*
X50859Y-28357D01*
X50792Y-28357D01*
X50406Y-28357D01*
X50400Y-28359D01*
X50394Y-28357D01*
X50219Y-28357D01*
X50177Y-28399D01*
X50177Y-28691D01*
X50177Y-28741D01*
X50177Y-28759D01*
X50177Y-28809D01*
X50177Y-29101D01*
X50219Y-29143D01*
X50279Y-29143D01*
X50187Y-29352D01*
X50159Y-29352D01*
X50159Y-29101D01*
X50159Y-28759D01*
X50159Y-28741D01*
X50159Y-28399D01*
X50117Y-28357D01*
X49942Y-28357D01*
X49880Y-28382D01*
X49833Y-28430D01*
X49807Y-28491D01*
X49807Y-28558D01*
X49807Y-28699D01*
X49849Y-28741D01*
X50159Y-28741D01*
X50159Y-28759D01*
X49849Y-28759D01*
X49807Y-28801D01*
X49807Y-28942D01*
X49807Y-29009D01*
X49833Y-29070D01*
X49880Y-29118D01*
X49942Y-29143D01*
X50117Y-29143D01*
X50159Y-29101D01*
X50159Y-29352D01*
X50087Y-29352D01*
X50025Y-29377D01*
X49978Y-29425D01*
X49952Y-29486D01*
X49952Y-29553D01*
X49952Y-29913D01*
X49977Y-29975D01*
X50025Y-30022D01*
X50086Y-30048D01*
X50153Y-30048D01*
X50513Y-30048D01*
X50575Y-30023D01*
X50622Y-29975D01*
X50648Y-29914D01*
X50648Y-29847D01*
X50648Y-29487D01*
X50623Y-29425D01*
X50612Y-29414D01*
X50731Y-29143D01*
X50858Y-29143D01*
X50920Y-29118D01*
X50967Y-29070D01*
X50993Y-29009D01*
X50993Y-28962D01*
X51300Y-28962D01*
X51300Y-29005D01*
X51274Y-29030D01*
X51271Y-29033D01*
X51203Y-29103D01*
X51188Y-29125D01*
X51159Y-29169D01*
X51143Y-29248D01*
X51143Y-29346D01*
X51143Y-29370D01*
X51143Y-29444D01*
X51143Y-29445D01*
X51143Y-29447D01*
X51153Y-29495D01*
X51159Y-29523D01*
X51160Y-29526D01*
X51392Y-30067D01*
X51349Y-30171D01*
X51349Y-30308D01*
X51401Y-30434D01*
X51498Y-30531D01*
X51624Y-30584D01*
X51727Y-30584D01*
X51687Y-30625D01*
X51661Y-30686D01*
X51661Y-30753D01*
X51661Y-31203D01*
X51686Y-31265D01*
X51734Y-31312D01*
X51795Y-31338D01*
X51862Y-31338D01*
X52112Y-31338D01*
X52174Y-31313D01*
X52221Y-31265D01*
X52243Y-31213D01*
X52486Y-31213D01*
X52498Y-31242D01*
X52546Y-31289D01*
X52607Y-31315D01*
X52674Y-31315D01*
X53068Y-31315D01*
X53130Y-31290D01*
X53177Y-31242D01*
X53203Y-31181D01*
X53203Y-32763D01*
X51647Y-32281D01*
X51647Y-31204D01*
X51647Y-31137D01*
X51647Y-30996D01*
X51647Y-30894D01*
X51647Y-30753D01*
X51647Y-30686D01*
X51621Y-30625D01*
X51574Y-30577D01*
X51512Y-30552D01*
X51405Y-30552D01*
X51363Y-30594D01*
X51363Y-30936D01*
X51605Y-30936D01*
X51647Y-30894D01*
X51647Y-30996D01*
X51605Y-30954D01*
X51363Y-30954D01*
X51363Y-31296D01*
X51405Y-31338D01*
X51512Y-31338D01*
X51574Y-31313D01*
X51621Y-31265D01*
X51647Y-31204D01*
X51647Y-32281D01*
X51345Y-32187D01*
X51345Y-31296D01*
X51345Y-30954D01*
X51345Y-30936D01*
X51345Y-30594D01*
X51303Y-30552D01*
X51196Y-30552D01*
X51134Y-30577D01*
X51087Y-30625D01*
X51061Y-30686D01*
X51061Y-30753D01*
X51061Y-30894D01*
X51103Y-30936D01*
X51345Y-30936D01*
X51345Y-30954D01*
X51103Y-30954D01*
X51061Y-30996D01*
X51061Y-31137D01*
X51061Y-31204D01*
X51087Y-31265D01*
X51134Y-31313D01*
X51196Y-31338D01*
X51303Y-31338D01*
X51345Y-31296D01*
X51345Y-32187D01*
X50998Y-32080D01*
X50998Y-30714D01*
X50998Y-30647D01*
X50998Y-30551D01*
X50998Y-30449D01*
X50998Y-30353D01*
X50998Y-30286D01*
X50972Y-30225D01*
X50925Y-30177D01*
X50863Y-30152D01*
X50701Y-30152D01*
X50659Y-30194D01*
X50659Y-30491D01*
X50956Y-30491D01*
X50998Y-30449D01*
X50998Y-30551D01*
X50956Y-30509D01*
X50659Y-30509D01*
X50659Y-30806D01*
X50701Y-30848D01*
X50863Y-30848D01*
X50925Y-30823D01*
X50972Y-30775D01*
X50998Y-30714D01*
X50998Y-32080D01*
X50641Y-31970D01*
X50641Y-30806D01*
X50641Y-30509D01*
X50641Y-30491D01*
X50641Y-30194D01*
X50599Y-30152D01*
X50437Y-30152D01*
X50375Y-30177D01*
X50328Y-30225D01*
X50302Y-30286D01*
X50302Y-30353D01*
X50302Y-30449D01*
X50344Y-30491D01*
X50641Y-30491D01*
X50641Y-30509D01*
X50344Y-30509D01*
X50302Y-30551D01*
X50302Y-30647D01*
X50302Y-30714D01*
X50328Y-30775D01*
X50375Y-30823D01*
X50437Y-30848D01*
X50599Y-30848D01*
X50641Y-30806D01*
X50641Y-31970D01*
X50389Y-31892D01*
X50389Y-31890D01*
X50389Y-31640D01*
X50389Y-31357D01*
X50389Y-31290D01*
X50389Y-31040D01*
X50364Y-30978D01*
X50316Y-30931D01*
X50255Y-30905D01*
X50188Y-30905D01*
X50180Y-30905D01*
X50180Y-30841D01*
X50225Y-30823D01*
X50272Y-30775D01*
X50298Y-30714D01*
X50298Y-30647D01*
X50298Y-30287D01*
X50273Y-30225D01*
X50225Y-30178D01*
X50164Y-30152D01*
X50097Y-30152D01*
X49737Y-30152D01*
X49675Y-30177D01*
X49628Y-30225D01*
X49602Y-30286D01*
X49602Y-30353D01*
X49602Y-30713D01*
X49627Y-30775D01*
X49675Y-30822D01*
X49736Y-30848D01*
X49766Y-30848D01*
X49766Y-30905D01*
X49738Y-30905D01*
X49676Y-30930D01*
X49629Y-30978D01*
X49603Y-31039D01*
X49603Y-31106D01*
X49603Y-31356D01*
X49628Y-31418D01*
X49676Y-31465D01*
X49737Y-31491D01*
X49804Y-31491D01*
X50254Y-31491D01*
X50316Y-31466D01*
X50363Y-31418D01*
X50389Y-31357D01*
X50389Y-31640D01*
X50364Y-31578D01*
X50316Y-31531D01*
X50255Y-31505D01*
X50188Y-31505D01*
X49738Y-31505D01*
X49676Y-31530D01*
X49629Y-31578D01*
X49603Y-31639D01*
X49603Y-31706D01*
X49603Y-31956D01*
X49628Y-32018D01*
X49676Y-32065D01*
X49737Y-32091D01*
X49804Y-32091D01*
X49937Y-32091D01*
X49956Y-32118D01*
X50025Y-32188D01*
X50034Y-32194D01*
X50040Y-32201D01*
X50069Y-32217D01*
X50092Y-32232D01*
X50099Y-32233D01*
X50111Y-32240D01*
X55308Y-33849D01*
X55342Y-33930D01*
X55439Y-34027D01*
X55565Y-34080D01*
X55702Y-34080D01*
X55828Y-34028D01*
X55925Y-33931D01*
X55978Y-33805D01*
X55978Y-34578D01*
X55974Y-34582D01*
X49895Y-34625D01*
X49881Y-34627D01*
X49866Y-34627D01*
X49804Y-34636D01*
X49777Y-34645D01*
X49753Y-34650D01*
X49739Y-34658D01*
X49728Y-34663D01*
X49711Y-34677D01*
X49686Y-34695D01*
X49623Y-34759D01*
X49599Y-34793D01*
X49566Y-34807D01*
X49548Y-34824D01*
X49480Y-34753D01*
X49480Y-28730D01*
X49295Y-28238D01*
X49246Y-28165D01*
X49080Y-28033D01*
X48163Y-28950D01*
X49080Y-29867D01*
X49246Y-29735D01*
X49463Y-29256D01*
X49480Y-28730D01*
X49480Y-34753D01*
X49067Y-34323D01*
X49067Y-29880D01*
X48150Y-28963D01*
X47233Y-29880D01*
X47365Y-30046D01*
X47844Y-30263D01*
X48370Y-30280D01*
X48862Y-30095D01*
X48935Y-30046D01*
X49067Y-29880D01*
X49067Y-34323D01*
X48642Y-33882D01*
X48640Y-33880D01*
X48639Y-33879D01*
X48570Y-33811D01*
X48543Y-33792D01*
X48543Y-33592D01*
X48518Y-33530D01*
X48470Y-33483D01*
X48409Y-33457D01*
X48342Y-33457D01*
X48092Y-33457D01*
X48030Y-33482D01*
X47983Y-33530D01*
X47957Y-33591D01*
X47957Y-33658D01*
X47957Y-34108D01*
X47982Y-34170D01*
X48030Y-34217D01*
X48091Y-34243D01*
X48158Y-34243D01*
X48408Y-34243D01*
X48412Y-34241D01*
X49158Y-35016D01*
X48543Y-34826D01*
X48543Y-34642D01*
X48518Y-34580D01*
X48470Y-34533D01*
X48409Y-34507D01*
X48342Y-34507D01*
X48092Y-34507D01*
X48030Y-34532D01*
X47983Y-34580D01*
X47957Y-34641D01*
X47957Y-34708D01*
X47957Y-35158D01*
X47982Y-35220D01*
X48030Y-35267D01*
X48091Y-35293D01*
X48158Y-35293D01*
X48408Y-35293D01*
X48470Y-35268D01*
X48492Y-35244D01*
X49492Y-35552D01*
X49492Y-35555D01*
X49492Y-35644D01*
X49492Y-35646D01*
X49476Y-35643D01*
X49470Y-35643D01*
X49413Y-35643D01*
X49381Y-35649D01*
X49353Y-35650D01*
X48629Y-35816D01*
X48595Y-35783D01*
X48534Y-35757D01*
X48467Y-35757D01*
X48117Y-35757D01*
X48055Y-35782D01*
X48008Y-35830D01*
X47982Y-35891D01*
X47982Y-35958D01*
X47982Y-36508D01*
X48007Y-36570D01*
X48055Y-36617D01*
X48059Y-36618D01*
X48059Y-36780D01*
X48055Y-36782D01*
X48008Y-36830D01*
X47982Y-36891D01*
X47982Y-36958D01*
X47982Y-37508D01*
X48007Y-37570D01*
X48055Y-37617D01*
X48059Y-37618D01*
X48059Y-37780D01*
X48055Y-37782D01*
X48008Y-37830D01*
X47982Y-37891D01*
X47982Y-37958D01*
X47982Y-38508D01*
X48007Y-38570D01*
X48055Y-38617D01*
X48059Y-38618D01*
X48059Y-38880D01*
X48055Y-38882D01*
X48008Y-38930D01*
X47982Y-38991D01*
X47982Y-39058D01*
X47982Y-39608D01*
X48007Y-39670D01*
X48055Y-39717D01*
X48116Y-39743D01*
X48183Y-39743D01*
X48533Y-39743D01*
X48595Y-39718D01*
X48642Y-39670D01*
X48668Y-39609D01*
X48668Y-39542D01*
X48668Y-38992D01*
X48643Y-38930D01*
X48595Y-38883D01*
X48591Y-38881D01*
X48591Y-38619D01*
X48595Y-38618D01*
X48642Y-38570D01*
X48668Y-38509D01*
X48668Y-38442D01*
X48668Y-37892D01*
X48643Y-37830D01*
X48595Y-37783D01*
X48591Y-37781D01*
X48591Y-37619D01*
X48595Y-37618D01*
X48642Y-37570D01*
X48668Y-37509D01*
X48668Y-37442D01*
X48668Y-36892D01*
X48643Y-36830D01*
X48595Y-36783D01*
X48591Y-36781D01*
X48591Y-36619D01*
X48595Y-36618D01*
X48642Y-36570D01*
X48668Y-36509D01*
X48668Y-36442D01*
X48668Y-36352D01*
X49263Y-36216D01*
X49297Y-36263D01*
X49384Y-36319D01*
X49486Y-36337D01*
X49510Y-36331D01*
X49538Y-36348D01*
X49539Y-36348D01*
X49540Y-36348D01*
X49571Y-36368D01*
X49578Y-36370D01*
X49588Y-36380D01*
X49670Y-36414D01*
X49759Y-36414D01*
X49867Y-36414D01*
X49886Y-36406D01*
X49913Y-36417D01*
X50249Y-36417D01*
X50291Y-36375D01*
X50291Y-35659D01*
X50291Y-35609D01*
X50291Y-35591D01*
X50309Y-35591D01*
X50309Y-35609D01*
X50309Y-35659D01*
X50309Y-36375D01*
X50351Y-36417D01*
X50670Y-36417D01*
X50505Y-36670D01*
X50495Y-36692D01*
X50482Y-36713D01*
X50480Y-36720D01*
X50164Y-36720D01*
X50102Y-36745D01*
X50055Y-36793D01*
X50029Y-36854D01*
X50029Y-36921D01*
X50029Y-37707D01*
X50054Y-37769D01*
X50102Y-37816D01*
X50163Y-37842D01*
X50230Y-37842D01*
X50938Y-37842D01*
X51000Y-37817D01*
X51047Y-37769D01*
X51073Y-37708D01*
X51073Y-37641D01*
X51073Y-36855D01*
X51065Y-36835D01*
X51456Y-37221D01*
X51458Y-37224D01*
X51459Y-37224D01*
X51544Y-37282D01*
X51546Y-37282D01*
X51551Y-37283D01*
X51551Y-39080D01*
X51073Y-39084D01*
X51073Y-38355D01*
X51048Y-38293D01*
X51000Y-38246D01*
X50939Y-38220D01*
X50872Y-38220D01*
X50164Y-38220D01*
X50102Y-38245D01*
X50055Y-38293D01*
X50029Y-38354D01*
X50029Y-38421D01*
X50029Y-39207D01*
X50054Y-39269D01*
X50102Y-39316D01*
X50163Y-39342D01*
X50230Y-39342D01*
X50480Y-39342D01*
X50482Y-39352D01*
X50521Y-39410D01*
X50540Y-39437D01*
X50541Y-39438D01*
X50644Y-39540D01*
X50645Y-39541D01*
X50673Y-39559D01*
X50730Y-39598D01*
X50731Y-39598D01*
X50832Y-39618D01*
X50833Y-39618D01*
X50979Y-39618D01*
X50980Y-39617D01*
X50982Y-39618D01*
X54140Y-39585D01*
X54157Y-39585D01*
X54196Y-39576D01*
X54243Y-39570D01*
X54258Y-39564D01*
X54768Y-39383D01*
X54791Y-39393D01*
X54858Y-39393D01*
X55308Y-39393D01*
X55370Y-39368D01*
X55379Y-39358D01*
X55393Y-39358D01*
X55410Y-39349D01*
X55429Y-39346D01*
X55455Y-39327D01*
X55487Y-39313D01*
X55524Y-39285D01*
X55607Y-39285D01*
X55733Y-39233D01*
X55830Y-39136D01*
X55865Y-39052D01*
X55865Y-39076D01*
X55865Y-39084D01*
X55865Y-39233D01*
X55890Y-39295D01*
X55938Y-39342D01*
X55999Y-39368D01*
X56066Y-39368D01*
X56257Y-39368D01*
X56299Y-39326D01*
X56299Y-39084D01*
X56299Y-39034D01*
X56299Y-39016D01*
X56299Y-38966D01*
X56299Y-38724D01*
X56257Y-38682D01*
X56066Y-38682D01*
X55999Y-38682D01*
X55938Y-38708D01*
X55890Y-38755D01*
X55865Y-38817D01*
X55865Y-38829D01*
X55831Y-38747D01*
X55734Y-38650D01*
X55718Y-38643D01*
X55918Y-38572D01*
X55938Y-38592D01*
X55999Y-38618D01*
X56066Y-38618D01*
X56616Y-38618D01*
X56678Y-38593D01*
X56725Y-38545D01*
X56726Y-38541D01*
X56830Y-38541D01*
X56832Y-38545D01*
X56880Y-38592D01*
X56941Y-38618D01*
X57008Y-38618D01*
X57558Y-38618D01*
X57620Y-38593D01*
X57667Y-38545D01*
X57668Y-38541D01*
X57880Y-38541D01*
X57882Y-38545D01*
X57930Y-38592D01*
X57991Y-38618D01*
X58058Y-38618D01*
X58608Y-38618D01*
X58670Y-38593D01*
X58717Y-38545D01*
X58718Y-38541D01*
X58930Y-38541D01*
X58932Y-38545D01*
X58980Y-38592D01*
X59041Y-38618D01*
X59108Y-38618D01*
X59658Y-38618D01*
X59720Y-38593D01*
X59767Y-38545D01*
X59775Y-38525D01*
X59799Y-38521D01*
X59885Y-38463D01*
X59955Y-38393D01*
X62995Y-39072D01*
X63014Y-39072D01*
X63051Y-39080D01*
X63106Y-39080D01*
X63868Y-39628D01*
X63766Y-39628D01*
X63574Y-39707D01*
X63427Y-39854D01*
X63347Y-40045D01*
X63347Y-40253D01*
X63426Y-40445D01*
X63573Y-40592D01*
X63764Y-40672D01*
X63972Y-40672D01*
X64164Y-40593D01*
X64311Y-40446D01*
X64391Y-40255D01*
X64391Y-40047D01*
X64365Y-39985D01*
X64528Y-40102D01*
X64528Y-40253D01*
X64607Y-40445D01*
X64754Y-40592D01*
X64945Y-40672D01*
X65153Y-40672D01*
X65345Y-40593D01*
X65492Y-40446D01*
X65572Y-40255D01*
X65572Y-40057D01*
X65775Y-39886D01*
X65709Y-40045D01*
X65709Y-40253D01*
X65788Y-40445D01*
X65935Y-40592D01*
X66126Y-40672D01*
X66334Y-40672D01*
X66526Y-40593D01*
X66673Y-40446D01*
X66685Y-40416D01*
X67504Y-40416D01*
X67504Y-41058D01*
X67529Y-41120D01*
X67577Y-41167D01*
X67638Y-41193D01*
X67705Y-41193D01*
X68885Y-41193D01*
X68947Y-41168D01*
X68994Y-41120D01*
X69020Y-41059D01*
X69020Y-40992D01*
X69020Y-39812D01*
X68995Y-39750D01*
X68947Y-39703D01*
X68886Y-39677D01*
X68819Y-39677D01*
X67639Y-39677D01*
X67577Y-39702D01*
X67530Y-39750D01*
X67504Y-39811D01*
X67504Y-39878D01*
X67504Y-39884D01*
X66685Y-39884D01*
X66674Y-39855D01*
X66527Y-39708D01*
X66336Y-39628D01*
X66128Y-39628D01*
X66038Y-39665D01*
X67780Y-38198D01*
X69096Y-38695D01*
X69100Y-38698D01*
X69105Y-38699D01*
X69107Y-38699D01*
X69107Y-38758D01*
X69132Y-38820D01*
X69180Y-38867D01*
X69241Y-38893D01*
X69308Y-38893D01*
X69558Y-38893D01*
X69620Y-38868D01*
X69667Y-38820D01*
X69693Y-38759D01*
X69693Y-38692D01*
X69693Y-38345D01*
X69707Y-38339D01*
X69707Y-38449D01*
X69749Y-38491D01*
X69941Y-38491D01*
X69991Y-38491D01*
X70009Y-38491D01*
X70059Y-38491D01*
X70251Y-38491D01*
X70293Y-38449D01*
X70293Y-38308D01*
X70293Y-38241D01*
X70267Y-38180D01*
X70220Y-38132D01*
X70208Y-38127D01*
X70467Y-38017D01*
X70549Y-38061D01*
X70562Y-38065D01*
X70574Y-38073D01*
X70609Y-38079D01*
X70648Y-38092D01*
X70663Y-38090D01*
X70676Y-38093D01*
X70876Y-38093D01*
X71024Y-38093D01*
X71036Y-38090D01*
X71052Y-38092D01*
X71090Y-38079D01*
X71126Y-38073D01*
X71137Y-38065D01*
X71151Y-38061D01*
X71268Y-37996D01*
X71292Y-37984D01*
X71321Y-37959D01*
X71354Y-37938D01*
X71373Y-37918D01*
X71413Y-37879D01*
X71471Y-37793D01*
X71491Y-37691D01*
X71491Y-37688D01*
X71493Y-37684D01*
X71493Y-37617D01*
X71493Y-37317D01*
X71493Y-36684D01*
X71493Y-36617D01*
X71493Y-36317D01*
X71468Y-36255D01*
X71420Y-36208D01*
X71359Y-36182D01*
X71292Y-36182D01*
X71092Y-36182D01*
X71037Y-36204D01*
X71037Y-30832D01*
X70957Y-30628D01*
X70943Y-30606D01*
X70858Y-30568D01*
X70845Y-30581D01*
X70845Y-30555D01*
X70845Y-28545D01*
X70485Y-28185D01*
X70472Y-28198D01*
X70472Y-28172D01*
X70112Y-27812D01*
X70027Y-27850D01*
X69938Y-28050D01*
X69933Y-28268D01*
X70013Y-28472D01*
X70027Y-28494D01*
X70112Y-28532D01*
X70472Y-28172D01*
X70472Y-28198D01*
X70125Y-28545D01*
X70163Y-28630D01*
X70363Y-28719D01*
X70581Y-28724D01*
X70785Y-28644D01*
X70807Y-28630D01*
X70845Y-28545D01*
X70845Y-30555D01*
X70807Y-30470D01*
X70607Y-30381D01*
X70389Y-30376D01*
X70185Y-30456D01*
X70163Y-30470D01*
X70130Y-30543D01*
X70130Y-28969D01*
X70050Y-28765D01*
X70036Y-28743D01*
X69951Y-28705D01*
X69938Y-28718D01*
X69938Y-28692D01*
X69900Y-28607D01*
X69700Y-28518D01*
X69541Y-28514D01*
X69541Y-28000D01*
X69475Y-27832D01*
X69465Y-27817D01*
X69389Y-27790D01*
X69099Y-28081D01*
X69389Y-28372D01*
X69465Y-28345D01*
X69537Y-28180D01*
X69541Y-28000D01*
X69541Y-28514D01*
X69482Y-28513D01*
X69377Y-28554D01*
X69377Y-28384D01*
X69086Y-28094D01*
X69073Y-28106D01*
X69073Y-28081D01*
X68783Y-27790D01*
X68707Y-27817D01*
X68635Y-27982D01*
X68631Y-28162D01*
X68697Y-28330D01*
X68707Y-28345D01*
X68783Y-28372D01*
X69073Y-28081D01*
X69073Y-28106D01*
X68795Y-28384D01*
X68822Y-28460D01*
X68987Y-28532D01*
X69167Y-28536D01*
X69335Y-28470D01*
X69350Y-28460D01*
X69377Y-28384D01*
X69377Y-28554D01*
X69278Y-28593D01*
X69256Y-28607D01*
X69218Y-28692D01*
X69578Y-29052D01*
X69938Y-28692D01*
X69938Y-28718D01*
X69591Y-29065D01*
X69951Y-29425D01*
X70036Y-29387D01*
X70125Y-29187D01*
X70130Y-28969D01*
X70130Y-30543D01*
X70125Y-30555D01*
X70485Y-30915D01*
X70845Y-30555D01*
X70845Y-30581D01*
X70498Y-30928D01*
X70858Y-31288D01*
X70943Y-31250D01*
X71032Y-31050D01*
X71037Y-30832D01*
X71037Y-36204D01*
X71030Y-36207D01*
X70983Y-36255D01*
X70957Y-36316D01*
X70957Y-36383D01*
X70957Y-36683D01*
X70982Y-36745D01*
X71030Y-36792D01*
X71091Y-36818D01*
X71158Y-36818D01*
X71358Y-36818D01*
X71420Y-36793D01*
X71467Y-36745D01*
X71493Y-36684D01*
X71493Y-37317D01*
X71468Y-37255D01*
X71420Y-37208D01*
X71359Y-37182D01*
X71292Y-37182D01*
X71092Y-37182D01*
X71037Y-37203D01*
X70983Y-37182D01*
X70901Y-37182D01*
X70859Y-37224D01*
X70859Y-37441D01*
X70859Y-37491D01*
X70859Y-37509D01*
X70845Y-37509D01*
X70845Y-31301D01*
X70485Y-30941D01*
X70472Y-30954D01*
X70472Y-30928D01*
X70112Y-30568D01*
X70027Y-30606D01*
X69938Y-30806D01*
X69938Y-29438D01*
X69578Y-29078D01*
X69565Y-29091D01*
X69565Y-29065D01*
X69205Y-28705D01*
X69120Y-28743D01*
X69031Y-28943D01*
X69026Y-29161D01*
X69106Y-29365D01*
X69120Y-29387D01*
X69205Y-29425D01*
X69565Y-29065D01*
X69565Y-29091D01*
X69218Y-29438D01*
X69256Y-29523D01*
X69456Y-29612D01*
X69674Y-29617D01*
X69878Y-29537D01*
X69900Y-29523D01*
X69938Y-29438D01*
X69938Y-30806D01*
X69933Y-31024D01*
X70013Y-31228D01*
X70027Y-31250D01*
X70112Y-31288D01*
X70472Y-30928D01*
X70472Y-30954D01*
X70125Y-31301D01*
X70163Y-31386D01*
X70363Y-31475D01*
X70581Y-31480D01*
X70785Y-31400D01*
X70807Y-31386D01*
X70845Y-31301D01*
X70845Y-37509D01*
X70841Y-37509D01*
X70841Y-37491D01*
X70841Y-37441D01*
X70841Y-37224D01*
X70799Y-37182D01*
X70720Y-37182D01*
X70711Y-37160D01*
X70626Y-37075D01*
X70594Y-37061D01*
X70521Y-36968D01*
X70625Y-36926D01*
X70710Y-36841D01*
X70756Y-36731D01*
X70756Y-36612D01*
X70756Y-36522D01*
X70743Y-36490D01*
X70743Y-36317D01*
X70741Y-36312D01*
X70741Y-36309D01*
X70731Y-36261D01*
X70726Y-36220D01*
X70722Y-36213D01*
X70721Y-36207D01*
X70700Y-36175D01*
X70673Y-36130D01*
X70356Y-35777D01*
X70364Y-35759D01*
X70364Y-35692D01*
X70364Y-35442D01*
X70364Y-35158D01*
X70364Y-35051D01*
X70364Y-34949D01*
X70364Y-34842D01*
X70339Y-34780D01*
X70291Y-34733D01*
X70230Y-34707D01*
X70163Y-34707D01*
X70022Y-34707D01*
X69980Y-34749D01*
X69980Y-34991D01*
X70322Y-34991D01*
X70364Y-34949D01*
X70364Y-35051D01*
X70322Y-35009D01*
X69980Y-35009D01*
X69980Y-35251D01*
X70022Y-35293D01*
X70163Y-35293D01*
X70230Y-35293D01*
X70291Y-35267D01*
X70339Y-35220D01*
X70364Y-35158D01*
X70364Y-35442D01*
X70339Y-35380D01*
X70291Y-35333D01*
X70230Y-35307D01*
X70163Y-35307D01*
X69962Y-35307D01*
X69962Y-35251D01*
X69962Y-35009D01*
X69962Y-34991D01*
X69962Y-34749D01*
X69920Y-34707D01*
X69779Y-34707D01*
X69712Y-34707D01*
X69651Y-34733D01*
X69603Y-34780D01*
X69593Y-34804D01*
X69593Y-33581D01*
X69593Y-33514D01*
X69593Y-33120D01*
X69568Y-33058D01*
X69520Y-33011D01*
X69459Y-32985D01*
X69392Y-32985D01*
X69199Y-32985D01*
X69199Y-32726D01*
X69174Y-32664D01*
X69126Y-32617D01*
X69065Y-32591D01*
X68998Y-32591D01*
X68806Y-32591D01*
X68806Y-32529D01*
X68781Y-32467D01*
X68733Y-32420D01*
X68672Y-32394D01*
X68609Y-32394D01*
X68609Y-32136D01*
X68584Y-32074D01*
X68536Y-32027D01*
X68475Y-32001D01*
X68408Y-32001D01*
X68215Y-32001D01*
X68215Y-31742D01*
X68190Y-31680D01*
X68142Y-31633D01*
X68081Y-31607D01*
X68014Y-31607D01*
X67620Y-31607D01*
X67558Y-31632D01*
X67511Y-31680D01*
X67485Y-31741D01*
X67485Y-31808D01*
X67485Y-32001D01*
X67226Y-32001D01*
X67164Y-32026D01*
X67117Y-32074D01*
X67091Y-32135D01*
X67091Y-32202D01*
X67091Y-32394D01*
X67029Y-32394D01*
X66967Y-32419D01*
X66920Y-32467D01*
X66894Y-32528D01*
X66894Y-32591D01*
X66636Y-32591D01*
X66574Y-32616D01*
X66527Y-32664D01*
X66501Y-32725D01*
X66501Y-32792D01*
X66501Y-32985D01*
X66242Y-32985D01*
X66180Y-33010D01*
X66133Y-33058D01*
X66107Y-33119D01*
X66107Y-33186D01*
X66107Y-33580D01*
X66132Y-33642D01*
X66180Y-33689D01*
X66241Y-33715D01*
X66308Y-33715D01*
X66501Y-33715D01*
X66501Y-33974D01*
X66526Y-34036D01*
X66574Y-34083D01*
X66635Y-34109D01*
X66702Y-34109D01*
X66894Y-34109D01*
X66894Y-34171D01*
X66919Y-34233D01*
X66967Y-34280D01*
X67028Y-34306D01*
X67091Y-34306D01*
X67091Y-34564D01*
X67116Y-34626D01*
X67164Y-34673D01*
X67225Y-34699D01*
X67292Y-34699D01*
X67485Y-34699D01*
X67485Y-34958D01*
X67510Y-35020D01*
X67558Y-35067D01*
X67619Y-35093D01*
X67686Y-35093D01*
X68080Y-35093D01*
X68142Y-35068D01*
X68189Y-35020D01*
X68215Y-34959D01*
X68215Y-34892D01*
X68215Y-34699D01*
X68474Y-34699D01*
X68536Y-34674D01*
X68583Y-34626D01*
X68609Y-34565D01*
X68609Y-34498D01*
X68609Y-34306D01*
X68671Y-34306D01*
X68733Y-34281D01*
X68780Y-34233D01*
X68806Y-34172D01*
X68806Y-34109D01*
X69064Y-34109D01*
X69126Y-34084D01*
X69173Y-34036D01*
X69199Y-33975D01*
X69199Y-33908D01*
X69199Y-33715D01*
X69458Y-33715D01*
X69520Y-33690D01*
X69567Y-33642D01*
X69593Y-33581D01*
X69593Y-34804D01*
X69578Y-34842D01*
X69578Y-34949D01*
X69620Y-34991D01*
X69962Y-34991D01*
X69962Y-35009D01*
X69620Y-35009D01*
X69578Y-35051D01*
X69578Y-35158D01*
X69603Y-35220D01*
X69651Y-35267D01*
X69712Y-35293D01*
X69779Y-35293D01*
X69920Y-35293D01*
X69962Y-35251D01*
X69962Y-35307D01*
X69713Y-35307D01*
X69651Y-35332D01*
X69646Y-35336D01*
X66981Y-35687D01*
X66345Y-34844D01*
X66331Y-34831D01*
X66321Y-34816D01*
X66230Y-34725D01*
X66229Y-34723D01*
X66224Y-34719D01*
X66217Y-34712D01*
X66194Y-34696D01*
X66146Y-34660D01*
X63914Y-33566D01*
X63952Y-33529D01*
X63994Y-33571D01*
X64120Y-33624D01*
X64257Y-33624D01*
X64383Y-33572D01*
X64480Y-33475D01*
X64533Y-33349D01*
X64533Y-33212D01*
X64523Y-33189D01*
X67498Y-29410D01*
X67524Y-29356D01*
X67534Y-29338D01*
X67537Y-29291D01*
X67537Y-29289D01*
X67541Y-29274D01*
X67541Y-29272D01*
X67541Y-28856D01*
X67540Y-28853D01*
X67541Y-28850D01*
X67531Y-28492D01*
X67576Y-28474D01*
X67706Y-28343D01*
X67777Y-28173D01*
X67777Y-27989D01*
X67707Y-27819D01*
X67630Y-27743D01*
X68807Y-27743D01*
X68795Y-27778D01*
X69086Y-28068D01*
X69377Y-27778D01*
X69364Y-27743D01*
X70150Y-27743D01*
X70125Y-27799D01*
X70485Y-28159D01*
X70845Y-27799D01*
X70819Y-27743D01*
X72007Y-27743D01*
X72007Y-41507D01*
M02*
