G04 (created by PCBNEW-RS274X (2012-01-19 BZR 3256)-stable) date 24/12/2012 01:38:18*
G01*
G70*
G90*
%MOIN*%
G04 Gerber Fmt 3.4, Leading zero omitted, Abs format*
%FSLAX34Y34*%
G04 APERTURE LIST*
%ADD10C,0.006000*%
%ADD11C,0.078700*%
%ADD12R,0.125900X0.125900*%
%ADD13C,0.125900*%
%ADD14R,0.062900X0.062900*%
%ADD15C,0.062900*%
%ADD16R,0.047200X0.047200*%
%ADD17R,0.098400X0.076700*%
%ADD18R,0.073800X0.073800*%
%ADD19C,0.073800*%
%ADD20C,0.244000*%
%ADD21R,0.059000X0.059000*%
%ADD22C,0.059000*%
%ADD23R,0.070800X0.055000*%
%ADD24C,0.066900*%
%ADD25C,0.086500*%
%ADD26R,0.062800X0.062800*%
%ADD27C,0.062800*%
G04 APERTURE END LIST*
G54D10*
G54D11*
X65050Y-40150D03*
X66231Y-40150D03*
X63869Y-40150D03*
G54D12*
X68262Y-40435D03*
G54D13*
X47850Y-40700D03*
G54D14*
X65450Y-28300D03*
G54D15*
X64450Y-28300D03*
X63450Y-28300D03*
X62450Y-28300D03*
G54D16*
X68047Y-33153D03*
X67653Y-33153D03*
X67653Y-33547D03*
X68047Y-33547D03*
X68441Y-33547D03*
X68441Y-33153D03*
X68441Y-32759D03*
X68047Y-32759D03*
X67653Y-32759D03*
X67259Y-32759D03*
X67259Y-33153D03*
X67259Y-33547D03*
X67259Y-33941D03*
X67653Y-33941D03*
X68047Y-33941D03*
X68441Y-33941D03*
X68834Y-32956D03*
X68834Y-33350D03*
X68834Y-33744D03*
X68244Y-32366D03*
X67850Y-32366D03*
X67456Y-32366D03*
X66866Y-32956D03*
X66866Y-33350D03*
X66866Y-33744D03*
X67456Y-34334D03*
X67850Y-34334D03*
X68244Y-34334D03*
X66472Y-33350D03*
X67850Y-31972D03*
X69228Y-33350D03*
X67850Y-34728D03*
G54D17*
X65389Y-33007D03*
X70311Y-33693D03*
G54D18*
X63450Y-30050D03*
G54D19*
X64450Y-30050D03*
G54D20*
X48150Y-28950D03*
X70650Y-40300D03*
G54D21*
X67537Y-37000D03*
G54D22*
X65963Y-37000D03*
G54D23*
X49960Y-39237D03*
X49960Y-41017D03*
X53000Y-39237D03*
X53000Y-41017D03*
X49964Y-40127D03*
X57988Y-39237D03*
X57988Y-41017D03*
X61028Y-39237D03*
X61028Y-41017D03*
X57992Y-40127D03*
X53940Y-39237D03*
X53940Y-41017D03*
X56980Y-39237D03*
X56980Y-41017D03*
X53944Y-40127D03*
G54D24*
X71469Y-28664D03*
X71469Y-30436D03*
G54D25*
X70485Y-28172D03*
X70485Y-30928D03*
G54D24*
X67314Y-28081D03*
X69086Y-28081D03*
G54D25*
X66822Y-29065D03*
X69578Y-29065D03*
G54D26*
X61000Y-28300D03*
G54D27*
X60000Y-28300D03*
M02*
