M48
;DRILL file {PCBnew (2010-02-09)-RC2} date 22/07/2010 15:27:36
;FORMAT={-.-/ absolute / metric / decimal}
R,T
VER,1
FMAT,2
METRIC,TZ
TCST,OFF
ICI,OFF
ATC,ON
T1C0.635
T2C0.800
T3C0.813
T4C0.899
T5C3.000
%
M47
G05
M71
T1
X172.212Y-68.072
X172.466Y-78.740
X185.420Y-74.676
X185.674Y-80.010
X188.491Y-72.720
X190.246Y-74.930
X190.970Y-70.561
X192.519Y-73.251
X198.620Y-77.810
X199.669Y-68.979
X201.422Y-73.660
X203.279Y-78.100
X208.280Y-76.708
X216.408Y-67.818
T2
X178.552Y-82.890
X181.092Y-82.890
X183.632Y-82.890
X186.172Y-82.890
X188.712Y-82.890
X191.252Y-82.890
X193.792Y-82.890
X196.332Y-82.890
X198.872Y-82.890
X201.412Y-82.890
X203.952Y-82.890
X206.492Y-82.890
X209.032Y-82.890
X211.572Y-82.890
X214.112Y-82.890
X216.652Y-82.890
T3
X176.530Y-68.580
X176.530Y-73.660
X176.530Y-76.200
X212.669Y-71.006
X212.669Y-73.546
X212.669Y-76.086
X215.209Y-71.006
X215.209Y-73.546
X215.209Y-76.086
T4
X197.000Y-73.500
T5
X173.050Y-82.890
T0
M30
