G04 (created by PCBNEW-RS274X (2010-02-09)-RC2) date 22/07/2010 15:29:41*
G01*
G70*
G90*
%MOIN*%
G04 Gerber Fmt 3.4, Leading zero omitted, Abs format*
%FSLAX34Y34*%
G04 APERTURE LIST*
%ADD10C,0.001000*%
%ADD11C,0.015000*%
%ADD12R,0.055000X0.055000*%
%ADD13C,0.055000*%
%ADD14R,0.011800X0.039400*%
%ADD15O,0.011800X0.039400*%
%ADD16O,0.039400X0.011800*%
%ADD17R,0.122000X0.122000*%
%ADD18O,0.055000X0.055000*%
%ADD19R,0.025000X0.045000*%
%ADD20R,0.045000X0.025000*%
%ADD21R,0.035000X0.055000*%
%ADD22C,0.060000*%
%ADD23C,0.157500*%
%ADD24C,0.039400*%
%ADD25C,0.035000*%
%ADD26C,0.008000*%
%ADD27C,0.010000*%
G04 APERTURE END LIST*
G54D10*
G54D11*
X67000Y-26000D02*
X67000Y-33500D01*
X86000Y-26000D02*
X67000Y-26000D01*
X86000Y-33500D02*
X86000Y-26000D01*
X67000Y-33500D02*
X86000Y-33500D01*
G54D12*
X83728Y-27955D03*
G54D13*
X84728Y-27955D03*
X83728Y-28955D03*
X84728Y-28955D03*
X83728Y-29955D03*
X84728Y-29955D03*
G54D12*
X69500Y-29000D03*
G54D13*
X69500Y-30000D03*
G54D14*
X76870Y-29921D03*
G54D15*
X77067Y-29921D03*
X77264Y-29921D03*
X77461Y-29921D03*
X77658Y-29921D03*
X77854Y-29921D03*
X78051Y-29921D03*
X78248Y-29921D03*
G54D16*
X78543Y-29625D03*
X78543Y-29428D03*
X78544Y-29233D03*
X78544Y-29036D03*
X78544Y-28839D03*
X78544Y-28642D03*
X78544Y-28445D03*
X78544Y-28249D03*
G54D15*
X78248Y-27953D03*
X78051Y-27953D03*
X77854Y-27953D03*
X77657Y-27952D03*
X77460Y-27953D03*
X77263Y-27953D03*
X77066Y-27953D03*
X76869Y-27953D03*
G54D16*
X76574Y-28248D03*
X76575Y-28445D03*
X76574Y-28642D03*
X76575Y-28839D03*
X76574Y-29036D03*
X76574Y-29233D03*
X76575Y-29429D03*
X76575Y-29626D03*
G54D17*
X77559Y-28937D03*
G54D18*
X69500Y-27000D03*
G54D19*
X72300Y-30000D03*
X71700Y-30000D03*
G54D20*
X72200Y-28411D03*
X72200Y-29011D03*
G54D21*
X77639Y-31004D03*
X76889Y-31004D03*
X78759Y-31004D03*
X79509Y-31004D03*
X78058Y-27000D03*
X77308Y-27000D03*
X71375Y-31000D03*
X70625Y-31000D03*
G54D12*
X70296Y-32634D03*
G54D22*
X71296Y-32634D03*
X72296Y-32634D03*
X73296Y-32634D03*
X74296Y-32634D03*
X75296Y-32634D03*
X76296Y-32634D03*
X77296Y-32634D03*
X78296Y-32634D03*
X79296Y-32634D03*
X80296Y-32634D03*
X81296Y-32634D03*
X82296Y-32634D03*
X83296Y-32634D03*
X84296Y-32634D03*
X85296Y-32634D03*
G54D23*
X68130Y-32634D03*
G54D24*
X75795Y-28839D03*
G54D25*
X85200Y-26700D03*
X82000Y-30200D03*
X79300Y-29000D03*
X73000Y-29400D03*
X67900Y-31000D03*
X67800Y-26800D03*
X73100Y-31500D03*
X74900Y-29500D03*
G54D24*
X80031Y-30748D03*
X75185Y-27780D03*
X78197Y-30634D03*
X74209Y-28630D03*
X78610Y-27157D03*
G54D26*
X78544Y-28249D02*
X78682Y-28249D01*
X83493Y-27994D02*
X83728Y-27955D01*
X83453Y-27994D02*
X83493Y-27994D01*
X78682Y-28249D02*
X83355Y-27994D01*
X83355Y-27994D02*
X83453Y-27994D01*
X83935Y-28456D02*
X84728Y-28955D01*
X78682Y-28445D02*
X78764Y-28445D01*
X78764Y-28445D02*
X83359Y-28455D01*
X83359Y-28455D02*
X83934Y-28455D01*
X83934Y-28455D02*
X83935Y-28456D01*
X78544Y-28445D02*
X78682Y-28445D01*
X76436Y-29036D02*
X76574Y-29036D01*
X76216Y-29018D02*
X76355Y-29036D01*
X76188Y-29006D02*
X76216Y-29018D01*
X75795Y-28839D02*
X76188Y-29006D01*
X76355Y-29036D02*
X76436Y-29036D01*
X83355Y-27444D02*
X83551Y-27444D01*
X78248Y-27815D02*
X83355Y-27444D01*
X78248Y-27953D02*
X78248Y-27815D01*
X84936Y-27444D02*
X84942Y-27446D01*
X84942Y-27446D02*
X85237Y-27741D01*
X85237Y-27741D02*
X85239Y-27747D01*
X85239Y-27747D02*
X85239Y-28164D01*
X85239Y-28164D02*
X85228Y-29162D01*
X85228Y-29162D02*
X85227Y-29163D01*
X85227Y-29163D02*
X84935Y-29455D01*
X84934Y-29455D02*
X84521Y-29455D01*
X84521Y-29455D02*
X84520Y-29455D01*
X84520Y-29455D02*
X83728Y-28955D01*
X83551Y-27444D02*
X84936Y-27444D01*
X84935Y-29455D02*
X84934Y-29455D01*
X70625Y-31235D02*
X70625Y-31000D01*
X70625Y-31275D02*
X70625Y-31235D01*
X70625Y-31347D02*
X70625Y-31275D01*
X70334Y-32261D02*
X70625Y-31347D01*
X70334Y-32359D02*
X70334Y-32261D01*
X70334Y-32399D02*
X70334Y-32359D01*
X70296Y-32634D02*
X70334Y-32399D01*
X77264Y-29507D02*
X77559Y-28937D01*
X77264Y-29547D02*
X77264Y-29507D01*
X77264Y-29783D02*
X77264Y-29547D01*
X77264Y-29921D02*
X77264Y-29783D01*
X76889Y-30769D02*
X76889Y-31004D01*
X76889Y-30729D02*
X76889Y-30769D01*
X76889Y-30656D02*
X76889Y-30729D01*
X76991Y-30554D02*
X76889Y-30656D01*
X76992Y-30554D02*
X76991Y-30554D01*
X77034Y-30513D02*
X76992Y-30554D01*
X77265Y-30282D02*
X77034Y-30513D01*
X77264Y-30059D02*
X77265Y-30282D01*
X77264Y-29921D02*
X77264Y-30059D01*
X77460Y-28367D02*
X77559Y-28937D01*
X77460Y-28327D02*
X77460Y-28367D01*
X77460Y-28091D02*
X77460Y-28327D01*
X77460Y-27953D02*
X77460Y-28091D01*
X77658Y-29783D02*
X77658Y-29921D01*
X77658Y-29547D02*
X77658Y-29783D01*
X77658Y-29507D02*
X77658Y-29547D01*
X77559Y-28937D02*
X77658Y-29507D01*
X71575Y-30000D02*
X69500Y-30000D01*
X71615Y-30000D02*
X71575Y-30000D01*
X71700Y-30000D02*
X71615Y-30000D01*
X79782Y-30966D02*
X80031Y-30748D01*
X79684Y-30966D02*
X79782Y-30966D01*
X79644Y-30966D02*
X79684Y-30966D01*
X79509Y-31004D02*
X79644Y-30966D01*
X77460Y-27815D02*
X77460Y-27953D01*
X77460Y-27733D02*
X77460Y-27815D01*
X77308Y-27347D02*
X77460Y-27733D01*
X77308Y-27275D02*
X77308Y-27347D01*
X77308Y-27235D02*
X77308Y-27275D01*
X77308Y-27000D02*
X77308Y-27235D01*
X77034Y-27038D02*
X75185Y-27780D01*
X77133Y-27038D02*
X77034Y-27038D01*
X77173Y-27038D02*
X77133Y-27038D01*
X77308Y-27000D02*
X77173Y-27038D01*
X70213Y-30823D02*
X69500Y-30000D01*
X70352Y-30962D02*
X70213Y-30823D01*
X70450Y-30962D02*
X70352Y-30962D01*
X70490Y-30962D02*
X70450Y-30962D01*
X70625Y-31000D02*
X70490Y-30962D01*
X80525Y-32103D02*
X81296Y-32634D01*
X80510Y-32097D02*
X80525Y-32103D01*
X79565Y-31820D02*
X80510Y-32097D01*
X76616Y-31516D02*
X79565Y-31820D01*
X76477Y-31377D02*
X76616Y-31516D01*
X76477Y-31181D02*
X76477Y-31377D01*
X76477Y-30631D02*
X76477Y-31181D01*
X76616Y-30492D02*
X76477Y-30631D01*
X76890Y-30308D02*
X76616Y-30492D01*
X76890Y-30308D02*
X76890Y-30308D01*
X76986Y-30256D02*
X76890Y-30308D01*
X77067Y-30175D02*
X76986Y-30256D01*
X77067Y-30059D02*
X77067Y-30175D01*
X77067Y-29921D02*
X77067Y-30059D01*
X69500Y-27000D02*
X75005Y-28213D01*
X76436Y-28642D02*
X76574Y-28642D01*
X76355Y-28642D02*
X76436Y-28642D01*
X75975Y-28405D02*
X76355Y-28642D01*
X75005Y-28213D02*
X75975Y-28405D01*
X79525Y-32103D02*
X80296Y-32634D01*
X79510Y-32097D02*
X79525Y-32103D01*
X76505Y-31793D02*
X79510Y-32097D01*
X76498Y-31790D02*
X76505Y-31793D01*
X76203Y-31494D02*
X76498Y-31790D01*
X76200Y-31488D02*
X76203Y-31494D01*
X76200Y-31070D02*
X76200Y-31488D01*
X76200Y-30520D02*
X76200Y-31070D01*
X76203Y-30513D02*
X76200Y-30520D01*
X76614Y-30036D02*
X76203Y-30513D01*
X76729Y-29921D02*
X76614Y-30036D01*
X76811Y-29921D02*
X76729Y-29921D01*
X76851Y-29921D02*
X76811Y-29921D01*
X76870Y-29921D02*
X76851Y-29921D01*
X76436Y-29233D02*
X76274Y-29233D01*
X76574Y-29233D02*
X76436Y-29233D01*
X75499Y-30043D02*
X73296Y-32634D01*
X75883Y-29624D02*
X75499Y-30043D01*
X76044Y-29463D02*
X75883Y-29624D01*
X76274Y-29233D02*
X76044Y-29463D01*
X75733Y-30200D02*
X74296Y-32634D01*
X76065Y-29746D02*
X75733Y-30200D01*
X76240Y-29544D02*
X76065Y-29746D01*
X76355Y-29429D02*
X76240Y-29544D01*
X76437Y-29429D02*
X76355Y-29429D01*
X76575Y-29429D02*
X76437Y-29429D01*
X75968Y-30357D02*
X75923Y-30465D01*
X76341Y-29983D02*
X75968Y-30357D01*
X76437Y-29626D02*
X76341Y-29983D01*
X76575Y-29626D02*
X76437Y-29626D01*
X75923Y-30465D02*
X75296Y-32634D01*
X78543Y-29625D02*
X78681Y-29625D01*
X80465Y-30568D02*
X82296Y-32634D01*
X80211Y-30314D02*
X80465Y-30568D01*
X78681Y-29625D02*
X80211Y-30314D01*
X80280Y-30037D02*
X80358Y-30070D01*
X78763Y-29428D02*
X80280Y-30037D01*
X78681Y-29428D02*
X78763Y-29428D01*
X78543Y-29428D02*
X78681Y-29428D01*
X80358Y-30070D02*
X83296Y-32634D01*
X72300Y-30277D02*
X72296Y-32634D01*
X72300Y-30225D02*
X72300Y-30277D01*
X72300Y-30185D02*
X72300Y-30225D01*
X72300Y-30000D02*
X72300Y-30185D01*
X72300Y-29815D02*
X72300Y-30000D01*
X72300Y-29775D02*
X72300Y-29815D01*
X72300Y-29723D02*
X72300Y-29775D01*
X72200Y-29229D02*
X72300Y-29723D01*
X72200Y-29136D02*
X72200Y-29229D01*
X72200Y-29096D02*
X72200Y-29136D01*
X72200Y-29011D02*
X72200Y-29096D01*
X77854Y-30141D02*
X78197Y-30634D01*
X77854Y-30059D02*
X77854Y-30141D01*
X77854Y-29921D02*
X77854Y-30059D01*
X78058Y-27235D02*
X78058Y-27000D01*
X78058Y-27275D02*
X78058Y-27235D01*
X78058Y-27347D02*
X78058Y-27275D01*
X78051Y-27733D02*
X78058Y-27347D01*
X78051Y-27815D02*
X78051Y-27733D01*
X78051Y-27953D02*
X78051Y-27815D01*
X69735Y-28962D02*
X69500Y-29000D01*
X69775Y-28962D02*
X69735Y-28962D01*
X69873Y-28962D02*
X69775Y-28962D01*
X71924Y-28411D02*
X69873Y-28962D01*
X71975Y-28411D02*
X71924Y-28411D01*
X72015Y-28411D02*
X71975Y-28411D01*
X72200Y-28411D02*
X72015Y-28411D01*
X72477Y-28411D02*
X74209Y-28630D01*
X72425Y-28411D02*
X72477Y-28411D01*
X72385Y-28411D02*
X72425Y-28411D01*
X72200Y-28411D02*
X72385Y-28411D01*
X77461Y-30059D02*
X77461Y-29921D01*
X77461Y-30141D02*
X77461Y-30059D01*
X77639Y-30656D02*
X77461Y-30141D01*
X77639Y-30729D02*
X77639Y-30656D01*
X77639Y-30769D02*
X77639Y-30729D01*
X77639Y-31004D02*
X77639Y-30769D01*
X78347Y-30827D02*
X78197Y-30634D01*
X78486Y-30966D02*
X78347Y-30827D01*
X78584Y-30966D02*
X78486Y-30966D01*
X78624Y-30966D02*
X78584Y-30966D01*
X78759Y-31004D02*
X78624Y-30966D01*
X78331Y-27038D02*
X78610Y-27157D01*
X78233Y-27038D02*
X78331Y-27038D01*
X78193Y-27038D02*
X78233Y-27038D01*
X78058Y-27000D02*
X78193Y-27038D01*
X71375Y-31347D02*
X71296Y-32634D01*
X71375Y-31275D02*
X71375Y-31347D01*
X71375Y-31235D02*
X71375Y-31275D01*
X71375Y-31000D02*
X71375Y-31235D01*
X77774Y-30966D02*
X77639Y-31004D01*
X77814Y-30966D02*
X77774Y-30966D01*
X77912Y-30966D02*
X77814Y-30966D01*
X78051Y-30827D02*
X77912Y-30966D01*
X78197Y-30634D02*
X78051Y-30827D01*
G54D27*
X67275Y-26275D02*
X85725Y-26275D01*
X67275Y-26355D02*
X85725Y-26355D01*
X67275Y-26435D02*
X85725Y-26435D01*
X67275Y-26515D02*
X69316Y-26515D01*
X69685Y-26515D02*
X76991Y-26515D01*
X77236Y-26515D02*
X77380Y-26515D01*
X77625Y-26515D02*
X77741Y-26515D01*
X78375Y-26515D02*
X85725Y-26515D01*
X67275Y-26595D02*
X69167Y-26595D01*
X69833Y-26595D02*
X76918Y-26595D01*
X77258Y-26595D02*
X77358Y-26595D01*
X78449Y-26595D02*
X85725Y-26595D01*
X67275Y-26675D02*
X69087Y-26675D01*
X69913Y-26675D02*
X76884Y-26675D01*
X77258Y-26675D02*
X77358Y-26675D01*
X78482Y-26675D02*
X85725Y-26675D01*
X67275Y-26755D02*
X69035Y-26755D01*
X69967Y-26755D02*
X76884Y-26755D01*
X77258Y-26755D02*
X77358Y-26755D01*
X78806Y-26755D02*
X85725Y-26755D01*
X67275Y-26835D02*
X69001Y-26835D01*
X70103Y-26835D02*
X76884Y-26835D01*
X77258Y-26835D02*
X77358Y-26835D01*
X78919Y-26835D02*
X85725Y-26835D01*
X67275Y-26915D02*
X68975Y-26915D01*
X70467Y-26915D02*
X76910Y-26915D01*
X77258Y-26915D02*
X77358Y-26915D01*
X78993Y-26915D02*
X85725Y-26915D01*
X67275Y-26995D02*
X68975Y-26995D01*
X70831Y-26995D02*
X77358Y-26995D01*
X79026Y-26995D02*
X85725Y-26995D01*
X67275Y-27075D02*
X68975Y-27075D01*
X71194Y-27075D02*
X76920Y-27075D01*
X79056Y-27075D02*
X85725Y-27075D01*
X67275Y-27155D02*
X68996Y-27155D01*
X71558Y-27155D02*
X76883Y-27155D01*
X79056Y-27155D02*
X83279Y-27155D01*
X84942Y-27155D02*
X85725Y-27155D01*
X67275Y-27235D02*
X69029Y-27235D01*
X71922Y-27235D02*
X76884Y-27235D01*
X79056Y-27235D02*
X82186Y-27235D01*
X85138Y-27235D02*
X85725Y-27235D01*
X67275Y-27315D02*
X69077Y-27315D01*
X72286Y-27315D02*
X76884Y-27315D01*
X79027Y-27315D02*
X81094Y-27315D01*
X85221Y-27315D02*
X85725Y-27315D01*
X67275Y-27395D02*
X69157Y-27395D01*
X69842Y-27395D02*
X69947Y-27395D01*
X72649Y-27395D02*
X76913Y-27395D01*
X78994Y-27395D02*
X80001Y-27395D01*
X85301Y-27395D02*
X85725Y-27395D01*
X67275Y-27475D02*
X69291Y-27475D01*
X69708Y-27475D02*
X70311Y-27475D01*
X73013Y-27475D02*
X76981Y-27475D01*
X85381Y-27475D02*
X85725Y-27475D01*
X67275Y-27555D02*
X70675Y-27555D01*
X73377Y-27555D02*
X76693Y-27555D01*
X85459Y-27555D02*
X85725Y-27555D01*
X67275Y-27635D02*
X71038Y-27635D01*
X73741Y-27635D02*
X76612Y-27635D01*
X85506Y-27635D02*
X85725Y-27635D01*
X67275Y-27715D02*
X71402Y-27715D01*
X74105Y-27715D02*
X76579Y-27715D01*
X85523Y-27715D02*
X85725Y-27715D01*
X67275Y-27795D02*
X71766Y-27795D01*
X74468Y-27795D02*
X76566Y-27795D01*
X85529Y-27795D02*
X85725Y-27795D01*
X67275Y-27875D02*
X72130Y-27875D01*
X74832Y-27875D02*
X76566Y-27875D01*
X85529Y-27875D02*
X85725Y-27875D01*
X67275Y-27955D02*
X72494Y-27955D01*
X75193Y-27955D02*
X76344Y-27955D01*
X85529Y-27955D02*
X85725Y-27955D01*
X67275Y-28035D02*
X72858Y-28035D01*
X75600Y-28035D02*
X76213Y-28035D01*
X85529Y-28035D02*
X85725Y-28035D01*
X67275Y-28115D02*
X71794Y-28115D01*
X72606Y-28115D02*
X73221Y-28115D01*
X76006Y-28115D02*
X76155Y-28115D01*
X85529Y-28115D02*
X85725Y-28115D01*
X67275Y-28195D02*
X71614Y-28195D01*
X73087Y-28195D02*
X73585Y-28195D01*
X85526Y-28195D02*
X85725Y-28195D01*
X67275Y-28275D02*
X71315Y-28275D01*
X73720Y-28275D02*
X73933Y-28275D01*
X85526Y-28275D02*
X85725Y-28275D01*
X67275Y-28355D02*
X71016Y-28355D01*
X85525Y-28355D02*
X85725Y-28355D01*
X67275Y-28435D02*
X70717Y-28435D01*
X85524Y-28435D02*
X85725Y-28435D01*
X67275Y-28515D02*
X69083Y-28515D01*
X69917Y-28515D02*
X70418Y-28515D01*
X85523Y-28515D02*
X85725Y-28515D01*
X67275Y-28595D02*
X69010Y-28595D01*
X69991Y-28595D02*
X70119Y-28595D01*
X85523Y-28595D02*
X85725Y-28595D01*
X67275Y-28675D02*
X68976Y-28675D01*
X85522Y-28675D02*
X85725Y-28675D01*
X67275Y-28755D02*
X68976Y-28755D01*
X78984Y-28755D02*
X83242Y-28755D01*
X85521Y-28755D02*
X85725Y-28755D01*
X67275Y-28835D02*
X68976Y-28835D01*
X71466Y-28835D02*
X71727Y-28835D01*
X78993Y-28835D02*
X83210Y-28835D01*
X85520Y-28835D02*
X85725Y-28835D01*
X67275Y-28915D02*
X68976Y-28915D01*
X71167Y-28915D02*
X71726Y-28915D01*
X78986Y-28915D02*
X83203Y-28915D01*
X85520Y-28915D02*
X85725Y-28915D01*
X67275Y-28995D02*
X68976Y-28995D01*
X70868Y-28995D02*
X71726Y-28995D01*
X78993Y-28995D02*
X83203Y-28995D01*
X85519Y-28995D02*
X85725Y-28995D01*
X67275Y-29075D02*
X68976Y-29075D01*
X70569Y-29075D02*
X71726Y-29075D01*
X78993Y-29075D02*
X83209Y-29075D01*
X85518Y-29075D02*
X85725Y-29075D01*
X67275Y-29155D02*
X68976Y-29155D01*
X70270Y-29155D02*
X71726Y-29155D01*
X78986Y-29155D02*
X83242Y-29155D01*
X85518Y-29155D02*
X85725Y-29155D01*
X67275Y-29235D02*
X68976Y-29235D01*
X70024Y-29235D02*
X71746Y-29235D01*
X79061Y-29235D02*
X83275Y-29235D01*
X85503Y-29235D02*
X85725Y-29235D01*
X67275Y-29315D02*
X68976Y-29315D01*
X70024Y-29315D02*
X71802Y-29315D01*
X79260Y-29315D02*
X83345Y-29315D01*
X85467Y-29315D02*
X85725Y-29315D01*
X67275Y-29395D02*
X69005Y-29395D01*
X69994Y-29395D02*
X71937Y-29395D01*
X79459Y-29395D02*
X83425Y-29395D01*
X85405Y-29395D02*
X85725Y-29395D01*
X67275Y-29475D02*
X69073Y-29475D01*
X69927Y-29475D02*
X71953Y-29475D01*
X79658Y-29475D02*
X83515Y-29475D01*
X85325Y-29475D02*
X85725Y-29475D01*
X67275Y-29555D02*
X69232Y-29555D01*
X69769Y-29555D02*
X71456Y-29555D01*
X71618Y-29555D02*
X71782Y-29555D01*
X71945Y-29555D02*
X71969Y-29555D01*
X79857Y-29555D02*
X83386Y-29555D01*
X85245Y-29555D02*
X85725Y-29555D01*
X67275Y-29635D02*
X69212Y-29635D01*
X69789Y-29635D02*
X71364Y-29635D01*
X71650Y-29635D02*
X71750Y-29635D01*
X80056Y-29635D02*
X83306Y-29635D01*
X85165Y-29635D02*
X85725Y-29635D01*
X67275Y-29715D02*
X69120Y-29715D01*
X69144Y-29715D02*
X69286Y-29715D01*
X69714Y-29715D02*
X69856Y-29715D01*
X69881Y-29715D02*
X71331Y-29715D01*
X71650Y-29715D02*
X71750Y-29715D01*
X80256Y-29715D02*
X83259Y-29715D01*
X85192Y-29715D02*
X85725Y-29715D01*
X67275Y-29795D02*
X69027Y-29795D01*
X69224Y-29795D02*
X69366Y-29795D01*
X69634Y-29795D02*
X69776Y-29795D01*
X69978Y-29795D02*
X71326Y-29795D01*
X71650Y-29795D02*
X71750Y-29795D01*
X80452Y-29795D02*
X83226Y-29795D01*
X85224Y-29795D02*
X85725Y-29795D01*
X67275Y-29875D02*
X68999Y-29875D01*
X69304Y-29875D02*
X69446Y-29875D01*
X69554Y-29875D02*
X69696Y-29875D01*
X70009Y-29875D02*
X71326Y-29875D01*
X71650Y-29875D02*
X71750Y-29875D01*
X80577Y-29875D02*
X83203Y-29875D01*
X85239Y-29875D02*
X85725Y-29875D01*
X67275Y-29955D02*
X68982Y-29955D01*
X69384Y-29955D02*
X69616Y-29955D01*
X70013Y-29955D02*
X71750Y-29955D01*
X80669Y-29955D02*
X83203Y-29955D01*
X84657Y-29955D02*
X84799Y-29955D01*
X85244Y-29955D02*
X85725Y-29955D01*
X67275Y-30035D02*
X68986Y-30035D01*
X69394Y-30035D02*
X69606Y-30035D01*
X70017Y-30035D02*
X71750Y-30035D01*
X80760Y-30035D02*
X83203Y-30035D01*
X84577Y-30035D02*
X84719Y-30035D01*
X84737Y-30035D02*
X84879Y-30035D01*
X85244Y-30035D02*
X85725Y-30035D01*
X67275Y-30115D02*
X68991Y-30115D01*
X69314Y-30115D02*
X69456Y-30115D01*
X69544Y-30115D02*
X69686Y-30115D01*
X70004Y-30115D02*
X71325Y-30115D01*
X71650Y-30115D02*
X71750Y-30115D01*
X80852Y-30115D02*
X83226Y-30115D01*
X84229Y-30115D02*
X84232Y-30115D01*
X84497Y-30115D02*
X84639Y-30115D01*
X84817Y-30115D02*
X84959Y-30115D01*
X85217Y-30115D02*
X85725Y-30115D01*
X67275Y-30195D02*
X69018Y-30195D01*
X69234Y-30195D02*
X69376Y-30195D01*
X69624Y-30195D02*
X69766Y-30195D01*
X69976Y-30195D02*
X71326Y-30195D01*
X71650Y-30195D02*
X71750Y-30195D01*
X80944Y-30195D02*
X83259Y-30195D01*
X84196Y-30195D02*
X84264Y-30195D01*
X84417Y-30195D02*
X84559Y-30195D01*
X84897Y-30195D02*
X85039Y-30195D01*
X85189Y-30195D02*
X85725Y-30195D01*
X67275Y-30275D02*
X69079Y-30275D01*
X69154Y-30275D02*
X69296Y-30275D01*
X69704Y-30275D02*
X69846Y-30275D01*
X69920Y-30275D02*
X71326Y-30275D01*
X71650Y-30275D02*
X71750Y-30275D01*
X81035Y-30275D02*
X83305Y-30275D01*
X84150Y-30275D02*
X84479Y-30275D01*
X84977Y-30275D02*
X85725Y-30275D01*
X67275Y-30355D02*
X69216Y-30355D01*
X69784Y-30355D02*
X71359Y-30355D01*
X71650Y-30355D02*
X71750Y-30355D01*
X81127Y-30355D02*
X83385Y-30355D01*
X84070Y-30355D02*
X84447Y-30355D01*
X85008Y-30355D02*
X85725Y-30355D01*
X67275Y-30435D02*
X69228Y-30435D01*
X69771Y-30435D02*
X71433Y-30435D01*
X71628Y-30435D02*
X71772Y-30435D01*
X71966Y-30435D02*
X72009Y-30435D01*
X81219Y-30435D02*
X83514Y-30435D01*
X83940Y-30435D02*
X84541Y-30435D01*
X84926Y-30435D02*
X85725Y-30435D01*
X67275Y-30515D02*
X69414Y-30515D01*
X69500Y-30515D02*
X70308Y-30515D01*
X70553Y-30515D02*
X70697Y-30515D01*
X70942Y-30515D02*
X71058Y-30515D01*
X71692Y-30515D02*
X72009Y-30515D01*
X81310Y-30515D02*
X85725Y-30515D01*
X67275Y-30595D02*
X70235Y-30595D01*
X70575Y-30595D02*
X70675Y-30595D01*
X71766Y-30595D02*
X72009Y-30595D01*
X81402Y-30595D02*
X85725Y-30595D01*
X67275Y-30675D02*
X70201Y-30675D01*
X70575Y-30675D02*
X70675Y-30675D01*
X71799Y-30675D02*
X72009Y-30675D01*
X81494Y-30675D02*
X85725Y-30675D01*
X67275Y-30755D02*
X70201Y-30755D01*
X70575Y-30755D02*
X70675Y-30755D01*
X71799Y-30755D02*
X72009Y-30755D01*
X81585Y-30755D02*
X85725Y-30755D01*
X67275Y-30835D02*
X70201Y-30835D01*
X70575Y-30835D02*
X70675Y-30835D01*
X71799Y-30835D02*
X72009Y-30835D01*
X81677Y-30835D02*
X85725Y-30835D01*
X67275Y-30915D02*
X70227Y-30915D01*
X70575Y-30915D02*
X70675Y-30915D01*
X71799Y-30915D02*
X72009Y-30915D01*
X81769Y-30915D02*
X85725Y-30915D01*
X67275Y-30995D02*
X70675Y-30995D01*
X71799Y-30995D02*
X72008Y-30995D01*
X81860Y-30995D02*
X85725Y-30995D01*
X67275Y-31075D02*
X70237Y-31075D01*
X70575Y-31075D02*
X70675Y-31075D01*
X71799Y-31075D02*
X72008Y-31075D01*
X81952Y-31075D02*
X85725Y-31075D01*
X67275Y-31155D02*
X70200Y-31155D01*
X70575Y-31155D02*
X70675Y-31155D01*
X71799Y-31155D02*
X72008Y-31155D01*
X82044Y-31155D02*
X85725Y-31155D01*
X67275Y-31235D02*
X70201Y-31235D01*
X70575Y-31235D02*
X70675Y-31235D01*
X71799Y-31235D02*
X72008Y-31235D01*
X82135Y-31235D02*
X85725Y-31235D01*
X67275Y-31315D02*
X70201Y-31315D01*
X70575Y-31315D02*
X70675Y-31315D01*
X71799Y-31315D02*
X72008Y-31315D01*
X82227Y-31315D02*
X85725Y-31315D01*
X67275Y-31395D02*
X70230Y-31395D01*
X70575Y-31395D02*
X70675Y-31395D01*
X71769Y-31395D02*
X72008Y-31395D01*
X82319Y-31395D02*
X85725Y-31395D01*
X67275Y-31475D02*
X70298Y-31475D01*
X70563Y-31475D02*
X70687Y-31475D01*
X70951Y-31475D02*
X71048Y-31475D01*
X71702Y-31475D02*
X72008Y-31475D01*
X82410Y-31475D02*
X85725Y-31475D01*
X67275Y-31555D02*
X71072Y-31555D01*
X71651Y-31555D02*
X72008Y-31555D01*
X82502Y-31555D02*
X85725Y-31555D01*
X67275Y-31635D02*
X67833Y-31635D01*
X68429Y-31635D02*
X71067Y-31635D01*
X71646Y-31635D02*
X72007Y-31635D01*
X82594Y-31635D02*
X85725Y-31635D01*
X67275Y-31715D02*
X67639Y-31715D01*
X68620Y-31715D02*
X71062Y-31715D01*
X71641Y-31715D02*
X72007Y-31715D01*
X82685Y-31715D02*
X85725Y-31715D01*
X67275Y-31795D02*
X67503Y-31795D01*
X68757Y-31795D02*
X71057Y-31795D01*
X71637Y-31795D02*
X72007Y-31795D01*
X82777Y-31795D02*
X85725Y-31795D01*
X67275Y-31875D02*
X67423Y-31875D01*
X68837Y-31875D02*
X71052Y-31875D01*
X71632Y-31875D02*
X72007Y-31875D01*
X82869Y-31875D02*
X85725Y-31875D01*
X67275Y-31955D02*
X67343Y-31955D01*
X68917Y-31955D02*
X71047Y-31955D01*
X71627Y-31955D02*
X72007Y-31955D01*
X82960Y-31955D02*
X85725Y-31955D01*
X68997Y-32035D02*
X71042Y-32035D01*
X71622Y-32035D02*
X72007Y-32035D01*
X83052Y-32035D02*
X85725Y-32035D01*
X69038Y-32115D02*
X69960Y-32115D01*
X70190Y-32115D02*
X70402Y-32115D01*
X70633Y-32115D02*
X71038Y-32115D01*
X71617Y-32115D02*
X72007Y-32115D01*
X83478Y-32115D02*
X84115Y-32115D01*
X84478Y-32115D02*
X85115Y-32115D01*
X85478Y-32115D02*
X85725Y-32115D01*
X69071Y-32195D02*
X69833Y-32195D01*
X70246Y-32195D02*
X70346Y-32195D01*
X70759Y-32195D02*
X70959Y-32195D01*
X71633Y-32195D02*
X71959Y-32195D01*
X83633Y-32195D02*
X83959Y-32195D01*
X84634Y-32195D02*
X84959Y-32195D01*
X85633Y-32195D02*
X85725Y-32195D01*
X69104Y-32275D02*
X69787Y-32275D01*
X70246Y-32275D02*
X70346Y-32275D01*
X70806Y-32275D02*
X70879Y-32275D01*
X71713Y-32275D02*
X71879Y-32275D01*
X83713Y-32275D02*
X83879Y-32275D01*
X84714Y-32275D02*
X84879Y-32275D01*
X85713Y-32275D02*
X85725Y-32275D01*
X69137Y-32355D02*
X69772Y-32355D01*
X70246Y-32355D02*
X70346Y-32355D01*
X71775Y-32355D02*
X71818Y-32355D01*
X83775Y-32355D02*
X83818Y-32355D01*
X84775Y-32355D02*
X84818Y-32355D01*
X69167Y-32435D02*
X69772Y-32435D01*
X70246Y-32435D02*
X70346Y-32435D01*
X69167Y-32515D02*
X69772Y-32515D01*
X70246Y-32515D02*
X70346Y-32515D01*
X69167Y-32595D02*
X70346Y-32595D01*
X69167Y-32675D02*
X70346Y-32675D01*
X69167Y-32755D02*
X69771Y-32755D01*
X70246Y-32755D02*
X70346Y-32755D01*
X69167Y-32835D02*
X69771Y-32835D01*
X70246Y-32835D02*
X70346Y-32835D01*
X69136Y-32915D02*
X69772Y-32915D01*
X70246Y-32915D02*
X70346Y-32915D01*
X71773Y-32915D02*
X71818Y-32915D01*
X72773Y-32915D02*
X72818Y-32915D01*
X73773Y-32915D02*
X73818Y-32915D01*
X74773Y-32915D02*
X74818Y-32915D01*
X75773Y-32915D02*
X75818Y-32915D01*
X76773Y-32915D02*
X76818Y-32915D01*
X77773Y-32915D02*
X77818Y-32915D01*
X78773Y-32915D02*
X78818Y-32915D01*
X79773Y-32915D02*
X79818Y-32915D01*
X80773Y-32915D02*
X80818Y-32915D01*
X81773Y-32915D02*
X81818Y-32915D01*
X82773Y-32915D02*
X82818Y-32915D01*
X83773Y-32915D02*
X83818Y-32915D01*
X84773Y-32915D02*
X84818Y-32915D01*
X69102Y-32995D02*
X69787Y-32995D01*
X70246Y-32995D02*
X70346Y-32995D01*
X70804Y-32995D02*
X70881Y-32995D01*
X71711Y-32995D02*
X71881Y-32995D01*
X72711Y-32995D02*
X72881Y-32995D01*
X73711Y-32995D02*
X73881Y-32995D01*
X74711Y-32995D02*
X74881Y-32995D01*
X75711Y-32995D02*
X75881Y-32995D01*
X76711Y-32995D02*
X76881Y-32995D01*
X77711Y-32995D02*
X77881Y-32995D01*
X78711Y-32995D02*
X78881Y-32995D01*
X79711Y-32995D02*
X79881Y-32995D01*
X80711Y-32995D02*
X80881Y-32995D01*
X81711Y-32995D02*
X81881Y-32995D01*
X82711Y-32995D02*
X82881Y-32995D01*
X83711Y-32995D02*
X83881Y-32995D01*
X84711Y-32995D02*
X84881Y-32995D01*
X85711Y-32995D02*
X85725Y-32995D01*
X69069Y-33075D02*
X69835Y-33075D01*
X70246Y-33075D02*
X70346Y-33075D01*
X70757Y-33075D02*
X70961Y-33075D01*
X71631Y-33075D02*
X71961Y-33075D01*
X72631Y-33075D02*
X72961Y-33075D01*
X73631Y-33075D02*
X73961Y-33075D01*
X74631Y-33075D02*
X74961Y-33075D01*
X75631Y-33075D02*
X75961Y-33075D01*
X76631Y-33075D02*
X76961Y-33075D01*
X77631Y-33075D02*
X77961Y-33075D01*
X78631Y-33075D02*
X78961Y-33075D01*
X79631Y-33075D02*
X79961Y-33075D01*
X80631Y-33075D02*
X80961Y-33075D01*
X81631Y-33075D02*
X81961Y-33075D01*
X82631Y-33075D02*
X82961Y-33075D01*
X83631Y-33075D02*
X83961Y-33075D01*
X84631Y-33075D02*
X84961Y-33075D01*
X85631Y-33075D02*
X85725Y-33075D01*
X69035Y-33155D02*
X69964Y-33155D01*
X70188Y-33155D02*
X70404Y-33155D01*
X70627Y-33155D02*
X71119Y-33155D01*
X71472Y-33155D02*
X72119Y-33155D01*
X72472Y-33155D02*
X73119Y-33155D01*
X73472Y-33155D02*
X74119Y-33155D01*
X74472Y-33155D02*
X75119Y-33155D01*
X75472Y-33155D02*
X76119Y-33155D01*
X76472Y-33155D02*
X77119Y-33155D01*
X77472Y-33155D02*
X78119Y-33155D01*
X78472Y-33155D02*
X79119Y-33155D01*
X79472Y-33155D02*
X80119Y-33155D01*
X80472Y-33155D02*
X81119Y-33155D01*
X81472Y-33155D02*
X82119Y-33155D01*
X82472Y-33155D02*
X83119Y-33155D01*
X83472Y-33155D02*
X84119Y-33155D01*
X84472Y-33155D02*
X85119Y-33155D01*
X85472Y-33155D02*
X85725Y-33155D01*
X74604Y-28419D02*
X74604Y-28419D01*
X74638Y-28499D02*
X74959Y-28499D01*
X74655Y-28579D02*
X75364Y-28579D01*
X74655Y-28659D02*
X75387Y-28659D01*
X72630Y-28739D02*
X72762Y-28739D01*
X74646Y-28739D02*
X75354Y-28739D01*
X72667Y-28819D02*
X73397Y-28819D01*
X74613Y-28819D02*
X75349Y-28819D01*
X72674Y-28899D02*
X73847Y-28899D01*
X74570Y-28899D02*
X75349Y-28899D01*
X72674Y-28979D02*
X73927Y-28979D01*
X74490Y-28979D02*
X75370Y-28979D01*
X72674Y-29059D02*
X74079Y-29059D01*
X74338Y-29059D02*
X75403Y-29059D01*
X72674Y-29139D02*
X75464Y-29139D01*
X72660Y-29219D02*
X75546Y-29219D01*
X72614Y-29299D02*
X75798Y-29299D01*
X72527Y-29379D02*
X75718Y-29379D01*
X72543Y-29459D02*
X75641Y-29459D01*
X72559Y-29539D02*
X75568Y-29539D01*
X72621Y-29619D02*
X75494Y-29619D01*
X72663Y-29699D02*
X75421Y-29699D01*
X72674Y-29779D02*
X75348Y-29779D01*
X72674Y-29859D02*
X75277Y-29859D01*
X72674Y-29939D02*
X75209Y-29939D01*
X72674Y-30019D02*
X75141Y-30019D01*
X72674Y-30099D02*
X75073Y-30099D01*
X72674Y-30179D02*
X75004Y-30179D01*
X72674Y-30259D02*
X74936Y-30259D01*
X72647Y-30339D02*
X74868Y-30339D01*
X72588Y-30419D02*
X74800Y-30419D01*
X72588Y-30499D02*
X74732Y-30499D01*
X72588Y-30579D02*
X74664Y-30579D01*
X72588Y-30659D02*
X74596Y-30659D01*
X72588Y-30739D02*
X74528Y-30739D01*
X72588Y-30819D02*
X74460Y-30819D01*
X72588Y-30899D02*
X74392Y-30899D01*
X72588Y-30979D02*
X74324Y-30979D01*
X72587Y-31059D02*
X74256Y-31059D01*
X72587Y-31139D02*
X74188Y-31139D01*
X72587Y-31219D02*
X74119Y-31219D01*
X72587Y-31299D02*
X74051Y-31299D01*
X72587Y-31379D02*
X73983Y-31379D01*
X72587Y-31459D02*
X73915Y-31459D01*
X72587Y-31539D02*
X73847Y-31539D01*
X72586Y-31619D02*
X73779Y-31619D01*
X72586Y-31699D02*
X73711Y-31699D01*
X72586Y-31779D02*
X73643Y-31779D01*
X72586Y-31859D02*
X73575Y-31859D01*
X72586Y-31939D02*
X73507Y-31939D01*
X72586Y-32019D02*
X73439Y-32019D01*
X72586Y-32099D02*
X73154Y-32099D01*
X72617Y-32179D02*
X72975Y-32179D01*
X72697Y-32259D02*
X72895Y-32259D01*
X72768Y-32339D02*
X72825Y-32339D01*
X78551Y-29928D02*
X78646Y-29928D01*
X78551Y-30008D02*
X78824Y-30008D01*
X78551Y-30088D02*
X79002Y-30088D01*
X78534Y-30168D02*
X79180Y-30168D01*
X78495Y-30248D02*
X79359Y-30248D01*
X78522Y-30328D02*
X79537Y-30328D01*
X78586Y-30408D02*
X79715Y-30408D01*
X79004Y-30488D02*
X79266Y-30488D01*
X79406Y-30488D02*
X79612Y-30488D01*
X79753Y-30488D02*
X79893Y-30488D01*
X79126Y-30568D02*
X79143Y-30568D01*
X79459Y-30568D02*
X79559Y-30568D01*
X79875Y-30568D02*
X80055Y-30568D01*
X79459Y-30648D02*
X79559Y-30648D01*
X79921Y-30648D02*
X80135Y-30648D01*
X79459Y-30728D02*
X79559Y-30728D01*
X79933Y-30728D02*
X80215Y-30728D01*
X79459Y-30808D02*
X79559Y-30808D01*
X79934Y-30808D02*
X80290Y-30808D01*
X79459Y-30888D02*
X79559Y-30888D01*
X79934Y-30888D02*
X80361Y-30888D01*
X79183Y-30968D02*
X80431Y-30968D01*
X79183Y-31048D02*
X80502Y-31048D01*
X79459Y-31128D02*
X79559Y-31128D01*
X79933Y-31128D02*
X80573Y-31128D01*
X79459Y-31208D02*
X79559Y-31208D01*
X79933Y-31208D02*
X80644Y-31208D01*
X79459Y-31288D02*
X79559Y-31288D01*
X79933Y-31288D02*
X80715Y-31288D01*
X79459Y-31368D02*
X79559Y-31368D01*
X79916Y-31368D02*
X80785Y-31368D01*
X79459Y-31448D02*
X79559Y-31448D01*
X79867Y-31448D02*
X80856Y-31448D01*
X79556Y-31528D02*
X79620Y-31528D01*
X79733Y-31528D02*
X80927Y-31528D01*
X79872Y-31608D02*
X80998Y-31608D01*
X80146Y-31688D02*
X81068Y-31688D01*
X80420Y-31768D02*
X81139Y-31768D01*
X80654Y-31848D02*
X81210Y-31848D01*
X80783Y-31928D02*
X81281Y-31928D01*
X80899Y-32008D02*
X81352Y-32008D01*
X81016Y-32088D02*
X81180Y-32088D01*
X81413Y-32088D02*
X81422Y-32088D01*
X76839Y-30954D02*
X77215Y-30954D01*
X76839Y-31034D02*
X77215Y-31034D01*
X77509Y-28887D02*
X77609Y-28887D01*
X77509Y-28967D02*
X77609Y-28967D01*
X77509Y-29047D02*
X77609Y-29047D01*
X77509Y-29127D02*
X77609Y-29127D01*
X77509Y-29207D02*
X77609Y-29207D01*
X77509Y-29287D02*
X77609Y-29287D01*
X77509Y-29367D02*
X77609Y-29367D01*
X77509Y-29447D02*
X77609Y-29447D01*
X85725Y-33225D02*
X85725Y-32981D01*
X85607Y-33099D01*
X85405Y-33183D01*
X85187Y-33183D01*
X84985Y-33099D01*
X84831Y-32945D01*
X84796Y-32860D01*
X84761Y-32945D01*
X84607Y-33099D01*
X84405Y-33183D01*
X84187Y-33183D01*
X83985Y-33099D01*
X83831Y-32945D01*
X83796Y-32860D01*
X83761Y-32945D01*
X83607Y-33099D01*
X83405Y-33183D01*
X83187Y-33183D01*
X82985Y-33099D01*
X82831Y-32945D01*
X82796Y-32860D01*
X82761Y-32945D01*
X82607Y-33099D01*
X82405Y-33183D01*
X82187Y-33183D01*
X81985Y-33099D01*
X81831Y-32945D01*
X81796Y-32860D01*
X81761Y-32945D01*
X81607Y-33099D01*
X81405Y-33183D01*
X81187Y-33183D01*
X80985Y-33099D01*
X80831Y-32945D01*
X80796Y-32860D01*
X80761Y-32945D01*
X80607Y-33099D01*
X80405Y-33183D01*
X80187Y-33183D01*
X79985Y-33099D01*
X79831Y-32945D01*
X79795Y-32860D01*
X79761Y-32945D01*
X79607Y-33099D01*
X79405Y-33183D01*
X79187Y-33183D01*
X78985Y-33099D01*
X78831Y-32945D01*
X78795Y-32860D01*
X78761Y-32945D01*
X78607Y-33099D01*
X78405Y-33183D01*
X78187Y-33183D01*
X77985Y-33099D01*
X77831Y-32945D01*
X77796Y-32860D01*
X77761Y-32945D01*
X77607Y-33099D01*
X77405Y-33183D01*
X77187Y-33183D01*
X76985Y-33099D01*
X76831Y-32945D01*
X76796Y-32860D01*
X76761Y-32945D01*
X76607Y-33099D01*
X76405Y-33183D01*
X76187Y-33183D01*
X75985Y-33099D01*
X75831Y-32945D01*
X75796Y-32860D01*
X75761Y-32945D01*
X75607Y-33099D01*
X75405Y-33183D01*
X75187Y-33183D01*
X74985Y-33099D01*
X74831Y-32945D01*
X74796Y-32860D01*
X74761Y-32945D01*
X74607Y-33099D01*
X74405Y-33183D01*
X74187Y-33183D01*
X73985Y-33099D01*
X73831Y-32945D01*
X73796Y-32860D01*
X73761Y-32945D01*
X73607Y-33099D01*
X73405Y-33183D01*
X73187Y-33183D01*
X72985Y-33099D01*
X72831Y-32945D01*
X72796Y-32860D01*
X72761Y-32945D01*
X72607Y-33099D01*
X72405Y-33183D01*
X72187Y-33183D01*
X71985Y-33099D01*
X71831Y-32945D01*
X71796Y-32860D01*
X71761Y-32945D01*
X71607Y-33099D01*
X71405Y-33183D01*
X71187Y-33183D01*
X70985Y-33099D01*
X70831Y-32945D01*
X70820Y-32918D01*
X70820Y-32959D01*
X70782Y-33050D01*
X70712Y-33120D01*
X70620Y-33158D01*
X70408Y-33159D01*
X70346Y-33097D01*
X70346Y-32684D01*
X70346Y-32584D01*
X70346Y-32171D01*
X70408Y-32109D01*
X70513Y-32109D01*
X70513Y-31525D01*
X70401Y-31524D01*
X70309Y-31486D01*
X70239Y-31416D01*
X70201Y-31325D01*
X70201Y-31226D01*
X70200Y-31112D01*
X70262Y-31050D01*
X70262Y-30950D01*
X70200Y-30888D01*
X70201Y-30774D01*
X70201Y-30675D01*
X70239Y-30584D01*
X70309Y-30514D01*
X70401Y-30476D01*
X70513Y-30475D01*
X70575Y-30537D01*
X70575Y-30950D01*
X70262Y-30950D01*
X70262Y-31050D01*
X70575Y-31050D01*
X70575Y-31463D01*
X70513Y-31525D01*
X70513Y-32109D01*
X70620Y-32110D01*
X70712Y-32148D01*
X70782Y-32218D01*
X70820Y-32309D01*
X70820Y-32349D01*
X70831Y-32323D01*
X70985Y-32169D01*
X71035Y-32148D01*
X71075Y-31492D01*
X71059Y-31486D01*
X71000Y-31426D01*
X70941Y-31486D01*
X70849Y-31524D01*
X70737Y-31525D01*
X70675Y-31463D01*
X70675Y-31050D01*
X70675Y-30950D01*
X70675Y-30537D01*
X70737Y-30475D01*
X70849Y-30476D01*
X70941Y-30514D01*
X70999Y-30572D01*
X71059Y-30514D01*
X71151Y-30476D01*
X71588Y-30476D01*
X71588Y-30475D01*
X71526Y-30474D01*
X71434Y-30436D01*
X71364Y-30366D01*
X71326Y-30275D01*
X71326Y-30176D01*
X71325Y-30112D01*
X71387Y-30050D01*
X71387Y-29950D01*
X71325Y-29888D01*
X71326Y-29824D01*
X71326Y-29725D01*
X71364Y-29634D01*
X71434Y-29564D01*
X71526Y-29526D01*
X71588Y-29525D01*
X71650Y-29587D01*
X71650Y-29950D01*
X71387Y-29950D01*
X71387Y-30050D01*
X71650Y-30050D01*
X71650Y-30413D01*
X71588Y-30475D01*
X71588Y-30476D01*
X71600Y-30476D01*
X71691Y-30514D01*
X71761Y-30584D01*
X71799Y-30676D01*
X71799Y-31325D01*
X71761Y-31416D01*
X71691Y-31486D01*
X71655Y-31500D01*
X71614Y-32176D01*
X71761Y-32323D01*
X71796Y-32407D01*
X71831Y-32323D01*
X71985Y-32169D01*
X72006Y-32159D01*
X72009Y-30411D01*
X71999Y-30402D01*
X71966Y-30436D01*
X71874Y-30474D01*
X71812Y-30475D01*
X71750Y-30413D01*
X71750Y-30050D01*
X71750Y-29950D01*
X71750Y-29587D01*
X71812Y-29525D01*
X71874Y-29526D01*
X71966Y-29564D01*
X71973Y-29571D01*
X71935Y-29385D01*
X71925Y-29385D01*
X71834Y-29347D01*
X71764Y-29277D01*
X71726Y-29185D01*
X71726Y-28836D01*
X71758Y-28757D01*
X70024Y-29221D01*
X70024Y-29325D01*
X69986Y-29416D01*
X69916Y-29486D01*
X69824Y-29524D01*
X69697Y-29524D01*
X69767Y-29548D01*
X69790Y-29639D01*
X69500Y-29929D01*
X69210Y-29639D01*
X69233Y-29548D01*
X69291Y-29524D01*
X69175Y-29524D01*
X69084Y-29486D01*
X69014Y-29416D01*
X68976Y-29324D01*
X68976Y-28675D01*
X69014Y-28584D01*
X69084Y-28514D01*
X69176Y-28476D01*
X69825Y-28476D01*
X69916Y-28514D01*
X69986Y-28584D01*
X70003Y-28626D01*
X71759Y-28156D01*
X71764Y-28145D01*
X71834Y-28075D01*
X71926Y-28037D01*
X72475Y-28037D01*
X72566Y-28075D01*
X72628Y-28137D01*
X73909Y-28299D01*
X73936Y-28272D01*
X69861Y-27376D01*
X69801Y-27437D01*
X69612Y-27515D01*
X69387Y-27515D01*
X69198Y-27436D01*
X69053Y-27291D01*
X68975Y-27102D01*
X68975Y-26897D01*
X69054Y-26708D01*
X69199Y-26563D01*
X69388Y-26485D01*
X69613Y-26485D01*
X69802Y-26564D01*
X69947Y-26709D01*
X69989Y-26810D01*
X75068Y-27927D01*
X75081Y-27933D01*
X76031Y-28120D01*
X76075Y-28138D01*
X76129Y-28159D01*
X76135Y-28162D01*
X76171Y-28076D01*
X76257Y-27991D01*
X76368Y-27945D01*
X76566Y-27945D01*
X76566Y-27746D01*
X76612Y-27635D01*
X76698Y-27550D01*
X76809Y-27504D01*
X76930Y-27504D01*
X76968Y-27519D01*
X77006Y-27504D01*
X77035Y-27504D01*
X76992Y-27486D01*
X76922Y-27416D01*
X76884Y-27325D01*
X76884Y-27226D01*
X76883Y-27112D01*
X76945Y-27050D01*
X76945Y-26950D01*
X76883Y-26888D01*
X76884Y-26774D01*
X76884Y-26675D01*
X76922Y-26584D01*
X76992Y-26514D01*
X77084Y-26476D01*
X77196Y-26475D01*
X77258Y-26537D01*
X77258Y-26950D01*
X76945Y-26950D01*
X76945Y-27050D01*
X77258Y-27050D01*
X77358Y-27050D01*
X77358Y-26950D01*
X77358Y-26537D01*
X77420Y-26475D01*
X77532Y-26476D01*
X77624Y-26514D01*
X77683Y-26573D01*
X77742Y-26514D01*
X77834Y-26476D01*
X78283Y-26476D01*
X78374Y-26514D01*
X78444Y-26584D01*
X78482Y-26676D01*
X78482Y-26727D01*
X78522Y-26711D01*
X78699Y-26711D01*
X78863Y-26779D01*
X78988Y-26905D01*
X79056Y-27069D01*
X79056Y-27246D01*
X78988Y-27410D01*
X78922Y-27474D01*
X83333Y-27151D01*
X83357Y-27154D01*
X84936Y-27154D01*
X84984Y-27163D01*
X85028Y-27169D01*
X85033Y-27171D01*
X85039Y-27174D01*
X85047Y-27176D01*
X85048Y-27177D01*
X85053Y-27178D01*
X85094Y-27205D01*
X85132Y-27227D01*
X85138Y-27235D01*
X85147Y-27241D01*
X85442Y-27536D01*
X85447Y-27544D01*
X85456Y-27551D01*
X85478Y-27590D01*
X85505Y-27630D01*
X85505Y-27634D01*
X85507Y-27636D01*
X85508Y-27642D01*
X85512Y-27649D01*
X85514Y-27655D01*
X85519Y-27699D01*
X85529Y-27747D01*
X85529Y-28164D01*
X85527Y-28169D01*
X85518Y-29165D01*
X85504Y-29231D01*
X85496Y-29273D01*
X85495Y-29273D01*
X85495Y-29276D01*
X85456Y-29332D01*
X85433Y-29367D01*
X85432Y-29368D01*
X85431Y-29368D01*
X85431Y-29369D01*
X85140Y-29660D01*
X85120Y-29672D01*
X85180Y-29688D01*
X85236Y-29825D01*
X85247Y-30029D01*
X85180Y-30222D01*
X85089Y-30245D01*
X84799Y-29955D01*
X84728Y-29884D01*
X84657Y-29955D01*
X84367Y-30245D01*
X84276Y-30222D01*
X84231Y-30112D01*
X84173Y-30253D01*
X84025Y-30400D01*
X83832Y-30480D01*
X83623Y-30480D01*
X83430Y-30400D01*
X83283Y-30252D01*
X83203Y-30059D01*
X83203Y-29850D01*
X83283Y-29657D01*
X83431Y-29510D01*
X83563Y-29455D01*
X83430Y-29400D01*
X83283Y-29252D01*
X83203Y-29059D01*
X83203Y-28850D01*
X83247Y-28742D01*
X78979Y-28735D01*
X78977Y-28740D01*
X78993Y-28779D01*
X78993Y-28900D01*
X78977Y-28937D01*
X78993Y-28976D01*
X78993Y-29097D01*
X78977Y-29134D01*
X78993Y-29173D01*
X78993Y-29208D01*
X80387Y-29768D01*
X80388Y-29769D01*
X80393Y-29770D01*
X80470Y-29803D01*
X80498Y-29822D01*
X80549Y-29851D01*
X83134Y-32107D01*
X83187Y-32085D01*
X83405Y-32085D01*
X83607Y-32169D01*
X83761Y-32323D01*
X83796Y-32407D01*
X83831Y-32323D01*
X83985Y-32169D01*
X84187Y-32085D01*
X84405Y-32085D01*
X84607Y-32169D01*
X84654Y-32215D01*
X84654Y-30474D01*
X84461Y-30407D01*
X84438Y-30316D01*
X84728Y-30026D01*
X85018Y-30316D01*
X84995Y-30407D01*
X84858Y-30463D01*
X84654Y-30474D01*
X84654Y-32215D01*
X84761Y-32323D01*
X84796Y-32407D01*
X84831Y-32323D01*
X84985Y-32169D01*
X85187Y-32085D01*
X85405Y-32085D01*
X85607Y-32169D01*
X85725Y-32287D01*
X85725Y-26275D01*
X67275Y-26275D01*
X67275Y-32023D01*
X67544Y-31754D01*
X67925Y-31597D01*
X68337Y-31597D01*
X68718Y-31756D01*
X69010Y-32048D01*
X69139Y-32361D01*
X69139Y-30290D01*
X69048Y-30267D01*
X68992Y-30130D01*
X68981Y-29926D01*
X69048Y-29733D01*
X69139Y-29710D01*
X69429Y-30000D01*
X69139Y-30290D01*
X69139Y-32361D01*
X69167Y-32429D01*
X69167Y-32841D01*
X69008Y-33222D01*
X69005Y-33225D01*
X69426Y-33225D01*
X69426Y-30519D01*
X69233Y-30452D01*
X69210Y-30361D01*
X69500Y-30071D01*
X69790Y-30361D01*
X69767Y-30452D01*
X69630Y-30508D01*
X69426Y-30519D01*
X69426Y-33225D01*
X70184Y-33225D01*
X70184Y-33159D01*
X69972Y-33158D01*
X69880Y-33120D01*
X69810Y-33050D01*
X69772Y-32959D01*
X69772Y-32860D01*
X69771Y-32746D01*
X69833Y-32684D01*
X69833Y-32584D01*
X69771Y-32522D01*
X69772Y-32408D01*
X69772Y-32309D01*
X69810Y-32218D01*
X69861Y-32167D01*
X69861Y-30290D01*
X69571Y-30000D01*
X69861Y-29710D01*
X69952Y-29733D01*
X70008Y-29870D01*
X70019Y-30074D01*
X69952Y-30267D01*
X69861Y-30290D01*
X69861Y-32167D01*
X69880Y-32148D01*
X69972Y-32110D01*
X70184Y-32109D01*
X70246Y-32171D01*
X70246Y-32584D01*
X69833Y-32584D01*
X69833Y-32684D01*
X70246Y-32684D01*
X70246Y-33097D01*
X70184Y-33159D01*
X70184Y-33225D01*
X85725Y-33225D01*
X67275Y-26275D02*
X85725Y-26275D01*
X67275Y-26355D02*
X85725Y-26355D01*
X67275Y-26435D02*
X85725Y-26435D01*
X67275Y-26515D02*
X69316Y-26515D01*
X69685Y-26515D02*
X76991Y-26515D01*
X77236Y-26515D02*
X77380Y-26515D01*
X77625Y-26515D02*
X77741Y-26515D01*
X78375Y-26515D02*
X85725Y-26515D01*
X67275Y-26595D02*
X69167Y-26595D01*
X69833Y-26595D02*
X76918Y-26595D01*
X77258Y-26595D02*
X77358Y-26595D01*
X78449Y-26595D02*
X85725Y-26595D01*
X67275Y-26675D02*
X69087Y-26675D01*
X69913Y-26675D02*
X76884Y-26675D01*
X77258Y-26675D02*
X77358Y-26675D01*
X78482Y-26675D02*
X85725Y-26675D01*
X67275Y-26755D02*
X69035Y-26755D01*
X69967Y-26755D02*
X76884Y-26755D01*
X77258Y-26755D02*
X77358Y-26755D01*
X78806Y-26755D02*
X85725Y-26755D01*
X67275Y-26835D02*
X69001Y-26835D01*
X70103Y-26835D02*
X76884Y-26835D01*
X77258Y-26835D02*
X77358Y-26835D01*
X78919Y-26835D02*
X85725Y-26835D01*
X67275Y-26915D02*
X68975Y-26915D01*
X70467Y-26915D02*
X76910Y-26915D01*
X77258Y-26915D02*
X77358Y-26915D01*
X78993Y-26915D02*
X85725Y-26915D01*
X67275Y-26995D02*
X68975Y-26995D01*
X70831Y-26995D02*
X77358Y-26995D01*
X79026Y-26995D02*
X85725Y-26995D01*
X67275Y-27075D02*
X68975Y-27075D01*
X71194Y-27075D02*
X76920Y-27075D01*
X79056Y-27075D02*
X85725Y-27075D01*
X67275Y-27155D02*
X68996Y-27155D01*
X71558Y-27155D02*
X76883Y-27155D01*
X79056Y-27155D02*
X83279Y-27155D01*
X84942Y-27155D02*
X85725Y-27155D01*
X67275Y-27235D02*
X69029Y-27235D01*
X71922Y-27235D02*
X76884Y-27235D01*
X79056Y-27235D02*
X82186Y-27235D01*
X85138Y-27235D02*
X85725Y-27235D01*
X67275Y-27315D02*
X69077Y-27315D01*
X72286Y-27315D02*
X76884Y-27315D01*
X79027Y-27315D02*
X81094Y-27315D01*
X85221Y-27315D02*
X85725Y-27315D01*
X67275Y-27395D02*
X69157Y-27395D01*
X69842Y-27395D02*
X69947Y-27395D01*
X72649Y-27395D02*
X76913Y-27395D01*
X78994Y-27395D02*
X80001Y-27395D01*
X85301Y-27395D02*
X85725Y-27395D01*
X67275Y-27475D02*
X69291Y-27475D01*
X69708Y-27475D02*
X70311Y-27475D01*
X73013Y-27475D02*
X76981Y-27475D01*
X85381Y-27475D02*
X85725Y-27475D01*
X67275Y-27555D02*
X70675Y-27555D01*
X73377Y-27555D02*
X76693Y-27555D01*
X85459Y-27555D02*
X85725Y-27555D01*
X67275Y-27635D02*
X71038Y-27635D01*
X73741Y-27635D02*
X76612Y-27635D01*
X85506Y-27635D02*
X85725Y-27635D01*
X67275Y-27715D02*
X71402Y-27715D01*
X74105Y-27715D02*
X76579Y-27715D01*
X85523Y-27715D02*
X85725Y-27715D01*
X67275Y-27795D02*
X71766Y-27795D01*
X74468Y-27795D02*
X76566Y-27795D01*
X85529Y-27795D02*
X85725Y-27795D01*
X67275Y-27875D02*
X72130Y-27875D01*
X74832Y-27875D02*
X76566Y-27875D01*
X85529Y-27875D02*
X85725Y-27875D01*
X67275Y-27955D02*
X72494Y-27955D01*
X75193Y-27955D02*
X76344Y-27955D01*
X85529Y-27955D02*
X85725Y-27955D01*
X67275Y-28035D02*
X72858Y-28035D01*
X75600Y-28035D02*
X76213Y-28035D01*
X85529Y-28035D02*
X85725Y-28035D01*
X67275Y-28115D02*
X71794Y-28115D01*
X72606Y-28115D02*
X73221Y-28115D01*
X76006Y-28115D02*
X76155Y-28115D01*
X85529Y-28115D02*
X85725Y-28115D01*
X67275Y-28195D02*
X71614Y-28195D01*
X73087Y-28195D02*
X73585Y-28195D01*
X85526Y-28195D02*
X85725Y-28195D01*
X67275Y-28275D02*
X71315Y-28275D01*
X73720Y-28275D02*
X73933Y-28275D01*
X85526Y-28275D02*
X85725Y-28275D01*
X67275Y-28355D02*
X71016Y-28355D01*
X85525Y-28355D02*
X85725Y-28355D01*
X67275Y-28435D02*
X70717Y-28435D01*
X85524Y-28435D02*
X85725Y-28435D01*
X67275Y-28515D02*
X69083Y-28515D01*
X69917Y-28515D02*
X70418Y-28515D01*
X85523Y-28515D02*
X85725Y-28515D01*
X67275Y-28595D02*
X69010Y-28595D01*
X69991Y-28595D02*
X70119Y-28595D01*
X85523Y-28595D02*
X85725Y-28595D01*
X67275Y-28675D02*
X68976Y-28675D01*
X85522Y-28675D02*
X85725Y-28675D01*
X67275Y-28755D02*
X68976Y-28755D01*
X78984Y-28755D02*
X83242Y-28755D01*
X85521Y-28755D02*
X85725Y-28755D01*
X67275Y-28835D02*
X68976Y-28835D01*
X71466Y-28835D02*
X71727Y-28835D01*
X78993Y-28835D02*
X83210Y-28835D01*
X85520Y-28835D02*
X85725Y-28835D01*
X67275Y-28915D02*
X68976Y-28915D01*
X71167Y-28915D02*
X71726Y-28915D01*
X78986Y-28915D02*
X83203Y-28915D01*
X85520Y-28915D02*
X85725Y-28915D01*
X67275Y-28995D02*
X68976Y-28995D01*
X70868Y-28995D02*
X71726Y-28995D01*
X78993Y-28995D02*
X83203Y-28995D01*
X85519Y-28995D02*
X85725Y-28995D01*
X67275Y-29075D02*
X68976Y-29075D01*
X70569Y-29075D02*
X71726Y-29075D01*
X78993Y-29075D02*
X83209Y-29075D01*
X85518Y-29075D02*
X85725Y-29075D01*
X67275Y-29155D02*
X68976Y-29155D01*
X70270Y-29155D02*
X71726Y-29155D01*
X78986Y-29155D02*
X83242Y-29155D01*
X85518Y-29155D02*
X85725Y-29155D01*
X67275Y-29235D02*
X68976Y-29235D01*
X70024Y-29235D02*
X71746Y-29235D01*
X79061Y-29235D02*
X83275Y-29235D01*
X85503Y-29235D02*
X85725Y-29235D01*
X67275Y-29315D02*
X68976Y-29315D01*
X70024Y-29315D02*
X71802Y-29315D01*
X79260Y-29315D02*
X83345Y-29315D01*
X85467Y-29315D02*
X85725Y-29315D01*
X67275Y-29395D02*
X69005Y-29395D01*
X69994Y-29395D02*
X71937Y-29395D01*
X79459Y-29395D02*
X83425Y-29395D01*
X85405Y-29395D02*
X85725Y-29395D01*
X67275Y-29475D02*
X69073Y-29475D01*
X69927Y-29475D02*
X71953Y-29475D01*
X79658Y-29475D02*
X83515Y-29475D01*
X85325Y-29475D02*
X85725Y-29475D01*
X67275Y-29555D02*
X69232Y-29555D01*
X69769Y-29555D02*
X71456Y-29555D01*
X71618Y-29555D02*
X71782Y-29555D01*
X71945Y-29555D02*
X71969Y-29555D01*
X79857Y-29555D02*
X83386Y-29555D01*
X85245Y-29555D02*
X85725Y-29555D01*
X67275Y-29635D02*
X69212Y-29635D01*
X69789Y-29635D02*
X71364Y-29635D01*
X71650Y-29635D02*
X71750Y-29635D01*
X80056Y-29635D02*
X83306Y-29635D01*
X85165Y-29635D02*
X85725Y-29635D01*
X67275Y-29715D02*
X69120Y-29715D01*
X69144Y-29715D02*
X69286Y-29715D01*
X69714Y-29715D02*
X69856Y-29715D01*
X69881Y-29715D02*
X71331Y-29715D01*
X71650Y-29715D02*
X71750Y-29715D01*
X80256Y-29715D02*
X83259Y-29715D01*
X85192Y-29715D02*
X85725Y-29715D01*
X67275Y-29795D02*
X69027Y-29795D01*
X69224Y-29795D02*
X69366Y-29795D01*
X69634Y-29795D02*
X69776Y-29795D01*
X69978Y-29795D02*
X71326Y-29795D01*
X71650Y-29795D02*
X71750Y-29795D01*
X80452Y-29795D02*
X83226Y-29795D01*
X85224Y-29795D02*
X85725Y-29795D01*
X67275Y-29875D02*
X68999Y-29875D01*
X69304Y-29875D02*
X69446Y-29875D01*
X69554Y-29875D02*
X69696Y-29875D01*
X70009Y-29875D02*
X71326Y-29875D01*
X71650Y-29875D02*
X71750Y-29875D01*
X80577Y-29875D02*
X83203Y-29875D01*
X85239Y-29875D02*
X85725Y-29875D01*
X67275Y-29955D02*
X68982Y-29955D01*
X69384Y-29955D02*
X69616Y-29955D01*
X70013Y-29955D02*
X71750Y-29955D01*
X80669Y-29955D02*
X83203Y-29955D01*
X84657Y-29955D02*
X84799Y-29955D01*
X85244Y-29955D02*
X85725Y-29955D01*
X67275Y-30035D02*
X68986Y-30035D01*
X69394Y-30035D02*
X69606Y-30035D01*
X70017Y-30035D02*
X71750Y-30035D01*
X80760Y-30035D02*
X83203Y-30035D01*
X84577Y-30035D02*
X84719Y-30035D01*
X84737Y-30035D02*
X84879Y-30035D01*
X85244Y-30035D02*
X85725Y-30035D01*
X67275Y-30115D02*
X68991Y-30115D01*
X69314Y-30115D02*
X69456Y-30115D01*
X69544Y-30115D02*
X69686Y-30115D01*
X70004Y-30115D02*
X71325Y-30115D01*
X71650Y-30115D02*
X71750Y-30115D01*
X80852Y-30115D02*
X83226Y-30115D01*
X84229Y-30115D02*
X84232Y-30115D01*
X84497Y-30115D02*
X84639Y-30115D01*
X84817Y-30115D02*
X84959Y-30115D01*
X85217Y-30115D02*
X85725Y-30115D01*
X67275Y-30195D02*
X69018Y-30195D01*
X69234Y-30195D02*
X69376Y-30195D01*
X69624Y-30195D02*
X69766Y-30195D01*
X69976Y-30195D02*
X71326Y-30195D01*
X71650Y-30195D02*
X71750Y-30195D01*
X80944Y-30195D02*
X83259Y-30195D01*
X84196Y-30195D02*
X84264Y-30195D01*
X84417Y-30195D02*
X84559Y-30195D01*
X84897Y-30195D02*
X85039Y-30195D01*
X85189Y-30195D02*
X85725Y-30195D01*
X67275Y-30275D02*
X69079Y-30275D01*
X69154Y-30275D02*
X69296Y-30275D01*
X69704Y-30275D02*
X69846Y-30275D01*
X69920Y-30275D02*
X71326Y-30275D01*
X71650Y-30275D02*
X71750Y-30275D01*
X81035Y-30275D02*
X83305Y-30275D01*
X84150Y-30275D02*
X84479Y-30275D01*
X84977Y-30275D02*
X85725Y-30275D01*
X67275Y-30355D02*
X69216Y-30355D01*
X69784Y-30355D02*
X71359Y-30355D01*
X71650Y-30355D02*
X71750Y-30355D01*
X81127Y-30355D02*
X83385Y-30355D01*
X84070Y-30355D02*
X84447Y-30355D01*
X85008Y-30355D02*
X85725Y-30355D01*
X67275Y-30435D02*
X69228Y-30435D01*
X69771Y-30435D02*
X71433Y-30435D01*
X71628Y-30435D02*
X71772Y-30435D01*
X71966Y-30435D02*
X72009Y-30435D01*
X81219Y-30435D02*
X83514Y-30435D01*
X83940Y-30435D02*
X84541Y-30435D01*
X84926Y-30435D02*
X85725Y-30435D01*
X67275Y-30515D02*
X69414Y-30515D01*
X69500Y-30515D02*
X70308Y-30515D01*
X70553Y-30515D02*
X70697Y-30515D01*
X70942Y-30515D02*
X71058Y-30515D01*
X71692Y-30515D02*
X72009Y-30515D01*
X81310Y-30515D02*
X85725Y-30515D01*
X67275Y-30595D02*
X70235Y-30595D01*
X70575Y-30595D02*
X70675Y-30595D01*
X71766Y-30595D02*
X72009Y-30595D01*
X81402Y-30595D02*
X85725Y-30595D01*
X67275Y-30675D02*
X70201Y-30675D01*
X70575Y-30675D02*
X70675Y-30675D01*
X71799Y-30675D02*
X72009Y-30675D01*
X81494Y-30675D02*
X85725Y-30675D01*
X67275Y-30755D02*
X70201Y-30755D01*
X70575Y-30755D02*
X70675Y-30755D01*
X71799Y-30755D02*
X72009Y-30755D01*
X81585Y-30755D02*
X85725Y-30755D01*
X67275Y-30835D02*
X70201Y-30835D01*
X70575Y-30835D02*
X70675Y-30835D01*
X71799Y-30835D02*
X72009Y-30835D01*
X81677Y-30835D02*
X85725Y-30835D01*
X67275Y-30915D02*
X70227Y-30915D01*
X70575Y-30915D02*
X70675Y-30915D01*
X71799Y-30915D02*
X72009Y-30915D01*
X81769Y-30915D02*
X85725Y-30915D01*
X67275Y-30995D02*
X70675Y-30995D01*
X71799Y-30995D02*
X72008Y-30995D01*
X81860Y-30995D02*
X85725Y-30995D01*
X67275Y-31075D02*
X70237Y-31075D01*
X70575Y-31075D02*
X70675Y-31075D01*
X71799Y-31075D02*
X72008Y-31075D01*
X81952Y-31075D02*
X85725Y-31075D01*
X67275Y-31155D02*
X70200Y-31155D01*
X70575Y-31155D02*
X70675Y-31155D01*
X71799Y-31155D02*
X72008Y-31155D01*
X82044Y-31155D02*
X85725Y-31155D01*
X67275Y-31235D02*
X70201Y-31235D01*
X70575Y-31235D02*
X70675Y-31235D01*
X71799Y-31235D02*
X72008Y-31235D01*
X82135Y-31235D02*
X85725Y-31235D01*
X67275Y-31315D02*
X70201Y-31315D01*
X70575Y-31315D02*
X70675Y-31315D01*
X71799Y-31315D02*
X72008Y-31315D01*
X82227Y-31315D02*
X85725Y-31315D01*
X67275Y-31395D02*
X70230Y-31395D01*
X70575Y-31395D02*
X70675Y-31395D01*
X71769Y-31395D02*
X72008Y-31395D01*
X82319Y-31395D02*
X85725Y-31395D01*
X67275Y-31475D02*
X70298Y-31475D01*
X70563Y-31475D02*
X70687Y-31475D01*
X70951Y-31475D02*
X71048Y-31475D01*
X71702Y-31475D02*
X72008Y-31475D01*
X82410Y-31475D02*
X85725Y-31475D01*
X67275Y-31555D02*
X71072Y-31555D01*
X71651Y-31555D02*
X72008Y-31555D01*
X82502Y-31555D02*
X85725Y-31555D01*
X67275Y-31635D02*
X67833Y-31635D01*
X68429Y-31635D02*
X71067Y-31635D01*
X71646Y-31635D02*
X72007Y-31635D01*
X82594Y-31635D02*
X85725Y-31635D01*
X67275Y-31715D02*
X67639Y-31715D01*
X68620Y-31715D02*
X71062Y-31715D01*
X71641Y-31715D02*
X72007Y-31715D01*
X82685Y-31715D02*
X85725Y-31715D01*
X67275Y-31795D02*
X67503Y-31795D01*
X68757Y-31795D02*
X71057Y-31795D01*
X71637Y-31795D02*
X72007Y-31795D01*
X82777Y-31795D02*
X85725Y-31795D01*
X67275Y-31875D02*
X67423Y-31875D01*
X68837Y-31875D02*
X71052Y-31875D01*
X71632Y-31875D02*
X72007Y-31875D01*
X82869Y-31875D02*
X85725Y-31875D01*
X67275Y-31955D02*
X67343Y-31955D01*
X68917Y-31955D02*
X71047Y-31955D01*
X71627Y-31955D02*
X72007Y-31955D01*
X82960Y-31955D02*
X85725Y-31955D01*
X68997Y-32035D02*
X71042Y-32035D01*
X71622Y-32035D02*
X72007Y-32035D01*
X83052Y-32035D02*
X85725Y-32035D01*
X69038Y-32115D02*
X69960Y-32115D01*
X70190Y-32115D02*
X70402Y-32115D01*
X70633Y-32115D02*
X71038Y-32115D01*
X71617Y-32115D02*
X72007Y-32115D01*
X83478Y-32115D02*
X84115Y-32115D01*
X84478Y-32115D02*
X85115Y-32115D01*
X85478Y-32115D02*
X85725Y-32115D01*
X69071Y-32195D02*
X69833Y-32195D01*
X70246Y-32195D02*
X70346Y-32195D01*
X70759Y-32195D02*
X70959Y-32195D01*
X71633Y-32195D02*
X71959Y-32195D01*
X83633Y-32195D02*
X83959Y-32195D01*
X84634Y-32195D02*
X84959Y-32195D01*
X85633Y-32195D02*
X85725Y-32195D01*
X69104Y-32275D02*
X69787Y-32275D01*
X70246Y-32275D02*
X70346Y-32275D01*
X70806Y-32275D02*
X70879Y-32275D01*
X71713Y-32275D02*
X71879Y-32275D01*
X83713Y-32275D02*
X83879Y-32275D01*
X84714Y-32275D02*
X84879Y-32275D01*
X85713Y-32275D02*
X85725Y-32275D01*
X69137Y-32355D02*
X69772Y-32355D01*
X70246Y-32355D02*
X70346Y-32355D01*
X71775Y-32355D02*
X71818Y-32355D01*
X83775Y-32355D02*
X83818Y-32355D01*
X84775Y-32355D02*
X84818Y-32355D01*
X69167Y-32435D02*
X69772Y-32435D01*
X70246Y-32435D02*
X70346Y-32435D01*
X69167Y-32515D02*
X69772Y-32515D01*
X70246Y-32515D02*
X70346Y-32515D01*
X69167Y-32595D02*
X70346Y-32595D01*
X69167Y-32675D02*
X70346Y-32675D01*
X69167Y-32755D02*
X69771Y-32755D01*
X70246Y-32755D02*
X70346Y-32755D01*
X69167Y-32835D02*
X69771Y-32835D01*
X70246Y-32835D02*
X70346Y-32835D01*
X69136Y-32915D02*
X69772Y-32915D01*
X70246Y-32915D02*
X70346Y-32915D01*
X71773Y-32915D02*
X71818Y-32915D01*
X72773Y-32915D02*
X72818Y-32915D01*
X73773Y-32915D02*
X73818Y-32915D01*
X74773Y-32915D02*
X74818Y-32915D01*
X75773Y-32915D02*
X75818Y-32915D01*
X76773Y-32915D02*
X76818Y-32915D01*
X77773Y-32915D02*
X77818Y-32915D01*
X78773Y-32915D02*
X78818Y-32915D01*
X79773Y-32915D02*
X79818Y-32915D01*
X80773Y-32915D02*
X80818Y-32915D01*
X81773Y-32915D02*
X81818Y-32915D01*
X82773Y-32915D02*
X82818Y-32915D01*
X83773Y-32915D02*
X83818Y-32915D01*
X84773Y-32915D02*
X84818Y-32915D01*
X69102Y-32995D02*
X69787Y-32995D01*
X70246Y-32995D02*
X70346Y-32995D01*
X70804Y-32995D02*
X70881Y-32995D01*
X71711Y-32995D02*
X71881Y-32995D01*
X72711Y-32995D02*
X72881Y-32995D01*
X73711Y-32995D02*
X73881Y-32995D01*
X74711Y-32995D02*
X74881Y-32995D01*
X75711Y-32995D02*
X75881Y-32995D01*
X76711Y-32995D02*
X76881Y-32995D01*
X77711Y-32995D02*
X77881Y-32995D01*
X78711Y-32995D02*
X78881Y-32995D01*
X79711Y-32995D02*
X79881Y-32995D01*
X80711Y-32995D02*
X80881Y-32995D01*
X81711Y-32995D02*
X81881Y-32995D01*
X82711Y-32995D02*
X82881Y-32995D01*
X83711Y-32995D02*
X83881Y-32995D01*
X84711Y-32995D02*
X84881Y-32995D01*
X85711Y-32995D02*
X85725Y-32995D01*
X69069Y-33075D02*
X69835Y-33075D01*
X70246Y-33075D02*
X70346Y-33075D01*
X70757Y-33075D02*
X70961Y-33075D01*
X71631Y-33075D02*
X71961Y-33075D01*
X72631Y-33075D02*
X72961Y-33075D01*
X73631Y-33075D02*
X73961Y-33075D01*
X74631Y-33075D02*
X74961Y-33075D01*
X75631Y-33075D02*
X75961Y-33075D01*
X76631Y-33075D02*
X76961Y-33075D01*
X77631Y-33075D02*
X77961Y-33075D01*
X78631Y-33075D02*
X78961Y-33075D01*
X79631Y-33075D02*
X79961Y-33075D01*
X80631Y-33075D02*
X80961Y-33075D01*
X81631Y-33075D02*
X81961Y-33075D01*
X82631Y-33075D02*
X82961Y-33075D01*
X83631Y-33075D02*
X83961Y-33075D01*
X84631Y-33075D02*
X84961Y-33075D01*
X85631Y-33075D02*
X85725Y-33075D01*
X69035Y-33155D02*
X69964Y-33155D01*
X70188Y-33155D02*
X70404Y-33155D01*
X70627Y-33155D02*
X71119Y-33155D01*
X71472Y-33155D02*
X72119Y-33155D01*
X72472Y-33155D02*
X73119Y-33155D01*
X73472Y-33155D02*
X74119Y-33155D01*
X74472Y-33155D02*
X75119Y-33155D01*
X75472Y-33155D02*
X76119Y-33155D01*
X76472Y-33155D02*
X77119Y-33155D01*
X77472Y-33155D02*
X78119Y-33155D01*
X78472Y-33155D02*
X79119Y-33155D01*
X79472Y-33155D02*
X80119Y-33155D01*
X80472Y-33155D02*
X81119Y-33155D01*
X81472Y-33155D02*
X82119Y-33155D01*
X82472Y-33155D02*
X83119Y-33155D01*
X83472Y-33155D02*
X84119Y-33155D01*
X84472Y-33155D02*
X85119Y-33155D01*
X85472Y-33155D02*
X85725Y-33155D01*
X74604Y-28419D02*
X74604Y-28419D01*
X74638Y-28499D02*
X74959Y-28499D01*
X74655Y-28579D02*
X75364Y-28579D01*
X74655Y-28659D02*
X75387Y-28659D01*
X72630Y-28739D02*
X72762Y-28739D01*
X74646Y-28739D02*
X75354Y-28739D01*
X72667Y-28819D02*
X73397Y-28819D01*
X74613Y-28819D02*
X75349Y-28819D01*
X72674Y-28899D02*
X73847Y-28899D01*
X74570Y-28899D02*
X75349Y-28899D01*
X72674Y-28979D02*
X73927Y-28979D01*
X74490Y-28979D02*
X75370Y-28979D01*
X72674Y-29059D02*
X74079Y-29059D01*
X74338Y-29059D02*
X75403Y-29059D01*
X72674Y-29139D02*
X75464Y-29139D01*
X72660Y-29219D02*
X75546Y-29219D01*
X72614Y-29299D02*
X75798Y-29299D01*
X72527Y-29379D02*
X75718Y-29379D01*
X72543Y-29459D02*
X75641Y-29459D01*
X72559Y-29539D02*
X75568Y-29539D01*
X72621Y-29619D02*
X75494Y-29619D01*
X72663Y-29699D02*
X75421Y-29699D01*
X72674Y-29779D02*
X75348Y-29779D01*
X72674Y-29859D02*
X75277Y-29859D01*
X72674Y-29939D02*
X75209Y-29939D01*
X72674Y-30019D02*
X75141Y-30019D01*
X72674Y-30099D02*
X75073Y-30099D01*
X72674Y-30179D02*
X75004Y-30179D01*
X72674Y-30259D02*
X74936Y-30259D01*
X72647Y-30339D02*
X74868Y-30339D01*
X72588Y-30419D02*
X74800Y-30419D01*
X72588Y-30499D02*
X74732Y-30499D01*
X72588Y-30579D02*
X74664Y-30579D01*
X72588Y-30659D02*
X74596Y-30659D01*
X72588Y-30739D02*
X74528Y-30739D01*
X72588Y-30819D02*
X74460Y-30819D01*
X72588Y-30899D02*
X74392Y-30899D01*
X72588Y-30979D02*
X74324Y-30979D01*
X72587Y-31059D02*
X74256Y-31059D01*
X72587Y-31139D02*
X74188Y-31139D01*
X72587Y-31219D02*
X74119Y-31219D01*
X72587Y-31299D02*
X74051Y-31299D01*
X72587Y-31379D02*
X73983Y-31379D01*
X72587Y-31459D02*
X73915Y-31459D01*
X72587Y-31539D02*
X73847Y-31539D01*
X72586Y-31619D02*
X73779Y-31619D01*
X72586Y-31699D02*
X73711Y-31699D01*
X72586Y-31779D02*
X73643Y-31779D01*
X72586Y-31859D02*
X73575Y-31859D01*
X72586Y-31939D02*
X73507Y-31939D01*
X72586Y-32019D02*
X73439Y-32019D01*
X72586Y-32099D02*
X73154Y-32099D01*
X72617Y-32179D02*
X72975Y-32179D01*
X72697Y-32259D02*
X72895Y-32259D01*
X72768Y-32339D02*
X72825Y-32339D01*
X78551Y-29928D02*
X78646Y-29928D01*
X78551Y-30008D02*
X78824Y-30008D01*
X78551Y-30088D02*
X79002Y-30088D01*
X78534Y-30168D02*
X79180Y-30168D01*
X78495Y-30248D02*
X79359Y-30248D01*
X78522Y-30328D02*
X79537Y-30328D01*
X78586Y-30408D02*
X79715Y-30408D01*
X79004Y-30488D02*
X79266Y-30488D01*
X79406Y-30488D02*
X79612Y-30488D01*
X79753Y-30488D02*
X79893Y-30488D01*
X79126Y-30568D02*
X79143Y-30568D01*
X79459Y-30568D02*
X79559Y-30568D01*
X79875Y-30568D02*
X80055Y-30568D01*
X79459Y-30648D02*
X79559Y-30648D01*
X79921Y-30648D02*
X80135Y-30648D01*
X79459Y-30728D02*
X79559Y-30728D01*
X79933Y-30728D02*
X80215Y-30728D01*
X79459Y-30808D02*
X79559Y-30808D01*
X79934Y-30808D02*
X80290Y-30808D01*
X79459Y-30888D02*
X79559Y-30888D01*
X79934Y-30888D02*
X80361Y-30888D01*
X79183Y-30968D02*
X80431Y-30968D01*
X79183Y-31048D02*
X80502Y-31048D01*
X79459Y-31128D02*
X79559Y-31128D01*
X79933Y-31128D02*
X80573Y-31128D01*
X79459Y-31208D02*
X79559Y-31208D01*
X79933Y-31208D02*
X80644Y-31208D01*
X79459Y-31288D02*
X79559Y-31288D01*
X79933Y-31288D02*
X80715Y-31288D01*
X79459Y-31368D02*
X79559Y-31368D01*
X79916Y-31368D02*
X80785Y-31368D01*
X79459Y-31448D02*
X79559Y-31448D01*
X79867Y-31448D02*
X80856Y-31448D01*
X79556Y-31528D02*
X79620Y-31528D01*
X79733Y-31528D02*
X80927Y-31528D01*
X79872Y-31608D02*
X80998Y-31608D01*
X80146Y-31688D02*
X81068Y-31688D01*
X80420Y-31768D02*
X81139Y-31768D01*
X80654Y-31848D02*
X81210Y-31848D01*
X80783Y-31928D02*
X81281Y-31928D01*
X80899Y-32008D02*
X81352Y-32008D01*
X81016Y-32088D02*
X81180Y-32088D01*
X81413Y-32088D02*
X81422Y-32088D01*
X76839Y-30954D02*
X77215Y-30954D01*
X76839Y-31034D02*
X77215Y-31034D01*
X77509Y-28887D02*
X77609Y-28887D01*
X77509Y-28967D02*
X77609Y-28967D01*
X77509Y-29047D02*
X77609Y-29047D01*
X77509Y-29127D02*
X77609Y-29127D01*
X77509Y-29207D02*
X77609Y-29207D01*
X77509Y-29287D02*
X77609Y-29287D01*
X77509Y-29367D02*
X77609Y-29367D01*
X77509Y-29447D02*
X77609Y-29447D01*
X72796Y-32407D02*
X72831Y-32323D01*
X72985Y-32169D01*
X73187Y-32085D01*
X73382Y-32085D01*
X75278Y-29857D01*
X75285Y-29847D01*
X75669Y-29428D01*
X75678Y-29419D01*
X75811Y-29285D01*
X75706Y-29285D01*
X75542Y-29217D01*
X75417Y-29091D01*
X75349Y-28927D01*
X75349Y-28750D01*
X75415Y-28589D01*
X74949Y-28497D01*
X74940Y-28493D01*
X74604Y-28419D01*
X74655Y-28542D01*
X74655Y-28719D01*
X74587Y-28883D01*
X74461Y-29008D01*
X74297Y-29076D01*
X74120Y-29076D01*
X73956Y-29008D01*
X73831Y-28882D01*
X73827Y-28873D01*
X72611Y-28720D01*
X72636Y-28745D01*
X72674Y-28837D01*
X72674Y-29186D01*
X72636Y-29277D01*
X72566Y-29347D01*
X72523Y-29364D01*
X72563Y-29562D01*
X72566Y-29564D01*
X72636Y-29634D01*
X72674Y-29726D01*
X72674Y-30275D01*
X72636Y-30366D01*
X72589Y-30412D01*
X72586Y-32160D01*
X72607Y-32169D01*
X72761Y-32323D01*
X72796Y-32407D01*
X67275Y-26275D02*
X85725Y-26275D01*
X67275Y-26355D02*
X85725Y-26355D01*
X67275Y-26435D02*
X85725Y-26435D01*
X67275Y-26515D02*
X69316Y-26515D01*
X69685Y-26515D02*
X76991Y-26515D01*
X77236Y-26515D02*
X77380Y-26515D01*
X77625Y-26515D02*
X77741Y-26515D01*
X78375Y-26515D02*
X85725Y-26515D01*
X67275Y-26595D02*
X69167Y-26595D01*
X69833Y-26595D02*
X76918Y-26595D01*
X77258Y-26595D02*
X77358Y-26595D01*
X78449Y-26595D02*
X85725Y-26595D01*
X67275Y-26675D02*
X69087Y-26675D01*
X69913Y-26675D02*
X76884Y-26675D01*
X77258Y-26675D02*
X77358Y-26675D01*
X78482Y-26675D02*
X85725Y-26675D01*
X67275Y-26755D02*
X69035Y-26755D01*
X69967Y-26755D02*
X76884Y-26755D01*
X77258Y-26755D02*
X77358Y-26755D01*
X78806Y-26755D02*
X85725Y-26755D01*
X67275Y-26835D02*
X69001Y-26835D01*
X70103Y-26835D02*
X76884Y-26835D01*
X77258Y-26835D02*
X77358Y-26835D01*
X78919Y-26835D02*
X85725Y-26835D01*
X67275Y-26915D02*
X68975Y-26915D01*
X70467Y-26915D02*
X76910Y-26915D01*
X77258Y-26915D02*
X77358Y-26915D01*
X78993Y-26915D02*
X85725Y-26915D01*
X67275Y-26995D02*
X68975Y-26995D01*
X70831Y-26995D02*
X77358Y-26995D01*
X79026Y-26995D02*
X85725Y-26995D01*
X67275Y-27075D02*
X68975Y-27075D01*
X71194Y-27075D02*
X76920Y-27075D01*
X79056Y-27075D02*
X85725Y-27075D01*
X67275Y-27155D02*
X68996Y-27155D01*
X71558Y-27155D02*
X76883Y-27155D01*
X79056Y-27155D02*
X83279Y-27155D01*
X84942Y-27155D02*
X85725Y-27155D01*
X67275Y-27235D02*
X69029Y-27235D01*
X71922Y-27235D02*
X76884Y-27235D01*
X79056Y-27235D02*
X82186Y-27235D01*
X85138Y-27235D02*
X85725Y-27235D01*
X67275Y-27315D02*
X69077Y-27315D01*
X72286Y-27315D02*
X76884Y-27315D01*
X79027Y-27315D02*
X81094Y-27315D01*
X85221Y-27315D02*
X85725Y-27315D01*
X67275Y-27395D02*
X69157Y-27395D01*
X69842Y-27395D02*
X69947Y-27395D01*
X72649Y-27395D02*
X76913Y-27395D01*
X78994Y-27395D02*
X80001Y-27395D01*
X85301Y-27395D02*
X85725Y-27395D01*
X67275Y-27475D02*
X69291Y-27475D01*
X69708Y-27475D02*
X70311Y-27475D01*
X73013Y-27475D02*
X76981Y-27475D01*
X85381Y-27475D02*
X85725Y-27475D01*
X67275Y-27555D02*
X70675Y-27555D01*
X73377Y-27555D02*
X76693Y-27555D01*
X85459Y-27555D02*
X85725Y-27555D01*
X67275Y-27635D02*
X71038Y-27635D01*
X73741Y-27635D02*
X76612Y-27635D01*
X85506Y-27635D02*
X85725Y-27635D01*
X67275Y-27715D02*
X71402Y-27715D01*
X74105Y-27715D02*
X76579Y-27715D01*
X85523Y-27715D02*
X85725Y-27715D01*
X67275Y-27795D02*
X71766Y-27795D01*
X74468Y-27795D02*
X76566Y-27795D01*
X85529Y-27795D02*
X85725Y-27795D01*
X67275Y-27875D02*
X72130Y-27875D01*
X74832Y-27875D02*
X76566Y-27875D01*
X85529Y-27875D02*
X85725Y-27875D01*
X67275Y-27955D02*
X72494Y-27955D01*
X75193Y-27955D02*
X76344Y-27955D01*
X85529Y-27955D02*
X85725Y-27955D01*
X67275Y-28035D02*
X72858Y-28035D01*
X75600Y-28035D02*
X76213Y-28035D01*
X85529Y-28035D02*
X85725Y-28035D01*
X67275Y-28115D02*
X71794Y-28115D01*
X72606Y-28115D02*
X73221Y-28115D01*
X76006Y-28115D02*
X76155Y-28115D01*
X85529Y-28115D02*
X85725Y-28115D01*
X67275Y-28195D02*
X71614Y-28195D01*
X73087Y-28195D02*
X73585Y-28195D01*
X85526Y-28195D02*
X85725Y-28195D01*
X67275Y-28275D02*
X71315Y-28275D01*
X73720Y-28275D02*
X73933Y-28275D01*
X85526Y-28275D02*
X85725Y-28275D01*
X67275Y-28355D02*
X71016Y-28355D01*
X85525Y-28355D02*
X85725Y-28355D01*
X67275Y-28435D02*
X70717Y-28435D01*
X85524Y-28435D02*
X85725Y-28435D01*
X67275Y-28515D02*
X69083Y-28515D01*
X69917Y-28515D02*
X70418Y-28515D01*
X85523Y-28515D02*
X85725Y-28515D01*
X67275Y-28595D02*
X69010Y-28595D01*
X69991Y-28595D02*
X70119Y-28595D01*
X85523Y-28595D02*
X85725Y-28595D01*
X67275Y-28675D02*
X68976Y-28675D01*
X85522Y-28675D02*
X85725Y-28675D01*
X67275Y-28755D02*
X68976Y-28755D01*
X78984Y-28755D02*
X83242Y-28755D01*
X85521Y-28755D02*
X85725Y-28755D01*
X67275Y-28835D02*
X68976Y-28835D01*
X71466Y-28835D02*
X71727Y-28835D01*
X78993Y-28835D02*
X83210Y-28835D01*
X85520Y-28835D02*
X85725Y-28835D01*
X67275Y-28915D02*
X68976Y-28915D01*
X71167Y-28915D02*
X71726Y-28915D01*
X78986Y-28915D02*
X83203Y-28915D01*
X85520Y-28915D02*
X85725Y-28915D01*
X67275Y-28995D02*
X68976Y-28995D01*
X70868Y-28995D02*
X71726Y-28995D01*
X78993Y-28995D02*
X83203Y-28995D01*
X85519Y-28995D02*
X85725Y-28995D01*
X67275Y-29075D02*
X68976Y-29075D01*
X70569Y-29075D02*
X71726Y-29075D01*
X78993Y-29075D02*
X83209Y-29075D01*
X85518Y-29075D02*
X85725Y-29075D01*
X67275Y-29155D02*
X68976Y-29155D01*
X70270Y-29155D02*
X71726Y-29155D01*
X78986Y-29155D02*
X83242Y-29155D01*
X85518Y-29155D02*
X85725Y-29155D01*
X67275Y-29235D02*
X68976Y-29235D01*
X70024Y-29235D02*
X71746Y-29235D01*
X79061Y-29235D02*
X83275Y-29235D01*
X85503Y-29235D02*
X85725Y-29235D01*
X67275Y-29315D02*
X68976Y-29315D01*
X70024Y-29315D02*
X71802Y-29315D01*
X79260Y-29315D02*
X83345Y-29315D01*
X85467Y-29315D02*
X85725Y-29315D01*
X67275Y-29395D02*
X69005Y-29395D01*
X69994Y-29395D02*
X71937Y-29395D01*
X79459Y-29395D02*
X83425Y-29395D01*
X85405Y-29395D02*
X85725Y-29395D01*
X67275Y-29475D02*
X69073Y-29475D01*
X69927Y-29475D02*
X71953Y-29475D01*
X79658Y-29475D02*
X83515Y-29475D01*
X85325Y-29475D02*
X85725Y-29475D01*
X67275Y-29555D02*
X69232Y-29555D01*
X69769Y-29555D02*
X71456Y-29555D01*
X71618Y-29555D02*
X71782Y-29555D01*
X71945Y-29555D02*
X71969Y-29555D01*
X79857Y-29555D02*
X83386Y-29555D01*
X85245Y-29555D02*
X85725Y-29555D01*
X67275Y-29635D02*
X69212Y-29635D01*
X69789Y-29635D02*
X71364Y-29635D01*
X71650Y-29635D02*
X71750Y-29635D01*
X80056Y-29635D02*
X83306Y-29635D01*
X85165Y-29635D02*
X85725Y-29635D01*
X67275Y-29715D02*
X69120Y-29715D01*
X69144Y-29715D02*
X69286Y-29715D01*
X69714Y-29715D02*
X69856Y-29715D01*
X69881Y-29715D02*
X71331Y-29715D01*
X71650Y-29715D02*
X71750Y-29715D01*
X80256Y-29715D02*
X83259Y-29715D01*
X85192Y-29715D02*
X85725Y-29715D01*
X67275Y-29795D02*
X69027Y-29795D01*
X69224Y-29795D02*
X69366Y-29795D01*
X69634Y-29795D02*
X69776Y-29795D01*
X69978Y-29795D02*
X71326Y-29795D01*
X71650Y-29795D02*
X71750Y-29795D01*
X80452Y-29795D02*
X83226Y-29795D01*
X85224Y-29795D02*
X85725Y-29795D01*
X67275Y-29875D02*
X68999Y-29875D01*
X69304Y-29875D02*
X69446Y-29875D01*
X69554Y-29875D02*
X69696Y-29875D01*
X70009Y-29875D02*
X71326Y-29875D01*
X71650Y-29875D02*
X71750Y-29875D01*
X80577Y-29875D02*
X83203Y-29875D01*
X85239Y-29875D02*
X85725Y-29875D01*
X67275Y-29955D02*
X68982Y-29955D01*
X69384Y-29955D02*
X69616Y-29955D01*
X70013Y-29955D02*
X71750Y-29955D01*
X80669Y-29955D02*
X83203Y-29955D01*
X84657Y-29955D02*
X84799Y-29955D01*
X85244Y-29955D02*
X85725Y-29955D01*
X67275Y-30035D02*
X68986Y-30035D01*
X69394Y-30035D02*
X69606Y-30035D01*
X70017Y-30035D02*
X71750Y-30035D01*
X80760Y-30035D02*
X83203Y-30035D01*
X84577Y-30035D02*
X84719Y-30035D01*
X84737Y-30035D02*
X84879Y-30035D01*
X85244Y-30035D02*
X85725Y-30035D01*
X67275Y-30115D02*
X68991Y-30115D01*
X69314Y-30115D02*
X69456Y-30115D01*
X69544Y-30115D02*
X69686Y-30115D01*
X70004Y-30115D02*
X71325Y-30115D01*
X71650Y-30115D02*
X71750Y-30115D01*
X80852Y-30115D02*
X83226Y-30115D01*
X84229Y-30115D02*
X84232Y-30115D01*
X84497Y-30115D02*
X84639Y-30115D01*
X84817Y-30115D02*
X84959Y-30115D01*
X85217Y-30115D02*
X85725Y-30115D01*
X67275Y-30195D02*
X69018Y-30195D01*
X69234Y-30195D02*
X69376Y-30195D01*
X69624Y-30195D02*
X69766Y-30195D01*
X69976Y-30195D02*
X71326Y-30195D01*
X71650Y-30195D02*
X71750Y-30195D01*
X80944Y-30195D02*
X83259Y-30195D01*
X84196Y-30195D02*
X84264Y-30195D01*
X84417Y-30195D02*
X84559Y-30195D01*
X84897Y-30195D02*
X85039Y-30195D01*
X85189Y-30195D02*
X85725Y-30195D01*
X67275Y-30275D02*
X69079Y-30275D01*
X69154Y-30275D02*
X69296Y-30275D01*
X69704Y-30275D02*
X69846Y-30275D01*
X69920Y-30275D02*
X71326Y-30275D01*
X71650Y-30275D02*
X71750Y-30275D01*
X81035Y-30275D02*
X83305Y-30275D01*
X84150Y-30275D02*
X84479Y-30275D01*
X84977Y-30275D02*
X85725Y-30275D01*
X67275Y-30355D02*
X69216Y-30355D01*
X69784Y-30355D02*
X71359Y-30355D01*
X71650Y-30355D02*
X71750Y-30355D01*
X81127Y-30355D02*
X83385Y-30355D01*
X84070Y-30355D02*
X84447Y-30355D01*
X85008Y-30355D02*
X85725Y-30355D01*
X67275Y-30435D02*
X69228Y-30435D01*
X69771Y-30435D02*
X71433Y-30435D01*
X71628Y-30435D02*
X71772Y-30435D01*
X71966Y-30435D02*
X72009Y-30435D01*
X81219Y-30435D02*
X83514Y-30435D01*
X83940Y-30435D02*
X84541Y-30435D01*
X84926Y-30435D02*
X85725Y-30435D01*
X67275Y-30515D02*
X69414Y-30515D01*
X69500Y-30515D02*
X70308Y-30515D01*
X70553Y-30515D02*
X70697Y-30515D01*
X70942Y-30515D02*
X71058Y-30515D01*
X71692Y-30515D02*
X72009Y-30515D01*
X81310Y-30515D02*
X85725Y-30515D01*
X67275Y-30595D02*
X70235Y-30595D01*
X70575Y-30595D02*
X70675Y-30595D01*
X71766Y-30595D02*
X72009Y-30595D01*
X81402Y-30595D02*
X85725Y-30595D01*
X67275Y-30675D02*
X70201Y-30675D01*
X70575Y-30675D02*
X70675Y-30675D01*
X71799Y-30675D02*
X72009Y-30675D01*
X81494Y-30675D02*
X85725Y-30675D01*
X67275Y-30755D02*
X70201Y-30755D01*
X70575Y-30755D02*
X70675Y-30755D01*
X71799Y-30755D02*
X72009Y-30755D01*
X81585Y-30755D02*
X85725Y-30755D01*
X67275Y-30835D02*
X70201Y-30835D01*
X70575Y-30835D02*
X70675Y-30835D01*
X71799Y-30835D02*
X72009Y-30835D01*
X81677Y-30835D02*
X85725Y-30835D01*
X67275Y-30915D02*
X70227Y-30915D01*
X70575Y-30915D02*
X70675Y-30915D01*
X71799Y-30915D02*
X72009Y-30915D01*
X81769Y-30915D02*
X85725Y-30915D01*
X67275Y-30995D02*
X70675Y-30995D01*
X71799Y-30995D02*
X72008Y-30995D01*
X81860Y-30995D02*
X85725Y-30995D01*
X67275Y-31075D02*
X70237Y-31075D01*
X70575Y-31075D02*
X70675Y-31075D01*
X71799Y-31075D02*
X72008Y-31075D01*
X81952Y-31075D02*
X85725Y-31075D01*
X67275Y-31155D02*
X70200Y-31155D01*
X70575Y-31155D02*
X70675Y-31155D01*
X71799Y-31155D02*
X72008Y-31155D01*
X82044Y-31155D02*
X85725Y-31155D01*
X67275Y-31235D02*
X70201Y-31235D01*
X70575Y-31235D02*
X70675Y-31235D01*
X71799Y-31235D02*
X72008Y-31235D01*
X82135Y-31235D02*
X85725Y-31235D01*
X67275Y-31315D02*
X70201Y-31315D01*
X70575Y-31315D02*
X70675Y-31315D01*
X71799Y-31315D02*
X72008Y-31315D01*
X82227Y-31315D02*
X85725Y-31315D01*
X67275Y-31395D02*
X70230Y-31395D01*
X70575Y-31395D02*
X70675Y-31395D01*
X71769Y-31395D02*
X72008Y-31395D01*
X82319Y-31395D02*
X85725Y-31395D01*
X67275Y-31475D02*
X70298Y-31475D01*
X70563Y-31475D02*
X70687Y-31475D01*
X70951Y-31475D02*
X71048Y-31475D01*
X71702Y-31475D02*
X72008Y-31475D01*
X82410Y-31475D02*
X85725Y-31475D01*
X67275Y-31555D02*
X71072Y-31555D01*
X71651Y-31555D02*
X72008Y-31555D01*
X82502Y-31555D02*
X85725Y-31555D01*
X67275Y-31635D02*
X67833Y-31635D01*
X68429Y-31635D02*
X71067Y-31635D01*
X71646Y-31635D02*
X72007Y-31635D01*
X82594Y-31635D02*
X85725Y-31635D01*
X67275Y-31715D02*
X67639Y-31715D01*
X68620Y-31715D02*
X71062Y-31715D01*
X71641Y-31715D02*
X72007Y-31715D01*
X82685Y-31715D02*
X85725Y-31715D01*
X67275Y-31795D02*
X67503Y-31795D01*
X68757Y-31795D02*
X71057Y-31795D01*
X71637Y-31795D02*
X72007Y-31795D01*
X82777Y-31795D02*
X85725Y-31795D01*
X67275Y-31875D02*
X67423Y-31875D01*
X68837Y-31875D02*
X71052Y-31875D01*
X71632Y-31875D02*
X72007Y-31875D01*
X82869Y-31875D02*
X85725Y-31875D01*
X67275Y-31955D02*
X67343Y-31955D01*
X68917Y-31955D02*
X71047Y-31955D01*
X71627Y-31955D02*
X72007Y-31955D01*
X82960Y-31955D02*
X85725Y-31955D01*
X68997Y-32035D02*
X71042Y-32035D01*
X71622Y-32035D02*
X72007Y-32035D01*
X83052Y-32035D02*
X85725Y-32035D01*
X69038Y-32115D02*
X69960Y-32115D01*
X70190Y-32115D02*
X70402Y-32115D01*
X70633Y-32115D02*
X71038Y-32115D01*
X71617Y-32115D02*
X72007Y-32115D01*
X83478Y-32115D02*
X84115Y-32115D01*
X84478Y-32115D02*
X85115Y-32115D01*
X85478Y-32115D02*
X85725Y-32115D01*
X69071Y-32195D02*
X69833Y-32195D01*
X70246Y-32195D02*
X70346Y-32195D01*
X70759Y-32195D02*
X70959Y-32195D01*
X71633Y-32195D02*
X71959Y-32195D01*
X83633Y-32195D02*
X83959Y-32195D01*
X84634Y-32195D02*
X84959Y-32195D01*
X85633Y-32195D02*
X85725Y-32195D01*
X69104Y-32275D02*
X69787Y-32275D01*
X70246Y-32275D02*
X70346Y-32275D01*
X70806Y-32275D02*
X70879Y-32275D01*
X71713Y-32275D02*
X71879Y-32275D01*
X83713Y-32275D02*
X83879Y-32275D01*
X84714Y-32275D02*
X84879Y-32275D01*
X85713Y-32275D02*
X85725Y-32275D01*
X69137Y-32355D02*
X69772Y-32355D01*
X70246Y-32355D02*
X70346Y-32355D01*
X71775Y-32355D02*
X71818Y-32355D01*
X83775Y-32355D02*
X83818Y-32355D01*
X84775Y-32355D02*
X84818Y-32355D01*
X69167Y-32435D02*
X69772Y-32435D01*
X70246Y-32435D02*
X70346Y-32435D01*
X69167Y-32515D02*
X69772Y-32515D01*
X70246Y-32515D02*
X70346Y-32515D01*
X69167Y-32595D02*
X70346Y-32595D01*
X69167Y-32675D02*
X70346Y-32675D01*
X69167Y-32755D02*
X69771Y-32755D01*
X70246Y-32755D02*
X70346Y-32755D01*
X69167Y-32835D02*
X69771Y-32835D01*
X70246Y-32835D02*
X70346Y-32835D01*
X69136Y-32915D02*
X69772Y-32915D01*
X70246Y-32915D02*
X70346Y-32915D01*
X71773Y-32915D02*
X71818Y-32915D01*
X72773Y-32915D02*
X72818Y-32915D01*
X73773Y-32915D02*
X73818Y-32915D01*
X74773Y-32915D02*
X74818Y-32915D01*
X75773Y-32915D02*
X75818Y-32915D01*
X76773Y-32915D02*
X76818Y-32915D01*
X77773Y-32915D02*
X77818Y-32915D01*
X78773Y-32915D02*
X78818Y-32915D01*
X79773Y-32915D02*
X79818Y-32915D01*
X80773Y-32915D02*
X80818Y-32915D01*
X81773Y-32915D02*
X81818Y-32915D01*
X82773Y-32915D02*
X82818Y-32915D01*
X83773Y-32915D02*
X83818Y-32915D01*
X84773Y-32915D02*
X84818Y-32915D01*
X69102Y-32995D02*
X69787Y-32995D01*
X70246Y-32995D02*
X70346Y-32995D01*
X70804Y-32995D02*
X70881Y-32995D01*
X71711Y-32995D02*
X71881Y-32995D01*
X72711Y-32995D02*
X72881Y-32995D01*
X73711Y-32995D02*
X73881Y-32995D01*
X74711Y-32995D02*
X74881Y-32995D01*
X75711Y-32995D02*
X75881Y-32995D01*
X76711Y-32995D02*
X76881Y-32995D01*
X77711Y-32995D02*
X77881Y-32995D01*
X78711Y-32995D02*
X78881Y-32995D01*
X79711Y-32995D02*
X79881Y-32995D01*
X80711Y-32995D02*
X80881Y-32995D01*
X81711Y-32995D02*
X81881Y-32995D01*
X82711Y-32995D02*
X82881Y-32995D01*
X83711Y-32995D02*
X83881Y-32995D01*
X84711Y-32995D02*
X84881Y-32995D01*
X85711Y-32995D02*
X85725Y-32995D01*
X69069Y-33075D02*
X69835Y-33075D01*
X70246Y-33075D02*
X70346Y-33075D01*
X70757Y-33075D02*
X70961Y-33075D01*
X71631Y-33075D02*
X71961Y-33075D01*
X72631Y-33075D02*
X72961Y-33075D01*
X73631Y-33075D02*
X73961Y-33075D01*
X74631Y-33075D02*
X74961Y-33075D01*
X75631Y-33075D02*
X75961Y-33075D01*
X76631Y-33075D02*
X76961Y-33075D01*
X77631Y-33075D02*
X77961Y-33075D01*
X78631Y-33075D02*
X78961Y-33075D01*
X79631Y-33075D02*
X79961Y-33075D01*
X80631Y-33075D02*
X80961Y-33075D01*
X81631Y-33075D02*
X81961Y-33075D01*
X82631Y-33075D02*
X82961Y-33075D01*
X83631Y-33075D02*
X83961Y-33075D01*
X84631Y-33075D02*
X84961Y-33075D01*
X85631Y-33075D02*
X85725Y-33075D01*
X69035Y-33155D02*
X69964Y-33155D01*
X70188Y-33155D02*
X70404Y-33155D01*
X70627Y-33155D02*
X71119Y-33155D01*
X71472Y-33155D02*
X72119Y-33155D01*
X72472Y-33155D02*
X73119Y-33155D01*
X73472Y-33155D02*
X74119Y-33155D01*
X74472Y-33155D02*
X75119Y-33155D01*
X75472Y-33155D02*
X76119Y-33155D01*
X76472Y-33155D02*
X77119Y-33155D01*
X77472Y-33155D02*
X78119Y-33155D01*
X78472Y-33155D02*
X79119Y-33155D01*
X79472Y-33155D02*
X80119Y-33155D01*
X80472Y-33155D02*
X81119Y-33155D01*
X81472Y-33155D02*
X82119Y-33155D01*
X82472Y-33155D02*
X83119Y-33155D01*
X83472Y-33155D02*
X84119Y-33155D01*
X84472Y-33155D02*
X85119Y-33155D01*
X85472Y-33155D02*
X85725Y-33155D01*
X74604Y-28419D02*
X74604Y-28419D01*
X74638Y-28499D02*
X74959Y-28499D01*
X74655Y-28579D02*
X75364Y-28579D01*
X74655Y-28659D02*
X75387Y-28659D01*
X72630Y-28739D02*
X72762Y-28739D01*
X74646Y-28739D02*
X75354Y-28739D01*
X72667Y-28819D02*
X73397Y-28819D01*
X74613Y-28819D02*
X75349Y-28819D01*
X72674Y-28899D02*
X73847Y-28899D01*
X74570Y-28899D02*
X75349Y-28899D01*
X72674Y-28979D02*
X73927Y-28979D01*
X74490Y-28979D02*
X75370Y-28979D01*
X72674Y-29059D02*
X74079Y-29059D01*
X74338Y-29059D02*
X75403Y-29059D01*
X72674Y-29139D02*
X75464Y-29139D01*
X72660Y-29219D02*
X75546Y-29219D01*
X72614Y-29299D02*
X75798Y-29299D01*
X72527Y-29379D02*
X75718Y-29379D01*
X72543Y-29459D02*
X75641Y-29459D01*
X72559Y-29539D02*
X75568Y-29539D01*
X72621Y-29619D02*
X75494Y-29619D01*
X72663Y-29699D02*
X75421Y-29699D01*
X72674Y-29779D02*
X75348Y-29779D01*
X72674Y-29859D02*
X75277Y-29859D01*
X72674Y-29939D02*
X75209Y-29939D01*
X72674Y-30019D02*
X75141Y-30019D01*
X72674Y-30099D02*
X75073Y-30099D01*
X72674Y-30179D02*
X75004Y-30179D01*
X72674Y-30259D02*
X74936Y-30259D01*
X72647Y-30339D02*
X74868Y-30339D01*
X72588Y-30419D02*
X74800Y-30419D01*
X72588Y-30499D02*
X74732Y-30499D01*
X72588Y-30579D02*
X74664Y-30579D01*
X72588Y-30659D02*
X74596Y-30659D01*
X72588Y-30739D02*
X74528Y-30739D01*
X72588Y-30819D02*
X74460Y-30819D01*
X72588Y-30899D02*
X74392Y-30899D01*
X72588Y-30979D02*
X74324Y-30979D01*
X72587Y-31059D02*
X74256Y-31059D01*
X72587Y-31139D02*
X74188Y-31139D01*
X72587Y-31219D02*
X74119Y-31219D01*
X72587Y-31299D02*
X74051Y-31299D01*
X72587Y-31379D02*
X73983Y-31379D01*
X72587Y-31459D02*
X73915Y-31459D01*
X72587Y-31539D02*
X73847Y-31539D01*
X72586Y-31619D02*
X73779Y-31619D01*
X72586Y-31699D02*
X73711Y-31699D01*
X72586Y-31779D02*
X73643Y-31779D01*
X72586Y-31859D02*
X73575Y-31859D01*
X72586Y-31939D02*
X73507Y-31939D01*
X72586Y-32019D02*
X73439Y-32019D01*
X72586Y-32099D02*
X73154Y-32099D01*
X72617Y-32179D02*
X72975Y-32179D01*
X72697Y-32259D02*
X72895Y-32259D01*
X72768Y-32339D02*
X72825Y-32339D01*
X78551Y-29928D02*
X78646Y-29928D01*
X78551Y-30008D02*
X78824Y-30008D01*
X78551Y-30088D02*
X79002Y-30088D01*
X78534Y-30168D02*
X79180Y-30168D01*
X78495Y-30248D02*
X79359Y-30248D01*
X78522Y-30328D02*
X79537Y-30328D01*
X78586Y-30408D02*
X79715Y-30408D01*
X79004Y-30488D02*
X79266Y-30488D01*
X79406Y-30488D02*
X79612Y-30488D01*
X79753Y-30488D02*
X79893Y-30488D01*
X79126Y-30568D02*
X79143Y-30568D01*
X79459Y-30568D02*
X79559Y-30568D01*
X79875Y-30568D02*
X80055Y-30568D01*
X79459Y-30648D02*
X79559Y-30648D01*
X79921Y-30648D02*
X80135Y-30648D01*
X79459Y-30728D02*
X79559Y-30728D01*
X79933Y-30728D02*
X80215Y-30728D01*
X79459Y-30808D02*
X79559Y-30808D01*
X79934Y-30808D02*
X80290Y-30808D01*
X79459Y-30888D02*
X79559Y-30888D01*
X79934Y-30888D02*
X80361Y-30888D01*
X79183Y-30968D02*
X80431Y-30968D01*
X79183Y-31048D02*
X80502Y-31048D01*
X79459Y-31128D02*
X79559Y-31128D01*
X79933Y-31128D02*
X80573Y-31128D01*
X79459Y-31208D02*
X79559Y-31208D01*
X79933Y-31208D02*
X80644Y-31208D01*
X79459Y-31288D02*
X79559Y-31288D01*
X79933Y-31288D02*
X80715Y-31288D01*
X79459Y-31368D02*
X79559Y-31368D01*
X79916Y-31368D02*
X80785Y-31368D01*
X79459Y-31448D02*
X79559Y-31448D01*
X79867Y-31448D02*
X80856Y-31448D01*
X79556Y-31528D02*
X79620Y-31528D01*
X79733Y-31528D02*
X80927Y-31528D01*
X79872Y-31608D02*
X80998Y-31608D01*
X80146Y-31688D02*
X81068Y-31688D01*
X80420Y-31768D02*
X81139Y-31768D01*
X80654Y-31848D02*
X81210Y-31848D01*
X80783Y-31928D02*
X81281Y-31928D01*
X80899Y-32008D02*
X81352Y-32008D01*
X81016Y-32088D02*
X81180Y-32088D01*
X81413Y-32088D02*
X81422Y-32088D01*
X76839Y-30954D02*
X77215Y-30954D01*
X76839Y-31034D02*
X77215Y-31034D01*
X77509Y-28887D02*
X77609Y-28887D01*
X77509Y-28967D02*
X77609Y-28967D01*
X77509Y-29047D02*
X77609Y-29047D01*
X77509Y-29127D02*
X77609Y-29127D01*
X77509Y-29207D02*
X77609Y-29207D01*
X77509Y-29287D02*
X77609Y-29287D01*
X77509Y-29367D02*
X77609Y-29367D01*
X77509Y-29447D02*
X77609Y-29447D01*
X81076Y-32130D02*
X81187Y-32085D01*
X81405Y-32085D01*
X81429Y-32095D01*
X80255Y-30768D01*
X80041Y-30554D01*
X78646Y-29928D01*
X78551Y-29928D01*
X78551Y-30128D01*
X78505Y-30239D01*
X78468Y-30274D01*
X78575Y-30382D01*
X78615Y-30480D01*
X78984Y-30480D01*
X79075Y-30518D01*
X79134Y-30576D01*
X79193Y-30518D01*
X79285Y-30480D01*
X79397Y-30479D01*
X79459Y-30541D01*
X79459Y-30954D01*
X79183Y-30954D01*
X79183Y-31054D01*
X79459Y-31054D01*
X79459Y-31467D01*
X79412Y-31513D01*
X79594Y-31532D01*
X79617Y-31539D01*
X79621Y-31539D01*
X79621Y-31529D01*
X79559Y-31467D01*
X79559Y-31054D01*
X79559Y-30954D01*
X79559Y-30541D01*
X79621Y-30479D01*
X79733Y-30480D01*
X79825Y-30518D01*
X79895Y-30588D01*
X79933Y-30679D01*
X79933Y-30778D01*
X79934Y-30892D01*
X79872Y-30954D01*
X79559Y-30954D01*
X79559Y-31054D01*
X79872Y-31054D01*
X79934Y-31116D01*
X79933Y-31230D01*
X79933Y-31329D01*
X79895Y-31420D01*
X79825Y-31490D01*
X79733Y-31528D01*
X79621Y-31529D01*
X79621Y-31539D01*
X79646Y-31542D01*
X80591Y-31818D01*
X80605Y-31825D01*
X80618Y-31828D01*
X80633Y-31834D01*
X80657Y-31850D01*
X80690Y-31864D01*
X81076Y-32130D01*
X67275Y-26275D02*
X85725Y-26275D01*
X67275Y-26355D02*
X85725Y-26355D01*
X67275Y-26435D02*
X85725Y-26435D01*
X67275Y-26515D02*
X69316Y-26515D01*
X69685Y-26515D02*
X76991Y-26515D01*
X77236Y-26515D02*
X77380Y-26515D01*
X77625Y-26515D02*
X77741Y-26515D01*
X78375Y-26515D02*
X85725Y-26515D01*
X67275Y-26595D02*
X69167Y-26595D01*
X69833Y-26595D02*
X76918Y-26595D01*
X77258Y-26595D02*
X77358Y-26595D01*
X78449Y-26595D02*
X85725Y-26595D01*
X67275Y-26675D02*
X69087Y-26675D01*
X69913Y-26675D02*
X76884Y-26675D01*
X77258Y-26675D02*
X77358Y-26675D01*
X78482Y-26675D02*
X85725Y-26675D01*
X67275Y-26755D02*
X69035Y-26755D01*
X69967Y-26755D02*
X76884Y-26755D01*
X77258Y-26755D02*
X77358Y-26755D01*
X78806Y-26755D02*
X85725Y-26755D01*
X67275Y-26835D02*
X69001Y-26835D01*
X70103Y-26835D02*
X76884Y-26835D01*
X77258Y-26835D02*
X77358Y-26835D01*
X78919Y-26835D02*
X85725Y-26835D01*
X67275Y-26915D02*
X68975Y-26915D01*
X70467Y-26915D02*
X76910Y-26915D01*
X77258Y-26915D02*
X77358Y-26915D01*
X78993Y-26915D02*
X85725Y-26915D01*
X67275Y-26995D02*
X68975Y-26995D01*
X70831Y-26995D02*
X77358Y-26995D01*
X79026Y-26995D02*
X85725Y-26995D01*
X67275Y-27075D02*
X68975Y-27075D01*
X71194Y-27075D02*
X76920Y-27075D01*
X79056Y-27075D02*
X85725Y-27075D01*
X67275Y-27155D02*
X68996Y-27155D01*
X71558Y-27155D02*
X76883Y-27155D01*
X79056Y-27155D02*
X83279Y-27155D01*
X84942Y-27155D02*
X85725Y-27155D01*
X67275Y-27235D02*
X69029Y-27235D01*
X71922Y-27235D02*
X76884Y-27235D01*
X79056Y-27235D02*
X82186Y-27235D01*
X85138Y-27235D02*
X85725Y-27235D01*
X67275Y-27315D02*
X69077Y-27315D01*
X72286Y-27315D02*
X76884Y-27315D01*
X79027Y-27315D02*
X81094Y-27315D01*
X85221Y-27315D02*
X85725Y-27315D01*
X67275Y-27395D02*
X69157Y-27395D01*
X69842Y-27395D02*
X69947Y-27395D01*
X72649Y-27395D02*
X76913Y-27395D01*
X78994Y-27395D02*
X80001Y-27395D01*
X85301Y-27395D02*
X85725Y-27395D01*
X67275Y-27475D02*
X69291Y-27475D01*
X69708Y-27475D02*
X70311Y-27475D01*
X73013Y-27475D02*
X76981Y-27475D01*
X85381Y-27475D02*
X85725Y-27475D01*
X67275Y-27555D02*
X70675Y-27555D01*
X73377Y-27555D02*
X76693Y-27555D01*
X85459Y-27555D02*
X85725Y-27555D01*
X67275Y-27635D02*
X71038Y-27635D01*
X73741Y-27635D02*
X76612Y-27635D01*
X85506Y-27635D02*
X85725Y-27635D01*
X67275Y-27715D02*
X71402Y-27715D01*
X74105Y-27715D02*
X76579Y-27715D01*
X85523Y-27715D02*
X85725Y-27715D01*
X67275Y-27795D02*
X71766Y-27795D01*
X74468Y-27795D02*
X76566Y-27795D01*
X85529Y-27795D02*
X85725Y-27795D01*
X67275Y-27875D02*
X72130Y-27875D01*
X74832Y-27875D02*
X76566Y-27875D01*
X85529Y-27875D02*
X85725Y-27875D01*
X67275Y-27955D02*
X72494Y-27955D01*
X75193Y-27955D02*
X76344Y-27955D01*
X85529Y-27955D02*
X85725Y-27955D01*
X67275Y-28035D02*
X72858Y-28035D01*
X75600Y-28035D02*
X76213Y-28035D01*
X85529Y-28035D02*
X85725Y-28035D01*
X67275Y-28115D02*
X71794Y-28115D01*
X72606Y-28115D02*
X73221Y-28115D01*
X76006Y-28115D02*
X76155Y-28115D01*
X85529Y-28115D02*
X85725Y-28115D01*
X67275Y-28195D02*
X71614Y-28195D01*
X73087Y-28195D02*
X73585Y-28195D01*
X85526Y-28195D02*
X85725Y-28195D01*
X67275Y-28275D02*
X71315Y-28275D01*
X73720Y-28275D02*
X73933Y-28275D01*
X85526Y-28275D02*
X85725Y-28275D01*
X67275Y-28355D02*
X71016Y-28355D01*
X85525Y-28355D02*
X85725Y-28355D01*
X67275Y-28435D02*
X70717Y-28435D01*
X85524Y-28435D02*
X85725Y-28435D01*
X67275Y-28515D02*
X69083Y-28515D01*
X69917Y-28515D02*
X70418Y-28515D01*
X85523Y-28515D02*
X85725Y-28515D01*
X67275Y-28595D02*
X69010Y-28595D01*
X69991Y-28595D02*
X70119Y-28595D01*
X85523Y-28595D02*
X85725Y-28595D01*
X67275Y-28675D02*
X68976Y-28675D01*
X85522Y-28675D02*
X85725Y-28675D01*
X67275Y-28755D02*
X68976Y-28755D01*
X78984Y-28755D02*
X83242Y-28755D01*
X85521Y-28755D02*
X85725Y-28755D01*
X67275Y-28835D02*
X68976Y-28835D01*
X71466Y-28835D02*
X71727Y-28835D01*
X78993Y-28835D02*
X83210Y-28835D01*
X85520Y-28835D02*
X85725Y-28835D01*
X67275Y-28915D02*
X68976Y-28915D01*
X71167Y-28915D02*
X71726Y-28915D01*
X78986Y-28915D02*
X83203Y-28915D01*
X85520Y-28915D02*
X85725Y-28915D01*
X67275Y-28995D02*
X68976Y-28995D01*
X70868Y-28995D02*
X71726Y-28995D01*
X78993Y-28995D02*
X83203Y-28995D01*
X85519Y-28995D02*
X85725Y-28995D01*
X67275Y-29075D02*
X68976Y-29075D01*
X70569Y-29075D02*
X71726Y-29075D01*
X78993Y-29075D02*
X83209Y-29075D01*
X85518Y-29075D02*
X85725Y-29075D01*
X67275Y-29155D02*
X68976Y-29155D01*
X70270Y-29155D02*
X71726Y-29155D01*
X78986Y-29155D02*
X83242Y-29155D01*
X85518Y-29155D02*
X85725Y-29155D01*
X67275Y-29235D02*
X68976Y-29235D01*
X70024Y-29235D02*
X71746Y-29235D01*
X79061Y-29235D02*
X83275Y-29235D01*
X85503Y-29235D02*
X85725Y-29235D01*
X67275Y-29315D02*
X68976Y-29315D01*
X70024Y-29315D02*
X71802Y-29315D01*
X79260Y-29315D02*
X83345Y-29315D01*
X85467Y-29315D02*
X85725Y-29315D01*
X67275Y-29395D02*
X69005Y-29395D01*
X69994Y-29395D02*
X71937Y-29395D01*
X79459Y-29395D02*
X83425Y-29395D01*
X85405Y-29395D02*
X85725Y-29395D01*
X67275Y-29475D02*
X69073Y-29475D01*
X69927Y-29475D02*
X71953Y-29475D01*
X79658Y-29475D02*
X83515Y-29475D01*
X85325Y-29475D02*
X85725Y-29475D01*
X67275Y-29555D02*
X69232Y-29555D01*
X69769Y-29555D02*
X71456Y-29555D01*
X71618Y-29555D02*
X71782Y-29555D01*
X71945Y-29555D02*
X71969Y-29555D01*
X79857Y-29555D02*
X83386Y-29555D01*
X85245Y-29555D02*
X85725Y-29555D01*
X67275Y-29635D02*
X69212Y-29635D01*
X69789Y-29635D02*
X71364Y-29635D01*
X71650Y-29635D02*
X71750Y-29635D01*
X80056Y-29635D02*
X83306Y-29635D01*
X85165Y-29635D02*
X85725Y-29635D01*
X67275Y-29715D02*
X69120Y-29715D01*
X69144Y-29715D02*
X69286Y-29715D01*
X69714Y-29715D02*
X69856Y-29715D01*
X69881Y-29715D02*
X71331Y-29715D01*
X71650Y-29715D02*
X71750Y-29715D01*
X80256Y-29715D02*
X83259Y-29715D01*
X85192Y-29715D02*
X85725Y-29715D01*
X67275Y-29795D02*
X69027Y-29795D01*
X69224Y-29795D02*
X69366Y-29795D01*
X69634Y-29795D02*
X69776Y-29795D01*
X69978Y-29795D02*
X71326Y-29795D01*
X71650Y-29795D02*
X71750Y-29795D01*
X80452Y-29795D02*
X83226Y-29795D01*
X85224Y-29795D02*
X85725Y-29795D01*
X67275Y-29875D02*
X68999Y-29875D01*
X69304Y-29875D02*
X69446Y-29875D01*
X69554Y-29875D02*
X69696Y-29875D01*
X70009Y-29875D02*
X71326Y-29875D01*
X71650Y-29875D02*
X71750Y-29875D01*
X80577Y-29875D02*
X83203Y-29875D01*
X85239Y-29875D02*
X85725Y-29875D01*
X67275Y-29955D02*
X68982Y-29955D01*
X69384Y-29955D02*
X69616Y-29955D01*
X70013Y-29955D02*
X71750Y-29955D01*
X80669Y-29955D02*
X83203Y-29955D01*
X84657Y-29955D02*
X84799Y-29955D01*
X85244Y-29955D02*
X85725Y-29955D01*
X67275Y-30035D02*
X68986Y-30035D01*
X69394Y-30035D02*
X69606Y-30035D01*
X70017Y-30035D02*
X71750Y-30035D01*
X80760Y-30035D02*
X83203Y-30035D01*
X84577Y-30035D02*
X84719Y-30035D01*
X84737Y-30035D02*
X84879Y-30035D01*
X85244Y-30035D02*
X85725Y-30035D01*
X67275Y-30115D02*
X68991Y-30115D01*
X69314Y-30115D02*
X69456Y-30115D01*
X69544Y-30115D02*
X69686Y-30115D01*
X70004Y-30115D02*
X71325Y-30115D01*
X71650Y-30115D02*
X71750Y-30115D01*
X80852Y-30115D02*
X83226Y-30115D01*
X84229Y-30115D02*
X84232Y-30115D01*
X84497Y-30115D02*
X84639Y-30115D01*
X84817Y-30115D02*
X84959Y-30115D01*
X85217Y-30115D02*
X85725Y-30115D01*
X67275Y-30195D02*
X69018Y-30195D01*
X69234Y-30195D02*
X69376Y-30195D01*
X69624Y-30195D02*
X69766Y-30195D01*
X69976Y-30195D02*
X71326Y-30195D01*
X71650Y-30195D02*
X71750Y-30195D01*
X80944Y-30195D02*
X83259Y-30195D01*
X84196Y-30195D02*
X84264Y-30195D01*
X84417Y-30195D02*
X84559Y-30195D01*
X84897Y-30195D02*
X85039Y-30195D01*
X85189Y-30195D02*
X85725Y-30195D01*
X67275Y-30275D02*
X69079Y-30275D01*
X69154Y-30275D02*
X69296Y-30275D01*
X69704Y-30275D02*
X69846Y-30275D01*
X69920Y-30275D02*
X71326Y-30275D01*
X71650Y-30275D02*
X71750Y-30275D01*
X81035Y-30275D02*
X83305Y-30275D01*
X84150Y-30275D02*
X84479Y-30275D01*
X84977Y-30275D02*
X85725Y-30275D01*
X67275Y-30355D02*
X69216Y-30355D01*
X69784Y-30355D02*
X71359Y-30355D01*
X71650Y-30355D02*
X71750Y-30355D01*
X81127Y-30355D02*
X83385Y-30355D01*
X84070Y-30355D02*
X84447Y-30355D01*
X85008Y-30355D02*
X85725Y-30355D01*
X67275Y-30435D02*
X69228Y-30435D01*
X69771Y-30435D02*
X71433Y-30435D01*
X71628Y-30435D02*
X71772Y-30435D01*
X71966Y-30435D02*
X72009Y-30435D01*
X81219Y-30435D02*
X83514Y-30435D01*
X83940Y-30435D02*
X84541Y-30435D01*
X84926Y-30435D02*
X85725Y-30435D01*
X67275Y-30515D02*
X69414Y-30515D01*
X69500Y-30515D02*
X70308Y-30515D01*
X70553Y-30515D02*
X70697Y-30515D01*
X70942Y-30515D02*
X71058Y-30515D01*
X71692Y-30515D02*
X72009Y-30515D01*
X81310Y-30515D02*
X85725Y-30515D01*
X67275Y-30595D02*
X70235Y-30595D01*
X70575Y-30595D02*
X70675Y-30595D01*
X71766Y-30595D02*
X72009Y-30595D01*
X81402Y-30595D02*
X85725Y-30595D01*
X67275Y-30675D02*
X70201Y-30675D01*
X70575Y-30675D02*
X70675Y-30675D01*
X71799Y-30675D02*
X72009Y-30675D01*
X81494Y-30675D02*
X85725Y-30675D01*
X67275Y-30755D02*
X70201Y-30755D01*
X70575Y-30755D02*
X70675Y-30755D01*
X71799Y-30755D02*
X72009Y-30755D01*
X81585Y-30755D02*
X85725Y-30755D01*
X67275Y-30835D02*
X70201Y-30835D01*
X70575Y-30835D02*
X70675Y-30835D01*
X71799Y-30835D02*
X72009Y-30835D01*
X81677Y-30835D02*
X85725Y-30835D01*
X67275Y-30915D02*
X70227Y-30915D01*
X70575Y-30915D02*
X70675Y-30915D01*
X71799Y-30915D02*
X72009Y-30915D01*
X81769Y-30915D02*
X85725Y-30915D01*
X67275Y-30995D02*
X70675Y-30995D01*
X71799Y-30995D02*
X72008Y-30995D01*
X81860Y-30995D02*
X85725Y-30995D01*
X67275Y-31075D02*
X70237Y-31075D01*
X70575Y-31075D02*
X70675Y-31075D01*
X71799Y-31075D02*
X72008Y-31075D01*
X81952Y-31075D02*
X85725Y-31075D01*
X67275Y-31155D02*
X70200Y-31155D01*
X70575Y-31155D02*
X70675Y-31155D01*
X71799Y-31155D02*
X72008Y-31155D01*
X82044Y-31155D02*
X85725Y-31155D01*
X67275Y-31235D02*
X70201Y-31235D01*
X70575Y-31235D02*
X70675Y-31235D01*
X71799Y-31235D02*
X72008Y-31235D01*
X82135Y-31235D02*
X85725Y-31235D01*
X67275Y-31315D02*
X70201Y-31315D01*
X70575Y-31315D02*
X70675Y-31315D01*
X71799Y-31315D02*
X72008Y-31315D01*
X82227Y-31315D02*
X85725Y-31315D01*
X67275Y-31395D02*
X70230Y-31395D01*
X70575Y-31395D02*
X70675Y-31395D01*
X71769Y-31395D02*
X72008Y-31395D01*
X82319Y-31395D02*
X85725Y-31395D01*
X67275Y-31475D02*
X70298Y-31475D01*
X70563Y-31475D02*
X70687Y-31475D01*
X70951Y-31475D02*
X71048Y-31475D01*
X71702Y-31475D02*
X72008Y-31475D01*
X82410Y-31475D02*
X85725Y-31475D01*
X67275Y-31555D02*
X71072Y-31555D01*
X71651Y-31555D02*
X72008Y-31555D01*
X82502Y-31555D02*
X85725Y-31555D01*
X67275Y-31635D02*
X67833Y-31635D01*
X68429Y-31635D02*
X71067Y-31635D01*
X71646Y-31635D02*
X72007Y-31635D01*
X82594Y-31635D02*
X85725Y-31635D01*
X67275Y-31715D02*
X67639Y-31715D01*
X68620Y-31715D02*
X71062Y-31715D01*
X71641Y-31715D02*
X72007Y-31715D01*
X82685Y-31715D02*
X85725Y-31715D01*
X67275Y-31795D02*
X67503Y-31795D01*
X68757Y-31795D02*
X71057Y-31795D01*
X71637Y-31795D02*
X72007Y-31795D01*
X82777Y-31795D02*
X85725Y-31795D01*
X67275Y-31875D02*
X67423Y-31875D01*
X68837Y-31875D02*
X71052Y-31875D01*
X71632Y-31875D02*
X72007Y-31875D01*
X82869Y-31875D02*
X85725Y-31875D01*
X67275Y-31955D02*
X67343Y-31955D01*
X68917Y-31955D02*
X71047Y-31955D01*
X71627Y-31955D02*
X72007Y-31955D01*
X82960Y-31955D02*
X85725Y-31955D01*
X68997Y-32035D02*
X71042Y-32035D01*
X71622Y-32035D02*
X72007Y-32035D01*
X83052Y-32035D02*
X85725Y-32035D01*
X69038Y-32115D02*
X69960Y-32115D01*
X70190Y-32115D02*
X70402Y-32115D01*
X70633Y-32115D02*
X71038Y-32115D01*
X71617Y-32115D02*
X72007Y-32115D01*
X83478Y-32115D02*
X84115Y-32115D01*
X84478Y-32115D02*
X85115Y-32115D01*
X85478Y-32115D02*
X85725Y-32115D01*
X69071Y-32195D02*
X69833Y-32195D01*
X70246Y-32195D02*
X70346Y-32195D01*
X70759Y-32195D02*
X70959Y-32195D01*
X71633Y-32195D02*
X71959Y-32195D01*
X83633Y-32195D02*
X83959Y-32195D01*
X84634Y-32195D02*
X84959Y-32195D01*
X85633Y-32195D02*
X85725Y-32195D01*
X69104Y-32275D02*
X69787Y-32275D01*
X70246Y-32275D02*
X70346Y-32275D01*
X70806Y-32275D02*
X70879Y-32275D01*
X71713Y-32275D02*
X71879Y-32275D01*
X83713Y-32275D02*
X83879Y-32275D01*
X84714Y-32275D02*
X84879Y-32275D01*
X85713Y-32275D02*
X85725Y-32275D01*
X69137Y-32355D02*
X69772Y-32355D01*
X70246Y-32355D02*
X70346Y-32355D01*
X71775Y-32355D02*
X71818Y-32355D01*
X83775Y-32355D02*
X83818Y-32355D01*
X84775Y-32355D02*
X84818Y-32355D01*
X69167Y-32435D02*
X69772Y-32435D01*
X70246Y-32435D02*
X70346Y-32435D01*
X69167Y-32515D02*
X69772Y-32515D01*
X70246Y-32515D02*
X70346Y-32515D01*
X69167Y-32595D02*
X70346Y-32595D01*
X69167Y-32675D02*
X70346Y-32675D01*
X69167Y-32755D02*
X69771Y-32755D01*
X70246Y-32755D02*
X70346Y-32755D01*
X69167Y-32835D02*
X69771Y-32835D01*
X70246Y-32835D02*
X70346Y-32835D01*
X69136Y-32915D02*
X69772Y-32915D01*
X70246Y-32915D02*
X70346Y-32915D01*
X71773Y-32915D02*
X71818Y-32915D01*
X72773Y-32915D02*
X72818Y-32915D01*
X73773Y-32915D02*
X73818Y-32915D01*
X74773Y-32915D02*
X74818Y-32915D01*
X75773Y-32915D02*
X75818Y-32915D01*
X76773Y-32915D02*
X76818Y-32915D01*
X77773Y-32915D02*
X77818Y-32915D01*
X78773Y-32915D02*
X78818Y-32915D01*
X79773Y-32915D02*
X79818Y-32915D01*
X80773Y-32915D02*
X80818Y-32915D01*
X81773Y-32915D02*
X81818Y-32915D01*
X82773Y-32915D02*
X82818Y-32915D01*
X83773Y-32915D02*
X83818Y-32915D01*
X84773Y-32915D02*
X84818Y-32915D01*
X69102Y-32995D02*
X69787Y-32995D01*
X70246Y-32995D02*
X70346Y-32995D01*
X70804Y-32995D02*
X70881Y-32995D01*
X71711Y-32995D02*
X71881Y-32995D01*
X72711Y-32995D02*
X72881Y-32995D01*
X73711Y-32995D02*
X73881Y-32995D01*
X74711Y-32995D02*
X74881Y-32995D01*
X75711Y-32995D02*
X75881Y-32995D01*
X76711Y-32995D02*
X76881Y-32995D01*
X77711Y-32995D02*
X77881Y-32995D01*
X78711Y-32995D02*
X78881Y-32995D01*
X79711Y-32995D02*
X79881Y-32995D01*
X80711Y-32995D02*
X80881Y-32995D01*
X81711Y-32995D02*
X81881Y-32995D01*
X82711Y-32995D02*
X82881Y-32995D01*
X83711Y-32995D02*
X83881Y-32995D01*
X84711Y-32995D02*
X84881Y-32995D01*
X85711Y-32995D02*
X85725Y-32995D01*
X69069Y-33075D02*
X69835Y-33075D01*
X70246Y-33075D02*
X70346Y-33075D01*
X70757Y-33075D02*
X70961Y-33075D01*
X71631Y-33075D02*
X71961Y-33075D01*
X72631Y-33075D02*
X72961Y-33075D01*
X73631Y-33075D02*
X73961Y-33075D01*
X74631Y-33075D02*
X74961Y-33075D01*
X75631Y-33075D02*
X75961Y-33075D01*
X76631Y-33075D02*
X76961Y-33075D01*
X77631Y-33075D02*
X77961Y-33075D01*
X78631Y-33075D02*
X78961Y-33075D01*
X79631Y-33075D02*
X79961Y-33075D01*
X80631Y-33075D02*
X80961Y-33075D01*
X81631Y-33075D02*
X81961Y-33075D01*
X82631Y-33075D02*
X82961Y-33075D01*
X83631Y-33075D02*
X83961Y-33075D01*
X84631Y-33075D02*
X84961Y-33075D01*
X85631Y-33075D02*
X85725Y-33075D01*
X69035Y-33155D02*
X69964Y-33155D01*
X70188Y-33155D02*
X70404Y-33155D01*
X70627Y-33155D02*
X71119Y-33155D01*
X71472Y-33155D02*
X72119Y-33155D01*
X72472Y-33155D02*
X73119Y-33155D01*
X73472Y-33155D02*
X74119Y-33155D01*
X74472Y-33155D02*
X75119Y-33155D01*
X75472Y-33155D02*
X76119Y-33155D01*
X76472Y-33155D02*
X77119Y-33155D01*
X77472Y-33155D02*
X78119Y-33155D01*
X78472Y-33155D02*
X79119Y-33155D01*
X79472Y-33155D02*
X80119Y-33155D01*
X80472Y-33155D02*
X81119Y-33155D01*
X81472Y-33155D02*
X82119Y-33155D01*
X82472Y-33155D02*
X83119Y-33155D01*
X83472Y-33155D02*
X84119Y-33155D01*
X84472Y-33155D02*
X85119Y-33155D01*
X85472Y-33155D02*
X85725Y-33155D01*
X74604Y-28419D02*
X74604Y-28419D01*
X74638Y-28499D02*
X74959Y-28499D01*
X74655Y-28579D02*
X75364Y-28579D01*
X74655Y-28659D02*
X75387Y-28659D01*
X72630Y-28739D02*
X72762Y-28739D01*
X74646Y-28739D02*
X75354Y-28739D01*
X72667Y-28819D02*
X73397Y-28819D01*
X74613Y-28819D02*
X75349Y-28819D01*
X72674Y-28899D02*
X73847Y-28899D01*
X74570Y-28899D02*
X75349Y-28899D01*
X72674Y-28979D02*
X73927Y-28979D01*
X74490Y-28979D02*
X75370Y-28979D01*
X72674Y-29059D02*
X74079Y-29059D01*
X74338Y-29059D02*
X75403Y-29059D01*
X72674Y-29139D02*
X75464Y-29139D01*
X72660Y-29219D02*
X75546Y-29219D01*
X72614Y-29299D02*
X75798Y-29299D01*
X72527Y-29379D02*
X75718Y-29379D01*
X72543Y-29459D02*
X75641Y-29459D01*
X72559Y-29539D02*
X75568Y-29539D01*
X72621Y-29619D02*
X75494Y-29619D01*
X72663Y-29699D02*
X75421Y-29699D01*
X72674Y-29779D02*
X75348Y-29779D01*
X72674Y-29859D02*
X75277Y-29859D01*
X72674Y-29939D02*
X75209Y-29939D01*
X72674Y-30019D02*
X75141Y-30019D01*
X72674Y-30099D02*
X75073Y-30099D01*
X72674Y-30179D02*
X75004Y-30179D01*
X72674Y-30259D02*
X74936Y-30259D01*
X72647Y-30339D02*
X74868Y-30339D01*
X72588Y-30419D02*
X74800Y-30419D01*
X72588Y-30499D02*
X74732Y-30499D01*
X72588Y-30579D02*
X74664Y-30579D01*
X72588Y-30659D02*
X74596Y-30659D01*
X72588Y-30739D02*
X74528Y-30739D01*
X72588Y-30819D02*
X74460Y-30819D01*
X72588Y-30899D02*
X74392Y-30899D01*
X72588Y-30979D02*
X74324Y-30979D01*
X72587Y-31059D02*
X74256Y-31059D01*
X72587Y-31139D02*
X74188Y-31139D01*
X72587Y-31219D02*
X74119Y-31219D01*
X72587Y-31299D02*
X74051Y-31299D01*
X72587Y-31379D02*
X73983Y-31379D01*
X72587Y-31459D02*
X73915Y-31459D01*
X72587Y-31539D02*
X73847Y-31539D01*
X72586Y-31619D02*
X73779Y-31619D01*
X72586Y-31699D02*
X73711Y-31699D01*
X72586Y-31779D02*
X73643Y-31779D01*
X72586Y-31859D02*
X73575Y-31859D01*
X72586Y-31939D02*
X73507Y-31939D01*
X72586Y-32019D02*
X73439Y-32019D01*
X72586Y-32099D02*
X73154Y-32099D01*
X72617Y-32179D02*
X72975Y-32179D01*
X72697Y-32259D02*
X72895Y-32259D01*
X72768Y-32339D02*
X72825Y-32339D01*
X78551Y-29928D02*
X78646Y-29928D01*
X78551Y-30008D02*
X78824Y-30008D01*
X78551Y-30088D02*
X79002Y-30088D01*
X78534Y-30168D02*
X79180Y-30168D01*
X78495Y-30248D02*
X79359Y-30248D01*
X78522Y-30328D02*
X79537Y-30328D01*
X78586Y-30408D02*
X79715Y-30408D01*
X79004Y-30488D02*
X79266Y-30488D01*
X79406Y-30488D02*
X79612Y-30488D01*
X79753Y-30488D02*
X79893Y-30488D01*
X79126Y-30568D02*
X79143Y-30568D01*
X79459Y-30568D02*
X79559Y-30568D01*
X79875Y-30568D02*
X80055Y-30568D01*
X79459Y-30648D02*
X79559Y-30648D01*
X79921Y-30648D02*
X80135Y-30648D01*
X79459Y-30728D02*
X79559Y-30728D01*
X79933Y-30728D02*
X80215Y-30728D01*
X79459Y-30808D02*
X79559Y-30808D01*
X79934Y-30808D02*
X80290Y-30808D01*
X79459Y-30888D02*
X79559Y-30888D01*
X79934Y-30888D02*
X80361Y-30888D01*
X79183Y-30968D02*
X80431Y-30968D01*
X79183Y-31048D02*
X80502Y-31048D01*
X79459Y-31128D02*
X79559Y-31128D01*
X79933Y-31128D02*
X80573Y-31128D01*
X79459Y-31208D02*
X79559Y-31208D01*
X79933Y-31208D02*
X80644Y-31208D01*
X79459Y-31288D02*
X79559Y-31288D01*
X79933Y-31288D02*
X80715Y-31288D01*
X79459Y-31368D02*
X79559Y-31368D01*
X79916Y-31368D02*
X80785Y-31368D01*
X79459Y-31448D02*
X79559Y-31448D01*
X79867Y-31448D02*
X80856Y-31448D01*
X79556Y-31528D02*
X79620Y-31528D01*
X79733Y-31528D02*
X80927Y-31528D01*
X79872Y-31608D02*
X80998Y-31608D01*
X80146Y-31688D02*
X81068Y-31688D01*
X80420Y-31768D02*
X81139Y-31768D01*
X80654Y-31848D02*
X81210Y-31848D01*
X80783Y-31928D02*
X81281Y-31928D01*
X80899Y-32008D02*
X81352Y-32008D01*
X81016Y-32088D02*
X81180Y-32088D01*
X81413Y-32088D02*
X81422Y-32088D01*
X76839Y-30954D02*
X77215Y-30954D01*
X76839Y-31034D02*
X77215Y-31034D01*
X77509Y-28887D02*
X77609Y-28887D01*
X77509Y-28967D02*
X77609Y-28967D01*
X77509Y-29047D02*
X77609Y-29047D01*
X77509Y-29127D02*
X77609Y-29127D01*
X77509Y-29207D02*
X77609Y-29207D01*
X77509Y-29287D02*
X77609Y-29287D01*
X77509Y-29367D02*
X77609Y-29367D01*
X77509Y-29447D02*
X77609Y-29447D01*
X77215Y-31054D02*
X77215Y-30954D01*
X76939Y-30954D01*
X76839Y-30954D01*
X76839Y-31054D01*
X76939Y-31054D01*
X77215Y-31054D01*
X67275Y-26275D02*
X85725Y-26275D01*
X67275Y-26355D02*
X85725Y-26355D01*
X67275Y-26435D02*
X85725Y-26435D01*
X67275Y-26515D02*
X69316Y-26515D01*
X69685Y-26515D02*
X76991Y-26515D01*
X77236Y-26515D02*
X77380Y-26515D01*
X77625Y-26515D02*
X77741Y-26515D01*
X78375Y-26515D02*
X85725Y-26515D01*
X67275Y-26595D02*
X69167Y-26595D01*
X69833Y-26595D02*
X76918Y-26595D01*
X77258Y-26595D02*
X77358Y-26595D01*
X78449Y-26595D02*
X85725Y-26595D01*
X67275Y-26675D02*
X69087Y-26675D01*
X69913Y-26675D02*
X76884Y-26675D01*
X77258Y-26675D02*
X77358Y-26675D01*
X78482Y-26675D02*
X85725Y-26675D01*
X67275Y-26755D02*
X69035Y-26755D01*
X69967Y-26755D02*
X76884Y-26755D01*
X77258Y-26755D02*
X77358Y-26755D01*
X78806Y-26755D02*
X85725Y-26755D01*
X67275Y-26835D02*
X69001Y-26835D01*
X70103Y-26835D02*
X76884Y-26835D01*
X77258Y-26835D02*
X77358Y-26835D01*
X78919Y-26835D02*
X85725Y-26835D01*
X67275Y-26915D02*
X68975Y-26915D01*
X70467Y-26915D02*
X76910Y-26915D01*
X77258Y-26915D02*
X77358Y-26915D01*
X78993Y-26915D02*
X85725Y-26915D01*
X67275Y-26995D02*
X68975Y-26995D01*
X70831Y-26995D02*
X77358Y-26995D01*
X79026Y-26995D02*
X85725Y-26995D01*
X67275Y-27075D02*
X68975Y-27075D01*
X71194Y-27075D02*
X76920Y-27075D01*
X79056Y-27075D02*
X85725Y-27075D01*
X67275Y-27155D02*
X68996Y-27155D01*
X71558Y-27155D02*
X76883Y-27155D01*
X79056Y-27155D02*
X83279Y-27155D01*
X84942Y-27155D02*
X85725Y-27155D01*
X67275Y-27235D02*
X69029Y-27235D01*
X71922Y-27235D02*
X76884Y-27235D01*
X79056Y-27235D02*
X82186Y-27235D01*
X85138Y-27235D02*
X85725Y-27235D01*
X67275Y-27315D02*
X69077Y-27315D01*
X72286Y-27315D02*
X76884Y-27315D01*
X79027Y-27315D02*
X81094Y-27315D01*
X85221Y-27315D02*
X85725Y-27315D01*
X67275Y-27395D02*
X69157Y-27395D01*
X69842Y-27395D02*
X69947Y-27395D01*
X72649Y-27395D02*
X76913Y-27395D01*
X78994Y-27395D02*
X80001Y-27395D01*
X85301Y-27395D02*
X85725Y-27395D01*
X67275Y-27475D02*
X69291Y-27475D01*
X69708Y-27475D02*
X70311Y-27475D01*
X73013Y-27475D02*
X76981Y-27475D01*
X85381Y-27475D02*
X85725Y-27475D01*
X67275Y-27555D02*
X70675Y-27555D01*
X73377Y-27555D02*
X76693Y-27555D01*
X85459Y-27555D02*
X85725Y-27555D01*
X67275Y-27635D02*
X71038Y-27635D01*
X73741Y-27635D02*
X76612Y-27635D01*
X85506Y-27635D02*
X85725Y-27635D01*
X67275Y-27715D02*
X71402Y-27715D01*
X74105Y-27715D02*
X76579Y-27715D01*
X85523Y-27715D02*
X85725Y-27715D01*
X67275Y-27795D02*
X71766Y-27795D01*
X74468Y-27795D02*
X76566Y-27795D01*
X85529Y-27795D02*
X85725Y-27795D01*
X67275Y-27875D02*
X72130Y-27875D01*
X74832Y-27875D02*
X76566Y-27875D01*
X85529Y-27875D02*
X85725Y-27875D01*
X67275Y-27955D02*
X72494Y-27955D01*
X75193Y-27955D02*
X76344Y-27955D01*
X85529Y-27955D02*
X85725Y-27955D01*
X67275Y-28035D02*
X72858Y-28035D01*
X75600Y-28035D02*
X76213Y-28035D01*
X85529Y-28035D02*
X85725Y-28035D01*
X67275Y-28115D02*
X71794Y-28115D01*
X72606Y-28115D02*
X73221Y-28115D01*
X76006Y-28115D02*
X76155Y-28115D01*
X85529Y-28115D02*
X85725Y-28115D01*
X67275Y-28195D02*
X71614Y-28195D01*
X73087Y-28195D02*
X73585Y-28195D01*
X85526Y-28195D02*
X85725Y-28195D01*
X67275Y-28275D02*
X71315Y-28275D01*
X73720Y-28275D02*
X73933Y-28275D01*
X85526Y-28275D02*
X85725Y-28275D01*
X67275Y-28355D02*
X71016Y-28355D01*
X85525Y-28355D02*
X85725Y-28355D01*
X67275Y-28435D02*
X70717Y-28435D01*
X85524Y-28435D02*
X85725Y-28435D01*
X67275Y-28515D02*
X69083Y-28515D01*
X69917Y-28515D02*
X70418Y-28515D01*
X85523Y-28515D02*
X85725Y-28515D01*
X67275Y-28595D02*
X69010Y-28595D01*
X69991Y-28595D02*
X70119Y-28595D01*
X85523Y-28595D02*
X85725Y-28595D01*
X67275Y-28675D02*
X68976Y-28675D01*
X85522Y-28675D02*
X85725Y-28675D01*
X67275Y-28755D02*
X68976Y-28755D01*
X78984Y-28755D02*
X83242Y-28755D01*
X85521Y-28755D02*
X85725Y-28755D01*
X67275Y-28835D02*
X68976Y-28835D01*
X71466Y-28835D02*
X71727Y-28835D01*
X78993Y-28835D02*
X83210Y-28835D01*
X85520Y-28835D02*
X85725Y-28835D01*
X67275Y-28915D02*
X68976Y-28915D01*
X71167Y-28915D02*
X71726Y-28915D01*
X78986Y-28915D02*
X83203Y-28915D01*
X85520Y-28915D02*
X85725Y-28915D01*
X67275Y-28995D02*
X68976Y-28995D01*
X70868Y-28995D02*
X71726Y-28995D01*
X78993Y-28995D02*
X83203Y-28995D01*
X85519Y-28995D02*
X85725Y-28995D01*
X67275Y-29075D02*
X68976Y-29075D01*
X70569Y-29075D02*
X71726Y-29075D01*
X78993Y-29075D02*
X83209Y-29075D01*
X85518Y-29075D02*
X85725Y-29075D01*
X67275Y-29155D02*
X68976Y-29155D01*
X70270Y-29155D02*
X71726Y-29155D01*
X78986Y-29155D02*
X83242Y-29155D01*
X85518Y-29155D02*
X85725Y-29155D01*
X67275Y-29235D02*
X68976Y-29235D01*
X70024Y-29235D02*
X71746Y-29235D01*
X79061Y-29235D02*
X83275Y-29235D01*
X85503Y-29235D02*
X85725Y-29235D01*
X67275Y-29315D02*
X68976Y-29315D01*
X70024Y-29315D02*
X71802Y-29315D01*
X79260Y-29315D02*
X83345Y-29315D01*
X85467Y-29315D02*
X85725Y-29315D01*
X67275Y-29395D02*
X69005Y-29395D01*
X69994Y-29395D02*
X71937Y-29395D01*
X79459Y-29395D02*
X83425Y-29395D01*
X85405Y-29395D02*
X85725Y-29395D01*
X67275Y-29475D02*
X69073Y-29475D01*
X69927Y-29475D02*
X71953Y-29475D01*
X79658Y-29475D02*
X83515Y-29475D01*
X85325Y-29475D02*
X85725Y-29475D01*
X67275Y-29555D02*
X69232Y-29555D01*
X69769Y-29555D02*
X71456Y-29555D01*
X71618Y-29555D02*
X71782Y-29555D01*
X71945Y-29555D02*
X71969Y-29555D01*
X79857Y-29555D02*
X83386Y-29555D01*
X85245Y-29555D02*
X85725Y-29555D01*
X67275Y-29635D02*
X69212Y-29635D01*
X69789Y-29635D02*
X71364Y-29635D01*
X71650Y-29635D02*
X71750Y-29635D01*
X80056Y-29635D02*
X83306Y-29635D01*
X85165Y-29635D02*
X85725Y-29635D01*
X67275Y-29715D02*
X69120Y-29715D01*
X69144Y-29715D02*
X69286Y-29715D01*
X69714Y-29715D02*
X69856Y-29715D01*
X69881Y-29715D02*
X71331Y-29715D01*
X71650Y-29715D02*
X71750Y-29715D01*
X80256Y-29715D02*
X83259Y-29715D01*
X85192Y-29715D02*
X85725Y-29715D01*
X67275Y-29795D02*
X69027Y-29795D01*
X69224Y-29795D02*
X69366Y-29795D01*
X69634Y-29795D02*
X69776Y-29795D01*
X69978Y-29795D02*
X71326Y-29795D01*
X71650Y-29795D02*
X71750Y-29795D01*
X80452Y-29795D02*
X83226Y-29795D01*
X85224Y-29795D02*
X85725Y-29795D01*
X67275Y-29875D02*
X68999Y-29875D01*
X69304Y-29875D02*
X69446Y-29875D01*
X69554Y-29875D02*
X69696Y-29875D01*
X70009Y-29875D02*
X71326Y-29875D01*
X71650Y-29875D02*
X71750Y-29875D01*
X80577Y-29875D02*
X83203Y-29875D01*
X85239Y-29875D02*
X85725Y-29875D01*
X67275Y-29955D02*
X68982Y-29955D01*
X69384Y-29955D02*
X69616Y-29955D01*
X70013Y-29955D02*
X71750Y-29955D01*
X80669Y-29955D02*
X83203Y-29955D01*
X84657Y-29955D02*
X84799Y-29955D01*
X85244Y-29955D02*
X85725Y-29955D01*
X67275Y-30035D02*
X68986Y-30035D01*
X69394Y-30035D02*
X69606Y-30035D01*
X70017Y-30035D02*
X71750Y-30035D01*
X80760Y-30035D02*
X83203Y-30035D01*
X84577Y-30035D02*
X84719Y-30035D01*
X84737Y-30035D02*
X84879Y-30035D01*
X85244Y-30035D02*
X85725Y-30035D01*
X67275Y-30115D02*
X68991Y-30115D01*
X69314Y-30115D02*
X69456Y-30115D01*
X69544Y-30115D02*
X69686Y-30115D01*
X70004Y-30115D02*
X71325Y-30115D01*
X71650Y-30115D02*
X71750Y-30115D01*
X80852Y-30115D02*
X83226Y-30115D01*
X84229Y-30115D02*
X84232Y-30115D01*
X84497Y-30115D02*
X84639Y-30115D01*
X84817Y-30115D02*
X84959Y-30115D01*
X85217Y-30115D02*
X85725Y-30115D01*
X67275Y-30195D02*
X69018Y-30195D01*
X69234Y-30195D02*
X69376Y-30195D01*
X69624Y-30195D02*
X69766Y-30195D01*
X69976Y-30195D02*
X71326Y-30195D01*
X71650Y-30195D02*
X71750Y-30195D01*
X80944Y-30195D02*
X83259Y-30195D01*
X84196Y-30195D02*
X84264Y-30195D01*
X84417Y-30195D02*
X84559Y-30195D01*
X84897Y-30195D02*
X85039Y-30195D01*
X85189Y-30195D02*
X85725Y-30195D01*
X67275Y-30275D02*
X69079Y-30275D01*
X69154Y-30275D02*
X69296Y-30275D01*
X69704Y-30275D02*
X69846Y-30275D01*
X69920Y-30275D02*
X71326Y-30275D01*
X71650Y-30275D02*
X71750Y-30275D01*
X81035Y-30275D02*
X83305Y-30275D01*
X84150Y-30275D02*
X84479Y-30275D01*
X84977Y-30275D02*
X85725Y-30275D01*
X67275Y-30355D02*
X69216Y-30355D01*
X69784Y-30355D02*
X71359Y-30355D01*
X71650Y-30355D02*
X71750Y-30355D01*
X81127Y-30355D02*
X83385Y-30355D01*
X84070Y-30355D02*
X84447Y-30355D01*
X85008Y-30355D02*
X85725Y-30355D01*
X67275Y-30435D02*
X69228Y-30435D01*
X69771Y-30435D02*
X71433Y-30435D01*
X71628Y-30435D02*
X71772Y-30435D01*
X71966Y-30435D02*
X72009Y-30435D01*
X81219Y-30435D02*
X83514Y-30435D01*
X83940Y-30435D02*
X84541Y-30435D01*
X84926Y-30435D02*
X85725Y-30435D01*
X67275Y-30515D02*
X69414Y-30515D01*
X69500Y-30515D02*
X70308Y-30515D01*
X70553Y-30515D02*
X70697Y-30515D01*
X70942Y-30515D02*
X71058Y-30515D01*
X71692Y-30515D02*
X72009Y-30515D01*
X81310Y-30515D02*
X85725Y-30515D01*
X67275Y-30595D02*
X70235Y-30595D01*
X70575Y-30595D02*
X70675Y-30595D01*
X71766Y-30595D02*
X72009Y-30595D01*
X81402Y-30595D02*
X85725Y-30595D01*
X67275Y-30675D02*
X70201Y-30675D01*
X70575Y-30675D02*
X70675Y-30675D01*
X71799Y-30675D02*
X72009Y-30675D01*
X81494Y-30675D02*
X85725Y-30675D01*
X67275Y-30755D02*
X70201Y-30755D01*
X70575Y-30755D02*
X70675Y-30755D01*
X71799Y-30755D02*
X72009Y-30755D01*
X81585Y-30755D02*
X85725Y-30755D01*
X67275Y-30835D02*
X70201Y-30835D01*
X70575Y-30835D02*
X70675Y-30835D01*
X71799Y-30835D02*
X72009Y-30835D01*
X81677Y-30835D02*
X85725Y-30835D01*
X67275Y-30915D02*
X70227Y-30915D01*
X70575Y-30915D02*
X70675Y-30915D01*
X71799Y-30915D02*
X72009Y-30915D01*
X81769Y-30915D02*
X85725Y-30915D01*
X67275Y-30995D02*
X70675Y-30995D01*
X71799Y-30995D02*
X72008Y-30995D01*
X81860Y-30995D02*
X85725Y-30995D01*
X67275Y-31075D02*
X70237Y-31075D01*
X70575Y-31075D02*
X70675Y-31075D01*
X71799Y-31075D02*
X72008Y-31075D01*
X81952Y-31075D02*
X85725Y-31075D01*
X67275Y-31155D02*
X70200Y-31155D01*
X70575Y-31155D02*
X70675Y-31155D01*
X71799Y-31155D02*
X72008Y-31155D01*
X82044Y-31155D02*
X85725Y-31155D01*
X67275Y-31235D02*
X70201Y-31235D01*
X70575Y-31235D02*
X70675Y-31235D01*
X71799Y-31235D02*
X72008Y-31235D01*
X82135Y-31235D02*
X85725Y-31235D01*
X67275Y-31315D02*
X70201Y-31315D01*
X70575Y-31315D02*
X70675Y-31315D01*
X71799Y-31315D02*
X72008Y-31315D01*
X82227Y-31315D02*
X85725Y-31315D01*
X67275Y-31395D02*
X70230Y-31395D01*
X70575Y-31395D02*
X70675Y-31395D01*
X71769Y-31395D02*
X72008Y-31395D01*
X82319Y-31395D02*
X85725Y-31395D01*
X67275Y-31475D02*
X70298Y-31475D01*
X70563Y-31475D02*
X70687Y-31475D01*
X70951Y-31475D02*
X71048Y-31475D01*
X71702Y-31475D02*
X72008Y-31475D01*
X82410Y-31475D02*
X85725Y-31475D01*
X67275Y-31555D02*
X71072Y-31555D01*
X71651Y-31555D02*
X72008Y-31555D01*
X82502Y-31555D02*
X85725Y-31555D01*
X67275Y-31635D02*
X67833Y-31635D01*
X68429Y-31635D02*
X71067Y-31635D01*
X71646Y-31635D02*
X72007Y-31635D01*
X82594Y-31635D02*
X85725Y-31635D01*
X67275Y-31715D02*
X67639Y-31715D01*
X68620Y-31715D02*
X71062Y-31715D01*
X71641Y-31715D02*
X72007Y-31715D01*
X82685Y-31715D02*
X85725Y-31715D01*
X67275Y-31795D02*
X67503Y-31795D01*
X68757Y-31795D02*
X71057Y-31795D01*
X71637Y-31795D02*
X72007Y-31795D01*
X82777Y-31795D02*
X85725Y-31795D01*
X67275Y-31875D02*
X67423Y-31875D01*
X68837Y-31875D02*
X71052Y-31875D01*
X71632Y-31875D02*
X72007Y-31875D01*
X82869Y-31875D02*
X85725Y-31875D01*
X67275Y-31955D02*
X67343Y-31955D01*
X68917Y-31955D02*
X71047Y-31955D01*
X71627Y-31955D02*
X72007Y-31955D01*
X82960Y-31955D02*
X85725Y-31955D01*
X68997Y-32035D02*
X71042Y-32035D01*
X71622Y-32035D02*
X72007Y-32035D01*
X83052Y-32035D02*
X85725Y-32035D01*
X69038Y-32115D02*
X69960Y-32115D01*
X70190Y-32115D02*
X70402Y-32115D01*
X70633Y-32115D02*
X71038Y-32115D01*
X71617Y-32115D02*
X72007Y-32115D01*
X83478Y-32115D02*
X84115Y-32115D01*
X84478Y-32115D02*
X85115Y-32115D01*
X85478Y-32115D02*
X85725Y-32115D01*
X69071Y-32195D02*
X69833Y-32195D01*
X70246Y-32195D02*
X70346Y-32195D01*
X70759Y-32195D02*
X70959Y-32195D01*
X71633Y-32195D02*
X71959Y-32195D01*
X83633Y-32195D02*
X83959Y-32195D01*
X84634Y-32195D02*
X84959Y-32195D01*
X85633Y-32195D02*
X85725Y-32195D01*
X69104Y-32275D02*
X69787Y-32275D01*
X70246Y-32275D02*
X70346Y-32275D01*
X70806Y-32275D02*
X70879Y-32275D01*
X71713Y-32275D02*
X71879Y-32275D01*
X83713Y-32275D02*
X83879Y-32275D01*
X84714Y-32275D02*
X84879Y-32275D01*
X85713Y-32275D02*
X85725Y-32275D01*
X69137Y-32355D02*
X69772Y-32355D01*
X70246Y-32355D02*
X70346Y-32355D01*
X71775Y-32355D02*
X71818Y-32355D01*
X83775Y-32355D02*
X83818Y-32355D01*
X84775Y-32355D02*
X84818Y-32355D01*
X69167Y-32435D02*
X69772Y-32435D01*
X70246Y-32435D02*
X70346Y-32435D01*
X69167Y-32515D02*
X69772Y-32515D01*
X70246Y-32515D02*
X70346Y-32515D01*
X69167Y-32595D02*
X70346Y-32595D01*
X69167Y-32675D02*
X70346Y-32675D01*
X69167Y-32755D02*
X69771Y-32755D01*
X70246Y-32755D02*
X70346Y-32755D01*
X69167Y-32835D02*
X69771Y-32835D01*
X70246Y-32835D02*
X70346Y-32835D01*
X69136Y-32915D02*
X69772Y-32915D01*
X70246Y-32915D02*
X70346Y-32915D01*
X71773Y-32915D02*
X71818Y-32915D01*
X72773Y-32915D02*
X72818Y-32915D01*
X73773Y-32915D02*
X73818Y-32915D01*
X74773Y-32915D02*
X74818Y-32915D01*
X75773Y-32915D02*
X75818Y-32915D01*
X76773Y-32915D02*
X76818Y-32915D01*
X77773Y-32915D02*
X77818Y-32915D01*
X78773Y-32915D02*
X78818Y-32915D01*
X79773Y-32915D02*
X79818Y-32915D01*
X80773Y-32915D02*
X80818Y-32915D01*
X81773Y-32915D02*
X81818Y-32915D01*
X82773Y-32915D02*
X82818Y-32915D01*
X83773Y-32915D02*
X83818Y-32915D01*
X84773Y-32915D02*
X84818Y-32915D01*
X69102Y-32995D02*
X69787Y-32995D01*
X70246Y-32995D02*
X70346Y-32995D01*
X70804Y-32995D02*
X70881Y-32995D01*
X71711Y-32995D02*
X71881Y-32995D01*
X72711Y-32995D02*
X72881Y-32995D01*
X73711Y-32995D02*
X73881Y-32995D01*
X74711Y-32995D02*
X74881Y-32995D01*
X75711Y-32995D02*
X75881Y-32995D01*
X76711Y-32995D02*
X76881Y-32995D01*
X77711Y-32995D02*
X77881Y-32995D01*
X78711Y-32995D02*
X78881Y-32995D01*
X79711Y-32995D02*
X79881Y-32995D01*
X80711Y-32995D02*
X80881Y-32995D01*
X81711Y-32995D02*
X81881Y-32995D01*
X82711Y-32995D02*
X82881Y-32995D01*
X83711Y-32995D02*
X83881Y-32995D01*
X84711Y-32995D02*
X84881Y-32995D01*
X85711Y-32995D02*
X85725Y-32995D01*
X69069Y-33075D02*
X69835Y-33075D01*
X70246Y-33075D02*
X70346Y-33075D01*
X70757Y-33075D02*
X70961Y-33075D01*
X71631Y-33075D02*
X71961Y-33075D01*
X72631Y-33075D02*
X72961Y-33075D01*
X73631Y-33075D02*
X73961Y-33075D01*
X74631Y-33075D02*
X74961Y-33075D01*
X75631Y-33075D02*
X75961Y-33075D01*
X76631Y-33075D02*
X76961Y-33075D01*
X77631Y-33075D02*
X77961Y-33075D01*
X78631Y-33075D02*
X78961Y-33075D01*
X79631Y-33075D02*
X79961Y-33075D01*
X80631Y-33075D02*
X80961Y-33075D01*
X81631Y-33075D02*
X81961Y-33075D01*
X82631Y-33075D02*
X82961Y-33075D01*
X83631Y-33075D02*
X83961Y-33075D01*
X84631Y-33075D02*
X84961Y-33075D01*
X85631Y-33075D02*
X85725Y-33075D01*
X69035Y-33155D02*
X69964Y-33155D01*
X70188Y-33155D02*
X70404Y-33155D01*
X70627Y-33155D02*
X71119Y-33155D01*
X71472Y-33155D02*
X72119Y-33155D01*
X72472Y-33155D02*
X73119Y-33155D01*
X73472Y-33155D02*
X74119Y-33155D01*
X74472Y-33155D02*
X75119Y-33155D01*
X75472Y-33155D02*
X76119Y-33155D01*
X76472Y-33155D02*
X77119Y-33155D01*
X77472Y-33155D02*
X78119Y-33155D01*
X78472Y-33155D02*
X79119Y-33155D01*
X79472Y-33155D02*
X80119Y-33155D01*
X80472Y-33155D02*
X81119Y-33155D01*
X81472Y-33155D02*
X82119Y-33155D01*
X82472Y-33155D02*
X83119Y-33155D01*
X83472Y-33155D02*
X84119Y-33155D01*
X84472Y-33155D02*
X85119Y-33155D01*
X85472Y-33155D02*
X85725Y-33155D01*
X74604Y-28419D02*
X74604Y-28419D01*
X74638Y-28499D02*
X74959Y-28499D01*
X74655Y-28579D02*
X75364Y-28579D01*
X74655Y-28659D02*
X75387Y-28659D01*
X72630Y-28739D02*
X72762Y-28739D01*
X74646Y-28739D02*
X75354Y-28739D01*
X72667Y-28819D02*
X73397Y-28819D01*
X74613Y-28819D02*
X75349Y-28819D01*
X72674Y-28899D02*
X73847Y-28899D01*
X74570Y-28899D02*
X75349Y-28899D01*
X72674Y-28979D02*
X73927Y-28979D01*
X74490Y-28979D02*
X75370Y-28979D01*
X72674Y-29059D02*
X74079Y-29059D01*
X74338Y-29059D02*
X75403Y-29059D01*
X72674Y-29139D02*
X75464Y-29139D01*
X72660Y-29219D02*
X75546Y-29219D01*
X72614Y-29299D02*
X75798Y-29299D01*
X72527Y-29379D02*
X75718Y-29379D01*
X72543Y-29459D02*
X75641Y-29459D01*
X72559Y-29539D02*
X75568Y-29539D01*
X72621Y-29619D02*
X75494Y-29619D01*
X72663Y-29699D02*
X75421Y-29699D01*
X72674Y-29779D02*
X75348Y-29779D01*
X72674Y-29859D02*
X75277Y-29859D01*
X72674Y-29939D02*
X75209Y-29939D01*
X72674Y-30019D02*
X75141Y-30019D01*
X72674Y-30099D02*
X75073Y-30099D01*
X72674Y-30179D02*
X75004Y-30179D01*
X72674Y-30259D02*
X74936Y-30259D01*
X72647Y-30339D02*
X74868Y-30339D01*
X72588Y-30419D02*
X74800Y-30419D01*
X72588Y-30499D02*
X74732Y-30499D01*
X72588Y-30579D02*
X74664Y-30579D01*
X72588Y-30659D02*
X74596Y-30659D01*
X72588Y-30739D02*
X74528Y-30739D01*
X72588Y-30819D02*
X74460Y-30819D01*
X72588Y-30899D02*
X74392Y-30899D01*
X72588Y-30979D02*
X74324Y-30979D01*
X72587Y-31059D02*
X74256Y-31059D01*
X72587Y-31139D02*
X74188Y-31139D01*
X72587Y-31219D02*
X74119Y-31219D01*
X72587Y-31299D02*
X74051Y-31299D01*
X72587Y-31379D02*
X73983Y-31379D01*
X72587Y-31459D02*
X73915Y-31459D01*
X72587Y-31539D02*
X73847Y-31539D01*
X72586Y-31619D02*
X73779Y-31619D01*
X72586Y-31699D02*
X73711Y-31699D01*
X72586Y-31779D02*
X73643Y-31779D01*
X72586Y-31859D02*
X73575Y-31859D01*
X72586Y-31939D02*
X73507Y-31939D01*
X72586Y-32019D02*
X73439Y-32019D01*
X72586Y-32099D02*
X73154Y-32099D01*
X72617Y-32179D02*
X72975Y-32179D01*
X72697Y-32259D02*
X72895Y-32259D01*
X72768Y-32339D02*
X72825Y-32339D01*
X78551Y-29928D02*
X78646Y-29928D01*
X78551Y-30008D02*
X78824Y-30008D01*
X78551Y-30088D02*
X79002Y-30088D01*
X78534Y-30168D02*
X79180Y-30168D01*
X78495Y-30248D02*
X79359Y-30248D01*
X78522Y-30328D02*
X79537Y-30328D01*
X78586Y-30408D02*
X79715Y-30408D01*
X79004Y-30488D02*
X79266Y-30488D01*
X79406Y-30488D02*
X79612Y-30488D01*
X79753Y-30488D02*
X79893Y-30488D01*
X79126Y-30568D02*
X79143Y-30568D01*
X79459Y-30568D02*
X79559Y-30568D01*
X79875Y-30568D02*
X80055Y-30568D01*
X79459Y-30648D02*
X79559Y-30648D01*
X79921Y-30648D02*
X80135Y-30648D01*
X79459Y-30728D02*
X79559Y-30728D01*
X79933Y-30728D02*
X80215Y-30728D01*
X79459Y-30808D02*
X79559Y-30808D01*
X79934Y-30808D02*
X80290Y-30808D01*
X79459Y-30888D02*
X79559Y-30888D01*
X79934Y-30888D02*
X80361Y-30888D01*
X79183Y-30968D02*
X80431Y-30968D01*
X79183Y-31048D02*
X80502Y-31048D01*
X79459Y-31128D02*
X79559Y-31128D01*
X79933Y-31128D02*
X80573Y-31128D01*
X79459Y-31208D02*
X79559Y-31208D01*
X79933Y-31208D02*
X80644Y-31208D01*
X79459Y-31288D02*
X79559Y-31288D01*
X79933Y-31288D02*
X80715Y-31288D01*
X79459Y-31368D02*
X79559Y-31368D01*
X79916Y-31368D02*
X80785Y-31368D01*
X79459Y-31448D02*
X79559Y-31448D01*
X79867Y-31448D02*
X80856Y-31448D01*
X79556Y-31528D02*
X79620Y-31528D01*
X79733Y-31528D02*
X80927Y-31528D01*
X79872Y-31608D02*
X80998Y-31608D01*
X80146Y-31688D02*
X81068Y-31688D01*
X80420Y-31768D02*
X81139Y-31768D01*
X80654Y-31848D02*
X81210Y-31848D01*
X80783Y-31928D02*
X81281Y-31928D01*
X80899Y-32008D02*
X81352Y-32008D01*
X81016Y-32088D02*
X81180Y-32088D01*
X81413Y-32088D02*
X81422Y-32088D01*
X76839Y-30954D02*
X77215Y-30954D01*
X76839Y-31034D02*
X77215Y-31034D01*
X77509Y-28887D02*
X77609Y-28887D01*
X77509Y-28967D02*
X77609Y-28967D01*
X77509Y-29047D02*
X77609Y-29047D01*
X77509Y-29127D02*
X77609Y-29127D01*
X77509Y-29207D02*
X77609Y-29207D01*
X77509Y-29287D02*
X77609Y-29287D01*
X77509Y-29367D02*
X77609Y-29367D01*
X77509Y-29447D02*
X77609Y-29447D01*
X77609Y-29508D02*
X77609Y-28987D01*
X77609Y-28887D01*
X77509Y-28887D01*
X77509Y-28987D01*
X77509Y-29472D01*
X77522Y-29472D01*
X77562Y-29488D01*
X77581Y-29484D01*
X77598Y-29503D01*
X77609Y-29508D01*
M02*
