G04 (created by PCBNEW (2013-07-07 BZR 4022)-stable) date 06/12/2014 00:31:43*
%MOIN*%
G04 Gerber Fmt 3.4, Leading zero omitted, Abs format*
%FSLAX34Y34*%
G01*
G70*
G90*
G04 APERTURE LIST*
%ADD10C,0.00590551*%
%ADD11R,0.106299X0.0669291*%
%ADD12R,0.0669291X0.106299*%
%ADD13R,0.0570866X0.023622*%
%ADD14C,0.0944882*%
%ADD15C,0.15748*%
%ADD16R,0.043874X0.043874*%
%ADD17O,0.027874X0.066974*%
%ADD18R,0.027874X0.066974*%
%ADD19R,0.043274X0.035474*%
%ADD20O,0.043274X0.035474*%
%ADD21R,0.042874X0.047874*%
%ADD22R,0.047874X0.042874*%
%ADD23R,0.047274X0.019674*%
%ADD24O,0.047274X0.019674*%
%ADD25O,0.019674X0.047274*%
%ADD26R,0.047274X0.047274*%
%ADD27R,0.027574X0.066974*%
%ADD28R,0.066974X0.066974*%
%ADD29C,0.019674*%
%ADD30R,0.055074X0.019674*%
%ADD31O,0.055074X0.019674*%
%ADD32O,0.019674X0.055074*%
%ADD33R,0.0708661X0.0511811*%
%ADD34C,0.244074*%
%ADD35R,0.0551181X0.0224409*%
%ADD36O,0.0551181X0.0224409*%
%ADD37R,0.0393701X0.0393701*%
%ADD38R,0.082674X0.055074*%
%ADD39R,0.0669291X0.0669291*%
%ADD40C,0.0669291*%
%ADD41R,0.062874X0.052874*%
%ADD42R,0.052874X0.062874*%
%ADD43R,0.055074X0.070874*%
%ADD44R,0.125984X0.125984*%
%ADD45C,0.125984*%
%ADD46R,0.046474X0.052874*%
%ADD47R,0.086574X0.078774*%
%ADD48R,0.0590551X0.0590551*%
%ADD49C,0.0590551*%
G04 APERTURE END LIST*
G54D10*
G54D11*
X79940Y-72893D03*
X79940Y-68838D03*
X78287Y-72893D03*
X78287Y-68838D03*
G54D12*
X77421Y-71732D03*
X77421Y-70000D03*
G54D13*
X78159Y-71377D03*
X78159Y-71122D03*
X78159Y-70866D03*
X78159Y-70610D03*
X78159Y-70354D03*
G54D14*
X76574Y-81102D03*
X76574Y-79527D03*
X76574Y-77952D03*
G54D15*
X76574Y-82775D03*
X76574Y-76279D03*
G54D16*
X75310Y-66069D03*
X74610Y-66069D03*
X74960Y-65269D03*
X72169Y-76371D03*
X72869Y-76371D03*
X72519Y-77171D03*
X65861Y-63549D03*
X65161Y-63549D03*
X65511Y-62749D03*
X68538Y-63549D03*
X67838Y-63549D03*
X68188Y-62749D03*
X71216Y-63549D03*
X70516Y-63549D03*
X70866Y-62749D03*
G54D17*
X77753Y-65514D03*
G54D18*
X77753Y-67714D03*
G54D17*
X78253Y-65514D03*
X78753Y-65514D03*
X79253Y-65514D03*
X78253Y-67714D03*
X78753Y-67714D03*
X79253Y-67714D03*
G54D19*
X71870Y-79074D03*
G54D20*
X71870Y-78562D03*
X71122Y-78562D03*
X71122Y-79074D03*
G54D21*
X72259Y-75787D03*
X72859Y-75787D03*
G54D22*
X74330Y-81402D03*
X74330Y-80802D03*
G54D21*
X64315Y-73543D03*
X63715Y-73543D03*
X75526Y-71929D03*
X76126Y-71929D03*
G54D22*
X63110Y-74148D03*
X63110Y-74748D03*
X63110Y-67898D03*
X63110Y-67298D03*
G54D21*
X65496Y-72913D03*
X64896Y-72913D03*
G54D22*
X74173Y-76314D03*
X74173Y-76914D03*
X73543Y-76914D03*
X73543Y-76314D03*
X72362Y-81402D03*
X72362Y-80802D03*
X71299Y-81402D03*
X71299Y-80802D03*
X66535Y-62849D03*
X66535Y-63449D03*
X64488Y-62849D03*
X64488Y-63449D03*
X69212Y-62849D03*
X69212Y-63449D03*
X69842Y-62849D03*
X69842Y-63449D03*
X67165Y-62849D03*
X67165Y-63449D03*
G54D21*
X67150Y-66377D03*
X66550Y-66377D03*
X67150Y-65748D03*
X66550Y-65748D03*
X67150Y-65118D03*
X66550Y-65118D03*
G54D10*
G36*
X71084Y-67359D02*
X70745Y-67698D01*
X70442Y-67395D01*
X70780Y-67056D01*
X71084Y-67359D01*
X71084Y-67359D01*
G37*
G36*
X70659Y-66935D02*
X70321Y-67274D01*
X70018Y-66970D01*
X70356Y-66632D01*
X70659Y-66935D01*
X70659Y-66935D01*
G37*
G54D22*
X69606Y-77180D03*
X69606Y-77780D03*
G54D21*
X75093Y-74488D03*
X75693Y-74488D03*
X75093Y-75118D03*
X75693Y-75118D03*
G54D22*
X70236Y-77180D03*
X70236Y-77780D03*
G54D23*
X65590Y-70216D03*
G54D24*
X65590Y-70413D03*
X65590Y-70610D03*
X65590Y-70807D03*
X65590Y-71004D03*
X65590Y-71200D03*
X65590Y-71397D03*
X65590Y-71594D03*
X65590Y-71791D03*
X65590Y-71988D03*
G54D25*
X65885Y-72283D03*
X66082Y-72283D03*
X66279Y-72283D03*
X66476Y-72283D03*
X66673Y-72283D03*
X66869Y-72283D03*
X67066Y-72283D03*
X67263Y-72283D03*
X67460Y-72283D03*
X67657Y-72283D03*
G54D24*
X67952Y-71988D03*
X67952Y-71791D03*
X67952Y-71594D03*
X67952Y-71397D03*
X67952Y-71200D03*
X67952Y-71004D03*
X67952Y-70807D03*
X67952Y-70610D03*
X67952Y-70413D03*
X67952Y-70216D03*
G54D25*
X67657Y-69921D03*
X67460Y-69921D03*
X67263Y-69921D03*
X67066Y-69921D03*
X66869Y-69921D03*
X66673Y-69921D03*
X66476Y-69921D03*
X66279Y-69921D03*
X66082Y-69921D03*
X65885Y-69921D03*
G54D26*
X66968Y-71299D03*
X66968Y-70905D03*
X66968Y-70511D03*
X67362Y-70511D03*
X67362Y-70905D03*
X67362Y-71299D03*
X67362Y-71693D03*
X66968Y-71693D03*
X66574Y-70511D03*
X66574Y-70905D03*
X66574Y-71299D03*
X66574Y-71693D03*
X66180Y-70511D03*
X66180Y-70905D03*
X66180Y-71693D03*
X66180Y-71299D03*
G54D27*
X76259Y-62362D03*
X75826Y-62362D03*
X75393Y-62362D03*
X74960Y-62362D03*
X74527Y-62362D03*
X74094Y-62362D03*
X73661Y-62362D03*
X73228Y-62362D03*
G54D28*
X77598Y-60078D03*
X77598Y-63307D03*
X72322Y-60078D03*
X72322Y-63307D03*
G54D10*
G36*
X71817Y-67152D02*
X71956Y-67013D01*
X72345Y-67402D01*
X72206Y-67541D01*
X71817Y-67152D01*
X71817Y-67152D01*
G37*
G54D29*
X71817Y-67290D02*
X72067Y-67541D01*
X71678Y-67430D02*
X71928Y-67680D01*
X71538Y-67569D02*
X71789Y-67819D01*
X71399Y-67708D02*
X71649Y-67959D01*
X71260Y-67848D02*
X71510Y-68098D01*
X71121Y-67987D02*
X71371Y-68237D01*
X70981Y-68126D02*
X71232Y-68376D01*
X70843Y-68263D02*
X71093Y-68514D01*
X70703Y-68403D02*
X70954Y-68653D01*
X70564Y-68542D02*
X70814Y-68792D01*
X70424Y-68680D02*
X70674Y-68931D01*
X70285Y-68821D02*
X70535Y-69072D01*
X70145Y-68961D02*
X70396Y-69211D01*
X70006Y-69100D02*
X70256Y-69350D01*
X69868Y-69238D02*
X70118Y-69489D01*
X69868Y-70602D02*
X70119Y-70352D01*
X70008Y-70742D02*
X70258Y-70491D01*
X70147Y-70881D02*
X70397Y-70631D01*
X70285Y-71020D02*
X70536Y-70769D01*
X70425Y-71159D02*
X70675Y-70909D01*
X70564Y-71298D02*
X70814Y-71048D01*
X70703Y-71437D02*
X70953Y-71186D01*
X70842Y-71576D02*
X71092Y-71326D01*
X73070Y-72441D02*
X73320Y-72691D01*
X73209Y-72302D02*
X73460Y-72552D01*
X73349Y-72162D02*
X73599Y-72413D01*
X73488Y-72023D02*
X73738Y-72273D01*
X70981Y-71716D02*
X71231Y-71466D01*
X71120Y-71855D02*
X71370Y-71605D01*
X71259Y-71995D02*
X71509Y-71744D01*
X71398Y-72134D02*
X71649Y-71884D01*
X71538Y-72273D02*
X71788Y-72023D01*
X71677Y-72413D02*
X71927Y-72162D01*
X71816Y-72552D02*
X72067Y-72302D01*
X71955Y-72690D02*
X72205Y-72440D01*
X73626Y-71884D02*
X73876Y-72134D01*
X73765Y-71744D02*
X74015Y-71995D01*
X73904Y-71605D02*
X74155Y-71855D01*
X74044Y-71466D02*
X74294Y-71716D01*
X74182Y-71327D02*
X74433Y-71578D01*
X74322Y-71188D02*
X74572Y-71438D01*
X74461Y-71049D02*
X74711Y-71299D01*
X74600Y-70909D02*
X74851Y-71160D01*
X74740Y-70770D02*
X74990Y-71020D01*
X74879Y-70631D02*
X75129Y-70881D01*
X75018Y-70491D02*
X75268Y-70742D01*
X75157Y-70353D02*
X75407Y-70603D01*
X75157Y-69489D02*
X75407Y-69238D01*
X75018Y-69350D02*
X75268Y-69100D01*
X74879Y-69211D02*
X75129Y-68961D01*
X74740Y-69072D02*
X74990Y-68821D01*
X74600Y-68932D02*
X74851Y-68682D01*
X74461Y-68793D02*
X74711Y-68543D01*
X74322Y-68654D02*
X74572Y-68403D01*
X74182Y-68514D02*
X74433Y-68264D01*
X74044Y-68376D02*
X74294Y-68125D01*
X73904Y-68236D02*
X74155Y-67986D01*
X73765Y-68097D02*
X74015Y-67847D01*
X73626Y-67958D02*
X73876Y-67708D01*
X73487Y-67819D02*
X73737Y-67568D01*
X73347Y-67679D02*
X73598Y-67429D01*
X73208Y-67540D02*
X73458Y-67290D01*
X73069Y-67401D02*
X73320Y-67151D01*
G54D30*
X65177Y-78523D03*
G54D31*
X65177Y-78719D03*
X65177Y-78916D03*
X65177Y-79113D03*
X65177Y-79310D03*
X65177Y-79507D03*
X65177Y-79704D03*
X65177Y-79901D03*
X65177Y-80097D03*
X65177Y-80294D03*
X65177Y-80491D03*
X65176Y-80688D03*
G54D32*
X65769Y-81279D03*
X65965Y-81279D03*
X66162Y-81279D03*
X66359Y-81279D03*
X66556Y-81279D03*
X66753Y-81279D03*
X66950Y-81279D03*
X67146Y-81279D03*
X67343Y-81279D03*
X67540Y-81279D03*
X67736Y-81279D03*
X67933Y-81279D03*
G54D31*
X68524Y-80689D03*
X68524Y-80492D03*
X68524Y-80295D03*
X68524Y-80098D03*
X68524Y-79901D03*
X68524Y-79704D03*
X68524Y-79507D03*
X68524Y-79311D03*
X68524Y-79114D03*
X68524Y-78917D03*
X68524Y-78720D03*
X68524Y-78523D03*
G54D32*
X67933Y-77933D03*
X67736Y-77933D03*
X67539Y-77933D03*
X67342Y-77933D03*
X67145Y-77933D03*
X66948Y-77933D03*
X66752Y-77933D03*
X66555Y-77933D03*
X66358Y-77933D03*
X66161Y-77933D03*
X65964Y-77933D03*
X65767Y-77933D03*
G54D33*
X63818Y-66377D03*
X63818Y-65748D03*
X63818Y-65118D03*
X65787Y-66377D03*
X65787Y-65748D03*
X65787Y-65118D03*
G54D10*
G36*
X63049Y-69844D02*
X63388Y-69506D01*
X63691Y-69809D01*
X63352Y-70148D01*
X63049Y-69844D01*
X63049Y-69844D01*
G37*
G36*
X63473Y-70269D02*
X63812Y-69930D01*
X64115Y-70233D01*
X63777Y-70572D01*
X63473Y-70269D01*
X63473Y-70269D01*
G37*
G36*
X63777Y-71474D02*
X64115Y-71813D01*
X63812Y-72116D01*
X63473Y-71778D01*
X63777Y-71474D01*
X63777Y-71474D01*
G37*
G36*
X63352Y-71899D02*
X63691Y-72237D01*
X63388Y-72540D01*
X63049Y-72202D01*
X63352Y-71899D01*
X63352Y-71899D01*
G37*
G54D34*
X40078Y-60787D03*
X40078Y-81338D03*
X79370Y-82283D03*
X79370Y-59842D03*
G54D35*
X76614Y-73946D03*
G54D36*
X76614Y-74202D03*
X76614Y-74458D03*
X76614Y-74714D03*
X77952Y-74714D03*
X77952Y-74458D03*
X77952Y-74202D03*
X77952Y-73946D03*
G54D37*
X77440Y-73858D03*
X77440Y-74173D03*
X77440Y-74488D03*
X77440Y-74803D03*
X77125Y-73858D03*
X77125Y-74173D03*
X77125Y-74488D03*
X77125Y-74803D03*
G54D38*
X66279Y-74291D03*
X67735Y-74291D03*
X67735Y-73425D03*
X66279Y-73425D03*
G54D10*
G36*
X70069Y-64636D02*
X70459Y-65026D01*
X69874Y-65610D01*
X69485Y-65221D01*
X70069Y-64636D01*
X70069Y-64636D01*
G37*
G36*
X69040Y-65666D02*
X69429Y-66055D01*
X68845Y-66640D01*
X68455Y-66251D01*
X69040Y-65666D01*
X69040Y-65666D01*
G37*
G36*
X69652Y-66278D02*
X70042Y-66668D01*
X69457Y-67252D01*
X69068Y-66863D01*
X69652Y-66278D01*
X69652Y-66278D01*
G37*
G36*
X70682Y-65249D02*
X71071Y-65638D01*
X70487Y-66223D01*
X70097Y-65833D01*
X70682Y-65249D01*
X70682Y-65249D01*
G37*
G54D39*
X80118Y-61885D03*
G54D40*
X80118Y-62885D03*
X80118Y-63885D03*
X80118Y-64885D03*
G54D39*
X69842Y-82838D03*
G54D40*
X69842Y-81838D03*
X69842Y-80838D03*
X69842Y-79838D03*
G54D39*
X78740Y-61795D03*
G54D40*
X78740Y-62795D03*
X78740Y-63795D03*
G54D39*
X80118Y-74988D03*
G54D40*
X80118Y-73988D03*
G54D39*
X71334Y-82125D03*
G54D40*
X72334Y-82125D03*
X73334Y-82125D03*
X74334Y-82125D03*
G54D41*
X65118Y-68982D03*
X65118Y-68182D03*
X68661Y-76856D03*
X68661Y-76056D03*
G54D42*
X72368Y-74803D03*
X71568Y-74803D03*
G54D41*
X67952Y-82434D03*
X67952Y-83234D03*
G54D10*
G36*
X70021Y-68304D02*
X69682Y-68643D01*
X69379Y-68340D01*
X69717Y-68001D01*
X70021Y-68304D01*
X70021Y-68304D01*
G37*
G36*
X69596Y-67880D02*
X69258Y-68218D01*
X68955Y-67915D01*
X69293Y-67577D01*
X69596Y-67880D01*
X69596Y-67880D01*
G37*
G36*
X69548Y-68777D02*
X69210Y-69115D01*
X68907Y-68812D01*
X69245Y-68473D01*
X69548Y-68777D01*
X69548Y-68777D01*
G37*
G36*
X69124Y-68352D02*
X68785Y-68691D01*
X68482Y-68388D01*
X68821Y-68049D01*
X69124Y-68352D01*
X69124Y-68352D01*
G37*
G54D22*
X66929Y-82377D03*
X66929Y-82977D03*
G54D10*
G36*
X73404Y-66734D02*
X73742Y-66396D01*
X74045Y-66699D01*
X73707Y-67037D01*
X73404Y-66734D01*
X73404Y-66734D01*
G37*
G36*
X73828Y-67158D02*
X74166Y-66820D01*
X74469Y-67123D01*
X74131Y-67462D01*
X73828Y-67158D01*
X73828Y-67158D01*
G37*
G54D22*
X64094Y-79591D03*
X64094Y-78991D03*
G54D10*
G36*
X70060Y-71611D02*
X69722Y-71950D01*
X69418Y-71647D01*
X69757Y-71308D01*
X70060Y-71611D01*
X70060Y-71611D01*
G37*
G36*
X69636Y-71187D02*
X69297Y-71526D01*
X68994Y-71222D01*
X69333Y-70884D01*
X69636Y-71187D01*
X69636Y-71187D01*
G37*
G54D22*
X78897Y-74630D03*
X78897Y-74030D03*
G54D21*
X73912Y-75118D03*
X74512Y-75118D03*
X73912Y-74488D03*
X74512Y-74488D03*
X75093Y-73858D03*
X75693Y-73858D03*
G54D22*
X65826Y-76914D03*
X65826Y-76314D03*
G54D10*
G36*
X71950Y-66493D02*
X71611Y-66832D01*
X71308Y-66529D01*
X71647Y-66190D01*
X71950Y-66493D01*
X71950Y-66493D01*
G37*
G36*
X71526Y-66069D02*
X71187Y-66407D01*
X70884Y-66104D01*
X71222Y-65766D01*
X71526Y-66069D01*
X71526Y-66069D01*
G37*
G54D22*
X65984Y-82377D03*
X65984Y-82977D03*
X76968Y-66392D03*
X76968Y-66992D03*
X66456Y-76914D03*
X66456Y-76314D03*
X72165Y-73518D03*
X72165Y-74118D03*
X67086Y-76914D03*
X67086Y-76314D03*
X67952Y-76914D03*
X67952Y-76314D03*
G54D21*
X63715Y-69015D03*
X64315Y-69015D03*
G54D10*
G36*
X70293Y-64687D02*
X70632Y-64348D01*
X70935Y-64652D01*
X70596Y-64990D01*
X70293Y-64687D01*
X70293Y-64687D01*
G37*
G36*
X70718Y-65111D02*
X71056Y-64773D01*
X71359Y-65076D01*
X71021Y-65414D01*
X70718Y-65111D01*
X70718Y-65111D01*
G37*
G36*
X69194Y-67202D02*
X68855Y-67540D01*
X68552Y-67237D01*
X68891Y-66899D01*
X69194Y-67202D01*
X69194Y-67202D01*
G37*
G36*
X68770Y-66778D02*
X68431Y-67116D01*
X68128Y-66813D01*
X68466Y-66474D01*
X68770Y-66778D01*
X68770Y-66778D01*
G37*
G54D22*
X69606Y-75999D03*
X69606Y-76599D03*
X70236Y-75999D03*
X70236Y-76599D03*
G54D21*
X71874Y-79842D03*
X71274Y-79842D03*
X71274Y-77795D03*
X71874Y-77795D03*
X65496Y-73543D03*
X64896Y-73543D03*
G54D22*
X76062Y-70142D03*
X76062Y-69542D03*
X71535Y-73518D03*
X71535Y-74118D03*
G54D21*
X64315Y-74173D03*
X63715Y-74173D03*
X63715Y-67874D03*
X64315Y-67874D03*
G54D22*
X63110Y-73567D03*
X63110Y-72967D03*
X63110Y-68479D03*
X63110Y-69079D03*
G54D21*
X64315Y-72913D03*
X63715Y-72913D03*
X74866Y-64724D03*
X74266Y-64724D03*
X67337Y-74960D03*
X67937Y-74960D03*
X66756Y-74960D03*
X66156Y-74960D03*
G54D22*
X65826Y-69040D03*
X65826Y-68440D03*
X66456Y-69040D03*
X66456Y-68440D03*
G54D21*
X65496Y-74173D03*
X64896Y-74173D03*
G54D22*
X76692Y-70536D03*
X76692Y-69936D03*
G54D21*
X64512Y-71023D03*
X63912Y-71023D03*
G54D43*
X68527Y-61992D03*
X66747Y-61992D03*
X68527Y-58952D03*
X66747Y-58952D03*
X67637Y-61988D03*
X65614Y-61992D03*
X63834Y-61992D03*
X65614Y-58952D03*
X63834Y-58952D03*
X64724Y-61988D03*
G54D44*
X79448Y-77952D03*
G54D45*
X79448Y-79763D03*
G54D46*
X73311Y-78188D03*
X73775Y-78188D03*
X73775Y-79527D03*
X73311Y-79527D03*
G54D47*
X72793Y-79527D03*
X74293Y-79527D03*
X72793Y-78188D03*
X74293Y-78188D03*
G54D22*
X63858Y-62849D03*
X63858Y-63449D03*
G54D48*
X59763Y-67086D03*
G54D49*
X59763Y-67874D03*
X59763Y-68661D03*
X59763Y-69448D03*
G54D48*
X48818Y-73858D03*
G54D49*
X48818Y-74645D03*
X48818Y-75433D03*
X48818Y-76220D03*
G54D48*
X59763Y-62598D03*
G54D49*
X59763Y-63385D03*
X59763Y-64173D03*
X59763Y-64960D03*
G54D48*
X48818Y-65984D03*
G54D49*
X48818Y-66771D03*
X48818Y-67559D03*
X48818Y-68346D03*
G54D43*
X71441Y-61992D03*
X69661Y-61992D03*
X71441Y-58952D03*
X69661Y-58952D03*
X70551Y-61988D03*
M02*
