G04 (created by PCBNEW (2013-07-07 BZR 4022)-stable) date 06/12/2014 00:31:43*
%MOIN*%
G04 Gerber Fmt 3.4, Leading zero omitted, Abs format*
%FSLAX34Y34*%
G01*
G70*
G90*
G04 APERTURE LIST*
%ADD10C,0.00590551*%
G04 APERTURE END LIST*
G54D10*
X61614Y-75787D02*
X61614Y-70472D01*
X55905Y-75787D02*
X61614Y-75787D01*
X55905Y-72047D02*
X55905Y-75787D01*
X57677Y-70472D02*
X55905Y-72047D01*
X61614Y-70472D02*
X57677Y-70472D01*
X55905Y-69488D02*
X55905Y-65944D01*
X58858Y-67519D02*
X55905Y-69488D01*
X58858Y-64763D02*
X58858Y-67519D01*
X55905Y-65944D02*
X58858Y-64763D01*
X58858Y-60039D02*
X58858Y-61811D01*
X55708Y-60039D02*
X58858Y-60039D01*
X55708Y-64566D02*
X55708Y-60039D01*
X58858Y-62992D02*
X55708Y-64566D01*
X58858Y-61811D02*
X58858Y-62992D01*
X50393Y-76968D02*
X50393Y-75787D01*
X47244Y-76968D02*
X50393Y-76968D01*
X47244Y-75393D02*
X47244Y-76968D01*
X45275Y-75393D02*
X47244Y-75393D01*
X45275Y-78740D02*
X45275Y-75393D01*
X51574Y-78740D02*
X45275Y-78740D01*
X51574Y-75787D02*
X51574Y-78740D01*
X50393Y-75787D02*
X51574Y-75787D01*
X50393Y-73031D02*
X50393Y-74409D01*
X48031Y-73031D02*
X50393Y-73031D01*
X48031Y-73818D02*
X48031Y-73031D01*
X47047Y-73818D02*
X48031Y-73818D01*
X47047Y-71653D02*
X47047Y-73818D01*
X47244Y-71259D02*
X47047Y-71653D01*
X51574Y-71259D02*
X47244Y-71259D01*
X51574Y-74409D02*
X51574Y-71259D01*
X50393Y-74409D02*
X51574Y-74409D01*
X45275Y-74606D02*
X45275Y-67716D01*
X46456Y-74606D02*
X45275Y-74606D01*
X46456Y-67716D02*
X46456Y-74606D01*
X45275Y-67716D02*
X46456Y-67716D01*
X50393Y-69094D02*
X50393Y-67913D01*
X47637Y-69094D02*
X50393Y-69094D01*
X47637Y-68307D02*
X47637Y-69094D01*
X47047Y-68307D02*
X47637Y-68307D01*
X47047Y-70078D02*
X47047Y-68307D01*
X51771Y-70078D02*
X47047Y-70078D01*
X51771Y-67913D02*
X51771Y-70078D01*
X50393Y-67913D02*
X51771Y-67913D01*
X50393Y-66338D02*
X50393Y-66141D01*
X51771Y-66338D02*
X50393Y-66338D01*
X51771Y-66141D02*
X51771Y-66338D01*
X51771Y-62992D02*
X51771Y-66141D01*
X45275Y-62992D02*
X51771Y-62992D01*
X45275Y-66732D02*
X45275Y-62992D01*
X47244Y-66732D02*
X45275Y-66732D01*
X47244Y-65157D02*
X47244Y-66732D01*
X50393Y-65157D02*
X47244Y-65157D01*
X50393Y-66141D02*
X50393Y-65157D01*
X37795Y-58464D02*
X80708Y-58464D01*
X37795Y-83661D02*
X37795Y-58464D01*
X80708Y-83661D02*
X37795Y-83661D01*
X80708Y-72401D02*
X80708Y-83661D01*
X78503Y-72401D02*
X80708Y-72401D01*
X78503Y-69330D02*
X78503Y-72401D01*
X80708Y-69330D02*
X78503Y-69330D01*
X80708Y-58464D02*
X80708Y-69330D01*
M02*
