M48
;DRILL file {Pcbnew (2013-07-07 BZR 4022)-stable} date 06/12/2014 00:31:53
;FORMAT={-:-/ absolute / metric / decimal}
FMAT,2
METRIC,TZ
T1C0.399
T2C0.400
T3C0.800
T4C0.900
T5C1.200
T6C1.500
T7C2.200
T8C3.500
%
G90
G05
M71
T1
X168.099Y-179.099
X168.099Y-180.1
X168.099Y-181.1
X168.099Y-182.101
X169.1Y-179.099
X169.1Y-180.1
X169.1Y-181.1
X169.1Y-182.101
X170.1Y-179.099
X170.1Y-180.1
X170.1Y-181.1
X170.1Y-182.101
X171.101Y-179.099
X171.101Y-180.1
X171.101Y-181.1
X171.101Y-182.101
T2
X96.751Y-184.881
X97.604Y-174.225
X127.966Y-189.65
X129.767Y-189.65
X134.115Y-168.642
X139.666Y-183.489
X158.Y-177.4
X159.2Y-183.4
X161.284Y-162.112
X161.29Y-180.155
X162.Y-210.6
X162.063Y-176.701
X162.4Y-170.6
X162.4Y-196.8
X163.025Y-156.058
X163.14Y-184.081
X163.2Y-207.8
X163.4Y-192.4
X163.489Y-165.675
X163.865Y-203.004
X164.225Y-164.268
X164.6Y-170.6
X164.616Y-189.519
X164.8Y-168.
X165.373Y-181.954
X165.433Y-180.357
X165.601Y-164.664
X165.823Y-176.376
X166.Y-191.8
X166.081Y-195.584
X166.395Y-162.363
X166.756Y-208.218
X166.882Y-164.2
X167.6Y-171.4
X167.769Y-200.388
X167.777Y-160.309
X167.843Y-185.26
X167.91Y-163.107
X167.911Y-176.456
X168.35Y-158.545
X168.4Y-192.2
X168.468Y-153.339
X168.553Y-202.235
X168.918Y-200.044
X169.055Y-203.337
X169.118Y-164.223
X169.789Y-205.206
X170.041Y-175.964
X170.519Y-184.787
X170.674Y-199.19
X171.Y-162.6
X171.157Y-209.203
X171.5Y-195.186
X171.8Y-171.8
X171.815Y-168.082
X172.2Y-174.4
X172.245Y-169.895
X172.618Y-162.506
X172.686Y-205.092
X172.693Y-200.689
X172.694Y-176.901
X172.803Y-202.97
X172.806Y-201.869
X173.Y-164.6
X173.052Y-196.773
X173.065Y-192.745
X173.103Y-168.363
X173.422Y-187.606
X173.491Y-177.747
X173.757Y-179.463
X173.8Y-184.8
X173.814Y-182.6
X174.095Y-153.133
X174.231Y-160.324
X174.304Y-178.501
X174.335Y-174.865
X175.Y-187.6
X175.Y-210.6
X175.2Y-191.
X175.351Y-175.897
X175.4Y-164.
X175.619Y-202.201
X176.343Y-186.623
X176.575Y-177.691
X176.65Y-198.656
X177.494Y-170.529
X177.75Y-198.641
X177.959Y-156.165
X178.305Y-171.958
X178.354Y-162.45
X178.531Y-181.5
X178.57Y-183.397
X178.659Y-191.984
X179.021Y-200.677
X179.193Y-178.666
X179.293Y-182.31
X179.422Y-184.241
X180.015Y-179.501
X180.595Y-189.647
X181.006Y-183.977
X181.031Y-160.324
X181.26Y-196.481
X181.315Y-163.687
X181.4Y-211.4
X181.412Y-152.856
X181.417Y-185.512
X181.524Y-174.915
X181.648Y-170.26
X182.386Y-180.708
X182.394Y-177.66
X182.46Y-196.45
X182.504Y-175.421
X182.511Y-181.805
X182.927Y-162.201
X183.112Y-178.494
X183.41Y-176.047
X183.424Y-179.624
X184.4Y-165.4
X184.43Y-186.589
X184.892Y-181.246
X185.231Y-187.702
X185.741Y-182.628
X185.988Y-186.9
X186.368Y-191.105
X186.373Y-180.724
X186.4Y-211.6
X186.42Y-174.537
X186.497Y-181.827
X186.55Y-175.63
X186.63Y-190.026
X186.753Y-179.04
X186.757Y-173.488
X186.783Y-185.22
X186.868Y-177.591
X187.588Y-166.429
X187.842Y-185.556
X188.065Y-184.421
X188.224Y-180.242
X188.282Y-178.095
X188.284Y-168.753
X188.549Y-165.893
X188.561Y-203.551
X188.565Y-183.437
X189.4Y-162.919
X189.881Y-171.549
X190.439Y-177.165
X190.612Y-173.822
X190.757Y-193.88
X190.79Y-172.201
X191.462Y-171.234
X191.527Y-191.999
X191.952Y-170.14
X192.Y-206.6
X192.042Y-177.106
X192.597Y-183.889
X192.942Y-179.207
X193.547Y-187.174
X194.372Y-169.295
X194.451Y-174.075
X195.124Y-172.532
X195.311Y-181.225
X195.4Y-165.2
X195.523Y-184.342
X195.9Y-187.6
X195.9Y-188.4
X195.9Y-189.2
X195.9Y-190.
X196.175Y-175.961
X196.624Y-170.376
X196.7Y-187.6
X196.7Y-188.4
X196.7Y-189.2
X196.7Y-190.
X196.8Y-204.
X197.4Y-200.6
X197.714Y-168.679
X197.879Y-165.091
X199.475Y-167.612
X200.6Y-194.4
X200.67Y-165.266
X200.742Y-185.529
X201.519Y-189.785
X201.529Y-187.817
X203.4Y-169.4
T3
X124.Y-167.6
X124.Y-169.6
X124.Y-171.6
X124.Y-173.6
X124.Y-187.6
X124.Y-189.6
X124.Y-191.6
X124.Y-193.6
X151.8Y-159.
X151.8Y-161.
X151.8Y-163.
X151.8Y-165.
X151.8Y-170.4
X151.8Y-172.4
X151.8Y-174.4
X151.8Y-176.4
T4
X177.4Y-202.79
X177.4Y-205.33
X177.4Y-207.87
X177.4Y-210.41
X181.19Y-208.6
X183.73Y-208.6
X186.27Y-208.6
X188.81Y-208.6
X200.Y-156.96
X200.Y-159.5
X200.Y-162.04
X203.5Y-157.19
X203.5Y-159.73
X203.5Y-162.27
X203.5Y-164.81
X203.5Y-187.93
X203.5Y-190.47
T5
X194.5Y-198.
X194.5Y-202.
X194.5Y-206.
T6
X201.8Y-198.
X201.8Y-202.6
T7
X194.5Y-193.75
X194.5Y-210.25
T8
X101.8Y-154.4
X101.8Y-206.6
X201.6Y-152.
X201.6Y-209.
T0
M30
