G04 (created by PCBNEW-RS274X (2010-02-09)-RC2) date 22/07/2010 15:29:40*
G01*
G70*
G90*
%MOIN*%
G04 Gerber Fmt 3.4, Leading zero omitted, Abs format*
%FSLAX34Y34*%
G04 APERTURE LIST*
%ADD10C,0.001000*%
%ADD11C,0.015000*%
%ADD12R,0.055000X0.055000*%
%ADD13C,0.055000*%
%ADD14R,0.122000X0.122000*%
%ADD15O,0.055000X0.055000*%
%ADD16C,0.060000*%
%ADD17C,0.157500*%
%ADD18C,0.039400*%
%ADD19C,0.035000*%
%ADD20C,0.008000*%
%ADD21C,0.010000*%
G04 APERTURE END LIST*
G54D10*
G54D11*
X67000Y-26000D02*
X67000Y-33500D01*
X86000Y-26000D02*
X67000Y-26000D01*
X86000Y-33500D02*
X86000Y-26000D01*
X67000Y-33500D02*
X86000Y-33500D01*
G54D12*
X83728Y-27955D03*
G54D13*
X84728Y-27955D03*
X83728Y-28955D03*
X84728Y-28955D03*
X83728Y-29955D03*
X84728Y-29955D03*
G54D12*
X69500Y-29000D03*
G54D13*
X69500Y-30000D03*
G54D14*
X77559Y-28937D03*
G54D15*
X69500Y-27000D03*
G54D12*
X70296Y-32634D03*
G54D16*
X71296Y-32634D03*
X72296Y-32634D03*
X73296Y-32634D03*
X74296Y-32634D03*
X75296Y-32634D03*
X76296Y-32634D03*
X77296Y-32634D03*
X78296Y-32634D03*
X79296Y-32634D03*
X80296Y-32634D03*
X81296Y-32634D03*
X82296Y-32634D03*
X83296Y-32634D03*
X84296Y-32634D03*
X85296Y-32634D03*
G54D17*
X68130Y-32634D03*
G54D18*
X75795Y-28839D03*
G54D19*
X85200Y-26700D03*
X82000Y-30200D03*
X79300Y-29000D03*
X73000Y-29400D03*
X67900Y-31000D03*
X67800Y-26800D03*
X73100Y-31500D03*
X74900Y-29500D03*
G54D18*
X80031Y-30748D03*
X75185Y-27780D03*
X78197Y-30634D03*
X74209Y-28630D03*
X78610Y-27157D03*
G54D20*
X76851Y-28090D02*
X75795Y-28839D01*
X77047Y-28090D02*
X76851Y-28090D01*
X78267Y-28090D02*
X77047Y-28090D01*
X83728Y-29955D02*
X78267Y-28090D01*
X78267Y-29310D02*
X80031Y-30748D01*
X78169Y-29310D02*
X78267Y-29310D01*
X78129Y-29310D02*
X78169Y-29310D01*
X77559Y-28937D02*
X78129Y-29310D01*
X74029Y-28196D02*
X69500Y-30000D01*
X75185Y-27780D02*
X74029Y-28196D01*
X83942Y-30465D02*
X84728Y-29955D01*
X83936Y-30467D02*
X83942Y-30465D01*
X80031Y-30748D02*
X83936Y-30467D01*
X69265Y-29038D02*
X69500Y-29000D01*
X69225Y-29038D02*
X69265Y-29038D01*
X69127Y-29038D02*
X69225Y-29038D01*
X68988Y-29177D02*
X69127Y-29038D01*
X68988Y-29373D02*
X68988Y-29177D01*
X68988Y-30209D02*
X68988Y-29373D01*
X68991Y-30214D02*
X68988Y-30209D01*
X71296Y-32634D02*
X68991Y-30214D01*
X84101Y-27444D02*
X84728Y-27955D01*
X78610Y-27157D02*
X84101Y-27444D01*
X75362Y-28659D02*
X75299Y-28776D01*
X75616Y-28405D02*
X75362Y-28659D01*
X76734Y-27816D02*
X75616Y-28405D01*
X76740Y-27813D02*
X76734Y-27816D01*
X78610Y-27157D02*
X76740Y-27813D01*
X75362Y-29018D02*
X75299Y-28776D01*
X75616Y-29272D02*
X75362Y-29018D01*
X78197Y-30634D02*
X75616Y-29272D01*
X75299Y-28776D02*
X74209Y-28630D01*
G54D21*
X67275Y-26275D02*
X85725Y-26275D01*
X67275Y-26355D02*
X85725Y-26355D01*
X67275Y-26435D02*
X85725Y-26435D01*
X67275Y-26515D02*
X69316Y-26515D01*
X69685Y-26515D02*
X85725Y-26515D01*
X67275Y-26595D02*
X69167Y-26595D01*
X69833Y-26595D02*
X85725Y-26595D01*
X67275Y-26675D02*
X69087Y-26675D01*
X69913Y-26675D02*
X85725Y-26675D01*
X67275Y-26755D02*
X69035Y-26755D01*
X69966Y-26755D02*
X78416Y-26755D01*
X78806Y-26755D02*
X85725Y-26755D01*
X67275Y-26835D02*
X69001Y-26835D01*
X69999Y-26835D02*
X78302Y-26835D01*
X78919Y-26835D02*
X85725Y-26835D01*
X67275Y-26915D02*
X68975Y-26915D01*
X70025Y-26915D02*
X78228Y-26915D01*
X79557Y-26915D02*
X85725Y-26915D01*
X67275Y-26995D02*
X68975Y-26995D01*
X70025Y-26995D02*
X78194Y-26995D01*
X81077Y-26995D02*
X85725Y-26995D01*
X67275Y-27075D02*
X68975Y-27075D01*
X70025Y-27075D02*
X77971Y-27075D01*
X82597Y-27075D02*
X85725Y-27075D01*
X67275Y-27155D02*
X68996Y-27155D01*
X70003Y-27155D02*
X77742Y-27155D01*
X84116Y-27155D02*
X85725Y-27155D01*
X67275Y-27235D02*
X69029Y-27235D01*
X69969Y-27235D02*
X77513Y-27235D01*
X84304Y-27235D02*
X85725Y-27235D01*
X67275Y-27315D02*
X69077Y-27315D01*
X69923Y-27315D02*
X77285Y-27315D01*
X84402Y-27315D02*
X85725Y-27315D01*
X67275Y-27395D02*
X69157Y-27395D01*
X69843Y-27395D02*
X77056Y-27395D01*
X84500Y-27395D02*
X85725Y-27395D01*
X67275Y-27475D02*
X69291Y-27475D01*
X69708Y-27475D02*
X76827Y-27475D01*
X84942Y-27475D02*
X85725Y-27475D01*
X67275Y-27555D02*
X76608Y-27555D01*
X85071Y-27555D02*
X85725Y-27555D01*
X67275Y-27635D02*
X76454Y-27635D01*
X85151Y-27635D02*
X85725Y-27635D01*
X67275Y-27715D02*
X76303Y-27715D01*
X85197Y-27715D02*
X85725Y-27715D01*
X67275Y-27795D02*
X76151Y-27795D01*
X85230Y-27795D02*
X85725Y-27795D01*
X67275Y-27875D02*
X75999Y-27875D01*
X85253Y-27875D02*
X85725Y-27875D01*
X67275Y-27955D02*
X75848Y-27955D01*
X85253Y-27955D02*
X85725Y-27955D01*
X67275Y-28035D02*
X75696Y-28035D01*
X85253Y-28035D02*
X85725Y-28035D01*
X67275Y-28115D02*
X75544Y-28115D01*
X85230Y-28115D02*
X85725Y-28115D01*
X67275Y-28195D02*
X74095Y-28195D01*
X74325Y-28195D02*
X75419Y-28195D01*
X85197Y-28195D02*
X85725Y-28195D01*
X67275Y-28275D02*
X73934Y-28275D01*
X74485Y-28275D02*
X75336Y-28275D01*
X85150Y-28275D02*
X85725Y-28275D01*
X67275Y-28355D02*
X73854Y-28355D01*
X74565Y-28355D02*
X75256Y-28355D01*
X85070Y-28355D02*
X85725Y-28355D01*
X67275Y-28435D02*
X73807Y-28435D01*
X74942Y-28435D02*
X75176Y-28435D01*
X84938Y-28435D02*
X85725Y-28435D01*
X67275Y-28515D02*
X69083Y-28515D01*
X69917Y-28515D02*
X73774Y-28515D01*
X78419Y-28515D02*
X78613Y-28515D01*
X85031Y-28515D02*
X85725Y-28515D01*
X67275Y-28595D02*
X69010Y-28595D01*
X69991Y-28595D02*
X73763Y-28595D01*
X76639Y-28595D02*
X76699Y-28595D01*
X78419Y-28595D02*
X78847Y-28595D01*
X85111Y-28595D02*
X85725Y-28595D01*
X67275Y-28675D02*
X68976Y-28675D01*
X70024Y-28675D02*
X73763Y-28675D01*
X76527Y-28675D02*
X76699Y-28675D01*
X78419Y-28675D02*
X79081Y-28675D01*
X85181Y-28675D02*
X85725Y-28675D01*
X67275Y-28755D02*
X68976Y-28755D01*
X70024Y-28755D02*
X73778Y-28755D01*
X76415Y-28755D02*
X76699Y-28755D01*
X78419Y-28755D02*
X79315Y-28755D01*
X85214Y-28755D02*
X85725Y-28755D01*
X67275Y-28835D02*
X68920Y-28835D01*
X70024Y-28835D02*
X73811Y-28835D01*
X76302Y-28835D02*
X76709Y-28835D01*
X78409Y-28835D02*
X79548Y-28835D01*
X85247Y-28835D02*
X85725Y-28835D01*
X67275Y-28915D02*
X68840Y-28915D01*
X70024Y-28915D02*
X73863Y-28915D01*
X76241Y-28915D02*
X79782Y-28915D01*
X85253Y-28915D02*
X85725Y-28915D01*
X67275Y-28995D02*
X68768Y-28995D01*
X70024Y-28995D02*
X73943Y-28995D01*
X74474Y-28995D02*
X74752Y-28995D01*
X76213Y-28995D02*
X76753Y-28995D01*
X77509Y-28995D02*
X77609Y-28995D01*
X78365Y-28995D02*
X80016Y-28995D01*
X85253Y-28995D02*
X85725Y-28995D01*
X67275Y-29075D02*
X68719Y-29075D01*
X70024Y-29075D02*
X74117Y-29075D01*
X74299Y-29075D02*
X75076Y-29075D01*
X76180Y-29075D02*
X76699Y-29075D01*
X77509Y-29075D02*
X77609Y-29075D01*
X78418Y-29075D02*
X80250Y-29075D01*
X85246Y-29075D02*
X85725Y-29075D01*
X67275Y-29155D02*
X68703Y-29155D01*
X70024Y-29155D02*
X75110Y-29155D01*
X76109Y-29155D02*
X76699Y-29155D01*
X77509Y-29155D02*
X77609Y-29155D01*
X78418Y-29155D02*
X80483Y-29155D01*
X84213Y-29155D02*
X84242Y-29155D01*
X85213Y-29155D02*
X85725Y-29155D01*
X67275Y-29235D02*
X68698Y-29235D01*
X70024Y-29235D02*
X75169Y-29235D01*
X76169Y-29235D02*
X76699Y-29235D01*
X77509Y-29235D02*
X77609Y-29235D01*
X78418Y-29235D02*
X80717Y-29235D01*
X84180Y-29235D02*
X84275Y-29235D01*
X85180Y-29235D02*
X85725Y-29235D01*
X67275Y-29315D02*
X68698Y-29315D01*
X70024Y-29315D02*
X75249Y-29315D01*
X76321Y-29315D02*
X76699Y-29315D01*
X77509Y-29315D02*
X77609Y-29315D01*
X78418Y-29315D02*
X80951Y-29315D01*
X84110Y-29315D02*
X84345Y-29315D01*
X85110Y-29315D02*
X85725Y-29315D01*
X67275Y-29395D02*
X68698Y-29395D01*
X69994Y-29395D02*
X75329Y-29395D01*
X76473Y-29395D02*
X76699Y-29395D01*
X77509Y-29395D02*
X77609Y-29395D01*
X78418Y-29395D02*
X81185Y-29395D01*
X84030Y-29395D02*
X84425Y-29395D01*
X85030Y-29395D02*
X85725Y-29395D01*
X67275Y-29475D02*
X68698Y-29475D01*
X69927Y-29475D02*
X75409Y-29475D01*
X76625Y-29475D02*
X76699Y-29475D01*
X77509Y-29475D02*
X77609Y-29475D01*
X78418Y-29475D02*
X81418Y-29475D01*
X83943Y-29475D02*
X84529Y-29475D01*
X84916Y-29475D02*
X85725Y-29475D01*
X67275Y-29555D02*
X68698Y-29555D01*
X69769Y-29555D02*
X75530Y-29555D01*
X77509Y-29555D02*
X77609Y-29555D01*
X78418Y-29555D02*
X81652Y-29555D01*
X84071Y-29555D02*
X84448Y-29555D01*
X85009Y-29555D02*
X85725Y-29555D01*
X67275Y-29635D02*
X68698Y-29635D01*
X69789Y-29635D02*
X75682Y-29635D01*
X77509Y-29635D02*
X77609Y-29635D01*
X78402Y-29635D02*
X81886Y-29635D01*
X84151Y-29635D02*
X84479Y-29635D01*
X84977Y-29635D02*
X85725Y-29635D01*
X67275Y-29715D02*
X68698Y-29715D01*
X69714Y-29715D02*
X69856Y-29715D01*
X69881Y-29715D02*
X75834Y-29715D01*
X77509Y-29715D02*
X77609Y-29715D01*
X78353Y-29715D02*
X82120Y-29715D01*
X84197Y-29715D02*
X84267Y-29715D01*
X84417Y-29715D02*
X84559Y-29715D01*
X84897Y-29715D02*
X85039Y-29715D01*
X85192Y-29715D02*
X85725Y-29715D01*
X67275Y-29795D02*
X68698Y-29795D01*
X69634Y-29795D02*
X69776Y-29795D01*
X69978Y-29795D02*
X75986Y-29795D01*
X77449Y-29795D02*
X77669Y-29795D01*
X78220Y-29795D02*
X82353Y-29795D01*
X84230Y-29795D02*
X84238Y-29795D01*
X84497Y-29795D02*
X84639Y-29795D01*
X84817Y-29795D02*
X84959Y-29795D01*
X85224Y-29795D02*
X85725Y-29795D01*
X67275Y-29875D02*
X68698Y-29875D01*
X69554Y-29875D02*
X69696Y-29875D01*
X70009Y-29875D02*
X76137Y-29875D01*
X77385Y-29875D02*
X82587Y-29875D01*
X84577Y-29875D02*
X84719Y-29875D01*
X84737Y-29875D02*
X84879Y-29875D01*
X85239Y-29875D02*
X85725Y-29875D01*
X67275Y-29955D02*
X68698Y-29955D01*
X69474Y-29955D02*
X69616Y-29955D01*
X70013Y-29955D02*
X76289Y-29955D01*
X77537Y-29955D02*
X82821Y-29955D01*
X84657Y-29955D02*
X84799Y-29955D01*
X85244Y-29955D02*
X85725Y-29955D01*
X67275Y-30035D02*
X68698Y-30035D01*
X69393Y-30035D02*
X69394Y-30035D01*
X69464Y-30035D02*
X69606Y-30035D01*
X70017Y-30035D02*
X76441Y-30035D01*
X77689Y-30035D02*
X83055Y-30035D01*
X84577Y-30035D02*
X84719Y-30035D01*
X84737Y-30035D02*
X84879Y-30035D01*
X85244Y-30035D02*
X85725Y-30035D01*
X67275Y-30115D02*
X68698Y-30115D01*
X69313Y-30115D02*
X69314Y-30115D01*
X69544Y-30115D02*
X69686Y-30115D01*
X70004Y-30115D02*
X76593Y-30115D01*
X77840Y-30115D02*
X83226Y-30115D01*
X84229Y-30115D02*
X84232Y-30115D01*
X84497Y-30115D02*
X84639Y-30115D01*
X84817Y-30115D02*
X84959Y-30115D01*
X85217Y-30115D02*
X85725Y-30115D01*
X67275Y-30195D02*
X68698Y-30195D01*
X69624Y-30195D02*
X69766Y-30195D01*
X69976Y-30195D02*
X76745Y-30195D01*
X77991Y-30195D02*
X78092Y-30195D01*
X78303Y-30195D02*
X83259Y-30195D01*
X84196Y-30195D02*
X84264Y-30195D01*
X84417Y-30195D02*
X84559Y-30195D01*
X84897Y-30195D02*
X85039Y-30195D01*
X85189Y-30195D02*
X85725Y-30195D01*
X67275Y-30275D02*
X68709Y-30275D01*
X69704Y-30275D02*
X69846Y-30275D01*
X69920Y-30275D02*
X76897Y-30275D01*
X78469Y-30275D02*
X83305Y-30275D01*
X84150Y-30275D02*
X84479Y-30275D01*
X84977Y-30275D02*
X85725Y-30275D01*
X67275Y-30355D02*
X68737Y-30355D01*
X69784Y-30355D02*
X77049Y-30355D01*
X78549Y-30355D02*
X83385Y-30355D01*
X84070Y-30355D02*
X84447Y-30355D01*
X85008Y-30355D02*
X85725Y-30355D01*
X67275Y-30435D02*
X68801Y-30435D01*
X69771Y-30435D02*
X77201Y-30435D01*
X78597Y-30435D02*
X83514Y-30435D01*
X83940Y-30435D02*
X84541Y-30435D01*
X84926Y-30435D02*
X85725Y-30435D01*
X67275Y-30515D02*
X68877Y-30515D01*
X69680Y-30515D02*
X77353Y-30515D01*
X78631Y-30515D02*
X85725Y-30515D01*
X67275Y-30595D02*
X68953Y-30595D01*
X69756Y-30595D02*
X77505Y-30595D01*
X78643Y-30595D02*
X85725Y-30595D01*
X67275Y-30675D02*
X69029Y-30675D01*
X69832Y-30675D02*
X77657Y-30675D01*
X78643Y-30675D02*
X85725Y-30675D01*
X67275Y-30755D02*
X69105Y-30755D01*
X69908Y-30755D02*
X77764Y-30755D01*
X78629Y-30755D02*
X85725Y-30755D01*
X67275Y-30835D02*
X69181Y-30835D01*
X69984Y-30835D02*
X77797Y-30835D01*
X78596Y-30835D02*
X85725Y-30835D01*
X67275Y-30915D02*
X69258Y-30915D01*
X70061Y-30915D02*
X77847Y-30915D01*
X78546Y-30915D02*
X85725Y-30915D01*
X67275Y-30995D02*
X69334Y-30995D01*
X70137Y-30995D02*
X77927Y-30995D01*
X78466Y-30995D02*
X85725Y-30995D01*
X67275Y-31075D02*
X69410Y-31075D01*
X70213Y-31075D02*
X78095Y-31075D01*
X78297Y-31075D02*
X85725Y-31075D01*
X67275Y-31155D02*
X69486Y-31155D01*
X70289Y-31155D02*
X85725Y-31155D01*
X67275Y-31235D02*
X69562Y-31235D01*
X70365Y-31235D02*
X85725Y-31235D01*
X67275Y-31315D02*
X69639Y-31315D01*
X70441Y-31315D02*
X85725Y-31315D01*
X67275Y-31395D02*
X69715Y-31395D01*
X70518Y-31395D02*
X85725Y-31395D01*
X67275Y-31475D02*
X69791Y-31475D01*
X70594Y-31475D02*
X85725Y-31475D01*
X67275Y-31555D02*
X69867Y-31555D01*
X70670Y-31555D02*
X85725Y-31555D01*
X67275Y-31635D02*
X67833Y-31635D01*
X68429Y-31635D02*
X69943Y-31635D01*
X70746Y-31635D02*
X85725Y-31635D01*
X67275Y-31715D02*
X67639Y-31715D01*
X68620Y-31715D02*
X70020Y-31715D01*
X70822Y-31715D02*
X85725Y-31715D01*
X67275Y-31795D02*
X67503Y-31795D01*
X68757Y-31795D02*
X70096Y-31795D01*
X70898Y-31795D02*
X85725Y-31795D01*
X67275Y-31875D02*
X67423Y-31875D01*
X68837Y-31875D02*
X70172Y-31875D01*
X70975Y-31875D02*
X85725Y-31875D01*
X67275Y-31955D02*
X67343Y-31955D01*
X68917Y-31955D02*
X70248Y-31955D01*
X71051Y-31955D02*
X85725Y-31955D01*
X68997Y-32035D02*
X70324Y-32035D01*
X71127Y-32035D02*
X85725Y-32035D01*
X69038Y-32115D02*
X69960Y-32115D01*
X70190Y-32115D02*
X70401Y-32115D01*
X71478Y-32115D02*
X72115Y-32115D01*
X72478Y-32115D02*
X73115Y-32115D01*
X73478Y-32115D02*
X74115Y-32115D01*
X74478Y-32115D02*
X75115Y-32115D01*
X75478Y-32115D02*
X76115Y-32115D01*
X76478Y-32115D02*
X77115Y-32115D01*
X77478Y-32115D02*
X78113Y-32115D01*
X78478Y-32115D02*
X79115Y-32115D01*
X79478Y-32115D02*
X80115Y-32115D01*
X80478Y-32115D02*
X81115Y-32115D01*
X81478Y-32115D02*
X82115Y-32115D01*
X82478Y-32115D02*
X83115Y-32115D01*
X83478Y-32115D02*
X84115Y-32115D01*
X84478Y-32115D02*
X85114Y-32115D01*
X85478Y-32115D02*
X85725Y-32115D01*
X69071Y-32195D02*
X69833Y-32195D01*
X70246Y-32195D02*
X70346Y-32195D01*
X71633Y-32195D02*
X71959Y-32195D01*
X72633Y-32195D02*
X72959Y-32195D01*
X73633Y-32195D02*
X73959Y-32195D01*
X74633Y-32195D02*
X74959Y-32195D01*
X75633Y-32195D02*
X75959Y-32195D01*
X76633Y-32195D02*
X76959Y-32195D01*
X77633Y-32195D02*
X77959Y-32195D01*
X78633Y-32195D02*
X78959Y-32195D01*
X79633Y-32195D02*
X79959Y-32195D01*
X80633Y-32195D02*
X80959Y-32195D01*
X81633Y-32195D02*
X81959Y-32195D01*
X82633Y-32195D02*
X82959Y-32195D01*
X83633Y-32195D02*
X83959Y-32195D01*
X84634Y-32195D02*
X84959Y-32195D01*
X85633Y-32195D02*
X85725Y-32195D01*
X69104Y-32275D02*
X69787Y-32275D01*
X70246Y-32275D02*
X70346Y-32275D01*
X71713Y-32275D02*
X71879Y-32275D01*
X72713Y-32275D02*
X72879Y-32275D01*
X73713Y-32275D02*
X73879Y-32275D01*
X74713Y-32275D02*
X74879Y-32275D01*
X75713Y-32275D02*
X75879Y-32275D01*
X76713Y-32275D02*
X76879Y-32275D01*
X77713Y-32275D02*
X77879Y-32275D01*
X78713Y-32275D02*
X78879Y-32275D01*
X79713Y-32275D02*
X79879Y-32275D01*
X80713Y-32275D02*
X80879Y-32275D01*
X81713Y-32275D02*
X81879Y-32275D01*
X82713Y-32275D02*
X82879Y-32275D01*
X83713Y-32275D02*
X83879Y-32275D01*
X84714Y-32275D02*
X84879Y-32275D01*
X85713Y-32275D02*
X85725Y-32275D01*
X69137Y-32355D02*
X69772Y-32355D01*
X70246Y-32355D02*
X70346Y-32355D01*
X71775Y-32355D02*
X71818Y-32355D01*
X72775Y-32355D02*
X72818Y-32355D01*
X73775Y-32355D02*
X73818Y-32355D01*
X74775Y-32355D02*
X74818Y-32355D01*
X75775Y-32355D02*
X75818Y-32355D01*
X76775Y-32355D02*
X76818Y-32355D01*
X77775Y-32355D02*
X77818Y-32355D01*
X78775Y-32355D02*
X78818Y-32355D01*
X79775Y-32355D02*
X79818Y-32355D01*
X80775Y-32355D02*
X80818Y-32355D01*
X81775Y-32355D02*
X81818Y-32355D01*
X82775Y-32355D02*
X82818Y-32355D01*
X83775Y-32355D02*
X83818Y-32355D01*
X84775Y-32355D02*
X84818Y-32355D01*
X69167Y-32435D02*
X69772Y-32435D01*
X70246Y-32435D02*
X70346Y-32435D01*
X69167Y-32515D02*
X69772Y-32515D01*
X70246Y-32515D02*
X70346Y-32515D01*
X69167Y-32595D02*
X70346Y-32595D01*
X69167Y-32675D02*
X70346Y-32675D01*
X69167Y-32755D02*
X69771Y-32755D01*
X70246Y-32755D02*
X70346Y-32755D01*
X69167Y-32835D02*
X69771Y-32835D01*
X70246Y-32835D02*
X70346Y-32835D01*
X69136Y-32915D02*
X69772Y-32915D01*
X70246Y-32915D02*
X70346Y-32915D01*
X71773Y-32915D02*
X71818Y-32915D01*
X72773Y-32915D02*
X72818Y-32915D01*
X73773Y-32915D02*
X73818Y-32915D01*
X74773Y-32915D02*
X74818Y-32915D01*
X75773Y-32915D02*
X75818Y-32915D01*
X76773Y-32915D02*
X76818Y-32915D01*
X77773Y-32915D02*
X77818Y-32915D01*
X78773Y-32915D02*
X78818Y-32915D01*
X79773Y-32915D02*
X79818Y-32915D01*
X80773Y-32915D02*
X80818Y-32915D01*
X81773Y-32915D02*
X81818Y-32915D01*
X82773Y-32915D02*
X82818Y-32915D01*
X83773Y-32915D02*
X83818Y-32915D01*
X84773Y-32915D02*
X84818Y-32915D01*
X69102Y-32995D02*
X69787Y-32995D01*
X70246Y-32995D02*
X70346Y-32995D01*
X70804Y-32995D02*
X70881Y-32995D01*
X71711Y-32995D02*
X71881Y-32995D01*
X72711Y-32995D02*
X72881Y-32995D01*
X73711Y-32995D02*
X73881Y-32995D01*
X74711Y-32995D02*
X74881Y-32995D01*
X75711Y-32995D02*
X75881Y-32995D01*
X76711Y-32995D02*
X76881Y-32995D01*
X77711Y-32995D02*
X77881Y-32995D01*
X78711Y-32995D02*
X78881Y-32995D01*
X79711Y-32995D02*
X79881Y-32995D01*
X80711Y-32995D02*
X80881Y-32995D01*
X81711Y-32995D02*
X81881Y-32995D01*
X82711Y-32995D02*
X82881Y-32995D01*
X83711Y-32995D02*
X83881Y-32995D01*
X84711Y-32995D02*
X84881Y-32995D01*
X85711Y-32995D02*
X85725Y-32995D01*
X69069Y-33075D02*
X69835Y-33075D01*
X70246Y-33075D02*
X70346Y-33075D01*
X70757Y-33075D02*
X70961Y-33075D01*
X71631Y-33075D02*
X71961Y-33075D01*
X72631Y-33075D02*
X72961Y-33075D01*
X73631Y-33075D02*
X73961Y-33075D01*
X74631Y-33075D02*
X74961Y-33075D01*
X75631Y-33075D02*
X75961Y-33075D01*
X76631Y-33075D02*
X76961Y-33075D01*
X77631Y-33075D02*
X77961Y-33075D01*
X78631Y-33075D02*
X78961Y-33075D01*
X79631Y-33075D02*
X79961Y-33075D01*
X80631Y-33075D02*
X80961Y-33075D01*
X81631Y-33075D02*
X81961Y-33075D01*
X82631Y-33075D02*
X82961Y-33075D01*
X83631Y-33075D02*
X83961Y-33075D01*
X84631Y-33075D02*
X84961Y-33075D01*
X85631Y-33075D02*
X85725Y-33075D01*
X69035Y-33155D02*
X69964Y-33155D01*
X70188Y-33155D02*
X70404Y-33155D01*
X70627Y-33155D02*
X71119Y-33155D01*
X71472Y-33155D02*
X72119Y-33155D01*
X72472Y-33155D02*
X73119Y-33155D01*
X73472Y-33155D02*
X74119Y-33155D01*
X74472Y-33155D02*
X75119Y-33155D01*
X75472Y-33155D02*
X76119Y-33155D01*
X76472Y-33155D02*
X77119Y-33155D01*
X77472Y-33155D02*
X78119Y-33155D01*
X78472Y-33155D02*
X79119Y-33155D01*
X79472Y-33155D02*
X80119Y-33155D01*
X80472Y-33155D02*
X81119Y-33155D01*
X81472Y-33155D02*
X82119Y-33155D01*
X82472Y-33155D02*
X83119Y-33155D01*
X83472Y-33155D02*
X84119Y-33155D01*
X84472Y-33155D02*
X85119Y-33155D01*
X85472Y-33155D02*
X85725Y-33155D01*
X85725Y-33225D02*
X85725Y-32981D01*
X85607Y-33099D01*
X85405Y-33183D01*
X85187Y-33183D01*
X84985Y-33099D01*
X84831Y-32945D01*
X84796Y-32860D01*
X84761Y-32945D01*
X84607Y-33099D01*
X84405Y-33183D01*
X84187Y-33183D01*
X83985Y-33099D01*
X83831Y-32945D01*
X83796Y-32860D01*
X83761Y-32945D01*
X83607Y-33099D01*
X83405Y-33183D01*
X83187Y-33183D01*
X82985Y-33099D01*
X82831Y-32945D01*
X82796Y-32860D01*
X82761Y-32945D01*
X82607Y-33099D01*
X82405Y-33183D01*
X82187Y-33183D01*
X81985Y-33099D01*
X81831Y-32945D01*
X81796Y-32860D01*
X81761Y-32945D01*
X81607Y-33099D01*
X81405Y-33183D01*
X81187Y-33183D01*
X80985Y-33099D01*
X80831Y-32945D01*
X80796Y-32860D01*
X80761Y-32945D01*
X80607Y-33099D01*
X80405Y-33183D01*
X80187Y-33183D01*
X79985Y-33099D01*
X79831Y-32945D01*
X79795Y-32860D01*
X79761Y-32945D01*
X79607Y-33099D01*
X79405Y-33183D01*
X79187Y-33183D01*
X78985Y-33099D01*
X78831Y-32945D01*
X78795Y-32860D01*
X78761Y-32945D01*
X78607Y-33099D01*
X78405Y-33183D01*
X78187Y-33183D01*
X77985Y-33099D01*
X77831Y-32945D01*
X77796Y-32860D01*
X77761Y-32945D01*
X77607Y-33099D01*
X77405Y-33183D01*
X77187Y-33183D01*
X76985Y-33099D01*
X76831Y-32945D01*
X76796Y-32860D01*
X76761Y-32945D01*
X76607Y-33099D01*
X76405Y-33183D01*
X76187Y-33183D01*
X75985Y-33099D01*
X75831Y-32945D01*
X75796Y-32860D01*
X75761Y-32945D01*
X75607Y-33099D01*
X75405Y-33183D01*
X75187Y-33183D01*
X74985Y-33099D01*
X74831Y-32945D01*
X74796Y-32860D01*
X74761Y-32945D01*
X74607Y-33099D01*
X74405Y-33183D01*
X74187Y-33183D01*
X73985Y-33099D01*
X73831Y-32945D01*
X73796Y-32860D01*
X73761Y-32945D01*
X73607Y-33099D01*
X73405Y-33183D01*
X73187Y-33183D01*
X72985Y-33099D01*
X72831Y-32945D01*
X72796Y-32860D01*
X72761Y-32945D01*
X72607Y-33099D01*
X72405Y-33183D01*
X72187Y-33183D01*
X71985Y-33099D01*
X71831Y-32945D01*
X71796Y-32860D01*
X71761Y-32945D01*
X71607Y-33099D01*
X71405Y-33183D01*
X71187Y-33183D01*
X70985Y-33099D01*
X70831Y-32945D01*
X70820Y-32918D01*
X70820Y-32959D01*
X70782Y-33050D01*
X70712Y-33120D01*
X70620Y-33158D01*
X70408Y-33159D01*
X70346Y-33097D01*
X70346Y-32684D01*
X70346Y-32584D01*
X70346Y-32171D01*
X70401Y-32115D01*
X68781Y-30414D01*
X68763Y-30386D01*
X68742Y-30363D01*
X68739Y-30358D01*
X68731Y-30337D01*
X68720Y-30320D01*
X68713Y-30286D01*
X68701Y-30252D01*
X68702Y-30230D01*
X68698Y-30209D01*
X68698Y-29177D01*
X68720Y-29066D01*
X68783Y-28972D01*
X68922Y-28833D01*
X68976Y-28796D01*
X68976Y-28675D01*
X69014Y-28584D01*
X69084Y-28514D01*
X69176Y-28476D01*
X69387Y-28476D01*
X69387Y-27515D01*
X69198Y-27436D01*
X69053Y-27291D01*
X68975Y-27102D01*
X68975Y-26897D01*
X69054Y-26708D01*
X69199Y-26563D01*
X69388Y-26485D01*
X69613Y-26485D01*
X69802Y-26564D01*
X69947Y-26709D01*
X70025Y-26898D01*
X70025Y-27103D01*
X69946Y-27292D01*
X69801Y-27437D01*
X69612Y-27515D01*
X69387Y-27515D01*
X69387Y-28476D01*
X69825Y-28476D01*
X69916Y-28514D01*
X69986Y-28584D01*
X70024Y-28676D01*
X70024Y-29325D01*
X69986Y-29416D01*
X69916Y-29486D01*
X69824Y-29524D01*
X69697Y-29524D01*
X69767Y-29548D01*
X69790Y-29639D01*
X69500Y-29929D01*
X69429Y-30000D01*
X69305Y-30123D01*
X69305Y-30123D01*
X69429Y-30000D01*
X69500Y-30071D01*
X69790Y-30361D01*
X69767Y-30452D01*
X69660Y-30495D01*
X69861Y-30706D01*
X69861Y-30290D01*
X69571Y-30000D01*
X69861Y-29710D01*
X69952Y-29733D01*
X70008Y-29870D01*
X70019Y-30074D01*
X69952Y-30267D01*
X69861Y-30290D01*
X69861Y-30706D01*
X71177Y-32088D01*
X71187Y-32085D01*
X71405Y-32085D01*
X71607Y-32169D01*
X71761Y-32323D01*
X71796Y-32407D01*
X71831Y-32323D01*
X71985Y-32169D01*
X72187Y-32085D01*
X72405Y-32085D01*
X72607Y-32169D01*
X72761Y-32323D01*
X72796Y-32407D01*
X72831Y-32323D01*
X72985Y-32169D01*
X73187Y-32085D01*
X73405Y-32085D01*
X73607Y-32169D01*
X73761Y-32323D01*
X73796Y-32407D01*
X73831Y-32323D01*
X73985Y-32169D01*
X74187Y-32085D01*
X74405Y-32085D01*
X74607Y-32169D01*
X74761Y-32323D01*
X74796Y-32407D01*
X74831Y-32323D01*
X74985Y-32169D01*
X75187Y-32085D01*
X75405Y-32085D01*
X75607Y-32169D01*
X75761Y-32323D01*
X75796Y-32407D01*
X75831Y-32323D01*
X75985Y-32169D01*
X76187Y-32085D01*
X76405Y-32085D01*
X76607Y-32169D01*
X76761Y-32323D01*
X76796Y-32407D01*
X76831Y-32323D01*
X76985Y-32169D01*
X77187Y-32085D01*
X77405Y-32085D01*
X77607Y-32169D01*
X77761Y-32323D01*
X77796Y-32407D01*
X77831Y-32323D01*
X77985Y-32169D01*
X78108Y-32117D01*
X78108Y-31080D01*
X77944Y-31012D01*
X77819Y-30886D01*
X77752Y-30725D01*
X75481Y-29529D01*
X75446Y-29500D01*
X75411Y-29477D01*
X75157Y-29223D01*
X75145Y-29206D01*
X75131Y-29193D01*
X75114Y-29160D01*
X75094Y-29129D01*
X75090Y-29109D01*
X75081Y-29091D01*
X75066Y-29037D01*
X74507Y-28962D01*
X74461Y-29008D01*
X74297Y-29076D01*
X74120Y-29076D01*
X73956Y-29008D01*
X73831Y-28882D01*
X73763Y-28718D01*
X73763Y-28541D01*
X73831Y-28377D01*
X73957Y-28252D01*
X74121Y-28184D01*
X74298Y-28184D01*
X74462Y-28252D01*
X74587Y-28378D01*
X74591Y-28388D01*
X75150Y-28463D01*
X75157Y-28454D01*
X75411Y-28200D01*
X75446Y-28176D01*
X75481Y-28148D01*
X76598Y-27559D01*
X76603Y-27557D01*
X76604Y-27557D01*
X76610Y-27554D01*
X76626Y-27549D01*
X76644Y-27539D01*
X78193Y-26997D01*
X78232Y-26904D01*
X78358Y-26779D01*
X78522Y-26711D01*
X78699Y-26711D01*
X78863Y-26779D01*
X78968Y-26884D01*
X84116Y-27155D01*
X84145Y-27162D01*
X84184Y-27166D01*
X84207Y-27178D01*
X84225Y-27183D01*
X84246Y-27199D01*
X84284Y-27219D01*
X84569Y-27452D01*
X84624Y-27430D01*
X84833Y-27430D01*
X85026Y-27510D01*
X85173Y-27658D01*
X85253Y-27851D01*
X85253Y-28060D01*
X85173Y-28253D01*
X85025Y-28400D01*
X84892Y-28454D01*
X85026Y-28510D01*
X85173Y-28658D01*
X85253Y-28851D01*
X85253Y-29060D01*
X85173Y-29253D01*
X85025Y-29400D01*
X84876Y-29461D01*
X84995Y-29503D01*
X85018Y-29594D01*
X84728Y-29884D01*
X84438Y-29594D01*
X84461Y-29503D01*
X84570Y-29458D01*
X84430Y-29400D01*
X84283Y-29252D01*
X84228Y-29119D01*
X84173Y-29253D01*
X84025Y-29400D01*
X83892Y-29454D01*
X84026Y-29510D01*
X84173Y-29658D01*
X84234Y-29806D01*
X84276Y-29688D01*
X84367Y-29665D01*
X84657Y-29955D01*
X84367Y-30245D01*
X84276Y-30222D01*
X84231Y-30112D01*
X84173Y-30253D01*
X84025Y-30400D01*
X83832Y-30480D01*
X83623Y-30480D01*
X83430Y-30400D01*
X83283Y-30252D01*
X83216Y-30090D01*
X78418Y-28448D01*
X78419Y-28825D01*
X78357Y-28887D01*
X77609Y-28887D01*
X77509Y-28887D01*
X76761Y-28887D01*
X76699Y-28825D01*
X76699Y-28553D01*
X76241Y-28879D01*
X76241Y-28928D01*
X76173Y-29092D01*
X76077Y-29187D01*
X76700Y-29515D01*
X76700Y-29498D01*
X76699Y-29049D01*
X76761Y-28987D01*
X77509Y-28987D01*
X77509Y-29735D01*
X77447Y-29797D01*
X77234Y-29796D01*
X77671Y-30026D01*
X77671Y-29797D01*
X77609Y-29735D01*
X77609Y-28987D01*
X78357Y-28987D01*
X78419Y-29049D01*
X78418Y-29498D01*
X78418Y-29597D01*
X78380Y-29688D01*
X78310Y-29758D01*
X78218Y-29796D01*
X77671Y-29797D01*
X77671Y-30026D01*
X78034Y-30218D01*
X78109Y-30188D01*
X78286Y-30188D01*
X78450Y-30256D01*
X78575Y-30382D01*
X78643Y-30546D01*
X78643Y-30723D01*
X78575Y-30887D01*
X78449Y-31012D01*
X78285Y-31080D01*
X78108Y-31080D01*
X78108Y-32117D01*
X78187Y-32085D01*
X78405Y-32085D01*
X78607Y-32169D01*
X78761Y-32323D01*
X78796Y-32407D01*
X78831Y-32323D01*
X78985Y-32169D01*
X79187Y-32085D01*
X79405Y-32085D01*
X79607Y-32169D01*
X79761Y-32323D01*
X79796Y-32407D01*
X79831Y-32323D01*
X79985Y-32169D01*
X80187Y-32085D01*
X80405Y-32085D01*
X80607Y-32169D01*
X80761Y-32323D01*
X80796Y-32407D01*
X80831Y-32323D01*
X80985Y-32169D01*
X81187Y-32085D01*
X81405Y-32085D01*
X81607Y-32169D01*
X81761Y-32323D01*
X81796Y-32407D01*
X81831Y-32323D01*
X81985Y-32169D01*
X82187Y-32085D01*
X82405Y-32085D01*
X82607Y-32169D01*
X82761Y-32323D01*
X82796Y-32407D01*
X82831Y-32323D01*
X82985Y-32169D01*
X83187Y-32085D01*
X83405Y-32085D01*
X83607Y-32169D01*
X83761Y-32323D01*
X83796Y-32407D01*
X83831Y-32323D01*
X83985Y-32169D01*
X84187Y-32085D01*
X84405Y-32085D01*
X84607Y-32169D01*
X84654Y-32215D01*
X84654Y-30474D01*
X84461Y-30407D01*
X84438Y-30316D01*
X84728Y-30026D01*
X85018Y-30316D01*
X84995Y-30407D01*
X84858Y-30463D01*
X84654Y-30474D01*
X84654Y-32215D01*
X84761Y-32323D01*
X84796Y-32407D01*
X84831Y-32323D01*
X84985Y-32169D01*
X85089Y-32125D01*
X85089Y-30245D01*
X84799Y-29955D01*
X85089Y-29665D01*
X85180Y-29688D01*
X85236Y-29825D01*
X85247Y-30029D01*
X85180Y-30222D01*
X85089Y-30245D01*
X85089Y-32125D01*
X85187Y-32085D01*
X85405Y-32085D01*
X85607Y-32169D01*
X85725Y-32287D01*
X85725Y-26275D01*
X67275Y-26275D01*
X67275Y-32023D01*
X67544Y-31754D01*
X67925Y-31597D01*
X68337Y-31597D01*
X68718Y-31756D01*
X69010Y-32048D01*
X69167Y-32429D01*
X69167Y-32841D01*
X69008Y-33222D01*
X69005Y-33225D01*
X70184Y-33225D01*
X70184Y-33159D01*
X69972Y-33158D01*
X69880Y-33120D01*
X69810Y-33050D01*
X69772Y-32959D01*
X69772Y-32860D01*
X69771Y-32746D01*
X69833Y-32684D01*
X69833Y-32584D01*
X69771Y-32522D01*
X69772Y-32408D01*
X69772Y-32309D01*
X69810Y-32218D01*
X69880Y-32148D01*
X69972Y-32110D01*
X70184Y-32109D01*
X70246Y-32171D01*
X70246Y-32584D01*
X69833Y-32584D01*
X69833Y-32684D01*
X70246Y-32684D01*
X70246Y-33097D01*
X70184Y-33159D01*
X70184Y-33225D01*
X85725Y-33225D01*
M02*
