G04 (created by PCBNEW (2013-07-07 BZR 4022)-stable) date 12/7/2014 2:09:54 AM*
%MOIN*%
G04 Gerber Fmt 3.4, Leading zero omitted, Abs format*
%FSLAX34Y34*%
G01*
G70*
G90*
G04 APERTURE LIST*
%ADD10C,0.00590551*%
%ADD11C,0.0394*%
%ADD12R,0.035X0.04*%
%ADD13R,0.011811X0.0393701*%
%ADD14O,0.011811X0.0393701*%
%ADD15O,0.0393701X0.011811*%
%ADD16R,0.0393701X0.0393701*%
%ADD17R,0.0590551X0.0590551*%
%ADD18C,0.0590551*%
%ADD19R,0.04X0.035*%
%ADD20C,0.0354331*%
%ADD21C,0.019685*%
%ADD22C,0.00787402*%
%ADD23C,0.01*%
G04 APERTURE END LIST*
G54D10*
G54D11*
X45302Y-25586D03*
G54D12*
X44109Y-22935D03*
X43509Y-22935D03*
G54D13*
X45358Y-24492D03*
G54D14*
X45555Y-24492D03*
X45751Y-24492D03*
X45948Y-24492D03*
X46145Y-24492D03*
X46342Y-24492D03*
X46539Y-24492D03*
X46736Y-24492D03*
G54D15*
X47031Y-24197D03*
X47031Y-24000D03*
X47031Y-23803D03*
X47031Y-23606D03*
X47031Y-23409D03*
X47031Y-23212D03*
X47031Y-23015D03*
X47031Y-22819D03*
G54D14*
X46736Y-22523D03*
X46539Y-22523D03*
X46342Y-22523D03*
X46145Y-22523D03*
X45948Y-22523D03*
X45751Y-22523D03*
X45555Y-22523D03*
X45358Y-22523D03*
G54D15*
X45062Y-22819D03*
X45062Y-23015D03*
X45062Y-23212D03*
X45062Y-23409D03*
X45062Y-23606D03*
X45062Y-23803D03*
X45062Y-24000D03*
X45062Y-24197D03*
G54D16*
X46047Y-23508D03*
X46440Y-23508D03*
X45653Y-23508D03*
X45653Y-23114D03*
X46047Y-23114D03*
X46440Y-23114D03*
X45653Y-23901D03*
X46047Y-23901D03*
X46440Y-23901D03*
G54D12*
X43517Y-23628D03*
X44117Y-23628D03*
G54D17*
X42400Y-25100D03*
G54D18*
X42400Y-24100D03*
X42400Y-23100D03*
X42400Y-22100D03*
G54D17*
X43724Y-21349D03*
G54D18*
X44724Y-21349D03*
X45724Y-21349D03*
G54D17*
X47933Y-24673D03*
G54D18*
X47933Y-23673D03*
G54D19*
X45885Y-25333D03*
X45885Y-25933D03*
X46771Y-21934D03*
X46771Y-21334D03*
G54D12*
X44688Y-25605D03*
X44088Y-25605D03*
G54D19*
X46568Y-25333D03*
X46568Y-25933D03*
G54D17*
X43321Y-24463D03*
G54D18*
X44321Y-24463D03*
G54D20*
X48832Y-24284D03*
X46215Y-21637D03*
X45428Y-26082D03*
G54D21*
X44765Y-25364D02*
X45206Y-24848D01*
X44765Y-25405D02*
X44765Y-25364D01*
X44765Y-25503D02*
X44765Y-25405D01*
X44688Y-25605D02*
X44765Y-25503D01*
X44353Y-26021D02*
X44576Y-25982D01*
X44173Y-26021D02*
X44353Y-26021D01*
X43823Y-26021D02*
X44173Y-26021D01*
X42568Y-25313D02*
X43823Y-26021D01*
X42527Y-25313D02*
X42568Y-25313D01*
X42429Y-25313D02*
X42527Y-25313D01*
X42232Y-25116D02*
X42429Y-25313D01*
X44611Y-25706D02*
X44688Y-25605D01*
X44611Y-25805D02*
X44611Y-25706D01*
X44611Y-25845D02*
X44611Y-25805D01*
X44576Y-25982D02*
X44611Y-25845D01*
G54D22*
X45338Y-24705D02*
X45206Y-24848D01*
X45338Y-24689D02*
X45338Y-24705D01*
X45338Y-24649D02*
X45338Y-24689D01*
X45358Y-24492D02*
X45338Y-24649D01*
G54D21*
X46873Y-22011D02*
X46771Y-21934D01*
X46971Y-22011D02*
X46873Y-22011D01*
X47012Y-22011D02*
X46971Y-22011D01*
X47070Y-22069D02*
X47012Y-22011D01*
X48443Y-23458D02*
X47070Y-22069D01*
X48832Y-24284D02*
X48443Y-23458D01*
X48318Y-25185D02*
X47061Y-25647D01*
X48445Y-25058D02*
X48318Y-25185D01*
X48832Y-24284D02*
X48445Y-25058D01*
G54D22*
X46736Y-22385D02*
X46736Y-22523D01*
X46736Y-22109D02*
X46736Y-22385D01*
X46736Y-22070D02*
X46736Y-22109D01*
X46771Y-21934D02*
X46736Y-22070D01*
G54D21*
X45265Y-26475D02*
X44576Y-25982D01*
X45591Y-26475D02*
X45265Y-26475D01*
X46858Y-26324D02*
X45591Y-26475D01*
X46985Y-26197D02*
X46858Y-26324D01*
X47061Y-25647D02*
X46985Y-26197D01*
X46670Y-25409D02*
X46568Y-25333D01*
X46768Y-25409D02*
X46670Y-25409D01*
X46809Y-25409D02*
X46768Y-25409D01*
X47061Y-25647D02*
X46809Y-25409D01*
X45986Y-25333D02*
X45885Y-25333D01*
X46085Y-25333D02*
X45986Y-25333D01*
X46368Y-25333D02*
X46085Y-25333D01*
X46466Y-25333D02*
X46368Y-25333D01*
X46568Y-25333D02*
X46466Y-25333D01*
X45986Y-25117D02*
X46071Y-24980D01*
X45986Y-25158D02*
X45986Y-25117D01*
X45986Y-25256D02*
X45986Y-25158D01*
X45885Y-25333D02*
X45986Y-25256D01*
G54D22*
X46145Y-24793D02*
X46071Y-24980D01*
X46145Y-24630D02*
X46145Y-24793D01*
X46145Y-24492D02*
X46145Y-24630D01*
X45302Y-24744D02*
X45263Y-24867D01*
X45302Y-24744D02*
X45183Y-24794D01*
X46123Y-24849D02*
X46130Y-24977D01*
X46123Y-24849D02*
X46030Y-24938D01*
X43980Y-21605D02*
X43724Y-21349D01*
X44019Y-21605D02*
X43980Y-21605D01*
X44035Y-21605D02*
X44019Y-21605D01*
X44536Y-21802D02*
X44035Y-21605D01*
X45491Y-21985D02*
X44536Y-21802D01*
X45523Y-21985D02*
X45491Y-21985D01*
X46030Y-22189D02*
X45523Y-21985D01*
X46145Y-22304D02*
X46030Y-22189D01*
X46145Y-22385D02*
X46145Y-22304D01*
X46145Y-22523D02*
X46145Y-22385D01*
X45358Y-22577D02*
X45358Y-22523D01*
X43269Y-22577D02*
X45358Y-22577D01*
X43176Y-22669D02*
X43269Y-22577D01*
X42232Y-24116D02*
X43176Y-22669D01*
X45555Y-22385D02*
X45555Y-22523D01*
X45555Y-22304D02*
X45555Y-22385D01*
X45439Y-22189D02*
X45555Y-22304D01*
X42232Y-22116D02*
X45439Y-22189D01*
X45539Y-21795D02*
X44724Y-21349D01*
X45582Y-21795D02*
X45539Y-21795D01*
X46111Y-21992D02*
X45582Y-21795D01*
X46342Y-22222D02*
X46111Y-21992D01*
X46342Y-22385D02*
X46342Y-22222D01*
X46342Y-22523D02*
X46342Y-22385D01*
G54D21*
X44194Y-23729D02*
X44117Y-23628D01*
X44194Y-23828D02*
X44194Y-23729D01*
X44194Y-23868D02*
X44194Y-23828D01*
X44321Y-24463D02*
X44194Y-23868D01*
X44165Y-25364D02*
X44321Y-24463D01*
X44165Y-25405D02*
X44165Y-25364D01*
X44165Y-25503D02*
X44165Y-25405D01*
X44088Y-25605D02*
X44165Y-25503D01*
X46670Y-21411D02*
X46771Y-21334D01*
X46571Y-21411D02*
X46670Y-21411D01*
X46530Y-21411D02*
X46571Y-21411D01*
X46215Y-21637D02*
X46530Y-21411D01*
X46466Y-25933D02*
X46568Y-25933D01*
X46368Y-25933D02*
X46466Y-25933D01*
X46085Y-25933D02*
X46368Y-25933D01*
X45986Y-25933D02*
X46085Y-25933D01*
X45885Y-25933D02*
X45986Y-25933D01*
X45783Y-26009D02*
X45885Y-25933D01*
X45685Y-26009D02*
X45783Y-26009D01*
X45644Y-26009D02*
X45685Y-26009D01*
X45428Y-26082D02*
X45644Y-26009D01*
G54D22*
X44843Y-24000D02*
X44321Y-24463D01*
X44925Y-24000D02*
X44843Y-24000D01*
X45062Y-24000D02*
X44925Y-24000D01*
X45466Y-24038D02*
X45653Y-23901D01*
X45456Y-24000D02*
X45466Y-24038D01*
X45200Y-24000D02*
X45456Y-24000D01*
X45062Y-24000D02*
X45200Y-24000D01*
X47677Y-24846D02*
X47933Y-24673D01*
X47638Y-24846D02*
X47677Y-24846D01*
X46646Y-24846D02*
X47638Y-24846D01*
X46457Y-24826D02*
X46646Y-24846D01*
X46342Y-24711D02*
X46457Y-24826D01*
X46342Y-24630D02*
X46342Y-24711D01*
X46342Y-24492D02*
X46342Y-24630D01*
X44925Y-22819D02*
X45062Y-22819D01*
X44284Y-22819D02*
X44925Y-22819D01*
X44245Y-22819D02*
X44284Y-22819D01*
X44109Y-22935D02*
X44245Y-22819D01*
X43419Y-23788D02*
X43517Y-23628D01*
X43419Y-23828D02*
X43419Y-23788D01*
X43419Y-24167D02*
X43419Y-23828D01*
X43419Y-24207D02*
X43419Y-24167D01*
X43321Y-24463D02*
X43419Y-24207D01*
X43513Y-23467D02*
X43517Y-23628D01*
X43513Y-23428D02*
X43513Y-23467D01*
X43513Y-23135D02*
X43513Y-23428D01*
X43513Y-23095D02*
X43513Y-23135D01*
X43509Y-22935D02*
X43513Y-23095D01*
X45948Y-24630D02*
X45948Y-24492D01*
X45941Y-24708D02*
X45948Y-24630D01*
X45830Y-24819D02*
X45941Y-24708D01*
X45619Y-25000D02*
X45830Y-24819D01*
X45527Y-25092D02*
X45619Y-25000D01*
X45302Y-25586D02*
X45527Y-25092D01*
G54D10*
G36*
X44811Y-24000D02*
X44767Y-24029D01*
X44680Y-24029D01*
X44631Y-24073D01*
X44606Y-23985D01*
X44511Y-23952D01*
X44542Y-23878D01*
X44542Y-23778D01*
X44542Y-23740D01*
X44479Y-23678D01*
X44167Y-23678D01*
X44167Y-23686D01*
X44067Y-23686D01*
X44067Y-23678D01*
X44059Y-23678D01*
X44059Y-23578D01*
X44067Y-23578D01*
X44067Y-23570D01*
X44167Y-23570D01*
X44167Y-23578D01*
X44479Y-23578D01*
X44542Y-23515D01*
X44542Y-23477D01*
X44542Y-23378D01*
X44504Y-23286D01*
X44433Y-23216D01*
X44433Y-23215D01*
X44452Y-23168D01*
X44452Y-23101D01*
X44452Y-23026D01*
X44692Y-23026D01*
X44708Y-23102D01*
X44715Y-23114D01*
X44708Y-23125D01*
X44690Y-23212D01*
X44708Y-23299D01*
X44715Y-23311D01*
X44708Y-23322D01*
X44690Y-23409D01*
X44708Y-23496D01*
X44715Y-23508D01*
X44708Y-23519D01*
X44690Y-23606D01*
X44708Y-23693D01*
X44715Y-23704D01*
X44708Y-23716D01*
X44691Y-23797D01*
X44671Y-23816D01*
X44625Y-23922D01*
X44680Y-23970D01*
X44767Y-23970D01*
X44811Y-24000D01*
X44811Y-24000D01*
G37*
G54D23*
X44811Y-24000D02*
X44767Y-24029D01*
X44680Y-24029D01*
X44631Y-24073D01*
X44606Y-23985D01*
X44511Y-23952D01*
X44542Y-23878D01*
X44542Y-23778D01*
X44542Y-23740D01*
X44479Y-23678D01*
X44167Y-23678D01*
X44167Y-23686D01*
X44067Y-23686D01*
X44067Y-23678D01*
X44059Y-23678D01*
X44059Y-23578D01*
X44067Y-23578D01*
X44067Y-23570D01*
X44167Y-23570D01*
X44167Y-23578D01*
X44479Y-23578D01*
X44542Y-23515D01*
X44542Y-23477D01*
X44542Y-23378D01*
X44504Y-23286D01*
X44433Y-23216D01*
X44433Y-23215D01*
X44452Y-23168D01*
X44452Y-23101D01*
X44452Y-23026D01*
X44692Y-23026D01*
X44708Y-23102D01*
X44715Y-23114D01*
X44708Y-23125D01*
X44690Y-23212D01*
X44708Y-23299D01*
X44715Y-23311D01*
X44708Y-23322D01*
X44690Y-23409D01*
X44708Y-23496D01*
X44715Y-23508D01*
X44708Y-23519D01*
X44690Y-23606D01*
X44708Y-23693D01*
X44715Y-23704D01*
X44708Y-23716D01*
X44691Y-23797D01*
X44671Y-23816D01*
X44625Y-23922D01*
X44680Y-23970D01*
X44767Y-23970D01*
X44811Y-24000D01*
G54D10*
G36*
X45131Y-24591D02*
X45103Y-24603D01*
X45095Y-24608D01*
X45086Y-24611D01*
X45052Y-24637D01*
X45036Y-24648D01*
X45034Y-24652D01*
X45004Y-24675D01*
X44633Y-25108D01*
X44633Y-24845D01*
X44321Y-24533D01*
X44009Y-24845D01*
X44036Y-24940D01*
X44240Y-25013D01*
X44457Y-25002D01*
X44606Y-24940D01*
X44633Y-24845D01*
X44633Y-25108D01*
X44562Y-25190D01*
X44542Y-25227D01*
X44535Y-25236D01*
X44480Y-25236D01*
X44458Y-25246D01*
X44404Y-25193D01*
X44313Y-25155D01*
X44201Y-25155D01*
X44138Y-25217D01*
X44138Y-25555D01*
X44146Y-25555D01*
X44146Y-25655D01*
X44138Y-25655D01*
X44138Y-25662D01*
X44038Y-25662D01*
X44038Y-25655D01*
X44038Y-25555D01*
X44038Y-25217D01*
X43976Y-25155D01*
X43864Y-25155D01*
X43772Y-25193D01*
X43701Y-25263D01*
X43663Y-25355D01*
X43663Y-25454D01*
X43663Y-25492D01*
X43726Y-25555D01*
X44038Y-25555D01*
X44038Y-25655D01*
X43726Y-25655D01*
X43722Y-25658D01*
X42863Y-25173D01*
X42863Y-24804D01*
X42883Y-24853D01*
X42930Y-24900D01*
X42992Y-24926D01*
X43059Y-24926D01*
X43649Y-24926D01*
X43711Y-24901D01*
X43759Y-24853D01*
X43784Y-24792D01*
X43784Y-24725D01*
X43784Y-24605D01*
X43844Y-24748D01*
X43938Y-24774D01*
X44250Y-24463D01*
X44245Y-24457D01*
X44315Y-24386D01*
X44321Y-24392D01*
X44326Y-24386D01*
X44397Y-24457D01*
X44392Y-24463D01*
X44703Y-24774D01*
X44798Y-24748D01*
X44871Y-24543D01*
X44864Y-24413D01*
X44918Y-24424D01*
X45131Y-24424D01*
X45131Y-24591D01*
X45131Y-24591D01*
G37*
G54D23*
X45131Y-24591D02*
X45103Y-24603D01*
X45095Y-24608D01*
X45086Y-24611D01*
X45052Y-24637D01*
X45036Y-24648D01*
X45034Y-24652D01*
X45004Y-24675D01*
X44633Y-25108D01*
X44633Y-24845D01*
X44321Y-24533D01*
X44009Y-24845D01*
X44036Y-24940D01*
X44240Y-25013D01*
X44457Y-25002D01*
X44606Y-24940D01*
X44633Y-24845D01*
X44633Y-25108D01*
X44562Y-25190D01*
X44542Y-25227D01*
X44535Y-25236D01*
X44480Y-25236D01*
X44458Y-25246D01*
X44404Y-25193D01*
X44313Y-25155D01*
X44201Y-25155D01*
X44138Y-25217D01*
X44138Y-25555D01*
X44146Y-25555D01*
X44146Y-25655D01*
X44138Y-25655D01*
X44138Y-25662D01*
X44038Y-25662D01*
X44038Y-25655D01*
X44038Y-25555D01*
X44038Y-25217D01*
X43976Y-25155D01*
X43864Y-25155D01*
X43772Y-25193D01*
X43701Y-25263D01*
X43663Y-25355D01*
X43663Y-25454D01*
X43663Y-25492D01*
X43726Y-25555D01*
X44038Y-25555D01*
X44038Y-25655D01*
X43726Y-25655D01*
X43722Y-25658D01*
X42863Y-25173D01*
X42863Y-24804D01*
X42883Y-24853D01*
X42930Y-24900D01*
X42992Y-24926D01*
X43059Y-24926D01*
X43649Y-24926D01*
X43711Y-24901D01*
X43759Y-24853D01*
X43784Y-24792D01*
X43784Y-24725D01*
X43784Y-24605D01*
X43844Y-24748D01*
X43938Y-24774D01*
X44250Y-24463D01*
X44245Y-24457D01*
X44315Y-24386D01*
X44321Y-24392D01*
X44326Y-24386D01*
X44397Y-24457D01*
X44392Y-24463D01*
X44703Y-24774D01*
X44798Y-24748D01*
X44871Y-24543D01*
X44864Y-24413D01*
X44918Y-24424D01*
X45131Y-24424D01*
X45131Y-24591D01*
G54D10*
G36*
X45711Y-23098D02*
X45708Y-23099D01*
X45638Y-23169D01*
X45637Y-23172D01*
X45603Y-23172D01*
X45603Y-23164D01*
X45603Y-23123D01*
X45595Y-23115D01*
X45595Y-23064D01*
X45603Y-23064D01*
X45603Y-23056D01*
X45655Y-23056D01*
X45662Y-23064D01*
X45703Y-23064D01*
X45711Y-23064D01*
X45711Y-23098D01*
X45711Y-23098D01*
G37*
G54D23*
X45711Y-23098D02*
X45708Y-23099D01*
X45638Y-23169D01*
X45637Y-23172D01*
X45603Y-23172D01*
X45603Y-23164D01*
X45603Y-23123D01*
X45595Y-23115D01*
X45595Y-23064D01*
X45603Y-23064D01*
X45603Y-23056D01*
X45655Y-23056D01*
X45662Y-23064D01*
X45703Y-23064D01*
X45711Y-23064D01*
X45711Y-23098D01*
G54D10*
G36*
X45711Y-23951D02*
X45703Y-23951D01*
X45662Y-23951D01*
X45655Y-23959D01*
X45603Y-23959D01*
X45603Y-23951D01*
X45595Y-23951D01*
X45595Y-23900D01*
X45603Y-23892D01*
X45603Y-23851D01*
X45603Y-23843D01*
X45637Y-23843D01*
X45638Y-23846D01*
X45708Y-23916D01*
X45711Y-23917D01*
X45711Y-23951D01*
X45711Y-23951D01*
G37*
G54D23*
X45711Y-23951D02*
X45703Y-23951D01*
X45662Y-23951D01*
X45655Y-23959D01*
X45603Y-23959D01*
X45603Y-23951D01*
X45595Y-23951D01*
X45595Y-23900D01*
X45603Y-23892D01*
X45603Y-23851D01*
X45603Y-23843D01*
X45637Y-23843D01*
X45638Y-23846D01*
X45708Y-23916D01*
X45711Y-23917D01*
X45711Y-23951D01*
G54D10*
G36*
X46498Y-23115D02*
X46490Y-23123D01*
X46490Y-23164D01*
X46490Y-23172D01*
X46457Y-23172D01*
X46455Y-23169D01*
X46385Y-23099D01*
X46383Y-23098D01*
X46383Y-23064D01*
X46390Y-23064D01*
X46431Y-23064D01*
X46439Y-23056D01*
X46490Y-23056D01*
X46490Y-23064D01*
X46498Y-23064D01*
X46498Y-23115D01*
X46498Y-23115D01*
G37*
G54D23*
X46498Y-23115D02*
X46490Y-23123D01*
X46490Y-23164D01*
X46490Y-23172D01*
X46457Y-23172D01*
X46455Y-23169D01*
X46385Y-23099D01*
X46383Y-23098D01*
X46383Y-23064D01*
X46390Y-23064D01*
X46431Y-23064D01*
X46439Y-23056D01*
X46490Y-23056D01*
X46490Y-23064D01*
X46498Y-23064D01*
X46498Y-23115D01*
G54D10*
G36*
X46498Y-23951D02*
X46490Y-23951D01*
X46490Y-23959D01*
X46439Y-23959D01*
X46431Y-23951D01*
X46390Y-23951D01*
X46383Y-23951D01*
X46383Y-23917D01*
X46385Y-23916D01*
X46455Y-23846D01*
X46457Y-23843D01*
X46490Y-23843D01*
X46490Y-23851D01*
X46490Y-23892D01*
X46498Y-23900D01*
X46498Y-23951D01*
X46498Y-23951D01*
G37*
G54D23*
X46498Y-23951D02*
X46490Y-23951D01*
X46490Y-23959D01*
X46439Y-23959D01*
X46431Y-23951D01*
X46390Y-23951D01*
X46383Y-23951D01*
X46383Y-23917D01*
X46385Y-23916D01*
X46455Y-23846D01*
X46457Y-23843D01*
X46490Y-23843D01*
X46490Y-23851D01*
X46490Y-23892D01*
X46498Y-23900D01*
X46498Y-23951D01*
G54D10*
G36*
X46626Y-25983D02*
X46618Y-25983D01*
X46618Y-25991D01*
X46518Y-25991D01*
X46518Y-25983D01*
X46181Y-25983D01*
X46180Y-25983D01*
X45935Y-25983D01*
X45935Y-25991D01*
X45835Y-25991D01*
X45835Y-25983D01*
X45497Y-25983D01*
X45435Y-26045D01*
X45434Y-26157D01*
X45456Y-26209D01*
X45351Y-26209D01*
X44970Y-25936D01*
X45005Y-25900D01*
X45031Y-25838D01*
X45031Y-25831D01*
X45095Y-25895D01*
X45229Y-25951D01*
X45374Y-25951D01*
X45508Y-25895D01*
X45521Y-25883D01*
X45835Y-25883D01*
X45835Y-25875D01*
X45935Y-25875D01*
X45935Y-25883D01*
X46272Y-25883D01*
X46272Y-25883D01*
X46518Y-25883D01*
X46518Y-25875D01*
X46618Y-25875D01*
X46618Y-25883D01*
X46626Y-25883D01*
X46626Y-25983D01*
X46626Y-25983D01*
G37*
G54D23*
X46626Y-25983D02*
X46618Y-25983D01*
X46618Y-25991D01*
X46518Y-25991D01*
X46518Y-25983D01*
X46181Y-25983D01*
X46180Y-25983D01*
X45935Y-25983D01*
X45935Y-25991D01*
X45835Y-25991D01*
X45835Y-25983D01*
X45497Y-25983D01*
X45435Y-26045D01*
X45434Y-26157D01*
X45456Y-26209D01*
X45351Y-26209D01*
X44970Y-25936D01*
X45005Y-25900D01*
X45031Y-25838D01*
X45031Y-25831D01*
X45095Y-25895D01*
X45229Y-25951D01*
X45374Y-25951D01*
X45508Y-25895D01*
X45521Y-25883D01*
X45835Y-25883D01*
X45835Y-25875D01*
X45935Y-25875D01*
X45935Y-25883D01*
X46272Y-25883D01*
X46272Y-25883D01*
X46518Y-25883D01*
X46518Y-25875D01*
X46618Y-25875D01*
X46618Y-25883D01*
X46626Y-25883D01*
X46626Y-25983D01*
G54D10*
G36*
X48495Y-24195D02*
X48486Y-24215D01*
X48486Y-24352D01*
X48492Y-24366D01*
X48397Y-24558D01*
X48397Y-24344D01*
X48371Y-24282D01*
X48324Y-24235D01*
X48262Y-24209D01*
X48195Y-24209D01*
X48075Y-24209D01*
X48218Y-24150D01*
X48245Y-24055D01*
X47933Y-23743D01*
X47622Y-24055D01*
X47648Y-24150D01*
X47815Y-24209D01*
X47605Y-24209D01*
X47543Y-24235D01*
X47496Y-24282D01*
X47470Y-24344D01*
X47470Y-24411D01*
X47470Y-24639D01*
X46962Y-24639D01*
X46963Y-24637D01*
X46963Y-24424D01*
X47176Y-24424D01*
X47263Y-24406D01*
X47337Y-24357D01*
X47386Y-24283D01*
X47403Y-24197D01*
X47386Y-24110D01*
X47378Y-24098D01*
X47386Y-24087D01*
X47403Y-24000D01*
X47386Y-23913D01*
X47378Y-23901D01*
X47386Y-23890D01*
X47399Y-23821D01*
X47456Y-23958D01*
X47551Y-23985D01*
X47863Y-23673D01*
X47551Y-23361D01*
X47456Y-23388D01*
X47394Y-23561D01*
X47386Y-23519D01*
X47378Y-23508D01*
X47386Y-23496D01*
X47403Y-23409D01*
X47386Y-23322D01*
X47378Y-23311D01*
X47386Y-23299D01*
X47403Y-23212D01*
X47386Y-23125D01*
X47378Y-23114D01*
X47386Y-23102D01*
X47403Y-23015D01*
X47386Y-22928D01*
X47378Y-22917D01*
X47386Y-22905D01*
X47403Y-22819D01*
X47395Y-22776D01*
X47763Y-23148D01*
X47648Y-23195D01*
X47622Y-23290D01*
X47933Y-23602D01*
X47939Y-23596D01*
X48010Y-23667D01*
X48004Y-23673D01*
X48316Y-23985D01*
X48386Y-23965D01*
X48495Y-24195D01*
X48495Y-24195D01*
G37*
G54D23*
X48495Y-24195D02*
X48486Y-24215D01*
X48486Y-24352D01*
X48492Y-24366D01*
X48397Y-24558D01*
X48397Y-24344D01*
X48371Y-24282D01*
X48324Y-24235D01*
X48262Y-24209D01*
X48195Y-24209D01*
X48075Y-24209D01*
X48218Y-24150D01*
X48245Y-24055D01*
X47933Y-23743D01*
X47622Y-24055D01*
X47648Y-24150D01*
X47815Y-24209D01*
X47605Y-24209D01*
X47543Y-24235D01*
X47496Y-24282D01*
X47470Y-24344D01*
X47470Y-24411D01*
X47470Y-24639D01*
X46962Y-24639D01*
X46963Y-24637D01*
X46963Y-24424D01*
X47176Y-24424D01*
X47263Y-24406D01*
X47337Y-24357D01*
X47386Y-24283D01*
X47403Y-24197D01*
X47386Y-24110D01*
X47378Y-24098D01*
X47386Y-24087D01*
X47403Y-24000D01*
X47386Y-23913D01*
X47378Y-23901D01*
X47386Y-23890D01*
X47399Y-23821D01*
X47456Y-23958D01*
X47551Y-23985D01*
X47863Y-23673D01*
X47551Y-23361D01*
X47456Y-23388D01*
X47394Y-23561D01*
X47386Y-23519D01*
X47378Y-23508D01*
X47386Y-23496D01*
X47403Y-23409D01*
X47386Y-23322D01*
X47378Y-23311D01*
X47386Y-23299D01*
X47403Y-23212D01*
X47386Y-23125D01*
X47378Y-23114D01*
X47386Y-23102D01*
X47403Y-23015D01*
X47386Y-22928D01*
X47378Y-22917D01*
X47386Y-22905D01*
X47403Y-22819D01*
X47395Y-22776D01*
X47763Y-23148D01*
X47648Y-23195D01*
X47622Y-23290D01*
X47933Y-23602D01*
X47939Y-23596D01*
X48010Y-23667D01*
X48004Y-23673D01*
X48316Y-23985D01*
X48386Y-23965D01*
X48495Y-24195D01*
G54D10*
G36*
X50132Y-24732D02*
X49240Y-24732D01*
X49168Y-24746D01*
X49107Y-24787D01*
X49066Y-24848D01*
X49052Y-24920D01*
X49052Y-27012D01*
X41627Y-27012D01*
X40687Y-24565D01*
X40687Y-23434D01*
X41627Y-20987D01*
X43274Y-20987D01*
X43261Y-21020D01*
X43260Y-21087D01*
X43260Y-21678D01*
X43286Y-21740D01*
X43333Y-21787D01*
X43395Y-21813D01*
X43462Y-21813D01*
X43996Y-21813D01*
X44363Y-21957D01*
X42828Y-21922D01*
X42793Y-21837D01*
X42662Y-21707D01*
X42492Y-21636D01*
X42308Y-21636D01*
X42137Y-21706D01*
X42007Y-21837D01*
X41936Y-22007D01*
X41936Y-22191D01*
X42006Y-22362D01*
X42137Y-22492D01*
X42297Y-22559D01*
X42263Y-22560D01*
X42114Y-22622D01*
X42088Y-22717D01*
X42400Y-23029D01*
X42711Y-22717D01*
X42685Y-22622D01*
X42504Y-22558D01*
X42662Y-22493D01*
X42792Y-22362D01*
X42803Y-22337D01*
X44252Y-22370D01*
X43269Y-22370D01*
X43189Y-22385D01*
X43167Y-22400D01*
X43122Y-22430D01*
X43030Y-22523D01*
X43021Y-22536D01*
X43002Y-22555D01*
X42840Y-22804D01*
X42782Y-22788D01*
X42470Y-23100D01*
X42476Y-23105D01*
X42405Y-23176D01*
X42400Y-23170D01*
X42329Y-23241D01*
X42329Y-23100D01*
X42017Y-22788D01*
X41922Y-22814D01*
X41849Y-23019D01*
X41860Y-23236D01*
X41922Y-23385D01*
X42017Y-23411D01*
X42329Y-23100D01*
X42329Y-23241D01*
X42088Y-23482D01*
X42114Y-23577D01*
X42294Y-23641D01*
X42293Y-23642D01*
X42137Y-23706D01*
X42007Y-23837D01*
X41936Y-24007D01*
X41936Y-24191D01*
X42006Y-24362D01*
X42137Y-24492D01*
X42307Y-24563D01*
X42491Y-24563D01*
X42662Y-24493D01*
X42792Y-24362D01*
X42858Y-24205D01*
X42858Y-24758D01*
X42837Y-24709D01*
X42790Y-24662D01*
X42728Y-24636D01*
X42661Y-24636D01*
X42071Y-24636D01*
X42009Y-24662D01*
X41962Y-24709D01*
X41936Y-24771D01*
X41936Y-24838D01*
X41936Y-25428D01*
X41962Y-25490D01*
X42009Y-25537D01*
X42071Y-25563D01*
X42138Y-25563D01*
X42345Y-25563D01*
X42345Y-25563D01*
X42429Y-25580D01*
X42429Y-25580D01*
X42498Y-25580D01*
X43693Y-26253D01*
X43706Y-26257D01*
X43721Y-26267D01*
X43762Y-26276D01*
X43792Y-26285D01*
X43805Y-26284D01*
X43823Y-26288D01*
X44173Y-26288D01*
X44353Y-26288D01*
X44376Y-26283D01*
X44399Y-26284D01*
X44512Y-26264D01*
X45110Y-26692D01*
X45135Y-26703D01*
X45163Y-26722D01*
X45187Y-26726D01*
X45205Y-26735D01*
X45233Y-26736D01*
X45265Y-26742D01*
X45591Y-26742D01*
X45607Y-26739D01*
X45623Y-26740D01*
X46889Y-26589D01*
X46926Y-26577D01*
X46960Y-26570D01*
X46972Y-26562D01*
X46988Y-26557D01*
X47017Y-26532D01*
X47046Y-26513D01*
X47173Y-26386D01*
X47192Y-26358D01*
X47214Y-26332D01*
X47221Y-26315D01*
X47231Y-26299D01*
X47237Y-26266D01*
X47249Y-26234D01*
X47303Y-25842D01*
X48410Y-25434D01*
X48414Y-25432D01*
X48420Y-25431D01*
X48469Y-25398D01*
X48499Y-25380D01*
X48501Y-25377D01*
X48507Y-25373D01*
X48634Y-25246D01*
X48657Y-25211D01*
X48684Y-25177D01*
X48971Y-24600D01*
X49027Y-24577D01*
X49124Y-24480D01*
X49177Y-24353D01*
X49177Y-24216D01*
X49124Y-24089D01*
X49027Y-23992D01*
X48979Y-23971D01*
X48691Y-23361D01*
X48691Y-23357D01*
X48687Y-23350D01*
X48684Y-23345D01*
X48674Y-23331D01*
X48633Y-23270D01*
X47259Y-21881D01*
X47258Y-21881D01*
X47258Y-21880D01*
X47200Y-21822D01*
X47139Y-21782D01*
X47139Y-21782D01*
X47139Y-21726D01*
X47130Y-21704D01*
X47183Y-21651D01*
X47221Y-21559D01*
X47221Y-21447D01*
X47159Y-21384D01*
X46821Y-21384D01*
X46821Y-21392D01*
X46721Y-21392D01*
X46721Y-21384D01*
X46384Y-21384D01*
X46321Y-21447D01*
X46321Y-21559D01*
X46359Y-21651D01*
X46412Y-21704D01*
X46403Y-21726D01*
X46403Y-21793D01*
X46403Y-21990D01*
X46274Y-21861D01*
X46258Y-21845D01*
X46254Y-21842D01*
X46252Y-21840D01*
X46231Y-21827D01*
X46191Y-21800D01*
X46186Y-21799D01*
X46184Y-21798D01*
X46033Y-21742D01*
X46036Y-21732D01*
X45724Y-21420D01*
X45718Y-21426D01*
X45648Y-21355D01*
X45653Y-21349D01*
X45648Y-21344D01*
X45718Y-21273D01*
X45724Y-21279D01*
X45729Y-21273D01*
X45800Y-21344D01*
X45795Y-21349D01*
X46106Y-21661D01*
X46201Y-21634D01*
X46274Y-21430D01*
X46263Y-21213D01*
X46201Y-21064D01*
X46106Y-21037D01*
X46152Y-20992D01*
X46147Y-20987D01*
X46390Y-20987D01*
X46359Y-21018D01*
X46321Y-21110D01*
X46321Y-21222D01*
X46384Y-21284D01*
X46721Y-21284D01*
X46721Y-21276D01*
X46821Y-21276D01*
X46821Y-21284D01*
X47159Y-21284D01*
X47221Y-21222D01*
X47221Y-21110D01*
X47183Y-21018D01*
X47153Y-20987D01*
X49052Y-20987D01*
X49052Y-23080D01*
X49066Y-23151D01*
X49107Y-23212D01*
X49168Y-23253D01*
X49240Y-23267D01*
X50132Y-23267D01*
X50132Y-24732D01*
X50132Y-24732D01*
G37*
G54D23*
X50132Y-24732D02*
X49240Y-24732D01*
X49168Y-24746D01*
X49107Y-24787D01*
X49066Y-24848D01*
X49052Y-24920D01*
X49052Y-27012D01*
X41627Y-27012D01*
X40687Y-24565D01*
X40687Y-23434D01*
X41627Y-20987D01*
X43274Y-20987D01*
X43261Y-21020D01*
X43260Y-21087D01*
X43260Y-21678D01*
X43286Y-21740D01*
X43333Y-21787D01*
X43395Y-21813D01*
X43462Y-21813D01*
X43996Y-21813D01*
X44363Y-21957D01*
X42828Y-21922D01*
X42793Y-21837D01*
X42662Y-21707D01*
X42492Y-21636D01*
X42308Y-21636D01*
X42137Y-21706D01*
X42007Y-21837D01*
X41936Y-22007D01*
X41936Y-22191D01*
X42006Y-22362D01*
X42137Y-22492D01*
X42297Y-22559D01*
X42263Y-22560D01*
X42114Y-22622D01*
X42088Y-22717D01*
X42400Y-23029D01*
X42711Y-22717D01*
X42685Y-22622D01*
X42504Y-22558D01*
X42662Y-22493D01*
X42792Y-22362D01*
X42803Y-22337D01*
X44252Y-22370D01*
X43269Y-22370D01*
X43189Y-22385D01*
X43167Y-22400D01*
X43122Y-22430D01*
X43030Y-22523D01*
X43021Y-22536D01*
X43002Y-22555D01*
X42840Y-22804D01*
X42782Y-22788D01*
X42470Y-23100D01*
X42476Y-23105D01*
X42405Y-23176D01*
X42400Y-23170D01*
X42329Y-23241D01*
X42329Y-23100D01*
X42017Y-22788D01*
X41922Y-22814D01*
X41849Y-23019D01*
X41860Y-23236D01*
X41922Y-23385D01*
X42017Y-23411D01*
X42329Y-23100D01*
X42329Y-23241D01*
X42088Y-23482D01*
X42114Y-23577D01*
X42294Y-23641D01*
X42293Y-23642D01*
X42137Y-23706D01*
X42007Y-23837D01*
X41936Y-24007D01*
X41936Y-24191D01*
X42006Y-24362D01*
X42137Y-24492D01*
X42307Y-24563D01*
X42491Y-24563D01*
X42662Y-24493D01*
X42792Y-24362D01*
X42858Y-24205D01*
X42858Y-24758D01*
X42837Y-24709D01*
X42790Y-24662D01*
X42728Y-24636D01*
X42661Y-24636D01*
X42071Y-24636D01*
X42009Y-24662D01*
X41962Y-24709D01*
X41936Y-24771D01*
X41936Y-24838D01*
X41936Y-25428D01*
X41962Y-25490D01*
X42009Y-25537D01*
X42071Y-25563D01*
X42138Y-25563D01*
X42345Y-25563D01*
X42345Y-25563D01*
X42429Y-25580D01*
X42429Y-25580D01*
X42498Y-25580D01*
X43693Y-26253D01*
X43706Y-26257D01*
X43721Y-26267D01*
X43762Y-26276D01*
X43792Y-26285D01*
X43805Y-26284D01*
X43823Y-26288D01*
X44173Y-26288D01*
X44353Y-26288D01*
X44376Y-26283D01*
X44399Y-26284D01*
X44512Y-26264D01*
X45110Y-26692D01*
X45135Y-26703D01*
X45163Y-26722D01*
X45187Y-26726D01*
X45205Y-26735D01*
X45233Y-26736D01*
X45265Y-26742D01*
X45591Y-26742D01*
X45607Y-26739D01*
X45623Y-26740D01*
X46889Y-26589D01*
X46926Y-26577D01*
X46960Y-26570D01*
X46972Y-26562D01*
X46988Y-26557D01*
X47017Y-26532D01*
X47046Y-26513D01*
X47173Y-26386D01*
X47192Y-26358D01*
X47214Y-26332D01*
X47221Y-26315D01*
X47231Y-26299D01*
X47237Y-26266D01*
X47249Y-26234D01*
X47303Y-25842D01*
X48410Y-25434D01*
X48414Y-25432D01*
X48420Y-25431D01*
X48469Y-25398D01*
X48499Y-25380D01*
X48501Y-25377D01*
X48507Y-25373D01*
X48634Y-25246D01*
X48657Y-25211D01*
X48684Y-25177D01*
X48971Y-24600D01*
X49027Y-24577D01*
X49124Y-24480D01*
X49177Y-24353D01*
X49177Y-24216D01*
X49124Y-24089D01*
X49027Y-23992D01*
X48979Y-23971D01*
X48691Y-23361D01*
X48691Y-23357D01*
X48687Y-23350D01*
X48684Y-23345D01*
X48674Y-23331D01*
X48633Y-23270D01*
X47259Y-21881D01*
X47258Y-21881D01*
X47258Y-21880D01*
X47200Y-21822D01*
X47139Y-21782D01*
X47139Y-21782D01*
X47139Y-21726D01*
X47130Y-21704D01*
X47183Y-21651D01*
X47221Y-21559D01*
X47221Y-21447D01*
X47159Y-21384D01*
X46821Y-21384D01*
X46821Y-21392D01*
X46721Y-21392D01*
X46721Y-21384D01*
X46384Y-21384D01*
X46321Y-21447D01*
X46321Y-21559D01*
X46359Y-21651D01*
X46412Y-21704D01*
X46403Y-21726D01*
X46403Y-21793D01*
X46403Y-21990D01*
X46274Y-21861D01*
X46258Y-21845D01*
X46254Y-21842D01*
X46252Y-21840D01*
X46231Y-21827D01*
X46191Y-21800D01*
X46186Y-21799D01*
X46184Y-21798D01*
X46033Y-21742D01*
X46036Y-21732D01*
X45724Y-21420D01*
X45718Y-21426D01*
X45648Y-21355D01*
X45653Y-21349D01*
X45648Y-21344D01*
X45718Y-21273D01*
X45724Y-21279D01*
X45729Y-21273D01*
X45800Y-21344D01*
X45795Y-21349D01*
X46106Y-21661D01*
X46201Y-21634D01*
X46274Y-21430D01*
X46263Y-21213D01*
X46201Y-21064D01*
X46106Y-21037D01*
X46152Y-20992D01*
X46147Y-20987D01*
X46390Y-20987D01*
X46359Y-21018D01*
X46321Y-21110D01*
X46321Y-21222D01*
X46384Y-21284D01*
X46721Y-21284D01*
X46721Y-21276D01*
X46821Y-21276D01*
X46821Y-21284D01*
X47159Y-21284D01*
X47221Y-21222D01*
X47221Y-21110D01*
X47183Y-21018D01*
X47153Y-20987D01*
X49052Y-20987D01*
X49052Y-23080D01*
X49066Y-23151D01*
X49107Y-23212D01*
X49168Y-23253D01*
X49240Y-23267D01*
X50132Y-23267D01*
X50132Y-24732D01*
M02*
