G04 (created by PCBNEW (2013-07-07 BZR 4022)-stable) date 15/12/2014 22:10:53*
%MOIN*%
G04 Gerber Fmt 3.4, Leading zero omitted, Abs format*
%FSLAX34Y34*%
G01*
G70*
G90*
G04 APERTURE LIST*
%ADD10C,0.00590551*%
%ADD11R,0.0393701X0.0393701*%
%ADD12R,0.0590551X0.0590551*%
%ADD13C,0.0590551*%
%ADD14R,0.1181X0.1024*%
%ADD15R,0.1102X0.1417*%
%ADD16C,0.0354331*%
%ADD17C,0.019685*%
%ADD18C,0.01*%
G04 APERTURE END LIST*
G54D10*
G54D11*
X46047Y-23508D03*
X46440Y-23508D03*
X45653Y-23508D03*
X45653Y-23114D03*
X46047Y-23114D03*
X46440Y-23114D03*
X45653Y-23901D03*
X46047Y-23901D03*
X46440Y-23901D03*
G54D12*
X42400Y-25100D03*
G54D13*
X42400Y-24100D03*
X42400Y-23100D03*
X42400Y-22100D03*
G54D12*
X43724Y-21349D03*
G54D13*
X44724Y-21349D03*
X45724Y-21349D03*
G54D12*
X47933Y-24673D03*
G54D13*
X47933Y-23673D03*
G54D14*
X41254Y-24000D03*
G54D15*
X49639Y-24000D03*
G54D12*
X43321Y-24463D03*
G54D13*
X44321Y-24463D03*
G54D16*
X48832Y-24284D03*
X46215Y-21637D03*
X45428Y-26082D03*
G54D17*
X49088Y-24284D02*
X48832Y-24284D01*
X49186Y-24284D02*
X49088Y-24284D01*
X49639Y-24000D02*
X49186Y-24284D01*
X44321Y-24463D02*
X45428Y-26082D01*
X44938Y-21859D02*
X45724Y-21349D01*
X42232Y-23116D02*
X44938Y-21859D01*
X41942Y-23528D02*
X42232Y-23116D01*
X41885Y-23586D02*
X41942Y-23528D01*
X41844Y-23586D02*
X41885Y-23586D01*
X41746Y-23586D02*
X41844Y-23586D01*
X41254Y-24000D02*
X41746Y-23586D01*
X45724Y-21349D02*
X46215Y-21637D01*
X46145Y-23015D02*
X46047Y-23114D01*
X46145Y-22917D02*
X46145Y-23015D01*
X46145Y-22876D02*
X46145Y-22917D01*
X46215Y-21637D02*
X46145Y-22876D01*
X46678Y-23606D02*
X47933Y-23673D01*
X46637Y-23606D02*
X46678Y-23606D01*
X46539Y-23606D02*
X46637Y-23606D01*
X46440Y-23508D02*
X46539Y-23606D01*
G54D10*
G36*
X49060Y-24876D02*
X49052Y-24920D01*
X49052Y-27012D01*
X48402Y-27012D01*
X48402Y-23735D01*
X48390Y-23551D01*
X48342Y-23436D01*
X48270Y-23405D01*
X48202Y-23473D01*
X48202Y-23336D01*
X48170Y-23264D01*
X47996Y-23204D01*
X47812Y-23216D01*
X47696Y-23264D01*
X47665Y-23336D01*
X47933Y-23604D01*
X48202Y-23336D01*
X48202Y-23473D01*
X48002Y-23673D01*
X48270Y-23941D01*
X48342Y-23910D01*
X48402Y-23735D01*
X48402Y-27012D01*
X48397Y-27012D01*
X48397Y-24935D01*
X48397Y-24344D01*
X48371Y-24282D01*
X48324Y-24235D01*
X48262Y-24209D01*
X48202Y-24209D01*
X48202Y-24009D01*
X47933Y-23741D01*
X47865Y-23810D01*
X47865Y-23673D01*
X47597Y-23405D01*
X47525Y-23436D01*
X47465Y-23610D01*
X47477Y-23794D01*
X47525Y-23910D01*
X47597Y-23941D01*
X47865Y-23673D01*
X47865Y-23810D01*
X47665Y-24009D01*
X47696Y-24081D01*
X47871Y-24141D01*
X48055Y-24129D01*
X48170Y-24081D01*
X48202Y-24009D01*
X48202Y-24209D01*
X48195Y-24209D01*
X47605Y-24209D01*
X47543Y-24235D01*
X47496Y-24282D01*
X47470Y-24344D01*
X47470Y-24411D01*
X47470Y-25001D01*
X47495Y-25063D01*
X47543Y-25110D01*
X47604Y-25136D01*
X47671Y-25136D01*
X48262Y-25136D01*
X48324Y-25111D01*
X48371Y-25063D01*
X48397Y-25002D01*
X48397Y-24935D01*
X48397Y-27012D01*
X46805Y-27012D01*
X46805Y-24065D01*
X46805Y-23738D01*
X46805Y-23704D01*
X46805Y-23671D01*
X46805Y-23344D01*
X46805Y-23311D01*
X46805Y-23277D01*
X46805Y-22950D01*
X46805Y-22883D01*
X46780Y-22822D01*
X46732Y-22774D01*
X46671Y-22749D01*
X46531Y-22749D01*
X46489Y-22791D01*
X46489Y-23065D01*
X46763Y-23065D01*
X46805Y-23023D01*
X46805Y-22950D01*
X46805Y-23277D01*
X46805Y-23204D01*
X46763Y-23162D01*
X46718Y-23162D01*
X46671Y-23143D01*
X46531Y-23143D01*
X46511Y-23162D01*
X46489Y-23162D01*
X46489Y-23185D01*
X46489Y-23437D01*
X46489Y-23459D01*
X46511Y-23459D01*
X46531Y-23479D01*
X46671Y-23479D01*
X46718Y-23459D01*
X46763Y-23459D01*
X46805Y-23417D01*
X46805Y-23344D01*
X46805Y-23671D01*
X46805Y-23598D01*
X46763Y-23556D01*
X46718Y-23556D01*
X46671Y-23536D01*
X46531Y-23536D01*
X46511Y-23556D01*
X46489Y-23556D01*
X46489Y-23578D01*
X46489Y-23830D01*
X46489Y-23853D01*
X46511Y-23853D01*
X46531Y-23872D01*
X46671Y-23873D01*
X46718Y-23853D01*
X46763Y-23853D01*
X46805Y-23811D01*
X46805Y-23738D01*
X46805Y-24065D01*
X46805Y-23992D01*
X46763Y-23950D01*
X46489Y-23950D01*
X46489Y-24224D01*
X46531Y-24266D01*
X46671Y-24266D01*
X46732Y-24241D01*
X46780Y-24193D01*
X46805Y-24132D01*
X46805Y-24065D01*
X46805Y-27012D01*
X46412Y-27012D01*
X46412Y-24065D01*
X46412Y-23738D01*
X46412Y-23704D01*
X46412Y-23671D01*
X46412Y-23344D01*
X46412Y-23311D01*
X46412Y-23277D01*
X46412Y-22950D01*
X46412Y-22883D01*
X46392Y-22836D01*
X46392Y-22791D01*
X46350Y-22749D01*
X46277Y-22749D01*
X46277Y-22749D01*
X46244Y-22749D01*
X46210Y-22749D01*
X46210Y-22749D01*
X46192Y-22749D01*
X46192Y-21412D01*
X46181Y-21228D01*
X46133Y-21112D01*
X46061Y-21081D01*
X45792Y-21349D01*
X46061Y-21617D01*
X46133Y-21586D01*
X46192Y-21412D01*
X46192Y-22749D01*
X46137Y-22749D01*
X46095Y-22791D01*
X46095Y-22836D01*
X46076Y-22883D01*
X46075Y-22950D01*
X46075Y-23023D01*
X46095Y-23043D01*
X46095Y-23065D01*
X46118Y-23065D01*
X46370Y-23065D01*
X46392Y-23065D01*
X46392Y-23043D01*
X46412Y-23023D01*
X46412Y-22950D01*
X46412Y-23277D01*
X46412Y-23204D01*
X46392Y-23185D01*
X46392Y-23162D01*
X46370Y-23162D01*
X46350Y-23143D01*
X46277Y-23143D01*
X46277Y-23143D01*
X46244Y-23143D01*
X46210Y-23143D01*
X46210Y-23143D01*
X46137Y-23143D01*
X46118Y-23162D01*
X46095Y-23162D01*
X46095Y-23185D01*
X46075Y-23204D01*
X46075Y-23277D01*
X46075Y-23311D01*
X46075Y-23344D01*
X46075Y-23417D01*
X46095Y-23437D01*
X46095Y-23459D01*
X46118Y-23459D01*
X46137Y-23479D01*
X46210Y-23479D01*
X46210Y-23479D01*
X46244Y-23479D01*
X46277Y-23479D01*
X46277Y-23479D01*
X46350Y-23479D01*
X46370Y-23459D01*
X46392Y-23459D01*
X46392Y-23437D01*
X46412Y-23417D01*
X46412Y-23344D01*
X46412Y-23671D01*
X46412Y-23598D01*
X46392Y-23578D01*
X46392Y-23556D01*
X46370Y-23556D01*
X46350Y-23536D01*
X46277Y-23536D01*
X46277Y-23536D01*
X46244Y-23536D01*
X46210Y-23536D01*
X46210Y-23536D01*
X46137Y-23536D01*
X46118Y-23556D01*
X46095Y-23556D01*
X46095Y-23578D01*
X46075Y-23598D01*
X46075Y-23671D01*
X46075Y-23704D01*
X46075Y-23738D01*
X46075Y-23811D01*
X46095Y-23830D01*
X46095Y-23853D01*
X46118Y-23853D01*
X46137Y-23872D01*
X46210Y-23873D01*
X46210Y-23873D01*
X46244Y-23873D01*
X46277Y-23873D01*
X46277Y-23873D01*
X46350Y-23872D01*
X46370Y-23853D01*
X46392Y-23853D01*
X46392Y-23830D01*
X46412Y-23811D01*
X46412Y-23738D01*
X46412Y-24065D01*
X46412Y-23992D01*
X46392Y-23972D01*
X46392Y-23950D01*
X46370Y-23950D01*
X46118Y-23950D01*
X46095Y-23950D01*
X46095Y-23972D01*
X46075Y-23992D01*
X46075Y-24065D01*
X46076Y-24132D01*
X46095Y-24179D01*
X46095Y-24224D01*
X46137Y-24266D01*
X46210Y-24266D01*
X46210Y-24266D01*
X46244Y-24266D01*
X46277Y-24266D01*
X46277Y-24266D01*
X46350Y-24266D01*
X46392Y-24224D01*
X46392Y-24179D01*
X46412Y-24132D01*
X46412Y-24065D01*
X46412Y-27012D01*
X46018Y-27012D01*
X46018Y-24065D01*
X46018Y-23738D01*
X46018Y-23704D01*
X46018Y-23671D01*
X46018Y-23344D01*
X46018Y-23311D01*
X46018Y-23277D01*
X46018Y-22950D01*
X46018Y-22883D01*
X45998Y-22836D01*
X45998Y-22791D01*
X45992Y-22785D01*
X45992Y-21686D01*
X45724Y-21418D01*
X45655Y-21486D01*
X45655Y-21349D01*
X45387Y-21081D01*
X45315Y-21112D01*
X45256Y-21287D01*
X45267Y-21471D01*
X45315Y-21586D01*
X45387Y-21617D01*
X45655Y-21349D01*
X45655Y-21486D01*
X45456Y-21686D01*
X45487Y-21758D01*
X45661Y-21818D01*
X45845Y-21806D01*
X45961Y-21758D01*
X45992Y-21686D01*
X45992Y-22785D01*
X45956Y-22749D01*
X45883Y-22749D01*
X45883Y-22749D01*
X45850Y-22749D01*
X45817Y-22749D01*
X45817Y-22749D01*
X45743Y-22749D01*
X45701Y-22791D01*
X45701Y-22836D01*
X45682Y-22883D01*
X45682Y-22950D01*
X45682Y-23023D01*
X45701Y-23043D01*
X45701Y-23065D01*
X45724Y-23065D01*
X45976Y-23065D01*
X45998Y-23065D01*
X45998Y-23043D01*
X46018Y-23023D01*
X46018Y-22950D01*
X46018Y-23277D01*
X46018Y-23204D01*
X45998Y-23185D01*
X45998Y-23162D01*
X45976Y-23162D01*
X45956Y-23143D01*
X45883Y-23143D01*
X45883Y-23143D01*
X45850Y-23143D01*
X45817Y-23143D01*
X45817Y-23143D01*
X45743Y-23143D01*
X45724Y-23162D01*
X45701Y-23162D01*
X45701Y-23185D01*
X45682Y-23204D01*
X45682Y-23277D01*
X45682Y-23311D01*
X45682Y-23344D01*
X45682Y-23417D01*
X45701Y-23437D01*
X45701Y-23459D01*
X45724Y-23459D01*
X45743Y-23479D01*
X45817Y-23479D01*
X45817Y-23479D01*
X45850Y-23479D01*
X45883Y-23479D01*
X45883Y-23479D01*
X45956Y-23479D01*
X45976Y-23459D01*
X45998Y-23459D01*
X45998Y-23437D01*
X46018Y-23417D01*
X46018Y-23344D01*
X46018Y-23671D01*
X46018Y-23598D01*
X45998Y-23578D01*
X45998Y-23556D01*
X45976Y-23556D01*
X45956Y-23536D01*
X45883Y-23536D01*
X45883Y-23536D01*
X45850Y-23536D01*
X45817Y-23536D01*
X45817Y-23536D01*
X45743Y-23536D01*
X45724Y-23556D01*
X45701Y-23556D01*
X45701Y-23578D01*
X45682Y-23598D01*
X45682Y-23671D01*
X45682Y-23704D01*
X45682Y-23738D01*
X45682Y-23811D01*
X45701Y-23830D01*
X45701Y-23853D01*
X45724Y-23853D01*
X45743Y-23872D01*
X45817Y-23873D01*
X45817Y-23873D01*
X45850Y-23873D01*
X45883Y-23873D01*
X45883Y-23873D01*
X45956Y-23872D01*
X45976Y-23853D01*
X45998Y-23853D01*
X45998Y-23830D01*
X46018Y-23811D01*
X46018Y-23738D01*
X46018Y-24065D01*
X46018Y-23992D01*
X45998Y-23972D01*
X45998Y-23950D01*
X45976Y-23950D01*
X45724Y-23950D01*
X45701Y-23950D01*
X45701Y-23972D01*
X45682Y-23992D01*
X45682Y-24065D01*
X45682Y-24132D01*
X45701Y-24179D01*
X45701Y-24224D01*
X45743Y-24266D01*
X45817Y-24266D01*
X45817Y-24266D01*
X45850Y-24266D01*
X45883Y-24266D01*
X45883Y-24266D01*
X45956Y-24266D01*
X45998Y-24224D01*
X45998Y-24179D01*
X46018Y-24132D01*
X46018Y-24065D01*
X46018Y-27012D01*
X45605Y-27012D01*
X45605Y-24224D01*
X45605Y-23950D01*
X45605Y-23853D01*
X45605Y-23830D01*
X45605Y-23578D01*
X45605Y-23556D01*
X45605Y-23459D01*
X45605Y-23437D01*
X45605Y-23185D01*
X45605Y-23162D01*
X45605Y-23065D01*
X45605Y-22791D01*
X45563Y-22749D01*
X45423Y-22749D01*
X45361Y-22774D01*
X45314Y-22822D01*
X45288Y-22883D01*
X45288Y-22950D01*
X45288Y-23023D01*
X45330Y-23065D01*
X45605Y-23065D01*
X45605Y-23162D01*
X45582Y-23162D01*
X45563Y-23143D01*
X45423Y-23143D01*
X45375Y-23162D01*
X45330Y-23162D01*
X45288Y-23204D01*
X45288Y-23277D01*
X45288Y-23311D01*
X45288Y-23344D01*
X45288Y-23417D01*
X45330Y-23459D01*
X45375Y-23459D01*
X45423Y-23479D01*
X45563Y-23479D01*
X45582Y-23459D01*
X45605Y-23459D01*
X45605Y-23556D01*
X45582Y-23556D01*
X45563Y-23536D01*
X45423Y-23536D01*
X45375Y-23556D01*
X45330Y-23556D01*
X45288Y-23598D01*
X45288Y-23671D01*
X45288Y-23704D01*
X45288Y-23738D01*
X45288Y-23811D01*
X45330Y-23853D01*
X45375Y-23853D01*
X45423Y-23873D01*
X45563Y-23872D01*
X45582Y-23853D01*
X45605Y-23853D01*
X45605Y-23950D01*
X45330Y-23950D01*
X45288Y-23992D01*
X45288Y-24065D01*
X45288Y-24132D01*
X45314Y-24193D01*
X45361Y-24241D01*
X45423Y-24266D01*
X45563Y-24266D01*
X45605Y-24224D01*
X45605Y-27012D01*
X44789Y-27012D01*
X44789Y-24525D01*
X44778Y-24341D01*
X44730Y-24226D01*
X44658Y-24194D01*
X44589Y-24263D01*
X44589Y-24126D01*
X44558Y-24054D01*
X44384Y-23994D01*
X44200Y-24006D01*
X44084Y-24054D01*
X44053Y-24126D01*
X44321Y-24394D01*
X44589Y-24126D01*
X44589Y-24263D01*
X44389Y-24463D01*
X44658Y-24731D01*
X44730Y-24700D01*
X44789Y-24525D01*
X44789Y-27012D01*
X44589Y-27012D01*
X44589Y-24799D01*
X44321Y-24531D01*
X44252Y-24600D01*
X44252Y-24463D01*
X43984Y-24194D01*
X43912Y-24226D01*
X43853Y-24400D01*
X43864Y-24584D01*
X43912Y-24700D01*
X43984Y-24731D01*
X44252Y-24463D01*
X44252Y-24600D01*
X44053Y-24799D01*
X44084Y-24871D01*
X44258Y-24931D01*
X44442Y-24919D01*
X44558Y-24871D01*
X44589Y-24799D01*
X44589Y-27012D01*
X43784Y-27012D01*
X43784Y-24725D01*
X43784Y-24134D01*
X43759Y-24072D01*
X43712Y-24025D01*
X43650Y-23999D01*
X43583Y-23999D01*
X42992Y-23999D01*
X42931Y-24025D01*
X42883Y-24072D01*
X42868Y-24109D01*
X42868Y-23162D01*
X42863Y-23086D01*
X42863Y-22008D01*
X42793Y-21837D01*
X42662Y-21707D01*
X42492Y-21636D01*
X42308Y-21636D01*
X42137Y-21706D01*
X42007Y-21837D01*
X41936Y-22007D01*
X41936Y-22191D01*
X42006Y-22362D01*
X42137Y-22492D01*
X42307Y-22563D01*
X42491Y-22563D01*
X42662Y-22493D01*
X42792Y-22362D01*
X42863Y-22192D01*
X42863Y-22008D01*
X42863Y-23086D01*
X42856Y-22978D01*
X42808Y-22862D01*
X42736Y-22831D01*
X42668Y-22900D01*
X42668Y-22763D01*
X42637Y-22691D01*
X42462Y-22631D01*
X42278Y-22643D01*
X42162Y-22691D01*
X42131Y-22763D01*
X42400Y-23031D01*
X42668Y-22763D01*
X42668Y-22900D01*
X42468Y-23100D01*
X42736Y-23368D01*
X42808Y-23337D01*
X42868Y-23162D01*
X42868Y-24109D01*
X42863Y-24121D01*
X42863Y-24008D01*
X42793Y-23837D01*
X42668Y-23712D01*
X42668Y-23436D01*
X42400Y-23168D01*
X42331Y-23236D01*
X42331Y-23100D01*
X42063Y-22831D01*
X41991Y-22862D01*
X41931Y-23037D01*
X41943Y-23221D01*
X41991Y-23337D01*
X42063Y-23368D01*
X42331Y-23100D01*
X42331Y-23236D01*
X42131Y-23436D01*
X42162Y-23508D01*
X42337Y-23568D01*
X42521Y-23556D01*
X42637Y-23508D01*
X42668Y-23436D01*
X42668Y-23712D01*
X42662Y-23707D01*
X42492Y-23636D01*
X42308Y-23636D01*
X42137Y-23706D01*
X42012Y-23831D01*
X42012Y-23521D01*
X42012Y-23454D01*
X41986Y-23392D01*
X41939Y-23345D01*
X41877Y-23319D01*
X41344Y-23319D01*
X41302Y-23361D01*
X41302Y-23951D01*
X41310Y-23951D01*
X41310Y-24048D01*
X41302Y-24048D01*
X41302Y-24638D01*
X41344Y-24680D01*
X41877Y-24680D01*
X41939Y-24654D01*
X41986Y-24607D01*
X42012Y-24545D01*
X42012Y-24478D01*
X42012Y-24367D01*
X42137Y-24492D01*
X42307Y-24563D01*
X42491Y-24563D01*
X42662Y-24493D01*
X42792Y-24362D01*
X42858Y-24205D01*
X42858Y-24758D01*
X42837Y-24709D01*
X42790Y-24662D01*
X42728Y-24636D01*
X42661Y-24636D01*
X42071Y-24636D01*
X42009Y-24662D01*
X41962Y-24709D01*
X41936Y-24771D01*
X41936Y-24838D01*
X41936Y-25428D01*
X41962Y-25490D01*
X42009Y-25537D01*
X42071Y-25563D01*
X42138Y-25563D01*
X42728Y-25563D01*
X42790Y-25537D01*
X42837Y-25490D01*
X42863Y-25428D01*
X42863Y-25361D01*
X42863Y-24804D01*
X42883Y-24853D01*
X42930Y-24900D01*
X42992Y-24926D01*
X43059Y-24926D01*
X43649Y-24926D01*
X43711Y-24901D01*
X43759Y-24853D01*
X43784Y-24792D01*
X43784Y-24725D01*
X43784Y-27012D01*
X41627Y-27012D01*
X40731Y-24680D01*
X41163Y-24680D01*
X41205Y-24638D01*
X41205Y-24048D01*
X41197Y-24048D01*
X41197Y-23951D01*
X41205Y-23951D01*
X41205Y-23361D01*
X41163Y-23319D01*
X40731Y-23319D01*
X41627Y-20987D01*
X43274Y-20987D01*
X43261Y-21020D01*
X43260Y-21087D01*
X43260Y-21678D01*
X43286Y-21740D01*
X43333Y-21787D01*
X43395Y-21813D01*
X43462Y-21813D01*
X44052Y-21813D01*
X44114Y-21787D01*
X44162Y-21740D01*
X44187Y-21678D01*
X44187Y-21611D01*
X44187Y-21021D01*
X44174Y-20987D01*
X44431Y-20987D01*
X44331Y-21086D01*
X44261Y-21257D01*
X44260Y-21441D01*
X44331Y-21611D01*
X44461Y-21742D01*
X44631Y-21813D01*
X44816Y-21813D01*
X44986Y-21742D01*
X45117Y-21612D01*
X45187Y-21442D01*
X45187Y-21257D01*
X45117Y-21087D01*
X45017Y-20987D01*
X45467Y-20987D01*
X45456Y-21013D01*
X45724Y-21281D01*
X45992Y-21013D01*
X45981Y-20987D01*
X49052Y-20987D01*
X49052Y-23080D01*
X49060Y-23123D01*
X49054Y-23123D01*
X48992Y-23148D01*
X48945Y-23196D01*
X48919Y-23257D01*
X48919Y-23324D01*
X48919Y-23947D01*
X48901Y-23939D01*
X48763Y-23939D01*
X48636Y-23991D01*
X48539Y-24088D01*
X48486Y-24215D01*
X48486Y-24352D01*
X48539Y-24479D01*
X48636Y-24577D01*
X48763Y-24629D01*
X48900Y-24629D01*
X48919Y-24621D01*
X48919Y-24741D01*
X48945Y-24803D01*
X48992Y-24850D01*
X49054Y-24876D01*
X49060Y-24876D01*
X49060Y-24876D01*
G37*
G54D18*
X49060Y-24876D02*
X49052Y-24920D01*
X49052Y-27012D01*
X48402Y-27012D01*
X48402Y-23735D01*
X48390Y-23551D01*
X48342Y-23436D01*
X48270Y-23405D01*
X48202Y-23473D01*
X48202Y-23336D01*
X48170Y-23264D01*
X47996Y-23204D01*
X47812Y-23216D01*
X47696Y-23264D01*
X47665Y-23336D01*
X47933Y-23604D01*
X48202Y-23336D01*
X48202Y-23473D01*
X48002Y-23673D01*
X48270Y-23941D01*
X48342Y-23910D01*
X48402Y-23735D01*
X48402Y-27012D01*
X48397Y-27012D01*
X48397Y-24935D01*
X48397Y-24344D01*
X48371Y-24282D01*
X48324Y-24235D01*
X48262Y-24209D01*
X48202Y-24209D01*
X48202Y-24009D01*
X47933Y-23741D01*
X47865Y-23810D01*
X47865Y-23673D01*
X47597Y-23405D01*
X47525Y-23436D01*
X47465Y-23610D01*
X47477Y-23794D01*
X47525Y-23910D01*
X47597Y-23941D01*
X47865Y-23673D01*
X47865Y-23810D01*
X47665Y-24009D01*
X47696Y-24081D01*
X47871Y-24141D01*
X48055Y-24129D01*
X48170Y-24081D01*
X48202Y-24009D01*
X48202Y-24209D01*
X48195Y-24209D01*
X47605Y-24209D01*
X47543Y-24235D01*
X47496Y-24282D01*
X47470Y-24344D01*
X47470Y-24411D01*
X47470Y-25001D01*
X47495Y-25063D01*
X47543Y-25110D01*
X47604Y-25136D01*
X47671Y-25136D01*
X48262Y-25136D01*
X48324Y-25111D01*
X48371Y-25063D01*
X48397Y-25002D01*
X48397Y-24935D01*
X48397Y-27012D01*
X46805Y-27012D01*
X46805Y-24065D01*
X46805Y-23738D01*
X46805Y-23704D01*
X46805Y-23671D01*
X46805Y-23344D01*
X46805Y-23311D01*
X46805Y-23277D01*
X46805Y-22950D01*
X46805Y-22883D01*
X46780Y-22822D01*
X46732Y-22774D01*
X46671Y-22749D01*
X46531Y-22749D01*
X46489Y-22791D01*
X46489Y-23065D01*
X46763Y-23065D01*
X46805Y-23023D01*
X46805Y-22950D01*
X46805Y-23277D01*
X46805Y-23204D01*
X46763Y-23162D01*
X46718Y-23162D01*
X46671Y-23143D01*
X46531Y-23143D01*
X46511Y-23162D01*
X46489Y-23162D01*
X46489Y-23185D01*
X46489Y-23437D01*
X46489Y-23459D01*
X46511Y-23459D01*
X46531Y-23479D01*
X46671Y-23479D01*
X46718Y-23459D01*
X46763Y-23459D01*
X46805Y-23417D01*
X46805Y-23344D01*
X46805Y-23671D01*
X46805Y-23598D01*
X46763Y-23556D01*
X46718Y-23556D01*
X46671Y-23536D01*
X46531Y-23536D01*
X46511Y-23556D01*
X46489Y-23556D01*
X46489Y-23578D01*
X46489Y-23830D01*
X46489Y-23853D01*
X46511Y-23853D01*
X46531Y-23872D01*
X46671Y-23873D01*
X46718Y-23853D01*
X46763Y-23853D01*
X46805Y-23811D01*
X46805Y-23738D01*
X46805Y-24065D01*
X46805Y-23992D01*
X46763Y-23950D01*
X46489Y-23950D01*
X46489Y-24224D01*
X46531Y-24266D01*
X46671Y-24266D01*
X46732Y-24241D01*
X46780Y-24193D01*
X46805Y-24132D01*
X46805Y-24065D01*
X46805Y-27012D01*
X46412Y-27012D01*
X46412Y-24065D01*
X46412Y-23738D01*
X46412Y-23704D01*
X46412Y-23671D01*
X46412Y-23344D01*
X46412Y-23311D01*
X46412Y-23277D01*
X46412Y-22950D01*
X46412Y-22883D01*
X46392Y-22836D01*
X46392Y-22791D01*
X46350Y-22749D01*
X46277Y-22749D01*
X46277Y-22749D01*
X46244Y-22749D01*
X46210Y-22749D01*
X46210Y-22749D01*
X46192Y-22749D01*
X46192Y-21412D01*
X46181Y-21228D01*
X46133Y-21112D01*
X46061Y-21081D01*
X45792Y-21349D01*
X46061Y-21617D01*
X46133Y-21586D01*
X46192Y-21412D01*
X46192Y-22749D01*
X46137Y-22749D01*
X46095Y-22791D01*
X46095Y-22836D01*
X46076Y-22883D01*
X46075Y-22950D01*
X46075Y-23023D01*
X46095Y-23043D01*
X46095Y-23065D01*
X46118Y-23065D01*
X46370Y-23065D01*
X46392Y-23065D01*
X46392Y-23043D01*
X46412Y-23023D01*
X46412Y-22950D01*
X46412Y-23277D01*
X46412Y-23204D01*
X46392Y-23185D01*
X46392Y-23162D01*
X46370Y-23162D01*
X46350Y-23143D01*
X46277Y-23143D01*
X46277Y-23143D01*
X46244Y-23143D01*
X46210Y-23143D01*
X46210Y-23143D01*
X46137Y-23143D01*
X46118Y-23162D01*
X46095Y-23162D01*
X46095Y-23185D01*
X46075Y-23204D01*
X46075Y-23277D01*
X46075Y-23311D01*
X46075Y-23344D01*
X46075Y-23417D01*
X46095Y-23437D01*
X46095Y-23459D01*
X46118Y-23459D01*
X46137Y-23479D01*
X46210Y-23479D01*
X46210Y-23479D01*
X46244Y-23479D01*
X46277Y-23479D01*
X46277Y-23479D01*
X46350Y-23479D01*
X46370Y-23459D01*
X46392Y-23459D01*
X46392Y-23437D01*
X46412Y-23417D01*
X46412Y-23344D01*
X46412Y-23671D01*
X46412Y-23598D01*
X46392Y-23578D01*
X46392Y-23556D01*
X46370Y-23556D01*
X46350Y-23536D01*
X46277Y-23536D01*
X46277Y-23536D01*
X46244Y-23536D01*
X46210Y-23536D01*
X46210Y-23536D01*
X46137Y-23536D01*
X46118Y-23556D01*
X46095Y-23556D01*
X46095Y-23578D01*
X46075Y-23598D01*
X46075Y-23671D01*
X46075Y-23704D01*
X46075Y-23738D01*
X46075Y-23811D01*
X46095Y-23830D01*
X46095Y-23853D01*
X46118Y-23853D01*
X46137Y-23872D01*
X46210Y-23873D01*
X46210Y-23873D01*
X46244Y-23873D01*
X46277Y-23873D01*
X46277Y-23873D01*
X46350Y-23872D01*
X46370Y-23853D01*
X46392Y-23853D01*
X46392Y-23830D01*
X46412Y-23811D01*
X46412Y-23738D01*
X46412Y-24065D01*
X46412Y-23992D01*
X46392Y-23972D01*
X46392Y-23950D01*
X46370Y-23950D01*
X46118Y-23950D01*
X46095Y-23950D01*
X46095Y-23972D01*
X46075Y-23992D01*
X46075Y-24065D01*
X46076Y-24132D01*
X46095Y-24179D01*
X46095Y-24224D01*
X46137Y-24266D01*
X46210Y-24266D01*
X46210Y-24266D01*
X46244Y-24266D01*
X46277Y-24266D01*
X46277Y-24266D01*
X46350Y-24266D01*
X46392Y-24224D01*
X46392Y-24179D01*
X46412Y-24132D01*
X46412Y-24065D01*
X46412Y-27012D01*
X46018Y-27012D01*
X46018Y-24065D01*
X46018Y-23738D01*
X46018Y-23704D01*
X46018Y-23671D01*
X46018Y-23344D01*
X46018Y-23311D01*
X46018Y-23277D01*
X46018Y-22950D01*
X46018Y-22883D01*
X45998Y-22836D01*
X45998Y-22791D01*
X45992Y-22785D01*
X45992Y-21686D01*
X45724Y-21418D01*
X45655Y-21486D01*
X45655Y-21349D01*
X45387Y-21081D01*
X45315Y-21112D01*
X45256Y-21287D01*
X45267Y-21471D01*
X45315Y-21586D01*
X45387Y-21617D01*
X45655Y-21349D01*
X45655Y-21486D01*
X45456Y-21686D01*
X45487Y-21758D01*
X45661Y-21818D01*
X45845Y-21806D01*
X45961Y-21758D01*
X45992Y-21686D01*
X45992Y-22785D01*
X45956Y-22749D01*
X45883Y-22749D01*
X45883Y-22749D01*
X45850Y-22749D01*
X45817Y-22749D01*
X45817Y-22749D01*
X45743Y-22749D01*
X45701Y-22791D01*
X45701Y-22836D01*
X45682Y-22883D01*
X45682Y-22950D01*
X45682Y-23023D01*
X45701Y-23043D01*
X45701Y-23065D01*
X45724Y-23065D01*
X45976Y-23065D01*
X45998Y-23065D01*
X45998Y-23043D01*
X46018Y-23023D01*
X46018Y-22950D01*
X46018Y-23277D01*
X46018Y-23204D01*
X45998Y-23185D01*
X45998Y-23162D01*
X45976Y-23162D01*
X45956Y-23143D01*
X45883Y-23143D01*
X45883Y-23143D01*
X45850Y-23143D01*
X45817Y-23143D01*
X45817Y-23143D01*
X45743Y-23143D01*
X45724Y-23162D01*
X45701Y-23162D01*
X45701Y-23185D01*
X45682Y-23204D01*
X45682Y-23277D01*
X45682Y-23311D01*
X45682Y-23344D01*
X45682Y-23417D01*
X45701Y-23437D01*
X45701Y-23459D01*
X45724Y-23459D01*
X45743Y-23479D01*
X45817Y-23479D01*
X45817Y-23479D01*
X45850Y-23479D01*
X45883Y-23479D01*
X45883Y-23479D01*
X45956Y-23479D01*
X45976Y-23459D01*
X45998Y-23459D01*
X45998Y-23437D01*
X46018Y-23417D01*
X46018Y-23344D01*
X46018Y-23671D01*
X46018Y-23598D01*
X45998Y-23578D01*
X45998Y-23556D01*
X45976Y-23556D01*
X45956Y-23536D01*
X45883Y-23536D01*
X45883Y-23536D01*
X45850Y-23536D01*
X45817Y-23536D01*
X45817Y-23536D01*
X45743Y-23536D01*
X45724Y-23556D01*
X45701Y-23556D01*
X45701Y-23578D01*
X45682Y-23598D01*
X45682Y-23671D01*
X45682Y-23704D01*
X45682Y-23738D01*
X45682Y-23811D01*
X45701Y-23830D01*
X45701Y-23853D01*
X45724Y-23853D01*
X45743Y-23872D01*
X45817Y-23873D01*
X45817Y-23873D01*
X45850Y-23873D01*
X45883Y-23873D01*
X45883Y-23873D01*
X45956Y-23872D01*
X45976Y-23853D01*
X45998Y-23853D01*
X45998Y-23830D01*
X46018Y-23811D01*
X46018Y-23738D01*
X46018Y-24065D01*
X46018Y-23992D01*
X45998Y-23972D01*
X45998Y-23950D01*
X45976Y-23950D01*
X45724Y-23950D01*
X45701Y-23950D01*
X45701Y-23972D01*
X45682Y-23992D01*
X45682Y-24065D01*
X45682Y-24132D01*
X45701Y-24179D01*
X45701Y-24224D01*
X45743Y-24266D01*
X45817Y-24266D01*
X45817Y-24266D01*
X45850Y-24266D01*
X45883Y-24266D01*
X45883Y-24266D01*
X45956Y-24266D01*
X45998Y-24224D01*
X45998Y-24179D01*
X46018Y-24132D01*
X46018Y-24065D01*
X46018Y-27012D01*
X45605Y-27012D01*
X45605Y-24224D01*
X45605Y-23950D01*
X45605Y-23853D01*
X45605Y-23830D01*
X45605Y-23578D01*
X45605Y-23556D01*
X45605Y-23459D01*
X45605Y-23437D01*
X45605Y-23185D01*
X45605Y-23162D01*
X45605Y-23065D01*
X45605Y-22791D01*
X45563Y-22749D01*
X45423Y-22749D01*
X45361Y-22774D01*
X45314Y-22822D01*
X45288Y-22883D01*
X45288Y-22950D01*
X45288Y-23023D01*
X45330Y-23065D01*
X45605Y-23065D01*
X45605Y-23162D01*
X45582Y-23162D01*
X45563Y-23143D01*
X45423Y-23143D01*
X45375Y-23162D01*
X45330Y-23162D01*
X45288Y-23204D01*
X45288Y-23277D01*
X45288Y-23311D01*
X45288Y-23344D01*
X45288Y-23417D01*
X45330Y-23459D01*
X45375Y-23459D01*
X45423Y-23479D01*
X45563Y-23479D01*
X45582Y-23459D01*
X45605Y-23459D01*
X45605Y-23556D01*
X45582Y-23556D01*
X45563Y-23536D01*
X45423Y-23536D01*
X45375Y-23556D01*
X45330Y-23556D01*
X45288Y-23598D01*
X45288Y-23671D01*
X45288Y-23704D01*
X45288Y-23738D01*
X45288Y-23811D01*
X45330Y-23853D01*
X45375Y-23853D01*
X45423Y-23873D01*
X45563Y-23872D01*
X45582Y-23853D01*
X45605Y-23853D01*
X45605Y-23950D01*
X45330Y-23950D01*
X45288Y-23992D01*
X45288Y-24065D01*
X45288Y-24132D01*
X45314Y-24193D01*
X45361Y-24241D01*
X45423Y-24266D01*
X45563Y-24266D01*
X45605Y-24224D01*
X45605Y-27012D01*
X44789Y-27012D01*
X44789Y-24525D01*
X44778Y-24341D01*
X44730Y-24226D01*
X44658Y-24194D01*
X44589Y-24263D01*
X44589Y-24126D01*
X44558Y-24054D01*
X44384Y-23994D01*
X44200Y-24006D01*
X44084Y-24054D01*
X44053Y-24126D01*
X44321Y-24394D01*
X44589Y-24126D01*
X44589Y-24263D01*
X44389Y-24463D01*
X44658Y-24731D01*
X44730Y-24700D01*
X44789Y-24525D01*
X44789Y-27012D01*
X44589Y-27012D01*
X44589Y-24799D01*
X44321Y-24531D01*
X44252Y-24600D01*
X44252Y-24463D01*
X43984Y-24194D01*
X43912Y-24226D01*
X43853Y-24400D01*
X43864Y-24584D01*
X43912Y-24700D01*
X43984Y-24731D01*
X44252Y-24463D01*
X44252Y-24600D01*
X44053Y-24799D01*
X44084Y-24871D01*
X44258Y-24931D01*
X44442Y-24919D01*
X44558Y-24871D01*
X44589Y-24799D01*
X44589Y-27012D01*
X43784Y-27012D01*
X43784Y-24725D01*
X43784Y-24134D01*
X43759Y-24072D01*
X43712Y-24025D01*
X43650Y-23999D01*
X43583Y-23999D01*
X42992Y-23999D01*
X42931Y-24025D01*
X42883Y-24072D01*
X42868Y-24109D01*
X42868Y-23162D01*
X42863Y-23086D01*
X42863Y-22008D01*
X42793Y-21837D01*
X42662Y-21707D01*
X42492Y-21636D01*
X42308Y-21636D01*
X42137Y-21706D01*
X42007Y-21837D01*
X41936Y-22007D01*
X41936Y-22191D01*
X42006Y-22362D01*
X42137Y-22492D01*
X42307Y-22563D01*
X42491Y-22563D01*
X42662Y-22493D01*
X42792Y-22362D01*
X42863Y-22192D01*
X42863Y-22008D01*
X42863Y-23086D01*
X42856Y-22978D01*
X42808Y-22862D01*
X42736Y-22831D01*
X42668Y-22900D01*
X42668Y-22763D01*
X42637Y-22691D01*
X42462Y-22631D01*
X42278Y-22643D01*
X42162Y-22691D01*
X42131Y-22763D01*
X42400Y-23031D01*
X42668Y-22763D01*
X42668Y-22900D01*
X42468Y-23100D01*
X42736Y-23368D01*
X42808Y-23337D01*
X42868Y-23162D01*
X42868Y-24109D01*
X42863Y-24121D01*
X42863Y-24008D01*
X42793Y-23837D01*
X42668Y-23712D01*
X42668Y-23436D01*
X42400Y-23168D01*
X42331Y-23236D01*
X42331Y-23100D01*
X42063Y-22831D01*
X41991Y-22862D01*
X41931Y-23037D01*
X41943Y-23221D01*
X41991Y-23337D01*
X42063Y-23368D01*
X42331Y-23100D01*
X42331Y-23236D01*
X42131Y-23436D01*
X42162Y-23508D01*
X42337Y-23568D01*
X42521Y-23556D01*
X42637Y-23508D01*
X42668Y-23436D01*
X42668Y-23712D01*
X42662Y-23707D01*
X42492Y-23636D01*
X42308Y-23636D01*
X42137Y-23706D01*
X42012Y-23831D01*
X42012Y-23521D01*
X42012Y-23454D01*
X41986Y-23392D01*
X41939Y-23345D01*
X41877Y-23319D01*
X41344Y-23319D01*
X41302Y-23361D01*
X41302Y-23951D01*
X41310Y-23951D01*
X41310Y-24048D01*
X41302Y-24048D01*
X41302Y-24638D01*
X41344Y-24680D01*
X41877Y-24680D01*
X41939Y-24654D01*
X41986Y-24607D01*
X42012Y-24545D01*
X42012Y-24478D01*
X42012Y-24367D01*
X42137Y-24492D01*
X42307Y-24563D01*
X42491Y-24563D01*
X42662Y-24493D01*
X42792Y-24362D01*
X42858Y-24205D01*
X42858Y-24758D01*
X42837Y-24709D01*
X42790Y-24662D01*
X42728Y-24636D01*
X42661Y-24636D01*
X42071Y-24636D01*
X42009Y-24662D01*
X41962Y-24709D01*
X41936Y-24771D01*
X41936Y-24838D01*
X41936Y-25428D01*
X41962Y-25490D01*
X42009Y-25537D01*
X42071Y-25563D01*
X42138Y-25563D01*
X42728Y-25563D01*
X42790Y-25537D01*
X42837Y-25490D01*
X42863Y-25428D01*
X42863Y-25361D01*
X42863Y-24804D01*
X42883Y-24853D01*
X42930Y-24900D01*
X42992Y-24926D01*
X43059Y-24926D01*
X43649Y-24926D01*
X43711Y-24901D01*
X43759Y-24853D01*
X43784Y-24792D01*
X43784Y-24725D01*
X43784Y-27012D01*
X41627Y-27012D01*
X40731Y-24680D01*
X41163Y-24680D01*
X41205Y-24638D01*
X41205Y-24048D01*
X41197Y-24048D01*
X41197Y-23951D01*
X41205Y-23951D01*
X41205Y-23361D01*
X41163Y-23319D01*
X40731Y-23319D01*
X41627Y-20987D01*
X43274Y-20987D01*
X43261Y-21020D01*
X43260Y-21087D01*
X43260Y-21678D01*
X43286Y-21740D01*
X43333Y-21787D01*
X43395Y-21813D01*
X43462Y-21813D01*
X44052Y-21813D01*
X44114Y-21787D01*
X44162Y-21740D01*
X44187Y-21678D01*
X44187Y-21611D01*
X44187Y-21021D01*
X44174Y-20987D01*
X44431Y-20987D01*
X44331Y-21086D01*
X44261Y-21257D01*
X44260Y-21441D01*
X44331Y-21611D01*
X44461Y-21742D01*
X44631Y-21813D01*
X44816Y-21813D01*
X44986Y-21742D01*
X45117Y-21612D01*
X45187Y-21442D01*
X45187Y-21257D01*
X45117Y-21087D01*
X45017Y-20987D01*
X45467Y-20987D01*
X45456Y-21013D01*
X45724Y-21281D01*
X45992Y-21013D01*
X45981Y-20987D01*
X49052Y-20987D01*
X49052Y-23080D01*
X49060Y-23123D01*
X49054Y-23123D01*
X48992Y-23148D01*
X48945Y-23196D01*
X48919Y-23257D01*
X48919Y-23324D01*
X48919Y-23947D01*
X48901Y-23939D01*
X48763Y-23939D01*
X48636Y-23991D01*
X48539Y-24088D01*
X48486Y-24215D01*
X48486Y-24352D01*
X48539Y-24479D01*
X48636Y-24577D01*
X48763Y-24629D01*
X48900Y-24629D01*
X48919Y-24621D01*
X48919Y-24741D01*
X48945Y-24803D01*
X48992Y-24850D01*
X49054Y-24876D01*
X49060Y-24876D01*
M02*
