M48
;DRILL file {Pcbnew (2013-05-16 BZR 4016)-stable} date 03/07/2013 13:28:18
;FORMAT={-:-/ absolute / metric / decimal}
FMAT,2
METRIC,TZ
T1C0.400
T2C0.800
T3C0.800
T4C0.813
T5C0.899
T6C1.000
T7C1.801
T8C3.200
T9C3.500
%
G90
G05
M71
T1
X237.8Y-193.4
X239.034Y-182.398
X240.342Y-189.239
X240.652Y-175.801
X242.32Y-201.75
X242.6Y-203.8
X243.39Y-193.02
X244.17Y-177.57
X244.44Y-182.53
X245.2Y-165.8
X246.Y-200.4
X246.12Y-195.86
X247.1Y-176.4
X247.8Y-197.6
X248.62Y-192.23
X249.2Y-194.81
X249.72Y-200.8
X250.79Y-194.8
X250.8Y-197.08
X251.34Y-171.94
X251.6Y-165.6
X252.55Y-201.64
X254.Y-199.6
X254.4Y-177.8
X254.44Y-167.94
X254.66Y-203.74
X254.79Y-197.32
X255.Y-192.4
X255.36Y-201.07
X255.56Y-194.58
X256.Y-207.6
X256.66Y-200.99
X257.Y-186.53
X257.6Y-184.
X258.01Y-203.47
X259.Y-178.4
X260.36Y-167.94
X261.37Y-197.54
X261.6Y-202.2
X262.6Y-172.4
X262.8Y-179.6
X262.8Y-185.4
X262.9Y-203.46
X263.2Y-195.
X263.4Y-165.8
X263.4Y-190.6
X263.4Y-207.8
X264.6Y-202.2
X265.Y-182.8
X265.2Y-169.6
X265.84Y-185.78
X265.92Y-201.26
X266.18Y-177.16
X266.31Y-180.22
X266.8Y-190.6
X268.Y-207.8
X268.21Y-204.57
X270.73Y-174.58
X270.8Y-179.
X270.8Y-202.2
X271.Y-187.8
X271.2Y-165.8
X271.2Y-190.6
X271.6Y-197.8
X275.44Y-176.15
X276.6Y-194.2
X277.8Y-175.6
X277.8Y-180.2
X278.Y-184.8
T2
X252.13Y-175.
X252.13Y-181.8
X254.67Y-175.
X254.67Y-181.8
X259.13Y-175.
X259.13Y-181.8
X261.67Y-175.
X261.67Y-181.8
T3
X267.8Y-167.001
X267.8Y-170.999
T4
X236.2Y-184.66
X236.2Y-187.2
X236.2Y-189.74
X244.301Y-169.4
X249.299Y-169.4
X254.86Y-170.
X257.4Y-170.
X259.94Y-170.
T5
X236.2Y-193.19
X236.2Y-195.73
X236.2Y-198.27
X236.2Y-200.81
X247.2Y-190.2
T6
X273.2Y-179.6
X273.2Y-181.8
X273.2Y-184.
T7
X266.501Y-194.
X272.Y-194.
T8
X276.201Y-189.4
X276.201Y-198.6
T9
X238.Y-167.5
X238.Y-205.5
X276.Y-167.5
X276.Y-205.5
T0
M30
