G04 (created by PCBNEW (2013-03-19 BZR 4004)-stable) date 29/05/2013 23:51:19*
%MOIN*%
G04 Gerber Fmt 3.4, Leading zero omitted, Abs format*
%FSLAX34Y34*%
G01*
G70*
G90*
G04 APERTURE LIST*
%ADD10C,0.006*%
%ADD11R,0.052874X0.062874*%
%ADD12R,0.027874X0.037874*%
%ADD13R,0.125974X0.125974*%
%ADD14C,0.125974*%
%ADD15R,0.047874X0.042874*%
%ADD16C,0.073874*%
%ADD17R,0.067874X0.112874*%
%ADD18R,0.047274X0.047274*%
%ADD19R,0.042874X0.047874*%
%ADD20R,0.062974X0.062974*%
%ADD21C,0.062974*%
%ADD22C,0.114174*%
G04 APERTURE END LIST*
G54D10*
G54D11*
X60662Y-48976D03*
X61462Y-48976D03*
G54D12*
X61400Y-46743D03*
X62150Y-46743D03*
X61400Y-45743D03*
X61775Y-46743D03*
X62150Y-45743D03*
G54D13*
X61122Y-39763D03*
G54D14*
X61122Y-57874D03*
G54D15*
X56102Y-53637D03*
X56102Y-54237D03*
X66141Y-53440D03*
X66141Y-54040D03*
X55511Y-44197D03*
X55511Y-43597D03*
X65581Y-44223D03*
X65581Y-43623D03*
G54D10*
G36*
X67193Y-42591D02*
X66855Y-42929D01*
X66552Y-42626D01*
X66890Y-42288D01*
X67193Y-42591D01*
X67193Y-42591D01*
G37*
G36*
X66769Y-42167D02*
X66431Y-42505D01*
X66128Y-42202D01*
X66466Y-41863D01*
X66769Y-42167D01*
X66769Y-42167D01*
G37*
G36*
X67135Y-55457D02*
X66796Y-55119D01*
X67099Y-54816D01*
X67438Y-55154D01*
X67135Y-55457D01*
X67135Y-55457D01*
G37*
G36*
X67559Y-55033D02*
X67220Y-54694D01*
X67523Y-54391D01*
X67862Y-54730D01*
X67559Y-55033D01*
X67559Y-55033D01*
G37*
G36*
X55655Y-55303D02*
X55316Y-55641D01*
X55013Y-55338D01*
X55351Y-54999D01*
X55655Y-55303D01*
X55655Y-55303D01*
G37*
G36*
X55230Y-54878D02*
X54892Y-55217D01*
X54589Y-54914D01*
X54927Y-54575D01*
X55230Y-54878D01*
X55230Y-54878D01*
G37*
G36*
X54907Y-41821D02*
X55245Y-42159D01*
X54942Y-42463D01*
X54603Y-42124D01*
X54907Y-41821D01*
X54907Y-41821D01*
G37*
G36*
X54482Y-42245D02*
X54821Y-42584D01*
X54518Y-42887D01*
X54179Y-42548D01*
X54482Y-42245D01*
X54482Y-42245D01*
G37*
G36*
X66969Y-55797D02*
X66446Y-55274D01*
X66969Y-54752D01*
X67491Y-55274D01*
X66969Y-55797D01*
X66969Y-55797D01*
G37*
G54D16*
X67676Y-54567D03*
G54D10*
G36*
X55994Y-55471D02*
X55471Y-55994D01*
X54949Y-55471D01*
X55471Y-54949D01*
X55994Y-55471D01*
X55994Y-55471D01*
G37*
G54D16*
X54764Y-54764D03*
G54D10*
G36*
X55081Y-41470D02*
X55604Y-41992D01*
X55081Y-42515D01*
X54559Y-41992D01*
X55081Y-41470D01*
X55081Y-41470D01*
G37*
G54D16*
X54374Y-42700D03*
G54D10*
G36*
X67501Y-42780D02*
X66978Y-43302D01*
X66456Y-42780D01*
X66978Y-42257D01*
X67501Y-42780D01*
X67501Y-42780D01*
G37*
G54D16*
X66271Y-42073D03*
G54D17*
X61741Y-44251D03*
X60541Y-44251D03*
G54D18*
X60334Y-46644D03*
X60334Y-45620D03*
G54D19*
X60841Y-41456D03*
X61441Y-41456D03*
X60762Y-47795D03*
X61362Y-47795D03*
G54D20*
X54212Y-45472D03*
G54D21*
X54212Y-46259D03*
X54212Y-47046D03*
X56024Y-47046D03*
X56024Y-46259D03*
X56024Y-45472D03*
G54D20*
X66023Y-50787D03*
G54D21*
X66023Y-51574D03*
X66023Y-52361D03*
X67835Y-52361D03*
X67835Y-51574D03*
X67835Y-50787D03*
G54D20*
X66023Y-45275D03*
G54D21*
X66023Y-46062D03*
X66023Y-46849D03*
X67835Y-46849D03*
X67835Y-46062D03*
X67835Y-45275D03*
G54D20*
X54212Y-50984D03*
G54D21*
X54212Y-51771D03*
X54212Y-52558D03*
X56024Y-52558D03*
X56024Y-51771D03*
X56024Y-50984D03*
G54D22*
X56811Y-40944D03*
X64842Y-41102D03*
X56968Y-48818D03*
X64960Y-49094D03*
X57362Y-56614D03*
X65118Y-56535D03*
G54D11*
X60741Y-42677D03*
X61541Y-42677D03*
M02*
