G04 (created by PCBNEW (2013-03-19 BZR 4004)-stable) date 29/05/2013 23:51:19*
%MOIN*%
G04 Gerber Fmt 3.4, Leading zero omitted, Abs format*
%FSLAX34Y34*%
G01*
G70*
G90*
G04 APERTURE LIST*
%ADD10C,0.006*%
%ADD11C,0.00590551*%
%ADD12C,0.005*%
%ADD13C,0.01*%
%ADD14C,0.0059*%
%ADD15C,0.012*%
G04 APERTURE END LIST*
G54D10*
G54D11*
X60314Y-48582D02*
X61811Y-48582D01*
X61811Y-48582D02*
X61811Y-49370D01*
X61811Y-49370D02*
X60314Y-49370D01*
X60314Y-49370D02*
X60314Y-48582D01*
G54D12*
X62375Y-45893D02*
X62375Y-46593D01*
X62375Y-46593D02*
X61175Y-46593D01*
X61175Y-46593D02*
X61175Y-45893D01*
X61175Y-45893D02*
X62375Y-45893D01*
G54D11*
X56102Y-53346D02*
X56417Y-53346D01*
X56417Y-53346D02*
X56417Y-54527D01*
X56417Y-54527D02*
X55787Y-54527D01*
X55787Y-54527D02*
X55787Y-53346D01*
X55787Y-53346D02*
X56102Y-53346D01*
X66141Y-53149D02*
X66456Y-53149D01*
X66456Y-53149D02*
X66456Y-54330D01*
X66456Y-54330D02*
X65826Y-54330D01*
X65826Y-54330D02*
X65826Y-53149D01*
X65826Y-53149D02*
X66141Y-53149D01*
X55511Y-44488D02*
X55196Y-44488D01*
X55196Y-44488D02*
X55196Y-43307D01*
X55196Y-43307D02*
X55826Y-43307D01*
X55826Y-43307D02*
X55826Y-44488D01*
X55826Y-44488D02*
X55511Y-44488D01*
X65581Y-44513D02*
X65266Y-44513D01*
X65266Y-44513D02*
X65266Y-43332D01*
X65266Y-43332D02*
X65896Y-43332D01*
X65896Y-43332D02*
X65896Y-44513D01*
X65896Y-44513D02*
X65581Y-44513D01*
X66020Y-42201D02*
X65978Y-42160D01*
X65978Y-42160D02*
X66424Y-41714D01*
X66424Y-41714D02*
X66466Y-41756D01*
X66466Y-41756D02*
X66396Y-41686D01*
X66396Y-41686D02*
X65951Y-42132D01*
X65951Y-42132D02*
X65978Y-42160D01*
X67078Y-42814D02*
X66855Y-43037D01*
X66855Y-43037D02*
X66020Y-42201D01*
X66020Y-42201D02*
X66466Y-41756D01*
X66466Y-41756D02*
X67301Y-42591D01*
X67301Y-42591D02*
X67050Y-42842D01*
X67524Y-54284D02*
X67566Y-54242D01*
X67566Y-54242D02*
X68011Y-54688D01*
X68011Y-54688D02*
X67969Y-54729D01*
X67969Y-54729D02*
X68039Y-54660D01*
X68039Y-54660D02*
X67593Y-54214D01*
X67593Y-54214D02*
X67566Y-54242D01*
X66911Y-55342D02*
X66689Y-55119D01*
X66689Y-55119D02*
X67524Y-54284D01*
X67524Y-54284D02*
X67969Y-54729D01*
X67969Y-54729D02*
X67134Y-55565D01*
X67134Y-55565D02*
X66884Y-55314D01*
X54481Y-54913D02*
X54439Y-54872D01*
X54439Y-54872D02*
X54885Y-54426D01*
X54885Y-54426D02*
X54927Y-54468D01*
X54927Y-54468D02*
X54857Y-54398D01*
X54857Y-54398D02*
X54412Y-54844D01*
X54412Y-54844D02*
X54439Y-54872D01*
X55539Y-55526D02*
X55316Y-55748D01*
X55316Y-55748D02*
X54481Y-54913D01*
X54481Y-54913D02*
X54927Y-54468D01*
X54927Y-54468D02*
X55762Y-55303D01*
X55762Y-55303D02*
X55511Y-55554D01*
X54517Y-42994D02*
X54475Y-43036D01*
X54475Y-43036D02*
X54030Y-42590D01*
X54030Y-42590D02*
X54072Y-42549D01*
X54072Y-42549D02*
X54002Y-42618D01*
X54002Y-42618D02*
X54448Y-43064D01*
X54448Y-43064D02*
X54475Y-43036D01*
X55130Y-41936D02*
X55352Y-42159D01*
X55352Y-42159D02*
X54517Y-42994D01*
X54517Y-42994D02*
X54072Y-42549D01*
X54072Y-42549D02*
X54907Y-41714D01*
X54907Y-41714D02*
X55158Y-41964D01*
G54D13*
X67462Y-55617D02*
X68019Y-55060D01*
X68019Y-55060D02*
X68019Y-54781D01*
X67183Y-55617D02*
X67462Y-55617D01*
X67462Y-54224D02*
X67183Y-54224D01*
X67183Y-54224D02*
X66626Y-54781D01*
X66626Y-54781D02*
X66626Y-55060D01*
X55814Y-54978D02*
X55257Y-54421D01*
X55257Y-54421D02*
X54978Y-54421D01*
X55814Y-55257D02*
X55814Y-54978D01*
X54421Y-54978D02*
X54421Y-55257D01*
X54421Y-55257D02*
X54978Y-55814D01*
X54978Y-55814D02*
X55257Y-55814D01*
X54589Y-41649D02*
X54031Y-42207D01*
X54031Y-42207D02*
X54031Y-42485D01*
X54867Y-41649D02*
X54589Y-41649D01*
X54589Y-43042D02*
X54867Y-43042D01*
X54867Y-43042D02*
X55424Y-42485D01*
X55424Y-42485D02*
X55424Y-42207D01*
X67321Y-42287D02*
X66764Y-41730D01*
X66764Y-41730D02*
X66485Y-41730D01*
X67321Y-42566D02*
X67321Y-42287D01*
X65928Y-42287D02*
X65928Y-42566D01*
X65928Y-42566D02*
X66485Y-43123D01*
X66485Y-43123D02*
X66764Y-43123D01*
G54D11*
X62165Y-44251D02*
X62165Y-44901D01*
X62165Y-44901D02*
X60118Y-44901D01*
X60118Y-44901D02*
X60118Y-43602D01*
X60118Y-43602D02*
X62165Y-43602D01*
X62165Y-43602D02*
X62165Y-44330D01*
G54D14*
X60484Y-46282D02*
X60184Y-46282D01*
X60334Y-45982D02*
X60184Y-45982D01*
X60184Y-45982D02*
X60334Y-46282D01*
X60334Y-46282D02*
X60484Y-45982D01*
X60484Y-45982D02*
X60334Y-45982D01*
G54D12*
X60058Y-46919D02*
X60058Y-46959D01*
G54D13*
X60058Y-46959D02*
X60610Y-46959D01*
G54D12*
X60610Y-46959D02*
X60610Y-46919D01*
X60058Y-46447D02*
X60058Y-46919D01*
X60610Y-46919D02*
X60610Y-46447D01*
X60058Y-45817D02*
X60058Y-45345D01*
X60058Y-45345D02*
X60610Y-45345D01*
X60610Y-45345D02*
X60610Y-45817D01*
G54D11*
X60551Y-41456D02*
X60551Y-41141D01*
X60551Y-41141D02*
X61732Y-41141D01*
X61732Y-41141D02*
X61732Y-41771D01*
X61732Y-41771D02*
X60551Y-41771D01*
X60551Y-41771D02*
X60551Y-41456D01*
X60472Y-47795D02*
X60472Y-47480D01*
X60472Y-47480D02*
X61653Y-47480D01*
X61653Y-47480D02*
X61653Y-48110D01*
X61653Y-48110D02*
X60472Y-48110D01*
X60472Y-48110D02*
X60472Y-47795D01*
G54D12*
X56299Y-47440D02*
X53937Y-47440D01*
X53937Y-47440D02*
X53937Y-45078D01*
X53937Y-45078D02*
X56299Y-45078D01*
X56299Y-45078D02*
X56299Y-47440D01*
X68110Y-52755D02*
X65748Y-52755D01*
X65748Y-52755D02*
X65748Y-50393D01*
X65748Y-50393D02*
X68110Y-50393D01*
X68110Y-50393D02*
X68110Y-52755D01*
X68110Y-47243D02*
X65748Y-47243D01*
X65748Y-47243D02*
X65748Y-44881D01*
X65748Y-44881D02*
X68110Y-44881D01*
X68110Y-44881D02*
X68110Y-47243D01*
X56299Y-52952D02*
X53937Y-52952D01*
X53937Y-52952D02*
X53937Y-50590D01*
X53937Y-50590D02*
X56299Y-50590D01*
X56299Y-50590D02*
X56299Y-52952D01*
G54D14*
X57717Y-40944D02*
G75*
G03X57717Y-40944I-906J0D01*
G74*
G01*
X65748Y-41102D02*
G75*
G03X65748Y-41102I-906J0D01*
G74*
G01*
X57874Y-48818D02*
G75*
G03X57874Y-48818I-906J0D01*
G74*
G01*
X65866Y-49094D02*
G75*
G03X65866Y-49094I-906J0D01*
G74*
G01*
X58268Y-56614D02*
G75*
G03X58268Y-56614I-906J0D01*
G74*
G01*
X66024Y-56535D02*
G75*
G03X66024Y-56535I-906J0D01*
G74*
G01*
G54D11*
X60393Y-42283D02*
X61889Y-42283D01*
X61889Y-42283D02*
X61889Y-43070D01*
X61889Y-43070D02*
X60393Y-43070D01*
X60393Y-43070D02*
X60393Y-42283D01*
X59960Y-49010D02*
X59949Y-49021D01*
X59915Y-49032D01*
X59893Y-49032D01*
X59859Y-49021D01*
X59836Y-48998D01*
X59825Y-48976D01*
X59814Y-48931D01*
X59814Y-48897D01*
X59825Y-48852D01*
X59836Y-48830D01*
X59859Y-48807D01*
X59893Y-48796D01*
X59915Y-48796D01*
X59949Y-48807D01*
X59960Y-48818D01*
X60163Y-48875D02*
X60163Y-49032D01*
X60106Y-48785D02*
X60050Y-48953D01*
X60196Y-48953D01*
X62131Y-49071D02*
X61996Y-49071D01*
X62064Y-49071D02*
X62064Y-48835D01*
X62041Y-48869D01*
X62019Y-48892D01*
X61996Y-48903D01*
X62277Y-48835D02*
X62300Y-48835D01*
X62322Y-48847D01*
X62334Y-48858D01*
X62345Y-48880D01*
X62356Y-48925D01*
X62356Y-48982D01*
X62345Y-49026D01*
X62334Y-49049D01*
X62322Y-49060D01*
X62300Y-49071D01*
X62277Y-49071D01*
X62255Y-49060D01*
X62244Y-49049D01*
X62232Y-49026D01*
X62221Y-48982D01*
X62221Y-48925D01*
X62232Y-48880D01*
X62244Y-48858D01*
X62255Y-48847D01*
X62277Y-48835D01*
X62559Y-48914D02*
X62559Y-49071D01*
X62457Y-48914D02*
X62457Y-49038D01*
X62469Y-49060D01*
X62491Y-49071D01*
X62525Y-49071D01*
X62547Y-49060D01*
X62559Y-49049D01*
G54D14*
X61496Y-46419D02*
X61496Y-46025D01*
X61552Y-46025D01*
X61586Y-46044D01*
X61608Y-46081D01*
X61619Y-46119D01*
X61631Y-46194D01*
X61631Y-46250D01*
X61619Y-46325D01*
X61608Y-46363D01*
X61586Y-46400D01*
X61552Y-46419D01*
X61496Y-46419D01*
X61721Y-46306D02*
X61833Y-46306D01*
X61698Y-46419D02*
X61777Y-46025D01*
X61855Y-46419D01*
X62058Y-46419D02*
X61923Y-46419D01*
X61990Y-46419D02*
X61990Y-46025D01*
X61968Y-46081D01*
X61945Y-46119D01*
X61923Y-46137D01*
X62554Y-46419D02*
X62554Y-46025D01*
X62688Y-46419D01*
X62688Y-46025D01*
X62936Y-46381D02*
X62924Y-46400D01*
X62891Y-46419D01*
X62868Y-46419D01*
X62835Y-46400D01*
X62812Y-46363D01*
X62801Y-46325D01*
X62790Y-46250D01*
X62790Y-46194D01*
X62801Y-46119D01*
X62812Y-46081D01*
X62835Y-46044D01*
X62868Y-46025D01*
X62891Y-46025D01*
X62924Y-46044D01*
X62936Y-46062D01*
X63037Y-46419D02*
X63037Y-46025D01*
X63127Y-46025D01*
X63149Y-46044D01*
X63160Y-46062D01*
X63172Y-46100D01*
X63172Y-46156D01*
X63160Y-46194D01*
X63149Y-46212D01*
X63127Y-46231D01*
X63037Y-46231D01*
X63396Y-46419D02*
X63262Y-46419D01*
X63329Y-46419D02*
X63329Y-46025D01*
X63307Y-46081D01*
X63284Y-46119D01*
X63262Y-46137D01*
X63599Y-46156D02*
X63599Y-46419D01*
X63543Y-46006D02*
X63486Y-46287D01*
X63632Y-46287D01*
X63767Y-46025D02*
X63790Y-46025D01*
X63812Y-46044D01*
X63824Y-46062D01*
X63835Y-46100D01*
X63846Y-46175D01*
X63846Y-46269D01*
X63835Y-46344D01*
X63824Y-46381D01*
X63812Y-46400D01*
X63790Y-46419D01*
X63767Y-46419D01*
X63745Y-46400D01*
X63734Y-46381D01*
X63722Y-46344D01*
X63711Y-46269D01*
X63711Y-46175D01*
X63722Y-46100D01*
X63734Y-46062D01*
X63745Y-46044D01*
X63767Y-46025D01*
X63992Y-46025D02*
X64015Y-46025D01*
X64037Y-46044D01*
X64048Y-46062D01*
X64060Y-46100D01*
X64071Y-46175D01*
X64071Y-46269D01*
X64060Y-46344D01*
X64048Y-46381D01*
X64037Y-46400D01*
X64015Y-46419D01*
X63992Y-46419D01*
X63970Y-46400D01*
X63958Y-46381D01*
X63947Y-46344D01*
X63936Y-46269D01*
X63936Y-46175D01*
X63947Y-46100D01*
X63958Y-46062D01*
X63970Y-46044D01*
X63992Y-46025D01*
G54D11*
X55646Y-53976D02*
X55534Y-54055D01*
X55646Y-54111D02*
X55410Y-54111D01*
X55410Y-54021D01*
X55421Y-53998D01*
X55433Y-53987D01*
X55455Y-53976D01*
X55489Y-53976D01*
X55511Y-53987D01*
X55523Y-53998D01*
X55534Y-54021D01*
X55534Y-54111D01*
X55410Y-53897D02*
X55410Y-53751D01*
X55500Y-53830D01*
X55500Y-53796D01*
X55511Y-53773D01*
X55523Y-53762D01*
X55545Y-53751D01*
X55601Y-53751D01*
X55624Y-53762D01*
X55635Y-53773D01*
X55646Y-53796D01*
X55646Y-53863D01*
X55635Y-53886D01*
X55624Y-53897D01*
X56670Y-54122D02*
X56827Y-54122D01*
X56580Y-54178D02*
X56749Y-54235D01*
X56749Y-54088D01*
X56591Y-54021D02*
X56591Y-53863D01*
X56827Y-53965D01*
X56827Y-53638D02*
X56715Y-53717D01*
X56827Y-53773D02*
X56591Y-53773D01*
X56591Y-53683D01*
X56602Y-53661D01*
X56614Y-53650D01*
X56636Y-53638D01*
X56670Y-53638D01*
X56692Y-53650D01*
X56704Y-53661D01*
X56715Y-53683D01*
X56715Y-53773D01*
X65646Y-53740D02*
X65534Y-53818D01*
X65646Y-53875D02*
X65410Y-53875D01*
X65410Y-53785D01*
X65421Y-53762D01*
X65433Y-53751D01*
X65455Y-53740D01*
X65489Y-53740D01*
X65511Y-53751D01*
X65523Y-53762D01*
X65534Y-53785D01*
X65534Y-53875D01*
X65489Y-53537D02*
X65646Y-53537D01*
X65399Y-53593D02*
X65568Y-53650D01*
X65568Y-53503D01*
X66670Y-53847D02*
X66827Y-53847D01*
X66580Y-53903D02*
X66749Y-53959D01*
X66749Y-53813D01*
X66591Y-53745D02*
X66591Y-53588D01*
X66827Y-53689D01*
X66827Y-53363D02*
X66715Y-53442D01*
X66827Y-53498D02*
X66591Y-53498D01*
X66591Y-53408D01*
X66602Y-53385D01*
X66614Y-53374D01*
X66636Y-53363D01*
X66670Y-53363D01*
X66692Y-53374D01*
X66704Y-53385D01*
X66715Y-53408D01*
X66715Y-53498D01*
X55107Y-43962D02*
X54994Y-44040D01*
X55107Y-44096D02*
X54871Y-44096D01*
X54871Y-44007D01*
X54882Y-43984D01*
X54893Y-43973D01*
X54916Y-43962D01*
X54949Y-43962D01*
X54972Y-43973D01*
X54983Y-43984D01*
X54994Y-44007D01*
X54994Y-44096D01*
X54893Y-43872D02*
X54882Y-43860D01*
X54871Y-43838D01*
X54871Y-43782D01*
X54882Y-43759D01*
X54893Y-43748D01*
X54916Y-43737D01*
X54938Y-43737D01*
X54972Y-43748D01*
X55107Y-43883D01*
X55107Y-43737D01*
X56000Y-44044D02*
X56158Y-44044D01*
X55910Y-44100D02*
X56079Y-44156D01*
X56079Y-44010D01*
X55922Y-43943D02*
X55922Y-43785D01*
X56158Y-43886D01*
X56158Y-43560D02*
X56045Y-43639D01*
X56158Y-43695D02*
X55922Y-43695D01*
X55922Y-43605D01*
X55933Y-43583D01*
X55944Y-43571D01*
X55967Y-43560D01*
X56000Y-43560D01*
X56023Y-43571D01*
X56034Y-43583D01*
X56045Y-43605D01*
X56045Y-43695D01*
X65177Y-43987D02*
X65065Y-44066D01*
X65177Y-44122D02*
X64941Y-44122D01*
X64941Y-44032D01*
X64952Y-44010D01*
X64963Y-43998D01*
X64986Y-43987D01*
X65020Y-43987D01*
X65042Y-43998D01*
X65053Y-44010D01*
X65065Y-44032D01*
X65065Y-44122D01*
X65177Y-43762D02*
X65177Y-43897D01*
X65177Y-43830D02*
X64941Y-43830D01*
X64975Y-43852D01*
X64997Y-43875D01*
X65008Y-43897D01*
X66071Y-44069D02*
X66228Y-44069D01*
X65981Y-44126D02*
X66149Y-44182D01*
X66149Y-44036D01*
X65992Y-43968D02*
X65992Y-43811D01*
X66228Y-43912D01*
X66228Y-43586D02*
X66116Y-43664D01*
X66228Y-43721D02*
X65992Y-43721D01*
X65992Y-43631D01*
X66003Y-43608D01*
X66014Y-43597D01*
X66037Y-43586D01*
X66071Y-43586D01*
X66093Y-43597D01*
X66104Y-43608D01*
X66116Y-43631D01*
X66116Y-43721D01*
X67328Y-43212D02*
X67495Y-43045D01*
X67535Y-43084D01*
X67551Y-43116D01*
X67551Y-43148D01*
X67543Y-43172D01*
X67519Y-43212D01*
X67495Y-43235D01*
X67456Y-43259D01*
X67432Y-43267D01*
X67400Y-43267D01*
X67368Y-43251D01*
X67328Y-43212D01*
X67638Y-43219D02*
X67654Y-43219D01*
X67678Y-43227D01*
X67718Y-43267D01*
X67726Y-43291D01*
X67726Y-43307D01*
X67718Y-43331D01*
X67702Y-43347D01*
X67670Y-43363D01*
X67479Y-43363D01*
X67583Y-43466D01*
X67147Y-41810D02*
X67068Y-41731D01*
X67235Y-41564D01*
X67291Y-41778D02*
X67346Y-41834D01*
X67283Y-41945D02*
X67203Y-41866D01*
X67370Y-41699D01*
X67450Y-41778D01*
X67354Y-42017D02*
X67521Y-41850D01*
X67561Y-41890D01*
X67577Y-41921D01*
X67577Y-41953D01*
X67569Y-41977D01*
X67545Y-42017D01*
X67521Y-42041D01*
X67481Y-42065D01*
X67458Y-42073D01*
X67426Y-42073D01*
X67394Y-42057D01*
X67354Y-42017D01*
X68172Y-54206D02*
X68005Y-54039D01*
X68045Y-53999D01*
X68077Y-53983D01*
X68109Y-53983D01*
X68132Y-53991D01*
X68172Y-54015D01*
X68196Y-54039D01*
X68220Y-54079D01*
X68228Y-54103D01*
X68228Y-54135D01*
X68212Y-54166D01*
X68172Y-54206D01*
X68252Y-53793D02*
X68172Y-53872D01*
X68244Y-53960D01*
X68244Y-53944D01*
X68252Y-53920D01*
X68291Y-53880D01*
X68315Y-53872D01*
X68331Y-53872D01*
X68355Y-53880D01*
X68395Y-53920D01*
X68403Y-53944D01*
X68403Y-53960D01*
X68395Y-53983D01*
X68355Y-54023D01*
X68331Y-54031D01*
X68315Y-54031D01*
X66377Y-56041D02*
X66298Y-56120D01*
X66130Y-55953D01*
X66345Y-55897D02*
X66401Y-55842D01*
X66512Y-55905D02*
X66433Y-55985D01*
X66266Y-55818D01*
X66345Y-55738D01*
X66584Y-55834D02*
X66417Y-55667D01*
X66457Y-55627D01*
X66488Y-55611D01*
X66520Y-55611D01*
X66544Y-55619D01*
X66584Y-55643D01*
X66608Y-55667D01*
X66632Y-55707D01*
X66640Y-55730D01*
X66640Y-55762D01*
X66624Y-55794D01*
X66584Y-55834D01*
X54021Y-54196D02*
X54188Y-54029D01*
X54228Y-54069D01*
X54244Y-54100D01*
X54244Y-54132D01*
X54236Y-54156D01*
X54212Y-54196D01*
X54188Y-54220D01*
X54148Y-54244D01*
X54125Y-54251D01*
X54093Y-54251D01*
X54061Y-54236D01*
X54021Y-54196D01*
X54371Y-54323D02*
X54260Y-54434D01*
X54395Y-54220D02*
X54236Y-54299D01*
X54339Y-54403D01*
X55848Y-55983D02*
X55769Y-55904D01*
X55936Y-55737D01*
X55991Y-55952D02*
X56047Y-56007D01*
X55983Y-56119D02*
X55904Y-56039D01*
X56071Y-55872D01*
X56150Y-55952D01*
X56055Y-56190D02*
X56222Y-56023D01*
X56262Y-56063D01*
X56278Y-56095D01*
X56278Y-56127D01*
X56270Y-56150D01*
X56246Y-56190D01*
X56222Y-56214D01*
X56182Y-56238D01*
X56158Y-56246D01*
X56127Y-56246D01*
X56095Y-56230D01*
X56055Y-56190D01*
X53802Y-43458D02*
X53635Y-43291D01*
X53675Y-43251D01*
X53707Y-43235D01*
X53738Y-43235D01*
X53762Y-43243D01*
X53802Y-43267D01*
X53826Y-43291D01*
X53850Y-43331D01*
X53858Y-43355D01*
X53858Y-43387D01*
X53842Y-43418D01*
X53802Y-43458D01*
X53786Y-43140D02*
X53890Y-43037D01*
X53898Y-43156D01*
X53921Y-43132D01*
X53945Y-43124D01*
X53961Y-43124D01*
X53985Y-43132D01*
X54025Y-43172D01*
X54033Y-43196D01*
X54033Y-43212D01*
X54025Y-43235D01*
X53977Y-43283D01*
X53953Y-43291D01*
X53937Y-43291D01*
X55668Y-41631D02*
X55589Y-41711D01*
X55422Y-41544D01*
X55637Y-41488D02*
X55692Y-41432D01*
X55804Y-41496D02*
X55724Y-41576D01*
X55557Y-41408D01*
X55637Y-41329D01*
X55875Y-41424D02*
X55708Y-41257D01*
X55748Y-41218D01*
X55780Y-41202D01*
X55812Y-41202D01*
X55835Y-41210D01*
X55875Y-41233D01*
X55899Y-41257D01*
X55923Y-41297D01*
X55931Y-41321D01*
X55931Y-41353D01*
X55915Y-41385D01*
X55875Y-41424D01*
X59803Y-44426D02*
X59690Y-44426D01*
X59690Y-44190D01*
X60005Y-44426D02*
X59870Y-44426D01*
X59938Y-44426D02*
X59938Y-44190D01*
X59915Y-44223D01*
X59893Y-44246D01*
X59870Y-44257D01*
X62384Y-44173D02*
X62395Y-44161D01*
X62418Y-44150D01*
X62474Y-44150D01*
X62497Y-44161D01*
X62508Y-44173D01*
X62519Y-44195D01*
X62519Y-44218D01*
X62508Y-44251D01*
X62373Y-44386D01*
X62519Y-44386D01*
X62609Y-44173D02*
X62620Y-44161D01*
X62643Y-44150D01*
X62699Y-44150D01*
X62722Y-44161D01*
X62733Y-44173D01*
X62744Y-44195D01*
X62744Y-44218D01*
X62733Y-44251D01*
X62598Y-44386D01*
X62744Y-44386D01*
X62947Y-44229D02*
X62947Y-44386D01*
X62845Y-44229D02*
X62845Y-44353D01*
X62857Y-44375D01*
X62879Y-44386D01*
X62913Y-44386D01*
X62935Y-44375D01*
X62947Y-44364D01*
X63059Y-44386D02*
X63059Y-44150D01*
X63059Y-44263D02*
X63194Y-44263D01*
X63194Y-44386D02*
X63194Y-44150D01*
G54D14*
X59898Y-47300D02*
X59662Y-47300D01*
X59662Y-47243D01*
X59673Y-47210D01*
X59696Y-47187D01*
X59718Y-47176D01*
X59763Y-47165D01*
X59797Y-47165D01*
X59842Y-47176D01*
X59864Y-47187D01*
X59887Y-47210D01*
X59898Y-47243D01*
X59898Y-47300D01*
X59898Y-46940D02*
X59898Y-47075D01*
X59898Y-47007D02*
X59662Y-47007D01*
X59696Y-47030D01*
X59718Y-47052D01*
X59730Y-47075D01*
X59775Y-46591D02*
X59786Y-46557D01*
X59797Y-46546D01*
X59820Y-46534D01*
X59853Y-46534D01*
X59876Y-46546D01*
X59887Y-46557D01*
X59898Y-46579D01*
X59898Y-46669D01*
X59662Y-46669D01*
X59662Y-46591D01*
X59673Y-46568D01*
X59685Y-46557D01*
X59707Y-46546D01*
X59730Y-46546D01*
X59752Y-46557D01*
X59763Y-46568D01*
X59775Y-46591D01*
X59775Y-46669D01*
X59831Y-46444D02*
X59831Y-46332D01*
X59898Y-46467D02*
X59662Y-46388D01*
X59898Y-46310D01*
X59662Y-46265D02*
X59662Y-46130D01*
X59898Y-46197D02*
X59662Y-46197D01*
X59662Y-45939D02*
X59662Y-46051D01*
X59775Y-46062D01*
X59763Y-46051D01*
X59752Y-46029D01*
X59752Y-45972D01*
X59763Y-45950D01*
X59775Y-45939D01*
X59797Y-45928D01*
X59853Y-45928D01*
X59876Y-45939D01*
X59887Y-45950D01*
X59898Y-45972D01*
X59898Y-46029D01*
X59887Y-46051D01*
X59876Y-46062D01*
X59741Y-45725D02*
X59898Y-45725D01*
X59651Y-45781D02*
X59820Y-45838D01*
X59820Y-45692D01*
X59662Y-45624D02*
X59898Y-45568D01*
X59730Y-45523D01*
X59898Y-45478D01*
X59662Y-45422D01*
X59887Y-45343D02*
X59898Y-45309D01*
X59898Y-45253D01*
X59887Y-45231D01*
X59876Y-45220D01*
X59853Y-45208D01*
X59831Y-45208D01*
X59808Y-45220D01*
X59797Y-45231D01*
X59786Y-45253D01*
X59775Y-45298D01*
X59763Y-45321D01*
X59752Y-45332D01*
X59730Y-45343D01*
X59707Y-45343D01*
X59685Y-45332D01*
X59673Y-45321D01*
X59662Y-45298D01*
X59662Y-45242D01*
X59673Y-45208D01*
G54D11*
X60196Y-41529D02*
X60185Y-41541D01*
X60151Y-41552D01*
X60129Y-41552D01*
X60095Y-41541D01*
X60073Y-41518D01*
X60061Y-41496D01*
X60050Y-41451D01*
X60050Y-41417D01*
X60061Y-41372D01*
X60073Y-41349D01*
X60095Y-41327D01*
X60129Y-41316D01*
X60151Y-41316D01*
X60185Y-41327D01*
X60196Y-41338D01*
X60421Y-41552D02*
X60286Y-41552D01*
X60354Y-41552D02*
X60354Y-41316D01*
X60331Y-41349D01*
X60309Y-41372D01*
X60286Y-41383D01*
X61917Y-41316D02*
X61940Y-41316D01*
X61962Y-41327D01*
X61974Y-41338D01*
X61985Y-41361D01*
X61996Y-41406D01*
X61996Y-41462D01*
X61985Y-41507D01*
X61974Y-41529D01*
X61962Y-41541D01*
X61940Y-41552D01*
X61917Y-41552D01*
X61895Y-41541D01*
X61884Y-41529D01*
X61872Y-41507D01*
X61861Y-41462D01*
X61861Y-41406D01*
X61872Y-41361D01*
X61884Y-41338D01*
X61895Y-41327D01*
X61917Y-41316D01*
X62097Y-41529D02*
X62109Y-41541D01*
X62097Y-41552D01*
X62086Y-41541D01*
X62097Y-41529D01*
X62097Y-41552D01*
X62334Y-41552D02*
X62199Y-41552D01*
X62266Y-41552D02*
X62266Y-41316D01*
X62244Y-41349D01*
X62221Y-41372D01*
X62199Y-41383D01*
X62536Y-41394D02*
X62536Y-41552D01*
X62435Y-41394D02*
X62435Y-41518D01*
X62446Y-41541D01*
X62469Y-41552D01*
X62502Y-41552D01*
X62525Y-41541D01*
X62536Y-41529D01*
X60039Y-47868D02*
X60028Y-47879D01*
X59994Y-47890D01*
X59971Y-47890D01*
X59938Y-47879D01*
X59915Y-47857D01*
X59904Y-47834D01*
X59893Y-47789D01*
X59893Y-47755D01*
X59904Y-47710D01*
X59915Y-47688D01*
X59938Y-47665D01*
X59971Y-47654D01*
X59994Y-47654D01*
X60028Y-47665D01*
X60039Y-47677D01*
X60118Y-47654D02*
X60264Y-47654D01*
X60185Y-47744D01*
X60219Y-47744D01*
X60241Y-47755D01*
X60253Y-47767D01*
X60264Y-47789D01*
X60264Y-47845D01*
X60253Y-47868D01*
X60241Y-47879D01*
X60219Y-47890D01*
X60151Y-47890D01*
X60129Y-47879D01*
X60118Y-47868D01*
X61839Y-47615D02*
X61861Y-47615D01*
X61884Y-47626D01*
X61895Y-47637D01*
X61906Y-47660D01*
X61917Y-47705D01*
X61917Y-47761D01*
X61906Y-47806D01*
X61895Y-47829D01*
X61884Y-47840D01*
X61861Y-47851D01*
X61839Y-47851D01*
X61816Y-47840D01*
X61805Y-47829D01*
X61794Y-47806D01*
X61782Y-47761D01*
X61782Y-47705D01*
X61794Y-47660D01*
X61805Y-47637D01*
X61816Y-47626D01*
X61839Y-47615D01*
X62019Y-47829D02*
X62030Y-47840D01*
X62019Y-47851D01*
X62007Y-47840D01*
X62019Y-47829D01*
X62019Y-47851D01*
X62255Y-47851D02*
X62120Y-47851D01*
X62187Y-47851D02*
X62187Y-47615D01*
X62165Y-47649D01*
X62142Y-47671D01*
X62120Y-47682D01*
X62457Y-47694D02*
X62457Y-47851D01*
X62356Y-47694D02*
X62356Y-47817D01*
X62367Y-47840D01*
X62390Y-47851D01*
X62424Y-47851D01*
X62446Y-47840D01*
X62457Y-47829D01*
G54D15*
X55371Y-47217D02*
X55400Y-47131D01*
X55400Y-46988D01*
X55371Y-46931D01*
X55343Y-46903D01*
X55286Y-46874D01*
X55228Y-46874D01*
X55171Y-46903D01*
X55143Y-46931D01*
X55114Y-46988D01*
X55086Y-47103D01*
X55057Y-47160D01*
X55028Y-47188D01*
X54971Y-47217D01*
X54914Y-47217D01*
X54857Y-47188D01*
X54828Y-47160D01*
X54800Y-47103D01*
X54800Y-46960D01*
X54828Y-46874D01*
X54800Y-46674D02*
X55400Y-46531D01*
X54971Y-46417D01*
X55400Y-46303D01*
X54800Y-46160D01*
X54857Y-45960D02*
X54828Y-45931D01*
X54800Y-45874D01*
X54800Y-45731D01*
X54828Y-45674D01*
X54857Y-45645D01*
X54914Y-45617D01*
X54971Y-45617D01*
X55057Y-45645D01*
X55400Y-45988D01*
X55400Y-45617D01*
X67143Y-52374D02*
X67171Y-52289D01*
X67171Y-52146D01*
X67143Y-52089D01*
X67114Y-52060D01*
X67057Y-52031D01*
X67000Y-52031D01*
X66943Y-52060D01*
X66914Y-52089D01*
X66886Y-52146D01*
X66857Y-52260D01*
X66829Y-52317D01*
X66800Y-52346D01*
X66743Y-52374D01*
X66686Y-52374D01*
X66629Y-52346D01*
X66600Y-52317D01*
X66571Y-52260D01*
X66571Y-52117D01*
X66600Y-52031D01*
X66571Y-51831D02*
X67171Y-51689D01*
X66743Y-51574D01*
X67171Y-51460D01*
X66571Y-51317D01*
X66771Y-50831D02*
X67171Y-50831D01*
X66543Y-50974D02*
X66971Y-51117D01*
X66971Y-50746D01*
X67222Y-46941D02*
X67250Y-46856D01*
X67250Y-46713D01*
X67222Y-46656D01*
X67193Y-46627D01*
X67136Y-46598D01*
X67079Y-46598D01*
X67022Y-46627D01*
X66993Y-46656D01*
X66965Y-46713D01*
X66936Y-46827D01*
X66907Y-46884D01*
X66879Y-46913D01*
X66822Y-46941D01*
X66765Y-46941D01*
X66707Y-46913D01*
X66679Y-46884D01*
X66650Y-46827D01*
X66650Y-46684D01*
X66679Y-46598D01*
X66650Y-46398D02*
X67250Y-46256D01*
X66822Y-46141D01*
X67250Y-46027D01*
X66650Y-45884D01*
X67250Y-45341D02*
X67250Y-45684D01*
X67250Y-45513D02*
X66650Y-45513D01*
X66736Y-45570D01*
X66793Y-45627D01*
X66822Y-45684D01*
X55332Y-52571D02*
X55360Y-52485D01*
X55360Y-52343D01*
X55332Y-52285D01*
X55303Y-52257D01*
X55246Y-52228D01*
X55189Y-52228D01*
X55132Y-52257D01*
X55103Y-52285D01*
X55075Y-52343D01*
X55046Y-52457D01*
X55018Y-52514D01*
X54989Y-52543D01*
X54932Y-52571D01*
X54875Y-52571D01*
X54818Y-52543D01*
X54789Y-52514D01*
X54760Y-52457D01*
X54760Y-52314D01*
X54789Y-52228D01*
X54760Y-52028D02*
X55360Y-51885D01*
X54932Y-51771D01*
X55360Y-51657D01*
X54760Y-51514D01*
X54760Y-51343D02*
X54760Y-50971D01*
X54989Y-51171D01*
X54989Y-51085D01*
X55018Y-51028D01*
X55046Y-51000D01*
X55103Y-50971D01*
X55246Y-50971D01*
X55303Y-51000D01*
X55332Y-51028D01*
X55360Y-51085D01*
X55360Y-51257D01*
X55332Y-51314D01*
X55303Y-51343D01*
G54D11*
X60000Y-42750D02*
X59988Y-42761D01*
X59955Y-42772D01*
X59932Y-42772D01*
X59898Y-42761D01*
X59876Y-42739D01*
X59865Y-42716D01*
X59853Y-42671D01*
X59853Y-42637D01*
X59865Y-42592D01*
X59876Y-42570D01*
X59898Y-42547D01*
X59932Y-42536D01*
X59955Y-42536D01*
X59988Y-42547D01*
X60000Y-42559D01*
X60089Y-42559D02*
X60101Y-42547D01*
X60123Y-42536D01*
X60179Y-42536D01*
X60202Y-42547D01*
X60213Y-42559D01*
X60224Y-42581D01*
X60224Y-42604D01*
X60213Y-42637D01*
X60078Y-42772D01*
X60224Y-42772D01*
X62170Y-42812D02*
X62035Y-42812D01*
X62103Y-42812D02*
X62103Y-42575D01*
X62080Y-42609D01*
X62058Y-42632D01*
X62035Y-42643D01*
X62317Y-42575D02*
X62339Y-42575D01*
X62362Y-42587D01*
X62373Y-42598D01*
X62384Y-42620D01*
X62395Y-42665D01*
X62395Y-42722D01*
X62384Y-42767D01*
X62373Y-42789D01*
X62362Y-42800D01*
X62339Y-42812D01*
X62317Y-42812D01*
X62294Y-42800D01*
X62283Y-42789D01*
X62272Y-42767D01*
X62260Y-42722D01*
X62260Y-42665D01*
X62272Y-42620D01*
X62283Y-42598D01*
X62294Y-42587D01*
X62317Y-42575D01*
X62598Y-42654D02*
X62598Y-42812D01*
X62497Y-42654D02*
X62497Y-42778D01*
X62508Y-42800D01*
X62530Y-42812D01*
X62564Y-42812D01*
X62587Y-42800D01*
X62598Y-42789D01*
M02*
