M48
;DRILL file {Pcbnew (2013-07-07 BZR 4022)-stable} date 24/01/2015 20:53:44
;FORMAT={-:-/ absolute / metric / decimal}
FMAT,2
METRIC,TZ
T1C0.400
T2C0.900
%
G90
G05
M71
T1
X150.6Y-134.8
X151.11Y-130.6
X151.996Y-127.526
X152.2Y-115.8
X152.4Y-120.2
X152.6Y-130.8
X153.658Y-123.958
X154.254Y-142.958
X155.6Y-128.8
X157.Y-115.6
X157.Y-120.2
X157.542Y-127.344
X159.84Y-124.03
X161.051Y-124.135
X161.6Y-115.6
X161.6Y-120.2
X162.Y-129.
X164.2Y-112.6
X164.8Y-118.2
X165.006Y-126.102
X169.119Y-111.045
X169.425Y-123.251
X170.99Y-122.441
X171.75Y-124.071
X172.658Y-121.388
X172.849Y-119.067
X173.926Y-113.538
X174.2Y-126.4
X174.8Y-111.
X176.378Y-119.399
X177.289Y-129.159
X177.8Y-113.
X177.93Y-120.05
X178.055Y-123.449
X178.395Y-115.373
X178.753Y-124.508
X178.773Y-126.762
X179.6Y-129.8
X180.Y-131.4
X181.138Y-127.824
X182.358Y-127.782
X182.6Y-135.6
X184.Y-139.
X184.4Y-116.2
X184.871Y-128.458
X185.111Y-120.624
X186.299Y-142.953
T2
X168.23Y-127.
X170.77Y-127.
X188.Y-116.69
X188.Y-119.23
X188.Y-121.77
X188.Y-124.31
X188.Y-127.46
X188.Y-130.
X188.Y-132.54
T0
M30
