M48
;DRILL file {Pcbnew (2013-07-07 BZR 4022)-stable} date 3/28/2015 11:51:07 PM
;FORMAT={-:-/ absolute / metric / decimal}
FMAT,2
METRIC,TZ
T1C0.400
T2C0.900
T3C1.500
%
G90
G05
M71
T1
X50.974Y-69.409
X62.778Y-70.049
X62.83Y-67.045
X65.867Y-67.231
X67.994Y-67.678
X71.225Y-74.127
X73.48Y-71.316
X83.511Y-68.202
X85.516Y-69.957
X87.355Y-71.613
X88.749Y-70.424
X90.956Y-68.615
X92.154Y-68.843
X94.217Y-70.604
X95.203Y-69.747
X95.288Y-65.696
X96.343Y-73.517
X98.019Y-67.289
X100.558Y-69.467
X101.1Y-66.265
X101.406Y-70.316
X101.551Y-71.516
X103.744Y-66.215
X107.3Y-73.945
X107.556Y-71.353
X109.045Y-71.437
X109.9Y-73.5
X111.563Y-71.528
X112.9Y-72.6
X113.5Y-75.9
X114.9Y-71.2
X116.877Y-68.289
X117.Y-71.
X117.Y-75.4
X118.331Y-72.063
X118.552Y-67.118
X119.3Y-75.2
X119.58Y-68.518
X120.526Y-66.352
X121.251Y-73.834
X122.187Y-66.005
X123.2Y-68.608
X123.2Y-69.708
X123.251Y-73.243
X124.3Y-68.608
X124.3Y-69.708
X126.133Y-71.539
X126.152Y-73.248
X127.387Y-66.534
X127.846Y-73.104
X128.588Y-66.534
X129.973Y-66.449
X129.973Y-72.349
X131.708Y-71.045
X131.753Y-67.651
X133.507Y-65.933
X134.061Y-70.361
X134.808Y-68.451
X135.768Y-67.119
X137.29Y-70.325
X137.3Y-68.276
X137.542Y-66.586
X138.159Y-64.033
X138.998Y-70.345
X139.015Y-68.315
X139.361Y-66.52
X140.897Y-68.334
X140.913Y-66.498
X140.931Y-70.317
X142.538Y-68.315
X142.577Y-66.498
X142.646Y-70.332
X143.335Y-64.248
X144.329Y-66.498
X144.402Y-68.24
X144.527Y-70.326
X146.17Y-66.586
X146.256Y-68.191
X146.572Y-70.306
X147.79Y-66.542
X147.857Y-64.483
X148.212Y-68.152
X148.466Y-70.301
X149.667Y-68.143
X150.13Y-70.363
X150.429Y-66.564
X151.063Y-68.185
X160.277Y-68.673
X160.277Y-71.673
X164.21Y-71.766
X168.292Y-71.638
X168.442Y-72.838
X168.542Y-70.058
T2
X81.69Y-64.825
X84.23Y-64.825
X86.77Y-64.825
X89.31Y-64.825
X106.934Y-65.029
X109.474Y-65.029
T3
X38.627Y-65.568
X38.639Y-70.279
T0
M30
