G04 (created by PCBNEW (2013-07-07 BZR 4022)-stable) date 3/28/2015 11:51:11 PM*
%MOIN*%
G04 Gerber Fmt 3.4, Leading zero omitted, Abs format*
%FSLAX34Y34*%
G01*
G70*
G90*
G04 APERTURE LIST*
%ADD10C,0.00590551*%
%ADD11C,0.0394*%
%ADD12R,0.03X0.02*%
%ADD13R,0.023622X0.023622*%
%ADD14R,0.0433071X0.0110236*%
%ADD15O,0.0433071X0.0110236*%
%ADD16O,0.0110236X0.0433071*%
%ADD17R,0.0433071X0.0433071*%
%ADD18C,0.0118*%
%ADD19R,0.0591X0.126*%
%ADD20R,0.0394X0.0394*%
%ADD21R,0.0551181X0.0393701*%
%ADD22R,0.11811X0.0787402*%
%ADD23R,0.0590551X0.0590551*%
%ADD24C,0.0590551*%
%ADD25R,0.055X0.045*%
%ADD26R,0.019685X0.155118*%
%ADD27R,0.106299X0.019685*%
%ADD28R,0.0787402X0.019685*%
%ADD29R,0.019685X0.103937*%
%ADD30R,0.019685X0.192913*%
%ADD31R,0.0354331X0.192913*%
%ADD32R,0.19685X0.019685*%
%ADD33R,0.11811X0.11811*%
%ADD34C,0.11811*%
%ADD35R,0.063X0.0472*%
%ADD36R,0.0629921X0.0433071*%
%ADD37C,0.0354331*%
%ADD38C,0.019685*%
%ADD39C,0.00787402*%
%ADD40C,0.015748*%
%ADD41C,0.01*%
G04 APERTURE END LIST*
G54D10*
G54D11*
X42011Y-29625D03*
X36134Y-29093D03*
G54D12*
X28175Y-27389D03*
X28175Y-26639D03*
X27175Y-27389D03*
X28175Y-27014D03*
X27175Y-26639D03*
G54D13*
X25000Y-27952D03*
X25393Y-27952D03*
X25000Y-27263D03*
X25393Y-27263D03*
X27794Y-29683D03*
X28188Y-29683D03*
X23958Y-26103D03*
X23958Y-25709D03*
X58655Y-25264D03*
X59048Y-25264D03*
X55516Y-25255D03*
X55910Y-25255D03*
X57098Y-25254D03*
X57491Y-25254D03*
X49015Y-25692D03*
X49015Y-25299D03*
G54D14*
X47952Y-26833D03*
G54D15*
X47952Y-27030D03*
X47952Y-27227D03*
X47952Y-27424D03*
X47952Y-27621D03*
G54D16*
X48326Y-27995D03*
X48523Y-27995D03*
X48720Y-27995D03*
X48917Y-27995D03*
X49114Y-27995D03*
G54D15*
X49488Y-27621D03*
X49488Y-27424D03*
X49488Y-27227D03*
X49488Y-27030D03*
X49488Y-26833D03*
G54D16*
X49114Y-26459D03*
X48917Y-26459D03*
X48720Y-26459D03*
X48523Y-26459D03*
X48326Y-26459D03*
G54D17*
X48503Y-27010D03*
X48937Y-27010D03*
X48503Y-27443D03*
X48937Y-27443D03*
G54D10*
G36*
X36490Y-28566D02*
X36407Y-28482D01*
X36740Y-28148D01*
X36824Y-28232D01*
X36490Y-28566D01*
X36490Y-28566D01*
G37*
G54D18*
X36629Y-28621D02*
X36879Y-28370D01*
X36768Y-28760D02*
X37018Y-28510D01*
X36907Y-28899D02*
X37158Y-28649D01*
X37047Y-29039D02*
X37297Y-28788D01*
X37186Y-29178D02*
X37436Y-28928D01*
X37325Y-29317D02*
X37575Y-29067D01*
X37464Y-29456D02*
X37715Y-29206D01*
X37603Y-29595D02*
X37853Y-29345D01*
X37742Y-29734D02*
X37993Y-29484D01*
X37882Y-29874D02*
X38132Y-29623D01*
X38020Y-30014D02*
X38271Y-29763D01*
X39108Y-30012D02*
X38857Y-29762D01*
X39246Y-29874D02*
X38996Y-29623D01*
X39386Y-29734D02*
X39135Y-29484D01*
X39525Y-29595D02*
X39275Y-29345D01*
X39664Y-29456D02*
X39414Y-29205D01*
X39804Y-29316D02*
X39553Y-29066D01*
X39943Y-29177D02*
X39693Y-28927D01*
X40081Y-29039D02*
X39831Y-28788D01*
X40221Y-28899D02*
X39970Y-28649D01*
X40360Y-28760D02*
X40110Y-28510D01*
X40499Y-28621D02*
X40248Y-28371D01*
X40638Y-28482D02*
X40388Y-28232D01*
X40388Y-27647D02*
X40639Y-27397D01*
X40249Y-27508D02*
X40499Y-27257D01*
X40110Y-27368D02*
X40360Y-27118D01*
X39970Y-27229D02*
X40221Y-26979D01*
X39831Y-27090D02*
X40081Y-26839D01*
X39692Y-26950D02*
X39942Y-26700D01*
X39553Y-26811D02*
X39803Y-26561D01*
X39414Y-26673D02*
X39664Y-26422D01*
X39275Y-26533D02*
X39525Y-26283D01*
X39135Y-26394D02*
X39386Y-26144D01*
X38996Y-26255D02*
X39246Y-26004D01*
X38857Y-26115D02*
X39107Y-25865D01*
X38272Y-26116D02*
X38022Y-25866D01*
X38133Y-26255D02*
X37882Y-26005D01*
X37993Y-26395D02*
X37743Y-26144D01*
X37854Y-26534D02*
X37604Y-26284D01*
X37715Y-26673D02*
X37464Y-26423D01*
X37575Y-26813D02*
X37325Y-26562D01*
X37437Y-26951D02*
X37187Y-26701D01*
X37298Y-27091D02*
X37047Y-26840D01*
X37158Y-27230D02*
X36908Y-26979D01*
X37019Y-27369D02*
X36769Y-27119D01*
X36880Y-27508D02*
X36629Y-27258D01*
X36740Y-27648D02*
X36490Y-27397D01*
G54D19*
X26476Y-29232D03*
X25098Y-29232D03*
G54D13*
X52076Y-27069D03*
X51682Y-27069D03*
X51178Y-27962D03*
X51178Y-27569D03*
X52952Y-27326D03*
X52559Y-27326D03*
G54D20*
X28187Y-27998D03*
X27163Y-27998D03*
G54D21*
X48505Y-29954D03*
X49371Y-29954D03*
X49371Y-29324D03*
X48505Y-29324D03*
G54D22*
X60647Y-26460D03*
X60647Y-27641D03*
X60647Y-28822D03*
G54D23*
X35161Y-25521D03*
G54D24*
X34161Y-25521D03*
X33161Y-25521D03*
X32161Y-25521D03*
G54D23*
X42099Y-25601D03*
G54D24*
X43099Y-25601D03*
G54D25*
X22770Y-28204D03*
X22770Y-27404D03*
X30037Y-27303D03*
X30037Y-28103D03*
G54D13*
X53448Y-27326D03*
X53448Y-26932D03*
X52557Y-26814D03*
X52557Y-26421D03*
X21746Y-27993D03*
X21746Y-27599D03*
X40023Y-25632D03*
X40416Y-25632D03*
X50277Y-27570D03*
X50671Y-27570D03*
X29053Y-27309D03*
X29053Y-27703D03*
X35708Y-28368D03*
X35314Y-28368D03*
X35708Y-27696D03*
X35314Y-27696D03*
X36387Y-29804D03*
X35994Y-29804D03*
X48523Y-25692D03*
X48523Y-25299D03*
X50277Y-26568D03*
X50671Y-26568D03*
X49803Y-25690D03*
X49803Y-25297D03*
X48898Y-28734D03*
X49291Y-28734D03*
X47047Y-27997D03*
X46653Y-27997D03*
X47047Y-27349D03*
X46653Y-27349D03*
X51680Y-27569D03*
X52074Y-27569D03*
X50192Y-29422D03*
X50192Y-29816D03*
X47757Y-29836D03*
X47757Y-29442D03*
X41262Y-27900D03*
X41655Y-27900D03*
X50277Y-28056D03*
X50671Y-28056D03*
X50277Y-27072D03*
X50671Y-27072D03*
X51169Y-27072D03*
X51169Y-26679D03*
G54D26*
X58110Y-29106D03*
G54D27*
X57677Y-29980D03*
G54D28*
X56751Y-28940D03*
G54D27*
X55826Y-29980D03*
G54D29*
X57244Y-29362D03*
X56259Y-29362D03*
X55393Y-29362D03*
G54D30*
X53543Y-28917D03*
G54D31*
X52716Y-28917D03*
G54D32*
X53523Y-29980D03*
G54D29*
X54409Y-29362D03*
G54D28*
X54901Y-28940D03*
G54D33*
X15212Y-27669D03*
G54D34*
X15207Y-25814D03*
G54D35*
X19594Y-26887D03*
X19594Y-28667D03*
X16554Y-26887D03*
X16554Y-28667D03*
G54D36*
X65685Y-27054D03*
X65685Y-27684D03*
X65685Y-28314D03*
X63717Y-27054D03*
X63717Y-27684D03*
X63717Y-28314D03*
G54D37*
X48105Y-25986D03*
X50152Y-26194D03*
X49658Y-28164D03*
X48524Y-28835D03*
X47078Y-26975D03*
X24715Y-27578D03*
X35809Y-27013D03*
X37481Y-27459D03*
X28041Y-29183D03*
X43922Y-28160D03*
X46014Y-26885D03*
X42930Y-28124D03*
X47451Y-26122D03*
X42244Y-29112D03*
X46674Y-26424D03*
X54393Y-25209D03*
X39589Y-27349D03*
X39923Y-27683D03*
X56431Y-25294D03*
X42344Y-28091D03*
X58211Y-25386D03*
X37515Y-25864D03*
X38590Y-26491D03*
X20068Y-27326D03*
X37093Y-27796D03*
X24736Y-26395D03*
X46968Y-29606D03*
X46062Y-29685D03*
X44685Y-29881D03*
X43267Y-28937D03*
X44448Y-28582D03*
X45236Y-28031D03*
X46062Y-27952D03*
X25931Y-26469D03*
X26769Y-26644D03*
X28929Y-28077D03*
X32878Y-26851D03*
X33667Y-27542D03*
X34391Y-28193D03*
X34940Y-27725D03*
X36281Y-27103D03*
X39803Y-26088D03*
X39980Y-28155D03*
X37930Y-28943D03*
X46587Y-28371D03*
X47736Y-29068D03*
X50625Y-26194D03*
X50332Y-28781D03*
X49666Y-28837D03*
X52780Y-27700D03*
X53074Y-26949D03*
X51170Y-28483D03*
X51170Y-26161D03*
X52561Y-25957D03*
X53451Y-26424D03*
X54054Y-26880D03*
X54730Y-26895D03*
X55471Y-26903D03*
X55477Y-26180D03*
X56132Y-26180D03*
X56822Y-26180D03*
X58184Y-26197D03*
X59224Y-26206D03*
X56117Y-26895D03*
X56851Y-26866D03*
X57581Y-26846D03*
X58351Y-26831D03*
X59473Y-26844D03*
X54723Y-27694D03*
X55484Y-27683D03*
X56160Y-27689D03*
X56900Y-27687D03*
X57705Y-27679D03*
X58451Y-27677D03*
X59106Y-27702D03*
X58923Y-26827D03*
X54050Y-27686D03*
X51853Y-27970D03*
X51871Y-26634D03*
X54150Y-26215D03*
X54866Y-26188D03*
X57547Y-26215D03*
X64649Y-28254D03*
X66355Y-27582D03*
X66315Y-28676D03*
X63101Y-28217D03*
X63101Y-27036D03*
X40844Y-26068D03*
X66256Y-28203D03*
G54D38*
X45851Y-27279D02*
X41772Y-27037D01*
X35415Y-25915D02*
X35603Y-26045D01*
X35358Y-25857D02*
X35415Y-25915D01*
X35358Y-25816D02*
X35358Y-25857D01*
X35358Y-25718D02*
X35358Y-25816D01*
X35161Y-25521D02*
X35358Y-25718D01*
X36368Y-29784D02*
X36387Y-29804D01*
X36368Y-29686D02*
X36368Y-29784D01*
X36368Y-29645D02*
X36368Y-29686D01*
X36310Y-29588D02*
X36368Y-29645D01*
X36194Y-29488D02*
X36310Y-29588D01*
X35970Y-29488D02*
X36194Y-29488D01*
X35739Y-29256D02*
X35970Y-29488D01*
X35521Y-28729D02*
X35739Y-29256D01*
X35688Y-28388D02*
X35708Y-28368D01*
X35688Y-28486D02*
X35688Y-28388D01*
X35688Y-28527D02*
X35688Y-28486D01*
X35521Y-28729D02*
X35688Y-28527D01*
X35106Y-28703D02*
X35521Y-28729D01*
X34979Y-28576D02*
X35106Y-28703D01*
X34751Y-28045D02*
X34979Y-28576D01*
X34580Y-27874D02*
X34751Y-28045D01*
X34508Y-27779D02*
X34580Y-27874D01*
X33831Y-27935D02*
X30703Y-28050D01*
X34228Y-27800D02*
X33831Y-27935D01*
X34508Y-27779D02*
X34228Y-27800D01*
X35688Y-27677D02*
X35708Y-27696D01*
X35688Y-27578D02*
X35688Y-27677D01*
X35688Y-27538D02*
X35688Y-27578D01*
X35649Y-27489D02*
X35688Y-27538D01*
X35522Y-27362D02*
X35649Y-27489D01*
X35339Y-27195D02*
X35522Y-27362D01*
X34546Y-27562D02*
X34508Y-27779D01*
X34777Y-27332D02*
X34546Y-27562D01*
X35339Y-27195D02*
X34777Y-27332D01*
X30528Y-28417D02*
X30703Y-28050D01*
X30402Y-28544D02*
X30528Y-28417D01*
X28347Y-29663D02*
X30402Y-28544D01*
X28306Y-29663D02*
X28347Y-29663D01*
X28207Y-29663D02*
X28306Y-29663D01*
X28188Y-29683D02*
X28207Y-29663D01*
X25413Y-27933D02*
X25393Y-27952D01*
X25511Y-27933D02*
X25413Y-27933D01*
X25552Y-27933D02*
X25511Y-27933D01*
X25610Y-27875D02*
X25552Y-27933D01*
X25689Y-27455D02*
X25610Y-27875D01*
X25689Y-27356D02*
X25689Y-27455D01*
X25413Y-27283D02*
X25393Y-27263D01*
X25511Y-27283D02*
X25413Y-27283D01*
X25552Y-27283D02*
X25511Y-27283D01*
X25689Y-27356D02*
X25552Y-27283D01*
X26325Y-26632D02*
X25689Y-27356D01*
X26375Y-26481D02*
X26325Y-26632D01*
X26606Y-26251D02*
X26375Y-26481D01*
X26932Y-26251D02*
X26606Y-26251D01*
X28414Y-26322D02*
X26932Y-26251D01*
X29803Y-26979D02*
X28414Y-26322D01*
X29860Y-27037D02*
X29803Y-26979D01*
X29860Y-27078D02*
X29860Y-27037D01*
X29860Y-27176D02*
X29860Y-27078D01*
X30037Y-27303D02*
X29860Y-27176D01*
X35867Y-27677D02*
X36258Y-27500D01*
X35826Y-27677D02*
X35867Y-27677D01*
X35727Y-27677D02*
X35826Y-27677D01*
X35708Y-27696D02*
X35727Y-27677D01*
G54D39*
X36490Y-27397D02*
X36615Y-27523D01*
X36419Y-27438D02*
X36490Y-27397D01*
X36258Y-27500D02*
X36419Y-27438D01*
G54D38*
X41184Y-28116D02*
X40825Y-28335D01*
X41242Y-28059D02*
X41184Y-28116D01*
X41242Y-28018D02*
X41242Y-28059D01*
X41242Y-27919D02*
X41242Y-28018D01*
X41262Y-27900D02*
X41242Y-27919D01*
G54D39*
X40638Y-28482D02*
X40513Y-28357D01*
X40825Y-28335D02*
X40638Y-28482D01*
G54D38*
X41281Y-27880D02*
X41262Y-27900D01*
X41281Y-27782D02*
X41281Y-27880D01*
X41281Y-27578D02*
X41281Y-27782D01*
X41772Y-27037D02*
X41281Y-27578D01*
X41237Y-25905D02*
X41772Y-27037D01*
X41007Y-25675D02*
X41237Y-25905D01*
X40624Y-25298D02*
X41007Y-25675D01*
X40388Y-25298D02*
X40624Y-25298D01*
X40209Y-25298D02*
X40388Y-25298D01*
X40064Y-25329D02*
X40209Y-25298D01*
X40056Y-25337D02*
X40064Y-25329D01*
X40042Y-25613D02*
X40023Y-25632D01*
X40042Y-25514D02*
X40042Y-25613D01*
X40042Y-25474D02*
X40042Y-25514D01*
X40056Y-25337D02*
X40042Y-25474D01*
X35415Y-26850D02*
X35339Y-27195D01*
X35603Y-26045D02*
X35415Y-26850D01*
G54D39*
X39222Y-25750D02*
X39622Y-25706D01*
X39107Y-25865D02*
X39222Y-25750D01*
X38982Y-25990D02*
X39107Y-25865D01*
G54D38*
X39864Y-25652D02*
X39622Y-25706D01*
X39905Y-25652D02*
X39864Y-25652D01*
X40003Y-25652D02*
X39905Y-25652D01*
X40023Y-25632D02*
X40003Y-25652D01*
X39994Y-25298D02*
X40056Y-25337D01*
X39815Y-25298D02*
X39994Y-25298D01*
X39717Y-25298D02*
X39815Y-25298D01*
X37351Y-25470D02*
X39717Y-25298D01*
X35603Y-26045D02*
X37351Y-25470D01*
G54D39*
X36423Y-28443D02*
X36229Y-28430D01*
X36435Y-28454D02*
X36423Y-28443D01*
X36462Y-28482D02*
X36435Y-28454D01*
X36615Y-28357D02*
X36462Y-28482D01*
X37546Y-29652D02*
X37281Y-29667D01*
X37603Y-29595D02*
X37546Y-29652D01*
X37728Y-29470D02*
X37603Y-29595D01*
G54D38*
X36546Y-29784D02*
X37281Y-29667D01*
X36505Y-29784D02*
X36546Y-29784D01*
X36407Y-29784D02*
X36505Y-29784D01*
X36387Y-29804D02*
X36407Y-29784D01*
X35867Y-28388D02*
X36229Y-28430D01*
X35826Y-28388D02*
X35867Y-28388D01*
X35727Y-28388D02*
X35826Y-28388D01*
X35708Y-28368D02*
X35727Y-28388D01*
X30410Y-27487D02*
X30703Y-28050D01*
X30353Y-27429D02*
X30410Y-27487D01*
X30312Y-27429D02*
X30353Y-27429D01*
X30213Y-27429D02*
X30312Y-27429D01*
X30037Y-27303D02*
X30213Y-27429D01*
X29860Y-27289D02*
X30037Y-27303D01*
X29762Y-27289D02*
X29860Y-27289D01*
X29171Y-27289D02*
X29762Y-27289D01*
X29072Y-27289D02*
X29171Y-27289D01*
X29053Y-27309D02*
X29072Y-27289D01*
X29033Y-27289D02*
X29053Y-27309D01*
X28934Y-27289D02*
X29033Y-27289D01*
X28894Y-27289D02*
X28934Y-27289D01*
X28492Y-27205D02*
X28894Y-27289D01*
X28226Y-27015D02*
X28175Y-27014D01*
X28325Y-27015D02*
X28226Y-27015D01*
X28365Y-27015D02*
X28325Y-27015D01*
X28423Y-27073D02*
X28365Y-27015D01*
X28492Y-27205D02*
X28423Y-27073D01*
X28423Y-27329D02*
X28492Y-27205D01*
X28365Y-27387D02*
X28423Y-27329D01*
X28325Y-27387D02*
X28365Y-27387D01*
X28226Y-27387D02*
X28325Y-27387D01*
X28175Y-27389D02*
X28226Y-27387D01*
X28181Y-27390D02*
X28175Y-27389D01*
X28181Y-27489D02*
X28181Y-27390D01*
X28181Y-27801D02*
X28181Y-27489D01*
X28181Y-27899D02*
X28181Y-27801D01*
X28187Y-27998D02*
X28181Y-27899D01*
X46177Y-27279D02*
X45851Y-27279D01*
X46445Y-27015D02*
X46177Y-27279D01*
X46898Y-27015D02*
X46445Y-27015D01*
X47059Y-26975D02*
X46898Y-27015D01*
X47078Y-26975D02*
X47059Y-26975D01*
X48878Y-28754D02*
X48898Y-28734D01*
X48780Y-28754D02*
X48878Y-28754D01*
X48739Y-28754D02*
X48780Y-28754D01*
X48524Y-28835D02*
X48739Y-28754D01*
X50139Y-27987D02*
X49838Y-27761D01*
X50197Y-27987D02*
X50139Y-27987D01*
G54D39*
X49649Y-27621D02*
X49488Y-27621D01*
X49838Y-27761D02*
X49649Y-27621D01*
G54D38*
X50258Y-28076D02*
X50277Y-28056D01*
X50258Y-28174D02*
X50258Y-28076D01*
X50258Y-28215D02*
X50258Y-28174D01*
X50200Y-28272D02*
X50258Y-28215D01*
X50119Y-28272D02*
X50200Y-28272D01*
X50021Y-28272D02*
X50119Y-28272D01*
X49658Y-28164D02*
X50021Y-28272D01*
G54D39*
X49731Y-27030D02*
X49881Y-26891D01*
X49649Y-27030D02*
X49731Y-27030D01*
X49488Y-27030D02*
X49649Y-27030D01*
X49628Y-26833D02*
X49628Y-26601D01*
X49488Y-26833D02*
X49628Y-26833D01*
X48720Y-26216D02*
X48631Y-26023D01*
X48720Y-26298D02*
X48720Y-26216D01*
X48720Y-26459D02*
X48720Y-26298D01*
G54D38*
X50061Y-26645D02*
X49881Y-26891D01*
X50119Y-26588D02*
X50061Y-26645D01*
X50159Y-26588D02*
X50119Y-26588D01*
X50258Y-26588D02*
X50159Y-26588D01*
X50277Y-26568D02*
X50258Y-26588D01*
X49628Y-26474D02*
X49628Y-26601D01*
X49783Y-25849D02*
X49628Y-26474D01*
X49783Y-25808D02*
X49783Y-25849D01*
X49783Y-25710D02*
X49783Y-25808D01*
X49803Y-25690D02*
X49783Y-25710D01*
X50258Y-26548D02*
X50277Y-26568D01*
X50258Y-26450D02*
X50258Y-26548D01*
X50258Y-26409D02*
X50258Y-26450D01*
X50152Y-26194D02*
X50258Y-26409D01*
X49822Y-25710D02*
X49803Y-25690D01*
X49921Y-25710D02*
X49822Y-25710D01*
X49962Y-25710D02*
X49921Y-25710D01*
X50019Y-25768D02*
X49962Y-25710D01*
X50152Y-26194D02*
X50019Y-25768D01*
X48503Y-25712D02*
X48523Y-25692D01*
X48405Y-25712D02*
X48503Y-25712D01*
X48364Y-25712D02*
X48405Y-25712D01*
X48307Y-25770D02*
X48364Y-25712D01*
X48105Y-25986D02*
X48307Y-25770D01*
X48543Y-25851D02*
X48631Y-26023D01*
X48543Y-25810D02*
X48543Y-25851D01*
X48543Y-25712D02*
X48543Y-25810D01*
X48523Y-25692D02*
X48543Y-25712D01*
G54D39*
X48917Y-28238D02*
X48948Y-28435D01*
X48917Y-28156D02*
X48917Y-28238D01*
X48917Y-27995D02*
X48917Y-28156D01*
G54D38*
X48917Y-28575D02*
X48948Y-28435D01*
X48917Y-28616D02*
X48917Y-28575D01*
X48917Y-28714D02*
X48917Y-28616D01*
X48898Y-28734D02*
X48917Y-28714D01*
X47066Y-27330D02*
X47047Y-27349D01*
X47066Y-27231D02*
X47066Y-27330D01*
X47066Y-27190D02*
X47066Y-27231D01*
X47078Y-26975D02*
X47066Y-27190D01*
G54D39*
X47709Y-27424D02*
X47559Y-27403D01*
X47791Y-27424D02*
X47709Y-27424D01*
X47952Y-27424D02*
X47791Y-27424D01*
G54D38*
X47206Y-27369D02*
X47559Y-27403D01*
X47165Y-27369D02*
X47206Y-27369D01*
X47066Y-27369D02*
X47165Y-27369D01*
X47047Y-27349D02*
X47066Y-27369D01*
G54D39*
X36390Y-27449D02*
X36300Y-27542D01*
X36390Y-27449D02*
X36262Y-27441D01*
X40714Y-28423D02*
X40773Y-28308D01*
X40714Y-28423D02*
X40839Y-28393D01*
X39481Y-25721D02*
X39592Y-25655D01*
X39481Y-25721D02*
X39603Y-25762D01*
X36371Y-28439D02*
X36250Y-28485D01*
X36371Y-28439D02*
X36258Y-28378D01*
X37423Y-29659D02*
X37309Y-29720D01*
X37423Y-29659D02*
X37303Y-29612D01*
X49724Y-27676D02*
X49850Y-27703D01*
X49724Y-27676D02*
X49786Y-27789D01*
X49777Y-26987D02*
X49827Y-26868D01*
X49777Y-26987D02*
X49900Y-26948D01*
X49628Y-26743D02*
X49574Y-26625D01*
X49628Y-26743D02*
X49682Y-26625D01*
X48690Y-26151D02*
X48592Y-26067D01*
X48690Y-26151D02*
X48690Y-26022D01*
X48926Y-28295D02*
X48998Y-28403D01*
X48926Y-28295D02*
X48892Y-28420D01*
X47699Y-27422D02*
X47576Y-27460D01*
X47699Y-27422D02*
X47590Y-27354D01*
X50199Y-27491D02*
X50277Y-27570D01*
X50159Y-27491D02*
X50199Y-27491D01*
X50143Y-27491D02*
X50159Y-27491D01*
X49731Y-27424D02*
X50143Y-27491D01*
X49649Y-27424D02*
X49731Y-27424D01*
X49488Y-27424D02*
X49649Y-27424D01*
X50199Y-27150D02*
X50277Y-27072D01*
X50159Y-27150D02*
X50199Y-27150D01*
X50143Y-27150D02*
X50159Y-27150D01*
X49812Y-27227D02*
X50143Y-27150D01*
X49649Y-27227D02*
X49812Y-27227D01*
X49488Y-27227D02*
X49649Y-27227D01*
G54D38*
X24901Y-28700D02*
X25098Y-29232D01*
X24802Y-28700D02*
X24901Y-28700D01*
X24762Y-28700D02*
X24802Y-28700D01*
X23086Y-28330D02*
X24762Y-28700D01*
X23045Y-28330D02*
X23086Y-28330D01*
X22947Y-28330D02*
X23045Y-28330D01*
X22770Y-28204D02*
X22947Y-28330D01*
X22594Y-28077D02*
X22770Y-28204D01*
X22495Y-28077D02*
X22594Y-28077D01*
X22454Y-28077D02*
X22495Y-28077D01*
X21905Y-28012D02*
X22454Y-28077D01*
X21864Y-28012D02*
X21905Y-28012D01*
X21765Y-28012D02*
X21864Y-28012D01*
X21746Y-27993D02*
X21765Y-28012D01*
X21726Y-27973D02*
X21746Y-27993D01*
X21628Y-27973D02*
X21726Y-27973D01*
X15802Y-27973D02*
X21628Y-27973D01*
X15704Y-27973D02*
X15802Y-27973D01*
X15212Y-27669D02*
X15704Y-27973D01*
G54D39*
X36142Y-26769D02*
X35809Y-27013D01*
X36745Y-26585D02*
X36142Y-26769D01*
X37071Y-26585D02*
X36745Y-26585D01*
X37129Y-26643D02*
X37071Y-26585D01*
X37187Y-26701D02*
X37129Y-26643D01*
X37312Y-26826D02*
X37187Y-26701D01*
X24842Y-27365D02*
X24715Y-27578D01*
X24865Y-27342D02*
X24842Y-27365D01*
X24881Y-27342D02*
X24865Y-27342D01*
X24921Y-27342D02*
X24881Y-27342D01*
X25000Y-27263D02*
X24921Y-27342D01*
X19319Y-28667D02*
X19594Y-28667D01*
X19279Y-28667D02*
X19319Y-28667D01*
X16869Y-28667D02*
X19279Y-28667D01*
X16830Y-28667D02*
X16869Y-28667D01*
X16554Y-28667D02*
X16830Y-28667D01*
X25078Y-28031D02*
X25000Y-27952D01*
X25078Y-28070D02*
X25078Y-28031D01*
X25078Y-28087D02*
X25078Y-28070D01*
X25118Y-28136D02*
X25078Y-28087D01*
X25210Y-28228D02*
X25118Y-28136D01*
X25459Y-28444D02*
X25210Y-28228D01*
X25551Y-28537D02*
X25459Y-28444D01*
X25700Y-29828D02*
X25551Y-28537D01*
X25459Y-30019D02*
X25700Y-29828D01*
X25328Y-30019D02*
X25459Y-30019D01*
X24737Y-30019D02*
X25328Y-30019D01*
X19925Y-28864D02*
X24737Y-30019D01*
X19909Y-28864D02*
X19925Y-28864D01*
X19870Y-28864D02*
X19909Y-28864D01*
X19594Y-28667D02*
X19870Y-28864D01*
X26115Y-30019D02*
X25700Y-29828D01*
X35712Y-30080D02*
X26115Y-30019D01*
X36440Y-30080D02*
X35712Y-30080D01*
X36571Y-30080D02*
X36440Y-30080D01*
X36669Y-30080D02*
X36571Y-30080D01*
X37824Y-29931D02*
X36669Y-30080D01*
X37882Y-29874D02*
X37824Y-29931D01*
X38007Y-29749D02*
X37882Y-29874D01*
X37575Y-26813D02*
X37450Y-26687D01*
X37633Y-26870D02*
X37575Y-26813D01*
X37633Y-27032D02*
X37633Y-26870D01*
X37481Y-27459D02*
X37633Y-27032D01*
X27873Y-29549D02*
X28041Y-29183D01*
X27873Y-29565D02*
X27873Y-29549D01*
X27873Y-29604D02*
X27873Y-29565D01*
X27794Y-29683D02*
X27873Y-29604D01*
X42158Y-29980D02*
X46799Y-28903D01*
X40410Y-30156D02*
X42158Y-29980D01*
X40244Y-30156D02*
X40410Y-30156D01*
X39307Y-30156D02*
X40244Y-30156D01*
X39223Y-30127D02*
X39307Y-30156D01*
X39108Y-30012D02*
X39223Y-30127D01*
X38983Y-29887D02*
X39108Y-30012D01*
X48523Y-28156D02*
X48523Y-27995D01*
X48517Y-28235D02*
X48523Y-28156D01*
X48405Y-28347D02*
X48517Y-28235D01*
X48321Y-28347D02*
X48405Y-28347D01*
X47523Y-28536D02*
X48321Y-28347D01*
X47510Y-28542D02*
X47523Y-28536D01*
X46812Y-28897D02*
X47510Y-28542D01*
X46799Y-28903D02*
X46812Y-28897D01*
X46718Y-28706D02*
X46725Y-28706D01*
X42011Y-29625D02*
X46718Y-28706D01*
X40374Y-29973D02*
X42011Y-29625D01*
X40213Y-29996D02*
X40374Y-29973D01*
X39673Y-29996D02*
X40213Y-29996D01*
X39562Y-29992D02*
X39673Y-29996D01*
X39452Y-29986D02*
X39562Y-29992D01*
X39367Y-29975D02*
X39452Y-29986D01*
X39304Y-29931D02*
X39367Y-29975D01*
X39246Y-29874D02*
X39304Y-29931D01*
X39121Y-29749D02*
X39246Y-29874D01*
X48326Y-27833D02*
X48326Y-27995D01*
X46725Y-28706D02*
X48326Y-27833D01*
X43069Y-28459D02*
X43922Y-28160D01*
X42105Y-28777D02*
X43069Y-28459D01*
X41737Y-29095D02*
X42105Y-28777D01*
X41485Y-29199D02*
X41737Y-29095D01*
X40149Y-29676D02*
X41485Y-29199D01*
X39737Y-29676D02*
X40149Y-29676D01*
X39660Y-29664D02*
X39737Y-29676D01*
X39586Y-29645D02*
X39660Y-29664D01*
X39525Y-29595D02*
X39586Y-29645D01*
X39400Y-29470D02*
X39525Y-29595D01*
X47791Y-27030D02*
X47952Y-27030D01*
X47677Y-27030D02*
X47791Y-27030D01*
X47225Y-26649D02*
X47677Y-27030D01*
X47217Y-26640D02*
X47225Y-26649D01*
X46940Y-26640D02*
X47217Y-26640D01*
X46906Y-26655D02*
X46940Y-26640D01*
X46809Y-26751D02*
X46906Y-26655D01*
X46339Y-26759D02*
X46809Y-26751D01*
X46014Y-26885D02*
X46339Y-26759D01*
X42483Y-28426D02*
X42930Y-28124D01*
X42031Y-28580D02*
X42483Y-28426D01*
X42018Y-28586D02*
X42031Y-28580D01*
X41626Y-28928D02*
X42018Y-28586D01*
X41446Y-29002D02*
X41626Y-28928D01*
X40413Y-29379D02*
X41446Y-29002D01*
X40252Y-29446D02*
X40413Y-29379D01*
X40083Y-29516D02*
X40252Y-29446D01*
X39802Y-29516D02*
X40083Y-29516D01*
X39728Y-29500D02*
X39802Y-29516D01*
X39664Y-29456D02*
X39728Y-29500D01*
X39539Y-29331D02*
X39664Y-29456D01*
X48326Y-26320D02*
X48326Y-26459D01*
X47966Y-26320D02*
X48326Y-26320D01*
X47451Y-26122D02*
X47966Y-26320D01*
X41524Y-29396D02*
X42244Y-29112D01*
X40338Y-29790D02*
X41524Y-29396D01*
X40181Y-29836D02*
X40338Y-29790D01*
X39705Y-29836D02*
X40181Y-29836D01*
X39595Y-29828D02*
X39705Y-29836D01*
X39515Y-29816D02*
X39595Y-29828D01*
X39443Y-29792D02*
X39515Y-29816D01*
X39386Y-29734D02*
X39443Y-29792D01*
X39261Y-29609D02*
X39386Y-29734D01*
X47775Y-26817D02*
X47952Y-26833D01*
X47775Y-26778D02*
X47775Y-26817D01*
X47775Y-26762D02*
X47775Y-26778D01*
X47752Y-26739D02*
X47775Y-26762D01*
X47312Y-26457D02*
X47752Y-26739D01*
X47304Y-26449D02*
X47312Y-26457D01*
X47291Y-26444D02*
X47304Y-26449D01*
X46674Y-26424D02*
X47291Y-26444D01*
X37854Y-26534D02*
X37729Y-26409D01*
X37912Y-26592D02*
X37854Y-26534D01*
X39589Y-27349D02*
X37912Y-26592D01*
X55437Y-25176D02*
X55516Y-25255D01*
X55398Y-25176D02*
X55437Y-25176D01*
X55382Y-25176D02*
X55398Y-25176D01*
X54393Y-25209D02*
X55382Y-25176D01*
X39646Y-28017D02*
X39923Y-27683D01*
X39635Y-28707D02*
X39646Y-28017D01*
X39635Y-28869D02*
X39635Y-28707D01*
X39693Y-28927D02*
X39635Y-28869D01*
X39818Y-29052D02*
X39693Y-28927D01*
X57019Y-25294D02*
X57098Y-25254D01*
X56980Y-25294D02*
X57019Y-25294D01*
X56431Y-25294D02*
X56980Y-25294D01*
X41907Y-28419D02*
X42344Y-28091D01*
X41514Y-28761D02*
X41907Y-28419D01*
X41407Y-28805D02*
X41514Y-28761D01*
X40374Y-29185D02*
X41407Y-28805D01*
X40142Y-29281D02*
X40374Y-29185D01*
X40017Y-29357D02*
X40142Y-29281D01*
X39869Y-29357D02*
X40017Y-29357D01*
X39804Y-29316D02*
X39869Y-29357D01*
X39678Y-29191D02*
X39804Y-29316D01*
X58576Y-25343D02*
X58655Y-25264D01*
X58536Y-25343D02*
X58576Y-25343D01*
X58520Y-25343D02*
X58536Y-25343D01*
X58211Y-25386D02*
X58520Y-25343D01*
G54D38*
X27123Y-27390D02*
X27175Y-27389D01*
X27025Y-27390D02*
X27123Y-27390D01*
X26984Y-27390D02*
X27025Y-27390D01*
X26926Y-27448D02*
X26984Y-27390D01*
X26749Y-27711D02*
X26926Y-27448D01*
X26749Y-27891D02*
X26749Y-27711D01*
X26755Y-27987D02*
X26749Y-27891D01*
X26788Y-28020D02*
X26755Y-27987D01*
X27064Y-28020D02*
X27163Y-27998D01*
X26966Y-28020D02*
X27064Y-28020D01*
X26788Y-28020D02*
X26966Y-28020D01*
X26673Y-28561D02*
X26788Y-28020D01*
X26673Y-28602D02*
X26673Y-28561D01*
X26673Y-28700D02*
X26673Y-28602D01*
X26476Y-29232D02*
X26673Y-28700D01*
G54D39*
X37801Y-25808D02*
X37515Y-25864D01*
X37964Y-25808D02*
X37801Y-25808D01*
X38022Y-25866D02*
X37964Y-25808D01*
X38147Y-25991D02*
X38022Y-25866D01*
X39078Y-26452D02*
X38590Y-26491D01*
X39135Y-26394D02*
X39078Y-26452D01*
X39261Y-26269D02*
X39135Y-26394D01*
X24092Y-26182D02*
X24736Y-26395D01*
X24076Y-26182D02*
X24092Y-26182D01*
X24037Y-26182D02*
X24076Y-26182D01*
X23958Y-26103D02*
X24037Y-26182D01*
X38069Y-28609D02*
X37093Y-27796D01*
X38265Y-28805D02*
X38069Y-28609D01*
X38265Y-29082D02*
X38265Y-28805D01*
X38050Y-29426D02*
X38265Y-29082D01*
X37993Y-29484D02*
X38050Y-29426D01*
X37868Y-29609D02*
X37993Y-29484D01*
X19893Y-27162D02*
X20068Y-27326D01*
X19870Y-27139D02*
X19893Y-27162D01*
X19870Y-27123D02*
X19870Y-27139D01*
X19870Y-27084D02*
X19870Y-27123D01*
X19594Y-26887D02*
X19870Y-27084D01*
X16830Y-26887D02*
X16554Y-26887D01*
X16869Y-26887D02*
X16830Y-26887D01*
X19279Y-26887D02*
X16869Y-26887D01*
X19319Y-26887D02*
X19279Y-26887D01*
X19594Y-26887D02*
X19319Y-26887D01*
G54D38*
X46968Y-29606D02*
X47007Y-29645D01*
X46023Y-29685D02*
X46062Y-29685D01*
X45826Y-29881D02*
X46023Y-29685D01*
X44685Y-29881D02*
X45826Y-29881D01*
X43464Y-28740D02*
X43267Y-28937D01*
X44291Y-28740D02*
X43464Y-28740D01*
X44448Y-28582D02*
X44291Y-28740D01*
X45984Y-28031D02*
X45236Y-28031D01*
X46062Y-27952D02*
X45984Y-28031D01*
X44085Y-27766D02*
X46478Y-28017D01*
X42507Y-27697D02*
X44085Y-27766D01*
X41855Y-27683D02*
X42507Y-27697D01*
X41814Y-27683D02*
X41855Y-27683D01*
X41733Y-27683D02*
X41814Y-27683D01*
X41675Y-27741D02*
X41733Y-27683D01*
X41675Y-27782D02*
X41675Y-27741D01*
X41675Y-27880D02*
X41675Y-27782D01*
X41655Y-27900D02*
X41675Y-27880D01*
G54D39*
X37715Y-29206D02*
X37590Y-29331D01*
X37772Y-29148D02*
X37715Y-29206D01*
X37930Y-28943D02*
X37772Y-29148D01*
X40191Y-28314D02*
X39980Y-28155D01*
X40248Y-28371D02*
X40191Y-28314D01*
X40374Y-28496D02*
X40248Y-28371D01*
X40720Y-28679D02*
X40859Y-28650D01*
X40556Y-28679D02*
X40720Y-28679D01*
X40499Y-28621D02*
X40556Y-28679D01*
X40374Y-28496D02*
X40499Y-28621D01*
G54D38*
X41636Y-27919D02*
X41655Y-27900D01*
X41636Y-28018D02*
X41636Y-27919D01*
X41636Y-28222D02*
X41636Y-28018D01*
X41347Y-28510D02*
X41636Y-28222D01*
X40956Y-28650D02*
X41347Y-28510D01*
X40859Y-28650D02*
X40956Y-28650D01*
G54D39*
X39467Y-25947D02*
X39803Y-26088D01*
X39304Y-25947D02*
X39467Y-25947D01*
X39246Y-26004D02*
X39304Y-25947D01*
X39121Y-26130D02*
X39246Y-26004D01*
G54D38*
X40397Y-25652D02*
X40416Y-25632D01*
X40397Y-25751D02*
X40397Y-25652D01*
X40397Y-25791D02*
X40397Y-25751D01*
X40357Y-25840D02*
X40397Y-25791D01*
X40231Y-25967D02*
X40357Y-25840D01*
X39803Y-26088D02*
X40231Y-25967D01*
G54D39*
X36629Y-27258D02*
X36755Y-27383D01*
X36572Y-27200D02*
X36629Y-27258D01*
X36281Y-27103D02*
X36572Y-27200D01*
X36343Y-27041D02*
X36281Y-27103D01*
X36826Y-26782D02*
X36343Y-27041D01*
X36990Y-26782D02*
X36826Y-26782D01*
X37047Y-26840D02*
X36990Y-26782D01*
X37172Y-26965D02*
X37047Y-26840D01*
G54D38*
X35294Y-27716D02*
X35314Y-27696D01*
X35196Y-27716D02*
X35294Y-27716D01*
X35155Y-27716D02*
X35196Y-27716D01*
X34940Y-27725D02*
X35155Y-27716D01*
X35974Y-29784D02*
X35994Y-29804D01*
X35876Y-29784D02*
X35974Y-29784D01*
X35835Y-29784D02*
X35876Y-29784D01*
X34970Y-29012D02*
X35835Y-29784D01*
X34670Y-28712D02*
X34970Y-29012D01*
X34391Y-28193D02*
X34670Y-28712D01*
X32878Y-26851D02*
X33667Y-27542D01*
X35334Y-28348D02*
X35314Y-28368D01*
X35334Y-28250D02*
X35334Y-28348D01*
X35334Y-27815D02*
X35334Y-28250D01*
X35334Y-27716D02*
X35334Y-27815D01*
X35314Y-27696D02*
X35334Y-27716D01*
X33161Y-25521D02*
X32878Y-26851D01*
X29860Y-27976D02*
X30037Y-28103D01*
X29762Y-27976D02*
X29860Y-27976D01*
X29721Y-27976D02*
X29762Y-27976D01*
X29211Y-27722D02*
X29721Y-27976D01*
X29171Y-27722D02*
X29211Y-27722D01*
X29072Y-27722D02*
X29171Y-27722D01*
X29053Y-27703D02*
X29072Y-27722D01*
X29033Y-27722D02*
X29053Y-27703D01*
X29033Y-27821D02*
X29033Y-27722D01*
X29033Y-27862D02*
X29033Y-27821D01*
X28929Y-28077D02*
X29033Y-27862D01*
X27123Y-26640D02*
X27175Y-26639D01*
X27025Y-26640D02*
X27123Y-26640D01*
X26984Y-26640D02*
X27025Y-26640D01*
X26769Y-26644D02*
X26984Y-26640D01*
X24899Y-26001D02*
X25931Y-26469D01*
X24117Y-25729D02*
X24899Y-26001D01*
X24076Y-25729D02*
X24117Y-25729D01*
X23978Y-25729D02*
X24076Y-25729D01*
X23958Y-25709D02*
X23978Y-25729D01*
X23938Y-25729D02*
X23958Y-25709D01*
X23840Y-25729D02*
X23938Y-25729D01*
X23799Y-25729D02*
X23840Y-25729D01*
X23750Y-25768D02*
X23799Y-25729D01*
X23623Y-25895D02*
X23750Y-25768D01*
X22947Y-27179D02*
X23623Y-25895D01*
X22947Y-27277D02*
X22947Y-27179D01*
X22770Y-27404D02*
X22947Y-27277D01*
X22594Y-27530D02*
X22770Y-27404D01*
X22495Y-27530D02*
X22594Y-27530D01*
X22454Y-27530D02*
X22495Y-27530D01*
X21905Y-27579D02*
X22454Y-27530D01*
X21864Y-27579D02*
X21905Y-27579D01*
X21765Y-27579D02*
X21864Y-27579D01*
X21746Y-27599D02*
X21765Y-27579D01*
X21726Y-27579D02*
X21746Y-27599D01*
X21628Y-27579D02*
X21726Y-27579D01*
X21587Y-27579D02*
X21628Y-27579D01*
X19999Y-26434D02*
X21587Y-27579D01*
X15207Y-25814D02*
X19999Y-26434D01*
X51871Y-26634D02*
X52557Y-26421D01*
X51169Y-26679D02*
X51871Y-26634D01*
X46633Y-28017D02*
X46653Y-27997D01*
X46535Y-28017D02*
X46633Y-28017D01*
X46478Y-28017D02*
X46535Y-28017D01*
X51722Y-28371D02*
X51853Y-27970D01*
X51170Y-28483D02*
X51722Y-28371D01*
X57705Y-27679D02*
X58451Y-27677D01*
X56160Y-27689D02*
X56900Y-27687D01*
X54723Y-27694D02*
X55484Y-27683D01*
X54050Y-27686D02*
X54054Y-26880D01*
X58184Y-26197D02*
X58351Y-26831D01*
X56822Y-26180D02*
X56851Y-26866D01*
X56132Y-26180D02*
X56117Y-26895D01*
X55477Y-26180D02*
X55471Y-26903D01*
X58351Y-26831D02*
X58923Y-26827D01*
X56851Y-26866D02*
X57581Y-26846D01*
X55471Y-26903D02*
X56117Y-26895D01*
X54054Y-26880D02*
X54730Y-26895D01*
X53451Y-26424D02*
X53448Y-26932D01*
X52561Y-25957D02*
X52557Y-26421D01*
X51169Y-26679D02*
X51170Y-26161D01*
X51178Y-27962D02*
X51170Y-28483D01*
X52892Y-26606D02*
X53074Y-26949D01*
X52765Y-26480D02*
X52892Y-26606D01*
X52716Y-26440D02*
X52765Y-26480D01*
X52675Y-26440D02*
X52716Y-26440D01*
X52577Y-26440D02*
X52675Y-26440D01*
X52557Y-26421D02*
X52577Y-26440D01*
X52780Y-27952D02*
X52780Y-27700D01*
X52780Y-28051D02*
X52780Y-27952D01*
X52716Y-28917D02*
X52780Y-28051D01*
X49311Y-28754D02*
X49291Y-28734D01*
X49409Y-28754D02*
X49311Y-28754D01*
X49450Y-28754D02*
X49409Y-28754D01*
X49666Y-28837D02*
X49450Y-28754D01*
X50212Y-29796D02*
X50192Y-29816D01*
X50310Y-29796D02*
X50212Y-29796D01*
X50351Y-29796D02*
X50310Y-29796D01*
X50400Y-29757D02*
X50351Y-29796D01*
X50527Y-29630D02*
X50400Y-29757D01*
X50527Y-29450D02*
X50527Y-29630D01*
X50527Y-29214D02*
X50527Y-29450D01*
X50332Y-28781D02*
X50527Y-29214D01*
X50652Y-28076D02*
X50671Y-28056D01*
X50652Y-28174D02*
X50652Y-28076D01*
X50652Y-28378D02*
X50652Y-28174D01*
X50332Y-28781D02*
X50652Y-28378D01*
X50652Y-26548D02*
X50671Y-26568D01*
X50652Y-26450D02*
X50652Y-26548D01*
X50652Y-26246D02*
X50652Y-26450D01*
X50625Y-26194D02*
X50652Y-26246D01*
X50374Y-25621D02*
X50625Y-26194D01*
X50108Y-25356D02*
X50374Y-25621D01*
X49962Y-25316D02*
X50108Y-25356D01*
X49921Y-25316D02*
X49962Y-25316D01*
X49822Y-25316D02*
X49921Y-25316D01*
X49803Y-25297D02*
X49822Y-25316D01*
G54D39*
X48523Y-26833D02*
X48503Y-27010D01*
X48523Y-26794D02*
X48523Y-26833D01*
X48523Y-26621D02*
X48523Y-26794D01*
X48523Y-26459D02*
X48523Y-26621D01*
X49055Y-26833D02*
X48937Y-27010D01*
X49055Y-26794D02*
X49055Y-26833D01*
X49055Y-26753D02*
X49055Y-26794D01*
X49089Y-26692D02*
X49055Y-26753D01*
X49114Y-26621D02*
X49089Y-26692D01*
X49114Y-26459D02*
X49114Y-26621D01*
G54D40*
X49175Y-29855D02*
X49371Y-29954D01*
X49096Y-29855D02*
X49175Y-29855D01*
X49055Y-29855D02*
X49096Y-29855D01*
X48997Y-29798D02*
X49055Y-29855D01*
X48879Y-29480D02*
X48997Y-29798D01*
X48822Y-29422D02*
X48879Y-29480D01*
X48781Y-29422D02*
X48822Y-29422D01*
X48702Y-29422D02*
X48781Y-29422D01*
X48505Y-29324D02*
X48702Y-29422D01*
G54D38*
X47738Y-29422D02*
X47757Y-29442D01*
X47738Y-29324D02*
X47738Y-29422D01*
X47738Y-29283D02*
X47738Y-29324D01*
X47736Y-29068D02*
X47738Y-29283D01*
X46633Y-28156D02*
X46587Y-28371D01*
X46633Y-28115D02*
X46633Y-28156D01*
X46633Y-28017D02*
X46633Y-28115D01*
X46653Y-27997D02*
X46633Y-28017D01*
X53428Y-26949D02*
X53448Y-26932D01*
X53330Y-26949D02*
X53428Y-26949D01*
X53074Y-26949D02*
X53330Y-26949D01*
X51149Y-26659D02*
X51169Y-26679D01*
X51051Y-26659D02*
X51149Y-26659D01*
X51010Y-26659D02*
X51051Y-26659D01*
X50830Y-26588D02*
X51010Y-26659D01*
X50789Y-26588D02*
X50830Y-26588D01*
X50691Y-26588D02*
X50789Y-26588D01*
X50671Y-26568D02*
X50691Y-26588D01*
X51158Y-27982D02*
X51178Y-27962D01*
X51060Y-27982D02*
X51158Y-27982D01*
X51019Y-27982D02*
X51060Y-27982D01*
X50830Y-28036D02*
X51019Y-27982D01*
X50789Y-28036D02*
X50830Y-28036D01*
X50691Y-28036D02*
X50789Y-28036D01*
X50671Y-28056D02*
X50691Y-28036D01*
X49783Y-25298D02*
X49803Y-25297D01*
X49685Y-25298D02*
X49783Y-25298D01*
X49133Y-25298D02*
X49685Y-25298D01*
X49035Y-25298D02*
X49133Y-25298D01*
X49015Y-25299D02*
X49035Y-25298D01*
X48996Y-25299D02*
X49015Y-25299D01*
X48897Y-25299D02*
X48996Y-25299D01*
X48641Y-25299D02*
X48897Y-25299D01*
X48543Y-25299D02*
X48641Y-25299D01*
X48523Y-25299D02*
X48543Y-25299D01*
X50173Y-29835D02*
X50192Y-29816D01*
X50074Y-29835D02*
X50173Y-29835D01*
X50033Y-29835D02*
X50074Y-29835D01*
X49688Y-29855D02*
X50033Y-29835D01*
X49647Y-29855D02*
X49688Y-29855D01*
X49549Y-29855D02*
X49647Y-29855D01*
X49371Y-29954D02*
X49549Y-29855D01*
X48328Y-29422D02*
X48505Y-29324D01*
X48230Y-29422D02*
X48328Y-29422D01*
X47875Y-29422D02*
X48230Y-29422D01*
X47777Y-29422D02*
X47875Y-29422D01*
X47757Y-29442D02*
X47777Y-29422D01*
X46653Y-27977D02*
X46653Y-27997D01*
X46653Y-27879D02*
X46653Y-27977D01*
X46653Y-27467D02*
X46653Y-27879D01*
X46653Y-27369D02*
X46653Y-27467D01*
X46653Y-27349D02*
X46653Y-27369D01*
G54D39*
X40721Y-28679D02*
X40825Y-28603D01*
X40721Y-28679D02*
X40846Y-28708D01*
X47791Y-27621D02*
X47952Y-27621D01*
X47181Y-27918D02*
X47791Y-27621D01*
X47165Y-27918D02*
X47181Y-27918D01*
X47125Y-27918D02*
X47165Y-27918D01*
X47047Y-27997D02*
X47125Y-27918D01*
X52558Y-26893D02*
X52557Y-26814D01*
X52558Y-26932D02*
X52558Y-26893D01*
X52558Y-27208D02*
X52558Y-26932D01*
X52558Y-27248D02*
X52558Y-27208D01*
X52559Y-27326D02*
X52558Y-27248D01*
X52480Y-27317D02*
X52559Y-27326D01*
X52440Y-27317D02*
X52480Y-27317D01*
X52230Y-27317D02*
X52440Y-27317D01*
X52154Y-27148D02*
X52076Y-27069D01*
X52154Y-27187D02*
X52154Y-27148D01*
X52154Y-27204D02*
X52154Y-27187D01*
X52230Y-27317D02*
X52154Y-27204D01*
X52153Y-27434D02*
X52230Y-27317D01*
X52153Y-27451D02*
X52153Y-27434D01*
X52153Y-27490D02*
X52153Y-27451D01*
X52074Y-27569D02*
X52153Y-27490D01*
X48917Y-26298D02*
X48917Y-26459D01*
X48917Y-26216D02*
X48917Y-26298D01*
X48937Y-25827D02*
X48917Y-26216D01*
X48937Y-25810D02*
X48937Y-25827D01*
X48937Y-25771D02*
X48937Y-25810D01*
X49015Y-25692D02*
X48937Y-25771D01*
X64189Y-27402D02*
X64649Y-28254D01*
X64071Y-27254D02*
X64189Y-27402D01*
X64048Y-27231D02*
X64071Y-27254D01*
X64032Y-27231D02*
X64048Y-27231D01*
X63992Y-27231D02*
X64032Y-27231D01*
X63717Y-27054D02*
X63992Y-27231D01*
X65961Y-27582D02*
X65685Y-27684D01*
X66000Y-27582D02*
X65961Y-27582D01*
X66355Y-27582D02*
X66000Y-27582D01*
X66591Y-28342D02*
X66315Y-28676D01*
X66689Y-27720D02*
X66591Y-28342D01*
X66689Y-27443D02*
X66689Y-27720D01*
X66493Y-27247D02*
X66689Y-27443D01*
X66017Y-27231D02*
X66493Y-27247D01*
X66000Y-27231D02*
X66017Y-27231D01*
X65961Y-27231D02*
X66000Y-27231D01*
X65685Y-27054D02*
X65961Y-27231D01*
X63402Y-28217D02*
X63101Y-28217D01*
X63441Y-28217D02*
X63402Y-28217D01*
X63717Y-28314D02*
X63441Y-28217D01*
X63441Y-27507D02*
X63717Y-27684D01*
X63402Y-27507D02*
X63441Y-27507D01*
X63386Y-27507D02*
X63402Y-27507D01*
X63362Y-27484D02*
X63386Y-27507D01*
X63244Y-27336D02*
X63362Y-27484D01*
X63101Y-27036D02*
X63244Y-27336D01*
X60096Y-27287D02*
X60647Y-27641D01*
X60056Y-27287D02*
X60096Y-27287D01*
X60040Y-27287D02*
X60056Y-27287D01*
X60017Y-27264D02*
X60040Y-27287D01*
X59792Y-26712D02*
X60017Y-27264D01*
X59605Y-26525D02*
X59792Y-26712D01*
X59091Y-26525D02*
X59605Y-26525D01*
X58323Y-25862D02*
X59091Y-26525D01*
X58072Y-25721D02*
X58323Y-25862D01*
X57593Y-25411D02*
X58072Y-25721D01*
X57570Y-25388D02*
X57593Y-25411D01*
X57570Y-25372D02*
X57570Y-25388D01*
X57570Y-25333D02*
X57570Y-25372D01*
X57491Y-25254D02*
X57570Y-25333D01*
X60096Y-26106D02*
X60647Y-26460D01*
X60096Y-26066D02*
X60096Y-26106D01*
X60096Y-26050D02*
X60096Y-26066D01*
X60073Y-26027D02*
X60096Y-26050D01*
X59183Y-25343D02*
X60073Y-26027D01*
X59166Y-25343D02*
X59183Y-25343D01*
X59127Y-25343D02*
X59166Y-25343D01*
X59048Y-25264D02*
X59127Y-25343D01*
X40000Y-26642D02*
X40844Y-26068D01*
X39942Y-26700D02*
X40000Y-26642D01*
X39817Y-26825D02*
X39942Y-26700D01*
X60096Y-28468D02*
X60647Y-28822D01*
X60056Y-28468D02*
X60096Y-28468D01*
X60040Y-28468D02*
X60056Y-28468D01*
X58970Y-28029D02*
X60040Y-28468D01*
X58778Y-27837D02*
X58970Y-28029D01*
X58778Y-27541D02*
X58778Y-27837D01*
X58586Y-27349D02*
X58778Y-27541D01*
X58212Y-27166D02*
X58586Y-27349D01*
X58016Y-26970D02*
X58212Y-27166D01*
X57897Y-26716D02*
X58016Y-26970D01*
X57712Y-26530D02*
X57897Y-26716D01*
X57416Y-26530D02*
X57712Y-26530D01*
X57231Y-26345D02*
X57416Y-26530D01*
X57157Y-26041D02*
X57231Y-26345D01*
X56961Y-25845D02*
X57157Y-26041D01*
X56292Y-25629D02*
X56961Y-25845D01*
X56011Y-25412D02*
X56292Y-25629D01*
X55988Y-25389D02*
X56011Y-25412D01*
X55988Y-25373D02*
X55988Y-25389D01*
X55988Y-25333D02*
X55988Y-25373D01*
X55910Y-25255D02*
X55988Y-25333D01*
X66000Y-28203D02*
X66256Y-28203D01*
X65961Y-28203D02*
X66000Y-28203D01*
X65685Y-28314D02*
X65961Y-28203D01*
X51603Y-27071D02*
X51682Y-27069D01*
X51564Y-27071D02*
X51603Y-27071D01*
X51287Y-27071D02*
X51564Y-27071D01*
X51248Y-27071D02*
X51287Y-27071D01*
X51169Y-27072D02*
X51248Y-27071D01*
X51090Y-27072D02*
X51169Y-27072D01*
X51051Y-27072D02*
X51090Y-27072D01*
X50789Y-27072D02*
X51051Y-27072D01*
X50750Y-27072D02*
X50789Y-27072D01*
X50671Y-27072D02*
X50750Y-27072D01*
X51601Y-27569D02*
X51680Y-27569D01*
X51562Y-27569D02*
X51601Y-27569D01*
X51296Y-27569D02*
X51562Y-27569D01*
X51256Y-27569D02*
X51296Y-27569D01*
X51178Y-27569D02*
X51256Y-27569D01*
X51099Y-27569D02*
X51178Y-27569D01*
X51060Y-27569D02*
X51099Y-27569D01*
X50789Y-27569D02*
X51060Y-27569D01*
X50750Y-27569D02*
X50789Y-27569D01*
X50671Y-27570D02*
X50750Y-27569D01*
X37325Y-29317D02*
X37450Y-29192D01*
X37267Y-29375D02*
X37325Y-29317D01*
X37104Y-29375D02*
X37267Y-29375D01*
X36134Y-29093D02*
X37104Y-29375D01*
G54D38*
X53543Y-28051D02*
X53543Y-28917D01*
X53543Y-27952D02*
X53543Y-28051D01*
X53543Y-27911D02*
X53543Y-27952D01*
X53467Y-27485D02*
X53543Y-27911D01*
X53467Y-27444D02*
X53467Y-27485D01*
X53467Y-27346D02*
X53467Y-27444D01*
X53448Y-27326D02*
X53467Y-27346D01*
X53428Y-27326D02*
X53448Y-27326D01*
X53330Y-27326D02*
X53428Y-27326D01*
X53070Y-27326D02*
X53330Y-27326D01*
X52972Y-27326D02*
X53070Y-27326D01*
X52952Y-27326D02*
X52972Y-27326D01*
G54D39*
X50114Y-29343D02*
X50192Y-29422D01*
X50114Y-29304D02*
X50114Y-29343D01*
X50114Y-29288D02*
X50114Y-29304D01*
X49930Y-29104D02*
X50114Y-29288D01*
X49608Y-29166D02*
X49371Y-29324D01*
X49647Y-29166D02*
X49608Y-29166D01*
X49802Y-29166D02*
X49647Y-29166D01*
X49930Y-29104D02*
X49802Y-29166D01*
X49966Y-28962D02*
X49930Y-29104D01*
X49966Y-28713D02*
X49966Y-28962D01*
X49790Y-28537D02*
X49966Y-28713D01*
X49572Y-28459D02*
X49790Y-28537D01*
X49536Y-28459D02*
X49572Y-28459D01*
X49114Y-28156D02*
X49536Y-28459D01*
X49114Y-27995D02*
X49114Y-28156D01*
X48269Y-29895D02*
X48505Y-29954D01*
X48230Y-29895D02*
X48269Y-29895D01*
X47875Y-29895D02*
X48230Y-29895D01*
X47836Y-29895D02*
X47875Y-29895D01*
X47757Y-29836D02*
X47836Y-29895D01*
X47679Y-29757D02*
X47757Y-29836D01*
X47639Y-29757D02*
X47679Y-29757D01*
X47623Y-29757D02*
X47639Y-29757D01*
X47574Y-29717D02*
X47623Y-29757D01*
X47482Y-29625D02*
X47574Y-29717D01*
X47401Y-29206D02*
X47482Y-29625D01*
X47401Y-28929D02*
X47401Y-29206D01*
X47597Y-28733D02*
X47401Y-28929D01*
X48394Y-28522D02*
X47597Y-28733D01*
X48478Y-28522D02*
X48394Y-28522D01*
X48693Y-28308D02*
X48478Y-28522D01*
X48720Y-28238D02*
X48693Y-28308D01*
X48720Y-28156D02*
X48720Y-28238D01*
X48720Y-27995D02*
X48720Y-28156D01*
G54D10*
G36*
X30226Y-27709D02*
X30129Y-27710D01*
X30087Y-27752D01*
X30087Y-28053D01*
X30095Y-28053D01*
X30095Y-28153D01*
X30087Y-28153D01*
X30087Y-28160D01*
X29987Y-28160D01*
X29987Y-28153D01*
X29987Y-28053D01*
X29987Y-27752D01*
X29945Y-27710D01*
X29795Y-27709D01*
X29728Y-27710D01*
X29666Y-27735D01*
X29619Y-27783D01*
X29594Y-27844D01*
X29594Y-28011D01*
X29636Y-28053D01*
X29987Y-28053D01*
X29987Y-28153D01*
X29636Y-28153D01*
X29594Y-28195D01*
X29594Y-28361D01*
X29619Y-28423D01*
X29666Y-28470D01*
X29728Y-28496D01*
X29795Y-28496D01*
X29931Y-28496D01*
X29339Y-28819D01*
X29339Y-27854D01*
X29339Y-27795D01*
X29297Y-27753D01*
X29103Y-27753D01*
X29103Y-27947D01*
X29145Y-27989D01*
X29137Y-27989D01*
X29204Y-27989D01*
X29266Y-27963D01*
X29313Y-27916D01*
X29339Y-27854D01*
X29339Y-28819D01*
X29003Y-29002D01*
X29003Y-27947D01*
X29003Y-27753D01*
X28808Y-27753D01*
X28766Y-27795D01*
X28766Y-27854D01*
X28792Y-27916D01*
X28839Y-27963D01*
X28901Y-27989D01*
X28968Y-27989D01*
X28961Y-27989D01*
X29003Y-27947D01*
X29003Y-29002D01*
X28340Y-29363D01*
X28386Y-29252D01*
X28386Y-29115D01*
X28334Y-28988D01*
X28237Y-28891D01*
X28110Y-28838D01*
X27973Y-28838D01*
X27846Y-28890D01*
X27748Y-28987D01*
X27696Y-29114D01*
X27696Y-29252D01*
X27736Y-29349D01*
X27714Y-29397D01*
X27643Y-29397D01*
X27581Y-29422D01*
X27533Y-29470D01*
X27508Y-29531D01*
X27508Y-29598D01*
X27508Y-29822D01*
X26940Y-29818D01*
X26940Y-28589D01*
X26988Y-28363D01*
X26999Y-28363D01*
X27393Y-28363D01*
X27455Y-28337D01*
X27502Y-28290D01*
X27528Y-28228D01*
X27528Y-28162D01*
X27528Y-27768D01*
X27502Y-27706D01*
X27455Y-27658D01*
X27405Y-27638D01*
X27420Y-27631D01*
X27467Y-27584D01*
X27493Y-27522D01*
X27493Y-27455D01*
X27493Y-27255D01*
X27493Y-26772D01*
X27493Y-26731D01*
X27451Y-26689D01*
X27225Y-26689D01*
X27225Y-26865D01*
X27267Y-26907D01*
X27291Y-26907D01*
X27358Y-26907D01*
X27420Y-26881D01*
X27467Y-26834D01*
X27493Y-26772D01*
X27493Y-27255D01*
X27467Y-27194D01*
X27420Y-27146D01*
X27358Y-27121D01*
X27291Y-27120D01*
X27125Y-27120D01*
X27125Y-26865D01*
X27125Y-26689D01*
X26899Y-26689D01*
X26857Y-26731D01*
X26856Y-26772D01*
X26882Y-26834D01*
X26929Y-26881D01*
X26991Y-26907D01*
X27058Y-26907D01*
X27083Y-26907D01*
X27125Y-26865D01*
X27125Y-27120D01*
X26991Y-27120D01*
X26983Y-27124D01*
X26882Y-27144D01*
X26795Y-27202D01*
X26738Y-27259D01*
X26724Y-27280D01*
X26705Y-27299D01*
X26528Y-27562D01*
X26518Y-27587D01*
X26503Y-27609D01*
X26498Y-27635D01*
X26488Y-27658D01*
X26488Y-27685D01*
X26482Y-27711D01*
X26482Y-27891D01*
X26484Y-27898D01*
X26483Y-27906D01*
X26489Y-28002D01*
X26500Y-28045D01*
X26505Y-28070D01*
X26428Y-28434D01*
X26147Y-28434D01*
X26085Y-28459D01*
X26038Y-28506D01*
X26012Y-28568D01*
X26012Y-28635D01*
X26012Y-29743D01*
X25893Y-29689D01*
X25757Y-28513D01*
X25748Y-28485D01*
X25743Y-28457D01*
X25736Y-28447D01*
X25732Y-28436D01*
X25714Y-28414D01*
X25698Y-28390D01*
X25605Y-28298D01*
X25599Y-28294D01*
X25595Y-28288D01*
X25538Y-28239D01*
X25545Y-28239D01*
X25606Y-28213D01*
X25637Y-28182D01*
X25654Y-28179D01*
X25654Y-28179D01*
X25741Y-28121D01*
X25798Y-28063D01*
X25814Y-28040D01*
X25833Y-28020D01*
X25842Y-27998D01*
X25856Y-27977D01*
X25861Y-27950D01*
X25872Y-27924D01*
X25950Y-27504D01*
X25950Y-27480D01*
X25955Y-27457D01*
X26525Y-26808D01*
X26526Y-26807D01*
X26526Y-26806D01*
X26543Y-26777D01*
X26577Y-26718D01*
X26578Y-26716D01*
X26578Y-26716D01*
X26608Y-26625D01*
X26716Y-26517D01*
X26856Y-26517D01*
X26857Y-26547D01*
X26899Y-26589D01*
X27125Y-26589D01*
X27125Y-26581D01*
X27225Y-26581D01*
X27225Y-26589D01*
X27451Y-26589D01*
X27493Y-26547D01*
X27493Y-26545D01*
X27856Y-26563D01*
X27856Y-26572D01*
X27856Y-26772D01*
X27879Y-26826D01*
X27857Y-26880D01*
X27856Y-26947D01*
X27856Y-27147D01*
X27879Y-27201D01*
X27857Y-27255D01*
X27856Y-27322D01*
X27856Y-27522D01*
X27882Y-27584D01*
X27914Y-27616D01*
X27914Y-27650D01*
X27895Y-27658D01*
X27847Y-27706D01*
X27822Y-27767D01*
X27821Y-27834D01*
X27821Y-28228D01*
X27847Y-28290D01*
X27894Y-28337D01*
X27956Y-28363D01*
X28023Y-28363D01*
X28417Y-28363D01*
X28479Y-28337D01*
X28526Y-28290D01*
X28552Y-28228D01*
X28552Y-28162D01*
X28552Y-27768D01*
X28526Y-27706D01*
X28479Y-27658D01*
X28447Y-27645D01*
X28447Y-27637D01*
X28467Y-27633D01*
X28467Y-27633D01*
X28554Y-27576D01*
X28612Y-27518D01*
X28621Y-27504D01*
X28773Y-27536D01*
X28766Y-27551D01*
X28766Y-27611D01*
X28808Y-27653D01*
X29003Y-27653D01*
X29003Y-27645D01*
X29103Y-27645D01*
X29103Y-27653D01*
X29297Y-27653D01*
X29339Y-27611D01*
X29339Y-27556D01*
X29594Y-27556D01*
X29594Y-27561D01*
X29619Y-27623D01*
X29666Y-27670D01*
X29728Y-27696D01*
X29795Y-27696D01*
X30219Y-27696D01*
X30226Y-27709D01*
X30226Y-27709D01*
G37*
G54D41*
X30226Y-27709D02*
X30129Y-27710D01*
X30087Y-27752D01*
X30087Y-28053D01*
X30095Y-28053D01*
X30095Y-28153D01*
X30087Y-28153D01*
X30087Y-28160D01*
X29987Y-28160D01*
X29987Y-28153D01*
X29987Y-28053D01*
X29987Y-27752D01*
X29945Y-27710D01*
X29795Y-27709D01*
X29728Y-27710D01*
X29666Y-27735D01*
X29619Y-27783D01*
X29594Y-27844D01*
X29594Y-28011D01*
X29636Y-28053D01*
X29987Y-28053D01*
X29987Y-28153D01*
X29636Y-28153D01*
X29594Y-28195D01*
X29594Y-28361D01*
X29619Y-28423D01*
X29666Y-28470D01*
X29728Y-28496D01*
X29795Y-28496D01*
X29931Y-28496D01*
X29339Y-28819D01*
X29339Y-27854D01*
X29339Y-27795D01*
X29297Y-27753D01*
X29103Y-27753D01*
X29103Y-27947D01*
X29145Y-27989D01*
X29137Y-27989D01*
X29204Y-27989D01*
X29266Y-27963D01*
X29313Y-27916D01*
X29339Y-27854D01*
X29339Y-28819D01*
X29003Y-29002D01*
X29003Y-27947D01*
X29003Y-27753D01*
X28808Y-27753D01*
X28766Y-27795D01*
X28766Y-27854D01*
X28792Y-27916D01*
X28839Y-27963D01*
X28901Y-27989D01*
X28968Y-27989D01*
X28961Y-27989D01*
X29003Y-27947D01*
X29003Y-29002D01*
X28340Y-29363D01*
X28386Y-29252D01*
X28386Y-29115D01*
X28334Y-28988D01*
X28237Y-28891D01*
X28110Y-28838D01*
X27973Y-28838D01*
X27846Y-28890D01*
X27748Y-28987D01*
X27696Y-29114D01*
X27696Y-29252D01*
X27736Y-29349D01*
X27714Y-29397D01*
X27643Y-29397D01*
X27581Y-29422D01*
X27533Y-29470D01*
X27508Y-29531D01*
X27508Y-29598D01*
X27508Y-29822D01*
X26940Y-29818D01*
X26940Y-28589D01*
X26988Y-28363D01*
X26999Y-28363D01*
X27393Y-28363D01*
X27455Y-28337D01*
X27502Y-28290D01*
X27528Y-28228D01*
X27528Y-28162D01*
X27528Y-27768D01*
X27502Y-27706D01*
X27455Y-27658D01*
X27405Y-27638D01*
X27420Y-27631D01*
X27467Y-27584D01*
X27493Y-27522D01*
X27493Y-27455D01*
X27493Y-27255D01*
X27493Y-26772D01*
X27493Y-26731D01*
X27451Y-26689D01*
X27225Y-26689D01*
X27225Y-26865D01*
X27267Y-26907D01*
X27291Y-26907D01*
X27358Y-26907D01*
X27420Y-26881D01*
X27467Y-26834D01*
X27493Y-26772D01*
X27493Y-27255D01*
X27467Y-27194D01*
X27420Y-27146D01*
X27358Y-27121D01*
X27291Y-27120D01*
X27125Y-27120D01*
X27125Y-26865D01*
X27125Y-26689D01*
X26899Y-26689D01*
X26857Y-26731D01*
X26856Y-26772D01*
X26882Y-26834D01*
X26929Y-26881D01*
X26991Y-26907D01*
X27058Y-26907D01*
X27083Y-26907D01*
X27125Y-26865D01*
X27125Y-27120D01*
X26991Y-27120D01*
X26983Y-27124D01*
X26882Y-27144D01*
X26795Y-27202D01*
X26738Y-27259D01*
X26724Y-27280D01*
X26705Y-27299D01*
X26528Y-27562D01*
X26518Y-27587D01*
X26503Y-27609D01*
X26498Y-27635D01*
X26488Y-27658D01*
X26488Y-27685D01*
X26482Y-27711D01*
X26482Y-27891D01*
X26484Y-27898D01*
X26483Y-27906D01*
X26489Y-28002D01*
X26500Y-28045D01*
X26505Y-28070D01*
X26428Y-28434D01*
X26147Y-28434D01*
X26085Y-28459D01*
X26038Y-28506D01*
X26012Y-28568D01*
X26012Y-28635D01*
X26012Y-29743D01*
X25893Y-29689D01*
X25757Y-28513D01*
X25748Y-28485D01*
X25743Y-28457D01*
X25736Y-28447D01*
X25732Y-28436D01*
X25714Y-28414D01*
X25698Y-28390D01*
X25605Y-28298D01*
X25599Y-28294D01*
X25595Y-28288D01*
X25538Y-28239D01*
X25545Y-28239D01*
X25606Y-28213D01*
X25637Y-28182D01*
X25654Y-28179D01*
X25654Y-28179D01*
X25741Y-28121D01*
X25798Y-28063D01*
X25814Y-28040D01*
X25833Y-28020D01*
X25842Y-27998D01*
X25856Y-27977D01*
X25861Y-27950D01*
X25872Y-27924D01*
X25950Y-27504D01*
X25950Y-27480D01*
X25955Y-27457D01*
X26525Y-26808D01*
X26526Y-26807D01*
X26526Y-26806D01*
X26543Y-26777D01*
X26577Y-26718D01*
X26578Y-26716D01*
X26578Y-26716D01*
X26608Y-26625D01*
X26716Y-26517D01*
X26856Y-26517D01*
X26857Y-26547D01*
X26899Y-26589D01*
X27125Y-26589D01*
X27125Y-26581D01*
X27225Y-26581D01*
X27225Y-26589D01*
X27451Y-26589D01*
X27493Y-26547D01*
X27493Y-26545D01*
X27856Y-26563D01*
X27856Y-26572D01*
X27856Y-26772D01*
X27879Y-26826D01*
X27857Y-26880D01*
X27856Y-26947D01*
X27856Y-27147D01*
X27879Y-27201D01*
X27857Y-27255D01*
X27856Y-27322D01*
X27856Y-27522D01*
X27882Y-27584D01*
X27914Y-27616D01*
X27914Y-27650D01*
X27895Y-27658D01*
X27847Y-27706D01*
X27822Y-27767D01*
X27821Y-27834D01*
X27821Y-28228D01*
X27847Y-28290D01*
X27894Y-28337D01*
X27956Y-28363D01*
X28023Y-28363D01*
X28417Y-28363D01*
X28479Y-28337D01*
X28526Y-28290D01*
X28552Y-28228D01*
X28552Y-28162D01*
X28552Y-27768D01*
X28526Y-27706D01*
X28479Y-27658D01*
X28447Y-27645D01*
X28447Y-27637D01*
X28467Y-27633D01*
X28467Y-27633D01*
X28554Y-27576D01*
X28612Y-27518D01*
X28621Y-27504D01*
X28773Y-27536D01*
X28766Y-27551D01*
X28766Y-27611D01*
X28808Y-27653D01*
X29003Y-27653D01*
X29003Y-27645D01*
X29103Y-27645D01*
X29103Y-27653D01*
X29297Y-27653D01*
X29339Y-27611D01*
X29339Y-27556D01*
X29594Y-27556D01*
X29594Y-27561D01*
X29619Y-27623D01*
X29666Y-27670D01*
X29728Y-27696D01*
X29795Y-27696D01*
X30219Y-27696D01*
X30226Y-27709D01*
G54D10*
G36*
X35302Y-26161D02*
X35156Y-26790D01*
X35156Y-26791D01*
X35155Y-26793D01*
X35115Y-26975D01*
X34714Y-27073D01*
X34695Y-27081D01*
X34675Y-27085D01*
X34648Y-27103D01*
X34619Y-27117D01*
X34605Y-27132D01*
X34588Y-27143D01*
X34358Y-27374D01*
X34342Y-27398D01*
X34321Y-27419D01*
X34313Y-27441D01*
X34300Y-27460D01*
X34294Y-27489D01*
X34284Y-27516D01*
X34281Y-27529D01*
X34209Y-27534D01*
X34174Y-27543D01*
X34142Y-27548D01*
X33782Y-27670D01*
X33629Y-27676D01*
X33629Y-25582D01*
X33617Y-25398D01*
X33570Y-25285D01*
X33499Y-25254D01*
X33232Y-25521D01*
X33499Y-25788D01*
X33570Y-25757D01*
X33629Y-25582D01*
X33629Y-27676D01*
X33428Y-27683D01*
X33428Y-25859D01*
X33161Y-25592D01*
X33090Y-25663D01*
X33090Y-25521D01*
X32823Y-25254D01*
X32751Y-25285D01*
X32692Y-25460D01*
X32705Y-25644D01*
X32751Y-25757D01*
X32823Y-25788D01*
X33090Y-25521D01*
X33090Y-25663D01*
X32894Y-25859D01*
X32925Y-25931D01*
X33100Y-25990D01*
X33284Y-25977D01*
X33397Y-25931D01*
X33428Y-25859D01*
X33428Y-27683D01*
X30862Y-27777D01*
X30647Y-27364D01*
X30621Y-27332D01*
X30599Y-27298D01*
X30541Y-27241D01*
X30480Y-27200D01*
X30480Y-27200D01*
X30480Y-27044D01*
X30454Y-26983D01*
X30407Y-26935D01*
X30345Y-26910D01*
X30279Y-26909D01*
X30090Y-26909D01*
X30049Y-26848D01*
X30049Y-26848D01*
X30001Y-26801D01*
X30000Y-26799D01*
X29998Y-26798D01*
X29991Y-26791D01*
X29967Y-26774D01*
X29917Y-26737D01*
X28528Y-26081D01*
X28427Y-26056D01*
X28422Y-26057D01*
X26945Y-25984D01*
X26938Y-25985D01*
X26932Y-25984D01*
X26606Y-25984D01*
X26504Y-26004D01*
X26460Y-26033D01*
X26417Y-26062D01*
X26186Y-26293D01*
X26181Y-26301D01*
X26174Y-26307D01*
X26153Y-26343D01*
X26129Y-26379D01*
X26127Y-26389D01*
X26122Y-26397D01*
X26089Y-26497D01*
X25627Y-27023D01*
X25607Y-27003D01*
X25545Y-26977D01*
X25478Y-26977D01*
X25242Y-26977D01*
X25196Y-26996D01*
X25151Y-26977D01*
X25084Y-26977D01*
X25081Y-26977D01*
X25081Y-26327D01*
X25029Y-26200D01*
X24931Y-26103D01*
X24805Y-26050D01*
X24667Y-26050D01*
X24540Y-26102D01*
X24533Y-26110D01*
X24244Y-26014D01*
X24244Y-25952D01*
X24225Y-25906D01*
X24244Y-25861D01*
X24244Y-25558D01*
X24219Y-25496D01*
X24171Y-25449D01*
X24110Y-25423D01*
X24043Y-25423D01*
X24050Y-25423D01*
X24008Y-25465D01*
X24008Y-25659D01*
X24202Y-25659D01*
X24244Y-25617D01*
X24244Y-25558D01*
X24244Y-25861D01*
X24244Y-25801D01*
X24202Y-25759D01*
X24008Y-25759D01*
X24008Y-25767D01*
X23908Y-25767D01*
X23908Y-25759D01*
X23908Y-25659D01*
X23908Y-25465D01*
X23866Y-25423D01*
X23873Y-25423D01*
X23806Y-25423D01*
X23745Y-25449D01*
X23697Y-25496D01*
X23672Y-25558D01*
X23672Y-25617D01*
X23714Y-25659D01*
X23908Y-25659D01*
X23908Y-25759D01*
X23714Y-25759D01*
X23672Y-25801D01*
X23672Y-25861D01*
X23691Y-25906D01*
X23672Y-25951D01*
X23672Y-26018D01*
X23672Y-26254D01*
X23697Y-26316D01*
X23745Y-26363D01*
X23806Y-26389D01*
X23873Y-26389D01*
X24059Y-26389D01*
X24408Y-26505D01*
X24443Y-26590D01*
X24540Y-26688D01*
X24667Y-26740D01*
X24804Y-26740D01*
X24931Y-26688D01*
X25028Y-26591D01*
X25081Y-26464D01*
X25081Y-26327D01*
X25081Y-26977D01*
X24848Y-26977D01*
X24786Y-27003D01*
X24739Y-27050D01*
X24713Y-27112D01*
X24713Y-27178D01*
X24713Y-27200D01*
X24695Y-27218D01*
X24686Y-27232D01*
X24647Y-27232D01*
X24520Y-27285D01*
X24423Y-27382D01*
X24370Y-27509D01*
X24370Y-27646D01*
X24422Y-27773D01*
X24519Y-27870D01*
X24646Y-27923D01*
X24713Y-27923D01*
X24713Y-28104D01*
X24739Y-28165D01*
X24786Y-28213D01*
X24848Y-28238D01*
X24915Y-28239D01*
X24934Y-28239D01*
X24956Y-28266D01*
X24965Y-28273D01*
X24971Y-28282D01*
X25063Y-28375D01*
X25069Y-28379D01*
X25074Y-28384D01*
X25130Y-28434D01*
X24784Y-28434D01*
X23213Y-28085D01*
X23213Y-27945D01*
X23213Y-27662D01*
X23213Y-27145D01*
X23188Y-27084D01*
X23141Y-27036D01*
X23079Y-27011D01*
X23012Y-27010D01*
X22862Y-27011D01*
X22820Y-27053D01*
X22820Y-27354D01*
X23171Y-27354D01*
X23213Y-27312D01*
X23213Y-27145D01*
X23213Y-27662D01*
X23213Y-27496D01*
X23171Y-27454D01*
X22820Y-27454D01*
X22820Y-27755D01*
X22862Y-27797D01*
X23012Y-27797D01*
X23079Y-27797D01*
X23141Y-27771D01*
X23188Y-27724D01*
X23213Y-27662D01*
X23213Y-27945D01*
X23188Y-27884D01*
X23141Y-27836D01*
X23079Y-27811D01*
X23012Y-27810D01*
X22720Y-27810D01*
X22720Y-27755D01*
X22720Y-27454D01*
X22720Y-27354D01*
X22720Y-27053D01*
X22678Y-27011D01*
X22529Y-27010D01*
X22462Y-27011D01*
X22400Y-27036D01*
X22353Y-27084D01*
X22327Y-27145D01*
X22327Y-27312D01*
X22369Y-27354D01*
X22720Y-27354D01*
X22720Y-27454D01*
X22369Y-27454D01*
X22327Y-27496D01*
X22327Y-27662D01*
X22353Y-27724D01*
X22400Y-27771D01*
X22462Y-27797D01*
X22529Y-27797D01*
X22678Y-27797D01*
X22720Y-27755D01*
X22720Y-27810D01*
X22471Y-27810D01*
X22029Y-27759D01*
X22032Y-27750D01*
X22032Y-27448D01*
X22006Y-27386D01*
X21959Y-27338D01*
X21897Y-27313D01*
X21830Y-27313D01*
X21838Y-27313D01*
X21796Y-27355D01*
X21796Y-27549D01*
X21990Y-27549D01*
X22032Y-27507D01*
X22032Y-27448D01*
X22032Y-27750D01*
X22032Y-27691D01*
X21990Y-27649D01*
X21796Y-27649D01*
X21796Y-27657D01*
X21696Y-27657D01*
X21696Y-27649D01*
X21696Y-27549D01*
X21696Y-27355D01*
X21654Y-27313D01*
X21661Y-27313D01*
X21594Y-27313D01*
X21532Y-27338D01*
X21485Y-27386D01*
X21459Y-27448D01*
X21459Y-27507D01*
X21501Y-27549D01*
X21696Y-27549D01*
X21696Y-27649D01*
X21501Y-27649D01*
X21459Y-27691D01*
X21459Y-27706D01*
X20413Y-27706D01*
X20413Y-27258D01*
X20361Y-27131D01*
X20264Y-27033D01*
X20137Y-26981D01*
X20077Y-26981D01*
X20077Y-26618D01*
X20052Y-26556D01*
X20005Y-26509D01*
X19943Y-26483D01*
X19876Y-26483D01*
X19246Y-26483D01*
X19184Y-26508D01*
X19137Y-26556D01*
X19111Y-26617D01*
X19111Y-26680D01*
X17037Y-26680D01*
X17037Y-26618D01*
X17012Y-26556D01*
X16965Y-26509D01*
X16903Y-26483D01*
X16836Y-26483D01*
X16206Y-26483D01*
X16144Y-26508D01*
X16097Y-26556D01*
X16071Y-26617D01*
X16071Y-26684D01*
X16071Y-27156D01*
X16097Y-27218D01*
X16144Y-27265D01*
X16206Y-27291D01*
X16272Y-27291D01*
X16902Y-27291D01*
X16964Y-27266D01*
X17012Y-27218D01*
X17037Y-27157D01*
X17037Y-27095D01*
X19111Y-27095D01*
X19111Y-27156D01*
X19137Y-27218D01*
X19184Y-27265D01*
X19246Y-27291D01*
X19312Y-27291D01*
X19723Y-27291D01*
X19723Y-27394D01*
X19775Y-27521D01*
X19872Y-27619D01*
X19999Y-27671D01*
X20137Y-27671D01*
X20263Y-27619D01*
X20361Y-27522D01*
X20413Y-27395D01*
X20413Y-27258D01*
X20413Y-27706D01*
X15971Y-27706D01*
X15971Y-27045D01*
X15969Y-27041D01*
X15969Y-25945D01*
X15961Y-25644D01*
X15861Y-25400D01*
X15758Y-25333D01*
X15278Y-25814D01*
X15758Y-26294D01*
X15861Y-26227D01*
X15969Y-25945D01*
X15969Y-27041D01*
X15945Y-26983D01*
X15898Y-26936D01*
X15836Y-26910D01*
X15769Y-26910D01*
X15688Y-26910D01*
X15688Y-26365D01*
X15207Y-25884D01*
X14726Y-26365D01*
X14794Y-26468D01*
X15075Y-26576D01*
X15377Y-26568D01*
X15620Y-26468D01*
X15688Y-26365D01*
X15688Y-26910D01*
X14588Y-26910D01*
X14573Y-26916D01*
X14573Y-26240D01*
X14655Y-26294D01*
X15136Y-25814D01*
X14655Y-25333D01*
X14573Y-25387D01*
X14573Y-25125D01*
X14879Y-25125D01*
X14794Y-25160D01*
X14726Y-25262D01*
X15207Y-25743D01*
X15688Y-25262D01*
X15620Y-25160D01*
X15528Y-25125D01*
X31907Y-25125D01*
X31899Y-25128D01*
X31768Y-25258D01*
X31698Y-25429D01*
X31697Y-25613D01*
X31768Y-25783D01*
X31898Y-25914D01*
X32068Y-25984D01*
X32253Y-25985D01*
X32423Y-25914D01*
X32554Y-25784D01*
X32624Y-25614D01*
X32624Y-25429D01*
X32554Y-25259D01*
X32424Y-25129D01*
X32414Y-25125D01*
X32920Y-25125D01*
X32894Y-25183D01*
X33161Y-25450D01*
X33428Y-25183D01*
X33402Y-25125D01*
X33907Y-25125D01*
X33899Y-25128D01*
X33768Y-25258D01*
X33698Y-25429D01*
X33697Y-25613D01*
X33768Y-25783D01*
X33898Y-25914D01*
X34068Y-25984D01*
X34253Y-25985D01*
X34423Y-25914D01*
X34554Y-25784D01*
X34624Y-25614D01*
X34624Y-25429D01*
X34554Y-25259D01*
X34424Y-25129D01*
X34414Y-25125D01*
X34729Y-25125D01*
X34723Y-25130D01*
X34698Y-25192D01*
X34698Y-25259D01*
X34698Y-25850D01*
X34723Y-25911D01*
X34770Y-25959D01*
X34832Y-25984D01*
X34899Y-25985D01*
X35128Y-25985D01*
X35128Y-25985D01*
X35169Y-26046D01*
X35227Y-26103D01*
X35247Y-26117D01*
X35264Y-26134D01*
X35302Y-26161D01*
X35302Y-26161D01*
G37*
G54D41*
X35302Y-26161D02*
X35156Y-26790D01*
X35156Y-26791D01*
X35155Y-26793D01*
X35115Y-26975D01*
X34714Y-27073D01*
X34695Y-27081D01*
X34675Y-27085D01*
X34648Y-27103D01*
X34619Y-27117D01*
X34605Y-27132D01*
X34588Y-27143D01*
X34358Y-27374D01*
X34342Y-27398D01*
X34321Y-27419D01*
X34313Y-27441D01*
X34300Y-27460D01*
X34294Y-27489D01*
X34284Y-27516D01*
X34281Y-27529D01*
X34209Y-27534D01*
X34174Y-27543D01*
X34142Y-27548D01*
X33782Y-27670D01*
X33629Y-27676D01*
X33629Y-25582D01*
X33617Y-25398D01*
X33570Y-25285D01*
X33499Y-25254D01*
X33232Y-25521D01*
X33499Y-25788D01*
X33570Y-25757D01*
X33629Y-25582D01*
X33629Y-27676D01*
X33428Y-27683D01*
X33428Y-25859D01*
X33161Y-25592D01*
X33090Y-25663D01*
X33090Y-25521D01*
X32823Y-25254D01*
X32751Y-25285D01*
X32692Y-25460D01*
X32705Y-25644D01*
X32751Y-25757D01*
X32823Y-25788D01*
X33090Y-25521D01*
X33090Y-25663D01*
X32894Y-25859D01*
X32925Y-25931D01*
X33100Y-25990D01*
X33284Y-25977D01*
X33397Y-25931D01*
X33428Y-25859D01*
X33428Y-27683D01*
X30862Y-27777D01*
X30647Y-27364D01*
X30621Y-27332D01*
X30599Y-27298D01*
X30541Y-27241D01*
X30480Y-27200D01*
X30480Y-27200D01*
X30480Y-27044D01*
X30454Y-26983D01*
X30407Y-26935D01*
X30345Y-26910D01*
X30279Y-26909D01*
X30090Y-26909D01*
X30049Y-26848D01*
X30049Y-26848D01*
X30001Y-26801D01*
X30000Y-26799D01*
X29998Y-26798D01*
X29991Y-26791D01*
X29967Y-26774D01*
X29917Y-26737D01*
X28528Y-26081D01*
X28427Y-26056D01*
X28422Y-26057D01*
X26945Y-25984D01*
X26938Y-25985D01*
X26932Y-25984D01*
X26606Y-25984D01*
X26504Y-26004D01*
X26460Y-26033D01*
X26417Y-26062D01*
X26186Y-26293D01*
X26181Y-26301D01*
X26174Y-26307D01*
X26153Y-26343D01*
X26129Y-26379D01*
X26127Y-26389D01*
X26122Y-26397D01*
X26089Y-26497D01*
X25627Y-27023D01*
X25607Y-27003D01*
X25545Y-26977D01*
X25478Y-26977D01*
X25242Y-26977D01*
X25196Y-26996D01*
X25151Y-26977D01*
X25084Y-26977D01*
X25081Y-26977D01*
X25081Y-26327D01*
X25029Y-26200D01*
X24931Y-26103D01*
X24805Y-26050D01*
X24667Y-26050D01*
X24540Y-26102D01*
X24533Y-26110D01*
X24244Y-26014D01*
X24244Y-25952D01*
X24225Y-25906D01*
X24244Y-25861D01*
X24244Y-25558D01*
X24219Y-25496D01*
X24171Y-25449D01*
X24110Y-25423D01*
X24043Y-25423D01*
X24050Y-25423D01*
X24008Y-25465D01*
X24008Y-25659D01*
X24202Y-25659D01*
X24244Y-25617D01*
X24244Y-25558D01*
X24244Y-25861D01*
X24244Y-25801D01*
X24202Y-25759D01*
X24008Y-25759D01*
X24008Y-25767D01*
X23908Y-25767D01*
X23908Y-25759D01*
X23908Y-25659D01*
X23908Y-25465D01*
X23866Y-25423D01*
X23873Y-25423D01*
X23806Y-25423D01*
X23745Y-25449D01*
X23697Y-25496D01*
X23672Y-25558D01*
X23672Y-25617D01*
X23714Y-25659D01*
X23908Y-25659D01*
X23908Y-25759D01*
X23714Y-25759D01*
X23672Y-25801D01*
X23672Y-25861D01*
X23691Y-25906D01*
X23672Y-25951D01*
X23672Y-26018D01*
X23672Y-26254D01*
X23697Y-26316D01*
X23745Y-26363D01*
X23806Y-26389D01*
X23873Y-26389D01*
X24059Y-26389D01*
X24408Y-26505D01*
X24443Y-26590D01*
X24540Y-26688D01*
X24667Y-26740D01*
X24804Y-26740D01*
X24931Y-26688D01*
X25028Y-26591D01*
X25081Y-26464D01*
X25081Y-26327D01*
X25081Y-26977D01*
X24848Y-26977D01*
X24786Y-27003D01*
X24739Y-27050D01*
X24713Y-27112D01*
X24713Y-27178D01*
X24713Y-27200D01*
X24695Y-27218D01*
X24686Y-27232D01*
X24647Y-27232D01*
X24520Y-27285D01*
X24423Y-27382D01*
X24370Y-27509D01*
X24370Y-27646D01*
X24422Y-27773D01*
X24519Y-27870D01*
X24646Y-27923D01*
X24713Y-27923D01*
X24713Y-28104D01*
X24739Y-28165D01*
X24786Y-28213D01*
X24848Y-28238D01*
X24915Y-28239D01*
X24934Y-28239D01*
X24956Y-28266D01*
X24965Y-28273D01*
X24971Y-28282D01*
X25063Y-28375D01*
X25069Y-28379D01*
X25074Y-28384D01*
X25130Y-28434D01*
X24784Y-28434D01*
X23213Y-28085D01*
X23213Y-27945D01*
X23213Y-27662D01*
X23213Y-27145D01*
X23188Y-27084D01*
X23141Y-27036D01*
X23079Y-27011D01*
X23012Y-27010D01*
X22862Y-27011D01*
X22820Y-27053D01*
X22820Y-27354D01*
X23171Y-27354D01*
X23213Y-27312D01*
X23213Y-27145D01*
X23213Y-27662D01*
X23213Y-27496D01*
X23171Y-27454D01*
X22820Y-27454D01*
X22820Y-27755D01*
X22862Y-27797D01*
X23012Y-27797D01*
X23079Y-27797D01*
X23141Y-27771D01*
X23188Y-27724D01*
X23213Y-27662D01*
X23213Y-27945D01*
X23188Y-27884D01*
X23141Y-27836D01*
X23079Y-27811D01*
X23012Y-27810D01*
X22720Y-27810D01*
X22720Y-27755D01*
X22720Y-27454D01*
X22720Y-27354D01*
X22720Y-27053D01*
X22678Y-27011D01*
X22529Y-27010D01*
X22462Y-27011D01*
X22400Y-27036D01*
X22353Y-27084D01*
X22327Y-27145D01*
X22327Y-27312D01*
X22369Y-27354D01*
X22720Y-27354D01*
X22720Y-27454D01*
X22369Y-27454D01*
X22327Y-27496D01*
X22327Y-27662D01*
X22353Y-27724D01*
X22400Y-27771D01*
X22462Y-27797D01*
X22529Y-27797D01*
X22678Y-27797D01*
X22720Y-27755D01*
X22720Y-27810D01*
X22471Y-27810D01*
X22029Y-27759D01*
X22032Y-27750D01*
X22032Y-27448D01*
X22006Y-27386D01*
X21959Y-27338D01*
X21897Y-27313D01*
X21830Y-27313D01*
X21838Y-27313D01*
X21796Y-27355D01*
X21796Y-27549D01*
X21990Y-27549D01*
X22032Y-27507D01*
X22032Y-27448D01*
X22032Y-27750D01*
X22032Y-27691D01*
X21990Y-27649D01*
X21796Y-27649D01*
X21796Y-27657D01*
X21696Y-27657D01*
X21696Y-27649D01*
X21696Y-27549D01*
X21696Y-27355D01*
X21654Y-27313D01*
X21661Y-27313D01*
X21594Y-27313D01*
X21532Y-27338D01*
X21485Y-27386D01*
X21459Y-27448D01*
X21459Y-27507D01*
X21501Y-27549D01*
X21696Y-27549D01*
X21696Y-27649D01*
X21501Y-27649D01*
X21459Y-27691D01*
X21459Y-27706D01*
X20413Y-27706D01*
X20413Y-27258D01*
X20361Y-27131D01*
X20264Y-27033D01*
X20137Y-26981D01*
X20077Y-26981D01*
X20077Y-26618D01*
X20052Y-26556D01*
X20005Y-26509D01*
X19943Y-26483D01*
X19876Y-26483D01*
X19246Y-26483D01*
X19184Y-26508D01*
X19137Y-26556D01*
X19111Y-26617D01*
X19111Y-26680D01*
X17037Y-26680D01*
X17037Y-26618D01*
X17012Y-26556D01*
X16965Y-26509D01*
X16903Y-26483D01*
X16836Y-26483D01*
X16206Y-26483D01*
X16144Y-26508D01*
X16097Y-26556D01*
X16071Y-26617D01*
X16071Y-26684D01*
X16071Y-27156D01*
X16097Y-27218D01*
X16144Y-27265D01*
X16206Y-27291D01*
X16272Y-27291D01*
X16902Y-27291D01*
X16964Y-27266D01*
X17012Y-27218D01*
X17037Y-27157D01*
X17037Y-27095D01*
X19111Y-27095D01*
X19111Y-27156D01*
X19137Y-27218D01*
X19184Y-27265D01*
X19246Y-27291D01*
X19312Y-27291D01*
X19723Y-27291D01*
X19723Y-27394D01*
X19775Y-27521D01*
X19872Y-27619D01*
X19999Y-27671D01*
X20137Y-27671D01*
X20263Y-27619D01*
X20361Y-27522D01*
X20413Y-27395D01*
X20413Y-27258D01*
X20413Y-27706D01*
X15971Y-27706D01*
X15971Y-27045D01*
X15969Y-27041D01*
X15969Y-25945D01*
X15961Y-25644D01*
X15861Y-25400D01*
X15758Y-25333D01*
X15278Y-25814D01*
X15758Y-26294D01*
X15861Y-26227D01*
X15969Y-25945D01*
X15969Y-27041D01*
X15945Y-26983D01*
X15898Y-26936D01*
X15836Y-26910D01*
X15769Y-26910D01*
X15688Y-26910D01*
X15688Y-26365D01*
X15207Y-25884D01*
X14726Y-26365D01*
X14794Y-26468D01*
X15075Y-26576D01*
X15377Y-26568D01*
X15620Y-26468D01*
X15688Y-26365D01*
X15688Y-26910D01*
X14588Y-26910D01*
X14573Y-26916D01*
X14573Y-26240D01*
X14655Y-26294D01*
X15136Y-25814D01*
X14655Y-25333D01*
X14573Y-25387D01*
X14573Y-25125D01*
X14879Y-25125D01*
X14794Y-25160D01*
X14726Y-25262D01*
X15207Y-25743D01*
X15688Y-25262D01*
X15620Y-25160D01*
X15528Y-25125D01*
X31907Y-25125D01*
X31899Y-25128D01*
X31768Y-25258D01*
X31698Y-25429D01*
X31697Y-25613D01*
X31768Y-25783D01*
X31898Y-25914D01*
X32068Y-25984D01*
X32253Y-25985D01*
X32423Y-25914D01*
X32554Y-25784D01*
X32624Y-25614D01*
X32624Y-25429D01*
X32554Y-25259D01*
X32424Y-25129D01*
X32414Y-25125D01*
X32920Y-25125D01*
X32894Y-25183D01*
X33161Y-25450D01*
X33428Y-25183D01*
X33402Y-25125D01*
X33907Y-25125D01*
X33899Y-25128D01*
X33768Y-25258D01*
X33698Y-25429D01*
X33697Y-25613D01*
X33768Y-25783D01*
X33898Y-25914D01*
X34068Y-25984D01*
X34253Y-25985D01*
X34423Y-25914D01*
X34554Y-25784D01*
X34624Y-25614D01*
X34624Y-25429D01*
X34554Y-25259D01*
X34424Y-25129D01*
X34414Y-25125D01*
X34729Y-25125D01*
X34723Y-25130D01*
X34698Y-25192D01*
X34698Y-25259D01*
X34698Y-25850D01*
X34723Y-25911D01*
X34770Y-25959D01*
X34832Y-25984D01*
X34899Y-25985D01*
X35128Y-25985D01*
X35128Y-25985D01*
X35169Y-26046D01*
X35227Y-26103D01*
X35247Y-26117D01*
X35264Y-26134D01*
X35302Y-26161D01*
G54D10*
G36*
X36052Y-29854D02*
X36044Y-29854D01*
X36044Y-29862D01*
X35944Y-29862D01*
X35944Y-29854D01*
X35749Y-29854D01*
X35731Y-29872D01*
X35712Y-29872D01*
X35681Y-29879D01*
X28599Y-29829D01*
X30529Y-28777D01*
X30550Y-28759D01*
X30590Y-28733D01*
X30717Y-28606D01*
X30742Y-28568D01*
X30769Y-28532D01*
X30874Y-28310D01*
X33840Y-28201D01*
X33876Y-28193D01*
X33916Y-28188D01*
X34283Y-28063D01*
X34387Y-28055D01*
X34392Y-28063D01*
X34526Y-28197D01*
X34733Y-28678D01*
X34733Y-28678D01*
X34733Y-28678D01*
X34735Y-28681D01*
X34761Y-28719D01*
X34791Y-28764D01*
X34918Y-28891D01*
X34954Y-28915D01*
X34989Y-28942D01*
X34997Y-28944D01*
X35004Y-28949D01*
X35047Y-28957D01*
X35089Y-28969D01*
X35339Y-28984D01*
X35492Y-29356D01*
X35492Y-29358D01*
X35550Y-29445D01*
X35722Y-29617D01*
X35707Y-29652D01*
X35707Y-29719D01*
X35707Y-29712D01*
X35749Y-29754D01*
X35944Y-29754D01*
X35944Y-29749D01*
X35970Y-29754D01*
X36052Y-29754D01*
X36052Y-29854D01*
X36052Y-29854D01*
G37*
G54D41*
X36052Y-29854D02*
X36044Y-29854D01*
X36044Y-29862D01*
X35944Y-29862D01*
X35944Y-29854D01*
X35749Y-29854D01*
X35731Y-29872D01*
X35712Y-29872D01*
X35681Y-29879D01*
X28599Y-29829D01*
X30529Y-28777D01*
X30550Y-28759D01*
X30590Y-28733D01*
X30717Y-28606D01*
X30742Y-28568D01*
X30769Y-28532D01*
X30874Y-28310D01*
X33840Y-28201D01*
X33876Y-28193D01*
X33916Y-28188D01*
X34283Y-28063D01*
X34387Y-28055D01*
X34392Y-28063D01*
X34526Y-28197D01*
X34733Y-28678D01*
X34733Y-28678D01*
X34733Y-28678D01*
X34735Y-28681D01*
X34761Y-28719D01*
X34791Y-28764D01*
X34918Y-28891D01*
X34954Y-28915D01*
X34989Y-28942D01*
X34997Y-28944D01*
X35004Y-28949D01*
X35047Y-28957D01*
X35089Y-28969D01*
X35339Y-28984D01*
X35492Y-29356D01*
X35492Y-29358D01*
X35550Y-29445D01*
X35722Y-29617D01*
X35707Y-29652D01*
X35707Y-29719D01*
X35707Y-29712D01*
X35749Y-29754D01*
X35944Y-29754D01*
X35944Y-29749D01*
X35970Y-29754D01*
X36052Y-29754D01*
X36052Y-29854D01*
G54D10*
G36*
X36770Y-26795D02*
X36742Y-26813D01*
X36693Y-26887D01*
X36690Y-26901D01*
X36676Y-26903D01*
X36602Y-26953D01*
X36553Y-27026D01*
X36550Y-27045D01*
X36521Y-27059D01*
X36521Y-27108D01*
X36538Y-27125D01*
X36549Y-27177D01*
X36497Y-27167D01*
X36479Y-27150D01*
X36430Y-27150D01*
X36416Y-27178D01*
X36398Y-27182D01*
X36324Y-27231D01*
X36320Y-27237D01*
X36274Y-27234D01*
X36262Y-27236D01*
X36249Y-27234D01*
X36209Y-27243D01*
X36194Y-27245D01*
X36190Y-27248D01*
X36148Y-27257D01*
X35896Y-27371D01*
X35896Y-27371D01*
X35884Y-27356D01*
X36004Y-27306D01*
X36102Y-27209D01*
X36154Y-27082D01*
X36154Y-27017D01*
X36237Y-26957D01*
X36770Y-26795D01*
X36770Y-26795D01*
G37*
G54D41*
X36770Y-26795D02*
X36742Y-26813D01*
X36693Y-26887D01*
X36690Y-26901D01*
X36676Y-26903D01*
X36602Y-26953D01*
X36553Y-27026D01*
X36550Y-27045D01*
X36521Y-27059D01*
X36521Y-27108D01*
X36538Y-27125D01*
X36549Y-27177D01*
X36497Y-27167D01*
X36479Y-27150D01*
X36430Y-27150D01*
X36416Y-27178D01*
X36398Y-27182D01*
X36324Y-27231D01*
X36320Y-27237D01*
X36274Y-27234D01*
X36262Y-27236D01*
X36249Y-27234D01*
X36209Y-27243D01*
X36194Y-27245D01*
X36190Y-27248D01*
X36148Y-27257D01*
X35896Y-27371D01*
X35896Y-27371D01*
X35884Y-27356D01*
X36004Y-27306D01*
X36102Y-27209D01*
X36154Y-27082D01*
X36154Y-27017D01*
X36237Y-26957D01*
X36770Y-26795D01*
G54D10*
G36*
X36800Y-27991D02*
X36774Y-27980D01*
X36707Y-27980D01*
X36645Y-28006D01*
X36598Y-28053D01*
X36421Y-28230D01*
X36360Y-28197D01*
X36359Y-28197D01*
X36358Y-28196D01*
X36357Y-28195D01*
X36323Y-28185D01*
X36260Y-28165D01*
X35942Y-28128D01*
X35921Y-28107D01*
X35859Y-28082D01*
X35793Y-28082D01*
X35556Y-28082D01*
X35511Y-28100D01*
X35465Y-28082D01*
X35406Y-28082D01*
X35364Y-28124D01*
X35364Y-28318D01*
X35372Y-28318D01*
X35372Y-28418D01*
X35364Y-28418D01*
X35364Y-28426D01*
X35264Y-28426D01*
X35264Y-27941D01*
X35264Y-27746D01*
X35070Y-27746D01*
X35028Y-27788D01*
X35028Y-27781D01*
X35028Y-27848D01*
X35054Y-27910D01*
X35101Y-27957D01*
X35163Y-27983D01*
X35222Y-27983D01*
X35264Y-27941D01*
X35264Y-28426D01*
X35264Y-28426D01*
X35264Y-28418D01*
X35256Y-28418D01*
X35256Y-28318D01*
X35264Y-28318D01*
X35264Y-28124D01*
X35222Y-28082D01*
X35163Y-28082D01*
X35101Y-28107D01*
X35078Y-28130D01*
X34997Y-27943D01*
X34995Y-27939D01*
X34968Y-27899D01*
X34939Y-27856D01*
X34791Y-27708D01*
X34794Y-27691D01*
X34912Y-27573D01*
X35028Y-27545D01*
X35028Y-27545D01*
X35028Y-27612D01*
X35028Y-27604D01*
X35070Y-27646D01*
X35264Y-27646D01*
X35264Y-27639D01*
X35364Y-27639D01*
X35364Y-27646D01*
X35372Y-27646D01*
X35372Y-27746D01*
X35364Y-27746D01*
X35364Y-27941D01*
X35406Y-27983D01*
X35466Y-27983D01*
X35511Y-27964D01*
X35556Y-27983D01*
X35623Y-27983D01*
X35859Y-27983D01*
X35921Y-27957D01*
X35952Y-27926D01*
X35969Y-27923D01*
X35972Y-27921D01*
X35976Y-27920D01*
X36368Y-27743D01*
X36397Y-27722D01*
X36449Y-27686D01*
X36453Y-27682D01*
X36585Y-27814D01*
X36659Y-27863D01*
X36746Y-27880D01*
X36754Y-27879D01*
X36800Y-27991D01*
X36800Y-27991D01*
G37*
G54D41*
X36800Y-27991D02*
X36774Y-27980D01*
X36707Y-27980D01*
X36645Y-28006D01*
X36598Y-28053D01*
X36421Y-28230D01*
X36360Y-28197D01*
X36359Y-28197D01*
X36358Y-28196D01*
X36357Y-28195D01*
X36323Y-28185D01*
X36260Y-28165D01*
X35942Y-28128D01*
X35921Y-28107D01*
X35859Y-28082D01*
X35793Y-28082D01*
X35556Y-28082D01*
X35511Y-28100D01*
X35465Y-28082D01*
X35406Y-28082D01*
X35364Y-28124D01*
X35364Y-28318D01*
X35372Y-28318D01*
X35372Y-28418D01*
X35364Y-28418D01*
X35364Y-28426D01*
X35264Y-28426D01*
X35264Y-27941D01*
X35264Y-27746D01*
X35070Y-27746D01*
X35028Y-27788D01*
X35028Y-27781D01*
X35028Y-27848D01*
X35054Y-27910D01*
X35101Y-27957D01*
X35163Y-27983D01*
X35222Y-27983D01*
X35264Y-27941D01*
X35264Y-28426D01*
X35264Y-28426D01*
X35264Y-28418D01*
X35256Y-28418D01*
X35256Y-28318D01*
X35264Y-28318D01*
X35264Y-28124D01*
X35222Y-28082D01*
X35163Y-28082D01*
X35101Y-28107D01*
X35078Y-28130D01*
X34997Y-27943D01*
X34995Y-27939D01*
X34968Y-27899D01*
X34939Y-27856D01*
X34791Y-27708D01*
X34794Y-27691D01*
X34912Y-27573D01*
X35028Y-27545D01*
X35028Y-27545D01*
X35028Y-27612D01*
X35028Y-27604D01*
X35070Y-27646D01*
X35264Y-27646D01*
X35264Y-27639D01*
X35364Y-27639D01*
X35364Y-27646D01*
X35372Y-27646D01*
X35372Y-27746D01*
X35364Y-27746D01*
X35364Y-27941D01*
X35406Y-27983D01*
X35466Y-27983D01*
X35511Y-27964D01*
X35556Y-27983D01*
X35623Y-27983D01*
X35859Y-27983D01*
X35921Y-27957D01*
X35952Y-27926D01*
X35969Y-27923D01*
X35972Y-27921D01*
X35976Y-27920D01*
X36368Y-27743D01*
X36397Y-27722D01*
X36449Y-27686D01*
X36453Y-27682D01*
X36585Y-27814D01*
X36659Y-27863D01*
X36746Y-27880D01*
X36754Y-27879D01*
X36800Y-27991D01*
G54D10*
G36*
X38057Y-29023D02*
X37978Y-29151D01*
X37946Y-29129D01*
X37928Y-29126D01*
X37914Y-29098D01*
X37865Y-29098D01*
X37849Y-29114D01*
X37796Y-29125D01*
X37806Y-29073D01*
X37823Y-29056D01*
X37823Y-29007D01*
X37795Y-28993D01*
X37791Y-28974D01*
X37742Y-28901D01*
X37668Y-28851D01*
X37654Y-28849D01*
X37652Y-28835D01*
X37602Y-28761D01*
X37529Y-28712D01*
X37515Y-28709D01*
X37512Y-28696D01*
X37463Y-28622D01*
X37389Y-28573D01*
X37376Y-28570D01*
X37373Y-28556D01*
X37324Y-28483D01*
X37250Y-28434D01*
X37236Y-28431D01*
X37234Y-28417D01*
X37184Y-28343D01*
X37111Y-28294D01*
X37097Y-28292D01*
X37094Y-28278D01*
X37045Y-28204D01*
X36975Y-28157D01*
X36966Y-28137D01*
X36934Y-28104D01*
X37024Y-28141D01*
X37161Y-28142D01*
X37176Y-28135D01*
X37932Y-28765D01*
X38057Y-28891D01*
X38057Y-29023D01*
X38057Y-29023D01*
G37*
G54D41*
X38057Y-29023D02*
X37978Y-29151D01*
X37946Y-29129D01*
X37928Y-29126D01*
X37914Y-29098D01*
X37865Y-29098D01*
X37849Y-29114D01*
X37796Y-29125D01*
X37806Y-29073D01*
X37823Y-29056D01*
X37823Y-29007D01*
X37795Y-28993D01*
X37791Y-28974D01*
X37742Y-28901D01*
X37668Y-28851D01*
X37654Y-28849D01*
X37652Y-28835D01*
X37602Y-28761D01*
X37529Y-28712D01*
X37515Y-28709D01*
X37512Y-28696D01*
X37463Y-28622D01*
X37389Y-28573D01*
X37376Y-28570D01*
X37373Y-28556D01*
X37324Y-28483D01*
X37250Y-28434D01*
X37236Y-28431D01*
X37234Y-28417D01*
X37184Y-28343D01*
X37111Y-28294D01*
X37097Y-28292D01*
X37094Y-28278D01*
X37045Y-28204D01*
X36975Y-28157D01*
X36966Y-28137D01*
X36934Y-28104D01*
X37024Y-28141D01*
X37161Y-28142D01*
X37176Y-28135D01*
X37932Y-28765D01*
X38057Y-28891D01*
X38057Y-29023D01*
G54D10*
G36*
X40532Y-25919D02*
X40498Y-25999D01*
X40498Y-26053D01*
X39977Y-26407D01*
X39969Y-26395D01*
X39895Y-26345D01*
X39882Y-26343D01*
X39880Y-26330D01*
X39830Y-26256D01*
X39757Y-26207D01*
X39743Y-26204D01*
X39740Y-26190D01*
X39691Y-26117D01*
X39617Y-26068D01*
X39604Y-26065D01*
X39601Y-26051D01*
X39552Y-25977D01*
X39511Y-25950D01*
X39538Y-25959D01*
X39558Y-25962D01*
X39576Y-25969D01*
X39608Y-25968D01*
X39618Y-25969D01*
X39624Y-25967D01*
X39680Y-25966D01*
X39893Y-25919D01*
X39904Y-25919D01*
X39905Y-25919D01*
X39938Y-25919D01*
X40174Y-25919D01*
X40220Y-25900D01*
X40265Y-25919D01*
X40324Y-25919D01*
X40366Y-25877D01*
X40366Y-25682D01*
X40359Y-25682D01*
X40359Y-25582D01*
X40366Y-25582D01*
X40366Y-25575D01*
X40466Y-25575D01*
X40466Y-25582D01*
X40474Y-25582D01*
X40474Y-25682D01*
X40466Y-25682D01*
X40466Y-25877D01*
X40508Y-25919D01*
X40532Y-25919D01*
X40532Y-25919D01*
G37*
G54D41*
X40532Y-25919D02*
X40498Y-25999D01*
X40498Y-26053D01*
X39977Y-26407D01*
X39969Y-26395D01*
X39895Y-26345D01*
X39882Y-26343D01*
X39880Y-26330D01*
X39830Y-26256D01*
X39757Y-26207D01*
X39743Y-26204D01*
X39740Y-26190D01*
X39691Y-26117D01*
X39617Y-26068D01*
X39604Y-26065D01*
X39601Y-26051D01*
X39552Y-25977D01*
X39511Y-25950D01*
X39538Y-25959D01*
X39558Y-25962D01*
X39576Y-25969D01*
X39608Y-25968D01*
X39618Y-25969D01*
X39624Y-25967D01*
X39680Y-25966D01*
X39893Y-25919D01*
X39904Y-25919D01*
X39905Y-25919D01*
X39938Y-25919D01*
X40174Y-25919D01*
X40220Y-25900D01*
X40265Y-25919D01*
X40324Y-25919D01*
X40366Y-25877D01*
X40366Y-25682D01*
X40359Y-25682D01*
X40359Y-25582D01*
X40366Y-25582D01*
X40366Y-25575D01*
X40466Y-25575D01*
X40466Y-25582D01*
X40474Y-25582D01*
X40474Y-25682D01*
X40466Y-25682D01*
X40466Y-25877D01*
X40508Y-25919D01*
X40532Y-25919D01*
G54D10*
G36*
X41455Y-26989D02*
X41084Y-27399D01*
X41060Y-27438D01*
X41035Y-27476D01*
X41034Y-27482D01*
X41030Y-27488D01*
X41024Y-27533D01*
X41015Y-27578D01*
X41015Y-27672D01*
X41001Y-27686D01*
X40975Y-27748D01*
X40975Y-27815D01*
X40975Y-27932D01*
X40686Y-28108D01*
X40644Y-28147D01*
X40639Y-28150D01*
X40634Y-28156D01*
X40543Y-28066D01*
X40469Y-28016D01*
X40382Y-27999D01*
X40295Y-28016D01*
X40221Y-28066D01*
X40172Y-28139D01*
X40168Y-28158D01*
X40140Y-28172D01*
X40140Y-28221D01*
X40157Y-28238D01*
X40168Y-28290D01*
X40115Y-28279D01*
X40098Y-28263D01*
X40049Y-28263D01*
X40036Y-28291D01*
X40017Y-28294D01*
X39944Y-28343D01*
X39894Y-28417D01*
X39892Y-28431D01*
X39878Y-28434D01*
X39847Y-28454D01*
X39852Y-28093D01*
X39906Y-28028D01*
X39992Y-28028D01*
X40119Y-27976D01*
X40216Y-27879D01*
X40238Y-27824D01*
X40296Y-27862D01*
X40383Y-27880D01*
X40470Y-27862D01*
X40543Y-27813D01*
X40805Y-27552D01*
X40854Y-27478D01*
X40871Y-27391D01*
X40854Y-27304D01*
X40805Y-27230D01*
X40731Y-27181D01*
X40718Y-27179D01*
X40715Y-27165D01*
X40666Y-27091D01*
X40592Y-27042D01*
X40578Y-27039D01*
X40575Y-27026D01*
X40526Y-26952D01*
X40453Y-26903D01*
X40439Y-26900D01*
X40436Y-26886D01*
X40387Y-26813D01*
X40313Y-26763D01*
X40300Y-26761D01*
X40297Y-26747D01*
X40271Y-26709D01*
X40732Y-26396D01*
X40775Y-26414D01*
X40912Y-26414D01*
X41039Y-26361D01*
X41120Y-26281D01*
X41455Y-26989D01*
X41455Y-26989D01*
G37*
G54D41*
X41455Y-26989D02*
X41084Y-27399D01*
X41060Y-27438D01*
X41035Y-27476D01*
X41034Y-27482D01*
X41030Y-27488D01*
X41024Y-27533D01*
X41015Y-27578D01*
X41015Y-27672D01*
X41001Y-27686D01*
X40975Y-27748D01*
X40975Y-27815D01*
X40975Y-27932D01*
X40686Y-28108D01*
X40644Y-28147D01*
X40639Y-28150D01*
X40634Y-28156D01*
X40543Y-28066D01*
X40469Y-28016D01*
X40382Y-27999D01*
X40295Y-28016D01*
X40221Y-28066D01*
X40172Y-28139D01*
X40168Y-28158D01*
X40140Y-28172D01*
X40140Y-28221D01*
X40157Y-28238D01*
X40168Y-28290D01*
X40115Y-28279D01*
X40098Y-28263D01*
X40049Y-28263D01*
X40036Y-28291D01*
X40017Y-28294D01*
X39944Y-28343D01*
X39894Y-28417D01*
X39892Y-28431D01*
X39878Y-28434D01*
X39847Y-28454D01*
X39852Y-28093D01*
X39906Y-28028D01*
X39992Y-28028D01*
X40119Y-27976D01*
X40216Y-27879D01*
X40238Y-27824D01*
X40296Y-27862D01*
X40383Y-27880D01*
X40470Y-27862D01*
X40543Y-27813D01*
X40805Y-27552D01*
X40854Y-27478D01*
X40871Y-27391D01*
X40854Y-27304D01*
X40805Y-27230D01*
X40731Y-27181D01*
X40718Y-27179D01*
X40715Y-27165D01*
X40666Y-27091D01*
X40592Y-27042D01*
X40578Y-27039D01*
X40575Y-27026D01*
X40526Y-26952D01*
X40453Y-26903D01*
X40439Y-26900D01*
X40436Y-26886D01*
X40387Y-26813D01*
X40313Y-26763D01*
X40300Y-26761D01*
X40297Y-26747D01*
X40271Y-26709D01*
X40732Y-26396D01*
X40775Y-26414D01*
X40912Y-26414D01*
X41039Y-26361D01*
X41120Y-26281D01*
X41455Y-26989D01*
G54D10*
G36*
X47272Y-27643D02*
X47133Y-27711D01*
X47132Y-27711D01*
X46895Y-27711D01*
X46850Y-27729D01*
X46804Y-27711D01*
X46745Y-27711D01*
X46703Y-27753D01*
X46703Y-27947D01*
X46711Y-27947D01*
X46711Y-28047D01*
X46703Y-28047D01*
X46703Y-28241D01*
X46745Y-28283D01*
X46804Y-28283D01*
X46850Y-28264D01*
X46895Y-28283D01*
X46962Y-28283D01*
X47067Y-28283D01*
X46668Y-28500D01*
X46603Y-28513D01*
X46603Y-28241D01*
X46603Y-28047D01*
X46603Y-27947D01*
X46603Y-27753D01*
X46561Y-27711D01*
X46502Y-27711D01*
X46440Y-27736D01*
X46392Y-27783D01*
X46367Y-27845D01*
X46367Y-27912D01*
X46367Y-27905D01*
X46409Y-27947D01*
X46603Y-27947D01*
X46603Y-28047D01*
X46409Y-28047D01*
X46367Y-28089D01*
X46367Y-28082D01*
X46367Y-28149D01*
X46392Y-28210D01*
X46440Y-28258D01*
X46502Y-28283D01*
X46561Y-28283D01*
X46603Y-28241D01*
X46603Y-28513D01*
X42532Y-29312D01*
X42536Y-29308D01*
X42589Y-29181D01*
X42589Y-29043D01*
X42537Y-28917D01*
X42489Y-28869D01*
X43134Y-28655D01*
X43135Y-28655D01*
X43138Y-28655D01*
X43723Y-28450D01*
X43726Y-28453D01*
X43853Y-28505D01*
X43990Y-28506D01*
X44117Y-28453D01*
X44215Y-28356D01*
X44267Y-28229D01*
X44267Y-28092D01*
X44215Y-27965D01*
X44118Y-27868D01*
X43991Y-27815D01*
X43854Y-27815D01*
X43727Y-27867D01*
X43629Y-27964D01*
X43591Y-28056D01*
X43276Y-28167D01*
X43276Y-28056D01*
X43223Y-27929D01*
X43126Y-27832D01*
X42999Y-27779D01*
X42862Y-27779D01*
X42735Y-27831D01*
X42647Y-27919D01*
X42637Y-27896D01*
X42540Y-27799D01*
X42413Y-27746D01*
X42276Y-27746D01*
X42149Y-27798D01*
X42052Y-27895D01*
X41999Y-28022D01*
X41999Y-28091D01*
X41942Y-28134D01*
X41942Y-27984D01*
X41942Y-27815D01*
X41941Y-27748D01*
X41916Y-27686D01*
X41869Y-27639D01*
X41807Y-27613D01*
X41747Y-27613D01*
X41705Y-27655D01*
X41705Y-27850D01*
X41899Y-27850D01*
X41942Y-27808D01*
X41942Y-27815D01*
X41942Y-27984D01*
X41942Y-27992D01*
X41899Y-27950D01*
X41705Y-27950D01*
X41705Y-28144D01*
X41747Y-28186D01*
X41807Y-28186D01*
X41869Y-28160D01*
X41916Y-28113D01*
X41941Y-28051D01*
X41942Y-27984D01*
X41942Y-28134D01*
X41782Y-28253D01*
X41778Y-28258D01*
X41770Y-28262D01*
X41403Y-28582D01*
X41337Y-28610D01*
X41335Y-28610D01*
X40543Y-28901D01*
X40575Y-28852D01*
X40579Y-28834D01*
X40607Y-28821D01*
X40607Y-28771D01*
X40591Y-28755D01*
X40580Y-28702D01*
X40631Y-28712D01*
X40649Y-28730D01*
X40698Y-28730D01*
X40712Y-28701D01*
X40730Y-28698D01*
X40804Y-28648D01*
X40831Y-28608D01*
X40887Y-28595D01*
X40926Y-28577D01*
X40964Y-28563D01*
X41323Y-28344D01*
X41347Y-28322D01*
X41373Y-28305D01*
X41430Y-28247D01*
X41430Y-28247D01*
X41478Y-28175D01*
X41504Y-28186D01*
X41563Y-28186D01*
X41605Y-28144D01*
X41605Y-27950D01*
X41597Y-27950D01*
X41597Y-27850D01*
X41605Y-27850D01*
X41605Y-27655D01*
X41587Y-27637D01*
X41883Y-27311D01*
X45835Y-27545D01*
X45845Y-27544D01*
X45851Y-27545D01*
X46177Y-27545D01*
X46227Y-27535D01*
X46277Y-27525D01*
X46278Y-27525D01*
X46279Y-27525D01*
X46322Y-27496D01*
X46364Y-27468D01*
X46367Y-27466D01*
X46367Y-27501D01*
X46392Y-27563D01*
X46440Y-27610D01*
X46502Y-27635D01*
X46561Y-27635D01*
X46603Y-27593D01*
X46603Y-27399D01*
X46595Y-27399D01*
X46595Y-27299D01*
X46603Y-27299D01*
X46603Y-27291D01*
X46703Y-27291D01*
X46703Y-27299D01*
X46711Y-27299D01*
X46711Y-27399D01*
X46703Y-27399D01*
X46703Y-27593D01*
X46745Y-27635D01*
X46804Y-27635D01*
X46850Y-27617D01*
X46895Y-27635D01*
X46962Y-27635D01*
X47193Y-27635D01*
X47272Y-27643D01*
X47272Y-27643D01*
G37*
G54D41*
X47272Y-27643D02*
X47133Y-27711D01*
X47132Y-27711D01*
X46895Y-27711D01*
X46850Y-27729D01*
X46804Y-27711D01*
X46745Y-27711D01*
X46703Y-27753D01*
X46703Y-27947D01*
X46711Y-27947D01*
X46711Y-28047D01*
X46703Y-28047D01*
X46703Y-28241D01*
X46745Y-28283D01*
X46804Y-28283D01*
X46850Y-28264D01*
X46895Y-28283D01*
X46962Y-28283D01*
X47067Y-28283D01*
X46668Y-28500D01*
X46603Y-28513D01*
X46603Y-28241D01*
X46603Y-28047D01*
X46603Y-27947D01*
X46603Y-27753D01*
X46561Y-27711D01*
X46502Y-27711D01*
X46440Y-27736D01*
X46392Y-27783D01*
X46367Y-27845D01*
X46367Y-27912D01*
X46367Y-27905D01*
X46409Y-27947D01*
X46603Y-27947D01*
X46603Y-28047D01*
X46409Y-28047D01*
X46367Y-28089D01*
X46367Y-28082D01*
X46367Y-28149D01*
X46392Y-28210D01*
X46440Y-28258D01*
X46502Y-28283D01*
X46561Y-28283D01*
X46603Y-28241D01*
X46603Y-28513D01*
X42532Y-29312D01*
X42536Y-29308D01*
X42589Y-29181D01*
X42589Y-29043D01*
X42537Y-28917D01*
X42489Y-28869D01*
X43134Y-28655D01*
X43135Y-28655D01*
X43138Y-28655D01*
X43723Y-28450D01*
X43726Y-28453D01*
X43853Y-28505D01*
X43990Y-28506D01*
X44117Y-28453D01*
X44215Y-28356D01*
X44267Y-28229D01*
X44267Y-28092D01*
X44215Y-27965D01*
X44118Y-27868D01*
X43991Y-27815D01*
X43854Y-27815D01*
X43727Y-27867D01*
X43629Y-27964D01*
X43591Y-28056D01*
X43276Y-28167D01*
X43276Y-28056D01*
X43223Y-27929D01*
X43126Y-27832D01*
X42999Y-27779D01*
X42862Y-27779D01*
X42735Y-27831D01*
X42647Y-27919D01*
X42637Y-27896D01*
X42540Y-27799D01*
X42413Y-27746D01*
X42276Y-27746D01*
X42149Y-27798D01*
X42052Y-27895D01*
X41999Y-28022D01*
X41999Y-28091D01*
X41942Y-28134D01*
X41942Y-27984D01*
X41942Y-27815D01*
X41941Y-27748D01*
X41916Y-27686D01*
X41869Y-27639D01*
X41807Y-27613D01*
X41747Y-27613D01*
X41705Y-27655D01*
X41705Y-27850D01*
X41899Y-27850D01*
X41942Y-27808D01*
X41942Y-27815D01*
X41942Y-27984D01*
X41942Y-27992D01*
X41899Y-27950D01*
X41705Y-27950D01*
X41705Y-28144D01*
X41747Y-28186D01*
X41807Y-28186D01*
X41869Y-28160D01*
X41916Y-28113D01*
X41941Y-28051D01*
X41942Y-27984D01*
X41942Y-28134D01*
X41782Y-28253D01*
X41778Y-28258D01*
X41770Y-28262D01*
X41403Y-28582D01*
X41337Y-28610D01*
X41335Y-28610D01*
X40543Y-28901D01*
X40575Y-28852D01*
X40579Y-28834D01*
X40607Y-28821D01*
X40607Y-28771D01*
X40591Y-28755D01*
X40580Y-28702D01*
X40631Y-28712D01*
X40649Y-28730D01*
X40698Y-28730D01*
X40712Y-28701D01*
X40730Y-28698D01*
X40804Y-28648D01*
X40831Y-28608D01*
X40887Y-28595D01*
X40926Y-28577D01*
X40964Y-28563D01*
X41323Y-28344D01*
X41347Y-28322D01*
X41373Y-28305D01*
X41430Y-28247D01*
X41430Y-28247D01*
X41478Y-28175D01*
X41504Y-28186D01*
X41563Y-28186D01*
X41605Y-28144D01*
X41605Y-27950D01*
X41597Y-27950D01*
X41597Y-27850D01*
X41605Y-27850D01*
X41605Y-27655D01*
X41587Y-27637D01*
X41883Y-27311D01*
X45835Y-27545D01*
X45845Y-27544D01*
X45851Y-27545D01*
X46177Y-27545D01*
X46227Y-27535D01*
X46277Y-27525D01*
X46278Y-27525D01*
X46279Y-27525D01*
X46322Y-27496D01*
X46364Y-27468D01*
X46367Y-27466D01*
X46367Y-27501D01*
X46392Y-27563D01*
X46440Y-27610D01*
X46502Y-27635D01*
X46561Y-27635D01*
X46603Y-27593D01*
X46603Y-27399D01*
X46595Y-27399D01*
X46595Y-27299D01*
X46603Y-27299D01*
X46603Y-27291D01*
X46703Y-27291D01*
X46703Y-27299D01*
X46711Y-27299D01*
X46711Y-27399D01*
X46703Y-27399D01*
X46703Y-27593D01*
X46745Y-27635D01*
X46804Y-27635D01*
X46850Y-27617D01*
X46895Y-27635D01*
X46962Y-27635D01*
X47193Y-27635D01*
X47272Y-27643D01*
G54D10*
G36*
X47519Y-30071D02*
X42681Y-30071D01*
X46846Y-29102D01*
X46851Y-29100D01*
X46879Y-29094D01*
X46892Y-29089D01*
X46898Y-29084D01*
X46906Y-29082D01*
X47194Y-28936D01*
X47194Y-29206D01*
X47198Y-29226D01*
X47198Y-29246D01*
X47278Y-29664D01*
X47286Y-29682D01*
X47290Y-29705D01*
X47302Y-29722D01*
X47309Y-29739D01*
X47322Y-29753D01*
X47335Y-29772D01*
X47427Y-29864D01*
X47437Y-29871D01*
X47444Y-29879D01*
X47471Y-29901D01*
X47471Y-29987D01*
X47497Y-30049D01*
X47519Y-30071D01*
X47519Y-30071D01*
G37*
G54D41*
X47519Y-30071D02*
X42681Y-30071D01*
X46846Y-29102D01*
X46851Y-29100D01*
X46879Y-29094D01*
X46892Y-29089D01*
X46898Y-29084D01*
X46906Y-29082D01*
X47194Y-28936D01*
X47194Y-29206D01*
X47198Y-29226D01*
X47198Y-29246D01*
X47278Y-29664D01*
X47286Y-29682D01*
X47290Y-29705D01*
X47302Y-29722D01*
X47309Y-29739D01*
X47322Y-29753D01*
X47335Y-29772D01*
X47427Y-29864D01*
X47437Y-29871D01*
X47444Y-29879D01*
X47471Y-29901D01*
X47471Y-29987D01*
X47497Y-30049D01*
X47519Y-30071D01*
G54D10*
G36*
X48563Y-29374D02*
X48555Y-29374D01*
X48555Y-29382D01*
X48455Y-29382D01*
X48455Y-29374D01*
X48104Y-29374D01*
X48062Y-29416D01*
X48062Y-29487D01*
X48062Y-29554D01*
X48087Y-29616D01*
X48110Y-29639D01*
X48087Y-29662D01*
X48077Y-29687D01*
X48044Y-29687D01*
X48044Y-29684D01*
X48025Y-29639D01*
X48044Y-29593D01*
X48044Y-29290D01*
X48018Y-29229D01*
X47971Y-29181D01*
X47909Y-29156D01*
X47842Y-29156D01*
X47849Y-29156D01*
X47807Y-29198D01*
X47807Y-29392D01*
X48001Y-29392D01*
X48043Y-29350D01*
X48044Y-29290D01*
X48044Y-29593D01*
X48043Y-29534D01*
X48001Y-29492D01*
X47807Y-29492D01*
X47807Y-29500D01*
X47707Y-29500D01*
X47707Y-29492D01*
X47699Y-29492D01*
X47699Y-29392D01*
X47707Y-29392D01*
X47707Y-29198D01*
X47665Y-29156D01*
X47672Y-29156D01*
X47609Y-29156D01*
X47609Y-29015D01*
X47704Y-28919D01*
X48178Y-28794D01*
X48178Y-28904D01*
X48201Y-28959D01*
X48196Y-28959D01*
X48135Y-28984D01*
X48087Y-29032D01*
X48062Y-29093D01*
X48062Y-29160D01*
X48062Y-29232D01*
X48104Y-29274D01*
X48455Y-29274D01*
X48455Y-29266D01*
X48555Y-29266D01*
X48555Y-29274D01*
X48563Y-29274D01*
X48563Y-29374D01*
X48563Y-29374D01*
G37*
G54D41*
X48563Y-29374D02*
X48555Y-29374D01*
X48555Y-29382D01*
X48455Y-29382D01*
X48455Y-29374D01*
X48104Y-29374D01*
X48062Y-29416D01*
X48062Y-29487D01*
X48062Y-29554D01*
X48087Y-29616D01*
X48110Y-29639D01*
X48087Y-29662D01*
X48077Y-29687D01*
X48044Y-29687D01*
X48044Y-29684D01*
X48025Y-29639D01*
X48044Y-29593D01*
X48044Y-29290D01*
X48018Y-29229D01*
X47971Y-29181D01*
X47909Y-29156D01*
X47842Y-29156D01*
X47849Y-29156D01*
X47807Y-29198D01*
X47807Y-29392D01*
X48001Y-29392D01*
X48043Y-29350D01*
X48044Y-29290D01*
X48044Y-29593D01*
X48043Y-29534D01*
X48001Y-29492D01*
X47807Y-29492D01*
X47807Y-29500D01*
X47707Y-29500D01*
X47707Y-29492D01*
X47699Y-29492D01*
X47699Y-29392D01*
X47707Y-29392D01*
X47707Y-29198D01*
X47665Y-29156D01*
X47672Y-29156D01*
X47609Y-29156D01*
X47609Y-29015D01*
X47704Y-28919D01*
X48178Y-28794D01*
X48178Y-28904D01*
X48201Y-28959D01*
X48196Y-28959D01*
X48135Y-28984D01*
X48087Y-29032D01*
X48062Y-29093D01*
X48062Y-29160D01*
X48062Y-29232D01*
X48104Y-29274D01*
X48455Y-29274D01*
X48455Y-29266D01*
X48555Y-29266D01*
X48555Y-29274D01*
X48563Y-29274D01*
X48563Y-29374D01*
G54D10*
G36*
X48994Y-27493D02*
X48987Y-27493D01*
X48987Y-27501D01*
X48888Y-27501D01*
X48888Y-27260D01*
X48888Y-27227D01*
X48888Y-27194D01*
X48888Y-27102D01*
X48887Y-27101D01*
X48887Y-27060D01*
X48846Y-27060D01*
X48844Y-27059D01*
X48753Y-27059D01*
X48753Y-27059D01*
X48720Y-27059D01*
X48687Y-27059D01*
X48687Y-27059D01*
X48595Y-27059D01*
X48594Y-27060D01*
X48553Y-27060D01*
X48553Y-27101D01*
X48552Y-27102D01*
X48552Y-27194D01*
X48552Y-27227D01*
X48552Y-27260D01*
X48552Y-27351D01*
X48553Y-27353D01*
X48553Y-27393D01*
X48594Y-27393D01*
X48595Y-27395D01*
X48687Y-27395D01*
X48687Y-27395D01*
X48720Y-27395D01*
X48753Y-27395D01*
X48753Y-27395D01*
X48844Y-27395D01*
X48846Y-27393D01*
X48887Y-27393D01*
X48887Y-27353D01*
X48888Y-27351D01*
X48888Y-27260D01*
X48888Y-27501D01*
X48887Y-27501D01*
X48887Y-27493D01*
X48846Y-27493D01*
X48594Y-27493D01*
X48553Y-27493D01*
X48553Y-27501D01*
X48453Y-27501D01*
X48453Y-27493D01*
X48446Y-27493D01*
X48446Y-27393D01*
X48453Y-27393D01*
X48453Y-27353D01*
X48453Y-27101D01*
X48453Y-27060D01*
X48446Y-27060D01*
X48446Y-26960D01*
X48453Y-26960D01*
X48453Y-26952D01*
X48553Y-26952D01*
X48553Y-26960D01*
X48594Y-26960D01*
X48846Y-26960D01*
X48887Y-26960D01*
X48887Y-26952D01*
X48987Y-26952D01*
X48987Y-26960D01*
X48994Y-26960D01*
X48994Y-27060D01*
X48987Y-27060D01*
X48987Y-27101D01*
X48987Y-27353D01*
X48987Y-27393D01*
X48994Y-27393D01*
X48994Y-27493D01*
X48994Y-27493D01*
G37*
G54D41*
X48994Y-27493D02*
X48987Y-27493D01*
X48987Y-27501D01*
X48888Y-27501D01*
X48888Y-27260D01*
X48888Y-27227D01*
X48888Y-27194D01*
X48888Y-27102D01*
X48887Y-27101D01*
X48887Y-27060D01*
X48846Y-27060D01*
X48844Y-27059D01*
X48753Y-27059D01*
X48753Y-27059D01*
X48720Y-27059D01*
X48687Y-27059D01*
X48687Y-27059D01*
X48595Y-27059D01*
X48594Y-27060D01*
X48553Y-27060D01*
X48553Y-27101D01*
X48552Y-27102D01*
X48552Y-27194D01*
X48552Y-27227D01*
X48552Y-27260D01*
X48552Y-27351D01*
X48553Y-27353D01*
X48553Y-27393D01*
X48594Y-27393D01*
X48595Y-27395D01*
X48687Y-27395D01*
X48687Y-27395D01*
X48720Y-27395D01*
X48753Y-27395D01*
X48753Y-27395D01*
X48844Y-27395D01*
X48846Y-27393D01*
X48887Y-27393D01*
X48887Y-27353D01*
X48888Y-27351D01*
X48888Y-27260D01*
X48888Y-27501D01*
X48887Y-27501D01*
X48887Y-27493D01*
X48846Y-27493D01*
X48594Y-27493D01*
X48553Y-27493D01*
X48553Y-27501D01*
X48453Y-27501D01*
X48453Y-27493D01*
X48446Y-27493D01*
X48446Y-27393D01*
X48453Y-27393D01*
X48453Y-27353D01*
X48453Y-27101D01*
X48453Y-27060D01*
X48446Y-27060D01*
X48446Y-26960D01*
X48453Y-26960D01*
X48453Y-26952D01*
X48553Y-26952D01*
X48553Y-26960D01*
X48594Y-26960D01*
X48846Y-26960D01*
X48887Y-26960D01*
X48887Y-26952D01*
X48987Y-26952D01*
X48987Y-26960D01*
X48994Y-26960D01*
X48994Y-27060D01*
X48987Y-27060D01*
X48987Y-27101D01*
X48987Y-27353D01*
X48987Y-27393D01*
X48994Y-27393D01*
X48994Y-27493D01*
G54D10*
G36*
X49758Y-28936D02*
X49753Y-28959D01*
X49647Y-28959D01*
X49614Y-28959D01*
X49540Y-28959D01*
X49552Y-28947D01*
X49578Y-28886D01*
X49578Y-28819D01*
X49578Y-28826D01*
X49536Y-28784D01*
X49341Y-28784D01*
X49341Y-28792D01*
X49241Y-28792D01*
X49241Y-28784D01*
X49233Y-28784D01*
X49233Y-28684D01*
X49241Y-28684D01*
X49241Y-28676D01*
X49341Y-28676D01*
X49341Y-28684D01*
X49536Y-28684D01*
X49549Y-28671D01*
X49676Y-28716D01*
X49758Y-28799D01*
X49758Y-28936D01*
X49758Y-28936D01*
G37*
G54D41*
X49758Y-28936D02*
X49753Y-28959D01*
X49647Y-28959D01*
X49614Y-28959D01*
X49540Y-28959D01*
X49552Y-28947D01*
X49578Y-28886D01*
X49578Y-28819D01*
X49578Y-28826D01*
X49536Y-28784D01*
X49341Y-28784D01*
X49341Y-28792D01*
X49241Y-28792D01*
X49241Y-28784D01*
X49233Y-28784D01*
X49233Y-28684D01*
X49241Y-28684D01*
X49241Y-28676D01*
X49341Y-28676D01*
X49341Y-28684D01*
X49536Y-28684D01*
X49549Y-28671D01*
X49676Y-28716D01*
X49758Y-28799D01*
X49758Y-28936D01*
G54D10*
G36*
X53276Y-27952D02*
X53276Y-27986D01*
X53276Y-28095D01*
X53061Y-28096D01*
X53061Y-27986D01*
X53061Y-27919D01*
X53036Y-27857D01*
X52988Y-27810D01*
X52926Y-27784D01*
X52808Y-27784D01*
X52766Y-27826D01*
X52766Y-28097D01*
X52666Y-28098D01*
X52666Y-27826D01*
X52624Y-27784D01*
X52506Y-27784D01*
X52444Y-27810D01*
X52396Y-27857D01*
X52371Y-27919D01*
X52371Y-27986D01*
X52371Y-28099D01*
X52319Y-28099D01*
X51955Y-28140D01*
X51464Y-28356D01*
X51464Y-28114D01*
X51464Y-28054D01*
X51422Y-28012D01*
X51228Y-28012D01*
X51228Y-28207D01*
X51270Y-28249D01*
X51263Y-28249D01*
X51329Y-28249D01*
X51391Y-28223D01*
X51438Y-28176D01*
X51464Y-28114D01*
X51464Y-28356D01*
X51128Y-28505D01*
X50579Y-28746D01*
X50579Y-30071D01*
X50411Y-30071D01*
X50453Y-30029D01*
X50479Y-29967D01*
X50478Y-29908D01*
X50436Y-29866D01*
X50242Y-29866D01*
X50242Y-29874D01*
X50142Y-29874D01*
X50142Y-29866D01*
X49948Y-29866D01*
X49906Y-29908D01*
X49906Y-29967D01*
X49932Y-30029D01*
X49974Y-30071D01*
X49815Y-30071D01*
X49815Y-30046D01*
X49773Y-30004D01*
X49421Y-30004D01*
X49421Y-30012D01*
X49321Y-30012D01*
X49321Y-30004D01*
X49314Y-30004D01*
X49314Y-29904D01*
X49321Y-29904D01*
X49321Y-29896D01*
X49421Y-29896D01*
X49421Y-29904D01*
X49773Y-29904D01*
X49815Y-29862D01*
X49815Y-29790D01*
X49815Y-29723D01*
X49789Y-29662D01*
X49767Y-29639D01*
X49789Y-29616D01*
X49815Y-29554D01*
X49815Y-29487D01*
X49815Y-29373D01*
X49848Y-29365D01*
X49881Y-29358D01*
X49887Y-29354D01*
X49887Y-29354D01*
X49906Y-29373D01*
X49906Y-29573D01*
X49925Y-29619D01*
X49906Y-29664D01*
X49906Y-29724D01*
X49948Y-29766D01*
X50142Y-29766D01*
X50142Y-29758D01*
X50242Y-29758D01*
X50242Y-29766D01*
X50436Y-29766D01*
X50478Y-29724D01*
X50479Y-29664D01*
X50460Y-29619D01*
X50478Y-29574D01*
X50479Y-29507D01*
X50479Y-29271D01*
X50453Y-29209D01*
X50406Y-29161D01*
X50344Y-29136D01*
X50277Y-29136D01*
X50255Y-29136D01*
X50160Y-29040D01*
X50167Y-29012D01*
X50168Y-28987D01*
X50173Y-28962D01*
X50173Y-28713D01*
X50158Y-28633D01*
X50158Y-28633D01*
X50143Y-28611D01*
X50113Y-28566D01*
X50113Y-28566D01*
X50086Y-28539D01*
X50119Y-28539D01*
X50200Y-28539D01*
X50302Y-28519D01*
X50302Y-28519D01*
X50389Y-28461D01*
X50446Y-28403D01*
X50446Y-28403D01*
X50494Y-28332D01*
X50520Y-28342D01*
X50579Y-28342D01*
X50621Y-28300D01*
X50621Y-28106D01*
X50613Y-28106D01*
X50613Y-28006D01*
X50621Y-28006D01*
X50621Y-27998D01*
X50721Y-27998D01*
X50721Y-28006D01*
X50729Y-28006D01*
X50729Y-28106D01*
X50721Y-28106D01*
X50721Y-28300D01*
X50763Y-28342D01*
X50823Y-28342D01*
X50884Y-28317D01*
X50932Y-28269D01*
X50955Y-28214D01*
X50964Y-28223D01*
X51026Y-28249D01*
X51093Y-28249D01*
X51086Y-28249D01*
X51128Y-28207D01*
X51128Y-28012D01*
X51120Y-28012D01*
X51120Y-27912D01*
X51128Y-27912D01*
X51128Y-27905D01*
X51228Y-27905D01*
X51228Y-27912D01*
X51422Y-27912D01*
X51464Y-27870D01*
X51464Y-27826D01*
X51467Y-27829D01*
X51528Y-27855D01*
X51595Y-27855D01*
X51832Y-27855D01*
X51877Y-27836D01*
X51922Y-27855D01*
X51989Y-27855D01*
X52225Y-27855D01*
X52287Y-27829D01*
X52334Y-27782D01*
X52360Y-27720D01*
X52360Y-27653D01*
X52360Y-27593D01*
X52407Y-27613D01*
X52474Y-27613D01*
X52710Y-27613D01*
X52755Y-27594D01*
X52801Y-27613D01*
X52867Y-27613D01*
X53104Y-27613D01*
X53152Y-27593D01*
X53216Y-27593D01*
X53276Y-27936D01*
X53276Y-27952D01*
X53276Y-27952D01*
G37*
G54D41*
X53276Y-27952D02*
X53276Y-27986D01*
X53276Y-28095D01*
X53061Y-28096D01*
X53061Y-27986D01*
X53061Y-27919D01*
X53036Y-27857D01*
X52988Y-27810D01*
X52926Y-27784D01*
X52808Y-27784D01*
X52766Y-27826D01*
X52766Y-28097D01*
X52666Y-28098D01*
X52666Y-27826D01*
X52624Y-27784D01*
X52506Y-27784D01*
X52444Y-27810D01*
X52396Y-27857D01*
X52371Y-27919D01*
X52371Y-27986D01*
X52371Y-28099D01*
X52319Y-28099D01*
X51955Y-28140D01*
X51464Y-28356D01*
X51464Y-28114D01*
X51464Y-28054D01*
X51422Y-28012D01*
X51228Y-28012D01*
X51228Y-28207D01*
X51270Y-28249D01*
X51263Y-28249D01*
X51329Y-28249D01*
X51391Y-28223D01*
X51438Y-28176D01*
X51464Y-28114D01*
X51464Y-28356D01*
X51128Y-28505D01*
X50579Y-28746D01*
X50579Y-30071D01*
X50411Y-30071D01*
X50453Y-30029D01*
X50479Y-29967D01*
X50478Y-29908D01*
X50436Y-29866D01*
X50242Y-29866D01*
X50242Y-29874D01*
X50142Y-29874D01*
X50142Y-29866D01*
X49948Y-29866D01*
X49906Y-29908D01*
X49906Y-29967D01*
X49932Y-30029D01*
X49974Y-30071D01*
X49815Y-30071D01*
X49815Y-30046D01*
X49773Y-30004D01*
X49421Y-30004D01*
X49421Y-30012D01*
X49321Y-30012D01*
X49321Y-30004D01*
X49314Y-30004D01*
X49314Y-29904D01*
X49321Y-29904D01*
X49321Y-29896D01*
X49421Y-29896D01*
X49421Y-29904D01*
X49773Y-29904D01*
X49815Y-29862D01*
X49815Y-29790D01*
X49815Y-29723D01*
X49789Y-29662D01*
X49767Y-29639D01*
X49789Y-29616D01*
X49815Y-29554D01*
X49815Y-29487D01*
X49815Y-29373D01*
X49848Y-29365D01*
X49881Y-29358D01*
X49887Y-29354D01*
X49887Y-29354D01*
X49906Y-29373D01*
X49906Y-29573D01*
X49925Y-29619D01*
X49906Y-29664D01*
X49906Y-29724D01*
X49948Y-29766D01*
X50142Y-29766D01*
X50142Y-29758D01*
X50242Y-29758D01*
X50242Y-29766D01*
X50436Y-29766D01*
X50478Y-29724D01*
X50479Y-29664D01*
X50460Y-29619D01*
X50478Y-29574D01*
X50479Y-29507D01*
X50479Y-29271D01*
X50453Y-29209D01*
X50406Y-29161D01*
X50344Y-29136D01*
X50277Y-29136D01*
X50255Y-29136D01*
X50160Y-29040D01*
X50167Y-29012D01*
X50168Y-28987D01*
X50173Y-28962D01*
X50173Y-28713D01*
X50158Y-28633D01*
X50158Y-28633D01*
X50143Y-28611D01*
X50113Y-28566D01*
X50113Y-28566D01*
X50086Y-28539D01*
X50119Y-28539D01*
X50200Y-28539D01*
X50302Y-28519D01*
X50302Y-28519D01*
X50389Y-28461D01*
X50446Y-28403D01*
X50446Y-28403D01*
X50494Y-28332D01*
X50520Y-28342D01*
X50579Y-28342D01*
X50621Y-28300D01*
X50621Y-28106D01*
X50613Y-28106D01*
X50613Y-28006D01*
X50621Y-28006D01*
X50621Y-27998D01*
X50721Y-27998D01*
X50721Y-28006D01*
X50729Y-28006D01*
X50729Y-28106D01*
X50721Y-28106D01*
X50721Y-28300D01*
X50763Y-28342D01*
X50823Y-28342D01*
X50884Y-28317D01*
X50932Y-28269D01*
X50955Y-28214D01*
X50964Y-28223D01*
X51026Y-28249D01*
X51093Y-28249D01*
X51086Y-28249D01*
X51128Y-28207D01*
X51128Y-28012D01*
X51120Y-28012D01*
X51120Y-27912D01*
X51128Y-27912D01*
X51128Y-27905D01*
X51228Y-27905D01*
X51228Y-27912D01*
X51422Y-27912D01*
X51464Y-27870D01*
X51464Y-27826D01*
X51467Y-27829D01*
X51528Y-27855D01*
X51595Y-27855D01*
X51832Y-27855D01*
X51877Y-27836D01*
X51922Y-27855D01*
X51989Y-27855D01*
X52225Y-27855D01*
X52287Y-27829D01*
X52334Y-27782D01*
X52360Y-27720D01*
X52360Y-27653D01*
X52360Y-27593D01*
X52407Y-27613D01*
X52474Y-27613D01*
X52710Y-27613D01*
X52755Y-27594D01*
X52801Y-27613D01*
X52867Y-27613D01*
X53104Y-27613D01*
X53152Y-27593D01*
X53216Y-27593D01*
X53276Y-27936D01*
X53276Y-27952D01*
G54D10*
G36*
X58719Y-28072D02*
X53809Y-28093D01*
X53809Y-27919D01*
X53809Y-27919D01*
X53809Y-27911D01*
X53805Y-27887D01*
X53805Y-27865D01*
X53734Y-27462D01*
X53734Y-27444D01*
X53734Y-27444D01*
X53734Y-27411D01*
X53734Y-27175D01*
X53715Y-27129D01*
X53734Y-27084D01*
X53734Y-26781D01*
X53708Y-26719D01*
X53661Y-26672D01*
X53599Y-26646D01*
X53533Y-26646D01*
X53540Y-26646D01*
X53498Y-26688D01*
X53498Y-26882D01*
X53692Y-26882D01*
X53734Y-26840D01*
X53734Y-26781D01*
X53734Y-27084D01*
X53734Y-27025D01*
X53692Y-26982D01*
X53498Y-26982D01*
X53498Y-26990D01*
X53398Y-26990D01*
X53398Y-26982D01*
X53398Y-26882D01*
X53398Y-26688D01*
X53356Y-26646D01*
X53363Y-26646D01*
X53296Y-26646D01*
X53234Y-26672D01*
X53187Y-26719D01*
X53161Y-26781D01*
X53161Y-26840D01*
X53203Y-26882D01*
X53398Y-26882D01*
X53398Y-26982D01*
X53203Y-26982D01*
X53161Y-27025D01*
X53161Y-27060D01*
X53151Y-27060D01*
X53104Y-27040D01*
X53037Y-27040D01*
X52805Y-27040D01*
X52818Y-27028D01*
X52843Y-26966D01*
X52843Y-26899D01*
X52843Y-26663D01*
X52825Y-26617D01*
X52843Y-26572D01*
X52843Y-26269D01*
X52818Y-26207D01*
X52771Y-26160D01*
X52709Y-26134D01*
X52642Y-26134D01*
X52649Y-26134D01*
X52607Y-26176D01*
X52607Y-26371D01*
X52801Y-26371D01*
X52843Y-26328D01*
X52843Y-26269D01*
X52843Y-26572D01*
X52843Y-26513D01*
X52801Y-26471D01*
X52607Y-26471D01*
X52607Y-26478D01*
X52507Y-26478D01*
X52507Y-26471D01*
X52507Y-26371D01*
X52507Y-26176D01*
X52465Y-26134D01*
X52472Y-26134D01*
X52406Y-26134D01*
X52344Y-26160D01*
X52297Y-26207D01*
X52271Y-26269D01*
X52271Y-26328D01*
X52313Y-26371D01*
X52507Y-26371D01*
X52507Y-26471D01*
X52313Y-26471D01*
X52271Y-26513D01*
X52271Y-26572D01*
X52290Y-26617D01*
X52271Y-26663D01*
X52271Y-26729D01*
X52271Y-26801D01*
X52227Y-26783D01*
X52160Y-26783D01*
X51924Y-26783D01*
X51879Y-26802D01*
X51834Y-26783D01*
X51767Y-26783D01*
X51531Y-26783D01*
X51469Y-26808D01*
X51455Y-26822D01*
X51455Y-26527D01*
X51430Y-26465D01*
X51382Y-26418D01*
X51321Y-26392D01*
X51254Y-26392D01*
X51261Y-26392D01*
X51219Y-26434D01*
X51219Y-26629D01*
X51413Y-26629D01*
X51455Y-26586D01*
X51455Y-26527D01*
X51455Y-26822D01*
X51455Y-26822D01*
X51455Y-26771D01*
X51413Y-26729D01*
X51219Y-26729D01*
X51219Y-26736D01*
X51119Y-26736D01*
X51119Y-26729D01*
X51111Y-26729D01*
X51111Y-26629D01*
X51119Y-26629D01*
X51119Y-26434D01*
X51077Y-26392D01*
X51084Y-26392D01*
X51017Y-26392D01*
X50957Y-26417D01*
X50957Y-26416D01*
X50932Y-26355D01*
X50884Y-26307D01*
X50823Y-26282D01*
X50763Y-26282D01*
X50721Y-26324D01*
X50721Y-26518D01*
X50729Y-26518D01*
X50729Y-26618D01*
X50721Y-26618D01*
X50721Y-26626D01*
X50621Y-26626D01*
X50621Y-26618D01*
X50613Y-26618D01*
X50613Y-26518D01*
X50621Y-26518D01*
X50621Y-26324D01*
X50579Y-26282D01*
X50520Y-26282D01*
X50497Y-26291D01*
X50491Y-26279D01*
X50497Y-26263D01*
X50497Y-26126D01*
X50445Y-25999D01*
X50348Y-25901D01*
X50339Y-25898D01*
X50274Y-25688D01*
X50268Y-25678D01*
X50265Y-25666D01*
X50243Y-25632D01*
X50224Y-25597D01*
X50214Y-25589D01*
X50208Y-25579D01*
X50150Y-25522D01*
X50078Y-25474D01*
X50089Y-25448D01*
X50089Y-25389D01*
X50047Y-25347D01*
X49853Y-25347D01*
X49853Y-25355D01*
X49753Y-25355D01*
X49753Y-25347D01*
X49558Y-25347D01*
X49516Y-25389D01*
X49516Y-25448D01*
X49535Y-25494D01*
X49516Y-25539D01*
X49516Y-25606D01*
X49516Y-25819D01*
X49369Y-26409D01*
X49368Y-26442D01*
X49361Y-26474D01*
X49361Y-26601D01*
X49363Y-26610D01*
X49337Y-26610D01*
X49337Y-26509D01*
X49141Y-26509D01*
X49141Y-26517D01*
X49140Y-26517D01*
X49140Y-26401D01*
X49141Y-26401D01*
X49141Y-26409D01*
X49337Y-26409D01*
X49337Y-26248D01*
X49301Y-26166D01*
X49236Y-26105D01*
X49176Y-26083D01*
X49164Y-26096D01*
X49164Y-26075D01*
X49132Y-26075D01*
X49137Y-25979D01*
X49167Y-25979D01*
X49228Y-25953D01*
X49276Y-25906D01*
X49301Y-25844D01*
X49301Y-25777D01*
X49301Y-25541D01*
X49283Y-25495D01*
X49301Y-25450D01*
X49301Y-25391D01*
X49259Y-25349D01*
X49065Y-25349D01*
X49065Y-25356D01*
X48965Y-25356D01*
X48965Y-25349D01*
X48771Y-25349D01*
X48769Y-25350D01*
X48767Y-25349D01*
X48573Y-25349D01*
X48573Y-25356D01*
X48473Y-25356D01*
X48473Y-25349D01*
X48279Y-25349D01*
X48237Y-25391D01*
X48237Y-25450D01*
X48247Y-25476D01*
X48176Y-25523D01*
X48118Y-25581D01*
X48115Y-25585D01*
X48112Y-25588D01*
X48063Y-25640D01*
X48036Y-25640D01*
X47909Y-25693D01*
X47812Y-25790D01*
X47759Y-25917D01*
X47759Y-25965D01*
X47744Y-25927D01*
X47647Y-25830D01*
X47520Y-25777D01*
X47382Y-25777D01*
X47255Y-25830D01*
X47158Y-25927D01*
X47106Y-26053D01*
X47105Y-26191D01*
X47122Y-26230D01*
X46963Y-26225D01*
X46869Y-26131D01*
X46743Y-26079D01*
X46605Y-26079D01*
X46478Y-26131D01*
X46381Y-26228D01*
X46328Y-26355D01*
X46328Y-26492D01*
X46352Y-26551D01*
X46336Y-26551D01*
X46299Y-26559D01*
X46264Y-26565D01*
X46202Y-26589D01*
X46083Y-26540D01*
X45946Y-26539D01*
X45819Y-26592D01*
X45721Y-26689D01*
X45669Y-26816D01*
X45669Y-26953D01*
X45689Y-27003D01*
X43568Y-26877D01*
X43568Y-25662D01*
X43556Y-25478D01*
X43509Y-25366D01*
X43437Y-25334D01*
X43366Y-25405D01*
X43366Y-25264D01*
X43335Y-25192D01*
X43161Y-25133D01*
X42977Y-25145D01*
X42864Y-25192D01*
X42833Y-25264D01*
X43099Y-25531D01*
X43366Y-25264D01*
X43366Y-25405D01*
X43170Y-25601D01*
X43437Y-25868D01*
X43509Y-25837D01*
X43568Y-25662D01*
X43568Y-26877D01*
X43366Y-26865D01*
X43366Y-25939D01*
X43099Y-25672D01*
X43029Y-25743D01*
X43029Y-25601D01*
X42762Y-25334D01*
X42690Y-25366D01*
X42631Y-25540D01*
X42643Y-25724D01*
X42690Y-25837D01*
X42762Y-25868D01*
X43029Y-25601D01*
X43029Y-25743D01*
X42833Y-25939D01*
X42864Y-26011D01*
X43038Y-26070D01*
X43222Y-26058D01*
X43335Y-26011D01*
X43366Y-25939D01*
X43366Y-26865D01*
X42563Y-26817D01*
X42563Y-25863D01*
X42563Y-25273D01*
X42537Y-25211D01*
X42490Y-25164D01*
X42428Y-25138D01*
X42361Y-25138D01*
X41771Y-25138D01*
X41709Y-25163D01*
X41662Y-25211D01*
X41636Y-25272D01*
X41636Y-25339D01*
X41636Y-25930D01*
X41662Y-25992D01*
X41709Y-26039D01*
X41771Y-26065D01*
X41837Y-26065D01*
X42428Y-26065D01*
X42490Y-26039D01*
X42537Y-25992D01*
X42563Y-25930D01*
X42563Y-25863D01*
X42563Y-26817D01*
X41946Y-26780D01*
X41478Y-25791D01*
X41451Y-25755D01*
X41426Y-25717D01*
X41195Y-25486D01*
X41194Y-25486D01*
X41194Y-25485D01*
X40828Y-25125D01*
X48246Y-25125D01*
X48237Y-25147D01*
X48237Y-25207D01*
X48279Y-25249D01*
X48473Y-25249D01*
X48473Y-25241D01*
X48573Y-25241D01*
X48573Y-25249D01*
X48767Y-25249D01*
X48769Y-25247D01*
X48771Y-25249D01*
X48965Y-25249D01*
X48965Y-25241D01*
X49065Y-25241D01*
X49065Y-25249D01*
X49259Y-25249D01*
X49301Y-25207D01*
X49301Y-25147D01*
X49292Y-25125D01*
X49525Y-25125D01*
X49516Y-25145D01*
X49516Y-25205D01*
X49558Y-25247D01*
X49753Y-25247D01*
X49753Y-25239D01*
X49853Y-25239D01*
X49853Y-25247D01*
X50047Y-25247D01*
X50089Y-25205D01*
X50089Y-25145D01*
X50080Y-25125D01*
X54054Y-25125D01*
X54048Y-25140D01*
X54048Y-25278D01*
X54100Y-25405D01*
X54197Y-25502D01*
X54324Y-25555D01*
X54461Y-25555D01*
X54588Y-25502D01*
X54683Y-25407D01*
X55230Y-25389D01*
X55230Y-25406D01*
X55255Y-25468D01*
X55302Y-25515D01*
X55364Y-25541D01*
X55431Y-25541D01*
X55667Y-25541D01*
X55713Y-25522D01*
X55758Y-25541D01*
X55825Y-25541D01*
X55847Y-25541D01*
X55865Y-25559D01*
X55876Y-25566D01*
X55885Y-25576D01*
X56165Y-25793D01*
X56199Y-25810D01*
X56228Y-25826D01*
X56849Y-26027D01*
X56969Y-26147D01*
X57029Y-26395D01*
X57036Y-26409D01*
X57039Y-26425D01*
X57053Y-26446D01*
X57064Y-26468D01*
X57075Y-26479D01*
X57084Y-26492D01*
X57269Y-26677D01*
X57269Y-26677D01*
X57314Y-26707D01*
X57337Y-26722D01*
X57337Y-26722D01*
X57416Y-26738D01*
X57416Y-26738D01*
X57626Y-26738D01*
X57724Y-26837D01*
X57829Y-27058D01*
X57847Y-27083D01*
X57869Y-27116D01*
X58065Y-27313D01*
X58094Y-27331D01*
X58121Y-27352D01*
X58464Y-27520D01*
X58571Y-27627D01*
X58571Y-27837D01*
X58587Y-27917D01*
X58631Y-27984D01*
X58719Y-28072D01*
X58719Y-28072D01*
G37*
G54D41*
X58719Y-28072D02*
X53809Y-28093D01*
X53809Y-27919D01*
X53809Y-27919D01*
X53809Y-27911D01*
X53805Y-27887D01*
X53805Y-27865D01*
X53734Y-27462D01*
X53734Y-27444D01*
X53734Y-27444D01*
X53734Y-27411D01*
X53734Y-27175D01*
X53715Y-27129D01*
X53734Y-27084D01*
X53734Y-26781D01*
X53708Y-26719D01*
X53661Y-26672D01*
X53599Y-26646D01*
X53533Y-26646D01*
X53540Y-26646D01*
X53498Y-26688D01*
X53498Y-26882D01*
X53692Y-26882D01*
X53734Y-26840D01*
X53734Y-26781D01*
X53734Y-27084D01*
X53734Y-27025D01*
X53692Y-26982D01*
X53498Y-26982D01*
X53498Y-26990D01*
X53398Y-26990D01*
X53398Y-26982D01*
X53398Y-26882D01*
X53398Y-26688D01*
X53356Y-26646D01*
X53363Y-26646D01*
X53296Y-26646D01*
X53234Y-26672D01*
X53187Y-26719D01*
X53161Y-26781D01*
X53161Y-26840D01*
X53203Y-26882D01*
X53398Y-26882D01*
X53398Y-26982D01*
X53203Y-26982D01*
X53161Y-27025D01*
X53161Y-27060D01*
X53151Y-27060D01*
X53104Y-27040D01*
X53037Y-27040D01*
X52805Y-27040D01*
X52818Y-27028D01*
X52843Y-26966D01*
X52843Y-26899D01*
X52843Y-26663D01*
X52825Y-26617D01*
X52843Y-26572D01*
X52843Y-26269D01*
X52818Y-26207D01*
X52771Y-26160D01*
X52709Y-26134D01*
X52642Y-26134D01*
X52649Y-26134D01*
X52607Y-26176D01*
X52607Y-26371D01*
X52801Y-26371D01*
X52843Y-26328D01*
X52843Y-26269D01*
X52843Y-26572D01*
X52843Y-26513D01*
X52801Y-26471D01*
X52607Y-26471D01*
X52607Y-26478D01*
X52507Y-26478D01*
X52507Y-26471D01*
X52507Y-26371D01*
X52507Y-26176D01*
X52465Y-26134D01*
X52472Y-26134D01*
X52406Y-26134D01*
X52344Y-26160D01*
X52297Y-26207D01*
X52271Y-26269D01*
X52271Y-26328D01*
X52313Y-26371D01*
X52507Y-26371D01*
X52507Y-26471D01*
X52313Y-26471D01*
X52271Y-26513D01*
X52271Y-26572D01*
X52290Y-26617D01*
X52271Y-26663D01*
X52271Y-26729D01*
X52271Y-26801D01*
X52227Y-26783D01*
X52160Y-26783D01*
X51924Y-26783D01*
X51879Y-26802D01*
X51834Y-26783D01*
X51767Y-26783D01*
X51531Y-26783D01*
X51469Y-26808D01*
X51455Y-26822D01*
X51455Y-26527D01*
X51430Y-26465D01*
X51382Y-26418D01*
X51321Y-26392D01*
X51254Y-26392D01*
X51261Y-26392D01*
X51219Y-26434D01*
X51219Y-26629D01*
X51413Y-26629D01*
X51455Y-26586D01*
X51455Y-26527D01*
X51455Y-26822D01*
X51455Y-26822D01*
X51455Y-26771D01*
X51413Y-26729D01*
X51219Y-26729D01*
X51219Y-26736D01*
X51119Y-26736D01*
X51119Y-26729D01*
X51111Y-26729D01*
X51111Y-26629D01*
X51119Y-26629D01*
X51119Y-26434D01*
X51077Y-26392D01*
X51084Y-26392D01*
X51017Y-26392D01*
X50957Y-26417D01*
X50957Y-26416D01*
X50932Y-26355D01*
X50884Y-26307D01*
X50823Y-26282D01*
X50763Y-26282D01*
X50721Y-26324D01*
X50721Y-26518D01*
X50729Y-26518D01*
X50729Y-26618D01*
X50721Y-26618D01*
X50721Y-26626D01*
X50621Y-26626D01*
X50621Y-26618D01*
X50613Y-26618D01*
X50613Y-26518D01*
X50621Y-26518D01*
X50621Y-26324D01*
X50579Y-26282D01*
X50520Y-26282D01*
X50497Y-26291D01*
X50491Y-26279D01*
X50497Y-26263D01*
X50497Y-26126D01*
X50445Y-25999D01*
X50348Y-25901D01*
X50339Y-25898D01*
X50274Y-25688D01*
X50268Y-25678D01*
X50265Y-25666D01*
X50243Y-25632D01*
X50224Y-25597D01*
X50214Y-25589D01*
X50208Y-25579D01*
X50150Y-25522D01*
X50078Y-25474D01*
X50089Y-25448D01*
X50089Y-25389D01*
X50047Y-25347D01*
X49853Y-25347D01*
X49853Y-25355D01*
X49753Y-25355D01*
X49753Y-25347D01*
X49558Y-25347D01*
X49516Y-25389D01*
X49516Y-25448D01*
X49535Y-25494D01*
X49516Y-25539D01*
X49516Y-25606D01*
X49516Y-25819D01*
X49369Y-26409D01*
X49368Y-26442D01*
X49361Y-26474D01*
X49361Y-26601D01*
X49363Y-26610D01*
X49337Y-26610D01*
X49337Y-26509D01*
X49141Y-26509D01*
X49141Y-26517D01*
X49140Y-26517D01*
X49140Y-26401D01*
X49141Y-26401D01*
X49141Y-26409D01*
X49337Y-26409D01*
X49337Y-26248D01*
X49301Y-26166D01*
X49236Y-26105D01*
X49176Y-26083D01*
X49164Y-26096D01*
X49164Y-26075D01*
X49132Y-26075D01*
X49137Y-25979D01*
X49167Y-25979D01*
X49228Y-25953D01*
X49276Y-25906D01*
X49301Y-25844D01*
X49301Y-25777D01*
X49301Y-25541D01*
X49283Y-25495D01*
X49301Y-25450D01*
X49301Y-25391D01*
X49259Y-25349D01*
X49065Y-25349D01*
X49065Y-25356D01*
X48965Y-25356D01*
X48965Y-25349D01*
X48771Y-25349D01*
X48769Y-25350D01*
X48767Y-25349D01*
X48573Y-25349D01*
X48573Y-25356D01*
X48473Y-25356D01*
X48473Y-25349D01*
X48279Y-25349D01*
X48237Y-25391D01*
X48237Y-25450D01*
X48247Y-25476D01*
X48176Y-25523D01*
X48118Y-25581D01*
X48115Y-25585D01*
X48112Y-25588D01*
X48063Y-25640D01*
X48036Y-25640D01*
X47909Y-25693D01*
X47812Y-25790D01*
X47759Y-25917D01*
X47759Y-25965D01*
X47744Y-25927D01*
X47647Y-25830D01*
X47520Y-25777D01*
X47382Y-25777D01*
X47255Y-25830D01*
X47158Y-25927D01*
X47106Y-26053D01*
X47105Y-26191D01*
X47122Y-26230D01*
X46963Y-26225D01*
X46869Y-26131D01*
X46743Y-26079D01*
X46605Y-26079D01*
X46478Y-26131D01*
X46381Y-26228D01*
X46328Y-26355D01*
X46328Y-26492D01*
X46352Y-26551D01*
X46336Y-26551D01*
X46299Y-26559D01*
X46264Y-26565D01*
X46202Y-26589D01*
X46083Y-26540D01*
X45946Y-26539D01*
X45819Y-26592D01*
X45721Y-26689D01*
X45669Y-26816D01*
X45669Y-26953D01*
X45689Y-27003D01*
X43568Y-26877D01*
X43568Y-25662D01*
X43556Y-25478D01*
X43509Y-25366D01*
X43437Y-25334D01*
X43366Y-25405D01*
X43366Y-25264D01*
X43335Y-25192D01*
X43161Y-25133D01*
X42977Y-25145D01*
X42864Y-25192D01*
X42833Y-25264D01*
X43099Y-25531D01*
X43366Y-25264D01*
X43366Y-25405D01*
X43170Y-25601D01*
X43437Y-25868D01*
X43509Y-25837D01*
X43568Y-25662D01*
X43568Y-26877D01*
X43366Y-26865D01*
X43366Y-25939D01*
X43099Y-25672D01*
X43029Y-25743D01*
X43029Y-25601D01*
X42762Y-25334D01*
X42690Y-25366D01*
X42631Y-25540D01*
X42643Y-25724D01*
X42690Y-25837D01*
X42762Y-25868D01*
X43029Y-25601D01*
X43029Y-25743D01*
X42833Y-25939D01*
X42864Y-26011D01*
X43038Y-26070D01*
X43222Y-26058D01*
X43335Y-26011D01*
X43366Y-25939D01*
X43366Y-26865D01*
X42563Y-26817D01*
X42563Y-25863D01*
X42563Y-25273D01*
X42537Y-25211D01*
X42490Y-25164D01*
X42428Y-25138D01*
X42361Y-25138D01*
X41771Y-25138D01*
X41709Y-25163D01*
X41662Y-25211D01*
X41636Y-25272D01*
X41636Y-25339D01*
X41636Y-25930D01*
X41662Y-25992D01*
X41709Y-26039D01*
X41771Y-26065D01*
X41837Y-26065D01*
X42428Y-26065D01*
X42490Y-26039D01*
X42537Y-25992D01*
X42563Y-25930D01*
X42563Y-25863D01*
X42563Y-26817D01*
X41946Y-26780D01*
X41478Y-25791D01*
X41451Y-25755D01*
X41426Y-25717D01*
X41195Y-25486D01*
X41194Y-25486D01*
X41194Y-25485D01*
X40828Y-25125D01*
X48246Y-25125D01*
X48237Y-25147D01*
X48237Y-25207D01*
X48279Y-25249D01*
X48473Y-25249D01*
X48473Y-25241D01*
X48573Y-25241D01*
X48573Y-25249D01*
X48767Y-25249D01*
X48769Y-25247D01*
X48771Y-25249D01*
X48965Y-25249D01*
X48965Y-25241D01*
X49065Y-25241D01*
X49065Y-25249D01*
X49259Y-25249D01*
X49301Y-25207D01*
X49301Y-25147D01*
X49292Y-25125D01*
X49525Y-25125D01*
X49516Y-25145D01*
X49516Y-25205D01*
X49558Y-25247D01*
X49753Y-25247D01*
X49753Y-25239D01*
X49853Y-25239D01*
X49853Y-25247D01*
X50047Y-25247D01*
X50089Y-25205D01*
X50089Y-25145D01*
X50080Y-25125D01*
X54054Y-25125D01*
X54048Y-25140D01*
X54048Y-25278D01*
X54100Y-25405D01*
X54197Y-25502D01*
X54324Y-25555D01*
X54461Y-25555D01*
X54588Y-25502D01*
X54683Y-25407D01*
X55230Y-25389D01*
X55230Y-25406D01*
X55255Y-25468D01*
X55302Y-25515D01*
X55364Y-25541D01*
X55431Y-25541D01*
X55667Y-25541D01*
X55713Y-25522D01*
X55758Y-25541D01*
X55825Y-25541D01*
X55847Y-25541D01*
X55865Y-25559D01*
X55876Y-25566D01*
X55885Y-25576D01*
X56165Y-25793D01*
X56199Y-25810D01*
X56228Y-25826D01*
X56849Y-26027D01*
X56969Y-26147D01*
X57029Y-26395D01*
X57036Y-26409D01*
X57039Y-26425D01*
X57053Y-26446D01*
X57064Y-26468D01*
X57075Y-26479D01*
X57084Y-26492D01*
X57269Y-26677D01*
X57269Y-26677D01*
X57314Y-26707D01*
X57337Y-26722D01*
X57337Y-26722D01*
X57416Y-26738D01*
X57416Y-26738D01*
X57626Y-26738D01*
X57724Y-26837D01*
X57829Y-27058D01*
X57847Y-27083D01*
X57869Y-27116D01*
X58065Y-27313D01*
X58094Y-27331D01*
X58121Y-27352D01*
X58464Y-27520D01*
X58571Y-27627D01*
X58571Y-27837D01*
X58587Y-27917D01*
X58631Y-27984D01*
X58719Y-28072D01*
G54D10*
G36*
X59888Y-26514D02*
X59752Y-26378D01*
X59685Y-26333D01*
X59605Y-26317D01*
X59168Y-26317D01*
X58459Y-25705D01*
X58440Y-25695D01*
X58425Y-25682D01*
X58411Y-25674D01*
X58503Y-25582D01*
X58515Y-25553D01*
X58536Y-25550D01*
X58536Y-25550D01*
X58536Y-25550D01*
X58570Y-25550D01*
X58806Y-25550D01*
X58851Y-25532D01*
X58897Y-25550D01*
X58963Y-25550D01*
X59112Y-25550D01*
X59888Y-26148D01*
X59888Y-26514D01*
X59888Y-26514D01*
G37*
G54D41*
X59888Y-26514D02*
X59752Y-26378D01*
X59685Y-26333D01*
X59605Y-26317D01*
X59168Y-26317D01*
X58459Y-25705D01*
X58440Y-25695D01*
X58425Y-25682D01*
X58411Y-25674D01*
X58503Y-25582D01*
X58515Y-25553D01*
X58536Y-25550D01*
X58536Y-25550D01*
X58536Y-25550D01*
X58570Y-25550D01*
X58806Y-25550D01*
X58851Y-25532D01*
X58897Y-25550D01*
X58963Y-25550D01*
X59112Y-25550D01*
X59888Y-26148D01*
X59888Y-26514D01*
G54D10*
G36*
X59888Y-28067D02*
X59611Y-28068D01*
X59087Y-27853D01*
X58986Y-27751D01*
X58986Y-27541D01*
X58986Y-27541D01*
X58970Y-27462D01*
X58925Y-27395D01*
X58733Y-27203D01*
X58707Y-27185D01*
X58678Y-27163D01*
X58334Y-26995D01*
X58189Y-26849D01*
X58084Y-26627D01*
X58063Y-26599D01*
X58043Y-26569D01*
X57858Y-26384D01*
X57791Y-26339D01*
X57712Y-26323D01*
X57502Y-26323D01*
X57419Y-26240D01*
X57358Y-25992D01*
X57352Y-25977D01*
X57348Y-25962D01*
X57335Y-25941D01*
X57324Y-25918D01*
X57312Y-25908D01*
X57303Y-25894D01*
X57107Y-25698D01*
X57101Y-25694D01*
X57095Y-25687D01*
X57065Y-25670D01*
X57040Y-25653D01*
X57033Y-25652D01*
X57025Y-25647D01*
X56678Y-25535D01*
X56711Y-25501D01*
X56871Y-25501D01*
X56884Y-25514D01*
X56946Y-25540D01*
X57013Y-25540D01*
X57249Y-25540D01*
X57294Y-25521D01*
X57340Y-25540D01*
X57406Y-25540D01*
X57428Y-25540D01*
X57446Y-25558D01*
X57465Y-25570D01*
X57480Y-25586D01*
X57959Y-25895D01*
X57966Y-25898D01*
X57970Y-25902D01*
X58203Y-26033D01*
X58955Y-26682D01*
X58990Y-26702D01*
X59012Y-26717D01*
X59018Y-26718D01*
X59026Y-26722D01*
X59064Y-26727D01*
X59091Y-26732D01*
X59519Y-26732D01*
X59616Y-26829D01*
X59825Y-27341D01*
X59825Y-27343D01*
X59870Y-27411D01*
X59888Y-27428D01*
X59888Y-28067D01*
X59888Y-28067D01*
G37*
G54D41*
X59888Y-28067D02*
X59611Y-28068D01*
X59087Y-27853D01*
X58986Y-27751D01*
X58986Y-27541D01*
X58986Y-27541D01*
X58970Y-27462D01*
X58925Y-27395D01*
X58733Y-27203D01*
X58707Y-27185D01*
X58678Y-27163D01*
X58334Y-26995D01*
X58189Y-26849D01*
X58084Y-26627D01*
X58063Y-26599D01*
X58043Y-26569D01*
X57858Y-26384D01*
X57791Y-26339D01*
X57712Y-26323D01*
X57502Y-26323D01*
X57419Y-26240D01*
X57358Y-25992D01*
X57352Y-25977D01*
X57348Y-25962D01*
X57335Y-25941D01*
X57324Y-25918D01*
X57312Y-25908D01*
X57303Y-25894D01*
X57107Y-25698D01*
X57101Y-25694D01*
X57095Y-25687D01*
X57065Y-25670D01*
X57040Y-25653D01*
X57033Y-25652D01*
X57025Y-25647D01*
X56678Y-25535D01*
X56711Y-25501D01*
X56871Y-25501D01*
X56884Y-25514D01*
X56946Y-25540D01*
X57013Y-25540D01*
X57249Y-25540D01*
X57294Y-25521D01*
X57340Y-25540D01*
X57406Y-25540D01*
X57428Y-25540D01*
X57446Y-25558D01*
X57465Y-25570D01*
X57480Y-25586D01*
X57959Y-25895D01*
X57966Y-25898D01*
X57970Y-25902D01*
X58203Y-26033D01*
X58955Y-26682D01*
X58990Y-26702D01*
X59012Y-26717D01*
X59018Y-26718D01*
X59026Y-26722D01*
X59064Y-26727D01*
X59091Y-26732D01*
X59519Y-26732D01*
X59616Y-26829D01*
X59825Y-27341D01*
X59825Y-27343D01*
X59870Y-27411D01*
X59888Y-27428D01*
X59888Y-28067D01*
M02*
