G04 (created by PCBNEW (2013-07-07 BZR 4022)-stable) date 3/28/2015 11:51:11 PM*
%MOIN*%
G04 Gerber Fmt 3.4, Leading zero omitted, Abs format*
%FSLAX34Y34*%
G01*
G70*
G90*
G04 APERTURE LIST*
%ADD10C,0.00590551*%
%ADD11C,0.047274*%
%ADD12R,0.037874X0.027874*%
%ADD13R,0.0314961X0.0314961*%
%ADD14R,0.0511811X0.0188976*%
%ADD15O,0.0511811X0.0188976*%
%ADD16O,0.0188976X0.0511811*%
%ADD17R,0.0511811X0.0511811*%
%ADD18C,0.019674*%
%ADD19R,0.066974X0.133874*%
%ADD20R,0.047274X0.047274*%
%ADD21R,0.0629921X0.0472441*%
%ADD22R,0.125984X0.0866142*%
%ADD23R,0.0669291X0.0669291*%
%ADD24C,0.0669291*%
%ADD25R,0.062874X0.052874*%
%ADD26R,0.125984X0.125984*%
%ADD27C,0.125984*%
%ADD28R,0.070874X0.055074*%
%ADD29R,0.0708661X0.0511811*%
G04 APERTURE END LIST*
G54D10*
G54D11*
X42011Y-29625D03*
X36134Y-29093D03*
G54D12*
X28175Y-27389D03*
X28175Y-26639D03*
X27175Y-27389D03*
X28175Y-27014D03*
X27175Y-26639D03*
G54D13*
X25000Y-27952D03*
X25393Y-27952D03*
X25000Y-27263D03*
X25393Y-27263D03*
X27794Y-29683D03*
X28188Y-29683D03*
X23958Y-26103D03*
X23958Y-25709D03*
X58655Y-25264D03*
X59048Y-25264D03*
X55516Y-25255D03*
X55910Y-25255D03*
X57098Y-25254D03*
X57491Y-25254D03*
X49015Y-25692D03*
X49015Y-25299D03*
G54D14*
X47952Y-26833D03*
G54D15*
X47952Y-27030D03*
X47952Y-27227D03*
X47952Y-27424D03*
X47952Y-27621D03*
G54D16*
X48326Y-27995D03*
X48523Y-27995D03*
X48720Y-27995D03*
X48917Y-27995D03*
X49114Y-27995D03*
G54D15*
X49488Y-27621D03*
X49488Y-27424D03*
X49488Y-27227D03*
X49488Y-27030D03*
X49488Y-26833D03*
G54D16*
X49114Y-26459D03*
X48917Y-26459D03*
X48720Y-26459D03*
X48523Y-26459D03*
X48326Y-26459D03*
G54D17*
X48503Y-27010D03*
X48937Y-27010D03*
X48503Y-27443D03*
X48937Y-27443D03*
G54D10*
G36*
X36490Y-28621D02*
X36351Y-28482D01*
X36740Y-28093D01*
X36880Y-28232D01*
X36490Y-28621D01*
X36490Y-28621D01*
G37*
G54D18*
X36629Y-28621D02*
X36879Y-28370D01*
X36768Y-28760D02*
X37018Y-28510D01*
X36907Y-28899D02*
X37158Y-28649D01*
X37047Y-29039D02*
X37297Y-28788D01*
X37186Y-29178D02*
X37436Y-28928D01*
X37325Y-29317D02*
X37575Y-29067D01*
X37464Y-29456D02*
X37715Y-29206D01*
X37603Y-29595D02*
X37853Y-29345D01*
X37742Y-29734D02*
X37993Y-29484D01*
X37882Y-29874D02*
X38132Y-29623D01*
X38020Y-30014D02*
X38271Y-29763D01*
X39108Y-30012D02*
X38857Y-29762D01*
X39246Y-29874D02*
X38996Y-29623D01*
X39386Y-29734D02*
X39135Y-29484D01*
X39525Y-29595D02*
X39275Y-29345D01*
X39664Y-29456D02*
X39414Y-29205D01*
X39804Y-29316D02*
X39553Y-29066D01*
X39943Y-29177D02*
X39693Y-28927D01*
X40081Y-29039D02*
X39831Y-28788D01*
X40221Y-28899D02*
X39970Y-28649D01*
X40360Y-28760D02*
X40110Y-28510D01*
X40499Y-28621D02*
X40248Y-28371D01*
X40638Y-28482D02*
X40388Y-28232D01*
X40388Y-27647D02*
X40639Y-27397D01*
X40249Y-27508D02*
X40499Y-27257D01*
X40110Y-27368D02*
X40360Y-27118D01*
X39970Y-27229D02*
X40221Y-26979D01*
X39831Y-27090D02*
X40081Y-26839D01*
X39692Y-26950D02*
X39942Y-26700D01*
X39553Y-26811D02*
X39803Y-26561D01*
X39414Y-26673D02*
X39664Y-26422D01*
X39275Y-26533D02*
X39525Y-26283D01*
X39135Y-26394D02*
X39386Y-26144D01*
X38996Y-26255D02*
X39246Y-26004D01*
X38857Y-26115D02*
X39107Y-25865D01*
X38272Y-26116D02*
X38022Y-25866D01*
X38133Y-26255D02*
X37882Y-26005D01*
X37993Y-26395D02*
X37743Y-26144D01*
X37854Y-26534D02*
X37604Y-26284D01*
X37715Y-26673D02*
X37464Y-26423D01*
X37575Y-26813D02*
X37325Y-26562D01*
X37437Y-26951D02*
X37187Y-26701D01*
X37298Y-27091D02*
X37047Y-26840D01*
X37158Y-27230D02*
X36908Y-26979D01*
X37019Y-27369D02*
X36769Y-27119D01*
X36880Y-27508D02*
X36629Y-27258D01*
X36740Y-27648D02*
X36490Y-27397D01*
G54D19*
X26476Y-29232D03*
X25098Y-29232D03*
G54D13*
X52076Y-27069D03*
X51682Y-27069D03*
X51178Y-27962D03*
X51178Y-27569D03*
X52952Y-27326D03*
X52559Y-27326D03*
G54D20*
X28187Y-27998D03*
X27163Y-27998D03*
G54D21*
X48505Y-29954D03*
X49371Y-29954D03*
X49371Y-29324D03*
X48505Y-29324D03*
G54D22*
X60647Y-26460D03*
X60647Y-27641D03*
X60647Y-28822D03*
G54D23*
X35161Y-25521D03*
G54D24*
X34161Y-25521D03*
X33161Y-25521D03*
X32161Y-25521D03*
G54D23*
X42099Y-25601D03*
G54D24*
X43099Y-25601D03*
G54D25*
X22770Y-28204D03*
X22770Y-27404D03*
X30037Y-27303D03*
X30037Y-28103D03*
G54D13*
X53448Y-27326D03*
X53448Y-26932D03*
X52557Y-26814D03*
X52557Y-26421D03*
X21746Y-27993D03*
X21746Y-27599D03*
X40023Y-25632D03*
X40416Y-25632D03*
X50277Y-27570D03*
X50671Y-27570D03*
X29053Y-27309D03*
X29053Y-27703D03*
X35708Y-28368D03*
X35314Y-28368D03*
X35708Y-27696D03*
X35314Y-27696D03*
X36387Y-29804D03*
X35994Y-29804D03*
X48523Y-25692D03*
X48523Y-25299D03*
X50277Y-26568D03*
X50671Y-26568D03*
X49803Y-25690D03*
X49803Y-25297D03*
X48898Y-28734D03*
X49291Y-28734D03*
X47047Y-27997D03*
X46653Y-27997D03*
X47047Y-27349D03*
X46653Y-27349D03*
X51680Y-27569D03*
X52074Y-27569D03*
X50192Y-29422D03*
X50192Y-29816D03*
X47757Y-29836D03*
X47757Y-29442D03*
X41262Y-27900D03*
X41655Y-27900D03*
X50277Y-28056D03*
X50671Y-28056D03*
X50277Y-27072D03*
X50671Y-27072D03*
X51169Y-27072D03*
X51169Y-26679D03*
G54D26*
X15212Y-27669D03*
G54D27*
X15207Y-25814D03*
G54D28*
X19594Y-26887D03*
X19594Y-28667D03*
X16554Y-26887D03*
X16554Y-28667D03*
G54D29*
X65685Y-27054D03*
X65685Y-27684D03*
X65685Y-28314D03*
X63717Y-27054D03*
X63717Y-27684D03*
X63717Y-28314D03*
M02*
