G04 (created by PCBNEW (2013-07-07 BZR 4022)-stable) date 3/28/2015 11:51:11 PM*
%MOIN*%
G04 Gerber Fmt 3.4, Leading zero omitted, Abs format*
%FSLAX34Y34*%
G01*
G70*
G90*
G04 APERTURE LIST*
%ADD10C,0.00590551*%
%ADD11R,0.0433071X0.0433071*%
%ADD12R,0.11811X0.0787402*%
%ADD13R,0.0590551X0.0590551*%
%ADD14C,0.0590551*%
%ADD15R,0.11811X0.11811*%
%ADD16C,0.11811*%
%ADD17R,0.063X0.0472*%
%ADD18C,0.0354331*%
%ADD19C,0.019685*%
%ADD20C,0.00787402*%
%ADD21C,0.01*%
G04 APERTURE END LIST*
G54D10*
G54D11*
X48503Y-27010D03*
X48937Y-27010D03*
X48503Y-27443D03*
X48937Y-27443D03*
G54D12*
X63884Y-26473D03*
X63884Y-27654D03*
X63884Y-28835D03*
X65469Y-26463D03*
X65469Y-27644D03*
X65469Y-28826D03*
X60638Y-26460D03*
X60638Y-27641D03*
X60638Y-28822D03*
G54D13*
X35161Y-25521D03*
G54D14*
X34161Y-25521D03*
X33161Y-25521D03*
X32161Y-25521D03*
G54D13*
X42099Y-25601D03*
G54D14*
X43099Y-25601D03*
G54D15*
X15212Y-27669D03*
G54D16*
X15207Y-25814D03*
G54D17*
X20542Y-26887D03*
X20542Y-28667D03*
X23582Y-26887D03*
X23582Y-28667D03*
X24526Y-26887D03*
X24526Y-28667D03*
X27566Y-26887D03*
X27566Y-28667D03*
G54D18*
X48105Y-25986D03*
X50152Y-26194D03*
X49658Y-28164D03*
X48524Y-28835D03*
X47078Y-26975D03*
X24715Y-27578D03*
X35809Y-27013D03*
X37481Y-27459D03*
X28041Y-29183D03*
X43922Y-28160D03*
X46014Y-26885D03*
X42930Y-28124D03*
X47451Y-26122D03*
X42244Y-29112D03*
X46674Y-26424D03*
X54393Y-25209D03*
X39589Y-27349D03*
X39923Y-27683D03*
X56431Y-25294D03*
X42344Y-28091D03*
X58211Y-25386D03*
X37515Y-25864D03*
X38590Y-26491D03*
X20068Y-27326D03*
X37093Y-27796D03*
X24736Y-26395D03*
X46968Y-29606D03*
X46062Y-29685D03*
X44685Y-29881D03*
X43267Y-28937D03*
X44448Y-28582D03*
X45236Y-28031D03*
X46062Y-27952D03*
X25931Y-26469D03*
X26769Y-26644D03*
X28929Y-28077D03*
X32878Y-26851D03*
X33667Y-27542D03*
X34391Y-28193D03*
X34940Y-27725D03*
X36281Y-27103D03*
X39803Y-26088D03*
X39980Y-28155D03*
X37930Y-28943D03*
X46587Y-28371D03*
X47736Y-29068D03*
X50625Y-26194D03*
X50332Y-28781D03*
X49666Y-28837D03*
X52780Y-27700D03*
X53074Y-26949D03*
X51170Y-28483D03*
X51170Y-26161D03*
X52561Y-25957D03*
X53451Y-26424D03*
X54054Y-26880D03*
X54730Y-26895D03*
X55471Y-26903D03*
X55477Y-26180D03*
X56132Y-26180D03*
X56822Y-26180D03*
X58184Y-26197D03*
X59224Y-26206D03*
X56117Y-26895D03*
X56851Y-26866D03*
X57581Y-26846D03*
X58351Y-26831D03*
X59473Y-26844D03*
X54723Y-27694D03*
X55484Y-27683D03*
X56160Y-27689D03*
X56900Y-27687D03*
X57705Y-27679D03*
X58451Y-27677D03*
X59106Y-27702D03*
X58923Y-26827D03*
X54050Y-27686D03*
X51853Y-27970D03*
X51871Y-26634D03*
X54150Y-26215D03*
X54866Y-26188D03*
X57547Y-26215D03*
X64649Y-28254D03*
X66355Y-27582D03*
X66315Y-28676D03*
X63101Y-28217D03*
X63101Y-27036D03*
X40844Y-26068D03*
X66256Y-28203D03*
G54D19*
X48524Y-28835D02*
X49658Y-28164D01*
X47844Y-26286D02*
X48105Y-25986D01*
X47614Y-26516D02*
X47844Y-26286D01*
X47078Y-26975D02*
X47614Y-26516D01*
X47078Y-26975D02*
X48524Y-28835D01*
X48105Y-25986D02*
X50152Y-26194D01*
G54D20*
X20818Y-28667D02*
X20542Y-28667D01*
X20857Y-28667D02*
X20818Y-28667D01*
X23267Y-28667D02*
X20857Y-28667D01*
X23306Y-28667D02*
X23267Y-28667D01*
X23582Y-28667D02*
X23306Y-28667D01*
X28790Y-28411D02*
X24715Y-27578D01*
X29067Y-28411D02*
X28790Y-28411D01*
X33529Y-27207D02*
X29067Y-28411D01*
X35809Y-27013D02*
X33529Y-27207D01*
X23858Y-28470D02*
X23582Y-28667D01*
X23858Y-28431D02*
X23858Y-28470D01*
X23858Y-28415D02*
X23858Y-28431D01*
X23881Y-28392D02*
X23858Y-28415D01*
X24715Y-27578D02*
X23881Y-28392D01*
X27842Y-28864D02*
X27566Y-28667D01*
X27842Y-28903D02*
X27842Y-28864D01*
X27842Y-28919D02*
X27842Y-28903D01*
X28041Y-29183D02*
X27842Y-28919D01*
X27291Y-28667D02*
X27566Y-28667D01*
X27251Y-28667D02*
X27291Y-28667D01*
X24841Y-28667D02*
X27251Y-28667D01*
X24802Y-28667D02*
X24841Y-28667D01*
X24526Y-28667D02*
X24802Y-28667D01*
X34530Y-28528D02*
X28041Y-29183D01*
X37232Y-28131D02*
X34530Y-28528D01*
X37428Y-27935D02*
X37232Y-28131D01*
X37481Y-27459D02*
X37428Y-27935D01*
X43922Y-28160D02*
X46014Y-26885D01*
X45794Y-26353D02*
X46535Y-26089D01*
X43696Y-27634D02*
X45794Y-26353D01*
X42930Y-28124D02*
X43696Y-27634D01*
X46812Y-26089D02*
X47451Y-26122D01*
X46535Y-26089D02*
X46812Y-26089D01*
X43069Y-28459D02*
X42244Y-29112D01*
X43783Y-27825D02*
X43069Y-28459D01*
X45875Y-26550D02*
X43783Y-27825D01*
X46674Y-26424D02*
X45875Y-26550D01*
X46298Y-25499D02*
X39589Y-27349D01*
X46383Y-25499D02*
X46298Y-25499D01*
X47853Y-25257D02*
X46383Y-25499D01*
X54393Y-25209D02*
X47853Y-25257D01*
X46380Y-25695D02*
X46422Y-25695D01*
X39923Y-27683D02*
X46380Y-25695D01*
X47892Y-25454D02*
X46422Y-25695D01*
X48317Y-25454D02*
X47892Y-25454D01*
X54254Y-25500D02*
X48317Y-25454D01*
X54543Y-25542D02*
X54254Y-25500D01*
X56431Y-25294D02*
X54543Y-25542D01*
X46453Y-25892D02*
X46461Y-25892D01*
X45712Y-26156D02*
X46453Y-25892D01*
X42792Y-27790D02*
X45712Y-26156D01*
X42344Y-28091D02*
X42792Y-27790D01*
X56569Y-25629D02*
X58211Y-25386D01*
X54606Y-25697D02*
X56569Y-25629D01*
X54180Y-25654D02*
X54606Y-25697D01*
X48243Y-25607D02*
X54180Y-25654D01*
X47966Y-25651D02*
X48243Y-25607D01*
X46461Y-25892D02*
X47966Y-25651D01*
X34800Y-25974D02*
X34161Y-25521D01*
X34899Y-25974D02*
X34800Y-25974D01*
X35029Y-25974D02*
X34899Y-25974D01*
X35495Y-25973D02*
X35029Y-25974D01*
X35521Y-25973D02*
X35495Y-25973D01*
X37515Y-25864D02*
X35521Y-25973D01*
X32973Y-25974D02*
X32161Y-25521D01*
X33901Y-26289D02*
X32973Y-25974D01*
X34626Y-26486D02*
X33901Y-26289D01*
X34724Y-26486D02*
X34626Y-26486D01*
X35204Y-26486D02*
X34724Y-26486D01*
X35597Y-26483D02*
X35204Y-26486D01*
X36021Y-26483D02*
X35597Y-26483D01*
X37279Y-26514D02*
X36021Y-26483D01*
X37751Y-26514D02*
X37279Y-26514D01*
X38590Y-26491D02*
X37751Y-26514D01*
X24736Y-26690D02*
X24526Y-26887D01*
X24736Y-26651D02*
X24736Y-26690D01*
X24736Y-26395D02*
X24736Y-26651D01*
X25793Y-26134D02*
X24736Y-26395D01*
X26070Y-26134D02*
X25793Y-26134D01*
X28077Y-26179D02*
X26070Y-26134D01*
X33016Y-26516D02*
X28077Y-26179D01*
X34587Y-26683D02*
X33016Y-26516D01*
X34685Y-26683D02*
X34587Y-26683D01*
X35243Y-26683D02*
X34685Y-26683D01*
X35671Y-26679D02*
X35243Y-26683D01*
X35947Y-26679D02*
X35671Y-26679D01*
X36419Y-26769D02*
X35947Y-26679D01*
X36615Y-26965D02*
X36419Y-26769D01*
X37093Y-27796D02*
X36615Y-26965D01*
X20266Y-27084D02*
X20542Y-26887D01*
X20266Y-27123D02*
X20266Y-27084D01*
X20266Y-27139D02*
X20266Y-27123D01*
X20243Y-27162D02*
X20266Y-27139D01*
X20068Y-27326D02*
X20243Y-27162D01*
X23858Y-26887D02*
X23582Y-26887D01*
X23897Y-26887D02*
X23858Y-26887D01*
X24211Y-26887D02*
X23897Y-26887D01*
X24251Y-26887D02*
X24211Y-26887D01*
X24526Y-26887D02*
X24251Y-26887D01*
X20818Y-26887D02*
X20542Y-26887D01*
X20857Y-26887D02*
X20818Y-26887D01*
X23267Y-26887D02*
X20857Y-26887D01*
X23306Y-26887D02*
X23267Y-26887D01*
X23582Y-26887D02*
X23306Y-26887D01*
X24802Y-26979D02*
X24526Y-26887D01*
X24841Y-26979D02*
X24802Y-26979D01*
X27251Y-26979D02*
X24841Y-26979D01*
X27291Y-26979D02*
X27251Y-26979D01*
X27566Y-26887D02*
X27291Y-26979D01*
G54D19*
X46587Y-28371D02*
X46442Y-28371D01*
X46771Y-29409D02*
X46968Y-29606D01*
X46338Y-29409D02*
X46771Y-29409D01*
X46062Y-29685D02*
X46338Y-29409D01*
X44212Y-29881D02*
X44685Y-29881D01*
X43267Y-28937D02*
X44212Y-29881D01*
X44685Y-28582D02*
X44448Y-28582D01*
X45236Y-28031D02*
X44685Y-28582D01*
X46062Y-27992D02*
X46062Y-27952D01*
X46442Y-28371D02*
X46062Y-27992D01*
X60048Y-26180D02*
X59791Y-26180D01*
X60146Y-26180D02*
X60048Y-26180D01*
X60638Y-26460D02*
X60146Y-26180D01*
X60638Y-28527D02*
X60638Y-28822D01*
X60638Y-28429D02*
X60638Y-28527D01*
X60638Y-28035D02*
X60638Y-28429D01*
X60638Y-27936D02*
X60638Y-28035D01*
X60638Y-27641D02*
X60638Y-27936D01*
X60638Y-27346D02*
X60638Y-27641D01*
X60638Y-27247D02*
X60638Y-27346D01*
X60638Y-26854D02*
X60638Y-27247D01*
X60638Y-26755D02*
X60638Y-26854D01*
X60638Y-26460D02*
X60638Y-26755D01*
X39269Y-27875D02*
X37930Y-28943D01*
X39760Y-28077D02*
X39980Y-28155D01*
X39269Y-27875D02*
X39760Y-28077D01*
X39195Y-27512D02*
X39269Y-27875D01*
X39195Y-27186D02*
X39195Y-27512D01*
X39803Y-26088D02*
X39195Y-27186D01*
X40680Y-26462D02*
X39803Y-26088D01*
X41007Y-26462D02*
X40680Y-26462D01*
X42484Y-26113D02*
X41007Y-26462D01*
X43099Y-25601D02*
X42484Y-26113D01*
X38426Y-26098D02*
X39803Y-26088D01*
X37678Y-26258D02*
X38426Y-26098D01*
X37351Y-26258D02*
X37678Y-26258D01*
X36072Y-26228D02*
X37351Y-26258D01*
X35546Y-26228D02*
X36072Y-26228D01*
X35135Y-26230D02*
X35546Y-26228D01*
X34793Y-26230D02*
X35135Y-26230D01*
X34694Y-26230D02*
X34793Y-26230D01*
X33952Y-26033D02*
X34694Y-26230D01*
X33947Y-26031D02*
X33952Y-26033D01*
X33161Y-25521D02*
X33947Y-26031D01*
X35972Y-27407D02*
X34940Y-27725D01*
X36281Y-27103D02*
X35972Y-27407D01*
X34391Y-28193D02*
X34940Y-27725D01*
X33667Y-27542D02*
X34391Y-28193D01*
X32878Y-26851D02*
X28929Y-28077D01*
X28098Y-26561D02*
X28929Y-28077D01*
X27971Y-26434D02*
X28098Y-26561D01*
X27341Y-26434D02*
X27971Y-26434D01*
X27161Y-26434D02*
X27341Y-26434D01*
X26769Y-26644D02*
X27161Y-26434D01*
X25931Y-26469D02*
X26769Y-26644D01*
X59791Y-26180D02*
X59224Y-26206D01*
X51853Y-27970D02*
X51871Y-26634D01*
X58451Y-27677D02*
X59106Y-27702D01*
X56900Y-27687D02*
X57705Y-27679D01*
X55484Y-27683D02*
X56160Y-27689D01*
X54050Y-27686D02*
X54723Y-27694D01*
X57547Y-26215D02*
X57581Y-26846D01*
X58923Y-26827D02*
X59473Y-26844D01*
X57581Y-26846D02*
X58351Y-26831D01*
X56117Y-26895D02*
X56851Y-26866D01*
X59224Y-26206D02*
X58184Y-26197D01*
X58184Y-26197D02*
X57547Y-26215D01*
X57547Y-26215D02*
X56822Y-26180D01*
X56822Y-26180D02*
X56132Y-26180D01*
X56132Y-26180D02*
X55477Y-26180D01*
X55477Y-26180D02*
X54866Y-26188D01*
X54730Y-26895D02*
X55471Y-26903D01*
X54639Y-26180D02*
X54150Y-26215D01*
X54866Y-26188D02*
X54639Y-26180D01*
X54730Y-26895D02*
X54866Y-26188D01*
X54150Y-26215D02*
X54054Y-26880D01*
X53451Y-26180D02*
X53451Y-26424D01*
X53731Y-26180D02*
X53451Y-26180D01*
X54150Y-26215D02*
X53731Y-26180D01*
X51719Y-25995D02*
X52561Y-25957D01*
X51170Y-26161D02*
X51719Y-25995D01*
X51170Y-28483D02*
X50332Y-28781D01*
X52780Y-27700D02*
X53074Y-26949D01*
X50332Y-28781D02*
X49666Y-28837D01*
X50052Y-28001D02*
X50332Y-28781D01*
X49821Y-27771D02*
X50052Y-28001D01*
X49194Y-27562D02*
X49821Y-27771D01*
X49153Y-27562D02*
X49194Y-27562D01*
X49055Y-27562D02*
X49153Y-27562D01*
X48937Y-27443D02*
X49055Y-27562D01*
X49055Y-26892D02*
X48937Y-27010D01*
X49153Y-26892D02*
X49055Y-26892D01*
X49194Y-26892D02*
X49153Y-26892D01*
X50315Y-26588D02*
X49194Y-26892D01*
X50546Y-26357D02*
X50315Y-26588D01*
X50625Y-26194D02*
X50546Y-26357D01*
X46587Y-28371D02*
X47736Y-29068D01*
G54D20*
X64435Y-28481D02*
X63884Y-28835D01*
X64435Y-28442D02*
X64435Y-28481D01*
X64435Y-28425D02*
X64435Y-28442D01*
X64458Y-28402D02*
X64435Y-28425D01*
X64649Y-28254D02*
X64458Y-28402D01*
X66099Y-26841D02*
X66355Y-27582D01*
X66076Y-26818D02*
X66099Y-26841D01*
X66059Y-26818D02*
X66076Y-26818D01*
X66020Y-26818D02*
X66059Y-26818D01*
X65469Y-26463D02*
X66020Y-26818D01*
X66020Y-28676D02*
X65469Y-28826D01*
X66059Y-28676D02*
X66020Y-28676D01*
X66315Y-28676D02*
X66059Y-28676D01*
X63333Y-28009D02*
X63884Y-27654D01*
X63294Y-28009D02*
X63333Y-28009D01*
X63277Y-28009D02*
X63294Y-28009D01*
X63254Y-28032D02*
X63277Y-28009D01*
X63101Y-28217D02*
X63254Y-28032D01*
X63254Y-26851D02*
X63101Y-27036D01*
X63277Y-26828D02*
X63254Y-26851D01*
X63294Y-26828D02*
X63277Y-26828D01*
X63333Y-26828D02*
X63294Y-26828D01*
X63884Y-26473D02*
X63333Y-26828D01*
X41844Y-25857D02*
X42099Y-25601D01*
X41804Y-25857D02*
X41844Y-25857D01*
X41788Y-25857D02*
X41804Y-25857D01*
X40844Y-26068D02*
X41788Y-25857D01*
X66020Y-27999D02*
X65469Y-27644D01*
X66059Y-27999D02*
X66020Y-27999D01*
X66076Y-27999D02*
X66059Y-27999D01*
X66099Y-28022D02*
X66076Y-27999D01*
X66256Y-28203D02*
X66099Y-28022D01*
G54D10*
G36*
X34794Y-26890D02*
X33511Y-27000D01*
X33490Y-27006D01*
X33475Y-27007D01*
X29040Y-28204D01*
X28797Y-28204D01*
X25028Y-27430D01*
X25008Y-27382D01*
X24911Y-27285D01*
X24900Y-27281D01*
X24936Y-27266D01*
X24984Y-27218D01*
X24997Y-27186D01*
X27095Y-27186D01*
X27109Y-27218D01*
X27156Y-27265D01*
X27218Y-27291D01*
X27284Y-27291D01*
X27914Y-27291D01*
X27976Y-27266D01*
X28024Y-27218D01*
X28049Y-27157D01*
X28049Y-27090D01*
X28049Y-26618D01*
X28024Y-26556D01*
X27977Y-26509D01*
X27915Y-26483D01*
X27848Y-26483D01*
X27218Y-26483D01*
X27156Y-26508D01*
X27109Y-26556D01*
X27083Y-26617D01*
X27083Y-26684D01*
X27083Y-26772D01*
X25009Y-26772D01*
X25009Y-26618D01*
X25007Y-26612D01*
X25028Y-26591D01*
X25053Y-26530D01*
X25816Y-26341D01*
X26067Y-26341D01*
X28072Y-26387D01*
X28075Y-26386D01*
X32992Y-26722D01*
X32994Y-26722D01*
X34564Y-26890D01*
X34580Y-26889D01*
X34587Y-26890D01*
X34685Y-26890D01*
X34794Y-26890D01*
X34794Y-26890D01*
G37*
G54D21*
X34794Y-26890D02*
X33511Y-27000D01*
X33490Y-27006D01*
X33475Y-27007D01*
X29040Y-28204D01*
X28797Y-28204D01*
X25028Y-27430D01*
X25008Y-27382D01*
X24911Y-27285D01*
X24900Y-27281D01*
X24936Y-27266D01*
X24984Y-27218D01*
X24997Y-27186D01*
X27095Y-27186D01*
X27109Y-27218D01*
X27156Y-27265D01*
X27218Y-27291D01*
X27284Y-27291D01*
X27914Y-27291D01*
X27976Y-27266D01*
X28024Y-27218D01*
X28049Y-27157D01*
X28049Y-27090D01*
X28049Y-26618D01*
X28024Y-26556D01*
X27977Y-26509D01*
X27915Y-26483D01*
X27848Y-26483D01*
X27218Y-26483D01*
X27156Y-26508D01*
X27109Y-26556D01*
X27083Y-26617D01*
X27083Y-26684D01*
X27083Y-26772D01*
X25009Y-26772D01*
X25009Y-26618D01*
X25007Y-26612D01*
X25028Y-26591D01*
X25053Y-26530D01*
X25816Y-26341D01*
X26067Y-26341D01*
X28072Y-26387D01*
X28075Y-26386D01*
X32992Y-26722D01*
X32994Y-26722D01*
X34564Y-26890D01*
X34580Y-26889D01*
X34587Y-26890D01*
X34685Y-26890D01*
X34794Y-26890D01*
G54D10*
G36*
X36797Y-27984D02*
X34524Y-28319D01*
X34508Y-28318D01*
X28295Y-28949D01*
X28237Y-28891D01*
X28110Y-28838D01*
X28049Y-28838D01*
X28049Y-28474D01*
X28748Y-28617D01*
X28784Y-28618D01*
X28790Y-28619D01*
X29067Y-28619D01*
X29094Y-28614D01*
X29121Y-28612D01*
X33569Y-27412D01*
X35549Y-27242D01*
X35613Y-27306D01*
X35740Y-27359D01*
X35877Y-27359D01*
X36004Y-27306D01*
X36102Y-27209D01*
X36154Y-27082D01*
X36154Y-26945D01*
X36147Y-26928D01*
X36318Y-26961D01*
X36449Y-27092D01*
X36776Y-27660D01*
X36748Y-27727D01*
X36748Y-27865D01*
X36797Y-27984D01*
X36797Y-27984D01*
G37*
G54D21*
X36797Y-27984D02*
X34524Y-28319D01*
X34508Y-28318D01*
X28295Y-28949D01*
X28237Y-28891D01*
X28110Y-28838D01*
X28049Y-28838D01*
X28049Y-28474D01*
X28748Y-28617D01*
X28784Y-28618D01*
X28790Y-28619D01*
X29067Y-28619D01*
X29094Y-28614D01*
X29121Y-28612D01*
X33569Y-27412D01*
X35549Y-27242D01*
X35613Y-27306D01*
X35740Y-27359D01*
X35877Y-27359D01*
X36004Y-27306D01*
X36102Y-27209D01*
X36154Y-27082D01*
X36154Y-26945D01*
X36147Y-26928D01*
X36318Y-26961D01*
X36449Y-27092D01*
X36776Y-27660D01*
X36748Y-27727D01*
X36748Y-27865D01*
X36797Y-27984D01*
G54D10*
G36*
X61446Y-27877D02*
X61403Y-27885D01*
X61397Y-27889D01*
X61397Y-27733D01*
X61355Y-27691D01*
X60688Y-27691D01*
X60688Y-27699D01*
X60588Y-27699D01*
X60588Y-27691D01*
X60588Y-27591D01*
X60588Y-27121D01*
X60588Y-26980D01*
X60588Y-26510D01*
X60588Y-26410D01*
X60588Y-25940D01*
X60546Y-25898D01*
X60014Y-25898D01*
X59953Y-25924D01*
X59905Y-25971D01*
X59880Y-26033D01*
X59879Y-26100D01*
X59880Y-26368D01*
X59922Y-26410D01*
X60588Y-26410D01*
X60588Y-26510D01*
X59922Y-26510D01*
X59880Y-26552D01*
X59879Y-26820D01*
X59880Y-26887D01*
X59905Y-26949D01*
X59953Y-26996D01*
X60014Y-27022D01*
X60546Y-27022D01*
X60588Y-26980D01*
X60588Y-27121D01*
X60546Y-27079D01*
X60014Y-27079D01*
X59953Y-27105D01*
X59905Y-27152D01*
X59880Y-27214D01*
X59879Y-27281D01*
X59880Y-27549D01*
X59922Y-27591D01*
X60588Y-27591D01*
X60588Y-27691D01*
X59922Y-27691D01*
X59880Y-27733D01*
X59879Y-28002D01*
X59880Y-28067D01*
X52283Y-28099D01*
X52158Y-28099D01*
X51872Y-28181D01*
X50579Y-28787D01*
X50579Y-30071D01*
X14573Y-30071D01*
X14573Y-28421D01*
X14588Y-28427D01*
X14655Y-28427D01*
X15836Y-28427D01*
X15898Y-28402D01*
X15945Y-28354D01*
X15971Y-28293D01*
X15971Y-28226D01*
X15971Y-27045D01*
X15969Y-27041D01*
X15969Y-25945D01*
X15961Y-25644D01*
X15861Y-25400D01*
X15758Y-25333D01*
X15278Y-25814D01*
X15758Y-26294D01*
X15861Y-26227D01*
X15969Y-25945D01*
X15969Y-27041D01*
X15945Y-26983D01*
X15898Y-26936D01*
X15836Y-26910D01*
X15769Y-26910D01*
X15688Y-26910D01*
X15688Y-26365D01*
X15207Y-25884D01*
X14726Y-26365D01*
X14794Y-26468D01*
X15075Y-26576D01*
X15377Y-26568D01*
X15620Y-26468D01*
X15688Y-26365D01*
X15688Y-26910D01*
X14588Y-26910D01*
X14573Y-26916D01*
X14573Y-26240D01*
X14655Y-26294D01*
X15136Y-25814D01*
X14655Y-25333D01*
X14573Y-25387D01*
X14573Y-25125D01*
X14879Y-25125D01*
X14794Y-25160D01*
X14726Y-25262D01*
X15207Y-25743D01*
X15688Y-25262D01*
X15620Y-25160D01*
X15528Y-25125D01*
X31907Y-25125D01*
X31899Y-25128D01*
X31768Y-25258D01*
X31698Y-25429D01*
X31697Y-25613D01*
X31768Y-25783D01*
X31898Y-25914D01*
X32068Y-25984D01*
X32253Y-25985D01*
X32423Y-25914D01*
X32429Y-25908D01*
X32873Y-26155D01*
X32888Y-26160D01*
X32907Y-26170D01*
X33448Y-26354D01*
X33038Y-26310D01*
X33037Y-26310D01*
X33030Y-26308D01*
X28091Y-25972D01*
X28084Y-25972D01*
X28082Y-25972D01*
X26075Y-25926D01*
X26072Y-25927D01*
X26070Y-25926D01*
X25793Y-25926D01*
X25770Y-25931D01*
X25743Y-25932D01*
X24956Y-26127D01*
X24931Y-26103D01*
X24805Y-26050D01*
X24667Y-26050D01*
X24540Y-26102D01*
X24443Y-26199D01*
X24390Y-26326D01*
X24390Y-26463D01*
X24398Y-26483D01*
X24178Y-26483D01*
X24116Y-26508D01*
X24069Y-26556D01*
X24054Y-26591D01*
X24040Y-26556D01*
X23992Y-26509D01*
X23931Y-26483D01*
X23864Y-26483D01*
X23234Y-26483D01*
X23172Y-26508D01*
X23125Y-26556D01*
X23099Y-26617D01*
X23099Y-26680D01*
X21025Y-26680D01*
X21025Y-26618D01*
X21000Y-26556D01*
X20952Y-26509D01*
X20891Y-26483D01*
X20824Y-26483D01*
X20194Y-26483D01*
X20132Y-26508D01*
X20085Y-26556D01*
X20059Y-26617D01*
X20059Y-26684D01*
X20059Y-26981D01*
X20000Y-26981D01*
X19873Y-27033D01*
X19776Y-27130D01*
X19723Y-27257D01*
X19723Y-27394D01*
X19775Y-27521D01*
X19872Y-27619D01*
X19999Y-27671D01*
X20137Y-27671D01*
X20263Y-27619D01*
X20361Y-27522D01*
X20413Y-27395D01*
X20413Y-27291D01*
X20890Y-27291D01*
X20952Y-27266D01*
X20999Y-27218D01*
X21025Y-27157D01*
X21025Y-27094D01*
X23099Y-27094D01*
X23099Y-27156D01*
X23124Y-27218D01*
X23172Y-27265D01*
X23233Y-27291D01*
X23300Y-27291D01*
X23930Y-27291D01*
X23992Y-27266D01*
X24039Y-27218D01*
X24054Y-27183D01*
X24069Y-27218D01*
X24116Y-27265D01*
X24178Y-27291D01*
X24244Y-27291D01*
X24513Y-27291D01*
X24423Y-27382D01*
X24370Y-27509D01*
X24370Y-27625D01*
X23736Y-28243D01*
X23735Y-28244D01*
X23734Y-28245D01*
X23716Y-28263D01*
X23234Y-28263D01*
X23172Y-28288D01*
X23125Y-28336D01*
X23099Y-28397D01*
X23099Y-28460D01*
X21025Y-28460D01*
X21025Y-28398D01*
X21000Y-28336D01*
X20952Y-28289D01*
X20891Y-28263D01*
X20824Y-28263D01*
X20194Y-28263D01*
X20132Y-28288D01*
X20085Y-28336D01*
X20059Y-28397D01*
X20059Y-28464D01*
X20059Y-28936D01*
X20084Y-28998D01*
X20132Y-29045D01*
X20193Y-29071D01*
X20260Y-29071D01*
X20890Y-29071D01*
X20952Y-29046D01*
X20999Y-28998D01*
X21025Y-28937D01*
X21025Y-28874D01*
X23099Y-28874D01*
X23099Y-28936D01*
X23124Y-28998D01*
X23172Y-29045D01*
X23233Y-29071D01*
X23300Y-29071D01*
X23930Y-29071D01*
X23992Y-29046D01*
X24039Y-28998D01*
X24054Y-28963D01*
X24069Y-28998D01*
X24116Y-29045D01*
X24178Y-29071D01*
X24244Y-29071D01*
X24874Y-29071D01*
X24936Y-29046D01*
X24984Y-28998D01*
X25009Y-28937D01*
X25009Y-28875D01*
X27083Y-28875D01*
X27083Y-28936D01*
X27109Y-28998D01*
X27156Y-29045D01*
X27218Y-29071D01*
X27284Y-29071D01*
X27696Y-29071D01*
X27708Y-29086D01*
X27696Y-29114D01*
X27696Y-29252D01*
X27748Y-29379D01*
X27845Y-29476D01*
X27972Y-29529D01*
X28109Y-29529D01*
X28236Y-29476D01*
X28333Y-29379D01*
X28341Y-29361D01*
X34536Y-28732D01*
X34560Y-28733D01*
X37262Y-28334D01*
X37274Y-28330D01*
X37311Y-28323D01*
X37329Y-28310D01*
X37338Y-28307D01*
X37349Y-28297D01*
X37378Y-28278D01*
X37574Y-28082D01*
X37590Y-28057D01*
X37609Y-28035D01*
X37613Y-28024D01*
X37619Y-28014D01*
X37625Y-27986D01*
X37634Y-27958D01*
X37656Y-27760D01*
X37676Y-27752D01*
X37773Y-27655D01*
X37826Y-27528D01*
X37826Y-27391D01*
X37774Y-27264D01*
X37677Y-27167D01*
X37550Y-27114D01*
X37412Y-27114D01*
X37286Y-27166D01*
X37188Y-27263D01*
X37136Y-27390D01*
X37136Y-27451D01*
X37134Y-27451D01*
X36795Y-26861D01*
X36777Y-26841D01*
X36762Y-26818D01*
X36650Y-26706D01*
X37273Y-26722D01*
X37277Y-26721D01*
X37279Y-26721D01*
X37751Y-26721D01*
X37753Y-26721D01*
X37756Y-26721D01*
X38317Y-26707D01*
X38394Y-26784D01*
X38521Y-26837D01*
X38658Y-26837D01*
X38785Y-26784D01*
X38882Y-26687D01*
X38935Y-26560D01*
X38935Y-26423D01*
X38882Y-26296D01*
X38785Y-26199D01*
X38659Y-26146D01*
X38521Y-26146D01*
X38394Y-26198D01*
X38301Y-26292D01*
X37748Y-26306D01*
X37279Y-26306D01*
X37278Y-26307D01*
X36026Y-26276D01*
X36024Y-26276D01*
X36021Y-26276D01*
X35597Y-26276D01*
X35595Y-26276D01*
X35203Y-26278D01*
X34724Y-26278D01*
X34654Y-26278D01*
X33970Y-26092D01*
X33968Y-26092D01*
X33629Y-25977D01*
X33629Y-25582D01*
X33617Y-25398D01*
X33570Y-25285D01*
X33499Y-25254D01*
X33232Y-25521D01*
X33499Y-25788D01*
X33570Y-25757D01*
X33629Y-25582D01*
X33629Y-25977D01*
X33409Y-25902D01*
X33428Y-25859D01*
X33161Y-25592D01*
X33155Y-25597D01*
X33085Y-25527D01*
X33090Y-25521D01*
X32823Y-25254D01*
X32751Y-25285D01*
X32692Y-25460D01*
X32701Y-25584D01*
X32624Y-25542D01*
X32624Y-25429D01*
X32554Y-25259D01*
X32424Y-25129D01*
X32414Y-25125D01*
X32920Y-25125D01*
X32894Y-25183D01*
X33161Y-25450D01*
X33428Y-25183D01*
X33402Y-25125D01*
X33907Y-25125D01*
X33899Y-25128D01*
X33768Y-25258D01*
X33698Y-25429D01*
X33697Y-25613D01*
X33768Y-25783D01*
X33898Y-25914D01*
X34068Y-25984D01*
X34253Y-25985D01*
X34381Y-25931D01*
X34681Y-26143D01*
X34702Y-26153D01*
X34721Y-26166D01*
X34738Y-26169D01*
X34754Y-26176D01*
X34778Y-26177D01*
X34800Y-26181D01*
X34899Y-26181D01*
X35029Y-26181D01*
X35029Y-26181D01*
X35030Y-26181D01*
X35495Y-26181D01*
X35495Y-26181D01*
X35521Y-26181D01*
X35527Y-26179D01*
X35532Y-26180D01*
X37249Y-26087D01*
X37319Y-26157D01*
X37446Y-26209D01*
X37583Y-26210D01*
X37710Y-26157D01*
X37807Y-26060D01*
X37860Y-25933D01*
X37860Y-25796D01*
X37807Y-25669D01*
X37710Y-25572D01*
X37584Y-25519D01*
X37446Y-25519D01*
X37319Y-25571D01*
X37222Y-25668D01*
X37220Y-25673D01*
X35624Y-25760D01*
X35624Y-25193D01*
X35599Y-25131D01*
X35593Y-25125D01*
X47383Y-25125D01*
X46366Y-25291D01*
X46298Y-25291D01*
X46253Y-25300D01*
X46243Y-25301D01*
X46227Y-25305D01*
X46219Y-25307D01*
X46217Y-25308D01*
X43568Y-26038D01*
X43568Y-25662D01*
X43556Y-25478D01*
X43509Y-25366D01*
X43437Y-25334D01*
X43366Y-25405D01*
X43366Y-25264D01*
X43335Y-25192D01*
X43161Y-25133D01*
X42977Y-25145D01*
X42864Y-25192D01*
X42833Y-25264D01*
X43099Y-25531D01*
X43366Y-25264D01*
X43366Y-25405D01*
X43170Y-25601D01*
X43437Y-25868D01*
X43509Y-25837D01*
X43568Y-25662D01*
X43568Y-26038D01*
X43366Y-26093D01*
X43366Y-25939D01*
X43099Y-25672D01*
X43029Y-25743D01*
X43029Y-25601D01*
X42762Y-25334D01*
X42690Y-25366D01*
X42631Y-25540D01*
X42643Y-25724D01*
X42690Y-25837D01*
X42762Y-25868D01*
X43029Y-25601D01*
X43029Y-25743D01*
X42833Y-25939D01*
X42864Y-26011D01*
X43038Y-26070D01*
X43222Y-26058D01*
X43335Y-26011D01*
X43366Y-25939D01*
X43366Y-26093D01*
X42563Y-26314D01*
X42563Y-25863D01*
X42563Y-25273D01*
X42537Y-25211D01*
X42490Y-25164D01*
X42428Y-25138D01*
X42361Y-25138D01*
X41771Y-25138D01*
X41709Y-25163D01*
X41662Y-25211D01*
X41636Y-25272D01*
X41636Y-25339D01*
X41636Y-25679D01*
X41069Y-25806D01*
X41039Y-25776D01*
X40912Y-25723D01*
X40775Y-25723D01*
X40648Y-25776D01*
X40551Y-25873D01*
X40498Y-25999D01*
X40498Y-26137D01*
X40551Y-26264D01*
X40648Y-26361D01*
X40775Y-26414D01*
X40912Y-26414D01*
X41039Y-26361D01*
X41136Y-26264D01*
X41158Y-26211D01*
X41811Y-26065D01*
X41837Y-26065D01*
X42428Y-26065D01*
X42490Y-26039D01*
X42537Y-25992D01*
X42563Y-25930D01*
X42563Y-25863D01*
X42563Y-26314D01*
X39803Y-27075D01*
X39785Y-27056D01*
X39658Y-27004D01*
X39521Y-27003D01*
X39394Y-27056D01*
X39297Y-27153D01*
X39244Y-27280D01*
X39244Y-27417D01*
X39296Y-27544D01*
X39393Y-27641D01*
X39520Y-27694D01*
X39578Y-27694D01*
X39578Y-27751D01*
X39630Y-27878D01*
X39727Y-27975D01*
X39854Y-28028D01*
X39992Y-28028D01*
X40119Y-27976D01*
X40216Y-27879D01*
X40248Y-27800D01*
X44919Y-26363D01*
X42691Y-27608D01*
X42684Y-27614D01*
X42676Y-27617D01*
X42458Y-27764D01*
X42413Y-27746D01*
X42276Y-27746D01*
X42149Y-27798D01*
X42052Y-27895D01*
X41999Y-28022D01*
X41999Y-28160D01*
X42051Y-28287D01*
X42148Y-28384D01*
X42275Y-28436D01*
X42413Y-28437D01*
X42540Y-28384D01*
X42628Y-28296D01*
X42638Y-28320D01*
X42735Y-28417D01*
X42770Y-28432D01*
X42335Y-28776D01*
X42313Y-28767D01*
X42175Y-28767D01*
X42048Y-28819D01*
X41951Y-28916D01*
X41899Y-29043D01*
X41898Y-29180D01*
X41951Y-29307D01*
X42048Y-29404D01*
X42175Y-29457D01*
X42312Y-29457D01*
X42439Y-29405D01*
X42536Y-29308D01*
X42589Y-29181D01*
X42589Y-29104D01*
X43198Y-28622D01*
X43204Y-28616D01*
X43207Y-28614D01*
X43594Y-28270D01*
X43629Y-28355D01*
X43726Y-28453D01*
X43853Y-28505D01*
X43990Y-28506D01*
X44117Y-28453D01*
X44215Y-28356D01*
X44267Y-28229D01*
X44267Y-28193D01*
X45885Y-27205D01*
X45945Y-27230D01*
X46082Y-27230D01*
X46209Y-27178D01*
X46307Y-27081D01*
X46359Y-26954D01*
X46359Y-26816D01*
X46308Y-26692D01*
X46433Y-26672D01*
X46478Y-26716D01*
X46605Y-26769D01*
X46742Y-26769D01*
X46834Y-26731D01*
X46786Y-26779D01*
X46733Y-26906D01*
X46733Y-27044D01*
X46785Y-27170D01*
X46883Y-27268D01*
X47009Y-27320D01*
X48178Y-28828D01*
X48178Y-28904D01*
X48231Y-29031D01*
X48328Y-29128D01*
X48455Y-29181D01*
X48592Y-29181D01*
X48719Y-29128D01*
X48816Y-29031D01*
X48849Y-28953D01*
X49598Y-28510D01*
X49727Y-28510D01*
X49854Y-28457D01*
X49951Y-28360D01*
X50003Y-28233D01*
X50004Y-28096D01*
X49951Y-27969D01*
X49854Y-27872D01*
X49727Y-27819D01*
X49590Y-27819D01*
X49463Y-27871D01*
X49366Y-27969D01*
X49333Y-28047D01*
X49321Y-28054D01*
X49321Y-27627D01*
X49321Y-27260D01*
X49321Y-27227D01*
X49321Y-27194D01*
X49321Y-26827D01*
X49321Y-26760D01*
X49295Y-26698D01*
X49248Y-26651D01*
X49186Y-26626D01*
X49029Y-26626D01*
X48987Y-26668D01*
X48987Y-26960D01*
X49279Y-26960D01*
X49321Y-26918D01*
X49321Y-26827D01*
X49321Y-27194D01*
X49321Y-27102D01*
X49279Y-27060D01*
X49190Y-27060D01*
X49186Y-27059D01*
X49029Y-27059D01*
X49027Y-27060D01*
X48987Y-27060D01*
X48987Y-27101D01*
X48987Y-27353D01*
X48987Y-27393D01*
X49027Y-27393D01*
X49029Y-27395D01*
X49186Y-27395D01*
X49190Y-27393D01*
X49279Y-27393D01*
X49321Y-27351D01*
X49321Y-27260D01*
X49321Y-27627D01*
X49321Y-27535D01*
X49279Y-27493D01*
X48987Y-27493D01*
X48987Y-27786D01*
X49029Y-27828D01*
X49186Y-27828D01*
X49248Y-27803D01*
X49295Y-27755D01*
X49321Y-27694D01*
X49321Y-27627D01*
X49321Y-28054D01*
X48888Y-28310D01*
X48888Y-27627D01*
X48888Y-27260D01*
X48888Y-27227D01*
X48888Y-27194D01*
X48888Y-26827D01*
X48888Y-26760D01*
X48887Y-26757D01*
X48887Y-26668D01*
X48844Y-26626D01*
X48753Y-26626D01*
X48753Y-26626D01*
X48720Y-26626D01*
X48687Y-26626D01*
X48687Y-26626D01*
X48595Y-26626D01*
X48553Y-26668D01*
X48553Y-26757D01*
X48552Y-26760D01*
X48552Y-26827D01*
X48552Y-26918D01*
X48553Y-26920D01*
X48553Y-26960D01*
X48594Y-26960D01*
X48846Y-26960D01*
X48887Y-26960D01*
X48887Y-26920D01*
X48888Y-26918D01*
X48888Y-26827D01*
X48888Y-27194D01*
X48888Y-27102D01*
X48887Y-27101D01*
X48887Y-27060D01*
X48846Y-27060D01*
X48844Y-27059D01*
X48753Y-27059D01*
X48753Y-27059D01*
X48720Y-27059D01*
X48687Y-27059D01*
X48687Y-27059D01*
X48595Y-27059D01*
X48594Y-27060D01*
X48553Y-27060D01*
X48553Y-27101D01*
X48552Y-27102D01*
X48552Y-27194D01*
X48552Y-27227D01*
X48552Y-27260D01*
X48552Y-27351D01*
X48553Y-27353D01*
X48553Y-27393D01*
X48594Y-27393D01*
X48595Y-27395D01*
X48687Y-27395D01*
X48687Y-27395D01*
X48720Y-27395D01*
X48753Y-27395D01*
X48753Y-27395D01*
X48844Y-27395D01*
X48846Y-27393D01*
X48887Y-27393D01*
X48887Y-27353D01*
X48888Y-27351D01*
X48888Y-27260D01*
X48888Y-27627D01*
X48888Y-27535D01*
X48887Y-27534D01*
X48887Y-27493D01*
X48846Y-27493D01*
X48594Y-27493D01*
X48553Y-27493D01*
X48553Y-27534D01*
X48552Y-27535D01*
X48552Y-27627D01*
X48552Y-27694D01*
X48553Y-27697D01*
X48553Y-27786D01*
X48595Y-27828D01*
X48687Y-27828D01*
X48687Y-27828D01*
X48720Y-27828D01*
X48753Y-27828D01*
X48753Y-27828D01*
X48844Y-27828D01*
X48887Y-27786D01*
X48887Y-27697D01*
X48888Y-27694D01*
X48888Y-27627D01*
X48888Y-28310D01*
X48589Y-28487D01*
X48453Y-28313D01*
X48453Y-27786D01*
X48453Y-27493D01*
X48453Y-27393D01*
X48453Y-27353D01*
X48453Y-27101D01*
X48453Y-27060D01*
X48453Y-26960D01*
X48453Y-26668D01*
X48411Y-26626D01*
X48254Y-26626D01*
X48192Y-26651D01*
X48144Y-26698D01*
X48119Y-26760D01*
X48119Y-26827D01*
X48119Y-26918D01*
X48161Y-26960D01*
X48453Y-26960D01*
X48453Y-27060D01*
X48413Y-27060D01*
X48411Y-27059D01*
X48254Y-27059D01*
X48250Y-27060D01*
X48161Y-27060D01*
X48119Y-27102D01*
X48119Y-27194D01*
X48119Y-27227D01*
X48119Y-27260D01*
X48119Y-27351D01*
X48161Y-27393D01*
X48250Y-27393D01*
X48254Y-27395D01*
X48411Y-27395D01*
X48413Y-27393D01*
X48453Y-27393D01*
X48453Y-27493D01*
X48161Y-27493D01*
X48119Y-27535D01*
X48119Y-27627D01*
X48119Y-27694D01*
X48144Y-27755D01*
X48192Y-27803D01*
X48254Y-27828D01*
X48411Y-27828D01*
X48453Y-27786D01*
X48453Y-28313D01*
X47445Y-27012D01*
X47787Y-26719D01*
X47794Y-26710D01*
X47802Y-26705D01*
X48033Y-26474D01*
X48038Y-26466D01*
X48046Y-26460D01*
X48158Y-26331D01*
X48173Y-26331D01*
X48300Y-26278D01*
X48305Y-26274D01*
X49906Y-26436D01*
X49956Y-26487D01*
X50083Y-26539D01*
X50220Y-26539D01*
X50347Y-26487D01*
X50444Y-26390D01*
X50497Y-26263D01*
X50497Y-26126D01*
X50445Y-25999D01*
X50348Y-25901D01*
X50221Y-25849D01*
X50083Y-25849D01*
X49957Y-25901D01*
X49952Y-25905D01*
X49120Y-25821D01*
X54146Y-25856D01*
X54159Y-25860D01*
X54584Y-25904D01*
X54600Y-25903D01*
X54613Y-25905D01*
X56576Y-25836D01*
X56588Y-25833D01*
X56599Y-25834D01*
X57968Y-25632D01*
X58015Y-25679D01*
X58142Y-25732D01*
X58279Y-25732D01*
X58406Y-25679D01*
X58503Y-25582D01*
X58556Y-25455D01*
X58556Y-25318D01*
X58504Y-25191D01*
X58437Y-25125D01*
X61252Y-25125D01*
X61252Y-25898D01*
X60730Y-25898D01*
X60688Y-25940D01*
X60688Y-26410D01*
X60696Y-26410D01*
X60696Y-26510D01*
X60688Y-26510D01*
X60688Y-26980D01*
X60730Y-27022D01*
X61252Y-27022D01*
X61252Y-27079D01*
X60730Y-27079D01*
X60688Y-27121D01*
X60688Y-27591D01*
X61355Y-27591D01*
X61397Y-27549D01*
X61397Y-27386D01*
X61403Y-27389D01*
X61446Y-27398D01*
X61446Y-27877D01*
X61446Y-27877D01*
G37*
G54D21*
X61446Y-27877D02*
X61403Y-27885D01*
X61397Y-27889D01*
X61397Y-27733D01*
X61355Y-27691D01*
X60688Y-27691D01*
X60688Y-27699D01*
X60588Y-27699D01*
X60588Y-27691D01*
X60588Y-27591D01*
X60588Y-27121D01*
X60588Y-26980D01*
X60588Y-26510D01*
X60588Y-26410D01*
X60588Y-25940D01*
X60546Y-25898D01*
X60014Y-25898D01*
X59953Y-25924D01*
X59905Y-25971D01*
X59880Y-26033D01*
X59879Y-26100D01*
X59880Y-26368D01*
X59922Y-26410D01*
X60588Y-26410D01*
X60588Y-26510D01*
X59922Y-26510D01*
X59880Y-26552D01*
X59879Y-26820D01*
X59880Y-26887D01*
X59905Y-26949D01*
X59953Y-26996D01*
X60014Y-27022D01*
X60546Y-27022D01*
X60588Y-26980D01*
X60588Y-27121D01*
X60546Y-27079D01*
X60014Y-27079D01*
X59953Y-27105D01*
X59905Y-27152D01*
X59880Y-27214D01*
X59879Y-27281D01*
X59880Y-27549D01*
X59922Y-27591D01*
X60588Y-27591D01*
X60588Y-27691D01*
X59922Y-27691D01*
X59880Y-27733D01*
X59879Y-28002D01*
X59880Y-28067D01*
X52283Y-28099D01*
X52158Y-28099D01*
X51872Y-28181D01*
X50579Y-28787D01*
X50579Y-30071D01*
X14573Y-30071D01*
X14573Y-28421D01*
X14588Y-28427D01*
X14655Y-28427D01*
X15836Y-28427D01*
X15898Y-28402D01*
X15945Y-28354D01*
X15971Y-28293D01*
X15971Y-28226D01*
X15971Y-27045D01*
X15969Y-27041D01*
X15969Y-25945D01*
X15961Y-25644D01*
X15861Y-25400D01*
X15758Y-25333D01*
X15278Y-25814D01*
X15758Y-26294D01*
X15861Y-26227D01*
X15969Y-25945D01*
X15969Y-27041D01*
X15945Y-26983D01*
X15898Y-26936D01*
X15836Y-26910D01*
X15769Y-26910D01*
X15688Y-26910D01*
X15688Y-26365D01*
X15207Y-25884D01*
X14726Y-26365D01*
X14794Y-26468D01*
X15075Y-26576D01*
X15377Y-26568D01*
X15620Y-26468D01*
X15688Y-26365D01*
X15688Y-26910D01*
X14588Y-26910D01*
X14573Y-26916D01*
X14573Y-26240D01*
X14655Y-26294D01*
X15136Y-25814D01*
X14655Y-25333D01*
X14573Y-25387D01*
X14573Y-25125D01*
X14879Y-25125D01*
X14794Y-25160D01*
X14726Y-25262D01*
X15207Y-25743D01*
X15688Y-25262D01*
X15620Y-25160D01*
X15528Y-25125D01*
X31907Y-25125D01*
X31899Y-25128D01*
X31768Y-25258D01*
X31698Y-25429D01*
X31697Y-25613D01*
X31768Y-25783D01*
X31898Y-25914D01*
X32068Y-25984D01*
X32253Y-25985D01*
X32423Y-25914D01*
X32429Y-25908D01*
X32873Y-26155D01*
X32888Y-26160D01*
X32907Y-26170D01*
X33448Y-26354D01*
X33038Y-26310D01*
X33037Y-26310D01*
X33030Y-26308D01*
X28091Y-25972D01*
X28084Y-25972D01*
X28082Y-25972D01*
X26075Y-25926D01*
X26072Y-25927D01*
X26070Y-25926D01*
X25793Y-25926D01*
X25770Y-25931D01*
X25743Y-25932D01*
X24956Y-26127D01*
X24931Y-26103D01*
X24805Y-26050D01*
X24667Y-26050D01*
X24540Y-26102D01*
X24443Y-26199D01*
X24390Y-26326D01*
X24390Y-26463D01*
X24398Y-26483D01*
X24178Y-26483D01*
X24116Y-26508D01*
X24069Y-26556D01*
X24054Y-26591D01*
X24040Y-26556D01*
X23992Y-26509D01*
X23931Y-26483D01*
X23864Y-26483D01*
X23234Y-26483D01*
X23172Y-26508D01*
X23125Y-26556D01*
X23099Y-26617D01*
X23099Y-26680D01*
X21025Y-26680D01*
X21025Y-26618D01*
X21000Y-26556D01*
X20952Y-26509D01*
X20891Y-26483D01*
X20824Y-26483D01*
X20194Y-26483D01*
X20132Y-26508D01*
X20085Y-26556D01*
X20059Y-26617D01*
X20059Y-26684D01*
X20059Y-26981D01*
X20000Y-26981D01*
X19873Y-27033D01*
X19776Y-27130D01*
X19723Y-27257D01*
X19723Y-27394D01*
X19775Y-27521D01*
X19872Y-27619D01*
X19999Y-27671D01*
X20137Y-27671D01*
X20263Y-27619D01*
X20361Y-27522D01*
X20413Y-27395D01*
X20413Y-27291D01*
X20890Y-27291D01*
X20952Y-27266D01*
X20999Y-27218D01*
X21025Y-27157D01*
X21025Y-27094D01*
X23099Y-27094D01*
X23099Y-27156D01*
X23124Y-27218D01*
X23172Y-27265D01*
X23233Y-27291D01*
X23300Y-27291D01*
X23930Y-27291D01*
X23992Y-27266D01*
X24039Y-27218D01*
X24054Y-27183D01*
X24069Y-27218D01*
X24116Y-27265D01*
X24178Y-27291D01*
X24244Y-27291D01*
X24513Y-27291D01*
X24423Y-27382D01*
X24370Y-27509D01*
X24370Y-27625D01*
X23736Y-28243D01*
X23735Y-28244D01*
X23734Y-28245D01*
X23716Y-28263D01*
X23234Y-28263D01*
X23172Y-28288D01*
X23125Y-28336D01*
X23099Y-28397D01*
X23099Y-28460D01*
X21025Y-28460D01*
X21025Y-28398D01*
X21000Y-28336D01*
X20952Y-28289D01*
X20891Y-28263D01*
X20824Y-28263D01*
X20194Y-28263D01*
X20132Y-28288D01*
X20085Y-28336D01*
X20059Y-28397D01*
X20059Y-28464D01*
X20059Y-28936D01*
X20084Y-28998D01*
X20132Y-29045D01*
X20193Y-29071D01*
X20260Y-29071D01*
X20890Y-29071D01*
X20952Y-29046D01*
X20999Y-28998D01*
X21025Y-28937D01*
X21025Y-28874D01*
X23099Y-28874D01*
X23099Y-28936D01*
X23124Y-28998D01*
X23172Y-29045D01*
X23233Y-29071D01*
X23300Y-29071D01*
X23930Y-29071D01*
X23992Y-29046D01*
X24039Y-28998D01*
X24054Y-28963D01*
X24069Y-28998D01*
X24116Y-29045D01*
X24178Y-29071D01*
X24244Y-29071D01*
X24874Y-29071D01*
X24936Y-29046D01*
X24984Y-28998D01*
X25009Y-28937D01*
X25009Y-28875D01*
X27083Y-28875D01*
X27083Y-28936D01*
X27109Y-28998D01*
X27156Y-29045D01*
X27218Y-29071D01*
X27284Y-29071D01*
X27696Y-29071D01*
X27708Y-29086D01*
X27696Y-29114D01*
X27696Y-29252D01*
X27748Y-29379D01*
X27845Y-29476D01*
X27972Y-29529D01*
X28109Y-29529D01*
X28236Y-29476D01*
X28333Y-29379D01*
X28341Y-29361D01*
X34536Y-28732D01*
X34560Y-28733D01*
X37262Y-28334D01*
X37274Y-28330D01*
X37311Y-28323D01*
X37329Y-28310D01*
X37338Y-28307D01*
X37349Y-28297D01*
X37378Y-28278D01*
X37574Y-28082D01*
X37590Y-28057D01*
X37609Y-28035D01*
X37613Y-28024D01*
X37619Y-28014D01*
X37625Y-27986D01*
X37634Y-27958D01*
X37656Y-27760D01*
X37676Y-27752D01*
X37773Y-27655D01*
X37826Y-27528D01*
X37826Y-27391D01*
X37774Y-27264D01*
X37677Y-27167D01*
X37550Y-27114D01*
X37412Y-27114D01*
X37286Y-27166D01*
X37188Y-27263D01*
X37136Y-27390D01*
X37136Y-27451D01*
X37134Y-27451D01*
X36795Y-26861D01*
X36777Y-26841D01*
X36762Y-26818D01*
X36650Y-26706D01*
X37273Y-26722D01*
X37277Y-26721D01*
X37279Y-26721D01*
X37751Y-26721D01*
X37753Y-26721D01*
X37756Y-26721D01*
X38317Y-26707D01*
X38394Y-26784D01*
X38521Y-26837D01*
X38658Y-26837D01*
X38785Y-26784D01*
X38882Y-26687D01*
X38935Y-26560D01*
X38935Y-26423D01*
X38882Y-26296D01*
X38785Y-26199D01*
X38659Y-26146D01*
X38521Y-26146D01*
X38394Y-26198D01*
X38301Y-26292D01*
X37748Y-26306D01*
X37279Y-26306D01*
X37278Y-26307D01*
X36026Y-26276D01*
X36024Y-26276D01*
X36021Y-26276D01*
X35597Y-26276D01*
X35595Y-26276D01*
X35203Y-26278D01*
X34724Y-26278D01*
X34654Y-26278D01*
X33970Y-26092D01*
X33968Y-26092D01*
X33629Y-25977D01*
X33629Y-25582D01*
X33617Y-25398D01*
X33570Y-25285D01*
X33499Y-25254D01*
X33232Y-25521D01*
X33499Y-25788D01*
X33570Y-25757D01*
X33629Y-25582D01*
X33629Y-25977D01*
X33409Y-25902D01*
X33428Y-25859D01*
X33161Y-25592D01*
X33155Y-25597D01*
X33085Y-25527D01*
X33090Y-25521D01*
X32823Y-25254D01*
X32751Y-25285D01*
X32692Y-25460D01*
X32701Y-25584D01*
X32624Y-25542D01*
X32624Y-25429D01*
X32554Y-25259D01*
X32424Y-25129D01*
X32414Y-25125D01*
X32920Y-25125D01*
X32894Y-25183D01*
X33161Y-25450D01*
X33428Y-25183D01*
X33402Y-25125D01*
X33907Y-25125D01*
X33899Y-25128D01*
X33768Y-25258D01*
X33698Y-25429D01*
X33697Y-25613D01*
X33768Y-25783D01*
X33898Y-25914D01*
X34068Y-25984D01*
X34253Y-25985D01*
X34381Y-25931D01*
X34681Y-26143D01*
X34702Y-26153D01*
X34721Y-26166D01*
X34738Y-26169D01*
X34754Y-26176D01*
X34778Y-26177D01*
X34800Y-26181D01*
X34899Y-26181D01*
X35029Y-26181D01*
X35029Y-26181D01*
X35030Y-26181D01*
X35495Y-26181D01*
X35495Y-26181D01*
X35521Y-26181D01*
X35527Y-26179D01*
X35532Y-26180D01*
X37249Y-26087D01*
X37319Y-26157D01*
X37446Y-26209D01*
X37583Y-26210D01*
X37710Y-26157D01*
X37807Y-26060D01*
X37860Y-25933D01*
X37860Y-25796D01*
X37807Y-25669D01*
X37710Y-25572D01*
X37584Y-25519D01*
X37446Y-25519D01*
X37319Y-25571D01*
X37222Y-25668D01*
X37220Y-25673D01*
X35624Y-25760D01*
X35624Y-25193D01*
X35599Y-25131D01*
X35593Y-25125D01*
X47383Y-25125D01*
X46366Y-25291D01*
X46298Y-25291D01*
X46253Y-25300D01*
X46243Y-25301D01*
X46227Y-25305D01*
X46219Y-25307D01*
X46217Y-25308D01*
X43568Y-26038D01*
X43568Y-25662D01*
X43556Y-25478D01*
X43509Y-25366D01*
X43437Y-25334D01*
X43366Y-25405D01*
X43366Y-25264D01*
X43335Y-25192D01*
X43161Y-25133D01*
X42977Y-25145D01*
X42864Y-25192D01*
X42833Y-25264D01*
X43099Y-25531D01*
X43366Y-25264D01*
X43366Y-25405D01*
X43170Y-25601D01*
X43437Y-25868D01*
X43509Y-25837D01*
X43568Y-25662D01*
X43568Y-26038D01*
X43366Y-26093D01*
X43366Y-25939D01*
X43099Y-25672D01*
X43029Y-25743D01*
X43029Y-25601D01*
X42762Y-25334D01*
X42690Y-25366D01*
X42631Y-25540D01*
X42643Y-25724D01*
X42690Y-25837D01*
X42762Y-25868D01*
X43029Y-25601D01*
X43029Y-25743D01*
X42833Y-25939D01*
X42864Y-26011D01*
X43038Y-26070D01*
X43222Y-26058D01*
X43335Y-26011D01*
X43366Y-25939D01*
X43366Y-26093D01*
X42563Y-26314D01*
X42563Y-25863D01*
X42563Y-25273D01*
X42537Y-25211D01*
X42490Y-25164D01*
X42428Y-25138D01*
X42361Y-25138D01*
X41771Y-25138D01*
X41709Y-25163D01*
X41662Y-25211D01*
X41636Y-25272D01*
X41636Y-25339D01*
X41636Y-25679D01*
X41069Y-25806D01*
X41039Y-25776D01*
X40912Y-25723D01*
X40775Y-25723D01*
X40648Y-25776D01*
X40551Y-25873D01*
X40498Y-25999D01*
X40498Y-26137D01*
X40551Y-26264D01*
X40648Y-26361D01*
X40775Y-26414D01*
X40912Y-26414D01*
X41039Y-26361D01*
X41136Y-26264D01*
X41158Y-26211D01*
X41811Y-26065D01*
X41837Y-26065D01*
X42428Y-26065D01*
X42490Y-26039D01*
X42537Y-25992D01*
X42563Y-25930D01*
X42563Y-25863D01*
X42563Y-26314D01*
X39803Y-27075D01*
X39785Y-27056D01*
X39658Y-27004D01*
X39521Y-27003D01*
X39394Y-27056D01*
X39297Y-27153D01*
X39244Y-27280D01*
X39244Y-27417D01*
X39296Y-27544D01*
X39393Y-27641D01*
X39520Y-27694D01*
X39578Y-27694D01*
X39578Y-27751D01*
X39630Y-27878D01*
X39727Y-27975D01*
X39854Y-28028D01*
X39992Y-28028D01*
X40119Y-27976D01*
X40216Y-27879D01*
X40248Y-27800D01*
X44919Y-26363D01*
X42691Y-27608D01*
X42684Y-27614D01*
X42676Y-27617D01*
X42458Y-27764D01*
X42413Y-27746D01*
X42276Y-27746D01*
X42149Y-27798D01*
X42052Y-27895D01*
X41999Y-28022D01*
X41999Y-28160D01*
X42051Y-28287D01*
X42148Y-28384D01*
X42275Y-28436D01*
X42413Y-28437D01*
X42540Y-28384D01*
X42628Y-28296D01*
X42638Y-28320D01*
X42735Y-28417D01*
X42770Y-28432D01*
X42335Y-28776D01*
X42313Y-28767D01*
X42175Y-28767D01*
X42048Y-28819D01*
X41951Y-28916D01*
X41899Y-29043D01*
X41898Y-29180D01*
X41951Y-29307D01*
X42048Y-29404D01*
X42175Y-29457D01*
X42312Y-29457D01*
X42439Y-29405D01*
X42536Y-29308D01*
X42589Y-29181D01*
X42589Y-29104D01*
X43198Y-28622D01*
X43204Y-28616D01*
X43207Y-28614D01*
X43594Y-28270D01*
X43629Y-28355D01*
X43726Y-28453D01*
X43853Y-28505D01*
X43990Y-28506D01*
X44117Y-28453D01*
X44215Y-28356D01*
X44267Y-28229D01*
X44267Y-28193D01*
X45885Y-27205D01*
X45945Y-27230D01*
X46082Y-27230D01*
X46209Y-27178D01*
X46307Y-27081D01*
X46359Y-26954D01*
X46359Y-26816D01*
X46308Y-26692D01*
X46433Y-26672D01*
X46478Y-26716D01*
X46605Y-26769D01*
X46742Y-26769D01*
X46834Y-26731D01*
X46786Y-26779D01*
X46733Y-26906D01*
X46733Y-27044D01*
X46785Y-27170D01*
X46883Y-27268D01*
X47009Y-27320D01*
X48178Y-28828D01*
X48178Y-28904D01*
X48231Y-29031D01*
X48328Y-29128D01*
X48455Y-29181D01*
X48592Y-29181D01*
X48719Y-29128D01*
X48816Y-29031D01*
X48849Y-28953D01*
X49598Y-28510D01*
X49727Y-28510D01*
X49854Y-28457D01*
X49951Y-28360D01*
X50003Y-28233D01*
X50004Y-28096D01*
X49951Y-27969D01*
X49854Y-27872D01*
X49727Y-27819D01*
X49590Y-27819D01*
X49463Y-27871D01*
X49366Y-27969D01*
X49333Y-28047D01*
X49321Y-28054D01*
X49321Y-27627D01*
X49321Y-27260D01*
X49321Y-27227D01*
X49321Y-27194D01*
X49321Y-26827D01*
X49321Y-26760D01*
X49295Y-26698D01*
X49248Y-26651D01*
X49186Y-26626D01*
X49029Y-26626D01*
X48987Y-26668D01*
X48987Y-26960D01*
X49279Y-26960D01*
X49321Y-26918D01*
X49321Y-26827D01*
X49321Y-27194D01*
X49321Y-27102D01*
X49279Y-27060D01*
X49190Y-27060D01*
X49186Y-27059D01*
X49029Y-27059D01*
X49027Y-27060D01*
X48987Y-27060D01*
X48987Y-27101D01*
X48987Y-27353D01*
X48987Y-27393D01*
X49027Y-27393D01*
X49029Y-27395D01*
X49186Y-27395D01*
X49190Y-27393D01*
X49279Y-27393D01*
X49321Y-27351D01*
X49321Y-27260D01*
X49321Y-27627D01*
X49321Y-27535D01*
X49279Y-27493D01*
X48987Y-27493D01*
X48987Y-27786D01*
X49029Y-27828D01*
X49186Y-27828D01*
X49248Y-27803D01*
X49295Y-27755D01*
X49321Y-27694D01*
X49321Y-27627D01*
X49321Y-28054D01*
X48888Y-28310D01*
X48888Y-27627D01*
X48888Y-27260D01*
X48888Y-27227D01*
X48888Y-27194D01*
X48888Y-26827D01*
X48888Y-26760D01*
X48887Y-26757D01*
X48887Y-26668D01*
X48844Y-26626D01*
X48753Y-26626D01*
X48753Y-26626D01*
X48720Y-26626D01*
X48687Y-26626D01*
X48687Y-26626D01*
X48595Y-26626D01*
X48553Y-26668D01*
X48553Y-26757D01*
X48552Y-26760D01*
X48552Y-26827D01*
X48552Y-26918D01*
X48553Y-26920D01*
X48553Y-26960D01*
X48594Y-26960D01*
X48846Y-26960D01*
X48887Y-26960D01*
X48887Y-26920D01*
X48888Y-26918D01*
X48888Y-26827D01*
X48888Y-27194D01*
X48888Y-27102D01*
X48887Y-27101D01*
X48887Y-27060D01*
X48846Y-27060D01*
X48844Y-27059D01*
X48753Y-27059D01*
X48753Y-27059D01*
X48720Y-27059D01*
X48687Y-27059D01*
X48687Y-27059D01*
X48595Y-27059D01*
X48594Y-27060D01*
X48553Y-27060D01*
X48553Y-27101D01*
X48552Y-27102D01*
X48552Y-27194D01*
X48552Y-27227D01*
X48552Y-27260D01*
X48552Y-27351D01*
X48553Y-27353D01*
X48553Y-27393D01*
X48594Y-27393D01*
X48595Y-27395D01*
X48687Y-27395D01*
X48687Y-27395D01*
X48720Y-27395D01*
X48753Y-27395D01*
X48753Y-27395D01*
X48844Y-27395D01*
X48846Y-27393D01*
X48887Y-27393D01*
X48887Y-27353D01*
X48888Y-27351D01*
X48888Y-27260D01*
X48888Y-27627D01*
X48888Y-27535D01*
X48887Y-27534D01*
X48887Y-27493D01*
X48846Y-27493D01*
X48594Y-27493D01*
X48553Y-27493D01*
X48553Y-27534D01*
X48552Y-27535D01*
X48552Y-27627D01*
X48552Y-27694D01*
X48553Y-27697D01*
X48553Y-27786D01*
X48595Y-27828D01*
X48687Y-27828D01*
X48687Y-27828D01*
X48720Y-27828D01*
X48753Y-27828D01*
X48753Y-27828D01*
X48844Y-27828D01*
X48887Y-27786D01*
X48887Y-27697D01*
X48888Y-27694D01*
X48888Y-27627D01*
X48888Y-28310D01*
X48589Y-28487D01*
X48453Y-28313D01*
X48453Y-27786D01*
X48453Y-27493D01*
X48453Y-27393D01*
X48453Y-27353D01*
X48453Y-27101D01*
X48453Y-27060D01*
X48453Y-26960D01*
X48453Y-26668D01*
X48411Y-26626D01*
X48254Y-26626D01*
X48192Y-26651D01*
X48144Y-26698D01*
X48119Y-26760D01*
X48119Y-26827D01*
X48119Y-26918D01*
X48161Y-26960D01*
X48453Y-26960D01*
X48453Y-27060D01*
X48413Y-27060D01*
X48411Y-27059D01*
X48254Y-27059D01*
X48250Y-27060D01*
X48161Y-27060D01*
X48119Y-27102D01*
X48119Y-27194D01*
X48119Y-27227D01*
X48119Y-27260D01*
X48119Y-27351D01*
X48161Y-27393D01*
X48250Y-27393D01*
X48254Y-27395D01*
X48411Y-27395D01*
X48413Y-27393D01*
X48453Y-27393D01*
X48453Y-27493D01*
X48161Y-27493D01*
X48119Y-27535D01*
X48119Y-27627D01*
X48119Y-27694D01*
X48144Y-27755D01*
X48192Y-27803D01*
X48254Y-27828D01*
X48411Y-27828D01*
X48453Y-27786D01*
X48453Y-28313D01*
X47445Y-27012D01*
X47787Y-26719D01*
X47794Y-26710D01*
X47802Y-26705D01*
X48033Y-26474D01*
X48038Y-26466D01*
X48046Y-26460D01*
X48158Y-26331D01*
X48173Y-26331D01*
X48300Y-26278D01*
X48305Y-26274D01*
X49906Y-26436D01*
X49956Y-26487D01*
X50083Y-26539D01*
X50220Y-26539D01*
X50347Y-26487D01*
X50444Y-26390D01*
X50497Y-26263D01*
X50497Y-26126D01*
X50445Y-25999D01*
X50348Y-25901D01*
X50221Y-25849D01*
X50083Y-25849D01*
X49957Y-25901D01*
X49952Y-25905D01*
X49120Y-25821D01*
X54146Y-25856D01*
X54159Y-25860D01*
X54584Y-25904D01*
X54600Y-25903D01*
X54613Y-25905D01*
X56576Y-25836D01*
X56588Y-25833D01*
X56599Y-25834D01*
X57968Y-25632D01*
X58015Y-25679D01*
X58142Y-25732D01*
X58279Y-25732D01*
X58406Y-25679D01*
X58503Y-25582D01*
X58556Y-25455D01*
X58556Y-25318D01*
X58504Y-25191D01*
X58437Y-25125D01*
X61252Y-25125D01*
X61252Y-25898D01*
X60730Y-25898D01*
X60688Y-25940D01*
X60688Y-26410D01*
X60696Y-26410D01*
X60696Y-26510D01*
X60688Y-26510D01*
X60688Y-26980D01*
X60730Y-27022D01*
X61252Y-27022D01*
X61252Y-27079D01*
X60730Y-27079D01*
X60688Y-27121D01*
X60688Y-27591D01*
X61355Y-27591D01*
X61397Y-27549D01*
X61397Y-27386D01*
X61403Y-27389D01*
X61446Y-27398D01*
X61446Y-27877D01*
M02*
