G04 (created by PCBNEW (2013-07-07 BZR 4022)-stable) date 06/12/2014 00:31:43*
%MOIN*%
G04 Gerber Fmt 3.4, Leading zero omitted, Abs format*
%FSLAX34Y34*%
G01*
G70*
G90*
G04 APERTURE LIST*
%ADD10C,0.00590551*%
%ADD11C,0.00787402*%
%ADD12C,0.005*%
%ADD13C,0.0079*%
%ADD14C,0.0059*%
%ADD15C,0.00625*%
%ADD16C,0.0063*%
%ADD17C,0.0001*%
G04 APERTURE END LIST*
G54D10*
G54D11*
X70314Y-75275D02*
X72992Y-75275D01*
X70000Y-74960D02*
X70314Y-75275D01*
X69527Y-74960D02*
X70000Y-74960D01*
X69133Y-75196D02*
X69527Y-74960D01*
X68582Y-75196D02*
X69133Y-75196D01*
X68188Y-75433D02*
X68582Y-75196D01*
X63070Y-77401D02*
X63070Y-83543D01*
X65275Y-75748D02*
X67480Y-75748D01*
X71496Y-80393D02*
X70314Y-80393D01*
X73149Y-80393D02*
X72125Y-80393D01*
X75118Y-80393D02*
X73700Y-80393D01*
X78425Y-79448D02*
X78425Y-80000D01*
X78425Y-77716D02*
X78425Y-78188D01*
X78188Y-77952D02*
X78661Y-77952D01*
X80157Y-76614D02*
X80629Y-76614D01*
X79763Y-76220D02*
X80157Y-76614D01*
X78031Y-76220D02*
X79763Y-76220D01*
X74094Y-75590D02*
X73149Y-75590D01*
X74251Y-75826D02*
X74094Y-75590D01*
X74724Y-75905D02*
X74251Y-75826D01*
X75118Y-76220D02*
X74724Y-75905D01*
X72992Y-73937D02*
X72992Y-75433D01*
X74645Y-72834D02*
X72992Y-73937D01*
X74645Y-72834D02*
X77322Y-72834D01*
X74645Y-72125D02*
X74645Y-72834D01*
X75196Y-71102D02*
X74645Y-72125D01*
X77007Y-71102D02*
X75196Y-71102D01*
X65433Y-76771D02*
X65118Y-76929D01*
X65433Y-76771D02*
X65039Y-76771D01*
X64803Y-76929D02*
X65433Y-76771D01*
X64803Y-77401D02*
X64803Y-76535D01*
X61732Y-77401D02*
X64803Y-77401D01*
X61732Y-76535D02*
X61732Y-77401D01*
X65196Y-74566D02*
X65039Y-74960D01*
X65196Y-74566D02*
X64803Y-74881D01*
X64488Y-75511D02*
X65196Y-74566D01*
X64094Y-74566D02*
X63937Y-74881D01*
X64094Y-74566D02*
X63779Y-74724D01*
X63149Y-75511D02*
X64094Y-74566D01*
X65275Y-76535D02*
X63622Y-76535D01*
X65275Y-75511D02*
X65275Y-76535D01*
X63622Y-75511D02*
X65275Y-75511D01*
X61732Y-76535D02*
X61732Y-75511D01*
X63622Y-76535D02*
X61732Y-76535D01*
X63622Y-75511D02*
X63622Y-76535D01*
X61732Y-75511D02*
X63622Y-75511D01*
G54D10*
X80708Y-72401D02*
X80708Y-73307D01*
X80708Y-73307D02*
X77677Y-73307D01*
X77677Y-73307D02*
X77007Y-72322D01*
X77007Y-72322D02*
X77007Y-69409D01*
X77007Y-69409D02*
X77677Y-68425D01*
X77677Y-68425D02*
X80708Y-68425D01*
X80708Y-68425D02*
X80708Y-69330D01*
X80708Y-72401D02*
X78503Y-72401D01*
X78503Y-72401D02*
X78503Y-69330D01*
X78503Y-69330D02*
X80708Y-69330D01*
X75098Y-82874D02*
X75098Y-76181D01*
X75098Y-76181D02*
X78051Y-76181D01*
X78051Y-76181D02*
X78051Y-82874D01*
X78051Y-82874D02*
X75098Y-82874D01*
G54D12*
X75560Y-65819D02*
X74360Y-65819D01*
X74360Y-65819D02*
X74360Y-65519D01*
X74360Y-65519D02*
X75560Y-65519D01*
X75560Y-65519D02*
X75560Y-65819D01*
X71919Y-76621D02*
X73119Y-76621D01*
X73119Y-76621D02*
X73119Y-76921D01*
X73119Y-76921D02*
X71919Y-76921D01*
X71919Y-76921D02*
X71919Y-76621D01*
X66111Y-63299D02*
X64911Y-63299D01*
X64911Y-63299D02*
X64911Y-62999D01*
X64911Y-62999D02*
X66111Y-62999D01*
X66111Y-62999D02*
X66111Y-63299D01*
X68788Y-63299D02*
X67588Y-63299D01*
X67588Y-63299D02*
X67588Y-62999D01*
X67588Y-62999D02*
X68788Y-62999D01*
X68788Y-62999D02*
X68788Y-63299D01*
X71466Y-63299D02*
X70266Y-63299D01*
X70266Y-63299D02*
X70266Y-62999D01*
X70266Y-62999D02*
X71466Y-62999D01*
X71466Y-62999D02*
X71466Y-63299D01*
X77453Y-67314D02*
X77453Y-67364D01*
X77453Y-67364D02*
X79553Y-67364D01*
X79553Y-65864D02*
X77453Y-65864D01*
X77453Y-65864D02*
X77453Y-67314D01*
X77453Y-66414D02*
X77653Y-66414D01*
X77653Y-66414D02*
X77653Y-66814D01*
X77653Y-66814D02*
X77453Y-66814D01*
X79553Y-65864D02*
X79553Y-67364D01*
G54D13*
X71693Y-79330D02*
X71693Y-79468D01*
X71693Y-79468D02*
X71732Y-79428D01*
X71752Y-78818D02*
X71752Y-79251D01*
X71752Y-79251D02*
X71240Y-79251D01*
X71240Y-79251D02*
X71240Y-78385D01*
X71240Y-78385D02*
X71752Y-78385D01*
X71752Y-78385D02*
X71752Y-78818D01*
G54D10*
X71968Y-75787D02*
X71968Y-75472D01*
X71968Y-75472D02*
X73149Y-75472D01*
X73149Y-75472D02*
X73149Y-76102D01*
X73149Y-76102D02*
X71968Y-76102D01*
X71968Y-76102D02*
X71968Y-75787D01*
X74330Y-81692D02*
X74015Y-81692D01*
X74015Y-81692D02*
X74015Y-80511D01*
X74015Y-80511D02*
X74645Y-80511D01*
X74645Y-80511D02*
X74645Y-81692D01*
X74645Y-81692D02*
X74330Y-81692D01*
X64606Y-73543D02*
X64606Y-73858D01*
X64606Y-73858D02*
X63425Y-73858D01*
X63425Y-73858D02*
X63425Y-73228D01*
X63425Y-73228D02*
X64606Y-73228D01*
X64606Y-73228D02*
X64606Y-73543D01*
X75236Y-71929D02*
X75236Y-71614D01*
X75236Y-71614D02*
X76417Y-71614D01*
X76417Y-71614D02*
X76417Y-72244D01*
X76417Y-72244D02*
X75236Y-72244D01*
X75236Y-72244D02*
X75236Y-71929D01*
X63110Y-73858D02*
X63425Y-73858D01*
X63425Y-73858D02*
X63425Y-75039D01*
X63425Y-75039D02*
X62795Y-75039D01*
X62795Y-75039D02*
X62795Y-73858D01*
X62795Y-73858D02*
X63110Y-73858D01*
X63110Y-68188D02*
X62795Y-68188D01*
X62795Y-68188D02*
X62795Y-67007D01*
X62795Y-67007D02*
X63425Y-67007D01*
X63425Y-67007D02*
X63425Y-68188D01*
X63425Y-68188D02*
X63110Y-68188D01*
X65787Y-72913D02*
X65787Y-73228D01*
X65787Y-73228D02*
X64606Y-73228D01*
X64606Y-73228D02*
X64606Y-72598D01*
X64606Y-72598D02*
X65787Y-72598D01*
X65787Y-72598D02*
X65787Y-72913D01*
X74173Y-76023D02*
X74488Y-76023D01*
X74488Y-76023D02*
X74488Y-77204D01*
X74488Y-77204D02*
X73858Y-77204D01*
X73858Y-77204D02*
X73858Y-76023D01*
X73858Y-76023D02*
X74173Y-76023D01*
X73543Y-77204D02*
X73228Y-77204D01*
X73228Y-77204D02*
X73228Y-76023D01*
X73228Y-76023D02*
X73858Y-76023D01*
X73858Y-76023D02*
X73858Y-77204D01*
X73858Y-77204D02*
X73543Y-77204D01*
X72362Y-81692D02*
X72047Y-81692D01*
X72047Y-81692D02*
X72047Y-80511D01*
X72047Y-80511D02*
X72677Y-80511D01*
X72677Y-80511D02*
X72677Y-81692D01*
X72677Y-81692D02*
X72362Y-81692D01*
X71299Y-81692D02*
X70984Y-81692D01*
X70984Y-81692D02*
X70984Y-80511D01*
X70984Y-80511D02*
X71614Y-80511D01*
X71614Y-80511D02*
X71614Y-81692D01*
X71614Y-81692D02*
X71299Y-81692D01*
X66535Y-62559D02*
X66850Y-62559D01*
X66850Y-62559D02*
X66850Y-63740D01*
X66850Y-63740D02*
X66220Y-63740D01*
X66220Y-63740D02*
X66220Y-62559D01*
X66220Y-62559D02*
X66535Y-62559D01*
X64488Y-62559D02*
X64803Y-62559D01*
X64803Y-62559D02*
X64803Y-63740D01*
X64803Y-63740D02*
X64173Y-63740D01*
X64173Y-63740D02*
X64173Y-62559D01*
X64173Y-62559D02*
X64488Y-62559D01*
X69212Y-62559D02*
X69527Y-62559D01*
X69527Y-62559D02*
X69527Y-63740D01*
X69527Y-63740D02*
X68897Y-63740D01*
X68897Y-63740D02*
X68897Y-62559D01*
X68897Y-62559D02*
X69212Y-62559D01*
X69842Y-62559D02*
X70157Y-62559D01*
X70157Y-62559D02*
X70157Y-63740D01*
X70157Y-63740D02*
X69527Y-63740D01*
X69527Y-63740D02*
X69527Y-62559D01*
X69527Y-62559D02*
X69842Y-62559D01*
X67165Y-62559D02*
X67480Y-62559D01*
X67480Y-62559D02*
X67480Y-63740D01*
X67480Y-63740D02*
X66850Y-63740D01*
X66850Y-63740D02*
X66850Y-62559D01*
X66850Y-62559D02*
X67165Y-62559D01*
X67440Y-66377D02*
X67440Y-66692D01*
X67440Y-66692D02*
X66259Y-66692D01*
X66259Y-66692D02*
X66259Y-66062D01*
X66259Y-66062D02*
X67440Y-66062D01*
X67440Y-66062D02*
X67440Y-66377D01*
X67440Y-65748D02*
X67440Y-66062D01*
X67440Y-66062D02*
X66259Y-66062D01*
X66259Y-66062D02*
X66259Y-65433D01*
X66259Y-65433D02*
X67440Y-65433D01*
X67440Y-65433D02*
X67440Y-65748D01*
X67440Y-65118D02*
X67440Y-65433D01*
X67440Y-65433D02*
X66259Y-65433D01*
X66259Y-65433D02*
X66259Y-64803D01*
X66259Y-64803D02*
X67440Y-64803D01*
X67440Y-64803D02*
X67440Y-65118D01*
X70968Y-67582D02*
X70746Y-67805D01*
X70746Y-67805D02*
X69910Y-66970D01*
X69910Y-66970D02*
X70356Y-66525D01*
X70356Y-66525D02*
X71191Y-67360D01*
X71191Y-67360D02*
X70968Y-67582D01*
X69606Y-76889D02*
X69921Y-76889D01*
X69921Y-76889D02*
X69921Y-78070D01*
X69921Y-78070D02*
X69291Y-78070D01*
X69291Y-78070D02*
X69291Y-76889D01*
X69291Y-76889D02*
X69606Y-76889D01*
X74803Y-74488D02*
X74803Y-74173D01*
X74803Y-74173D02*
X75984Y-74173D01*
X75984Y-74173D02*
X75984Y-74803D01*
X75984Y-74803D02*
X74803Y-74803D01*
X74803Y-74803D02*
X74803Y-74488D01*
X74803Y-75118D02*
X74803Y-74803D01*
X74803Y-74803D02*
X75984Y-74803D01*
X75984Y-74803D02*
X75984Y-75433D01*
X75984Y-75433D02*
X74803Y-75433D01*
X74803Y-75433D02*
X74803Y-75118D01*
X70236Y-76889D02*
X70551Y-76889D01*
X70551Y-76889D02*
X70551Y-78070D01*
X70551Y-78070D02*
X69921Y-78070D01*
X69921Y-78070D02*
X69921Y-76889D01*
X69921Y-76889D02*
X70236Y-76889D01*
X64724Y-70275D02*
X64724Y-70157D01*
X65000Y-70196D02*
X64724Y-70078D01*
X64724Y-70078D02*
X64724Y-70354D01*
X64724Y-70354D02*
X64685Y-70393D01*
X64685Y-70393D02*
X64685Y-70039D01*
X64685Y-70039D02*
X65039Y-70196D01*
X65039Y-70196D02*
X64685Y-70393D01*
X64685Y-70393D02*
X64763Y-70118D01*
X64763Y-70118D02*
X64960Y-70236D01*
X64960Y-70236D02*
X64763Y-70314D01*
X64763Y-70314D02*
X64803Y-70157D01*
X64803Y-70157D02*
X64881Y-70236D01*
X64881Y-70236D02*
X64803Y-70236D01*
X65511Y-70000D02*
X65629Y-69881D01*
X65629Y-69881D02*
X65551Y-69881D01*
X65551Y-69881D02*
X65551Y-69921D01*
X65551Y-69921D02*
X65669Y-69881D01*
G54D12*
X65728Y-69842D02*
X65511Y-70059D01*
X68031Y-72362D02*
X65511Y-72362D01*
X65511Y-72362D02*
X65511Y-69842D01*
X65511Y-69842D02*
X68031Y-69842D01*
X68031Y-69842D02*
X68031Y-72362D01*
G54D14*
X77637Y-60118D02*
X72283Y-60118D01*
X73385Y-62125D02*
G75*
G03X72991Y-62519I0J-394D01*
G74*
G01*
X72991Y-62519D02*
G75*
G03X73385Y-62913I394J0D01*
G74*
G01*
X76535Y-62913D02*
G75*
G03X76929Y-62519I0J394D01*
G74*
G01*
X76928Y-62519D02*
G75*
G03X76535Y-62126I-393J0D01*
G74*
G01*
X73385Y-62913D02*
X76535Y-62913D01*
X76535Y-62126D02*
X73385Y-62126D01*
X77637Y-64252D02*
G75*
G03X72283Y-64252I-2677J-2677D01*
G74*
G01*
X77637Y-64252D02*
X72283Y-64252D01*
X72283Y-64252D02*
X72283Y-58582D01*
X72283Y-58582D02*
X77637Y-58582D01*
X77637Y-58582D02*
X77637Y-64252D01*
X71969Y-66691D02*
X72359Y-67081D01*
X72359Y-67081D02*
X72304Y-66802D01*
X72359Y-67415D02*
X72916Y-67415D01*
X72637Y-67136D02*
X75422Y-69921D01*
X75422Y-69921D02*
X72637Y-72705D01*
X72637Y-72705D02*
X69853Y-69921D01*
X69853Y-69921D02*
X72637Y-67136D01*
G54D12*
X68188Y-80964D02*
X65472Y-80964D01*
X65472Y-80964D02*
X65472Y-78425D01*
X65492Y-78425D02*
X65669Y-78248D01*
X65669Y-78248D02*
X68208Y-78248D01*
X68208Y-78248D02*
X68208Y-80945D01*
X66063Y-78622D02*
G75*
G03X66063Y-78622I-197J0D01*
G74*
G01*
G54D10*
X65787Y-66338D02*
X65393Y-66732D01*
G54D14*
X65669Y-65748D02*
G75*
G03X65669Y-65748I-866J0D01*
G74*
G01*
X63819Y-66732D02*
X63819Y-64764D01*
X63819Y-64764D02*
X65787Y-64764D01*
X65787Y-64764D02*
X65787Y-66732D01*
X65787Y-66732D02*
X63819Y-66732D01*
G54D10*
X63165Y-69621D02*
X63373Y-69412D01*
X63373Y-69412D02*
X64209Y-70248D01*
X64209Y-70248D02*
X63791Y-70665D01*
X63791Y-70665D02*
X62956Y-69830D01*
X62956Y-69830D02*
X63165Y-69621D01*
X64000Y-71590D02*
X64209Y-71799D01*
X64209Y-71799D02*
X63373Y-72634D01*
X63373Y-72634D02*
X62956Y-72216D01*
X62956Y-72216D02*
X63791Y-71381D01*
X63791Y-71381D02*
X64000Y-71590D01*
X76653Y-73582D02*
X76732Y-73661D01*
X76732Y-73661D02*
X76496Y-73661D01*
G54D14*
X76692Y-73858D02*
X76811Y-73739D01*
G54D12*
X77874Y-74921D02*
X76692Y-74921D01*
X76692Y-74921D02*
X76692Y-73739D01*
X76692Y-73739D02*
X77874Y-73739D01*
X77874Y-73739D02*
X77874Y-74921D01*
G54D14*
X66023Y-74389D02*
X66121Y-74488D01*
X67991Y-73228D02*
X67991Y-74488D01*
X67991Y-74488D02*
X66023Y-74488D01*
X66023Y-74488D02*
X66023Y-73228D01*
X66023Y-73228D02*
X67991Y-73228D01*
X70084Y-64873D02*
X69944Y-64872D01*
X69513Y-67086D02*
X68622Y-66195D01*
X68622Y-66195D02*
X70014Y-64803D01*
X70014Y-64803D02*
X70905Y-65694D01*
X70905Y-65694D02*
X69513Y-67086D01*
G54D11*
X79618Y-61385D02*
X79618Y-61285D01*
X79618Y-61285D02*
X80618Y-61285D01*
X80618Y-61285D02*
X80618Y-61385D01*
X80618Y-61385D02*
X80618Y-61335D01*
X80618Y-61335D02*
X79618Y-61335D01*
X80618Y-62385D02*
X79618Y-62385D01*
X80618Y-61385D02*
X80618Y-65385D01*
X80618Y-65385D02*
X79618Y-65385D01*
X79618Y-65385D02*
X79618Y-61385D01*
X79618Y-61385D02*
X80618Y-61385D01*
X70342Y-83338D02*
X70342Y-83438D01*
X70342Y-83438D02*
X69342Y-83438D01*
X69342Y-83438D02*
X69342Y-83338D01*
X69342Y-83338D02*
X69342Y-83388D01*
X69342Y-83388D02*
X70342Y-83388D01*
X69342Y-82338D02*
X70342Y-82338D01*
X69342Y-83338D02*
X69342Y-79338D01*
X69342Y-79338D02*
X70342Y-79338D01*
X70342Y-79338D02*
X70342Y-83338D01*
X70342Y-83338D02*
X69342Y-83338D01*
X78240Y-61245D02*
X78240Y-61295D01*
X79240Y-61295D02*
X79240Y-61195D01*
X79240Y-61195D02*
X78240Y-61195D01*
X78240Y-61195D02*
X78240Y-61245D01*
X78240Y-61245D02*
X79190Y-61245D01*
X78240Y-64295D02*
X78240Y-61295D01*
X79240Y-61295D02*
X79240Y-64295D01*
X79240Y-62295D02*
X78240Y-62295D01*
X79240Y-64295D02*
X78240Y-64295D01*
X78240Y-61295D02*
X79240Y-61295D01*
X80618Y-73488D02*
X80618Y-75488D01*
X79618Y-73488D02*
X79618Y-75488D01*
X80618Y-75538D02*
X80618Y-75488D01*
X79618Y-75488D02*
X79618Y-75588D01*
X79618Y-75588D02*
X80618Y-75588D01*
X80618Y-75588D02*
X80618Y-75538D01*
X80618Y-75538D02*
X79668Y-75538D01*
X79618Y-74488D02*
X80618Y-74488D01*
X79618Y-73488D02*
X80618Y-73488D01*
X80618Y-75488D02*
X79618Y-75488D01*
X70708Y-82755D02*
X70708Y-86062D01*
X70708Y-86062D02*
X74960Y-86062D01*
X74960Y-86062D02*
X74960Y-82755D01*
X73936Y-82125D02*
X73779Y-82125D01*
X72755Y-82125D02*
X72913Y-82125D01*
X71732Y-82125D02*
X71889Y-82125D01*
X70708Y-82125D02*
X70944Y-82125D01*
X70708Y-82125D02*
X70708Y-82755D01*
X70708Y-82755D02*
X74960Y-82755D01*
X74960Y-82755D02*
X74960Y-82125D01*
X74960Y-82125D02*
X74724Y-82125D01*
G54D10*
X64724Y-69330D02*
X64724Y-67834D01*
X64724Y-67834D02*
X65511Y-67834D01*
X65511Y-67834D02*
X65511Y-69330D01*
X65511Y-69330D02*
X64724Y-69330D01*
X68267Y-77204D02*
X68267Y-75708D01*
X68267Y-75708D02*
X69055Y-75708D01*
X69055Y-75708D02*
X69055Y-77204D01*
X69055Y-77204D02*
X68267Y-77204D01*
X72716Y-75196D02*
X71220Y-75196D01*
X71220Y-75196D02*
X71220Y-74409D01*
X71220Y-74409D02*
X72716Y-74409D01*
X72716Y-74409D02*
X72716Y-75196D01*
X68346Y-82086D02*
X68346Y-83582D01*
X68346Y-83582D02*
X67559Y-83582D01*
X67559Y-83582D02*
X67559Y-82086D01*
X67559Y-82086D02*
X68346Y-82086D01*
X69905Y-68527D02*
X69683Y-68750D01*
X69683Y-68750D02*
X68847Y-67915D01*
X68847Y-67915D02*
X69293Y-67469D01*
X69293Y-67469D02*
X70128Y-68305D01*
X70128Y-68305D02*
X69905Y-68527D01*
X69433Y-69000D02*
X69210Y-69222D01*
X69210Y-69222D02*
X68375Y-68387D01*
X68375Y-68387D02*
X68820Y-67942D01*
X68820Y-67942D02*
X69656Y-68777D01*
X69656Y-68777D02*
X69433Y-69000D01*
X66929Y-82086D02*
X67244Y-82086D01*
X67244Y-82086D02*
X67244Y-83267D01*
X67244Y-83267D02*
X66614Y-83267D01*
X66614Y-83267D02*
X66614Y-82086D01*
X66614Y-82086D02*
X66929Y-82086D01*
X73519Y-66511D02*
X73742Y-66288D01*
X73742Y-66288D02*
X74577Y-67124D01*
X74577Y-67124D02*
X74131Y-67569D01*
X74131Y-67569D02*
X73296Y-66734D01*
X73296Y-66734D02*
X73519Y-66511D01*
X64094Y-79881D02*
X63779Y-79881D01*
X63779Y-79881D02*
X63779Y-78700D01*
X63779Y-78700D02*
X64409Y-78700D01*
X64409Y-78700D02*
X64409Y-79881D01*
X64409Y-79881D02*
X64094Y-79881D01*
X69945Y-71834D02*
X69722Y-72057D01*
X69722Y-72057D02*
X68887Y-71222D01*
X68887Y-71222D02*
X69332Y-70777D01*
X69332Y-70777D02*
X70167Y-71612D01*
X70167Y-71612D02*
X69945Y-71834D01*
X78897Y-74921D02*
X78582Y-74921D01*
X78582Y-74921D02*
X78582Y-73740D01*
X78582Y-73740D02*
X79212Y-73740D01*
X79212Y-73740D02*
X79212Y-74921D01*
X79212Y-74921D02*
X78897Y-74921D01*
X73622Y-75118D02*
X73622Y-74803D01*
X73622Y-74803D02*
X74803Y-74803D01*
X74803Y-74803D02*
X74803Y-75433D01*
X74803Y-75433D02*
X73622Y-75433D01*
X73622Y-75433D02*
X73622Y-75118D01*
X73622Y-74488D02*
X73622Y-74173D01*
X73622Y-74173D02*
X74803Y-74173D01*
X74803Y-74173D02*
X74803Y-74803D01*
X74803Y-74803D02*
X73622Y-74803D01*
X73622Y-74803D02*
X73622Y-74488D01*
X74803Y-73858D02*
X74803Y-73543D01*
X74803Y-73543D02*
X75984Y-73543D01*
X75984Y-73543D02*
X75984Y-74173D01*
X75984Y-74173D02*
X74803Y-74173D01*
X74803Y-74173D02*
X74803Y-73858D01*
X65826Y-77204D02*
X65511Y-77204D01*
X65511Y-77204D02*
X65511Y-76023D01*
X65511Y-76023D02*
X66141Y-76023D01*
X66141Y-76023D02*
X66141Y-77204D01*
X66141Y-77204D02*
X65826Y-77204D01*
X71834Y-66716D02*
X71612Y-66939D01*
X71612Y-66939D02*
X70777Y-66104D01*
X70777Y-66104D02*
X71222Y-65658D01*
X71222Y-65658D02*
X72057Y-66494D01*
X72057Y-66494D02*
X71834Y-66716D01*
X65984Y-82086D02*
X66299Y-82086D01*
X66299Y-82086D02*
X66299Y-83267D01*
X66299Y-83267D02*
X65669Y-83267D01*
X65669Y-83267D02*
X65669Y-82086D01*
X65669Y-82086D02*
X65984Y-82086D01*
X76968Y-66102D02*
X77283Y-66102D01*
X77283Y-66102D02*
X77283Y-67283D01*
X77283Y-67283D02*
X76653Y-67283D01*
X76653Y-67283D02*
X76653Y-66102D01*
X76653Y-66102D02*
X76968Y-66102D01*
X66456Y-77204D02*
X66141Y-77204D01*
X66141Y-77204D02*
X66141Y-76023D01*
X66141Y-76023D02*
X66771Y-76023D01*
X66771Y-76023D02*
X66771Y-77204D01*
X66771Y-77204D02*
X66456Y-77204D01*
X72165Y-73228D02*
X72480Y-73228D01*
X72480Y-73228D02*
X72480Y-74409D01*
X72480Y-74409D02*
X71850Y-74409D01*
X71850Y-74409D02*
X71850Y-73228D01*
X71850Y-73228D02*
X72165Y-73228D01*
X67086Y-77204D02*
X66771Y-77204D01*
X66771Y-77204D02*
X66771Y-76023D01*
X66771Y-76023D02*
X67401Y-76023D01*
X67401Y-76023D02*
X67401Y-77204D01*
X67401Y-77204D02*
X67086Y-77204D01*
X67952Y-77204D02*
X67637Y-77204D01*
X67637Y-77204D02*
X67637Y-76023D01*
X67637Y-76023D02*
X68267Y-76023D01*
X68267Y-76023D02*
X68267Y-77204D01*
X68267Y-77204D02*
X67952Y-77204D01*
X63425Y-69015D02*
X63425Y-68700D01*
X63425Y-68700D02*
X64606Y-68700D01*
X64606Y-68700D02*
X64606Y-69330D01*
X64606Y-69330D02*
X63425Y-69330D01*
X63425Y-69330D02*
X63425Y-69015D01*
X70409Y-64464D02*
X70631Y-64241D01*
X70631Y-64241D02*
X71467Y-65076D01*
X71467Y-65076D02*
X71021Y-65522D01*
X71021Y-65522D02*
X70186Y-64687D01*
X70186Y-64687D02*
X70409Y-64464D01*
X69079Y-67425D02*
X68856Y-67648D01*
X68856Y-67648D02*
X68021Y-66813D01*
X68021Y-66813D02*
X68466Y-66367D01*
X68466Y-66367D02*
X69301Y-67202D01*
X69301Y-67202D02*
X69079Y-67425D01*
X69606Y-75708D02*
X69921Y-75708D01*
X69921Y-75708D02*
X69921Y-76889D01*
X69921Y-76889D02*
X69291Y-76889D01*
X69291Y-76889D02*
X69291Y-75708D01*
X69291Y-75708D02*
X69606Y-75708D01*
X70236Y-75708D02*
X70551Y-75708D01*
X70551Y-75708D02*
X70551Y-76889D01*
X70551Y-76889D02*
X69921Y-76889D01*
X69921Y-76889D02*
X69921Y-75708D01*
X69921Y-75708D02*
X70236Y-75708D01*
X72165Y-79842D02*
X72165Y-80157D01*
X72165Y-80157D02*
X70984Y-80157D01*
X70984Y-80157D02*
X70984Y-79527D01*
X70984Y-79527D02*
X72165Y-79527D01*
X72165Y-79527D02*
X72165Y-79842D01*
X70984Y-77795D02*
X70984Y-77480D01*
X70984Y-77480D02*
X72165Y-77480D01*
X72165Y-77480D02*
X72165Y-78110D01*
X72165Y-78110D02*
X70984Y-78110D01*
X70984Y-78110D02*
X70984Y-77795D01*
X65787Y-73543D02*
X65787Y-73858D01*
X65787Y-73858D02*
X64606Y-73858D01*
X64606Y-73858D02*
X64606Y-73228D01*
X64606Y-73228D02*
X65787Y-73228D01*
X65787Y-73228D02*
X65787Y-73543D01*
X76062Y-70433D02*
X75748Y-70433D01*
X75748Y-70433D02*
X75748Y-69251D01*
X75748Y-69251D02*
X76377Y-69251D01*
X76377Y-69251D02*
X76377Y-70433D01*
X76377Y-70433D02*
X76062Y-70433D01*
X71535Y-73228D02*
X71850Y-73228D01*
X71850Y-73228D02*
X71850Y-74409D01*
X71850Y-74409D02*
X71220Y-74409D01*
X71220Y-74409D02*
X71220Y-73228D01*
X71220Y-73228D02*
X71535Y-73228D01*
X64606Y-74173D02*
X64606Y-74488D01*
X64606Y-74488D02*
X63425Y-74488D01*
X63425Y-74488D02*
X63425Y-73858D01*
X63425Y-73858D02*
X64606Y-73858D01*
X64606Y-73858D02*
X64606Y-74173D01*
X63425Y-67874D02*
X63425Y-67559D01*
X63425Y-67559D02*
X64606Y-67559D01*
X64606Y-67559D02*
X64606Y-68188D01*
X64606Y-68188D02*
X63425Y-68188D01*
X63425Y-68188D02*
X63425Y-67874D01*
X63110Y-73858D02*
X62795Y-73858D01*
X62795Y-73858D02*
X62795Y-72677D01*
X62795Y-72677D02*
X63425Y-72677D01*
X63425Y-72677D02*
X63425Y-73858D01*
X63425Y-73858D02*
X63110Y-73858D01*
X63110Y-68188D02*
X63425Y-68188D01*
X63425Y-68188D02*
X63425Y-69370D01*
X63425Y-69370D02*
X62795Y-69370D01*
X62795Y-69370D02*
X62795Y-68188D01*
X62795Y-68188D02*
X63110Y-68188D01*
X64606Y-72913D02*
X64606Y-73228D01*
X64606Y-73228D02*
X63425Y-73228D01*
X63425Y-73228D02*
X63425Y-72598D01*
X63425Y-72598D02*
X64606Y-72598D01*
X64606Y-72598D02*
X64606Y-72913D01*
X75157Y-64724D02*
X75157Y-65039D01*
X75157Y-65039D02*
X73976Y-65039D01*
X73976Y-65039D02*
X73976Y-64409D01*
X73976Y-64409D02*
X75157Y-64409D01*
X75157Y-64409D02*
X75157Y-64724D01*
X67047Y-74960D02*
X67047Y-74645D01*
X67047Y-74645D02*
X68228Y-74645D01*
X68228Y-74645D02*
X68228Y-75275D01*
X68228Y-75275D02*
X67047Y-75275D01*
X67047Y-75275D02*
X67047Y-74960D01*
X67047Y-74960D02*
X67047Y-75275D01*
X67047Y-75275D02*
X65866Y-75275D01*
X65866Y-75275D02*
X65866Y-74645D01*
X65866Y-74645D02*
X67047Y-74645D01*
X67047Y-74645D02*
X67047Y-74960D01*
X65826Y-69330D02*
X65511Y-69330D01*
X65511Y-69330D02*
X65511Y-68149D01*
X65511Y-68149D02*
X66141Y-68149D01*
X66141Y-68149D02*
X66141Y-69330D01*
X66141Y-69330D02*
X65826Y-69330D01*
X66456Y-69330D02*
X66141Y-69330D01*
X66141Y-69330D02*
X66141Y-68149D01*
X66141Y-68149D02*
X66771Y-68149D01*
X66771Y-68149D02*
X66771Y-69330D01*
X66771Y-69330D02*
X66456Y-69330D01*
X65787Y-74173D02*
X65787Y-74488D01*
X65787Y-74488D02*
X64606Y-74488D01*
X64606Y-74488D02*
X64606Y-73858D01*
X64606Y-73858D02*
X65787Y-73858D01*
X65787Y-73858D02*
X65787Y-74173D01*
X76692Y-70826D02*
X76377Y-70826D01*
X76377Y-70826D02*
X76377Y-69645D01*
X76377Y-69645D02*
X77007Y-69645D01*
X77007Y-69645D02*
X77007Y-70826D01*
X77007Y-70826D02*
X76692Y-70826D01*
X64803Y-71023D02*
X64803Y-71338D01*
X64803Y-71338D02*
X63622Y-71338D01*
X63622Y-71338D02*
X63622Y-70708D01*
X63622Y-70708D02*
X64803Y-70708D01*
X64803Y-70708D02*
X64803Y-71023D01*
G54D12*
X68337Y-60472D02*
G75*
G03X68337Y-60472I-700J0D01*
G74*
G01*
X66437Y-61672D02*
X68837Y-61672D01*
X68837Y-61672D02*
X68837Y-59272D01*
X68837Y-59272D02*
X66437Y-59272D01*
X66437Y-59272D02*
X66437Y-61672D01*
X65424Y-60472D02*
G75*
G03X65424Y-60472I-700J0D01*
G74*
G01*
X63524Y-61672D02*
X65924Y-61672D01*
X65924Y-61672D02*
X65924Y-59272D01*
X65924Y-59272D02*
X63524Y-59272D01*
X63524Y-59272D02*
X63524Y-61672D01*
X73093Y-77938D02*
X73993Y-77938D01*
X73993Y-77938D02*
X73993Y-78438D01*
X73993Y-78438D02*
X73093Y-78438D01*
X73093Y-78438D02*
X73093Y-77938D01*
X73993Y-79777D02*
X73093Y-79777D01*
X73093Y-79777D02*
X73093Y-79277D01*
X73093Y-79277D02*
X73993Y-79277D01*
X73993Y-79277D02*
X73993Y-79777D01*
G54D13*
X73307Y-79291D02*
X73307Y-79763D01*
X73779Y-79527D02*
X73779Y-79291D01*
X73779Y-79291D02*
X73307Y-79527D01*
X73307Y-79527D02*
X73779Y-79763D01*
X73779Y-79763D02*
X73779Y-79527D01*
X74527Y-79921D02*
X74527Y-80118D01*
X74527Y-80118D02*
X72559Y-80118D01*
X72559Y-80118D02*
X72559Y-79921D01*
X72559Y-79133D02*
X72559Y-78936D01*
X72559Y-78936D02*
X74527Y-78936D01*
X74527Y-78936D02*
X74527Y-79133D01*
X73307Y-77952D02*
X73307Y-78424D01*
X73779Y-78188D02*
X73779Y-77952D01*
X73779Y-77952D02*
X73307Y-78188D01*
X73307Y-78188D02*
X73779Y-78424D01*
X73779Y-78424D02*
X73779Y-78188D01*
X74527Y-78582D02*
X74527Y-78779D01*
X74527Y-78779D02*
X72559Y-78779D01*
X72559Y-78779D02*
X72559Y-78582D01*
X72559Y-77794D02*
X72559Y-77597D01*
X72559Y-77597D02*
X74527Y-77597D01*
X74527Y-77597D02*
X74527Y-77794D01*
G54D10*
X63858Y-62559D02*
X64173Y-62559D01*
X64173Y-62559D02*
X64173Y-63740D01*
X64173Y-63740D02*
X63543Y-63740D01*
X63543Y-63740D02*
X63543Y-62559D01*
X63543Y-62559D02*
X63858Y-62559D01*
X60826Y-66299D02*
X60826Y-70236D01*
X60669Y-70078D02*
X60669Y-66456D01*
X59055Y-66299D02*
X59055Y-70236D01*
X59055Y-67480D02*
X59133Y-67480D01*
X59133Y-67480D02*
X59212Y-67480D01*
X59212Y-67480D02*
X59212Y-66456D01*
X59212Y-66456D02*
X60669Y-66456D01*
X60669Y-70078D02*
X59212Y-70078D01*
X59212Y-70078D02*
X59212Y-69055D01*
X59212Y-69055D02*
X59055Y-69055D01*
X59763Y-66299D02*
X60826Y-66299D01*
X60826Y-70236D02*
X59763Y-70236D01*
X59763Y-70236D02*
X59055Y-70236D01*
X59055Y-66299D02*
X59763Y-66299D01*
X49881Y-73070D02*
X49881Y-77007D01*
X49724Y-76850D02*
X49724Y-73228D01*
X48110Y-73070D02*
X48110Y-77007D01*
X48110Y-74251D02*
X48188Y-74251D01*
X48188Y-74251D02*
X48267Y-74251D01*
X48267Y-74251D02*
X48267Y-73228D01*
X48267Y-73228D02*
X49724Y-73228D01*
X49724Y-76850D02*
X48267Y-76850D01*
X48267Y-76850D02*
X48267Y-75826D01*
X48267Y-75826D02*
X48110Y-75826D01*
X48818Y-73070D02*
X49881Y-73070D01*
X49881Y-77007D02*
X48818Y-77007D01*
X48818Y-77007D02*
X48110Y-77007D01*
X48110Y-73070D02*
X48818Y-73070D01*
X60826Y-61811D02*
X60826Y-65748D01*
X60669Y-65590D02*
X60669Y-61968D01*
X59055Y-61811D02*
X59055Y-65748D01*
X59055Y-62992D02*
X59133Y-62992D01*
X59133Y-62992D02*
X59212Y-62992D01*
X59212Y-62992D02*
X59212Y-61968D01*
X59212Y-61968D02*
X60669Y-61968D01*
X60669Y-65590D02*
X59212Y-65590D01*
X59212Y-65590D02*
X59212Y-64566D01*
X59212Y-64566D02*
X59055Y-64566D01*
X59763Y-61811D02*
X60826Y-61811D01*
X60826Y-65748D02*
X59763Y-65748D01*
X59763Y-65748D02*
X59055Y-65748D01*
X59055Y-61811D02*
X59763Y-61811D01*
X49881Y-65196D02*
X49881Y-69133D01*
X49724Y-68976D02*
X49724Y-65354D01*
X48110Y-65196D02*
X48110Y-69133D01*
X48110Y-66377D02*
X48188Y-66377D01*
X48188Y-66377D02*
X48267Y-66377D01*
X48267Y-66377D02*
X48267Y-65354D01*
X48267Y-65354D02*
X49724Y-65354D01*
X49724Y-68976D02*
X48267Y-68976D01*
X48267Y-68976D02*
X48267Y-67952D01*
X48267Y-67952D02*
X48110Y-67952D01*
X48818Y-65196D02*
X49881Y-65196D01*
X49881Y-69133D02*
X48818Y-69133D01*
X48818Y-69133D02*
X48110Y-69133D01*
X48110Y-65196D02*
X48818Y-65196D01*
G54D12*
X71251Y-60472D02*
G75*
G03X71251Y-60472I-700J0D01*
G74*
G01*
X69351Y-61672D02*
X71751Y-61672D01*
X71751Y-61672D02*
X71751Y-59272D01*
X71751Y-59272D02*
X69351Y-59272D01*
X69351Y-59272D02*
X69351Y-61672D01*
G54D10*
X75674Y-79842D02*
X75686Y-79808D01*
X75686Y-79752D01*
X75674Y-79730D01*
X75663Y-79718D01*
X75641Y-79707D01*
X75618Y-79707D01*
X75596Y-79718D01*
X75584Y-79730D01*
X75573Y-79752D01*
X75562Y-79797D01*
X75551Y-79820D01*
X75539Y-79831D01*
X75517Y-79842D01*
X75494Y-79842D01*
X75472Y-79831D01*
X75461Y-79820D01*
X75449Y-79797D01*
X75449Y-79741D01*
X75461Y-79707D01*
X75449Y-79628D02*
X75686Y-79572D01*
X75517Y-79527D01*
X75686Y-79482D01*
X75449Y-79426D01*
X75686Y-79212D02*
X75686Y-79347D01*
X75686Y-79280D02*
X75449Y-79280D01*
X75483Y-79302D01*
X75506Y-79325D01*
X75517Y-79347D01*
X77741Y-79721D02*
X77753Y-79687D01*
X77753Y-79631D01*
X77741Y-79609D01*
X77730Y-79597D01*
X77708Y-79586D01*
X77685Y-79586D01*
X77663Y-79597D01*
X77651Y-79609D01*
X77640Y-79631D01*
X77629Y-79676D01*
X77618Y-79699D01*
X77606Y-79710D01*
X77584Y-79721D01*
X77561Y-79721D01*
X77539Y-79710D01*
X77528Y-79699D01*
X77516Y-79676D01*
X77516Y-79620D01*
X77528Y-79586D01*
X77741Y-79496D02*
X77753Y-79462D01*
X77753Y-79406D01*
X77741Y-79384D01*
X77730Y-79372D01*
X77708Y-79361D01*
X77685Y-79361D01*
X77663Y-79372D01*
X77651Y-79384D01*
X77640Y-79406D01*
X77629Y-79451D01*
X77618Y-79474D01*
X77606Y-79485D01*
X77584Y-79496D01*
X77561Y-79496D01*
X77539Y-79485D01*
X77528Y-79474D01*
X77516Y-79451D01*
X77516Y-79395D01*
X77528Y-79361D01*
X77753Y-79249D02*
X77753Y-79204D01*
X77741Y-79181D01*
X77730Y-79170D01*
X77696Y-79147D01*
X77651Y-79136D01*
X77561Y-79136D01*
X77539Y-79147D01*
X77528Y-79159D01*
X77516Y-79181D01*
X77516Y-79226D01*
X77528Y-79249D01*
X77539Y-79260D01*
X77561Y-79271D01*
X77618Y-79271D01*
X77640Y-79260D01*
X77651Y-79249D01*
X77663Y-79226D01*
X77663Y-79181D01*
X77651Y-79159D01*
X77640Y-79147D01*
X77618Y-79136D01*
G54D14*
X75551Y-65219D02*
X75539Y-65241D01*
X75517Y-65264D01*
X75483Y-65297D01*
X75472Y-65320D01*
X75472Y-65342D01*
X75528Y-65331D02*
X75517Y-65354D01*
X75494Y-65376D01*
X75449Y-65387D01*
X75371Y-65387D01*
X75326Y-65376D01*
X75303Y-65354D01*
X75292Y-65331D01*
X75292Y-65286D01*
X75303Y-65264D01*
X75326Y-65241D01*
X75371Y-65230D01*
X75449Y-65230D01*
X75494Y-65241D01*
X75517Y-65264D01*
X75528Y-65286D01*
X75528Y-65331D01*
X75528Y-65005D02*
X75528Y-65140D01*
X75528Y-65073D02*
X75292Y-65073D01*
X75326Y-65095D01*
X75348Y-65118D01*
X75360Y-65140D01*
X75922Y-66247D02*
X75686Y-66247D01*
X75922Y-66000D02*
X75809Y-66079D01*
X75922Y-66135D02*
X75686Y-66135D01*
X75686Y-66045D01*
X75697Y-66022D01*
X75708Y-66011D01*
X75731Y-66000D01*
X75764Y-66000D01*
X75787Y-66011D01*
X75798Y-66022D01*
X75809Y-66045D01*
X75809Y-66135D01*
X75922Y-65786D02*
X75922Y-65899D01*
X75686Y-65899D01*
X75922Y-65708D02*
X75686Y-65708D01*
X75854Y-65629D01*
X75686Y-65550D01*
X75922Y-65550D01*
X75922Y-65326D02*
X75922Y-65438D01*
X75686Y-65438D01*
X75922Y-65236D02*
X75922Y-65191D01*
X75911Y-65168D01*
X75899Y-65157D01*
X75866Y-65135D01*
X75821Y-65123D01*
X75731Y-65123D01*
X75708Y-65135D01*
X75697Y-65146D01*
X75686Y-65168D01*
X75686Y-65213D01*
X75697Y-65236D01*
X75708Y-65247D01*
X75731Y-65258D01*
X75787Y-65258D01*
X75809Y-65247D01*
X75821Y-65236D01*
X75832Y-65213D01*
X75832Y-65168D01*
X75821Y-65146D01*
X75809Y-65135D01*
X75787Y-65123D01*
X75686Y-65045D02*
X75686Y-64899D01*
X75776Y-64977D01*
X75776Y-64944D01*
X75787Y-64921D01*
X75798Y-64910D01*
X75821Y-64899D01*
X75877Y-64899D01*
X75899Y-64910D01*
X75911Y-64921D01*
X75922Y-64944D01*
X75922Y-65011D01*
X75911Y-65034D01*
X75899Y-65045D01*
X75686Y-64753D02*
X75686Y-64730D01*
X75697Y-64708D01*
X75708Y-64696D01*
X75731Y-64685D01*
X75776Y-64674D01*
X75832Y-64674D01*
X75877Y-64685D01*
X75899Y-64696D01*
X75911Y-64708D01*
X75922Y-64730D01*
X75922Y-64753D01*
X75911Y-64775D01*
X75899Y-64786D01*
X75877Y-64798D01*
X75832Y-64809D01*
X75776Y-64809D01*
X75731Y-64798D01*
X75708Y-64786D01*
X75697Y-64775D01*
X75686Y-64753D01*
X75686Y-64595D02*
X75686Y-64449D01*
X75776Y-64528D01*
X75776Y-64494D01*
X75787Y-64472D01*
X75798Y-64460D01*
X75821Y-64449D01*
X75877Y-64449D01*
X75899Y-64460D01*
X75911Y-64472D01*
X75922Y-64494D01*
X75922Y-64562D01*
X75911Y-64584D01*
X75899Y-64595D01*
X72497Y-76889D02*
X72474Y-76878D01*
X72452Y-76855D01*
X72418Y-76822D01*
X72396Y-76810D01*
X72373Y-76810D01*
X72384Y-76867D02*
X72362Y-76855D01*
X72339Y-76833D01*
X72328Y-76788D01*
X72328Y-76709D01*
X72339Y-76664D01*
X72362Y-76642D01*
X72384Y-76631D01*
X72429Y-76631D01*
X72452Y-76642D01*
X72474Y-76664D01*
X72485Y-76709D01*
X72485Y-76788D01*
X72474Y-76833D01*
X72452Y-76855D01*
X72429Y-76867D01*
X72384Y-76867D01*
X72575Y-76653D02*
X72587Y-76642D01*
X72609Y-76631D01*
X72665Y-76631D01*
X72688Y-76642D01*
X72699Y-76653D01*
X72710Y-76676D01*
X72710Y-76698D01*
X72699Y-76732D01*
X72564Y-76867D01*
X72710Y-76867D01*
X71704Y-77052D02*
X71715Y-77018D01*
X71726Y-77007D01*
X71749Y-76996D01*
X71782Y-76996D01*
X71805Y-77007D01*
X71816Y-77018D01*
X71827Y-77041D01*
X71827Y-77131D01*
X71591Y-77131D01*
X71591Y-77052D01*
X71603Y-77029D01*
X71614Y-77018D01*
X71636Y-77007D01*
X71659Y-77007D01*
X71681Y-77018D01*
X71692Y-77029D01*
X71704Y-77052D01*
X71704Y-77131D01*
X71805Y-76760D02*
X71816Y-76771D01*
X71827Y-76805D01*
X71827Y-76827D01*
X71816Y-76861D01*
X71794Y-76883D01*
X71771Y-76895D01*
X71726Y-76906D01*
X71692Y-76906D01*
X71647Y-76895D01*
X71625Y-76883D01*
X71603Y-76861D01*
X71591Y-76827D01*
X71591Y-76805D01*
X71603Y-76771D01*
X71614Y-76760D01*
X71692Y-76625D02*
X71681Y-76647D01*
X71670Y-76659D01*
X71647Y-76670D01*
X71636Y-76670D01*
X71614Y-76659D01*
X71603Y-76647D01*
X71591Y-76625D01*
X71591Y-76580D01*
X71603Y-76557D01*
X71614Y-76546D01*
X71636Y-76535D01*
X71647Y-76535D01*
X71670Y-76546D01*
X71681Y-76557D01*
X71692Y-76580D01*
X71692Y-76625D01*
X71704Y-76647D01*
X71715Y-76659D01*
X71737Y-76670D01*
X71782Y-76670D01*
X71805Y-76659D01*
X71816Y-76647D01*
X71827Y-76625D01*
X71827Y-76580D01*
X71816Y-76557D01*
X71805Y-76546D01*
X71782Y-76535D01*
X71737Y-76535D01*
X71715Y-76546D01*
X71704Y-76557D01*
X71692Y-76580D01*
X71827Y-76310D02*
X71827Y-76445D01*
X71827Y-76378D02*
X71591Y-76378D01*
X71625Y-76400D01*
X71647Y-76423D01*
X71659Y-76445D01*
X71591Y-76232D02*
X71591Y-76074D01*
X71827Y-76175D01*
X65095Y-64133D02*
X65073Y-64122D01*
X65050Y-64100D01*
X65016Y-64066D01*
X64994Y-64055D01*
X64972Y-64055D01*
X64983Y-64111D02*
X64960Y-64100D01*
X64938Y-64077D01*
X64927Y-64032D01*
X64927Y-63953D01*
X64938Y-63908D01*
X64960Y-63886D01*
X64983Y-63875D01*
X65028Y-63875D01*
X65050Y-63886D01*
X65073Y-63908D01*
X65084Y-63953D01*
X65084Y-64032D01*
X65073Y-64077D01*
X65050Y-64100D01*
X65028Y-64111D01*
X64983Y-64111D01*
X65163Y-63875D02*
X65309Y-63875D01*
X65230Y-63965D01*
X65264Y-63965D01*
X65286Y-63976D01*
X65297Y-63987D01*
X65309Y-64010D01*
X65309Y-64066D01*
X65297Y-64088D01*
X65286Y-64100D01*
X65264Y-64111D01*
X65196Y-64111D01*
X65174Y-64100D01*
X65163Y-64088D01*
X68481Y-64133D02*
X68458Y-64122D01*
X68436Y-64100D01*
X68402Y-64066D01*
X68380Y-64055D01*
X68357Y-64055D01*
X68369Y-64111D02*
X68346Y-64100D01*
X68324Y-64077D01*
X68312Y-64032D01*
X68312Y-63953D01*
X68324Y-63908D01*
X68346Y-63886D01*
X68369Y-63875D01*
X68414Y-63875D01*
X68436Y-63886D01*
X68458Y-63908D01*
X68470Y-63953D01*
X68470Y-64032D01*
X68458Y-64077D01*
X68436Y-64100D01*
X68414Y-64111D01*
X68369Y-64111D01*
X68672Y-63953D02*
X68672Y-64111D01*
X68616Y-63864D02*
X68560Y-64032D01*
X68706Y-64032D01*
X71394Y-62952D02*
X71372Y-62941D01*
X71349Y-62918D01*
X71316Y-62885D01*
X71293Y-62873D01*
X71271Y-62873D01*
X71282Y-62930D02*
X71259Y-62918D01*
X71237Y-62896D01*
X71226Y-62851D01*
X71226Y-62772D01*
X71237Y-62727D01*
X71259Y-62705D01*
X71282Y-62694D01*
X71327Y-62694D01*
X71349Y-62705D01*
X71372Y-62727D01*
X71383Y-62772D01*
X71383Y-62851D01*
X71372Y-62896D01*
X71349Y-62918D01*
X71327Y-62930D01*
X71282Y-62930D01*
X71597Y-62694D02*
X71484Y-62694D01*
X71473Y-62806D01*
X71484Y-62795D01*
X71507Y-62784D01*
X71563Y-62784D01*
X71585Y-62795D01*
X71597Y-62806D01*
X71608Y-62829D01*
X71608Y-62885D01*
X71597Y-62907D01*
X71585Y-62918D01*
X71563Y-62930D01*
X71507Y-62930D01*
X71484Y-62918D01*
X71473Y-62907D01*
X78233Y-66636D02*
X78233Y-66386D01*
X78293Y-66386D01*
X78329Y-66398D01*
X78352Y-66422D01*
X78364Y-66446D01*
X78376Y-66493D01*
X78376Y-66529D01*
X78364Y-66577D01*
X78352Y-66600D01*
X78329Y-66624D01*
X78293Y-66636D01*
X78233Y-66636D01*
X78483Y-66636D02*
X78483Y-66386D01*
X78543Y-66386D01*
X78579Y-66398D01*
X78602Y-66422D01*
X78614Y-66446D01*
X78626Y-66493D01*
X78626Y-66529D01*
X78614Y-66577D01*
X78602Y-66600D01*
X78579Y-66624D01*
X78543Y-66636D01*
X78483Y-66636D01*
X78721Y-66410D02*
X78733Y-66398D01*
X78757Y-66386D01*
X78817Y-66386D01*
X78840Y-66398D01*
X78852Y-66410D01*
X78864Y-66434D01*
X78864Y-66458D01*
X78852Y-66493D01*
X78709Y-66636D01*
X78864Y-66636D01*
X77819Y-67115D02*
X77819Y-66865D01*
X77902Y-67043D01*
X77986Y-66865D01*
X77986Y-67115D01*
X78093Y-66889D02*
X78105Y-66877D01*
X78128Y-66865D01*
X78188Y-66865D01*
X78212Y-66877D01*
X78224Y-66889D01*
X78236Y-66912D01*
X78236Y-66936D01*
X78224Y-66972D01*
X78081Y-67115D01*
X78236Y-67115D01*
X78450Y-66948D02*
X78450Y-67115D01*
X78390Y-66853D02*
X78331Y-67032D01*
X78486Y-67032D01*
X78724Y-67091D02*
X78712Y-67103D01*
X78676Y-67115D01*
X78652Y-67115D01*
X78617Y-67103D01*
X78593Y-67079D01*
X78581Y-67055D01*
X78569Y-67008D01*
X78569Y-66972D01*
X78581Y-66924D01*
X78593Y-66901D01*
X78617Y-66877D01*
X78652Y-66865D01*
X78676Y-66865D01*
X78712Y-66877D01*
X78724Y-66889D01*
X78878Y-66865D02*
X78902Y-66865D01*
X78926Y-66877D01*
X78938Y-66889D01*
X78950Y-66912D01*
X78962Y-66960D01*
X78962Y-67020D01*
X78950Y-67067D01*
X78938Y-67091D01*
X78926Y-67103D01*
X78902Y-67115D01*
X78878Y-67115D01*
X78855Y-67103D01*
X78843Y-67091D01*
X78831Y-67067D01*
X78819Y-67020D01*
X78819Y-66960D01*
X78831Y-66912D01*
X78843Y-66889D01*
X78855Y-66877D01*
X78878Y-66865D01*
X79176Y-66948D02*
X79176Y-67115D01*
X79117Y-66853D02*
X79057Y-67032D01*
X79212Y-67032D01*
X70489Y-79251D02*
X70253Y-79251D01*
X70253Y-79195D01*
X70264Y-79161D01*
X70286Y-79139D01*
X70309Y-79128D01*
X70354Y-79116D01*
X70388Y-79116D01*
X70433Y-79128D01*
X70455Y-79139D01*
X70477Y-79161D01*
X70489Y-79195D01*
X70489Y-79251D01*
X70421Y-79026D02*
X70421Y-78914D01*
X70489Y-79049D02*
X70253Y-78970D01*
X70489Y-78892D01*
X70253Y-78835D02*
X70253Y-78689D01*
X70343Y-78768D01*
X70343Y-78734D01*
X70354Y-78712D01*
X70365Y-78701D01*
X70388Y-78689D01*
X70444Y-78689D01*
X70466Y-78701D01*
X70477Y-78712D01*
X70489Y-78734D01*
X70489Y-78802D01*
X70477Y-78824D01*
X70466Y-78835D01*
X70804Y-79852D02*
X70568Y-79852D01*
X70804Y-79718D01*
X70568Y-79718D01*
X70781Y-79470D02*
X70792Y-79482D01*
X70804Y-79515D01*
X70804Y-79538D01*
X70792Y-79571D01*
X70770Y-79594D01*
X70747Y-79605D01*
X70703Y-79616D01*
X70669Y-79616D01*
X70624Y-79605D01*
X70601Y-79594D01*
X70579Y-79571D01*
X70568Y-79538D01*
X70568Y-79515D01*
X70579Y-79482D01*
X70590Y-79470D01*
X70804Y-79369D02*
X70568Y-79369D01*
X70568Y-79279D01*
X70579Y-79257D01*
X70590Y-79246D01*
X70613Y-79234D01*
X70646Y-79234D01*
X70669Y-79246D01*
X70680Y-79257D01*
X70691Y-79279D01*
X70691Y-79369D01*
X70568Y-79021D02*
X70568Y-79133D01*
X70680Y-79144D01*
X70669Y-79133D01*
X70658Y-79111D01*
X70658Y-79055D01*
X70669Y-79032D01*
X70680Y-79021D01*
X70703Y-79010D01*
X70759Y-79010D01*
X70781Y-79021D01*
X70792Y-79032D01*
X70804Y-79055D01*
X70804Y-79111D01*
X70792Y-79133D01*
X70781Y-79144D01*
X70669Y-78875D02*
X70658Y-78897D01*
X70646Y-78908D01*
X70624Y-78920D01*
X70613Y-78920D01*
X70590Y-78908D01*
X70579Y-78897D01*
X70568Y-78875D01*
X70568Y-78830D01*
X70579Y-78807D01*
X70590Y-78796D01*
X70613Y-78785D01*
X70624Y-78785D01*
X70646Y-78796D01*
X70658Y-78807D01*
X70669Y-78830D01*
X70669Y-78875D01*
X70680Y-78897D01*
X70691Y-78908D01*
X70714Y-78920D01*
X70759Y-78920D01*
X70781Y-78908D01*
X70792Y-78897D01*
X70804Y-78875D01*
X70804Y-78830D01*
X70792Y-78807D01*
X70781Y-78796D01*
X70759Y-78785D01*
X70714Y-78785D01*
X70691Y-78796D01*
X70680Y-78807D01*
X70669Y-78830D01*
X70568Y-78706D02*
X70568Y-78560D01*
X70658Y-78639D01*
X70658Y-78605D01*
X70669Y-78583D01*
X70680Y-78571D01*
X70703Y-78560D01*
X70759Y-78560D01*
X70781Y-78571D01*
X70792Y-78583D01*
X70804Y-78605D01*
X70804Y-78672D01*
X70792Y-78695D01*
X70781Y-78706D01*
X70792Y-78470D02*
X70804Y-78436D01*
X70804Y-78380D01*
X70792Y-78358D01*
X70781Y-78347D01*
X70759Y-78335D01*
X70736Y-78335D01*
X70714Y-78347D01*
X70703Y-78358D01*
X70691Y-78380D01*
X70680Y-78425D01*
X70669Y-78448D01*
X70658Y-78459D01*
X70635Y-78470D01*
X70613Y-78470D01*
X70590Y-78459D01*
X70579Y-78448D01*
X70568Y-78425D01*
X70568Y-78369D01*
X70579Y-78335D01*
X70826Y-78077D02*
X70815Y-78099D01*
X70792Y-78122D01*
X70759Y-78155D01*
X70747Y-78178D01*
X70747Y-78200D01*
X70804Y-78189D02*
X70792Y-78212D01*
X70770Y-78234D01*
X70725Y-78245D01*
X70646Y-78245D01*
X70601Y-78234D01*
X70579Y-78212D01*
X70568Y-78189D01*
X70568Y-78144D01*
X70579Y-78122D01*
X70601Y-78099D01*
X70646Y-78088D01*
X70725Y-78088D01*
X70770Y-78099D01*
X70792Y-78122D01*
X70804Y-78144D01*
X70804Y-78189D01*
G54D10*
X71614Y-75686D02*
X71535Y-75573D01*
X71479Y-75686D02*
X71479Y-75449D01*
X71569Y-75449D01*
X71591Y-75461D01*
X71602Y-75472D01*
X71614Y-75494D01*
X71614Y-75528D01*
X71602Y-75551D01*
X71591Y-75562D01*
X71569Y-75573D01*
X71479Y-75573D01*
X71816Y-75528D02*
X71816Y-75686D01*
X71760Y-75438D02*
X71704Y-75607D01*
X71850Y-75607D01*
X71625Y-76001D02*
X71490Y-76001D01*
X71557Y-76001D02*
X71557Y-75764D01*
X71535Y-75798D01*
X71512Y-75821D01*
X71490Y-75832D01*
X71726Y-76001D02*
X71726Y-75764D01*
X71749Y-75911D02*
X71816Y-76001D01*
X71816Y-75843D02*
X71726Y-75933D01*
X73926Y-81166D02*
X73813Y-81245D01*
X73926Y-81301D02*
X73690Y-81301D01*
X73690Y-81211D01*
X73701Y-81189D01*
X73712Y-81177D01*
X73735Y-81166D01*
X73768Y-81166D01*
X73791Y-81177D01*
X73802Y-81189D01*
X73813Y-81211D01*
X73813Y-81301D01*
X73712Y-81076D02*
X73701Y-81065D01*
X73690Y-81042D01*
X73690Y-80986D01*
X73701Y-80964D01*
X73712Y-80953D01*
X73735Y-80941D01*
X73757Y-80941D01*
X73791Y-80953D01*
X73926Y-81087D01*
X73926Y-80941D01*
X74819Y-81248D02*
X74977Y-81248D01*
X74729Y-81305D02*
X74898Y-81361D01*
X74898Y-81215D01*
X74977Y-81125D02*
X74741Y-81125D01*
X74977Y-80990D02*
X74842Y-81091D01*
X74741Y-80990D02*
X74876Y-81125D01*
X74741Y-80911D02*
X74741Y-80754D01*
X74977Y-80855D01*
X61974Y-76158D02*
X61895Y-76046D01*
X61839Y-76158D02*
X61839Y-75922D01*
X61929Y-75922D01*
X61951Y-75933D01*
X61962Y-75944D01*
X61974Y-75967D01*
X61974Y-76001D01*
X61962Y-76023D01*
X61951Y-76034D01*
X61929Y-76046D01*
X61839Y-76046D01*
X62199Y-76158D02*
X62064Y-76158D01*
X62131Y-76158D02*
X62131Y-75922D01*
X62109Y-75956D01*
X62086Y-75978D01*
X62064Y-75989D01*
X62401Y-76001D02*
X62401Y-76158D01*
X62345Y-75911D02*
X62289Y-76079D01*
X62435Y-76079D01*
X62795Y-75944D02*
X62806Y-75933D01*
X62829Y-75922D01*
X62885Y-75922D01*
X62907Y-75933D01*
X62919Y-75944D01*
X62930Y-75967D01*
X62930Y-75989D01*
X62919Y-76023D01*
X62784Y-76158D01*
X62930Y-76158D01*
X63031Y-76158D02*
X63031Y-75922D01*
X63053Y-76068D02*
X63121Y-76158D01*
X63121Y-76001D02*
X63031Y-76091D01*
X63200Y-75922D02*
X63357Y-75922D01*
X63256Y-76158D01*
X75393Y-71512D02*
X75314Y-71400D01*
X75258Y-71512D02*
X75258Y-71276D01*
X75348Y-71276D01*
X75371Y-71287D01*
X75382Y-71299D01*
X75393Y-71321D01*
X75393Y-71355D01*
X75382Y-71377D01*
X75371Y-71389D01*
X75348Y-71400D01*
X75258Y-71400D01*
X75506Y-71512D02*
X75551Y-71512D01*
X75573Y-71501D01*
X75584Y-71490D01*
X75607Y-71456D01*
X75618Y-71411D01*
X75618Y-71321D01*
X75607Y-71299D01*
X75596Y-71287D01*
X75573Y-71276D01*
X75528Y-71276D01*
X75506Y-71287D01*
X75494Y-71299D01*
X75483Y-71321D01*
X75483Y-71377D01*
X75494Y-71400D01*
X75506Y-71411D01*
X75528Y-71422D01*
X75573Y-71422D01*
X75596Y-71411D01*
X75607Y-71400D01*
X75618Y-71377D01*
X76192Y-71512D02*
X76057Y-71512D01*
X76124Y-71512D02*
X76124Y-71276D01*
X76102Y-71310D01*
X76079Y-71332D01*
X76057Y-71344D01*
X76293Y-71512D02*
X76293Y-71276D01*
X76316Y-71422D02*
X76383Y-71512D01*
X76383Y-71355D02*
X76293Y-71445D01*
X62300Y-74561D02*
X62187Y-74640D01*
X62300Y-74696D02*
X62064Y-74696D01*
X62064Y-74606D01*
X62075Y-74583D01*
X62086Y-74572D01*
X62109Y-74561D01*
X62142Y-74561D01*
X62165Y-74572D01*
X62176Y-74583D01*
X62187Y-74606D01*
X62187Y-74696D01*
X62300Y-74336D02*
X62300Y-74471D01*
X62300Y-74403D02*
X62064Y-74403D01*
X62097Y-74426D01*
X62120Y-74448D01*
X62131Y-74471D01*
X62300Y-74223D02*
X62300Y-74178D01*
X62289Y-74156D01*
X62277Y-74145D01*
X62244Y-74122D01*
X62199Y-74111D01*
X62109Y-74111D01*
X62086Y-74122D01*
X62075Y-74133D01*
X62064Y-74156D01*
X62064Y-74201D01*
X62075Y-74223D01*
X62086Y-74235D01*
X62109Y-74246D01*
X62165Y-74246D01*
X62187Y-74235D01*
X62199Y-74223D01*
X62210Y-74201D01*
X62210Y-74156D01*
X62199Y-74133D01*
X62187Y-74122D01*
X62165Y-74111D01*
X62694Y-74341D02*
X62694Y-74476D01*
X62694Y-74409D02*
X62457Y-74409D01*
X62491Y-74431D01*
X62514Y-74454D01*
X62525Y-74476D01*
X62300Y-67789D02*
X62187Y-67868D01*
X62300Y-67924D02*
X62064Y-67924D01*
X62064Y-67834D01*
X62075Y-67812D01*
X62086Y-67800D01*
X62109Y-67789D01*
X62142Y-67789D01*
X62165Y-67800D01*
X62176Y-67812D01*
X62187Y-67834D01*
X62187Y-67924D01*
X62300Y-67564D02*
X62300Y-67699D01*
X62300Y-67632D02*
X62064Y-67632D01*
X62097Y-67654D01*
X62120Y-67677D01*
X62131Y-67699D01*
X62064Y-67485D02*
X62064Y-67328D01*
X62300Y-67429D01*
X62615Y-67570D02*
X62615Y-67705D01*
X62615Y-67637D02*
X62379Y-67637D01*
X62412Y-67660D01*
X62435Y-67682D01*
X62446Y-67705D01*
X63863Y-75843D02*
X63785Y-75731D01*
X63728Y-75843D02*
X63728Y-75607D01*
X63818Y-75607D01*
X63841Y-75618D01*
X63852Y-75629D01*
X63863Y-75652D01*
X63863Y-75686D01*
X63852Y-75708D01*
X63841Y-75719D01*
X63818Y-75731D01*
X63728Y-75731D01*
X64088Y-75843D02*
X63953Y-75843D01*
X64021Y-75843D02*
X64021Y-75607D01*
X63998Y-75641D01*
X63976Y-75663D01*
X63953Y-75674D01*
X64167Y-75607D02*
X64313Y-75607D01*
X64235Y-75697D01*
X64268Y-75697D01*
X64291Y-75708D01*
X64302Y-75719D01*
X64313Y-75742D01*
X64313Y-75798D01*
X64302Y-75821D01*
X64291Y-75832D01*
X64268Y-75843D01*
X64201Y-75843D01*
X64178Y-75832D01*
X64167Y-75821D01*
X64932Y-75843D02*
X64797Y-75843D01*
X64865Y-75843D02*
X64865Y-75607D01*
X64842Y-75641D01*
X64820Y-75663D01*
X64797Y-75674D01*
X65033Y-75843D02*
X65033Y-75607D01*
X65056Y-75753D02*
X65123Y-75843D01*
X65123Y-75686D02*
X65033Y-75776D01*
X75528Y-77553D02*
X75416Y-77632D01*
X75528Y-77688D02*
X75292Y-77688D01*
X75292Y-77598D01*
X75303Y-77575D01*
X75314Y-77564D01*
X75337Y-77553D01*
X75371Y-77553D01*
X75393Y-77564D01*
X75404Y-77575D01*
X75416Y-77598D01*
X75416Y-77688D01*
X75528Y-77328D02*
X75528Y-77463D01*
X75528Y-77395D02*
X75292Y-77395D01*
X75326Y-77418D01*
X75348Y-77440D01*
X75359Y-77463D01*
X75292Y-77114D02*
X75292Y-77227D01*
X75404Y-77238D01*
X75393Y-77227D01*
X75382Y-77204D01*
X75382Y-77148D01*
X75393Y-77125D01*
X75404Y-77114D01*
X75427Y-77103D01*
X75483Y-77103D01*
X75506Y-77114D01*
X75517Y-77125D01*
X75528Y-77148D01*
X75528Y-77204D01*
X75517Y-77227D01*
X75506Y-77238D01*
X74820Y-77024D02*
X74820Y-77159D01*
X74820Y-77092D02*
X74583Y-77092D01*
X74617Y-77114D01*
X74640Y-77137D01*
X74651Y-77159D01*
X74583Y-76878D02*
X74583Y-76856D01*
X74595Y-76833D01*
X74606Y-76822D01*
X74628Y-76811D01*
X74673Y-76799D01*
X74730Y-76799D01*
X74775Y-76811D01*
X74797Y-76822D01*
X74808Y-76833D01*
X74820Y-76856D01*
X74820Y-76878D01*
X74808Y-76901D01*
X74797Y-76912D01*
X74775Y-76923D01*
X74730Y-76934D01*
X74673Y-76934D01*
X74628Y-76923D01*
X74606Y-76912D01*
X74595Y-76901D01*
X74583Y-76878D01*
X74583Y-76653D02*
X74583Y-76631D01*
X74595Y-76608D01*
X74606Y-76597D01*
X74628Y-76586D01*
X74673Y-76574D01*
X74730Y-76574D01*
X74775Y-76586D01*
X74797Y-76597D01*
X74808Y-76608D01*
X74820Y-76631D01*
X74820Y-76653D01*
X74808Y-76676D01*
X74797Y-76687D01*
X74775Y-76698D01*
X74730Y-76709D01*
X74673Y-76709D01*
X74628Y-76698D01*
X74606Y-76687D01*
X74595Y-76676D01*
X74583Y-76653D01*
X74820Y-76473D02*
X74583Y-76473D01*
X74730Y-76451D02*
X74820Y-76383D01*
X74662Y-76383D02*
X74752Y-76473D01*
X73138Y-76791D02*
X73026Y-76869D01*
X73138Y-76926D02*
X72902Y-76926D01*
X72902Y-76836D01*
X72913Y-76813D01*
X72925Y-76802D01*
X72947Y-76791D01*
X72981Y-76791D01*
X73003Y-76802D01*
X73015Y-76813D01*
X73026Y-76836D01*
X73026Y-76926D01*
X73138Y-76566D02*
X73138Y-76701D01*
X73138Y-76633D02*
X72902Y-76633D01*
X72936Y-76656D01*
X72958Y-76678D01*
X72970Y-76701D01*
X72902Y-76363D02*
X72902Y-76408D01*
X72913Y-76431D01*
X72925Y-76442D01*
X72958Y-76464D01*
X73003Y-76476D01*
X73093Y-76476D01*
X73116Y-76464D01*
X73127Y-76453D01*
X73138Y-76431D01*
X73138Y-76386D01*
X73127Y-76363D01*
X73116Y-76352D01*
X73093Y-76341D01*
X73037Y-76341D01*
X73015Y-76352D01*
X73003Y-76363D01*
X72992Y-76386D01*
X72992Y-76431D01*
X73003Y-76453D01*
X73015Y-76464D01*
X73037Y-76476D01*
X73368Y-75922D02*
X73233Y-75922D01*
X73301Y-75922D02*
X73301Y-75686D01*
X73278Y-75719D01*
X73256Y-75742D01*
X73233Y-75753D01*
X73515Y-75686D02*
X73537Y-75686D01*
X73560Y-75697D01*
X73571Y-75708D01*
X73582Y-75731D01*
X73593Y-75776D01*
X73593Y-75832D01*
X73582Y-75877D01*
X73571Y-75899D01*
X73560Y-75911D01*
X73537Y-75922D01*
X73515Y-75922D01*
X73492Y-75911D01*
X73481Y-75899D01*
X73470Y-75877D01*
X73458Y-75832D01*
X73458Y-75776D01*
X73470Y-75731D01*
X73481Y-75708D01*
X73492Y-75697D01*
X73515Y-75686D01*
X73740Y-75686D02*
X73762Y-75686D01*
X73785Y-75697D01*
X73796Y-75708D01*
X73807Y-75731D01*
X73818Y-75776D01*
X73818Y-75832D01*
X73807Y-75877D01*
X73796Y-75899D01*
X73785Y-75911D01*
X73762Y-75922D01*
X73740Y-75922D01*
X73717Y-75911D01*
X73706Y-75899D01*
X73695Y-75877D01*
X73683Y-75832D01*
X73683Y-75776D01*
X73695Y-75731D01*
X73706Y-75708D01*
X73717Y-75697D01*
X73740Y-75686D01*
X73920Y-75922D02*
X73920Y-75686D01*
X73942Y-75832D02*
X74010Y-75922D01*
X74010Y-75764D02*
X73920Y-75854D01*
X73008Y-80748D02*
X72896Y-80826D01*
X73008Y-80883D02*
X72772Y-80883D01*
X72772Y-80793D01*
X72784Y-80770D01*
X72795Y-80759D01*
X72817Y-80748D01*
X72851Y-80748D01*
X72874Y-80759D01*
X72885Y-80770D01*
X72896Y-80793D01*
X72896Y-80883D01*
X73008Y-80523D02*
X73008Y-80658D01*
X73008Y-80590D02*
X72772Y-80590D01*
X72806Y-80613D01*
X72829Y-80635D01*
X72840Y-80658D01*
X72851Y-81602D02*
X73008Y-81602D01*
X72761Y-81659D02*
X72930Y-81715D01*
X72930Y-81569D01*
X73008Y-81479D02*
X72772Y-81479D01*
X73008Y-81344D02*
X72874Y-81445D01*
X72772Y-81344D02*
X72907Y-81479D01*
X72772Y-81265D02*
X72772Y-81107D01*
X73008Y-81209D01*
X70883Y-80748D02*
X70770Y-80826D01*
X70883Y-80883D02*
X70646Y-80883D01*
X70646Y-80793D01*
X70658Y-80770D01*
X70669Y-80759D01*
X70691Y-80748D01*
X70725Y-80748D01*
X70748Y-80759D01*
X70759Y-80770D01*
X70770Y-80793D01*
X70770Y-80883D01*
X70646Y-80545D02*
X70646Y-80590D01*
X70658Y-80613D01*
X70669Y-80624D01*
X70703Y-80646D01*
X70748Y-80658D01*
X70838Y-80658D01*
X70860Y-80646D01*
X70871Y-80635D01*
X70883Y-80613D01*
X70883Y-80568D01*
X70871Y-80545D01*
X70860Y-80534D01*
X70838Y-80523D01*
X70781Y-80523D01*
X70759Y-80534D01*
X70748Y-80545D01*
X70736Y-80568D01*
X70736Y-80613D01*
X70748Y-80635D01*
X70759Y-80646D01*
X70781Y-80658D01*
X70883Y-81574D02*
X70883Y-81709D01*
X70883Y-81642D02*
X70646Y-81642D01*
X70680Y-81664D01*
X70703Y-81687D01*
X70714Y-81709D01*
X70646Y-81361D02*
X70646Y-81473D01*
X70759Y-81484D01*
X70748Y-81473D01*
X70736Y-81451D01*
X70736Y-81394D01*
X70748Y-81372D01*
X70759Y-81361D01*
X70781Y-81349D01*
X70838Y-81349D01*
X70860Y-81361D01*
X70871Y-81372D01*
X70883Y-81394D01*
X70883Y-81451D01*
X70871Y-81473D01*
X70860Y-81484D01*
X70646Y-81203D02*
X70646Y-81181D01*
X70658Y-81158D01*
X70669Y-81147D01*
X70691Y-81136D01*
X70736Y-81124D01*
X70793Y-81124D01*
X70838Y-81136D01*
X70860Y-81147D01*
X70871Y-81158D01*
X70883Y-81181D01*
X70883Y-81203D01*
X70871Y-81226D01*
X70860Y-81237D01*
X70838Y-81248D01*
X70793Y-81259D01*
X70736Y-81259D01*
X70691Y-81248D01*
X70669Y-81237D01*
X70658Y-81226D01*
X70646Y-81203D01*
X66709Y-64246D02*
X66597Y-64325D01*
X66709Y-64381D02*
X66473Y-64381D01*
X66473Y-64291D01*
X66484Y-64268D01*
X66496Y-64257D01*
X66518Y-64246D01*
X66552Y-64246D01*
X66574Y-64257D01*
X66586Y-64268D01*
X66597Y-64291D01*
X66597Y-64381D01*
X66496Y-64156D02*
X66484Y-64145D01*
X66473Y-64122D01*
X66473Y-64066D01*
X66484Y-64043D01*
X66496Y-64032D01*
X66518Y-64021D01*
X66541Y-64021D01*
X66574Y-64032D01*
X66709Y-64167D01*
X66709Y-64021D01*
X66709Y-63796D02*
X66709Y-63931D01*
X66709Y-63863D02*
X66473Y-63863D01*
X66507Y-63886D01*
X66529Y-63908D01*
X66541Y-63931D01*
X66394Y-64527D02*
X66394Y-64662D01*
X66394Y-64595D02*
X66158Y-64595D01*
X66192Y-64617D01*
X66214Y-64640D01*
X66226Y-64662D01*
X66158Y-64381D02*
X66158Y-64358D01*
X66169Y-64336D01*
X66181Y-64325D01*
X66203Y-64313D01*
X66248Y-64302D01*
X66304Y-64302D01*
X66349Y-64313D01*
X66372Y-64325D01*
X66383Y-64336D01*
X66394Y-64358D01*
X66394Y-64381D01*
X66383Y-64403D01*
X66372Y-64415D01*
X66349Y-64426D01*
X66304Y-64437D01*
X66248Y-64437D01*
X66203Y-64426D01*
X66181Y-64415D01*
X66169Y-64403D01*
X66158Y-64381D01*
X66158Y-64156D02*
X66158Y-64133D01*
X66169Y-64111D01*
X66181Y-64100D01*
X66203Y-64088D01*
X66248Y-64077D01*
X66304Y-64077D01*
X66349Y-64088D01*
X66372Y-64100D01*
X66383Y-64111D01*
X66394Y-64133D01*
X66394Y-64156D01*
X66383Y-64178D01*
X66372Y-64190D01*
X66349Y-64201D01*
X66304Y-64212D01*
X66248Y-64212D01*
X66203Y-64201D01*
X66181Y-64190D01*
X66169Y-64178D01*
X66158Y-64156D01*
X66394Y-63841D02*
X66282Y-63920D01*
X66394Y-63976D02*
X66158Y-63976D01*
X66158Y-63886D01*
X66169Y-63863D01*
X66181Y-63852D01*
X66203Y-63841D01*
X66237Y-63841D01*
X66259Y-63852D01*
X66271Y-63863D01*
X66282Y-63886D01*
X66282Y-63976D01*
X64741Y-64246D02*
X64628Y-64325D01*
X64741Y-64381D02*
X64505Y-64381D01*
X64505Y-64291D01*
X64516Y-64268D01*
X64527Y-64257D01*
X64550Y-64246D01*
X64583Y-64246D01*
X64606Y-64257D01*
X64617Y-64268D01*
X64628Y-64291D01*
X64628Y-64381D01*
X64527Y-64156D02*
X64516Y-64145D01*
X64505Y-64122D01*
X64505Y-64066D01*
X64516Y-64043D01*
X64527Y-64032D01*
X64550Y-64021D01*
X64572Y-64021D01*
X64606Y-64032D01*
X64741Y-64167D01*
X64741Y-64021D01*
X64505Y-63875D02*
X64505Y-63852D01*
X64516Y-63830D01*
X64527Y-63818D01*
X64550Y-63807D01*
X64595Y-63796D01*
X64651Y-63796D01*
X64696Y-63807D01*
X64718Y-63818D01*
X64730Y-63830D01*
X64741Y-63852D01*
X64741Y-63875D01*
X64730Y-63897D01*
X64718Y-63908D01*
X64696Y-63920D01*
X64651Y-63931D01*
X64595Y-63931D01*
X64550Y-63920D01*
X64527Y-63908D01*
X64516Y-63897D01*
X64505Y-63875D01*
X64426Y-64527D02*
X64426Y-64662D01*
X64426Y-64595D02*
X64190Y-64595D01*
X64223Y-64617D01*
X64246Y-64640D01*
X64257Y-64662D01*
X64190Y-64381D02*
X64190Y-64358D01*
X64201Y-64336D01*
X64212Y-64325D01*
X64235Y-64313D01*
X64280Y-64302D01*
X64336Y-64302D01*
X64381Y-64313D01*
X64403Y-64325D01*
X64415Y-64336D01*
X64426Y-64358D01*
X64426Y-64381D01*
X64415Y-64403D01*
X64403Y-64415D01*
X64381Y-64426D01*
X64336Y-64437D01*
X64280Y-64437D01*
X64235Y-64426D01*
X64212Y-64415D01*
X64201Y-64403D01*
X64190Y-64381D01*
X64190Y-64156D02*
X64190Y-64133D01*
X64201Y-64111D01*
X64212Y-64100D01*
X64235Y-64088D01*
X64280Y-64077D01*
X64336Y-64077D01*
X64381Y-64088D01*
X64403Y-64100D01*
X64415Y-64111D01*
X64426Y-64133D01*
X64426Y-64156D01*
X64415Y-64178D01*
X64403Y-64190D01*
X64381Y-64201D01*
X64336Y-64212D01*
X64280Y-64212D01*
X64235Y-64201D01*
X64212Y-64190D01*
X64201Y-64178D01*
X64190Y-64156D01*
X64426Y-63841D02*
X64313Y-63920D01*
X64426Y-63976D02*
X64190Y-63976D01*
X64190Y-63886D01*
X64201Y-63863D01*
X64212Y-63852D01*
X64235Y-63841D01*
X64268Y-63841D01*
X64291Y-63852D01*
X64302Y-63863D01*
X64313Y-63886D01*
X64313Y-63976D01*
X69150Y-64246D02*
X69038Y-64325D01*
X69150Y-64381D02*
X68914Y-64381D01*
X68914Y-64291D01*
X68925Y-64268D01*
X68937Y-64257D01*
X68959Y-64246D01*
X68993Y-64246D01*
X69015Y-64257D01*
X69026Y-64268D01*
X69038Y-64291D01*
X69038Y-64381D01*
X68937Y-64156D02*
X68925Y-64145D01*
X68914Y-64122D01*
X68914Y-64066D01*
X68925Y-64043D01*
X68937Y-64032D01*
X68959Y-64021D01*
X68982Y-64021D01*
X69015Y-64032D01*
X69150Y-64167D01*
X69150Y-64021D01*
X68937Y-63931D02*
X68925Y-63920D01*
X68914Y-63897D01*
X68914Y-63841D01*
X68925Y-63818D01*
X68937Y-63807D01*
X68959Y-63796D01*
X68982Y-63796D01*
X69015Y-63807D01*
X69150Y-63942D01*
X69150Y-63796D01*
X69465Y-64527D02*
X69465Y-64662D01*
X69465Y-64595D02*
X69229Y-64595D01*
X69263Y-64617D01*
X69285Y-64640D01*
X69296Y-64662D01*
X69229Y-64381D02*
X69229Y-64358D01*
X69240Y-64336D01*
X69251Y-64325D01*
X69274Y-64313D01*
X69319Y-64302D01*
X69375Y-64302D01*
X69420Y-64313D01*
X69443Y-64325D01*
X69454Y-64336D01*
X69465Y-64358D01*
X69465Y-64381D01*
X69454Y-64403D01*
X69443Y-64415D01*
X69420Y-64426D01*
X69375Y-64437D01*
X69319Y-64437D01*
X69274Y-64426D01*
X69251Y-64415D01*
X69240Y-64403D01*
X69229Y-64381D01*
X69229Y-64156D02*
X69229Y-64133D01*
X69240Y-64111D01*
X69251Y-64100D01*
X69274Y-64088D01*
X69319Y-64077D01*
X69375Y-64077D01*
X69420Y-64088D01*
X69443Y-64100D01*
X69454Y-64111D01*
X69465Y-64133D01*
X69465Y-64156D01*
X69454Y-64178D01*
X69443Y-64190D01*
X69420Y-64201D01*
X69375Y-64212D01*
X69319Y-64212D01*
X69274Y-64201D01*
X69251Y-64190D01*
X69240Y-64178D01*
X69229Y-64156D01*
X69465Y-63841D02*
X69353Y-63920D01*
X69465Y-63976D02*
X69229Y-63976D01*
X69229Y-63886D01*
X69240Y-63863D01*
X69251Y-63852D01*
X69274Y-63841D01*
X69308Y-63841D01*
X69330Y-63852D01*
X69341Y-63863D01*
X69353Y-63886D01*
X69353Y-63976D01*
X70174Y-64325D02*
X70061Y-64403D01*
X70174Y-64460D02*
X69938Y-64460D01*
X69938Y-64370D01*
X69949Y-64347D01*
X69960Y-64336D01*
X69983Y-64325D01*
X70016Y-64325D01*
X70039Y-64336D01*
X70050Y-64347D01*
X70061Y-64370D01*
X70061Y-64460D01*
X69960Y-64235D02*
X69949Y-64223D01*
X69938Y-64201D01*
X69938Y-64145D01*
X69949Y-64122D01*
X69960Y-64111D01*
X69983Y-64100D01*
X70005Y-64100D01*
X70039Y-64111D01*
X70174Y-64246D01*
X70174Y-64100D01*
X70016Y-63897D02*
X70174Y-63897D01*
X69926Y-63953D02*
X70095Y-64010D01*
X70095Y-63863D01*
X69859Y-64527D02*
X69859Y-64662D01*
X69859Y-64595D02*
X69623Y-64595D01*
X69656Y-64617D01*
X69679Y-64640D01*
X69690Y-64662D01*
X69623Y-64381D02*
X69623Y-64358D01*
X69634Y-64336D01*
X69645Y-64325D01*
X69668Y-64313D01*
X69713Y-64302D01*
X69769Y-64302D01*
X69814Y-64313D01*
X69836Y-64325D01*
X69848Y-64336D01*
X69859Y-64358D01*
X69859Y-64381D01*
X69848Y-64403D01*
X69836Y-64415D01*
X69814Y-64426D01*
X69769Y-64437D01*
X69713Y-64437D01*
X69668Y-64426D01*
X69645Y-64415D01*
X69634Y-64403D01*
X69623Y-64381D01*
X69623Y-64156D02*
X69623Y-64133D01*
X69634Y-64111D01*
X69645Y-64100D01*
X69668Y-64088D01*
X69713Y-64077D01*
X69769Y-64077D01*
X69814Y-64088D01*
X69836Y-64100D01*
X69848Y-64111D01*
X69859Y-64133D01*
X69859Y-64156D01*
X69848Y-64178D01*
X69836Y-64190D01*
X69814Y-64201D01*
X69769Y-64212D01*
X69713Y-64212D01*
X69668Y-64201D01*
X69645Y-64190D01*
X69634Y-64178D01*
X69623Y-64156D01*
X69859Y-63841D02*
X69746Y-63920D01*
X69859Y-63976D02*
X69623Y-63976D01*
X69623Y-63886D01*
X69634Y-63863D01*
X69645Y-63852D01*
X69668Y-63841D01*
X69701Y-63841D01*
X69724Y-63852D01*
X69735Y-63863D01*
X69746Y-63886D01*
X69746Y-63976D01*
X67418Y-64482D02*
X67305Y-64561D01*
X67418Y-64617D02*
X67182Y-64617D01*
X67182Y-64527D01*
X67193Y-64505D01*
X67204Y-64493D01*
X67227Y-64482D01*
X67260Y-64482D01*
X67283Y-64493D01*
X67294Y-64505D01*
X67305Y-64527D01*
X67305Y-64617D01*
X67204Y-64392D02*
X67193Y-64381D01*
X67182Y-64358D01*
X67182Y-64302D01*
X67193Y-64280D01*
X67204Y-64268D01*
X67227Y-64257D01*
X67249Y-64257D01*
X67283Y-64268D01*
X67418Y-64403D01*
X67418Y-64257D01*
X67182Y-64178D02*
X67182Y-64032D01*
X67272Y-64111D01*
X67272Y-64077D01*
X67283Y-64055D01*
X67294Y-64043D01*
X67317Y-64032D01*
X67373Y-64032D01*
X67395Y-64043D01*
X67407Y-64055D01*
X67418Y-64077D01*
X67418Y-64145D01*
X67407Y-64167D01*
X67395Y-64178D01*
X67103Y-64527D02*
X67103Y-64662D01*
X67103Y-64595D02*
X66867Y-64595D01*
X66901Y-64617D01*
X66923Y-64640D01*
X66934Y-64662D01*
X66867Y-64381D02*
X66867Y-64358D01*
X66878Y-64336D01*
X66889Y-64325D01*
X66912Y-64313D01*
X66957Y-64302D01*
X67013Y-64302D01*
X67058Y-64313D01*
X67080Y-64325D01*
X67092Y-64336D01*
X67103Y-64358D01*
X67103Y-64381D01*
X67092Y-64403D01*
X67080Y-64415D01*
X67058Y-64426D01*
X67013Y-64437D01*
X66957Y-64437D01*
X66912Y-64426D01*
X66889Y-64415D01*
X66878Y-64403D01*
X66867Y-64381D01*
X66867Y-64156D02*
X66867Y-64133D01*
X66878Y-64111D01*
X66889Y-64100D01*
X66912Y-64088D01*
X66957Y-64077D01*
X67013Y-64077D01*
X67058Y-64088D01*
X67080Y-64100D01*
X67092Y-64111D01*
X67103Y-64133D01*
X67103Y-64156D01*
X67092Y-64178D01*
X67080Y-64190D01*
X67058Y-64201D01*
X67013Y-64212D01*
X66957Y-64212D01*
X66912Y-64201D01*
X66889Y-64190D01*
X66878Y-64178D01*
X66867Y-64156D01*
X67103Y-63841D02*
X66991Y-63920D01*
X67103Y-63976D02*
X66867Y-63976D01*
X66867Y-63886D01*
X66878Y-63863D01*
X66889Y-63852D01*
X66912Y-63841D01*
X66946Y-63841D01*
X66968Y-63852D01*
X66979Y-63863D01*
X66991Y-63886D01*
X66991Y-63976D01*
X66698Y-66473D02*
X66619Y-66361D01*
X66563Y-66473D02*
X66563Y-66237D01*
X66653Y-66237D01*
X66676Y-66248D01*
X66687Y-66259D01*
X66698Y-66282D01*
X66698Y-66316D01*
X66687Y-66338D01*
X66676Y-66349D01*
X66653Y-66361D01*
X66563Y-66361D01*
X66923Y-66473D02*
X66788Y-66473D01*
X66856Y-66473D02*
X66856Y-66237D01*
X66833Y-66271D01*
X66811Y-66293D01*
X66788Y-66304D01*
X67013Y-66259D02*
X67024Y-66248D01*
X67047Y-66237D01*
X67103Y-66237D01*
X67125Y-66248D01*
X67137Y-66259D01*
X67148Y-66282D01*
X67148Y-66304D01*
X67137Y-66338D01*
X67002Y-66473D01*
X67148Y-66473D01*
X66653Y-67024D02*
X66518Y-67024D01*
X66586Y-67024D02*
X66586Y-66788D01*
X66563Y-66822D01*
X66541Y-66844D01*
X66518Y-66856D01*
X66799Y-66788D02*
X66822Y-66788D01*
X66844Y-66799D01*
X66856Y-66811D01*
X66867Y-66833D01*
X66878Y-66878D01*
X66878Y-66934D01*
X66867Y-66979D01*
X66856Y-67002D01*
X66844Y-67013D01*
X66822Y-67024D01*
X66799Y-67024D01*
X66777Y-67013D01*
X66766Y-67002D01*
X66754Y-66979D01*
X66743Y-66934D01*
X66743Y-66878D01*
X66754Y-66833D01*
X66766Y-66811D01*
X66777Y-66799D01*
X66799Y-66788D01*
X67024Y-66788D02*
X67047Y-66788D01*
X67069Y-66799D01*
X67080Y-66811D01*
X67092Y-66833D01*
X67103Y-66878D01*
X67103Y-66934D01*
X67092Y-66979D01*
X67080Y-67002D01*
X67069Y-67013D01*
X67047Y-67024D01*
X67024Y-67024D01*
X67002Y-67013D01*
X66991Y-67002D01*
X66979Y-66979D01*
X66968Y-66934D01*
X66968Y-66878D01*
X66979Y-66833D01*
X66991Y-66811D01*
X67002Y-66799D01*
X67024Y-66788D01*
X67339Y-67024D02*
X67260Y-66912D01*
X67204Y-67024D02*
X67204Y-66788D01*
X67294Y-66788D01*
X67317Y-66799D01*
X67328Y-66811D01*
X67339Y-66833D01*
X67339Y-66867D01*
X67328Y-66889D01*
X67317Y-66901D01*
X67294Y-66912D01*
X67204Y-66912D01*
X66698Y-65843D02*
X66619Y-65731D01*
X66563Y-65843D02*
X66563Y-65607D01*
X66653Y-65607D01*
X66676Y-65618D01*
X66687Y-65629D01*
X66698Y-65652D01*
X66698Y-65686D01*
X66687Y-65708D01*
X66676Y-65719D01*
X66653Y-65731D01*
X66563Y-65731D01*
X66923Y-65843D02*
X66788Y-65843D01*
X66856Y-65843D02*
X66856Y-65607D01*
X66833Y-65641D01*
X66811Y-65663D01*
X66788Y-65674D01*
X67148Y-65843D02*
X67013Y-65843D01*
X67080Y-65843D02*
X67080Y-65607D01*
X67058Y-65641D01*
X67035Y-65663D01*
X67013Y-65674D01*
X67677Y-65843D02*
X67542Y-65843D01*
X67609Y-65843D02*
X67609Y-65607D01*
X67587Y-65641D01*
X67564Y-65663D01*
X67542Y-65674D01*
X67823Y-65607D02*
X67845Y-65607D01*
X67868Y-65618D01*
X67879Y-65629D01*
X67890Y-65652D01*
X67902Y-65697D01*
X67902Y-65753D01*
X67890Y-65798D01*
X67879Y-65821D01*
X67868Y-65832D01*
X67845Y-65843D01*
X67823Y-65843D01*
X67800Y-65832D01*
X67789Y-65821D01*
X67778Y-65798D01*
X67767Y-65753D01*
X67767Y-65697D01*
X67778Y-65652D01*
X67789Y-65629D01*
X67800Y-65618D01*
X67823Y-65607D01*
X68048Y-65607D02*
X68070Y-65607D01*
X68093Y-65618D01*
X68104Y-65629D01*
X68115Y-65652D01*
X68127Y-65697D01*
X68127Y-65753D01*
X68115Y-65798D01*
X68104Y-65821D01*
X68093Y-65832D01*
X68070Y-65843D01*
X68048Y-65843D01*
X68025Y-65832D01*
X68014Y-65821D01*
X68003Y-65798D01*
X67992Y-65753D01*
X67992Y-65697D01*
X68003Y-65652D01*
X68014Y-65629D01*
X68025Y-65618D01*
X68048Y-65607D01*
X68363Y-65843D02*
X68284Y-65731D01*
X68228Y-65843D02*
X68228Y-65607D01*
X68318Y-65607D01*
X68340Y-65618D01*
X68352Y-65629D01*
X68363Y-65652D01*
X68363Y-65686D01*
X68352Y-65708D01*
X68340Y-65719D01*
X68318Y-65731D01*
X68228Y-65731D01*
X66698Y-65213D02*
X66619Y-65101D01*
X66563Y-65213D02*
X66563Y-64977D01*
X66653Y-64977D01*
X66676Y-64988D01*
X66687Y-65000D01*
X66698Y-65022D01*
X66698Y-65056D01*
X66687Y-65078D01*
X66676Y-65089D01*
X66653Y-65101D01*
X66563Y-65101D01*
X66788Y-65000D02*
X66799Y-64988D01*
X66822Y-64977D01*
X66878Y-64977D01*
X66901Y-64988D01*
X66912Y-65000D01*
X66923Y-65022D01*
X66923Y-65044D01*
X66912Y-65078D01*
X66777Y-65213D01*
X66923Y-65213D01*
X67125Y-64977D02*
X67080Y-64977D01*
X67058Y-64988D01*
X67047Y-65000D01*
X67024Y-65033D01*
X67013Y-65078D01*
X67013Y-65168D01*
X67024Y-65191D01*
X67035Y-65202D01*
X67058Y-65213D01*
X67103Y-65213D01*
X67125Y-65202D01*
X67137Y-65191D01*
X67148Y-65168D01*
X67148Y-65112D01*
X67137Y-65089D01*
X67125Y-65078D01*
X67103Y-65067D01*
X67058Y-65067D01*
X67035Y-65078D01*
X67024Y-65089D01*
X67013Y-65112D01*
X67677Y-65213D02*
X67542Y-65213D01*
X67609Y-65213D02*
X67609Y-64977D01*
X67587Y-65011D01*
X67564Y-65033D01*
X67542Y-65044D01*
X67823Y-64977D02*
X67845Y-64977D01*
X67868Y-64988D01*
X67879Y-65000D01*
X67890Y-65022D01*
X67902Y-65067D01*
X67902Y-65123D01*
X67890Y-65168D01*
X67879Y-65191D01*
X67868Y-65202D01*
X67845Y-65213D01*
X67823Y-65213D01*
X67800Y-65202D01*
X67789Y-65191D01*
X67778Y-65168D01*
X67767Y-65123D01*
X67767Y-65067D01*
X67778Y-65022D01*
X67789Y-65000D01*
X67800Y-64988D01*
X67823Y-64977D01*
X68048Y-64977D02*
X68070Y-64977D01*
X68093Y-64988D01*
X68104Y-65000D01*
X68115Y-65022D01*
X68127Y-65067D01*
X68127Y-65123D01*
X68115Y-65168D01*
X68104Y-65191D01*
X68093Y-65202D01*
X68070Y-65213D01*
X68048Y-65213D01*
X68025Y-65202D01*
X68014Y-65191D01*
X68003Y-65168D01*
X67992Y-65123D01*
X67992Y-65067D01*
X68003Y-65022D01*
X68014Y-65000D01*
X68025Y-64988D01*
X68048Y-64977D01*
X68363Y-65213D02*
X68284Y-65101D01*
X68228Y-65213D02*
X68228Y-64977D01*
X68318Y-64977D01*
X68340Y-64988D01*
X68352Y-65000D01*
X68363Y-65022D01*
X68363Y-65056D01*
X68352Y-65078D01*
X68340Y-65089D01*
X68318Y-65101D01*
X68228Y-65101D01*
X70297Y-67125D02*
X70321Y-66990D01*
X70202Y-67030D02*
X70369Y-66863D01*
X70432Y-66926D01*
X70440Y-66950D01*
X70440Y-66966D01*
X70432Y-66990D01*
X70408Y-67014D01*
X70384Y-67022D01*
X70369Y-67022D01*
X70345Y-67014D01*
X70281Y-66950D01*
X70456Y-67284D02*
X70361Y-67189D01*
X70408Y-67236D02*
X70575Y-67069D01*
X70536Y-67077D01*
X70504Y-67077D01*
X70480Y-67069D01*
X70726Y-67221D02*
X70742Y-67236D01*
X70750Y-67260D01*
X70750Y-67276D01*
X70742Y-67300D01*
X70719Y-67340D01*
X70679Y-67380D01*
X70639Y-67403D01*
X70615Y-67411D01*
X70599Y-67411D01*
X70575Y-67403D01*
X70559Y-67388D01*
X70551Y-67364D01*
X70551Y-67348D01*
X70559Y-67324D01*
X70583Y-67284D01*
X70623Y-67244D01*
X70663Y-67221D01*
X70687Y-67213D01*
X70703Y-67213D01*
X70726Y-67221D01*
X70659Y-66397D02*
X70675Y-66397D01*
X70699Y-66405D01*
X70738Y-66445D01*
X70746Y-66469D01*
X70746Y-66485D01*
X70738Y-66509D01*
X70722Y-66525D01*
X70691Y-66540D01*
X70500Y-66540D01*
X70603Y-66644D01*
X70818Y-66556D02*
X70834Y-66556D01*
X70858Y-66564D01*
X70897Y-66604D01*
X70905Y-66628D01*
X70905Y-66644D01*
X70897Y-66668D01*
X70882Y-66684D01*
X70850Y-66700D01*
X70659Y-66700D01*
X70762Y-66803D01*
X71033Y-66739D02*
X71049Y-66755D01*
X71057Y-66779D01*
X71057Y-66795D01*
X71049Y-66819D01*
X71025Y-66859D01*
X70985Y-66898D01*
X70945Y-66922D01*
X70921Y-66930D01*
X70905Y-66930D01*
X70882Y-66922D01*
X70866Y-66906D01*
X70858Y-66883D01*
X70858Y-66867D01*
X70866Y-66843D01*
X70890Y-66803D01*
X70929Y-66763D01*
X70969Y-66739D01*
X70993Y-66731D01*
X71009Y-66731D01*
X71033Y-66739D01*
X71088Y-67129D02*
X71112Y-66994D01*
X70993Y-67034D02*
X71160Y-66867D01*
X71224Y-66930D01*
X71232Y-66954D01*
X71232Y-66970D01*
X71224Y-66994D01*
X71200Y-67018D01*
X71176Y-67026D01*
X71160Y-67026D01*
X71136Y-67018D01*
X71072Y-66954D01*
X69229Y-77598D02*
X69116Y-77677D01*
X69229Y-77733D02*
X68993Y-77733D01*
X68993Y-77643D01*
X69004Y-77620D01*
X69015Y-77609D01*
X69038Y-77598D01*
X69071Y-77598D01*
X69094Y-77609D01*
X69105Y-77620D01*
X69116Y-77643D01*
X69116Y-77733D01*
X68993Y-77519D02*
X68993Y-77373D01*
X69083Y-77452D01*
X69083Y-77418D01*
X69094Y-77395D01*
X69105Y-77384D01*
X69128Y-77373D01*
X69184Y-77373D01*
X69206Y-77384D01*
X69218Y-77395D01*
X69229Y-77418D01*
X69229Y-77485D01*
X69218Y-77508D01*
X69206Y-77519D01*
X69015Y-78368D02*
X69004Y-78357D01*
X68993Y-78335D01*
X68993Y-78278D01*
X69004Y-78256D01*
X69015Y-78245D01*
X69038Y-78233D01*
X69060Y-78233D01*
X69094Y-78245D01*
X69229Y-78380D01*
X69229Y-78233D01*
X68993Y-78087D02*
X68993Y-78065D01*
X69004Y-78042D01*
X69015Y-78031D01*
X69038Y-78020D01*
X69083Y-78008D01*
X69139Y-78008D01*
X69184Y-78020D01*
X69206Y-78031D01*
X69218Y-78042D01*
X69229Y-78065D01*
X69229Y-78087D01*
X69218Y-78110D01*
X69206Y-78121D01*
X69184Y-78132D01*
X69139Y-78143D01*
X69083Y-78143D01*
X69038Y-78132D01*
X69015Y-78121D01*
X69004Y-78110D01*
X68993Y-78087D01*
X75393Y-74583D02*
X75314Y-74471D01*
X75258Y-74583D02*
X75258Y-74347D01*
X75348Y-74347D01*
X75371Y-74358D01*
X75382Y-74370D01*
X75393Y-74392D01*
X75393Y-74426D01*
X75382Y-74448D01*
X75371Y-74460D01*
X75348Y-74471D01*
X75258Y-74471D01*
X75528Y-74448D02*
X75506Y-74437D01*
X75494Y-74426D01*
X75483Y-74403D01*
X75483Y-74392D01*
X75494Y-74370D01*
X75506Y-74358D01*
X75528Y-74347D01*
X75573Y-74347D01*
X75596Y-74358D01*
X75607Y-74370D01*
X75618Y-74392D01*
X75618Y-74403D01*
X75607Y-74426D01*
X75596Y-74437D01*
X75573Y-74448D01*
X75528Y-74448D01*
X75506Y-74460D01*
X75494Y-74471D01*
X75483Y-74493D01*
X75483Y-74538D01*
X75494Y-74561D01*
X75506Y-74572D01*
X75528Y-74583D01*
X75573Y-74583D01*
X75596Y-74572D01*
X75607Y-74561D01*
X75618Y-74538D01*
X75618Y-74493D01*
X75607Y-74471D01*
X75596Y-74460D01*
X75573Y-74448D01*
X76237Y-74628D02*
X76237Y-74763D01*
X76237Y-74696D02*
X76001Y-74696D01*
X76034Y-74718D01*
X76057Y-74741D01*
X76068Y-74763D01*
X76001Y-74482D02*
X76001Y-74460D01*
X76012Y-74437D01*
X76023Y-74426D01*
X76046Y-74415D01*
X76091Y-74403D01*
X76147Y-74403D01*
X76192Y-74415D01*
X76214Y-74426D01*
X76226Y-74437D01*
X76237Y-74460D01*
X76237Y-74482D01*
X76226Y-74505D01*
X76214Y-74516D01*
X76192Y-74527D01*
X76147Y-74538D01*
X76091Y-74538D01*
X76046Y-74527D01*
X76023Y-74516D01*
X76012Y-74505D01*
X76001Y-74482D01*
X76237Y-74302D02*
X76001Y-74302D01*
X76147Y-74280D02*
X76237Y-74212D01*
X76079Y-74212D02*
X76169Y-74302D01*
X75314Y-75213D02*
X75236Y-75101D01*
X75179Y-75213D02*
X75179Y-74977D01*
X75269Y-74977D01*
X75292Y-74988D01*
X75303Y-75000D01*
X75314Y-75022D01*
X75314Y-75056D01*
X75303Y-75078D01*
X75292Y-75089D01*
X75269Y-75101D01*
X75179Y-75101D01*
X75393Y-74977D02*
X75551Y-74977D01*
X75449Y-75213D01*
X75213Y-76001D02*
X75078Y-76001D01*
X75146Y-76001D02*
X75146Y-75764D01*
X75123Y-75798D01*
X75101Y-75821D01*
X75078Y-75832D01*
X75359Y-75764D02*
X75382Y-75764D01*
X75404Y-75776D01*
X75416Y-75787D01*
X75427Y-75809D01*
X75438Y-75854D01*
X75438Y-75911D01*
X75427Y-75956D01*
X75416Y-75978D01*
X75404Y-75989D01*
X75382Y-76001D01*
X75359Y-76001D01*
X75337Y-75989D01*
X75326Y-75978D01*
X75314Y-75956D01*
X75303Y-75911D01*
X75303Y-75854D01*
X75314Y-75809D01*
X75326Y-75787D01*
X75337Y-75776D01*
X75359Y-75764D01*
X75539Y-76001D02*
X75539Y-75764D01*
X75562Y-75911D02*
X75629Y-76001D01*
X75629Y-75843D02*
X75539Y-75933D01*
X70275Y-78363D02*
X70196Y-78250D01*
X70140Y-78363D02*
X70140Y-78127D01*
X70230Y-78127D01*
X70253Y-78138D01*
X70264Y-78149D01*
X70275Y-78172D01*
X70275Y-78205D01*
X70264Y-78228D01*
X70253Y-78239D01*
X70230Y-78250D01*
X70140Y-78250D01*
X70489Y-78127D02*
X70376Y-78127D01*
X70365Y-78239D01*
X70376Y-78228D01*
X70399Y-78217D01*
X70455Y-78217D01*
X70478Y-78228D01*
X70489Y-78239D01*
X70500Y-78262D01*
X70500Y-78318D01*
X70489Y-78340D01*
X70478Y-78352D01*
X70455Y-78363D01*
X70399Y-78363D01*
X70376Y-78352D01*
X70365Y-78340D01*
X70590Y-77424D02*
X70579Y-77412D01*
X70568Y-77390D01*
X70568Y-77334D01*
X70579Y-77311D01*
X70590Y-77300D01*
X70613Y-77289D01*
X70635Y-77289D01*
X70669Y-77300D01*
X70804Y-77435D01*
X70804Y-77289D01*
X70568Y-77142D02*
X70568Y-77120D01*
X70579Y-77097D01*
X70590Y-77086D01*
X70613Y-77075D01*
X70658Y-77064D01*
X70714Y-77064D01*
X70759Y-77075D01*
X70781Y-77086D01*
X70793Y-77097D01*
X70804Y-77120D01*
X70804Y-77142D01*
X70793Y-77165D01*
X70781Y-77176D01*
X70759Y-77187D01*
X70714Y-77199D01*
X70658Y-77199D01*
X70613Y-77187D01*
X70590Y-77176D01*
X70579Y-77165D01*
X70568Y-77142D01*
G54D15*
X68605Y-71648D02*
X68355Y-71648D01*
X68355Y-71588D01*
X68367Y-71552D01*
X68390Y-71529D01*
X68414Y-71517D01*
X68462Y-71505D01*
X68497Y-71505D01*
X68545Y-71517D01*
X68569Y-71529D01*
X68593Y-71552D01*
X68605Y-71588D01*
X68605Y-71648D01*
X68605Y-71398D02*
X68355Y-71398D01*
X68355Y-71338D01*
X68367Y-71302D01*
X68390Y-71279D01*
X68414Y-71267D01*
X68462Y-71255D01*
X68497Y-71255D01*
X68545Y-71267D01*
X68569Y-71279D01*
X68593Y-71302D01*
X68605Y-71338D01*
X68605Y-71398D01*
X68605Y-71017D02*
X68605Y-71160D01*
X68605Y-71088D02*
X68355Y-71088D01*
X68390Y-71112D01*
X68414Y-71136D01*
X68426Y-71160D01*
G54D16*
G54D15*
X68605Y-70711D02*
X68355Y-70711D01*
X68355Y-70615D01*
X68367Y-70592D01*
X68378Y-70580D01*
X68402Y-70568D01*
X68438Y-70568D01*
X68462Y-70580D01*
X68474Y-70592D01*
X68486Y-70615D01*
X68486Y-70711D01*
X68605Y-70461D02*
X68355Y-70461D01*
X68605Y-70318D01*
X68355Y-70318D01*
X68355Y-70080D02*
X68355Y-70199D01*
X68474Y-70211D01*
X68462Y-70199D01*
X68450Y-70175D01*
X68450Y-70115D01*
X68462Y-70092D01*
X68474Y-70080D01*
X68497Y-70068D01*
X68557Y-70068D01*
X68581Y-70080D01*
X68593Y-70092D01*
X68605Y-70115D01*
X68605Y-70175D01*
X68593Y-70199D01*
X68581Y-70211D01*
X68355Y-69984D02*
X68355Y-69830D01*
X68450Y-69913D01*
X68450Y-69877D01*
X68462Y-69853D01*
X68474Y-69842D01*
X68497Y-69830D01*
X68557Y-69830D01*
X68581Y-69842D01*
X68593Y-69853D01*
X68605Y-69877D01*
X68605Y-69949D01*
X68593Y-69972D01*
X68581Y-69984D01*
X68378Y-69734D02*
X68367Y-69722D01*
X68355Y-69699D01*
X68355Y-69639D01*
X68367Y-69615D01*
X68378Y-69603D01*
X68402Y-69592D01*
X68426Y-69592D01*
X68462Y-69603D01*
X68605Y-69746D01*
X68605Y-69592D01*
G54D16*
G54D14*
X74753Y-60961D02*
X74910Y-61197D01*
X74910Y-60961D02*
X74753Y-61197D01*
X75112Y-61197D02*
X75000Y-61197D01*
X75000Y-60961D01*
X75225Y-61062D02*
X75202Y-61051D01*
X75191Y-61040D01*
X75180Y-61018D01*
X75180Y-61006D01*
X75191Y-60984D01*
X75202Y-60973D01*
X75225Y-60961D01*
X75270Y-60961D01*
X75292Y-60973D01*
X75303Y-60984D01*
X75314Y-61006D01*
X75314Y-61018D01*
X75303Y-61040D01*
X75292Y-61051D01*
X75270Y-61062D01*
X75225Y-61062D01*
X75202Y-61074D01*
X75191Y-61085D01*
X75180Y-61107D01*
X75180Y-61152D01*
X75191Y-61175D01*
X75202Y-61186D01*
X75225Y-61197D01*
X75270Y-61197D01*
X75292Y-61186D01*
X75303Y-61175D01*
X75314Y-61152D01*
X75314Y-61107D01*
X75303Y-61085D01*
X75292Y-61074D01*
X75270Y-61062D01*
X73909Y-61687D02*
X73898Y-61698D01*
X73864Y-61709D01*
X73842Y-61709D01*
X73808Y-61698D01*
X73786Y-61676D01*
X73775Y-61653D01*
X73763Y-61608D01*
X73763Y-61574D01*
X73775Y-61530D01*
X73786Y-61507D01*
X73808Y-61485D01*
X73842Y-61473D01*
X73864Y-61473D01*
X73898Y-61485D01*
X73909Y-61496D01*
X74055Y-61473D02*
X74100Y-61473D01*
X74123Y-61485D01*
X74145Y-61507D01*
X74157Y-61552D01*
X74157Y-61631D01*
X74145Y-61676D01*
X74123Y-61698D01*
X74100Y-61709D01*
X74055Y-61709D01*
X74033Y-61698D01*
X74011Y-61676D01*
X73999Y-61631D01*
X73999Y-61552D01*
X74011Y-61507D01*
X74033Y-61485D01*
X74055Y-61473D01*
X74258Y-61709D02*
X74258Y-61473D01*
X74393Y-61709D01*
X74393Y-61473D01*
X74505Y-61709D02*
X74505Y-61473D01*
X74640Y-61709D01*
X74640Y-61473D01*
X74696Y-61732D02*
X74876Y-61732D01*
X74932Y-61709D02*
X74932Y-61473D01*
X75011Y-61642D01*
X75089Y-61473D01*
X75089Y-61709D01*
X75202Y-61709D02*
X75202Y-61473D01*
X75449Y-61687D02*
X75438Y-61698D01*
X75404Y-61709D01*
X75382Y-61709D01*
X75348Y-61698D01*
X75325Y-61676D01*
X75314Y-61653D01*
X75303Y-61608D01*
X75303Y-61574D01*
X75314Y-61530D01*
X75325Y-61507D01*
X75348Y-61485D01*
X75382Y-61473D01*
X75404Y-61473D01*
X75438Y-61485D01*
X75449Y-61496D01*
X75685Y-61709D02*
X75606Y-61597D01*
X75550Y-61709D02*
X75550Y-61473D01*
X75640Y-61473D01*
X75663Y-61485D01*
X75674Y-61496D01*
X75685Y-61518D01*
X75685Y-61552D01*
X75674Y-61574D01*
X75663Y-61586D01*
X75640Y-61597D01*
X75550Y-61597D01*
X75831Y-61473D02*
X75876Y-61473D01*
X75899Y-61485D01*
X75921Y-61507D01*
X75932Y-61552D01*
X75932Y-61631D01*
X75921Y-61676D01*
X75899Y-61698D01*
X75876Y-61709D01*
X75831Y-61709D01*
X75809Y-61698D01*
X75786Y-61676D01*
X75775Y-61631D01*
X75775Y-61552D01*
X75786Y-61507D01*
X75809Y-61485D01*
X75831Y-61473D01*
X76022Y-61698D02*
X76056Y-61709D01*
X76112Y-61709D01*
X76135Y-61698D01*
X76146Y-61687D01*
X76157Y-61664D01*
X76157Y-61642D01*
X76146Y-61619D01*
X76135Y-61608D01*
X76112Y-61597D01*
X76067Y-61586D01*
X76045Y-61574D01*
X76033Y-61563D01*
X76022Y-61541D01*
X76022Y-61518D01*
X76033Y-61496D01*
X76045Y-61485D01*
X76067Y-61473D01*
X76123Y-61473D01*
X76157Y-61485D01*
X76258Y-61709D02*
X76258Y-61473D01*
X76314Y-61473D01*
X76348Y-61485D01*
X76371Y-61507D01*
X76382Y-61530D01*
X76393Y-61574D01*
X76393Y-61608D01*
X76382Y-61653D01*
X76371Y-61676D01*
X76348Y-61698D01*
X76314Y-61709D01*
X76258Y-61709D01*
X72990Y-69155D02*
X73157Y-68988D01*
X73196Y-69028D01*
X73212Y-69060D01*
X73212Y-69092D01*
X73204Y-69115D01*
X73180Y-69155D01*
X73157Y-69179D01*
X73117Y-69203D01*
X73093Y-69211D01*
X73061Y-69211D01*
X73029Y-69195D01*
X72990Y-69155D01*
X73157Y-69322D02*
X73323Y-69155D01*
X73363Y-69195D01*
X73379Y-69227D01*
X73379Y-69259D01*
X73371Y-69282D01*
X73347Y-69322D01*
X73323Y-69346D01*
X73284Y-69370D01*
X73260Y-69378D01*
X73228Y-69378D01*
X73196Y-69362D01*
X73157Y-69322D01*
X73474Y-69306D02*
X73578Y-69409D01*
X73458Y-69417D01*
X73482Y-69441D01*
X73490Y-69465D01*
X73490Y-69481D01*
X73482Y-69505D01*
X73443Y-69545D01*
X73419Y-69553D01*
X73403Y-69553D01*
X73379Y-69545D01*
X73331Y-69497D01*
X73323Y-69473D01*
X73323Y-69457D01*
X71408Y-68949D02*
X71424Y-68981D01*
X71463Y-69021D01*
X71487Y-69029D01*
X71503Y-69029D01*
X71527Y-69021D01*
X71543Y-69005D01*
X71551Y-68981D01*
X71551Y-68965D01*
X71543Y-68941D01*
X71519Y-68901D01*
X71511Y-68878D01*
X71511Y-68862D01*
X71519Y-68838D01*
X71535Y-68822D01*
X71559Y-68814D01*
X71575Y-68814D01*
X71599Y-68822D01*
X71638Y-68862D01*
X71654Y-68893D01*
X71710Y-68933D02*
X71805Y-69029D01*
X71591Y-69148D02*
X71757Y-68981D01*
X71694Y-69251D02*
X71861Y-69084D01*
X71797Y-69259D01*
X71972Y-69195D01*
X71805Y-69362D01*
X72036Y-69259D02*
X72139Y-69362D01*
X72020Y-69370D01*
X72044Y-69394D01*
X72051Y-69418D01*
X72051Y-69434D01*
X72044Y-69458D01*
X72004Y-69497D01*
X71980Y-69505D01*
X71964Y-69505D01*
X71940Y-69497D01*
X71893Y-69450D01*
X71885Y-69426D01*
X71885Y-69410D01*
X72187Y-69442D02*
X72202Y-69442D01*
X72226Y-69450D01*
X72266Y-69489D01*
X72274Y-69513D01*
X72274Y-69529D01*
X72266Y-69553D01*
X72250Y-69569D01*
X72218Y-69585D01*
X72028Y-69585D01*
X72131Y-69688D01*
X72345Y-69728D02*
X72290Y-69672D01*
X72202Y-69760D02*
X72369Y-69593D01*
X72449Y-69672D01*
X72489Y-69744D02*
X72504Y-69744D01*
X72528Y-69752D01*
X72568Y-69791D01*
X72576Y-69815D01*
X72576Y-69831D01*
X72568Y-69855D01*
X72552Y-69871D01*
X72520Y-69887D01*
X72330Y-69887D01*
X72433Y-69990D01*
X72703Y-69926D02*
X72719Y-69942D01*
X72727Y-69966D01*
X72727Y-69982D01*
X72719Y-70006D01*
X72695Y-70046D01*
X72655Y-70085D01*
X72616Y-70109D01*
X72592Y-70117D01*
X72576Y-70117D01*
X72552Y-70109D01*
X72536Y-70093D01*
X72528Y-70070D01*
X72528Y-70054D01*
X72536Y-70030D01*
X72560Y-69990D01*
X72600Y-69950D01*
X72640Y-69926D01*
X72663Y-69919D01*
X72679Y-69919D01*
X72703Y-69926D01*
X72910Y-70133D02*
X72830Y-70054D01*
X72743Y-70125D01*
X72759Y-70125D01*
X72783Y-70133D01*
X72822Y-70173D01*
X72830Y-70197D01*
X72830Y-70213D01*
X72822Y-70236D01*
X72783Y-70276D01*
X72759Y-70284D01*
X72743Y-70284D01*
X72719Y-70276D01*
X72679Y-70236D01*
X72671Y-70213D01*
X72671Y-70197D01*
X72918Y-70475D02*
X72941Y-70340D01*
X72822Y-70379D02*
X72989Y-70213D01*
X73053Y-70276D01*
X73061Y-70300D01*
X73061Y-70316D01*
X73053Y-70340D01*
X73029Y-70364D01*
X73005Y-70371D01*
X72989Y-70371D01*
X72965Y-70364D01*
X72902Y-70300D01*
X73140Y-70364D02*
X73085Y-70642D01*
X73251Y-70475D02*
X72973Y-70530D01*
X73212Y-70642D02*
X73339Y-70769D01*
X73593Y-70816D02*
X73561Y-70785D01*
X73537Y-70777D01*
X73522Y-70777D01*
X73482Y-70785D01*
X73442Y-70809D01*
X73379Y-70872D01*
X73371Y-70896D01*
X73371Y-70912D01*
X73379Y-70936D01*
X73410Y-70967D01*
X73434Y-70975D01*
X73450Y-70975D01*
X73474Y-70967D01*
X73514Y-70928D01*
X73522Y-70904D01*
X73522Y-70888D01*
X73514Y-70864D01*
X73482Y-70832D01*
X73458Y-70824D01*
X73442Y-70824D01*
X73418Y-70832D01*
X73696Y-71031D02*
X73585Y-71142D01*
X73720Y-70928D02*
X73561Y-71007D01*
X73665Y-71111D01*
X66811Y-78993D02*
X66811Y-78757D01*
X66867Y-78757D01*
X66901Y-78768D01*
X66923Y-78790D01*
X66934Y-78813D01*
X66946Y-78858D01*
X66946Y-78892D01*
X66934Y-78936D01*
X66923Y-78959D01*
X66901Y-78981D01*
X66867Y-78993D01*
X66811Y-78993D01*
X67036Y-78925D02*
X67148Y-78925D01*
X67013Y-78993D02*
X67092Y-78757D01*
X67170Y-78993D01*
X67373Y-78993D02*
X67238Y-78993D01*
X67305Y-78993D02*
X67305Y-78757D01*
X67283Y-78790D01*
X67260Y-78813D01*
X67238Y-78824D01*
X66367Y-79229D02*
X66445Y-79465D01*
X66524Y-79229D01*
X66592Y-79454D02*
X66625Y-79465D01*
X66681Y-79465D01*
X66704Y-79454D01*
X66715Y-79443D01*
X66726Y-79420D01*
X66726Y-79398D01*
X66715Y-79375D01*
X66704Y-79364D01*
X66681Y-79353D01*
X66637Y-79341D01*
X66614Y-79330D01*
X66603Y-79319D01*
X66592Y-79297D01*
X66592Y-79274D01*
X66603Y-79252D01*
X66614Y-79240D01*
X66637Y-79229D01*
X66693Y-79229D01*
X66726Y-79240D01*
X66951Y-79465D02*
X66816Y-79465D01*
X66884Y-79465D02*
X66884Y-79229D01*
X66861Y-79263D01*
X66839Y-79285D01*
X66816Y-79297D01*
X67097Y-79229D02*
X67120Y-79229D01*
X67142Y-79240D01*
X67153Y-79252D01*
X67165Y-79274D01*
X67176Y-79319D01*
X67176Y-79375D01*
X67165Y-79420D01*
X67153Y-79443D01*
X67142Y-79454D01*
X67120Y-79465D01*
X67097Y-79465D01*
X67075Y-79454D01*
X67064Y-79443D01*
X67052Y-79420D01*
X67041Y-79375D01*
X67041Y-79319D01*
X67052Y-79274D01*
X67064Y-79252D01*
X67075Y-79240D01*
X67097Y-79229D01*
X67401Y-79465D02*
X67266Y-79465D01*
X67333Y-79465D02*
X67333Y-79229D01*
X67311Y-79263D01*
X67288Y-79285D01*
X67266Y-79297D01*
X67625Y-79465D02*
X67491Y-79465D01*
X67558Y-79465D02*
X67558Y-79229D01*
X67536Y-79263D01*
X67513Y-79285D01*
X67491Y-79297D01*
X64701Y-65787D02*
X64679Y-65776D01*
X64656Y-65753D01*
X64623Y-65719D01*
X64600Y-65708D01*
X64578Y-65708D01*
X64589Y-65764D02*
X64567Y-65753D01*
X64544Y-65731D01*
X64533Y-65686D01*
X64533Y-65607D01*
X64544Y-65562D01*
X64567Y-65540D01*
X64589Y-65528D01*
X64634Y-65528D01*
X64656Y-65540D01*
X64679Y-65562D01*
X64690Y-65607D01*
X64690Y-65686D01*
X64679Y-65731D01*
X64656Y-65753D01*
X64634Y-65764D01*
X64589Y-65764D01*
X64825Y-65629D02*
X64803Y-65618D01*
X64791Y-65607D01*
X64780Y-65585D01*
X64780Y-65573D01*
X64791Y-65551D01*
X64803Y-65540D01*
X64825Y-65528D01*
X64870Y-65528D01*
X64892Y-65540D01*
X64904Y-65551D01*
X64915Y-65573D01*
X64915Y-65585D01*
X64904Y-65607D01*
X64892Y-65618D01*
X64870Y-65629D01*
X64825Y-65629D01*
X64803Y-65641D01*
X64791Y-65652D01*
X64780Y-65674D01*
X64780Y-65719D01*
X64791Y-65742D01*
X64803Y-65753D01*
X64825Y-65764D01*
X64870Y-65764D01*
X64892Y-65753D01*
X64904Y-65742D01*
X64915Y-65719D01*
X64915Y-65674D01*
X64904Y-65652D01*
X64892Y-65641D01*
X64870Y-65629D01*
X63245Y-66264D02*
X63245Y-66377D01*
X63009Y-66377D01*
X63121Y-66186D02*
X63121Y-66107D01*
X63245Y-66073D02*
X63245Y-66186D01*
X63009Y-66186D01*
X63009Y-66073D01*
X63245Y-65972D02*
X63009Y-65972D01*
X63009Y-65916D01*
X63020Y-65882D01*
X63042Y-65860D01*
X63065Y-65849D01*
X63110Y-65837D01*
X63143Y-65837D01*
X63188Y-65849D01*
X63211Y-65860D01*
X63233Y-65882D01*
X63245Y-65916D01*
X63245Y-65972D01*
X63267Y-65792D02*
X63267Y-65613D01*
X63245Y-65422D02*
X63132Y-65500D01*
X63245Y-65556D02*
X63009Y-65556D01*
X63009Y-65467D01*
X63020Y-65444D01*
X63031Y-65433D01*
X63054Y-65422D01*
X63087Y-65422D01*
X63110Y-65433D01*
X63121Y-65444D01*
X63132Y-65467D01*
X63132Y-65556D01*
X63020Y-65197D02*
X63009Y-65219D01*
X63009Y-65253D01*
X63020Y-65287D01*
X63042Y-65309D01*
X63065Y-65320D01*
X63110Y-65332D01*
X63143Y-65332D01*
X63188Y-65320D01*
X63211Y-65309D01*
X63233Y-65287D01*
X63245Y-65253D01*
X63245Y-65231D01*
X63233Y-65197D01*
X63222Y-65186D01*
X63143Y-65186D01*
X63143Y-65231D01*
X63121Y-65006D02*
X63132Y-64972D01*
X63143Y-64961D01*
X63166Y-64950D01*
X63200Y-64950D01*
X63222Y-64961D01*
X63233Y-64972D01*
X63245Y-64995D01*
X63245Y-65084D01*
X63009Y-65084D01*
X63009Y-65006D01*
X63020Y-64983D01*
X63031Y-64972D01*
X63054Y-64961D01*
X63076Y-64961D01*
X63099Y-64972D01*
X63110Y-64983D01*
X63121Y-65006D01*
X63121Y-65084D01*
G54D10*
X62581Y-70433D02*
X62502Y-70353D01*
X62669Y-70186D01*
X62724Y-70576D02*
X62629Y-70481D01*
X62677Y-70528D02*
X62844Y-70361D01*
X62804Y-70369D01*
X62772Y-70369D01*
X62748Y-70361D01*
X62975Y-70020D02*
X62895Y-69941D01*
X62808Y-70012D01*
X62824Y-70012D01*
X62848Y-70020D01*
X62887Y-70060D01*
X62895Y-70084D01*
X62895Y-70100D01*
X62887Y-70124D01*
X62848Y-70163D01*
X62824Y-70171D01*
X62808Y-70171D01*
X62784Y-70163D01*
X62744Y-70124D01*
X62736Y-70100D01*
X62736Y-70084D01*
X63126Y-70171D02*
X63094Y-70139D01*
X63070Y-70132D01*
X63054Y-70132D01*
X63015Y-70139D01*
X62975Y-70163D01*
X62911Y-70227D01*
X62903Y-70251D01*
X62903Y-70267D01*
X62911Y-70291D01*
X62943Y-70322D01*
X62967Y-70330D01*
X62983Y-70330D01*
X63007Y-70322D01*
X63047Y-70283D01*
X63054Y-70259D01*
X63054Y-70243D01*
X63047Y-70219D01*
X63015Y-70187D01*
X62991Y-70179D01*
X62975Y-70179D01*
X62951Y-70187D01*
X63245Y-70291D02*
X63261Y-70307D01*
X63269Y-70330D01*
X63269Y-70346D01*
X63261Y-70370D01*
X63237Y-70410D01*
X63198Y-70450D01*
X63158Y-70474D01*
X63134Y-70481D01*
X63118Y-70481D01*
X63094Y-70474D01*
X63078Y-70458D01*
X63070Y-70434D01*
X63070Y-70418D01*
X63078Y-70394D01*
X63102Y-70354D01*
X63142Y-70314D01*
X63182Y-70291D01*
X63206Y-70283D01*
X63221Y-70283D01*
X63245Y-70291D01*
X63317Y-70474D02*
X63206Y-70585D01*
X63301Y-70489D02*
X63317Y-70489D01*
X63341Y-70497D01*
X63365Y-70521D01*
X63373Y-70545D01*
X63365Y-70569D01*
X63277Y-70656D01*
X62795Y-71670D02*
X62716Y-71749D01*
X62549Y-71582D01*
X62692Y-71471D02*
X62692Y-71455D01*
X62700Y-71431D01*
X62739Y-71391D01*
X62763Y-71383D01*
X62779Y-71383D01*
X62803Y-71391D01*
X62819Y-71407D01*
X62835Y-71439D01*
X62835Y-71630D01*
X62938Y-71527D01*
X62871Y-71741D02*
X62791Y-71820D01*
X62863Y-71908D01*
X62863Y-71892D01*
X62871Y-71868D01*
X62910Y-71828D01*
X62934Y-71820D01*
X62950Y-71820D01*
X62974Y-71828D01*
X63014Y-71868D01*
X63022Y-71892D01*
X63022Y-71908D01*
X63014Y-71932D01*
X62974Y-71971D01*
X62950Y-71979D01*
X62934Y-71979D01*
X63022Y-71590D02*
X62990Y-71621D01*
X62982Y-71645D01*
X62982Y-71661D01*
X62990Y-71701D01*
X63014Y-71741D01*
X63077Y-71804D01*
X63101Y-71812D01*
X63117Y-71812D01*
X63141Y-71804D01*
X63173Y-71773D01*
X63181Y-71749D01*
X63181Y-71733D01*
X63173Y-71709D01*
X63133Y-71669D01*
X63109Y-71661D01*
X63093Y-71661D01*
X63070Y-71669D01*
X63038Y-71701D01*
X63030Y-71725D01*
X63030Y-71741D01*
X63038Y-71765D01*
X63141Y-71470D02*
X63157Y-71454D01*
X63181Y-71446D01*
X63197Y-71446D01*
X63221Y-71454D01*
X63260Y-71478D01*
X63300Y-71518D01*
X63324Y-71558D01*
X63332Y-71582D01*
X63332Y-71598D01*
X63324Y-71621D01*
X63308Y-71637D01*
X63284Y-71645D01*
X63268Y-71645D01*
X63245Y-71637D01*
X63205Y-71614D01*
X63165Y-71574D01*
X63141Y-71534D01*
X63133Y-71510D01*
X63133Y-71494D01*
X63141Y-71470D01*
X63324Y-71399D02*
X63435Y-71510D01*
X63340Y-71415D02*
X63340Y-71399D01*
X63348Y-71375D01*
X63372Y-71351D01*
X63396Y-71343D01*
X63420Y-71351D01*
X63507Y-71439D01*
G54D17*
X39757Y-59547D02*
X39757Y-59497D01*
X39757Y-59521D02*
X39786Y-59521D01*
X39786Y-59547D02*
X39786Y-59497D01*
X39819Y-59497D02*
X39829Y-59497D01*
X39833Y-59500D01*
X39838Y-59504D01*
X39840Y-59514D01*
X39840Y-59530D01*
X39838Y-59540D01*
X39833Y-59545D01*
X39829Y-59547D01*
X39819Y-59547D01*
X39814Y-59545D01*
X39809Y-59540D01*
X39807Y-59530D01*
X39807Y-59514D01*
X39809Y-59504D01*
X39814Y-59500D01*
X39819Y-59497D01*
X39886Y-59547D02*
X39862Y-59547D01*
X39862Y-59497D01*
X39902Y-59521D02*
X39919Y-59521D01*
X39926Y-59547D02*
X39902Y-59547D01*
X39902Y-59497D01*
X39926Y-59497D01*
X39936Y-59552D02*
X39974Y-59552D01*
X39986Y-59547D02*
X39986Y-59497D01*
X40002Y-59533D01*
X40019Y-59497D01*
X40019Y-59547D01*
X40043Y-59521D02*
X40059Y-59521D01*
X40067Y-59547D02*
X40043Y-59547D01*
X40043Y-59497D01*
X40067Y-59497D01*
X40081Y-59497D02*
X40109Y-59497D01*
X40095Y-59547D02*
X40095Y-59497D01*
X40124Y-59533D02*
X40148Y-59533D01*
X40119Y-59547D02*
X40136Y-59497D01*
X40152Y-59547D01*
X40193Y-59547D02*
X40169Y-59547D01*
X40169Y-59497D01*
X40233Y-59547D02*
X40209Y-59547D01*
X40209Y-59497D01*
X40250Y-59521D02*
X40267Y-59521D01*
X40274Y-59547D02*
X40250Y-59547D01*
X40250Y-59497D01*
X40274Y-59497D01*
X40295Y-59547D02*
X40295Y-59497D01*
X40307Y-59497D01*
X40314Y-59500D01*
X40319Y-59504D01*
X40321Y-59509D01*
X40324Y-59519D01*
X40324Y-59526D01*
X40321Y-59535D01*
X40319Y-59540D01*
X40314Y-59545D01*
X40307Y-59547D01*
X40295Y-59547D01*
X39757Y-80098D02*
X39757Y-80048D01*
X39757Y-80072D02*
X39786Y-80072D01*
X39786Y-80098D02*
X39786Y-80048D01*
X39819Y-80048D02*
X39829Y-80048D01*
X39833Y-80051D01*
X39838Y-80055D01*
X39840Y-80065D01*
X39840Y-80082D01*
X39838Y-80091D01*
X39833Y-80096D01*
X39829Y-80098D01*
X39819Y-80098D01*
X39814Y-80096D01*
X39809Y-80091D01*
X39807Y-80082D01*
X39807Y-80065D01*
X39809Y-80055D01*
X39814Y-80051D01*
X39819Y-80048D01*
X39886Y-80098D02*
X39862Y-80098D01*
X39862Y-80048D01*
X39902Y-80072D02*
X39919Y-80072D01*
X39926Y-80098D02*
X39902Y-80098D01*
X39902Y-80048D01*
X39926Y-80048D01*
X39936Y-80103D02*
X39974Y-80103D01*
X39986Y-80098D02*
X39986Y-80048D01*
X40002Y-80084D01*
X40019Y-80048D01*
X40019Y-80098D01*
X40043Y-80072D02*
X40059Y-80072D01*
X40067Y-80098D02*
X40043Y-80098D01*
X40043Y-80048D01*
X40067Y-80048D01*
X40081Y-80048D02*
X40109Y-80048D01*
X40095Y-80098D02*
X40095Y-80048D01*
X40124Y-80084D02*
X40148Y-80084D01*
X40119Y-80098D02*
X40136Y-80048D01*
X40152Y-80098D01*
X40193Y-80098D02*
X40169Y-80098D01*
X40169Y-80048D01*
X40233Y-80098D02*
X40209Y-80098D01*
X40209Y-80048D01*
X40250Y-80072D02*
X40267Y-80072D01*
X40274Y-80098D02*
X40250Y-80098D01*
X40250Y-80048D01*
X40274Y-80048D01*
X40295Y-80098D02*
X40295Y-80048D01*
X40307Y-80048D01*
X40314Y-80051D01*
X40319Y-80055D01*
X40321Y-80060D01*
X40324Y-80070D01*
X40324Y-80077D01*
X40321Y-80086D01*
X40319Y-80091D01*
X40314Y-80096D01*
X40307Y-80098D01*
X40295Y-80098D01*
X79048Y-81043D02*
X79048Y-80993D01*
X79048Y-81017D02*
X79077Y-81017D01*
X79077Y-81043D02*
X79077Y-80993D01*
X79110Y-80993D02*
X79120Y-80993D01*
X79125Y-80996D01*
X79129Y-81000D01*
X79132Y-81010D01*
X79132Y-81027D01*
X79129Y-81036D01*
X79125Y-81041D01*
X79120Y-81043D01*
X79110Y-81043D01*
X79106Y-81041D01*
X79101Y-81036D01*
X79098Y-81027D01*
X79098Y-81010D01*
X79101Y-81000D01*
X79106Y-80996D01*
X79110Y-80993D01*
X79177Y-81043D02*
X79153Y-81043D01*
X79153Y-80993D01*
X79194Y-81017D02*
X79210Y-81017D01*
X79217Y-81043D02*
X79194Y-81043D01*
X79194Y-80993D01*
X79217Y-80993D01*
X79227Y-81048D02*
X79265Y-81048D01*
X79277Y-81043D02*
X79277Y-80993D01*
X79294Y-81029D01*
X79310Y-80993D01*
X79310Y-81043D01*
X79334Y-81017D02*
X79351Y-81017D01*
X79358Y-81043D02*
X79334Y-81043D01*
X79334Y-80993D01*
X79358Y-80993D01*
X79372Y-80993D02*
X79401Y-80993D01*
X79387Y-81043D02*
X79387Y-80993D01*
X79415Y-81029D02*
X79439Y-81029D01*
X79410Y-81043D02*
X79427Y-80993D01*
X79444Y-81043D01*
X79484Y-81043D02*
X79460Y-81043D01*
X79460Y-80993D01*
X79525Y-81043D02*
X79501Y-81043D01*
X79501Y-80993D01*
X79541Y-81017D02*
X79558Y-81017D01*
X79565Y-81043D02*
X79541Y-81043D01*
X79541Y-80993D01*
X79565Y-80993D01*
X79587Y-81043D02*
X79587Y-80993D01*
X79598Y-80993D01*
X79606Y-80996D01*
X79610Y-81000D01*
X79613Y-81005D01*
X79615Y-81015D01*
X79615Y-81022D01*
X79613Y-81031D01*
X79610Y-81036D01*
X79606Y-81041D01*
X79598Y-81043D01*
X79587Y-81043D01*
X79048Y-58602D02*
X79048Y-58552D01*
X79048Y-58576D02*
X79077Y-58576D01*
X79077Y-58602D02*
X79077Y-58552D01*
X79110Y-58552D02*
X79120Y-58552D01*
X79125Y-58555D01*
X79129Y-58559D01*
X79132Y-58569D01*
X79132Y-58586D01*
X79129Y-58595D01*
X79125Y-58600D01*
X79120Y-58602D01*
X79110Y-58602D01*
X79106Y-58600D01*
X79101Y-58595D01*
X79098Y-58586D01*
X79098Y-58569D01*
X79101Y-58559D01*
X79106Y-58555D01*
X79110Y-58552D01*
X79177Y-58602D02*
X79153Y-58602D01*
X79153Y-58552D01*
X79194Y-58576D02*
X79210Y-58576D01*
X79217Y-58602D02*
X79194Y-58602D01*
X79194Y-58552D01*
X79217Y-58552D01*
X79227Y-58607D02*
X79265Y-58607D01*
X79277Y-58602D02*
X79277Y-58552D01*
X79294Y-58588D01*
X79310Y-58552D01*
X79310Y-58602D01*
X79334Y-58576D02*
X79351Y-58576D01*
X79358Y-58602D02*
X79334Y-58602D01*
X79334Y-58552D01*
X79358Y-58552D01*
X79372Y-58552D02*
X79401Y-58552D01*
X79387Y-58602D02*
X79387Y-58552D01*
X79415Y-58588D02*
X79439Y-58588D01*
X79410Y-58602D02*
X79427Y-58552D01*
X79444Y-58602D01*
X79484Y-58602D02*
X79460Y-58602D01*
X79460Y-58552D01*
X79525Y-58602D02*
X79501Y-58602D01*
X79501Y-58552D01*
X79541Y-58576D02*
X79558Y-58576D01*
X79565Y-58602D02*
X79541Y-58602D01*
X79541Y-58552D01*
X79565Y-58552D01*
X79587Y-58602D02*
X79587Y-58552D01*
X79598Y-58552D01*
X79606Y-58555D01*
X79610Y-58559D01*
X79613Y-58564D01*
X79615Y-58574D01*
X79615Y-58581D01*
X79613Y-58590D01*
X79610Y-58595D01*
X79606Y-58600D01*
X79598Y-58602D01*
X79587Y-58602D01*
G54D10*
X76889Y-73481D02*
X76889Y-73245D01*
X76946Y-73245D01*
X76979Y-73256D01*
X77002Y-73278D01*
X77013Y-73301D01*
X77024Y-73346D01*
X77024Y-73380D01*
X77013Y-73425D01*
X77002Y-73447D01*
X76979Y-73470D01*
X76946Y-73481D01*
X76889Y-73481D01*
X77114Y-73413D02*
X77227Y-73413D01*
X77092Y-73481D02*
X77170Y-73245D01*
X77249Y-73481D01*
X77317Y-73267D02*
X77328Y-73256D01*
X77350Y-73245D01*
X77407Y-73245D01*
X77429Y-73256D01*
X77440Y-73267D01*
X77452Y-73290D01*
X77452Y-73312D01*
X77440Y-73346D01*
X77305Y-73481D01*
X77452Y-73481D01*
X76507Y-75134D02*
X76642Y-75134D01*
X76574Y-75371D02*
X76574Y-75134D01*
X76721Y-75371D02*
X76721Y-75134D01*
X76811Y-75134D01*
X76833Y-75146D01*
X76844Y-75157D01*
X76856Y-75179D01*
X76856Y-75213D01*
X76844Y-75236D01*
X76833Y-75247D01*
X76811Y-75258D01*
X76721Y-75258D01*
X76946Y-75303D02*
X77058Y-75303D01*
X76923Y-75371D02*
X77002Y-75134D01*
X77080Y-75371D01*
X77260Y-75134D02*
X77215Y-75134D01*
X77193Y-75146D01*
X77182Y-75157D01*
X77159Y-75191D01*
X77148Y-75236D01*
X77148Y-75326D01*
X77159Y-75348D01*
X77170Y-75359D01*
X77193Y-75371D01*
X77238Y-75371D01*
X77260Y-75359D01*
X77272Y-75348D01*
X77283Y-75326D01*
X77283Y-75269D01*
X77272Y-75247D01*
X77260Y-75236D01*
X77238Y-75224D01*
X77193Y-75224D01*
X77170Y-75236D01*
X77159Y-75247D01*
X77148Y-75269D01*
X77373Y-75157D02*
X77384Y-75146D01*
X77407Y-75134D01*
X77463Y-75134D01*
X77485Y-75146D01*
X77497Y-75157D01*
X77508Y-75179D01*
X77508Y-75202D01*
X77497Y-75236D01*
X77362Y-75371D01*
X77508Y-75371D01*
X77733Y-75371D02*
X77598Y-75371D01*
X77665Y-75371D02*
X77665Y-75134D01*
X77643Y-75168D01*
X77620Y-75191D01*
X77598Y-75202D01*
X77958Y-75371D02*
X77823Y-75371D01*
X77890Y-75371D02*
X77890Y-75134D01*
X77868Y-75168D01*
X77845Y-75191D01*
X77823Y-75202D01*
G54D14*
X68270Y-73267D02*
X68282Y-73248D01*
X68306Y-73230D01*
X68366Y-73230D01*
X68389Y-73248D01*
X68401Y-73267D01*
X68413Y-73305D01*
X68413Y-73342D01*
X68401Y-73398D01*
X68258Y-73624D01*
X68413Y-73624D01*
X68496Y-73230D02*
X68663Y-73230D01*
X68556Y-73624D01*
X68758Y-73586D02*
X68770Y-73605D01*
X68758Y-73624D01*
X68746Y-73605D01*
X68758Y-73586D01*
X68758Y-73624D01*
X69008Y-73624D02*
X68866Y-73624D01*
X68937Y-73624D02*
X68937Y-73230D01*
X68913Y-73286D01*
X68889Y-73323D01*
X68866Y-73342D01*
X69104Y-73267D02*
X69116Y-73248D01*
X69139Y-73230D01*
X69199Y-73230D01*
X69223Y-73248D01*
X69235Y-73267D01*
X69246Y-73305D01*
X69246Y-73342D01*
X69235Y-73398D01*
X69092Y-73624D01*
X69246Y-73624D01*
X69354Y-73624D02*
X69354Y-73230D01*
X69437Y-73511D01*
X69520Y-73230D01*
X69520Y-73624D01*
X69639Y-73624D02*
X69639Y-73230D01*
X69639Y-73417D02*
X69782Y-73417D01*
X69782Y-73624D02*
X69782Y-73230D01*
X69877Y-73361D02*
X70008Y-73361D01*
X69877Y-73624D01*
X70008Y-73624D01*
X68821Y-65813D02*
X68720Y-65914D01*
X68771Y-65863D02*
X68492Y-65585D01*
X68515Y-65642D01*
X68525Y-65685D01*
X68521Y-65715D01*
X68636Y-65494D02*
X68631Y-65472D01*
X68635Y-65442D01*
X68677Y-65400D01*
X68707Y-65396D01*
X68729Y-65401D01*
X68764Y-65419D01*
X68790Y-65446D01*
X68822Y-65494D01*
X68880Y-65754D01*
X68989Y-65645D01*
X69039Y-65542D02*
X69060Y-65547D01*
X69065Y-65569D01*
X69043Y-65564D01*
X69039Y-65542D01*
X69065Y-65569D01*
X68904Y-65172D02*
X68921Y-65156D01*
X68951Y-65152D01*
X68973Y-65157D01*
X69008Y-65175D01*
X69069Y-65220D01*
X69136Y-65286D01*
X69180Y-65347D01*
X69199Y-65382D01*
X69203Y-65404D01*
X69200Y-65434D01*
X69183Y-65451D01*
X69153Y-65455D01*
X69131Y-65450D01*
X69096Y-65432D01*
X69035Y-65387D01*
X68968Y-65321D01*
X68924Y-65259D01*
X68906Y-65224D01*
X68901Y-65202D01*
X68904Y-65172D01*
X69318Y-65316D02*
X69039Y-65038D01*
X69297Y-65178D01*
X69157Y-64920D01*
X69436Y-65198D01*
X69520Y-65114D02*
X69241Y-64836D01*
X69374Y-64968D02*
X69475Y-64867D01*
X69621Y-65013D02*
X69342Y-64735D01*
X69502Y-64760D02*
X69595Y-64668D01*
X69688Y-64946D01*
X69781Y-64853D01*
G54D10*
X80016Y-66034D02*
X80253Y-65877D01*
X80016Y-65877D02*
X80253Y-66034D01*
X80253Y-65674D02*
X80253Y-65787D01*
X80016Y-65787D01*
X80095Y-65494D02*
X80253Y-65494D01*
X80005Y-65551D02*
X80174Y-65607D01*
X80174Y-65461D01*
X68993Y-81704D02*
X69229Y-81546D01*
X68993Y-81546D02*
X69229Y-81704D01*
X69229Y-81344D02*
X69229Y-81456D01*
X68993Y-81456D01*
X69015Y-81276D02*
X69004Y-81265D01*
X68993Y-81242D01*
X68993Y-81186D01*
X69004Y-81164D01*
X69015Y-81152D01*
X69038Y-81141D01*
X69060Y-81141D01*
X69094Y-81152D01*
X69229Y-81287D01*
X69229Y-81141D01*
X77812Y-61901D02*
X78048Y-61743D01*
X77812Y-61743D02*
X78048Y-61901D01*
X78048Y-61541D02*
X78048Y-61653D01*
X77812Y-61653D01*
X77812Y-61484D02*
X77812Y-61327D01*
X78048Y-61428D01*
X80095Y-76349D02*
X80331Y-76192D01*
X80095Y-76192D02*
X80331Y-76349D01*
X80331Y-75989D02*
X80331Y-76102D01*
X80095Y-76102D01*
X80095Y-75809D02*
X80095Y-75854D01*
X80106Y-75877D01*
X80118Y-75888D01*
X80151Y-75911D01*
X80196Y-75922D01*
X80286Y-75922D01*
X80309Y-75911D01*
X80320Y-75899D01*
X80331Y-75877D01*
X80331Y-75832D01*
X80320Y-75809D01*
X80309Y-75798D01*
X80286Y-75787D01*
X80230Y-75787D01*
X80208Y-75798D01*
X80196Y-75809D01*
X80185Y-75832D01*
X80185Y-75877D01*
X80196Y-75899D01*
X80208Y-75911D01*
X80230Y-75922D01*
G54D14*
X71761Y-82930D02*
X71918Y-83166D01*
X71918Y-82930D02*
X71761Y-83166D01*
X72120Y-83166D02*
X72008Y-83166D01*
X72008Y-82930D01*
X72322Y-83166D02*
X72188Y-83166D01*
X72255Y-83166D02*
X72255Y-82930D01*
X72233Y-82964D01*
X72210Y-82986D01*
X72188Y-82997D01*
G54D10*
X65033Y-67632D02*
X65044Y-67643D01*
X65056Y-67677D01*
X65056Y-67699D01*
X65044Y-67733D01*
X65022Y-67755D01*
X65000Y-67767D01*
X64955Y-67778D01*
X64921Y-67778D01*
X64876Y-67767D01*
X64853Y-67755D01*
X64831Y-67733D01*
X64820Y-67699D01*
X64820Y-67677D01*
X64831Y-67643D01*
X64842Y-67632D01*
X65056Y-67407D02*
X65056Y-67542D01*
X65056Y-67474D02*
X64820Y-67474D01*
X64853Y-67497D01*
X64876Y-67519D01*
X64887Y-67542D01*
X65056Y-67294D02*
X65056Y-67249D01*
X65044Y-67227D01*
X65033Y-67215D01*
X65000Y-67193D01*
X64955Y-67182D01*
X64865Y-67182D01*
X64842Y-67193D01*
X64831Y-67204D01*
X64820Y-67227D01*
X64820Y-67272D01*
X64831Y-67294D01*
X64842Y-67305D01*
X64865Y-67317D01*
X64921Y-67317D01*
X64943Y-67305D01*
X64955Y-67294D01*
X64966Y-67272D01*
X64966Y-67227D01*
X64955Y-67204D01*
X64943Y-67193D01*
X64921Y-67182D01*
X65371Y-67632D02*
X65371Y-67767D01*
X65371Y-67699D02*
X65134Y-67699D01*
X65168Y-67722D01*
X65191Y-67744D01*
X65202Y-67767D01*
X65134Y-67485D02*
X65134Y-67463D01*
X65146Y-67440D01*
X65157Y-67429D01*
X65179Y-67418D01*
X65224Y-67407D01*
X65281Y-67407D01*
X65326Y-67418D01*
X65348Y-67429D01*
X65359Y-67440D01*
X65371Y-67463D01*
X65371Y-67485D01*
X65359Y-67508D01*
X65348Y-67519D01*
X65326Y-67530D01*
X65281Y-67542D01*
X65224Y-67542D01*
X65179Y-67530D01*
X65157Y-67519D01*
X65146Y-67508D01*
X65134Y-67485D01*
X65213Y-67204D02*
X65371Y-67204D01*
X65213Y-67305D02*
X65337Y-67305D01*
X65359Y-67294D01*
X65371Y-67272D01*
X65371Y-67238D01*
X65359Y-67215D01*
X65348Y-67204D01*
X68498Y-77710D02*
X68509Y-77722D01*
X68520Y-77755D01*
X68520Y-77778D01*
X68509Y-77812D01*
X68487Y-77834D01*
X68464Y-77845D01*
X68419Y-77857D01*
X68385Y-77857D01*
X68340Y-77845D01*
X68318Y-77834D01*
X68295Y-77812D01*
X68284Y-77778D01*
X68284Y-77755D01*
X68295Y-77722D01*
X68307Y-77710D01*
X68307Y-77620D02*
X68295Y-77609D01*
X68284Y-77587D01*
X68284Y-77530D01*
X68295Y-77508D01*
X68307Y-77497D01*
X68329Y-77485D01*
X68352Y-77485D01*
X68385Y-77497D01*
X68520Y-77632D01*
X68520Y-77485D01*
X68284Y-77283D02*
X68284Y-77328D01*
X68295Y-77350D01*
X68307Y-77362D01*
X68340Y-77384D01*
X68385Y-77395D01*
X68475Y-77395D01*
X68498Y-77384D01*
X68509Y-77373D01*
X68520Y-77350D01*
X68520Y-77305D01*
X68509Y-77283D01*
X68498Y-77272D01*
X68475Y-77260D01*
X68419Y-77260D01*
X68397Y-77272D01*
X68385Y-77283D01*
X68374Y-77305D01*
X68374Y-77350D01*
X68385Y-77373D01*
X68397Y-77384D01*
X68419Y-77395D01*
X68588Y-75607D02*
X68453Y-75607D01*
X68520Y-75607D02*
X68520Y-75371D01*
X68498Y-75404D01*
X68475Y-75427D01*
X68453Y-75438D01*
X68734Y-75371D02*
X68757Y-75371D01*
X68779Y-75382D01*
X68790Y-75393D01*
X68802Y-75416D01*
X68813Y-75461D01*
X68813Y-75517D01*
X68802Y-75562D01*
X68790Y-75584D01*
X68779Y-75596D01*
X68757Y-75607D01*
X68734Y-75607D01*
X68712Y-75596D01*
X68700Y-75584D01*
X68689Y-75562D01*
X68678Y-75517D01*
X68678Y-75461D01*
X68689Y-75416D01*
X68700Y-75393D01*
X68712Y-75382D01*
X68734Y-75371D01*
X69015Y-75449D02*
X69015Y-75607D01*
X68914Y-75449D02*
X68914Y-75573D01*
X68925Y-75596D01*
X68948Y-75607D01*
X68982Y-75607D01*
X69004Y-75596D01*
X69015Y-75584D01*
X70399Y-74797D02*
X70388Y-74808D01*
X70354Y-74820D01*
X70331Y-74820D01*
X70298Y-74808D01*
X70275Y-74786D01*
X70264Y-74763D01*
X70253Y-74718D01*
X70253Y-74685D01*
X70264Y-74640D01*
X70275Y-74617D01*
X70298Y-74595D01*
X70331Y-74583D01*
X70354Y-74583D01*
X70388Y-74595D01*
X70399Y-74606D01*
X70601Y-74662D02*
X70601Y-74820D01*
X70545Y-74572D02*
X70489Y-74741D01*
X70635Y-74741D01*
X70703Y-74583D02*
X70849Y-74583D01*
X70770Y-74673D01*
X70804Y-74673D01*
X70826Y-74685D01*
X70838Y-74696D01*
X70849Y-74718D01*
X70849Y-74775D01*
X70838Y-74797D01*
X70826Y-74808D01*
X70804Y-74820D01*
X70736Y-74820D01*
X70714Y-74808D01*
X70703Y-74797D01*
X70635Y-75134D02*
X70500Y-75134D01*
X70568Y-75134D02*
X70568Y-74898D01*
X70545Y-74932D01*
X70523Y-74955D01*
X70500Y-74966D01*
X70781Y-74898D02*
X70804Y-74898D01*
X70826Y-74910D01*
X70838Y-74921D01*
X70849Y-74943D01*
X70860Y-74988D01*
X70860Y-75044D01*
X70849Y-75089D01*
X70838Y-75112D01*
X70826Y-75123D01*
X70804Y-75134D01*
X70781Y-75134D01*
X70759Y-75123D01*
X70748Y-75112D01*
X70736Y-75089D01*
X70725Y-75044D01*
X70725Y-74988D01*
X70736Y-74943D01*
X70748Y-74921D01*
X70759Y-74910D01*
X70781Y-74898D01*
X71062Y-74977D02*
X71062Y-75134D01*
X70961Y-74977D02*
X70961Y-75101D01*
X70973Y-75123D01*
X70995Y-75134D01*
X71029Y-75134D01*
X71051Y-75123D01*
X71062Y-75112D01*
X68655Y-83380D02*
X68667Y-83391D01*
X68678Y-83425D01*
X68678Y-83447D01*
X68667Y-83481D01*
X68644Y-83503D01*
X68622Y-83515D01*
X68577Y-83526D01*
X68543Y-83526D01*
X68498Y-83515D01*
X68475Y-83503D01*
X68453Y-83481D01*
X68442Y-83447D01*
X68442Y-83425D01*
X68453Y-83391D01*
X68464Y-83380D01*
X68442Y-83301D02*
X68442Y-83155D01*
X68532Y-83233D01*
X68532Y-83200D01*
X68543Y-83177D01*
X68554Y-83166D01*
X68577Y-83155D01*
X68633Y-83155D01*
X68655Y-83166D01*
X68667Y-83177D01*
X68678Y-83200D01*
X68678Y-83267D01*
X68667Y-83290D01*
X68655Y-83301D01*
X68442Y-83008D02*
X68442Y-82986D01*
X68453Y-82964D01*
X68464Y-82952D01*
X68487Y-82941D01*
X68532Y-82930D01*
X68588Y-82930D01*
X68633Y-82941D01*
X68655Y-82952D01*
X68667Y-82964D01*
X68678Y-82986D01*
X68678Y-83008D01*
X68667Y-83031D01*
X68655Y-83042D01*
X68633Y-83053D01*
X68588Y-83065D01*
X68532Y-83065D01*
X68487Y-83053D01*
X68464Y-83042D01*
X68453Y-83031D01*
X68442Y-83008D01*
X68678Y-82514D02*
X68678Y-82649D01*
X68678Y-82581D02*
X68442Y-82581D01*
X68475Y-82604D01*
X68498Y-82626D01*
X68509Y-82649D01*
X68442Y-82367D02*
X68442Y-82345D01*
X68453Y-82322D01*
X68464Y-82311D01*
X68487Y-82300D01*
X68532Y-82289D01*
X68588Y-82289D01*
X68633Y-82300D01*
X68655Y-82311D01*
X68667Y-82322D01*
X68678Y-82345D01*
X68678Y-82367D01*
X68667Y-82390D01*
X68655Y-82401D01*
X68633Y-82412D01*
X68588Y-82424D01*
X68532Y-82424D01*
X68487Y-82412D01*
X68464Y-82401D01*
X68453Y-82390D01*
X68442Y-82367D01*
X68520Y-82086D02*
X68678Y-82086D01*
X68520Y-82187D02*
X68644Y-82187D01*
X68667Y-82176D01*
X68678Y-82154D01*
X68678Y-82120D01*
X68667Y-82097D01*
X68655Y-82086D01*
X69944Y-68820D02*
X69944Y-68836D01*
X69928Y-68868D01*
X69912Y-68884D01*
X69880Y-68900D01*
X69848Y-68900D01*
X69825Y-68892D01*
X69785Y-68868D01*
X69761Y-68844D01*
X69737Y-68804D01*
X69729Y-68780D01*
X69729Y-68748D01*
X69745Y-68717D01*
X69761Y-68701D01*
X69793Y-68685D01*
X69809Y-68685D01*
X69992Y-68581D02*
X70103Y-68693D01*
X69888Y-68558D02*
X69968Y-68717D01*
X70071Y-68613D01*
X70151Y-68422D02*
X70262Y-68534D01*
X70047Y-68398D02*
X70127Y-68558D01*
X70230Y-68454D01*
X69660Y-67414D02*
X69676Y-67430D01*
X69684Y-67454D01*
X69684Y-67469D01*
X69676Y-67493D01*
X69652Y-67533D01*
X69612Y-67573D01*
X69572Y-67597D01*
X69549Y-67605D01*
X69533Y-67605D01*
X69509Y-67597D01*
X69493Y-67581D01*
X69485Y-67557D01*
X69485Y-67541D01*
X69493Y-67517D01*
X69517Y-67477D01*
X69556Y-67438D01*
X69596Y-67414D01*
X69620Y-67406D01*
X69636Y-67406D01*
X69660Y-67414D01*
X69636Y-67692D02*
X69636Y-67708D01*
X69620Y-67708D01*
X69620Y-67692D01*
X69636Y-67692D01*
X69620Y-67708D01*
X69787Y-67875D02*
X69692Y-67780D01*
X69739Y-67827D02*
X69906Y-67660D01*
X69867Y-67668D01*
X69835Y-67668D01*
X69811Y-67660D01*
X70042Y-67907D02*
X69930Y-68018D01*
X69970Y-67835D02*
X69883Y-67923D01*
X69875Y-67947D01*
X69883Y-67971D01*
X69906Y-67994D01*
X69930Y-68002D01*
X69946Y-68002D01*
X68187Y-68999D02*
X68171Y-68999D01*
X68139Y-68983D01*
X68123Y-68967D01*
X68107Y-68935D01*
X68107Y-68903D01*
X68115Y-68880D01*
X68139Y-68840D01*
X68163Y-68816D01*
X68203Y-68792D01*
X68227Y-68784D01*
X68258Y-68784D01*
X68290Y-68800D01*
X68306Y-68816D01*
X68322Y-68848D01*
X68322Y-68864D01*
X68425Y-69047D02*
X68314Y-69158D01*
X68449Y-68943D02*
X68290Y-69023D01*
X68394Y-69126D01*
X68648Y-69158D02*
X68569Y-69078D01*
X68481Y-69150D01*
X68497Y-69150D01*
X68521Y-69158D01*
X68561Y-69198D01*
X68569Y-69222D01*
X68569Y-69238D01*
X68561Y-69261D01*
X68521Y-69301D01*
X68497Y-69309D01*
X68481Y-69309D01*
X68457Y-69301D01*
X68418Y-69261D01*
X68410Y-69238D01*
X68410Y-69222D01*
X68172Y-68543D02*
X68076Y-68448D01*
X68124Y-68495D02*
X68291Y-68328D01*
X68251Y-68336D01*
X68219Y-68336D01*
X68196Y-68328D01*
X68426Y-68575D02*
X68315Y-68686D01*
X68355Y-68503D02*
X68267Y-68591D01*
X68259Y-68615D01*
X68267Y-68639D01*
X68291Y-68663D01*
X68315Y-68670D01*
X68331Y-68670D01*
X66777Y-83537D02*
X66766Y-83548D01*
X66732Y-83560D01*
X66709Y-83560D01*
X66676Y-83548D01*
X66653Y-83526D01*
X66642Y-83503D01*
X66631Y-83458D01*
X66631Y-83425D01*
X66642Y-83380D01*
X66653Y-83357D01*
X66676Y-83335D01*
X66709Y-83323D01*
X66732Y-83323D01*
X66766Y-83335D01*
X66777Y-83346D01*
X66867Y-83346D02*
X66878Y-83335D01*
X66901Y-83323D01*
X66957Y-83323D01*
X66979Y-83335D01*
X66991Y-83346D01*
X67002Y-83368D01*
X67002Y-83391D01*
X66991Y-83425D01*
X66856Y-83560D01*
X67002Y-83560D01*
X67080Y-83323D02*
X67238Y-83323D01*
X67137Y-83560D01*
X66642Y-81749D02*
X66664Y-81749D01*
X66687Y-81760D01*
X66698Y-81771D01*
X66709Y-81794D01*
X66721Y-81839D01*
X66721Y-81895D01*
X66709Y-81940D01*
X66698Y-81962D01*
X66687Y-81974D01*
X66664Y-81985D01*
X66642Y-81985D01*
X66619Y-81974D01*
X66608Y-81962D01*
X66597Y-81940D01*
X66586Y-81895D01*
X66586Y-81839D01*
X66597Y-81794D01*
X66608Y-81771D01*
X66619Y-81760D01*
X66642Y-81749D01*
X66822Y-81962D02*
X66833Y-81974D01*
X66822Y-81985D01*
X66811Y-81974D01*
X66822Y-81962D01*
X66822Y-81985D01*
X67058Y-81985D02*
X66923Y-81985D01*
X66991Y-81985D02*
X66991Y-81749D01*
X66968Y-81782D01*
X66946Y-81805D01*
X66923Y-81816D01*
X67260Y-81827D02*
X67260Y-81985D01*
X67159Y-81827D02*
X67159Y-81951D01*
X67170Y-81974D01*
X67193Y-81985D01*
X67227Y-81985D01*
X67249Y-81974D01*
X67260Y-81962D01*
X73226Y-66007D02*
X73210Y-66007D01*
X73179Y-65991D01*
X73163Y-65975D01*
X73147Y-65943D01*
X73147Y-65911D01*
X73155Y-65888D01*
X73179Y-65848D01*
X73202Y-65824D01*
X73242Y-65800D01*
X73266Y-65792D01*
X73298Y-65792D01*
X73330Y-65808D01*
X73346Y-65824D01*
X73361Y-65856D01*
X73361Y-65872D01*
X73465Y-66055D02*
X73354Y-66166D01*
X73489Y-65951D02*
X73330Y-66031D01*
X73433Y-66134D01*
X73528Y-66341D02*
X73433Y-66245D01*
X73481Y-66293D02*
X73648Y-66126D01*
X73608Y-66134D01*
X73576Y-66134D01*
X73552Y-66126D01*
X72967Y-65996D02*
X72983Y-66012D01*
X72991Y-66036D01*
X72991Y-66052D01*
X72983Y-66076D01*
X72959Y-66116D01*
X72919Y-66156D01*
X72879Y-66179D01*
X72856Y-66187D01*
X72840Y-66187D01*
X72816Y-66179D01*
X72800Y-66163D01*
X72792Y-66140D01*
X72792Y-66124D01*
X72800Y-66100D01*
X72824Y-66060D01*
X72864Y-66020D01*
X72903Y-65996D01*
X72927Y-65989D01*
X72943Y-65989D01*
X72967Y-65996D01*
X72943Y-66275D02*
X72943Y-66291D01*
X72927Y-66291D01*
X72927Y-66275D01*
X72943Y-66275D01*
X72927Y-66291D01*
X73094Y-66458D02*
X72999Y-66362D01*
X73047Y-66410D02*
X73214Y-66243D01*
X73174Y-66251D01*
X73142Y-66251D01*
X73118Y-66243D01*
X73349Y-66490D02*
X73237Y-66601D01*
X73277Y-66418D02*
X73190Y-66506D01*
X73182Y-66529D01*
X73190Y-66553D01*
X73214Y-66577D01*
X73237Y-66585D01*
X73253Y-66585D01*
X63667Y-79468D02*
X63678Y-79479D01*
X63690Y-79513D01*
X63690Y-79535D01*
X63678Y-79569D01*
X63656Y-79591D01*
X63633Y-79603D01*
X63588Y-79614D01*
X63555Y-79614D01*
X63510Y-79603D01*
X63487Y-79591D01*
X63465Y-79569D01*
X63453Y-79535D01*
X63453Y-79513D01*
X63465Y-79479D01*
X63476Y-79468D01*
X63476Y-79378D02*
X63465Y-79366D01*
X63453Y-79344D01*
X63453Y-79288D01*
X63465Y-79265D01*
X63476Y-79254D01*
X63498Y-79243D01*
X63521Y-79243D01*
X63555Y-79254D01*
X63690Y-79389D01*
X63690Y-79243D01*
X63690Y-79130D02*
X63690Y-79085D01*
X63678Y-79063D01*
X63667Y-79051D01*
X63633Y-79029D01*
X63588Y-79018D01*
X63498Y-79018D01*
X63476Y-79029D01*
X63465Y-79040D01*
X63453Y-79063D01*
X63453Y-79108D01*
X63465Y-79130D01*
X63476Y-79141D01*
X63498Y-79153D01*
X63555Y-79153D01*
X63577Y-79141D01*
X63588Y-79130D01*
X63600Y-79108D01*
X63600Y-79063D01*
X63588Y-79040D01*
X63577Y-79029D01*
X63555Y-79018D01*
X64111Y-78554D02*
X64111Y-78532D01*
X64122Y-78509D01*
X64133Y-78498D01*
X64156Y-78487D01*
X64201Y-78475D01*
X64257Y-78475D01*
X64302Y-78487D01*
X64325Y-78498D01*
X64336Y-78509D01*
X64347Y-78532D01*
X64347Y-78554D01*
X64336Y-78577D01*
X64325Y-78588D01*
X64302Y-78599D01*
X64257Y-78610D01*
X64201Y-78610D01*
X64156Y-78599D01*
X64133Y-78588D01*
X64122Y-78577D01*
X64111Y-78554D01*
X64325Y-78374D02*
X64336Y-78363D01*
X64347Y-78374D01*
X64336Y-78385D01*
X64325Y-78374D01*
X64347Y-78374D01*
X64347Y-78138D02*
X64347Y-78273D01*
X64347Y-78205D02*
X64111Y-78205D01*
X64145Y-78228D01*
X64167Y-78250D01*
X64178Y-78273D01*
X64190Y-77935D02*
X64347Y-77935D01*
X64190Y-78037D02*
X64313Y-78037D01*
X64336Y-78025D01*
X64347Y-78003D01*
X64347Y-77969D01*
X64336Y-77947D01*
X64325Y-77935D01*
X69032Y-71732D02*
X69016Y-71732D01*
X68984Y-71716D01*
X68968Y-71701D01*
X68953Y-71669D01*
X68953Y-71637D01*
X68961Y-71613D01*
X68984Y-71573D01*
X69008Y-71549D01*
X69048Y-71526D01*
X69072Y-71518D01*
X69104Y-71518D01*
X69136Y-71534D01*
X69151Y-71549D01*
X69167Y-71581D01*
X69167Y-71597D01*
X69271Y-71780D02*
X69159Y-71891D01*
X69295Y-71677D02*
X69136Y-71756D01*
X69239Y-71860D01*
X69390Y-71820D02*
X69406Y-71820D01*
X69430Y-71828D01*
X69470Y-71868D01*
X69478Y-71891D01*
X69478Y-71907D01*
X69470Y-71931D01*
X69454Y-71947D01*
X69422Y-71963D01*
X69231Y-71963D01*
X69334Y-72066D01*
X69030Y-71902D02*
X69046Y-71918D01*
X69054Y-71942D01*
X69054Y-71958D01*
X69046Y-71982D01*
X69022Y-72021D01*
X68982Y-72061D01*
X68942Y-72085D01*
X68919Y-72093D01*
X68903Y-72093D01*
X68879Y-72085D01*
X68863Y-72069D01*
X68855Y-72045D01*
X68855Y-72029D01*
X68863Y-72005D01*
X68887Y-71966D01*
X68927Y-71926D01*
X68966Y-71902D01*
X68990Y-71894D01*
X69006Y-71894D01*
X69030Y-71902D01*
X69006Y-72180D02*
X69006Y-72196D01*
X68990Y-72196D01*
X68990Y-72180D01*
X69006Y-72180D01*
X68990Y-72196D01*
X69157Y-72363D02*
X69062Y-72268D01*
X69109Y-72316D02*
X69277Y-72149D01*
X69237Y-72157D01*
X69205Y-72157D01*
X69181Y-72149D01*
X69412Y-72395D02*
X69300Y-72506D01*
X69340Y-72324D02*
X69253Y-72411D01*
X69245Y-72435D01*
X69253Y-72459D01*
X69277Y-72483D01*
X69300Y-72491D01*
X69316Y-72491D01*
X78813Y-75506D02*
X78824Y-75517D01*
X78835Y-75551D01*
X78835Y-75573D01*
X78824Y-75607D01*
X78802Y-75629D01*
X78779Y-75641D01*
X78734Y-75652D01*
X78700Y-75652D01*
X78655Y-75641D01*
X78633Y-75629D01*
X78610Y-75607D01*
X78599Y-75573D01*
X78599Y-75551D01*
X78610Y-75517D01*
X78622Y-75506D01*
X78678Y-75303D02*
X78835Y-75303D01*
X78588Y-75359D02*
X78757Y-75416D01*
X78757Y-75269D01*
X78835Y-75168D02*
X78835Y-75123D01*
X78824Y-75101D01*
X78813Y-75089D01*
X78779Y-75067D01*
X78734Y-75056D01*
X78644Y-75056D01*
X78622Y-75067D01*
X78610Y-75078D01*
X78599Y-75101D01*
X78599Y-75146D01*
X78610Y-75168D01*
X78622Y-75179D01*
X78644Y-75191D01*
X78700Y-75191D01*
X78723Y-75179D01*
X78734Y-75168D01*
X78745Y-75146D01*
X78745Y-75101D01*
X78734Y-75078D01*
X78723Y-75067D01*
X78700Y-75056D01*
X79150Y-75314D02*
X79150Y-75449D01*
X79150Y-75382D02*
X78914Y-75382D01*
X78948Y-75404D01*
X78970Y-75427D01*
X78982Y-75449D01*
X78993Y-75112D02*
X79150Y-75112D01*
X78993Y-75213D02*
X79116Y-75213D01*
X79139Y-75202D01*
X79150Y-75179D01*
X79150Y-75146D01*
X79139Y-75123D01*
X79128Y-75112D01*
X73458Y-75348D02*
X73470Y-75359D01*
X73481Y-75393D01*
X73481Y-75416D01*
X73470Y-75449D01*
X73447Y-75472D01*
X73425Y-75483D01*
X73380Y-75494D01*
X73346Y-75494D01*
X73301Y-75483D01*
X73278Y-75472D01*
X73256Y-75449D01*
X73245Y-75416D01*
X73245Y-75393D01*
X73256Y-75359D01*
X73267Y-75348D01*
X73245Y-75269D02*
X73245Y-75123D01*
X73335Y-75202D01*
X73335Y-75168D01*
X73346Y-75146D01*
X73357Y-75134D01*
X73380Y-75123D01*
X73436Y-75123D01*
X73458Y-75134D01*
X73470Y-75146D01*
X73481Y-75168D01*
X73481Y-75236D01*
X73470Y-75258D01*
X73458Y-75269D01*
X73346Y-74988D02*
X73335Y-75011D01*
X73323Y-75022D01*
X73301Y-75033D01*
X73290Y-75033D01*
X73267Y-75022D01*
X73256Y-75011D01*
X73245Y-74988D01*
X73245Y-74943D01*
X73256Y-74921D01*
X73267Y-74910D01*
X73290Y-74898D01*
X73301Y-74898D01*
X73323Y-74910D01*
X73335Y-74921D01*
X73346Y-74943D01*
X73346Y-74988D01*
X73357Y-75011D01*
X73368Y-75022D01*
X73391Y-75033D01*
X73436Y-75033D01*
X73458Y-75022D01*
X73470Y-75011D01*
X73481Y-74988D01*
X73481Y-74943D01*
X73470Y-74921D01*
X73458Y-74910D01*
X73436Y-74898D01*
X73391Y-74898D01*
X73368Y-74910D01*
X73357Y-74921D01*
X73346Y-74943D01*
X74448Y-75686D02*
X74313Y-75686D01*
X74381Y-75686D02*
X74381Y-75449D01*
X74358Y-75483D01*
X74336Y-75506D01*
X74313Y-75517D01*
X74651Y-75528D02*
X74651Y-75686D01*
X74550Y-75528D02*
X74550Y-75652D01*
X74561Y-75674D01*
X74583Y-75686D01*
X74617Y-75686D01*
X74640Y-75674D01*
X74651Y-75663D01*
X73458Y-74403D02*
X73470Y-74415D01*
X73481Y-74448D01*
X73481Y-74471D01*
X73470Y-74505D01*
X73447Y-74527D01*
X73425Y-74538D01*
X73380Y-74550D01*
X73346Y-74550D01*
X73301Y-74538D01*
X73278Y-74527D01*
X73256Y-74505D01*
X73245Y-74471D01*
X73245Y-74448D01*
X73256Y-74415D01*
X73267Y-74403D01*
X73245Y-74325D02*
X73245Y-74178D01*
X73335Y-74257D01*
X73335Y-74223D01*
X73346Y-74201D01*
X73357Y-74190D01*
X73380Y-74178D01*
X73436Y-74178D01*
X73458Y-74190D01*
X73470Y-74201D01*
X73481Y-74223D01*
X73481Y-74291D01*
X73470Y-74313D01*
X73458Y-74325D01*
X73245Y-73965D02*
X73245Y-74077D01*
X73357Y-74088D01*
X73346Y-74077D01*
X73335Y-74055D01*
X73335Y-73998D01*
X73346Y-73976D01*
X73357Y-73965D01*
X73380Y-73953D01*
X73436Y-73953D01*
X73458Y-73965D01*
X73470Y-73976D01*
X73481Y-73998D01*
X73481Y-74055D01*
X73470Y-74077D01*
X73458Y-74088D01*
X74133Y-74032D02*
X73998Y-74032D01*
X74066Y-74032D02*
X74066Y-73796D01*
X74043Y-73830D01*
X74021Y-73852D01*
X73998Y-73863D01*
X74336Y-73875D02*
X74336Y-74032D01*
X74235Y-73875D02*
X74235Y-73998D01*
X74246Y-74021D01*
X74268Y-74032D01*
X74302Y-74032D01*
X74325Y-74021D01*
X74336Y-74010D01*
X75596Y-73458D02*
X75584Y-73470D01*
X75551Y-73481D01*
X75528Y-73481D01*
X75494Y-73470D01*
X75472Y-73447D01*
X75461Y-73425D01*
X75449Y-73380D01*
X75449Y-73346D01*
X75461Y-73301D01*
X75472Y-73278D01*
X75494Y-73256D01*
X75528Y-73245D01*
X75551Y-73245D01*
X75584Y-73256D01*
X75596Y-73267D01*
X75798Y-73323D02*
X75798Y-73481D01*
X75742Y-73233D02*
X75686Y-73402D01*
X75832Y-73402D01*
X75899Y-73245D02*
X76057Y-73245D01*
X75956Y-73481D01*
X74921Y-73481D02*
X74786Y-73481D01*
X74853Y-73481D02*
X74853Y-73245D01*
X74831Y-73278D01*
X74808Y-73301D01*
X74786Y-73312D01*
X75123Y-73323D02*
X75123Y-73481D01*
X75022Y-73323D02*
X75022Y-73447D01*
X75033Y-73470D01*
X75056Y-73481D01*
X75089Y-73481D01*
X75112Y-73470D01*
X75123Y-73458D01*
X62289Y-76923D02*
X62277Y-76934D01*
X62244Y-76946D01*
X62221Y-76946D01*
X62187Y-76934D01*
X62165Y-76912D01*
X62154Y-76889D01*
X62142Y-76844D01*
X62142Y-76811D01*
X62154Y-76766D01*
X62165Y-76743D01*
X62187Y-76721D01*
X62221Y-76709D01*
X62244Y-76709D01*
X62277Y-76721D01*
X62289Y-76732D01*
X62379Y-76732D02*
X62390Y-76721D01*
X62412Y-76709D01*
X62469Y-76709D01*
X62491Y-76721D01*
X62502Y-76732D01*
X62514Y-76754D01*
X62514Y-76777D01*
X62502Y-76811D01*
X62367Y-76946D01*
X62514Y-76946D01*
X62592Y-76709D02*
X62739Y-76709D01*
X62660Y-76799D01*
X62694Y-76799D01*
X62716Y-76811D01*
X62727Y-76822D01*
X62739Y-76844D01*
X62739Y-76901D01*
X62727Y-76923D01*
X62716Y-76934D01*
X62694Y-76946D01*
X62626Y-76946D01*
X62604Y-76934D01*
X62592Y-76923D01*
X62154Y-77024D02*
X62176Y-77024D01*
X62199Y-77035D01*
X62210Y-77047D01*
X62221Y-77069D01*
X62232Y-77114D01*
X62232Y-77170D01*
X62221Y-77215D01*
X62210Y-77238D01*
X62199Y-77249D01*
X62176Y-77260D01*
X62154Y-77260D01*
X62131Y-77249D01*
X62120Y-77238D01*
X62109Y-77215D01*
X62097Y-77170D01*
X62097Y-77114D01*
X62109Y-77069D01*
X62120Y-77047D01*
X62131Y-77035D01*
X62154Y-77024D01*
X62334Y-77238D02*
X62345Y-77249D01*
X62334Y-77260D01*
X62322Y-77249D01*
X62334Y-77238D01*
X62334Y-77260D01*
X62570Y-77260D02*
X62435Y-77260D01*
X62502Y-77260D02*
X62502Y-77024D01*
X62480Y-77058D01*
X62457Y-77080D01*
X62435Y-77092D01*
X62772Y-77103D02*
X62772Y-77260D01*
X62671Y-77103D02*
X62671Y-77227D01*
X62682Y-77249D01*
X62705Y-77260D01*
X62739Y-77260D01*
X62761Y-77249D01*
X62772Y-77238D01*
X71258Y-65613D02*
X71242Y-65613D01*
X71210Y-65597D01*
X71194Y-65581D01*
X71178Y-65549D01*
X71178Y-65518D01*
X71186Y-65494D01*
X71210Y-65454D01*
X71234Y-65430D01*
X71274Y-65406D01*
X71298Y-65398D01*
X71329Y-65398D01*
X71361Y-65414D01*
X71377Y-65430D01*
X71393Y-65462D01*
X71393Y-65478D01*
X71496Y-65661D02*
X71385Y-65772D01*
X71520Y-65557D02*
X71361Y-65637D01*
X71465Y-65740D01*
X71711Y-65764D02*
X71679Y-65732D01*
X71655Y-65724D01*
X71640Y-65724D01*
X71600Y-65732D01*
X71560Y-65756D01*
X71496Y-65820D01*
X71488Y-65844D01*
X71488Y-65860D01*
X71496Y-65884D01*
X71528Y-65915D01*
X71552Y-65923D01*
X71568Y-65923D01*
X71592Y-65915D01*
X71632Y-65876D01*
X71640Y-65852D01*
X71640Y-65836D01*
X71632Y-65812D01*
X71600Y-65780D01*
X71576Y-65772D01*
X71560Y-65772D01*
X71536Y-65780D01*
X72022Y-65996D02*
X72038Y-66012D01*
X72046Y-66036D01*
X72046Y-66052D01*
X72038Y-66076D01*
X72014Y-66116D01*
X71974Y-66156D01*
X71935Y-66179D01*
X71911Y-66187D01*
X71895Y-66187D01*
X71871Y-66179D01*
X71855Y-66163D01*
X71847Y-66140D01*
X71847Y-66124D01*
X71855Y-66100D01*
X71879Y-66060D01*
X71919Y-66020D01*
X71958Y-65996D01*
X71982Y-65989D01*
X71998Y-65989D01*
X72022Y-65996D01*
X71998Y-66275D02*
X71998Y-66291D01*
X71982Y-66291D01*
X71982Y-66275D01*
X71998Y-66275D01*
X71982Y-66291D01*
X72149Y-66458D02*
X72054Y-66362D01*
X72102Y-66410D02*
X72269Y-66243D01*
X72229Y-66251D01*
X72197Y-66251D01*
X72173Y-66243D01*
X72404Y-66490D02*
X72293Y-66601D01*
X72332Y-66418D02*
X72245Y-66506D01*
X72237Y-66529D01*
X72245Y-66553D01*
X72269Y-66577D01*
X72293Y-66585D01*
X72308Y-66585D01*
X65123Y-82592D02*
X65112Y-82604D01*
X65078Y-82615D01*
X65056Y-82615D01*
X65022Y-82604D01*
X65000Y-82581D01*
X64988Y-82559D01*
X64977Y-82514D01*
X64977Y-82480D01*
X64988Y-82435D01*
X65000Y-82412D01*
X65022Y-82390D01*
X65056Y-82379D01*
X65078Y-82379D01*
X65112Y-82390D01*
X65123Y-82401D01*
X65213Y-82401D02*
X65224Y-82390D01*
X65247Y-82379D01*
X65303Y-82379D01*
X65326Y-82390D01*
X65337Y-82401D01*
X65348Y-82424D01*
X65348Y-82446D01*
X65337Y-82480D01*
X65202Y-82615D01*
X65348Y-82615D01*
X65483Y-82480D02*
X65461Y-82469D01*
X65449Y-82457D01*
X65438Y-82435D01*
X65438Y-82424D01*
X65449Y-82401D01*
X65461Y-82390D01*
X65483Y-82379D01*
X65528Y-82379D01*
X65551Y-82390D01*
X65562Y-82401D01*
X65573Y-82424D01*
X65573Y-82435D01*
X65562Y-82457D01*
X65551Y-82469D01*
X65528Y-82480D01*
X65483Y-82480D01*
X65461Y-82491D01*
X65449Y-82502D01*
X65438Y-82525D01*
X65438Y-82570D01*
X65449Y-82592D01*
X65461Y-82604D01*
X65483Y-82615D01*
X65528Y-82615D01*
X65551Y-82604D01*
X65562Y-82592D01*
X65573Y-82570D01*
X65573Y-82525D01*
X65562Y-82502D01*
X65551Y-82491D01*
X65528Y-82480D01*
X64910Y-82930D02*
X64932Y-82930D01*
X64955Y-82941D01*
X64966Y-82952D01*
X64977Y-82975D01*
X64988Y-83020D01*
X64988Y-83076D01*
X64977Y-83121D01*
X64966Y-83143D01*
X64955Y-83155D01*
X64932Y-83166D01*
X64910Y-83166D01*
X64887Y-83155D01*
X64876Y-83143D01*
X64865Y-83121D01*
X64853Y-83076D01*
X64853Y-83020D01*
X64865Y-82975D01*
X64876Y-82952D01*
X64887Y-82941D01*
X64910Y-82930D01*
X65089Y-83143D02*
X65101Y-83155D01*
X65089Y-83166D01*
X65078Y-83155D01*
X65089Y-83143D01*
X65089Y-83166D01*
X65326Y-83166D02*
X65191Y-83166D01*
X65258Y-83166D02*
X65258Y-82930D01*
X65236Y-82964D01*
X65213Y-82986D01*
X65191Y-82997D01*
X65528Y-83008D02*
X65528Y-83166D01*
X65427Y-83008D02*
X65427Y-83132D01*
X65438Y-83155D01*
X65461Y-83166D01*
X65494Y-83166D01*
X65517Y-83155D01*
X65528Y-83143D01*
X76856Y-65584D02*
X76844Y-65596D01*
X76811Y-65607D01*
X76788Y-65607D01*
X76754Y-65596D01*
X76732Y-65573D01*
X76721Y-65551D01*
X76709Y-65506D01*
X76709Y-65472D01*
X76721Y-65427D01*
X76732Y-65404D01*
X76754Y-65382D01*
X76788Y-65371D01*
X76811Y-65371D01*
X76844Y-65382D01*
X76856Y-65393D01*
X77058Y-65449D02*
X77058Y-65607D01*
X77002Y-65359D02*
X76946Y-65528D01*
X77092Y-65528D01*
X77215Y-65472D02*
X77193Y-65461D01*
X77182Y-65449D01*
X77170Y-65427D01*
X77170Y-65416D01*
X77182Y-65393D01*
X77193Y-65382D01*
X77215Y-65371D01*
X77260Y-65371D01*
X77283Y-65382D01*
X77294Y-65393D01*
X77305Y-65416D01*
X77305Y-65427D01*
X77294Y-65449D01*
X77283Y-65461D01*
X77260Y-65472D01*
X77215Y-65472D01*
X77193Y-65483D01*
X77182Y-65494D01*
X77170Y-65517D01*
X77170Y-65562D01*
X77182Y-65584D01*
X77193Y-65596D01*
X77215Y-65607D01*
X77260Y-65607D01*
X77283Y-65596D01*
X77294Y-65584D01*
X77305Y-65562D01*
X77305Y-65517D01*
X77294Y-65494D01*
X77283Y-65483D01*
X77260Y-65472D01*
X76721Y-65764D02*
X76743Y-65764D01*
X76766Y-65776D01*
X76777Y-65787D01*
X76788Y-65809D01*
X76799Y-65854D01*
X76799Y-65911D01*
X76788Y-65956D01*
X76777Y-65978D01*
X76766Y-65989D01*
X76743Y-66001D01*
X76721Y-66001D01*
X76698Y-65989D01*
X76687Y-65978D01*
X76676Y-65956D01*
X76664Y-65911D01*
X76664Y-65854D01*
X76676Y-65809D01*
X76687Y-65787D01*
X76698Y-65776D01*
X76721Y-65764D01*
X76901Y-65978D02*
X76912Y-65989D01*
X76901Y-66001D01*
X76889Y-65989D01*
X76901Y-65978D01*
X76901Y-66001D01*
X77137Y-66001D02*
X77002Y-66001D01*
X77069Y-66001D02*
X77069Y-65764D01*
X77047Y-65798D01*
X77024Y-65821D01*
X77002Y-65832D01*
X77339Y-65843D02*
X77339Y-66001D01*
X77238Y-65843D02*
X77238Y-65967D01*
X77249Y-65989D01*
X77272Y-66001D01*
X77305Y-66001D01*
X77328Y-65989D01*
X77339Y-65978D01*
X63233Y-76923D02*
X63222Y-76934D01*
X63188Y-76946D01*
X63166Y-76946D01*
X63132Y-76934D01*
X63110Y-76912D01*
X63098Y-76889D01*
X63087Y-76844D01*
X63087Y-76811D01*
X63098Y-76766D01*
X63110Y-76743D01*
X63132Y-76721D01*
X63166Y-76709D01*
X63188Y-76709D01*
X63222Y-76721D01*
X63233Y-76732D01*
X63458Y-76946D02*
X63323Y-76946D01*
X63391Y-76946D02*
X63391Y-76709D01*
X63368Y-76743D01*
X63346Y-76766D01*
X63323Y-76777D01*
X63537Y-76709D02*
X63683Y-76709D01*
X63605Y-76799D01*
X63638Y-76799D01*
X63661Y-76811D01*
X63672Y-76822D01*
X63683Y-76844D01*
X63683Y-76901D01*
X63672Y-76923D01*
X63661Y-76934D01*
X63638Y-76946D01*
X63571Y-76946D01*
X63548Y-76934D01*
X63537Y-76923D01*
X63098Y-77024D02*
X63121Y-77024D01*
X63143Y-77035D01*
X63155Y-77047D01*
X63166Y-77069D01*
X63177Y-77114D01*
X63177Y-77170D01*
X63166Y-77215D01*
X63155Y-77238D01*
X63143Y-77249D01*
X63121Y-77260D01*
X63098Y-77260D01*
X63076Y-77249D01*
X63065Y-77238D01*
X63053Y-77215D01*
X63042Y-77170D01*
X63042Y-77114D01*
X63053Y-77069D01*
X63065Y-77047D01*
X63076Y-77035D01*
X63098Y-77024D01*
X63278Y-77238D02*
X63290Y-77249D01*
X63278Y-77260D01*
X63267Y-77249D01*
X63278Y-77238D01*
X63278Y-77260D01*
X63515Y-77260D02*
X63380Y-77260D01*
X63447Y-77260D02*
X63447Y-77024D01*
X63425Y-77058D01*
X63402Y-77080D01*
X63380Y-77092D01*
X63717Y-77103D02*
X63717Y-77260D01*
X63616Y-77103D02*
X63616Y-77227D01*
X63627Y-77249D01*
X63650Y-77260D01*
X63683Y-77260D01*
X63706Y-77249D01*
X63717Y-77238D01*
X72289Y-73143D02*
X72277Y-73155D01*
X72244Y-73166D01*
X72221Y-73166D01*
X72187Y-73155D01*
X72165Y-73132D01*
X72154Y-73110D01*
X72142Y-73065D01*
X72142Y-73031D01*
X72154Y-72986D01*
X72165Y-72964D01*
X72187Y-72941D01*
X72221Y-72930D01*
X72244Y-72930D01*
X72277Y-72941D01*
X72289Y-72952D01*
X72367Y-72930D02*
X72514Y-72930D01*
X72435Y-73020D01*
X72469Y-73020D01*
X72491Y-73031D01*
X72502Y-73042D01*
X72514Y-73065D01*
X72514Y-73121D01*
X72502Y-73143D01*
X72491Y-73155D01*
X72469Y-73166D01*
X72401Y-73166D01*
X72379Y-73155D01*
X72367Y-73143D01*
X72626Y-73166D02*
X72671Y-73166D01*
X72694Y-73155D01*
X72705Y-73143D01*
X72727Y-73110D01*
X72739Y-73065D01*
X72739Y-72975D01*
X72727Y-72952D01*
X72716Y-72941D01*
X72694Y-72930D01*
X72649Y-72930D01*
X72626Y-72941D01*
X72615Y-72952D01*
X72604Y-72975D01*
X72604Y-73031D01*
X72615Y-73053D01*
X72626Y-73065D01*
X72649Y-73076D01*
X72694Y-73076D01*
X72716Y-73065D01*
X72727Y-73053D01*
X72739Y-73031D01*
X72536Y-74223D02*
X72536Y-74201D01*
X72547Y-74178D01*
X72559Y-74167D01*
X72581Y-74156D01*
X72626Y-74145D01*
X72682Y-74145D01*
X72727Y-74156D01*
X72750Y-74167D01*
X72761Y-74178D01*
X72772Y-74201D01*
X72772Y-74223D01*
X72761Y-74246D01*
X72750Y-74257D01*
X72727Y-74268D01*
X72682Y-74280D01*
X72626Y-74280D01*
X72581Y-74268D01*
X72559Y-74257D01*
X72547Y-74246D01*
X72536Y-74223D01*
X72750Y-74043D02*
X72761Y-74032D01*
X72772Y-74043D01*
X72761Y-74055D01*
X72750Y-74043D01*
X72772Y-74043D01*
X72772Y-73807D02*
X72772Y-73942D01*
X72772Y-73875D02*
X72536Y-73875D01*
X72570Y-73897D01*
X72592Y-73920D01*
X72604Y-73942D01*
X72615Y-73605D02*
X72772Y-73605D01*
X72615Y-73706D02*
X72739Y-73706D01*
X72761Y-73695D01*
X72772Y-73672D01*
X72772Y-73638D01*
X72761Y-73616D01*
X72750Y-73605D01*
X64178Y-76923D02*
X64167Y-76934D01*
X64133Y-76946D01*
X64111Y-76946D01*
X64077Y-76934D01*
X64055Y-76912D01*
X64043Y-76889D01*
X64032Y-76844D01*
X64032Y-76811D01*
X64043Y-76766D01*
X64055Y-76743D01*
X64077Y-76721D01*
X64111Y-76709D01*
X64133Y-76709D01*
X64167Y-76721D01*
X64178Y-76732D01*
X64268Y-76732D02*
X64280Y-76721D01*
X64302Y-76709D01*
X64358Y-76709D01*
X64381Y-76721D01*
X64392Y-76732D01*
X64403Y-76754D01*
X64403Y-76777D01*
X64392Y-76811D01*
X64257Y-76946D01*
X64403Y-76946D01*
X64606Y-76788D02*
X64606Y-76946D01*
X64550Y-76698D02*
X64493Y-76867D01*
X64640Y-76867D01*
X64043Y-77024D02*
X64066Y-77024D01*
X64088Y-77035D01*
X64100Y-77047D01*
X64111Y-77069D01*
X64122Y-77114D01*
X64122Y-77170D01*
X64111Y-77215D01*
X64100Y-77238D01*
X64088Y-77249D01*
X64066Y-77260D01*
X64043Y-77260D01*
X64021Y-77249D01*
X64010Y-77238D01*
X63998Y-77215D01*
X63987Y-77170D01*
X63987Y-77114D01*
X63998Y-77069D01*
X64010Y-77047D01*
X64021Y-77035D01*
X64043Y-77024D01*
X64223Y-77238D02*
X64235Y-77249D01*
X64223Y-77260D01*
X64212Y-77249D01*
X64223Y-77238D01*
X64223Y-77260D01*
X64460Y-77260D02*
X64325Y-77260D01*
X64392Y-77260D02*
X64392Y-77024D01*
X64370Y-77058D01*
X64347Y-77080D01*
X64325Y-77092D01*
X64662Y-77103D02*
X64662Y-77260D01*
X64561Y-77103D02*
X64561Y-77227D01*
X64572Y-77249D01*
X64595Y-77260D01*
X64628Y-77260D01*
X64651Y-77249D01*
X64662Y-77238D01*
X68104Y-75821D02*
X68115Y-75832D01*
X68127Y-75866D01*
X68127Y-75888D01*
X68115Y-75922D01*
X68093Y-75944D01*
X68070Y-75956D01*
X68025Y-75967D01*
X67992Y-75967D01*
X67947Y-75956D01*
X67924Y-75944D01*
X67902Y-75922D01*
X67890Y-75888D01*
X67890Y-75866D01*
X67902Y-75832D01*
X67913Y-75821D01*
X67913Y-75731D02*
X67902Y-75719D01*
X67890Y-75697D01*
X67890Y-75641D01*
X67902Y-75618D01*
X67913Y-75607D01*
X67935Y-75596D01*
X67958Y-75596D01*
X67992Y-75607D01*
X68127Y-75742D01*
X68127Y-75596D01*
X67890Y-75382D02*
X67890Y-75494D01*
X68003Y-75506D01*
X67992Y-75494D01*
X67980Y-75472D01*
X67980Y-75416D01*
X67992Y-75393D01*
X68003Y-75382D01*
X68025Y-75371D01*
X68082Y-75371D01*
X68104Y-75382D01*
X68115Y-75393D01*
X68127Y-75416D01*
X68127Y-75472D01*
X68115Y-75494D01*
X68104Y-75506D01*
X67575Y-75956D02*
X67575Y-75933D01*
X67587Y-75911D01*
X67598Y-75899D01*
X67620Y-75888D01*
X67665Y-75877D01*
X67722Y-75877D01*
X67767Y-75888D01*
X67789Y-75899D01*
X67800Y-75911D01*
X67812Y-75933D01*
X67812Y-75956D01*
X67800Y-75978D01*
X67789Y-75989D01*
X67767Y-76001D01*
X67722Y-76012D01*
X67665Y-76012D01*
X67620Y-76001D01*
X67598Y-75989D01*
X67587Y-75978D01*
X67575Y-75956D01*
X67789Y-75776D02*
X67800Y-75764D01*
X67812Y-75776D01*
X67800Y-75787D01*
X67789Y-75776D01*
X67812Y-75776D01*
X67812Y-75539D02*
X67812Y-75674D01*
X67812Y-75607D02*
X67575Y-75607D01*
X67609Y-75629D01*
X67632Y-75652D01*
X67643Y-75674D01*
X67654Y-75337D02*
X67812Y-75337D01*
X67654Y-75438D02*
X67778Y-75438D01*
X67800Y-75427D01*
X67812Y-75404D01*
X67812Y-75371D01*
X67800Y-75348D01*
X67789Y-75337D01*
X64178Y-69915D02*
X64167Y-69926D01*
X64133Y-69938D01*
X64111Y-69938D01*
X64077Y-69926D01*
X64055Y-69904D01*
X64043Y-69881D01*
X64032Y-69836D01*
X64032Y-69803D01*
X64043Y-69758D01*
X64055Y-69735D01*
X64077Y-69713D01*
X64111Y-69701D01*
X64133Y-69701D01*
X64167Y-69713D01*
X64178Y-69724D01*
X64268Y-69724D02*
X64280Y-69713D01*
X64302Y-69701D01*
X64358Y-69701D01*
X64381Y-69713D01*
X64392Y-69724D01*
X64403Y-69746D01*
X64403Y-69769D01*
X64392Y-69803D01*
X64257Y-69938D01*
X64403Y-69938D01*
X64550Y-69701D02*
X64572Y-69701D01*
X64595Y-69713D01*
X64606Y-69724D01*
X64617Y-69746D01*
X64628Y-69791D01*
X64628Y-69848D01*
X64617Y-69893D01*
X64606Y-69915D01*
X64595Y-69926D01*
X64572Y-69938D01*
X64550Y-69938D01*
X64527Y-69926D01*
X64516Y-69915D01*
X64505Y-69893D01*
X64493Y-69848D01*
X64493Y-69791D01*
X64505Y-69746D01*
X64516Y-69724D01*
X64527Y-69713D01*
X64550Y-69701D01*
X64010Y-69409D02*
X64021Y-69398D01*
X64043Y-69386D01*
X64100Y-69386D01*
X64122Y-69398D01*
X64133Y-69409D01*
X64145Y-69431D01*
X64145Y-69454D01*
X64133Y-69488D01*
X63998Y-69623D01*
X64145Y-69623D01*
X64235Y-69409D02*
X64246Y-69398D01*
X64268Y-69386D01*
X64325Y-69386D01*
X64347Y-69398D01*
X64358Y-69409D01*
X64370Y-69431D01*
X64370Y-69454D01*
X64358Y-69488D01*
X64223Y-69623D01*
X64370Y-69623D01*
X64516Y-69386D02*
X64538Y-69386D01*
X64561Y-69398D01*
X64572Y-69409D01*
X64583Y-69431D01*
X64595Y-69476D01*
X64595Y-69533D01*
X64583Y-69578D01*
X64572Y-69600D01*
X64561Y-69611D01*
X64538Y-69623D01*
X64516Y-69623D01*
X64493Y-69611D01*
X64482Y-69600D01*
X64471Y-69578D01*
X64460Y-69533D01*
X64460Y-69476D01*
X64471Y-69431D01*
X64482Y-69409D01*
X64493Y-69398D01*
X64516Y-69386D01*
X64696Y-69465D02*
X64696Y-69701D01*
X64696Y-69476D02*
X64718Y-69465D01*
X64763Y-69465D01*
X64786Y-69476D01*
X64797Y-69488D01*
X64808Y-69510D01*
X64808Y-69578D01*
X64797Y-69600D01*
X64786Y-69611D01*
X64763Y-69623D01*
X64718Y-69623D01*
X64696Y-69611D01*
X70785Y-64275D02*
X70769Y-64275D01*
X70738Y-64259D01*
X70722Y-64243D01*
X70706Y-64211D01*
X70706Y-64179D01*
X70714Y-64155D01*
X70738Y-64115D01*
X70761Y-64092D01*
X70801Y-64068D01*
X70825Y-64060D01*
X70857Y-64060D01*
X70889Y-64076D01*
X70905Y-64092D01*
X70921Y-64123D01*
X70921Y-64139D01*
X70992Y-64179D02*
X71096Y-64282D01*
X70976Y-64290D01*
X71000Y-64314D01*
X71008Y-64338D01*
X71008Y-64354D01*
X71000Y-64378D01*
X70960Y-64418D01*
X70936Y-64426D01*
X70921Y-64426D01*
X70897Y-64418D01*
X70849Y-64370D01*
X70841Y-64346D01*
X70841Y-64330D01*
X71239Y-64426D02*
X71207Y-64394D01*
X71183Y-64386D01*
X71167Y-64386D01*
X71127Y-64394D01*
X71088Y-64418D01*
X71024Y-64481D01*
X71016Y-64505D01*
X71016Y-64521D01*
X71024Y-64545D01*
X71056Y-64577D01*
X71080Y-64585D01*
X71096Y-64585D01*
X71119Y-64577D01*
X71159Y-64537D01*
X71167Y-64513D01*
X71167Y-64497D01*
X71159Y-64473D01*
X71127Y-64442D01*
X71103Y-64434D01*
X71088Y-64434D01*
X71064Y-64442D01*
X71541Y-64760D02*
X71557Y-64760D01*
X71581Y-64768D01*
X71620Y-64807D01*
X71628Y-64831D01*
X71628Y-64847D01*
X71620Y-64871D01*
X71605Y-64887D01*
X71573Y-64903D01*
X71382Y-64903D01*
X71485Y-65006D01*
X71756Y-64943D02*
X71772Y-64959D01*
X71780Y-64982D01*
X71780Y-64998D01*
X71772Y-65022D01*
X71748Y-65062D01*
X71708Y-65102D01*
X71668Y-65126D01*
X71644Y-65134D01*
X71628Y-65134D01*
X71605Y-65126D01*
X71589Y-65110D01*
X71581Y-65086D01*
X71581Y-65070D01*
X71589Y-65046D01*
X71612Y-65006D01*
X71652Y-64966D01*
X71692Y-64943D01*
X71716Y-64935D01*
X71732Y-64935D01*
X71756Y-64943D01*
X71827Y-65126D02*
X71660Y-65293D01*
X71819Y-65134D02*
X71843Y-65141D01*
X71875Y-65173D01*
X71883Y-65197D01*
X71883Y-65213D01*
X71875Y-65237D01*
X71827Y-65285D01*
X71803Y-65293D01*
X71787Y-65293D01*
X71764Y-65285D01*
X71732Y-65253D01*
X71724Y-65229D01*
X72010Y-65356D02*
X71954Y-65301D01*
X71867Y-65388D02*
X72034Y-65221D01*
X72114Y-65301D01*
X68166Y-67323D02*
X68150Y-67323D01*
X68118Y-67307D01*
X68102Y-67291D01*
X68086Y-67259D01*
X68086Y-67227D01*
X68094Y-67204D01*
X68118Y-67164D01*
X68142Y-67140D01*
X68182Y-67116D01*
X68206Y-67108D01*
X68238Y-67108D01*
X68269Y-67124D01*
X68285Y-67140D01*
X68301Y-67172D01*
X68301Y-67188D01*
X68373Y-67227D02*
X68476Y-67331D01*
X68357Y-67339D01*
X68381Y-67363D01*
X68389Y-67387D01*
X68389Y-67402D01*
X68381Y-67426D01*
X68341Y-67466D01*
X68317Y-67474D01*
X68301Y-67474D01*
X68277Y-67466D01*
X68230Y-67418D01*
X68222Y-67395D01*
X68222Y-67379D01*
X68532Y-67387D02*
X68643Y-67498D01*
X68405Y-67593D01*
X67840Y-67201D02*
X67856Y-67201D01*
X67880Y-67209D01*
X67920Y-67248D01*
X67928Y-67272D01*
X67928Y-67288D01*
X67920Y-67312D01*
X67904Y-67328D01*
X67872Y-67344D01*
X67681Y-67344D01*
X67784Y-67447D01*
X68055Y-67384D02*
X68071Y-67399D01*
X68079Y-67423D01*
X68079Y-67439D01*
X68071Y-67463D01*
X68047Y-67503D01*
X68007Y-67543D01*
X67967Y-67567D01*
X67944Y-67574D01*
X67928Y-67574D01*
X67904Y-67567D01*
X67888Y-67551D01*
X67880Y-67527D01*
X67880Y-67511D01*
X67888Y-67487D01*
X67912Y-67447D01*
X67951Y-67407D01*
X67991Y-67384D01*
X68015Y-67376D01*
X68031Y-67376D01*
X68055Y-67384D01*
X68126Y-67567D02*
X67959Y-67734D01*
X68118Y-67574D02*
X68142Y-67582D01*
X68174Y-67614D01*
X68182Y-67638D01*
X68182Y-67654D01*
X68174Y-67678D01*
X68126Y-67726D01*
X68103Y-67734D01*
X68087Y-67734D01*
X68063Y-67726D01*
X68031Y-67694D01*
X68023Y-67670D01*
X68309Y-67797D02*
X68254Y-67741D01*
X68166Y-67829D02*
X68333Y-67662D01*
X68413Y-67741D01*
X69521Y-75472D02*
X69533Y-75483D01*
X69544Y-75517D01*
X69544Y-75539D01*
X69533Y-75573D01*
X69510Y-75596D01*
X69488Y-75607D01*
X69443Y-75618D01*
X69409Y-75618D01*
X69364Y-75607D01*
X69341Y-75596D01*
X69319Y-75573D01*
X69308Y-75539D01*
X69308Y-75517D01*
X69319Y-75483D01*
X69330Y-75472D01*
X69544Y-75247D02*
X69544Y-75382D01*
X69544Y-75314D02*
X69308Y-75314D01*
X69341Y-75337D01*
X69364Y-75359D01*
X69375Y-75382D01*
X69859Y-75506D02*
X69859Y-75641D01*
X69859Y-75573D02*
X69623Y-75573D01*
X69656Y-75596D01*
X69679Y-75618D01*
X69690Y-75641D01*
X69623Y-75359D02*
X69623Y-75337D01*
X69634Y-75314D01*
X69645Y-75303D01*
X69668Y-75292D01*
X69713Y-75281D01*
X69769Y-75281D01*
X69814Y-75292D01*
X69836Y-75303D01*
X69848Y-75314D01*
X69859Y-75337D01*
X69859Y-75359D01*
X69848Y-75382D01*
X69836Y-75393D01*
X69814Y-75404D01*
X69769Y-75416D01*
X69713Y-75416D01*
X69668Y-75404D01*
X69645Y-75393D01*
X69634Y-75382D01*
X69623Y-75359D01*
X69701Y-75179D02*
X69859Y-75179D01*
X69724Y-75179D02*
X69713Y-75168D01*
X69701Y-75146D01*
X69701Y-75112D01*
X69713Y-75089D01*
X69735Y-75078D01*
X69859Y-75078D01*
X70860Y-75866D02*
X70871Y-75877D01*
X70883Y-75911D01*
X70883Y-75933D01*
X70871Y-75967D01*
X70849Y-75989D01*
X70826Y-76001D01*
X70781Y-76012D01*
X70748Y-76012D01*
X70703Y-76001D01*
X70680Y-75989D01*
X70658Y-75967D01*
X70646Y-75933D01*
X70646Y-75911D01*
X70658Y-75877D01*
X70669Y-75866D01*
X70646Y-75787D02*
X70646Y-75641D01*
X70736Y-75719D01*
X70736Y-75686D01*
X70748Y-75663D01*
X70759Y-75652D01*
X70781Y-75641D01*
X70838Y-75641D01*
X70860Y-75652D01*
X70871Y-75663D01*
X70883Y-75686D01*
X70883Y-75753D01*
X70871Y-75776D01*
X70860Y-75787D01*
X70883Y-76608D02*
X70883Y-76743D01*
X70883Y-76676D02*
X70646Y-76676D01*
X70680Y-76698D01*
X70703Y-76721D01*
X70714Y-76743D01*
X70646Y-76462D02*
X70646Y-76439D01*
X70658Y-76417D01*
X70669Y-76406D01*
X70691Y-76394D01*
X70736Y-76383D01*
X70793Y-76383D01*
X70838Y-76394D01*
X70860Y-76406D01*
X70871Y-76417D01*
X70883Y-76439D01*
X70883Y-76462D01*
X70871Y-76484D01*
X70860Y-76496D01*
X70838Y-76507D01*
X70793Y-76518D01*
X70736Y-76518D01*
X70691Y-76507D01*
X70669Y-76496D01*
X70658Y-76484D01*
X70646Y-76462D01*
X70725Y-76282D02*
X70883Y-76282D01*
X70748Y-76282D02*
X70736Y-76271D01*
X70725Y-76248D01*
X70725Y-76214D01*
X70736Y-76192D01*
X70759Y-76181D01*
X70883Y-76181D01*
X71771Y-80388D02*
X71760Y-80399D01*
X71726Y-80410D01*
X71704Y-80410D01*
X71670Y-80399D01*
X71647Y-80376D01*
X71636Y-80354D01*
X71625Y-80309D01*
X71625Y-80275D01*
X71636Y-80230D01*
X71647Y-80208D01*
X71670Y-80185D01*
X71704Y-80174D01*
X71726Y-80174D01*
X71760Y-80185D01*
X71771Y-80196D01*
X71974Y-80174D02*
X71929Y-80174D01*
X71906Y-80185D01*
X71895Y-80196D01*
X71872Y-80230D01*
X71861Y-80275D01*
X71861Y-80365D01*
X71872Y-80388D01*
X71884Y-80399D01*
X71906Y-80410D01*
X71951Y-80410D01*
X71974Y-80399D01*
X71985Y-80388D01*
X71996Y-80365D01*
X71996Y-80309D01*
X71985Y-80286D01*
X71974Y-80275D01*
X71951Y-80264D01*
X71906Y-80264D01*
X71884Y-80275D01*
X71872Y-80286D01*
X71861Y-80309D01*
X70669Y-80174D02*
X70534Y-80174D01*
X70601Y-80174D02*
X70601Y-79938D01*
X70579Y-79971D01*
X70556Y-79994D01*
X70534Y-80005D01*
X70871Y-80016D02*
X70871Y-80174D01*
X70770Y-80016D02*
X70770Y-80140D01*
X70781Y-80163D01*
X70804Y-80174D01*
X70838Y-80174D01*
X70860Y-80163D01*
X70871Y-80151D01*
X71659Y-77395D02*
X71647Y-77407D01*
X71614Y-77418D01*
X71591Y-77418D01*
X71557Y-77407D01*
X71535Y-77384D01*
X71524Y-77362D01*
X71512Y-77317D01*
X71512Y-77283D01*
X71524Y-77238D01*
X71535Y-77215D01*
X71557Y-77193D01*
X71591Y-77182D01*
X71614Y-77182D01*
X71647Y-77193D01*
X71659Y-77204D01*
X71884Y-77418D02*
X71749Y-77418D01*
X71816Y-77418D02*
X71816Y-77182D01*
X71794Y-77215D01*
X71771Y-77238D01*
X71749Y-77249D01*
X72097Y-77182D02*
X71985Y-77182D01*
X71974Y-77294D01*
X71985Y-77283D01*
X72007Y-77272D01*
X72064Y-77272D01*
X72086Y-77283D01*
X72097Y-77294D01*
X72109Y-77317D01*
X72109Y-77373D01*
X72097Y-77395D01*
X72086Y-77407D01*
X72064Y-77418D01*
X72007Y-77418D01*
X71985Y-77407D01*
X71974Y-77395D01*
X71197Y-77283D02*
X71197Y-77418D01*
X71197Y-77350D02*
X70961Y-77350D01*
X70995Y-77373D01*
X71017Y-77395D01*
X71029Y-77418D01*
X71040Y-77080D02*
X71197Y-77080D01*
X71040Y-77182D02*
X71164Y-77182D01*
X71186Y-77170D01*
X71197Y-77148D01*
X71197Y-77114D01*
X71186Y-77092D01*
X71175Y-77080D01*
X63863Y-76136D02*
X63852Y-76147D01*
X63818Y-76158D01*
X63796Y-76158D01*
X63762Y-76147D01*
X63740Y-76124D01*
X63728Y-76102D01*
X63717Y-76057D01*
X63717Y-76023D01*
X63728Y-75978D01*
X63740Y-75956D01*
X63762Y-75933D01*
X63796Y-75922D01*
X63818Y-75922D01*
X63852Y-75933D01*
X63863Y-75944D01*
X64088Y-76158D02*
X63953Y-76158D01*
X64021Y-76158D02*
X64021Y-75922D01*
X63998Y-75956D01*
X63976Y-75978D01*
X63953Y-75989D01*
X64313Y-76158D02*
X64178Y-76158D01*
X64246Y-76158D02*
X64246Y-75922D01*
X64223Y-75956D01*
X64201Y-75978D01*
X64178Y-75989D01*
X64921Y-76158D02*
X64786Y-76158D01*
X64853Y-76158D02*
X64853Y-75922D01*
X64831Y-75956D01*
X64808Y-75978D01*
X64786Y-75989D01*
X65022Y-76001D02*
X65022Y-76158D01*
X65022Y-76023D02*
X65033Y-76012D01*
X65056Y-76001D01*
X65089Y-76001D01*
X65112Y-76012D01*
X65123Y-76034D01*
X65123Y-76158D01*
X75899Y-68970D02*
X75911Y-68982D01*
X75922Y-69015D01*
X75922Y-69038D01*
X75911Y-69071D01*
X75888Y-69094D01*
X75866Y-69105D01*
X75821Y-69116D01*
X75787Y-69116D01*
X75742Y-69105D01*
X75719Y-69094D01*
X75697Y-69071D01*
X75686Y-69038D01*
X75686Y-69015D01*
X75697Y-68982D01*
X75708Y-68970D01*
X75764Y-68768D02*
X75922Y-68768D01*
X75674Y-68824D02*
X75843Y-68880D01*
X75843Y-68734D01*
X75686Y-68599D02*
X75686Y-68577D01*
X75697Y-68554D01*
X75708Y-68543D01*
X75731Y-68532D01*
X75776Y-68520D01*
X75832Y-68520D01*
X75877Y-68532D01*
X75899Y-68543D01*
X75911Y-68554D01*
X75922Y-68577D01*
X75922Y-68599D01*
X75911Y-68622D01*
X75899Y-68633D01*
X75877Y-68644D01*
X75832Y-68655D01*
X75776Y-68655D01*
X75731Y-68644D01*
X75708Y-68633D01*
X75697Y-68622D01*
X75686Y-68599D01*
X76079Y-69105D02*
X76079Y-69083D01*
X76091Y-69060D01*
X76102Y-69049D01*
X76124Y-69038D01*
X76169Y-69026D01*
X76226Y-69026D01*
X76271Y-69038D01*
X76293Y-69049D01*
X76304Y-69060D01*
X76316Y-69083D01*
X76316Y-69105D01*
X76304Y-69128D01*
X76293Y-69139D01*
X76271Y-69150D01*
X76226Y-69161D01*
X76169Y-69161D01*
X76124Y-69150D01*
X76102Y-69139D01*
X76091Y-69128D01*
X76079Y-69105D01*
X76293Y-68925D02*
X76304Y-68914D01*
X76316Y-68925D01*
X76304Y-68937D01*
X76293Y-68925D01*
X76316Y-68925D01*
X76316Y-68689D02*
X76316Y-68824D01*
X76316Y-68757D02*
X76079Y-68757D01*
X76113Y-68779D01*
X76136Y-68802D01*
X76147Y-68824D01*
X76158Y-68487D02*
X76316Y-68487D01*
X76158Y-68588D02*
X76282Y-68588D01*
X76304Y-68577D01*
X76316Y-68554D01*
X76316Y-68520D01*
X76304Y-68498D01*
X76293Y-68487D01*
X70568Y-74302D02*
X70804Y-74223D01*
X70568Y-74145D01*
X70781Y-73931D02*
X70793Y-73942D01*
X70804Y-73976D01*
X70804Y-73998D01*
X70793Y-74032D01*
X70770Y-74055D01*
X70748Y-74066D01*
X70703Y-74077D01*
X70669Y-74077D01*
X70624Y-74066D01*
X70601Y-74055D01*
X70579Y-74032D01*
X70568Y-73998D01*
X70568Y-73976D01*
X70579Y-73942D01*
X70590Y-73931D01*
X70804Y-73728D02*
X70680Y-73728D01*
X70658Y-73740D01*
X70646Y-73762D01*
X70646Y-73807D01*
X70658Y-73830D01*
X70793Y-73728D02*
X70804Y-73751D01*
X70804Y-73807D01*
X70793Y-73830D01*
X70770Y-73841D01*
X70748Y-73841D01*
X70725Y-73830D01*
X70714Y-73807D01*
X70714Y-73751D01*
X70703Y-73728D01*
X70646Y-73616D02*
X70883Y-73616D01*
X70658Y-73616D02*
X70646Y-73593D01*
X70646Y-73548D01*
X70658Y-73526D01*
X70669Y-73515D01*
X70691Y-73503D01*
X70759Y-73503D01*
X70781Y-73515D01*
X70793Y-73526D01*
X70804Y-73548D01*
X70804Y-73593D01*
X70793Y-73616D01*
X70804Y-73278D02*
X70804Y-73413D01*
X70804Y-73346D02*
X70568Y-73346D01*
X70601Y-73368D01*
X70624Y-73391D01*
X70635Y-73413D01*
X70905Y-74358D02*
X70894Y-74347D01*
X70883Y-74325D01*
X70883Y-74268D01*
X70894Y-74246D01*
X70905Y-74235D01*
X70928Y-74223D01*
X70950Y-74223D01*
X70984Y-74235D01*
X71119Y-74370D01*
X71119Y-74223D01*
X71096Y-74122D02*
X71107Y-74111D01*
X71119Y-74122D01*
X71107Y-74133D01*
X71096Y-74122D01*
X71119Y-74122D01*
X70905Y-74021D02*
X70894Y-74010D01*
X70883Y-73987D01*
X70883Y-73931D01*
X70894Y-73908D01*
X70905Y-73897D01*
X70928Y-73886D01*
X70950Y-73886D01*
X70984Y-73897D01*
X71119Y-74032D01*
X71119Y-73886D01*
X70961Y-73683D02*
X71119Y-73683D01*
X70961Y-73785D02*
X71085Y-73785D01*
X71107Y-73773D01*
X71119Y-73751D01*
X71119Y-73717D01*
X71107Y-73695D01*
X71096Y-73683D01*
X61974Y-76451D02*
X61962Y-76462D01*
X61929Y-76473D01*
X61906Y-76473D01*
X61872Y-76462D01*
X61850Y-76439D01*
X61839Y-76417D01*
X61827Y-76372D01*
X61827Y-76338D01*
X61839Y-76293D01*
X61850Y-76271D01*
X61872Y-76248D01*
X61906Y-76237D01*
X61929Y-76237D01*
X61962Y-76248D01*
X61974Y-76259D01*
X62052Y-76237D02*
X62199Y-76237D01*
X62120Y-76327D01*
X62154Y-76327D01*
X62176Y-76338D01*
X62187Y-76349D01*
X62199Y-76372D01*
X62199Y-76428D01*
X62187Y-76451D01*
X62176Y-76462D01*
X62154Y-76473D01*
X62086Y-76473D01*
X62064Y-76462D01*
X62052Y-76451D01*
X62277Y-76237D02*
X62424Y-76237D01*
X62345Y-76327D01*
X62379Y-76327D01*
X62401Y-76338D01*
X62412Y-76349D01*
X62424Y-76372D01*
X62424Y-76428D01*
X62412Y-76451D01*
X62401Y-76462D01*
X62379Y-76473D01*
X62311Y-76473D01*
X62289Y-76462D01*
X62277Y-76451D01*
X63070Y-76316D02*
X63070Y-76372D01*
X63014Y-76349D02*
X63070Y-76372D01*
X63127Y-76349D01*
X63037Y-76417D02*
X63070Y-76372D01*
X63104Y-76417D01*
X63785Y-67159D02*
X63773Y-67170D01*
X63740Y-67182D01*
X63717Y-67182D01*
X63683Y-67170D01*
X63661Y-67148D01*
X63650Y-67125D01*
X63638Y-67080D01*
X63638Y-67047D01*
X63650Y-67002D01*
X63661Y-66979D01*
X63683Y-66957D01*
X63717Y-66946D01*
X63740Y-66946D01*
X63773Y-66957D01*
X63785Y-66968D01*
X63863Y-66946D02*
X64010Y-66946D01*
X63931Y-67035D01*
X63965Y-67035D01*
X63987Y-67047D01*
X63998Y-67058D01*
X64010Y-67080D01*
X64010Y-67137D01*
X63998Y-67159D01*
X63987Y-67170D01*
X63965Y-67182D01*
X63897Y-67182D01*
X63875Y-67170D01*
X63863Y-67159D01*
X64100Y-66968D02*
X64111Y-66957D01*
X64133Y-66946D01*
X64190Y-66946D01*
X64212Y-66957D01*
X64223Y-66968D01*
X64235Y-66991D01*
X64235Y-67013D01*
X64223Y-67047D01*
X64088Y-67182D01*
X64235Y-67182D01*
X64173Y-67339D02*
X64173Y-67395D01*
X64116Y-67373D02*
X64173Y-67395D01*
X64229Y-67373D01*
X64139Y-67440D02*
X64173Y-67395D01*
X64206Y-67440D01*
X62277Y-73458D02*
X62289Y-73470D01*
X62300Y-73503D01*
X62300Y-73526D01*
X62289Y-73560D01*
X62266Y-73582D01*
X62244Y-73593D01*
X62199Y-73605D01*
X62165Y-73605D01*
X62120Y-73593D01*
X62097Y-73582D01*
X62075Y-73560D01*
X62064Y-73526D01*
X62064Y-73503D01*
X62075Y-73470D01*
X62086Y-73458D01*
X62064Y-73380D02*
X62064Y-73233D01*
X62154Y-73312D01*
X62154Y-73278D01*
X62165Y-73256D01*
X62176Y-73245D01*
X62199Y-73233D01*
X62255Y-73233D01*
X62277Y-73245D01*
X62289Y-73256D01*
X62300Y-73278D01*
X62300Y-73346D01*
X62289Y-73368D01*
X62277Y-73380D01*
X62300Y-73008D02*
X62300Y-73143D01*
X62300Y-73076D02*
X62064Y-73076D01*
X62097Y-73098D01*
X62120Y-73121D01*
X62131Y-73143D01*
X62536Y-73228D02*
X62592Y-73228D01*
X62570Y-73284D02*
X62592Y-73228D01*
X62570Y-73172D01*
X62637Y-73262D02*
X62592Y-73228D01*
X62637Y-73194D01*
X62277Y-68970D02*
X62289Y-68982D01*
X62300Y-69015D01*
X62300Y-69038D01*
X62289Y-69071D01*
X62266Y-69094D01*
X62244Y-69105D01*
X62199Y-69116D01*
X62165Y-69116D01*
X62120Y-69105D01*
X62097Y-69094D01*
X62075Y-69071D01*
X62064Y-69038D01*
X62064Y-69015D01*
X62075Y-68982D01*
X62086Y-68970D01*
X62086Y-68880D02*
X62075Y-68869D01*
X62064Y-68847D01*
X62064Y-68790D01*
X62075Y-68768D01*
X62086Y-68757D01*
X62109Y-68745D01*
X62131Y-68745D01*
X62165Y-68757D01*
X62300Y-68892D01*
X62300Y-68745D01*
X62086Y-68655D02*
X62075Y-68644D01*
X62064Y-68622D01*
X62064Y-68565D01*
X62075Y-68543D01*
X62086Y-68532D01*
X62109Y-68520D01*
X62131Y-68520D01*
X62165Y-68532D01*
X62300Y-68667D01*
X62300Y-68520D01*
X62418Y-68818D02*
X62474Y-68818D01*
X62452Y-68874D02*
X62474Y-68818D01*
X62452Y-68762D01*
X62519Y-68852D02*
X62474Y-68818D01*
X62519Y-68784D01*
X61974Y-75821D02*
X61962Y-75832D01*
X61929Y-75843D01*
X61906Y-75843D01*
X61872Y-75832D01*
X61850Y-75809D01*
X61839Y-75787D01*
X61827Y-75742D01*
X61827Y-75708D01*
X61839Y-75663D01*
X61850Y-75641D01*
X61872Y-75618D01*
X61906Y-75607D01*
X61929Y-75607D01*
X61962Y-75618D01*
X61974Y-75629D01*
X62064Y-75629D02*
X62075Y-75618D01*
X62097Y-75607D01*
X62154Y-75607D01*
X62176Y-75618D01*
X62187Y-75629D01*
X62199Y-75652D01*
X62199Y-75674D01*
X62187Y-75708D01*
X62052Y-75843D01*
X62199Y-75843D01*
X62424Y-75843D02*
X62289Y-75843D01*
X62356Y-75843D02*
X62356Y-75607D01*
X62334Y-75641D01*
X62311Y-75663D01*
X62289Y-75674D01*
X62750Y-75629D02*
X62761Y-75618D01*
X62784Y-75607D01*
X62840Y-75607D01*
X62862Y-75618D01*
X62874Y-75629D01*
X62885Y-75652D01*
X62885Y-75674D01*
X62874Y-75708D01*
X62739Y-75843D01*
X62885Y-75843D01*
X62975Y-75629D02*
X62986Y-75618D01*
X63008Y-75607D01*
X63065Y-75607D01*
X63087Y-75618D01*
X63098Y-75629D01*
X63110Y-75652D01*
X63110Y-75674D01*
X63098Y-75708D01*
X62964Y-75843D01*
X63110Y-75843D01*
X63256Y-75607D02*
X63278Y-75607D01*
X63301Y-75618D01*
X63312Y-75629D01*
X63323Y-75652D01*
X63335Y-75697D01*
X63335Y-75753D01*
X63323Y-75798D01*
X63312Y-75821D01*
X63301Y-75832D01*
X63278Y-75843D01*
X63256Y-75843D01*
X63233Y-75832D01*
X63222Y-75821D01*
X63211Y-75798D01*
X63200Y-75753D01*
X63200Y-75697D01*
X63211Y-75652D01*
X63222Y-75629D01*
X63233Y-75618D01*
X63256Y-75607D01*
X63436Y-75686D02*
X63436Y-75922D01*
X63436Y-75697D02*
X63458Y-75686D01*
X63503Y-75686D01*
X63526Y-75697D01*
X63537Y-75708D01*
X63548Y-75731D01*
X63548Y-75798D01*
X63537Y-75821D01*
X63526Y-75832D01*
X63503Y-75843D01*
X63458Y-75843D01*
X63436Y-75832D01*
X73661Y-64561D02*
X73650Y-64572D01*
X73616Y-64583D01*
X73593Y-64583D01*
X73560Y-64572D01*
X73537Y-64550D01*
X73526Y-64527D01*
X73515Y-64482D01*
X73515Y-64448D01*
X73526Y-64403D01*
X73537Y-64381D01*
X73560Y-64358D01*
X73593Y-64347D01*
X73616Y-64347D01*
X73650Y-64358D01*
X73661Y-64370D01*
X73751Y-64370D02*
X73762Y-64358D01*
X73785Y-64347D01*
X73841Y-64347D01*
X73863Y-64358D01*
X73875Y-64370D01*
X73886Y-64392D01*
X73886Y-64415D01*
X73875Y-64448D01*
X73740Y-64583D01*
X73886Y-64583D01*
X73256Y-64741D02*
X73278Y-64741D01*
X73301Y-64752D01*
X73312Y-64763D01*
X73323Y-64786D01*
X73335Y-64831D01*
X73335Y-64887D01*
X73323Y-64932D01*
X73312Y-64955D01*
X73301Y-64966D01*
X73278Y-64977D01*
X73256Y-64977D01*
X73233Y-64966D01*
X73222Y-64955D01*
X73211Y-64932D01*
X73200Y-64887D01*
X73200Y-64831D01*
X73211Y-64786D01*
X73222Y-64763D01*
X73233Y-64752D01*
X73256Y-64741D01*
X73436Y-64955D02*
X73447Y-64966D01*
X73436Y-64977D01*
X73425Y-64966D01*
X73436Y-64955D01*
X73436Y-64977D01*
X73672Y-64977D02*
X73537Y-64977D01*
X73605Y-64977D02*
X73605Y-64741D01*
X73582Y-64775D01*
X73560Y-64797D01*
X73537Y-64808D01*
X73875Y-64820D02*
X73875Y-64977D01*
X73773Y-64820D02*
X73773Y-64943D01*
X73785Y-64966D01*
X73807Y-64977D01*
X73841Y-64977D01*
X73863Y-64966D01*
X73875Y-64955D01*
X68464Y-74718D02*
X68453Y-74730D01*
X68419Y-74741D01*
X68397Y-74741D01*
X68363Y-74730D01*
X68340Y-74707D01*
X68329Y-74685D01*
X68318Y-74640D01*
X68318Y-74606D01*
X68329Y-74561D01*
X68340Y-74538D01*
X68363Y-74516D01*
X68397Y-74505D01*
X68419Y-74505D01*
X68453Y-74516D01*
X68464Y-74527D01*
X68678Y-74505D02*
X68565Y-74505D01*
X68554Y-74617D01*
X68565Y-74606D01*
X68588Y-74595D01*
X68644Y-74595D01*
X68667Y-74606D01*
X68678Y-74617D01*
X68689Y-74640D01*
X68689Y-74696D01*
X68678Y-74718D01*
X68667Y-74730D01*
X68644Y-74741D01*
X68588Y-74741D01*
X68565Y-74730D01*
X68554Y-74718D01*
X68295Y-74842D02*
X68307Y-74831D01*
X68329Y-74820D01*
X68385Y-74820D01*
X68408Y-74831D01*
X68419Y-74842D01*
X68430Y-74865D01*
X68430Y-74887D01*
X68419Y-74921D01*
X68284Y-75056D01*
X68430Y-75056D01*
X68520Y-74842D02*
X68532Y-74831D01*
X68554Y-74820D01*
X68610Y-74820D01*
X68633Y-74831D01*
X68644Y-74842D01*
X68655Y-74865D01*
X68655Y-74887D01*
X68644Y-74921D01*
X68509Y-75056D01*
X68655Y-75056D01*
X68757Y-74898D02*
X68757Y-75134D01*
X68757Y-74910D02*
X68779Y-74898D01*
X68824Y-74898D01*
X68847Y-74910D01*
X68858Y-74921D01*
X68869Y-74943D01*
X68869Y-75011D01*
X68858Y-75033D01*
X68847Y-75044D01*
X68824Y-75056D01*
X68779Y-75056D01*
X68757Y-75044D01*
X65551Y-74876D02*
X65539Y-74887D01*
X65506Y-74898D01*
X65483Y-74898D01*
X65449Y-74887D01*
X65427Y-74865D01*
X65416Y-74842D01*
X65404Y-74797D01*
X65404Y-74763D01*
X65416Y-74718D01*
X65427Y-74696D01*
X65449Y-74673D01*
X65483Y-74662D01*
X65506Y-74662D01*
X65539Y-74673D01*
X65551Y-74685D01*
X65753Y-74741D02*
X65753Y-74898D01*
X65697Y-74651D02*
X65641Y-74820D01*
X65787Y-74820D01*
X65224Y-75000D02*
X65236Y-74988D01*
X65258Y-74977D01*
X65314Y-74977D01*
X65337Y-74988D01*
X65348Y-75000D01*
X65359Y-75022D01*
X65359Y-75044D01*
X65348Y-75078D01*
X65213Y-75213D01*
X65359Y-75213D01*
X65449Y-75000D02*
X65461Y-74988D01*
X65483Y-74977D01*
X65539Y-74977D01*
X65562Y-74988D01*
X65573Y-75000D01*
X65584Y-75022D01*
X65584Y-75044D01*
X65573Y-75078D01*
X65438Y-75213D01*
X65584Y-75213D01*
X65686Y-75056D02*
X65686Y-75292D01*
X65686Y-75067D02*
X65708Y-75056D01*
X65753Y-75056D01*
X65776Y-75067D01*
X65787Y-75078D01*
X65798Y-75101D01*
X65798Y-75168D01*
X65787Y-75191D01*
X65776Y-75202D01*
X65753Y-75213D01*
X65708Y-75213D01*
X65686Y-75202D01*
X66136Y-67947D02*
X66147Y-67958D01*
X66158Y-67992D01*
X66158Y-68014D01*
X66147Y-68048D01*
X66124Y-68070D01*
X66102Y-68082D01*
X66057Y-68093D01*
X66023Y-68093D01*
X65978Y-68082D01*
X65956Y-68070D01*
X65933Y-68048D01*
X65922Y-68014D01*
X65922Y-67992D01*
X65933Y-67958D01*
X65944Y-67947D01*
X66158Y-67722D02*
X66158Y-67857D01*
X66158Y-67789D02*
X65922Y-67789D01*
X65956Y-67812D01*
X65978Y-67834D01*
X65989Y-67857D01*
X66023Y-67587D02*
X66012Y-67609D01*
X66001Y-67620D01*
X65978Y-67632D01*
X65967Y-67632D01*
X65944Y-67620D01*
X65933Y-67609D01*
X65922Y-67587D01*
X65922Y-67542D01*
X65933Y-67519D01*
X65944Y-67508D01*
X65967Y-67497D01*
X65978Y-67497D01*
X66001Y-67508D01*
X66012Y-67519D01*
X66023Y-67542D01*
X66023Y-67587D01*
X66034Y-67609D01*
X66046Y-67620D01*
X66068Y-67632D01*
X66113Y-67632D01*
X66136Y-67620D01*
X66147Y-67609D01*
X66158Y-67587D01*
X66158Y-67542D01*
X66147Y-67519D01*
X66136Y-67508D01*
X66113Y-67497D01*
X66068Y-67497D01*
X66046Y-67508D01*
X66034Y-67519D01*
X66023Y-67542D01*
X65607Y-68003D02*
X65607Y-67980D01*
X65618Y-67958D01*
X65629Y-67947D01*
X65652Y-67935D01*
X65697Y-67924D01*
X65753Y-67924D01*
X65798Y-67935D01*
X65821Y-67947D01*
X65832Y-67958D01*
X65843Y-67980D01*
X65843Y-68003D01*
X65832Y-68025D01*
X65821Y-68037D01*
X65798Y-68048D01*
X65753Y-68059D01*
X65697Y-68059D01*
X65652Y-68048D01*
X65629Y-68037D01*
X65618Y-68025D01*
X65607Y-68003D01*
X65821Y-67823D02*
X65832Y-67812D01*
X65843Y-67823D01*
X65832Y-67834D01*
X65821Y-67823D01*
X65843Y-67823D01*
X65843Y-67587D02*
X65843Y-67722D01*
X65843Y-67654D02*
X65607Y-67654D01*
X65641Y-67677D01*
X65663Y-67699D01*
X65674Y-67722D01*
X65686Y-67384D02*
X65843Y-67384D01*
X65686Y-67485D02*
X65809Y-67485D01*
X65832Y-67474D01*
X65843Y-67452D01*
X65843Y-67418D01*
X65832Y-67395D01*
X65821Y-67384D01*
X67080Y-68700D02*
X67092Y-68712D01*
X67103Y-68745D01*
X67103Y-68768D01*
X67092Y-68802D01*
X67069Y-68824D01*
X67047Y-68835D01*
X67002Y-68847D01*
X66968Y-68847D01*
X66923Y-68835D01*
X66901Y-68824D01*
X66878Y-68802D01*
X66867Y-68768D01*
X66867Y-68745D01*
X66878Y-68712D01*
X66889Y-68700D01*
X66867Y-68622D02*
X66867Y-68464D01*
X67103Y-68565D01*
X66473Y-68003D02*
X66473Y-67980D01*
X66484Y-67958D01*
X66496Y-67947D01*
X66518Y-67935D01*
X66563Y-67924D01*
X66619Y-67924D01*
X66664Y-67935D01*
X66687Y-67947D01*
X66698Y-67958D01*
X66709Y-67980D01*
X66709Y-68003D01*
X66698Y-68025D01*
X66687Y-68037D01*
X66664Y-68048D01*
X66619Y-68059D01*
X66563Y-68059D01*
X66518Y-68048D01*
X66496Y-68037D01*
X66484Y-68025D01*
X66473Y-68003D01*
X66687Y-67823D02*
X66698Y-67812D01*
X66709Y-67823D01*
X66698Y-67834D01*
X66687Y-67823D01*
X66709Y-67823D01*
X66709Y-67587D02*
X66709Y-67722D01*
X66709Y-67654D02*
X66473Y-67654D01*
X66507Y-67677D01*
X66529Y-67699D01*
X66541Y-67722D01*
X66552Y-67384D02*
X66709Y-67384D01*
X66552Y-67485D02*
X66676Y-67485D01*
X66698Y-67474D01*
X66709Y-67452D01*
X66709Y-67418D01*
X66698Y-67395D01*
X66687Y-67384D01*
X63897Y-76451D02*
X63886Y-76462D01*
X63852Y-76473D01*
X63830Y-76473D01*
X63796Y-76462D01*
X63773Y-76439D01*
X63762Y-76417D01*
X63751Y-76372D01*
X63751Y-76338D01*
X63762Y-76293D01*
X63773Y-76271D01*
X63796Y-76248D01*
X63830Y-76237D01*
X63852Y-76237D01*
X63886Y-76248D01*
X63897Y-76259D01*
X64010Y-76473D02*
X64055Y-76473D01*
X64077Y-76462D01*
X64088Y-76451D01*
X64111Y-76417D01*
X64122Y-76372D01*
X64122Y-76282D01*
X64111Y-76259D01*
X64100Y-76248D01*
X64077Y-76237D01*
X64032Y-76237D01*
X64010Y-76248D01*
X63998Y-76259D01*
X63987Y-76282D01*
X63987Y-76338D01*
X63998Y-76361D01*
X64010Y-76372D01*
X64032Y-76383D01*
X64077Y-76383D01*
X64100Y-76372D01*
X64111Y-76361D01*
X64122Y-76338D01*
X64516Y-76237D02*
X64538Y-76237D01*
X64561Y-76248D01*
X64572Y-76259D01*
X64583Y-76282D01*
X64595Y-76327D01*
X64595Y-76383D01*
X64583Y-76428D01*
X64572Y-76451D01*
X64561Y-76462D01*
X64538Y-76473D01*
X64516Y-76473D01*
X64493Y-76462D01*
X64482Y-76451D01*
X64471Y-76428D01*
X64460Y-76383D01*
X64460Y-76327D01*
X64471Y-76282D01*
X64482Y-76259D01*
X64493Y-76248D01*
X64516Y-76237D01*
X64696Y-76451D02*
X64707Y-76462D01*
X64696Y-76473D01*
X64685Y-76462D01*
X64696Y-76451D01*
X64696Y-76473D01*
X64932Y-76473D02*
X64797Y-76473D01*
X64865Y-76473D02*
X64865Y-76237D01*
X64842Y-76271D01*
X64820Y-76293D01*
X64797Y-76304D01*
X65134Y-76316D02*
X65134Y-76473D01*
X65033Y-76316D02*
X65033Y-76439D01*
X65044Y-76462D01*
X65067Y-76473D01*
X65101Y-76473D01*
X65123Y-76462D01*
X65134Y-76451D01*
X76788Y-69578D02*
X77024Y-69499D01*
X76788Y-69420D01*
X77002Y-69206D02*
X77013Y-69218D01*
X77024Y-69251D01*
X77024Y-69274D01*
X77013Y-69308D01*
X76991Y-69330D01*
X76968Y-69341D01*
X76923Y-69353D01*
X76889Y-69353D01*
X76844Y-69341D01*
X76822Y-69330D01*
X76799Y-69308D01*
X76788Y-69274D01*
X76788Y-69251D01*
X76799Y-69218D01*
X76811Y-69206D01*
X77024Y-69004D02*
X76901Y-69004D01*
X76878Y-69015D01*
X76867Y-69038D01*
X76867Y-69083D01*
X76878Y-69105D01*
X77013Y-69004D02*
X77024Y-69026D01*
X77024Y-69083D01*
X77013Y-69105D01*
X76991Y-69116D01*
X76968Y-69116D01*
X76946Y-69105D01*
X76934Y-69083D01*
X76934Y-69026D01*
X76923Y-69004D01*
X76867Y-68892D02*
X77103Y-68892D01*
X76878Y-68892D02*
X76867Y-68869D01*
X76867Y-68824D01*
X76878Y-68802D01*
X76889Y-68790D01*
X76912Y-68779D01*
X76979Y-68779D01*
X77002Y-68790D01*
X77013Y-68802D01*
X77024Y-68824D01*
X77024Y-68869D01*
X77013Y-68892D01*
X76811Y-68689D02*
X76799Y-68678D01*
X76788Y-68655D01*
X76788Y-68599D01*
X76799Y-68577D01*
X76811Y-68565D01*
X76833Y-68554D01*
X76856Y-68554D01*
X76889Y-68565D01*
X77024Y-68700D01*
X77024Y-68554D01*
X76496Y-69555D02*
X76484Y-69544D01*
X76473Y-69521D01*
X76473Y-69465D01*
X76484Y-69443D01*
X76496Y-69431D01*
X76518Y-69420D01*
X76541Y-69420D01*
X76574Y-69431D01*
X76709Y-69566D01*
X76709Y-69420D01*
X76687Y-69319D02*
X76698Y-69308D01*
X76709Y-69319D01*
X76698Y-69330D01*
X76687Y-69319D01*
X76709Y-69319D01*
X76496Y-69218D02*
X76484Y-69206D01*
X76473Y-69184D01*
X76473Y-69128D01*
X76484Y-69105D01*
X76496Y-69094D01*
X76518Y-69083D01*
X76541Y-69083D01*
X76574Y-69094D01*
X76709Y-69229D01*
X76709Y-69083D01*
X76552Y-68880D02*
X76709Y-68880D01*
X76552Y-68982D02*
X76676Y-68982D01*
X76698Y-68970D01*
X76709Y-68948D01*
X76709Y-68914D01*
X76698Y-68892D01*
X76687Y-68880D01*
X64493Y-71647D02*
X64482Y-71659D01*
X64448Y-71670D01*
X64426Y-71670D01*
X64392Y-71659D01*
X64370Y-71636D01*
X64358Y-71614D01*
X64347Y-71569D01*
X64347Y-71535D01*
X64358Y-71490D01*
X64370Y-71467D01*
X64392Y-71445D01*
X64426Y-71434D01*
X64448Y-71434D01*
X64482Y-71445D01*
X64493Y-71456D01*
X64718Y-71670D02*
X64583Y-71670D01*
X64651Y-71670D02*
X64651Y-71434D01*
X64628Y-71467D01*
X64606Y-71490D01*
X64583Y-71501D01*
X64921Y-71434D02*
X64876Y-71434D01*
X64853Y-71445D01*
X64842Y-71456D01*
X64820Y-71490D01*
X64808Y-71535D01*
X64808Y-71625D01*
X64820Y-71647D01*
X64831Y-71659D01*
X64853Y-71670D01*
X64898Y-71670D01*
X64921Y-71659D01*
X64932Y-71647D01*
X64943Y-71625D01*
X64943Y-71569D01*
X64932Y-71546D01*
X64921Y-71535D01*
X64898Y-71524D01*
X64853Y-71524D01*
X64831Y-71535D01*
X64820Y-71546D01*
X64808Y-71569D01*
X64606Y-70568D02*
X64471Y-70568D01*
X64538Y-70568D02*
X64538Y-70331D01*
X64516Y-70365D01*
X64493Y-70388D01*
X64471Y-70399D01*
X64707Y-70410D02*
X64707Y-70568D01*
X64707Y-70433D02*
X64718Y-70421D01*
X64741Y-70410D01*
X64775Y-70410D01*
X64797Y-70421D01*
X64808Y-70444D01*
X64808Y-70568D01*
G54D15*
X67727Y-60805D02*
X67738Y-60770D01*
X67738Y-60710D01*
X67727Y-60686D01*
X67715Y-60674D01*
X67691Y-60662D01*
X67667Y-60662D01*
X67643Y-60674D01*
X67631Y-60686D01*
X67619Y-60710D01*
X67608Y-60758D01*
X67596Y-60781D01*
X67584Y-60793D01*
X67560Y-60805D01*
X67536Y-60805D01*
X67512Y-60793D01*
X67500Y-60781D01*
X67488Y-60758D01*
X67488Y-60698D01*
X67500Y-60662D01*
X67488Y-60579D02*
X67738Y-60520D01*
X67560Y-60472D01*
X67738Y-60424D01*
X67488Y-60365D01*
X67512Y-60281D02*
X67500Y-60270D01*
X67488Y-60246D01*
X67488Y-60186D01*
X67500Y-60162D01*
X67512Y-60151D01*
X67536Y-60139D01*
X67560Y-60139D01*
X67596Y-60151D01*
X67738Y-60293D01*
X67738Y-60139D01*
G54D16*
G54D15*
X66741Y-60959D02*
X66753Y-60923D01*
X66765Y-60911D01*
X66789Y-60899D01*
X66825Y-60899D01*
X66849Y-60911D01*
X66860Y-60923D01*
X66872Y-60947D01*
X66872Y-61042D01*
X66622Y-61042D01*
X66622Y-60959D01*
X66634Y-60935D01*
X66646Y-60923D01*
X66670Y-60911D01*
X66694Y-60911D01*
X66718Y-60923D01*
X66729Y-60935D01*
X66741Y-60959D01*
X66741Y-61042D01*
X66622Y-60792D02*
X66825Y-60792D01*
X66849Y-60780D01*
X66860Y-60768D01*
X66872Y-60744D01*
X66872Y-60697D01*
X66860Y-60673D01*
X66849Y-60661D01*
X66825Y-60649D01*
X66622Y-60649D01*
X66622Y-60566D02*
X66622Y-60423D01*
X66872Y-60494D02*
X66622Y-60494D01*
X66622Y-60375D02*
X66622Y-60232D01*
X66872Y-60304D02*
X66622Y-60304D01*
X66622Y-60102D02*
X66622Y-60054D01*
X66634Y-60030D01*
X66658Y-60006D01*
X66706Y-59994D01*
X66789Y-59994D01*
X66837Y-60006D01*
X66860Y-60030D01*
X66872Y-60054D01*
X66872Y-60102D01*
X66860Y-60125D01*
X66837Y-60149D01*
X66789Y-60161D01*
X66706Y-60161D01*
X66658Y-60149D01*
X66634Y-60125D01*
X66622Y-60102D01*
X66872Y-59887D02*
X66622Y-59887D01*
X66872Y-59744D01*
X66622Y-59744D01*
G54D16*
G54D15*
X64892Y-60805D02*
X64904Y-60770D01*
X64904Y-60710D01*
X64892Y-60686D01*
X64880Y-60674D01*
X64856Y-60662D01*
X64832Y-60662D01*
X64809Y-60674D01*
X64797Y-60686D01*
X64785Y-60710D01*
X64773Y-60758D01*
X64761Y-60781D01*
X64749Y-60793D01*
X64725Y-60805D01*
X64701Y-60805D01*
X64678Y-60793D01*
X64666Y-60781D01*
X64654Y-60758D01*
X64654Y-60698D01*
X64666Y-60662D01*
X64654Y-60579D02*
X64904Y-60520D01*
X64725Y-60472D01*
X64904Y-60424D01*
X64654Y-60365D01*
X64654Y-60293D02*
X64654Y-60139D01*
X64749Y-60222D01*
X64749Y-60186D01*
X64761Y-60162D01*
X64773Y-60151D01*
X64797Y-60139D01*
X64856Y-60139D01*
X64880Y-60151D01*
X64892Y-60162D01*
X64904Y-60186D01*
X64904Y-60258D01*
X64892Y-60281D01*
X64880Y-60293D01*
G54D16*
G54D15*
X63828Y-61037D02*
X63840Y-61002D01*
X63852Y-60990D01*
X63876Y-60978D01*
X63911Y-60978D01*
X63935Y-60990D01*
X63947Y-61002D01*
X63959Y-61026D01*
X63959Y-61121D01*
X63709Y-61121D01*
X63709Y-61037D01*
X63721Y-61014D01*
X63733Y-61002D01*
X63757Y-60990D01*
X63780Y-60990D01*
X63804Y-61002D01*
X63816Y-61014D01*
X63828Y-61037D01*
X63828Y-61121D01*
X63709Y-60871D02*
X63911Y-60871D01*
X63935Y-60859D01*
X63947Y-60847D01*
X63959Y-60823D01*
X63959Y-60776D01*
X63947Y-60752D01*
X63935Y-60740D01*
X63911Y-60728D01*
X63709Y-60728D01*
X63709Y-60645D02*
X63709Y-60502D01*
X63959Y-60573D02*
X63709Y-60573D01*
X63709Y-60454D02*
X63709Y-60311D01*
X63959Y-60383D02*
X63709Y-60383D01*
X63709Y-60180D02*
X63709Y-60133D01*
X63721Y-60109D01*
X63745Y-60085D01*
X63792Y-60073D01*
X63876Y-60073D01*
X63923Y-60085D01*
X63947Y-60109D01*
X63959Y-60133D01*
X63959Y-60180D01*
X63947Y-60204D01*
X63923Y-60228D01*
X63876Y-60240D01*
X63792Y-60240D01*
X63745Y-60228D01*
X63721Y-60204D01*
X63709Y-60180D01*
X63959Y-59966D02*
X63709Y-59966D01*
X63959Y-59823D01*
X63709Y-59823D01*
G54D16*
G54D10*
X73439Y-77660D02*
X73360Y-77660D01*
X73360Y-77784D02*
X73360Y-77548D01*
X73473Y-77548D01*
X73687Y-77784D02*
X73552Y-77784D01*
X73619Y-77784D02*
X73619Y-77548D01*
X73597Y-77582D01*
X73574Y-77604D01*
X73552Y-77615D01*
X73385Y-80286D02*
X73307Y-80286D01*
X73307Y-80410D02*
X73307Y-80174D01*
X73419Y-80174D01*
X73498Y-80196D02*
X73509Y-80185D01*
X73532Y-80174D01*
X73588Y-80174D01*
X73610Y-80185D01*
X73622Y-80196D01*
X73633Y-80219D01*
X73633Y-80241D01*
X73622Y-80275D01*
X73487Y-80410D01*
X73633Y-80410D01*
G54D14*
X75056Y-79701D02*
X74820Y-79701D01*
X74820Y-79645D01*
X74831Y-79611D01*
X74853Y-79589D01*
X74876Y-79578D01*
X74921Y-79566D01*
X74955Y-79566D01*
X74999Y-79578D01*
X75022Y-79589D01*
X75044Y-79611D01*
X75056Y-79645D01*
X75056Y-79701D01*
X74842Y-79476D02*
X74831Y-79465D01*
X74820Y-79443D01*
X74820Y-79387D01*
X74831Y-79364D01*
X74842Y-79353D01*
X74865Y-79342D01*
X74887Y-79342D01*
X74921Y-79353D01*
X75056Y-79488D01*
X75056Y-79342D01*
X75056Y-78363D02*
X74820Y-78363D01*
X74820Y-78306D01*
X74831Y-78273D01*
X74853Y-78250D01*
X74876Y-78239D01*
X74921Y-78228D01*
X74955Y-78228D01*
X74999Y-78239D01*
X75022Y-78250D01*
X75044Y-78273D01*
X75056Y-78306D01*
X75056Y-78363D01*
X75056Y-78003D02*
X75056Y-78138D01*
X75056Y-78070D02*
X74820Y-78070D01*
X74853Y-78093D01*
X74876Y-78115D01*
X74887Y-78138D01*
G54D10*
X63166Y-63380D02*
X63053Y-63458D01*
X63166Y-63515D02*
X62930Y-63515D01*
X62930Y-63425D01*
X62941Y-63402D01*
X62952Y-63391D01*
X62975Y-63380D01*
X63008Y-63380D01*
X63031Y-63391D01*
X63042Y-63402D01*
X63053Y-63425D01*
X63053Y-63515D01*
X63166Y-63155D02*
X63166Y-63290D01*
X63166Y-63222D02*
X62930Y-63222D01*
X62964Y-63245D01*
X62986Y-63267D01*
X62997Y-63290D01*
X63031Y-63020D02*
X63020Y-63042D01*
X63008Y-63053D01*
X62986Y-63065D01*
X62975Y-63065D01*
X62952Y-63053D01*
X62941Y-63042D01*
X62930Y-63020D01*
X62930Y-62975D01*
X62941Y-62952D01*
X62952Y-62941D01*
X62975Y-62930D01*
X62986Y-62930D01*
X63008Y-62941D01*
X63020Y-62952D01*
X63031Y-62975D01*
X63031Y-63020D01*
X63042Y-63042D01*
X63053Y-63053D01*
X63076Y-63065D01*
X63121Y-63065D01*
X63143Y-63053D01*
X63155Y-63042D01*
X63166Y-63020D01*
X63166Y-62975D01*
X63155Y-62952D01*
X63143Y-62941D01*
X63121Y-62930D01*
X63076Y-62930D01*
X63053Y-62941D01*
X63042Y-62952D01*
X63031Y-62975D01*
X63481Y-63425D02*
X63481Y-63560D01*
X63481Y-63492D02*
X63245Y-63492D01*
X63278Y-63515D01*
X63301Y-63537D01*
X63312Y-63560D01*
X63245Y-63278D02*
X63245Y-63256D01*
X63256Y-63233D01*
X63267Y-63222D01*
X63290Y-63211D01*
X63335Y-63200D01*
X63391Y-63200D01*
X63436Y-63211D01*
X63458Y-63222D01*
X63470Y-63233D01*
X63481Y-63256D01*
X63481Y-63278D01*
X63470Y-63301D01*
X63458Y-63312D01*
X63436Y-63323D01*
X63391Y-63335D01*
X63335Y-63335D01*
X63290Y-63323D01*
X63267Y-63312D01*
X63256Y-63301D01*
X63245Y-63278D01*
X63245Y-63053D02*
X63245Y-63031D01*
X63256Y-63008D01*
X63267Y-62997D01*
X63290Y-62986D01*
X63335Y-62975D01*
X63391Y-62975D01*
X63436Y-62986D01*
X63458Y-62997D01*
X63470Y-63008D01*
X63481Y-63031D01*
X63481Y-63053D01*
X63470Y-63076D01*
X63458Y-63087D01*
X63436Y-63098D01*
X63391Y-63110D01*
X63335Y-63110D01*
X63290Y-63098D01*
X63267Y-63087D01*
X63256Y-63076D01*
X63245Y-63053D01*
X63481Y-62739D02*
X63368Y-62817D01*
X63481Y-62874D02*
X63245Y-62874D01*
X63245Y-62784D01*
X63256Y-62761D01*
X63267Y-62750D01*
X63290Y-62739D01*
X63323Y-62739D01*
X63346Y-62750D01*
X63357Y-62761D01*
X63368Y-62784D01*
X63368Y-62874D01*
X61079Y-68987D02*
X61316Y-68830D01*
X61079Y-68830D02*
X61316Y-68987D01*
X61316Y-68627D02*
X61316Y-68740D01*
X61079Y-68740D01*
X61079Y-68571D02*
X61079Y-68425D01*
X61169Y-68503D01*
X61169Y-68470D01*
X61181Y-68447D01*
X61192Y-68436D01*
X61214Y-68425D01*
X61271Y-68425D01*
X61293Y-68436D01*
X61304Y-68447D01*
X61316Y-68470D01*
X61316Y-68537D01*
X61304Y-68560D01*
X61293Y-68571D01*
X47300Y-75202D02*
X47536Y-75044D01*
X47300Y-75044D02*
X47536Y-75202D01*
X47536Y-74842D02*
X47536Y-74955D01*
X47300Y-74955D01*
X47536Y-74640D02*
X47536Y-74775D01*
X47536Y-74707D02*
X47300Y-74707D01*
X47334Y-74730D01*
X47356Y-74752D01*
X47367Y-74775D01*
X47322Y-74550D02*
X47311Y-74538D01*
X47300Y-74516D01*
X47300Y-74460D01*
X47311Y-74437D01*
X47322Y-74426D01*
X47345Y-74415D01*
X47367Y-74415D01*
X47401Y-74426D01*
X47536Y-74561D01*
X47536Y-74415D01*
X47907Y-75303D02*
X47919Y-75314D01*
X47930Y-75348D01*
X47930Y-75371D01*
X47919Y-75404D01*
X47896Y-75427D01*
X47874Y-75438D01*
X47829Y-75449D01*
X47795Y-75449D01*
X47750Y-75438D01*
X47727Y-75427D01*
X47705Y-75404D01*
X47694Y-75371D01*
X47694Y-75348D01*
X47705Y-75314D01*
X47716Y-75303D01*
X47694Y-75157D02*
X47694Y-75112D01*
X47705Y-75089D01*
X47727Y-75067D01*
X47772Y-75056D01*
X47851Y-75056D01*
X47896Y-75067D01*
X47919Y-75089D01*
X47930Y-75112D01*
X47930Y-75157D01*
X47919Y-75179D01*
X47896Y-75202D01*
X47851Y-75213D01*
X47772Y-75213D01*
X47727Y-75202D01*
X47705Y-75179D01*
X47694Y-75157D01*
X47930Y-74955D02*
X47694Y-74955D01*
X47930Y-74820D01*
X47694Y-74820D01*
X47930Y-74707D02*
X47694Y-74707D01*
X47930Y-74572D01*
X47694Y-74572D01*
X47952Y-74516D02*
X47952Y-74336D01*
X47772Y-74178D02*
X47930Y-74178D01*
X47682Y-74235D02*
X47851Y-74291D01*
X47851Y-74145D01*
X61079Y-64375D02*
X61316Y-64218D01*
X61079Y-64218D02*
X61316Y-64375D01*
X61316Y-64015D02*
X61316Y-64128D01*
X61079Y-64128D01*
X61316Y-63813D02*
X61316Y-63948D01*
X61316Y-63880D02*
X61079Y-63880D01*
X61113Y-63903D01*
X61136Y-63925D01*
X61147Y-63948D01*
X61316Y-63588D02*
X61316Y-63723D01*
X61316Y-63655D02*
X61079Y-63655D01*
X61113Y-63678D01*
X61136Y-63700D01*
X61147Y-63723D01*
X47497Y-66541D02*
X47733Y-66383D01*
X47497Y-66383D02*
X47733Y-66541D01*
X47733Y-66181D02*
X47733Y-66293D01*
X47497Y-66293D01*
X47733Y-65978D02*
X47733Y-66113D01*
X47733Y-66046D02*
X47497Y-66046D01*
X47530Y-66068D01*
X47553Y-66091D01*
X47564Y-66113D01*
X47497Y-65899D02*
X47497Y-65753D01*
X47587Y-65832D01*
X47587Y-65798D01*
X47598Y-65776D01*
X47609Y-65764D01*
X47632Y-65753D01*
X47688Y-65753D01*
X47710Y-65764D01*
X47722Y-65776D01*
X47733Y-65798D01*
X47733Y-65866D01*
X47722Y-65888D01*
X47710Y-65899D01*
X47710Y-68020D02*
X47722Y-68031D01*
X47733Y-68065D01*
X47733Y-68087D01*
X47722Y-68121D01*
X47699Y-68143D01*
X47677Y-68155D01*
X47632Y-68166D01*
X47598Y-68166D01*
X47553Y-68155D01*
X47530Y-68143D01*
X47508Y-68121D01*
X47497Y-68087D01*
X47497Y-68065D01*
X47508Y-68031D01*
X47519Y-68020D01*
X47497Y-67874D02*
X47497Y-67829D01*
X47508Y-67806D01*
X47530Y-67784D01*
X47575Y-67772D01*
X47654Y-67772D01*
X47699Y-67784D01*
X47722Y-67806D01*
X47733Y-67829D01*
X47733Y-67874D01*
X47722Y-67896D01*
X47699Y-67919D01*
X47654Y-67930D01*
X47575Y-67930D01*
X47530Y-67919D01*
X47508Y-67896D01*
X47497Y-67874D01*
X47733Y-67671D02*
X47497Y-67671D01*
X47733Y-67536D01*
X47497Y-67536D01*
X47733Y-67424D02*
X47497Y-67424D01*
X47733Y-67289D01*
X47497Y-67289D01*
X47755Y-67232D02*
X47755Y-67052D01*
X47575Y-66895D02*
X47733Y-66895D01*
X47485Y-66951D02*
X47654Y-67007D01*
X47654Y-66861D01*
G54D15*
X70640Y-60805D02*
X70652Y-60770D01*
X70652Y-60710D01*
X70640Y-60686D01*
X70628Y-60674D01*
X70604Y-60662D01*
X70580Y-60662D01*
X70557Y-60674D01*
X70545Y-60686D01*
X70533Y-60710D01*
X70521Y-60758D01*
X70509Y-60781D01*
X70497Y-60793D01*
X70473Y-60805D01*
X70449Y-60805D01*
X70426Y-60793D01*
X70414Y-60781D01*
X70402Y-60758D01*
X70402Y-60698D01*
X70414Y-60662D01*
X70402Y-60579D02*
X70652Y-60520D01*
X70473Y-60472D01*
X70652Y-60424D01*
X70402Y-60365D01*
X70485Y-60162D02*
X70652Y-60162D01*
X70390Y-60222D02*
X70569Y-60281D01*
X70569Y-60127D01*
G54D16*
G54D15*
X69576Y-60959D02*
X69588Y-60923D01*
X69600Y-60911D01*
X69624Y-60899D01*
X69659Y-60899D01*
X69683Y-60911D01*
X69695Y-60923D01*
X69707Y-60947D01*
X69707Y-61042D01*
X69457Y-61042D01*
X69457Y-60959D01*
X69469Y-60935D01*
X69481Y-60923D01*
X69505Y-60911D01*
X69528Y-60911D01*
X69552Y-60923D01*
X69564Y-60935D01*
X69576Y-60959D01*
X69576Y-61042D01*
X69457Y-60792D02*
X69659Y-60792D01*
X69683Y-60780D01*
X69695Y-60768D01*
X69707Y-60744D01*
X69707Y-60697D01*
X69695Y-60673D01*
X69683Y-60661D01*
X69659Y-60649D01*
X69457Y-60649D01*
X69457Y-60566D02*
X69457Y-60423D01*
X69707Y-60494D02*
X69457Y-60494D01*
X69457Y-60375D02*
X69457Y-60232D01*
X69707Y-60304D02*
X69457Y-60304D01*
X69457Y-60102D02*
X69457Y-60054D01*
X69469Y-60030D01*
X69493Y-60006D01*
X69540Y-59994D01*
X69624Y-59994D01*
X69671Y-60006D01*
X69695Y-60030D01*
X69707Y-60054D01*
X69707Y-60102D01*
X69695Y-60125D01*
X69671Y-60149D01*
X69624Y-60161D01*
X69540Y-60161D01*
X69493Y-60149D01*
X69469Y-60125D01*
X69457Y-60102D01*
X69707Y-59887D02*
X69457Y-59887D01*
X69707Y-59744D01*
X69457Y-59744D01*
G54D16*
M02*
