M48
;DRILL file {Pcbnew (2013-05-16 BZR 4016)-stable} date 22/07/2013 12:31:59
;FORMAT={-:-/ absolute / metric / decimal}
FMAT,2
METRIC,TZ
T1C0.400
T2C0.813
T3C0.899
T4C1.501
T5C3.500
%
G90
G05
M71
T1
X116.5Y-126.
X116.5Y-129.5
X116.5Y-133.5
X116.5Y-137.5
X116.68Y-141.407
X118.52Y-139.7
X120.95Y-133.12
X122.58Y-131.
X125.Y-129.5
X125.5Y-137.5
X127.Y-125.5
X128.5Y-132.5
X129.Y-128.
X129.Y-140.5
X129.5Y-137.
X129.5Y-145.
X132.Y-129.5
X133.1Y-133.89
X134.24Y-128.9
X134.82Y-143.74
X135.Y-146.
X137.07Y-139.99
X137.49Y-135.39
X138.Y-146.
X138.52Y-128.79
X139.Y-142.5
X140.28Y-138.95
X140.63Y-143.41
X141.5Y-130.5
X141.5Y-137.
X141.65Y-139.25
X143.Y-144.5
X143.43Y-134.3
X143.97Y-131.8
X144.Y-139.
X144.5Y-136.5
X145.93Y-140.3
X146.Y-131.
X146.Y-135.74
X148.996Y-134.501
X149.Y-136.58
X149.25Y-128.11
X149.34Y-142.99
X150.Y-146.
X151.76Y-136.58
X152.33Y-138.85
X152.5Y-125.5
X152.5Y-145.
X153.Y-141.
X153.871Y-137.929
X153.871Y-138.729
X154.34Y-127.22
X154.671Y-137.929
X154.671Y-138.729
X155.26Y-133.79
X155.471Y-137.929
X155.471Y-138.729
X156.24Y-135.37
X156.271Y-137.929
X156.271Y-138.729
X156.89Y-136.3
X160.Y-142.
X160.5Y-129.
X160.66Y-125.95
X161.9Y-135.19
X164.44Y-132.75
X164.5Y-129.
X166.Y-133.5
X166.Y-142.
T2
X135.96Y-126.
X138.5Y-126.
X141.04Y-126.
X147.86Y-148.
X150.4Y-148.
X152.94Y-148.
X163.181Y-126.266
X165.721Y-126.266
X166.Y-136.73
X166.Y-139.27
T3
X118.987Y-125.957
X121.487Y-125.957
X123.987Y-125.957
X136.79Y-148.
X139.33Y-148.
X141.87Y-148.
X144.41Y-148.
X144.5Y-126.
X147.Y-126.
X149.5Y-126.
T4
X131.963Y-126.357
X131.99Y-147.6
T5
X163.8Y-145.6
T0
M30
