G04 (created by PCBNEW (2013-05-16 BZR 4016)-stable) date 22/07/2013 12:31:48*
%MOIN*%
G04 Gerber Fmt 3.4, Leading zero omitted, Abs format*
%FSLAX34Y34*%
G01*
G70*
G90*
G04 APERTURE LIST*
%ADD10C,0.00590551*%
%ADD11R,0.0748031X0.114173*%
%ADD12R,0.114173X0.0748031*%
%ADD13R,0.0314961X0.0649606*%
%ADD14C,0.055148*%
%ADD15R,0.035748X0.045748*%
%ADD16R,0.054348X0.060748*%
%ADD17R,0.060748X0.054348*%
%ADD18R,0.133848X0.133848*%
%ADD19C,0.133848*%
%ADD20R,0.070848X0.070848*%
%ADD21C,0.070848*%
%ADD22R,0.070748X0.070748*%
%ADD23C,0.070748*%
%ADD24R,0.051148X0.043348*%
%ADD25O,0.051148X0.043348*%
%ADD26R,0.055748X0.050748*%
%ADD27R,0.050748X0.055748*%
%ADD28R,0.062948X0.027548*%
%ADD29O,0.062948X0.027548*%
%ADD30O,0.027548X0.062948*%
%ADD31R,0.120748X0.075748*%
%ADD32C,0.251948*%
%ADD33R,0.030315X0.0629921*%
%ADD34O,0.030315X0.0629921*%
%ADD35R,0.0472441X0.0472441*%
%ADD36R,0.094448X0.086648*%
%ADD37R,0.060748X0.070748*%
%ADD38C,0.074848*%
G04 APERTURE END LIST*
G54D10*
G54D11*
X45807Y-58090D03*
X49862Y-58090D03*
X45807Y-56437D03*
X49862Y-56437D03*
G54D12*
X46968Y-55570D03*
X48700Y-55570D03*
G54D13*
X47322Y-56309D03*
X47578Y-56309D03*
X47834Y-56309D03*
X48090Y-56309D03*
X48346Y-56309D03*
G54D14*
X58725Y-54473D03*
G54D15*
X47850Y-52002D03*
X47100Y-52002D03*
X47850Y-53002D03*
X47475Y-52002D03*
X47100Y-53002D03*
G54D16*
X53745Y-49606D03*
X54209Y-49606D03*
G54D17*
X53476Y-53016D03*
X53476Y-53480D03*
G54D18*
X51954Y-49746D03*
G54D19*
X51964Y-58110D03*
G54D20*
X56854Y-58267D03*
G54D21*
X55854Y-58267D03*
X54854Y-58267D03*
X53854Y-58267D03*
G54D22*
X58212Y-58267D03*
G54D23*
X59212Y-58267D03*
X60212Y-58267D03*
G54D22*
X53527Y-49606D03*
G54D23*
X54527Y-49606D03*
X55527Y-49606D03*
G54D22*
X64244Y-49711D03*
G54D23*
X65244Y-49711D03*
G54D22*
X65354Y-54830D03*
G54D23*
X65354Y-53830D03*
G54D24*
X51990Y-52982D03*
G54D25*
X51990Y-53494D03*
X52738Y-53494D03*
X52738Y-52982D03*
G54D26*
X48735Y-52960D03*
X48735Y-52360D03*
X62564Y-54037D03*
X62564Y-54637D03*
G54D27*
X56196Y-50787D03*
X56796Y-50787D03*
G54D26*
X62795Y-49503D03*
X62795Y-50103D03*
X61220Y-50103D03*
X61220Y-49503D03*
G54D27*
X57770Y-50787D03*
X58370Y-50787D03*
G54D28*
X57972Y-55138D03*
G54D29*
X57972Y-54942D03*
X57972Y-54745D03*
X57972Y-54548D03*
X57972Y-54351D03*
X57972Y-54154D03*
X57972Y-53957D03*
X57972Y-53760D03*
X57972Y-53564D03*
X57972Y-53367D03*
X57972Y-53170D03*
X57973Y-52973D03*
G54D30*
X57380Y-52382D03*
X57184Y-52382D03*
X56987Y-52382D03*
X56790Y-52382D03*
X56593Y-52382D03*
X56396Y-52382D03*
X56199Y-52382D03*
X56003Y-52382D03*
X55806Y-52382D03*
X55609Y-52382D03*
X55413Y-52382D03*
X55216Y-52382D03*
G54D29*
X54625Y-52972D03*
X54625Y-53169D03*
X54625Y-53366D03*
X54625Y-53563D03*
X54625Y-53760D03*
X54625Y-53957D03*
X54625Y-54154D03*
X54625Y-54350D03*
X54625Y-54547D03*
X54625Y-54744D03*
X54625Y-54941D03*
X54625Y-55138D03*
G54D30*
X55216Y-55728D03*
X55413Y-55728D03*
X55610Y-55728D03*
X55807Y-55728D03*
X56004Y-55728D03*
X56201Y-55728D03*
X56397Y-55728D03*
X56594Y-55728D03*
X56791Y-55728D03*
X56988Y-55728D03*
X57185Y-55728D03*
X57382Y-55728D03*
G54D31*
X63858Y-54981D03*
X63858Y-53781D03*
G54D32*
X64488Y-57322D03*
G54D33*
X61435Y-53790D03*
G54D34*
X61179Y-53790D03*
X60923Y-53790D03*
X60667Y-53790D03*
X60667Y-55129D03*
X60923Y-55129D03*
X61179Y-55129D03*
X61435Y-55129D03*
G54D35*
X61524Y-54617D03*
X61209Y-54617D03*
X60894Y-54617D03*
X60579Y-54617D03*
X61524Y-54302D03*
X61209Y-54302D03*
X60894Y-54302D03*
X60579Y-54302D03*
G54D36*
X60824Y-56496D03*
X62324Y-56496D03*
G54D37*
X61411Y-57952D03*
X62211Y-57952D03*
X61607Y-52362D03*
X62407Y-52362D03*
X53077Y-55511D03*
X52277Y-55511D03*
X47245Y-54152D03*
X48045Y-54152D03*
X47232Y-50888D03*
X48032Y-50888D03*
X53864Y-51850D03*
X53064Y-51850D03*
G54D26*
X62007Y-50103D03*
X62007Y-49503D03*
G54D27*
X61707Y-51377D03*
X62307Y-51377D03*
X59207Y-53315D03*
X59807Y-53315D03*
X53095Y-54409D03*
X52495Y-54409D03*
X53882Y-50866D03*
X53282Y-50866D03*
G54D26*
X55175Y-51294D03*
X55175Y-50694D03*
G54D27*
X54110Y-56595D03*
X53510Y-56595D03*
X57881Y-56693D03*
X57281Y-56693D03*
G54D26*
X59251Y-55605D03*
X59251Y-56205D03*
G54D38*
X47829Y-49589D03*
X57874Y-49606D03*
X48813Y-49589D03*
X58858Y-49606D03*
X56889Y-49606D03*
X46845Y-49589D03*
G54D26*
X60236Y-51471D03*
X60236Y-52071D03*
G54D27*
X58882Y-52007D03*
X58282Y-52007D03*
M02*
