G04 (created by PCBNEW (2013-05-16 BZR 4016)-stable) date 22/07/2013 12:31:48*
%MOIN*%
G04 Gerber Fmt 3.4, Leading zero omitted, Abs format*
%FSLAX34Y34*%
G01*
G70*
G90*
G04 APERTURE LIST*
%ADD10C,0.00590551*%
%ADD11R,0.0590551X0.0984252*%
%ADD12R,0.0984252X0.0590551*%
%ADD13R,0.015748X0.0492126*%
%ADD14C,0.0394*%
%ADD15R,0.02X0.03*%
%ADD16R,0.0386X0.045*%
%ADD17R,0.045X0.0386*%
%ADD18R,0.1181X0.1181*%
%ADD19C,0.1181*%
%ADD20R,0.0551X0.0551*%
%ADD21C,0.0551*%
%ADD22R,0.055X0.055*%
%ADD23C,0.055*%
%ADD24R,0.0354X0.0276*%
%ADD25O,0.0354X0.0276*%
%ADD26R,0.04X0.035*%
%ADD27R,0.035X0.04*%
%ADD28R,0.0472X0.0118*%
%ADD29O,0.0472X0.0118*%
%ADD30O,0.0118X0.0472*%
%ADD31R,0.105X0.06*%
%ADD32C,0.2362*%
%ADD33R,0.0145669X0.0472441*%
%ADD34O,0.0145669X0.0472441*%
%ADD35R,0.0314961X0.0314961*%
%ADD36R,0.0787X0.0709*%
%ADD37R,0.045X0.055*%
%ADD38C,0.0591*%
%ADD39C,0.0354331*%
%ADD40C,0.019685*%
%ADD41C,0.00787402*%
%ADD42C,0.00984252*%
G04 APERTURE END LIST*
G54D10*
G54D11*
X45807Y-58090D03*
X49862Y-58090D03*
X45807Y-56437D03*
X49862Y-56437D03*
G54D12*
X46968Y-55570D03*
X48700Y-55570D03*
G54D13*
X47322Y-56309D03*
X47578Y-56309D03*
X47834Y-56309D03*
X48090Y-56309D03*
X48346Y-56309D03*
G54D14*
X58725Y-54473D03*
G54D15*
X47850Y-52002D03*
X47100Y-52002D03*
X47850Y-53002D03*
X47475Y-52002D03*
X47100Y-53002D03*
G54D16*
X53745Y-49606D03*
X54209Y-49606D03*
G54D17*
X53476Y-53016D03*
X53476Y-53480D03*
G54D18*
X51954Y-49746D03*
G54D19*
X51964Y-58110D03*
G54D20*
X56854Y-58267D03*
G54D21*
X55854Y-58267D03*
X54854Y-58267D03*
X53854Y-58267D03*
G54D22*
X58212Y-58267D03*
G54D23*
X59212Y-58267D03*
X60212Y-58267D03*
G54D22*
X53527Y-49606D03*
G54D23*
X54527Y-49606D03*
X55527Y-49606D03*
G54D22*
X64244Y-49711D03*
G54D23*
X65244Y-49711D03*
G54D22*
X65354Y-54830D03*
G54D23*
X65354Y-53830D03*
G54D24*
X51990Y-52982D03*
G54D25*
X51990Y-53494D03*
X52738Y-53494D03*
X52738Y-52982D03*
G54D26*
X48735Y-52960D03*
X48735Y-52360D03*
X62564Y-54037D03*
X62564Y-54637D03*
G54D27*
X56196Y-50787D03*
X56796Y-50787D03*
G54D26*
X62795Y-49503D03*
X62795Y-50103D03*
X61220Y-50103D03*
X61220Y-49503D03*
G54D27*
X57770Y-50787D03*
X58370Y-50787D03*
G54D28*
X57972Y-55138D03*
G54D29*
X57972Y-54942D03*
X57972Y-54745D03*
X57972Y-54548D03*
X57972Y-54351D03*
X57972Y-54154D03*
X57972Y-53957D03*
X57972Y-53760D03*
X57972Y-53564D03*
X57972Y-53367D03*
X57972Y-53170D03*
X57973Y-52973D03*
G54D30*
X57380Y-52382D03*
X57184Y-52382D03*
X56987Y-52382D03*
X56790Y-52382D03*
X56593Y-52382D03*
X56396Y-52382D03*
X56199Y-52382D03*
X56003Y-52382D03*
X55806Y-52382D03*
X55609Y-52382D03*
X55413Y-52382D03*
X55216Y-52382D03*
G54D29*
X54625Y-52972D03*
X54625Y-53169D03*
X54625Y-53366D03*
X54625Y-53563D03*
X54625Y-53760D03*
X54625Y-53957D03*
X54625Y-54154D03*
X54625Y-54350D03*
X54625Y-54547D03*
X54625Y-54744D03*
X54625Y-54941D03*
X54625Y-55138D03*
G54D30*
X55216Y-55728D03*
X55413Y-55728D03*
X55610Y-55728D03*
X55807Y-55728D03*
X56004Y-55728D03*
X56201Y-55728D03*
X56397Y-55728D03*
X56594Y-55728D03*
X56791Y-55728D03*
X56988Y-55728D03*
X57185Y-55728D03*
X57382Y-55728D03*
G54D31*
X63858Y-54981D03*
X63858Y-53781D03*
G54D32*
X64488Y-57322D03*
G54D33*
X61435Y-53790D03*
G54D34*
X61179Y-53790D03*
X60923Y-53790D03*
X60667Y-53790D03*
X60667Y-55129D03*
X60923Y-55129D03*
X61179Y-55129D03*
X61435Y-55129D03*
G54D35*
X61524Y-54617D03*
X61209Y-54617D03*
X60894Y-54617D03*
X60579Y-54617D03*
X61524Y-54302D03*
X61209Y-54302D03*
X60894Y-54302D03*
X60579Y-54302D03*
G54D36*
X60824Y-56496D03*
X62324Y-56496D03*
G54D37*
X61411Y-57952D03*
X62211Y-57952D03*
X61607Y-52362D03*
X62407Y-52362D03*
X53077Y-55511D03*
X52277Y-55511D03*
X47245Y-54152D03*
X48045Y-54152D03*
X47232Y-50888D03*
X48032Y-50888D03*
X53864Y-51850D03*
X53064Y-51850D03*
G54D26*
X62007Y-50103D03*
X62007Y-49503D03*
G54D27*
X61707Y-51377D03*
X62307Y-51377D03*
X59207Y-53315D03*
X59807Y-53315D03*
X53095Y-54409D03*
X52495Y-54409D03*
X53882Y-50866D03*
X53282Y-50866D03*
G54D26*
X55175Y-51294D03*
X55175Y-50694D03*
G54D27*
X54110Y-56595D03*
X53510Y-56595D03*
X57881Y-56693D03*
X57281Y-56693D03*
G54D26*
X59251Y-55605D03*
X59251Y-56205D03*
G54D38*
X47829Y-49589D03*
X57874Y-49606D03*
X48813Y-49589D03*
X58858Y-49606D03*
X56889Y-49606D03*
X46845Y-49589D03*
G54D26*
X60236Y-51471D03*
X60236Y-52071D03*
G54D27*
X58882Y-52007D03*
X58282Y-52007D03*
G54D39*
X54129Y-53303D03*
X63251Y-49586D03*
X47618Y-52409D03*
X52401Y-52712D03*
X58659Y-52953D03*
X56681Y-51889D03*
X48259Y-51574D03*
X55228Y-54704D03*
X55366Y-56460D03*
X53964Y-55114D03*
X55767Y-54822D03*
X58795Y-56295D03*
X57452Y-55236D03*
X45937Y-55671D03*
X46661Y-55000D03*
X52850Y-50748D03*
X54535Y-50704D03*
X58759Y-50437D03*
X59748Y-53771D03*
X58661Y-53771D03*
X53078Y-56590D03*
X64740Y-52263D03*
X63740Y-53224D03*
X45866Y-49606D03*
X45866Y-50984D03*
X45866Y-52559D03*
X45866Y-54133D03*
X49409Y-54133D03*
X49212Y-50984D03*
X50000Y-49409D03*
X50787Y-50393D03*
X50590Y-52165D03*
X50984Y-53937D03*
X50787Y-55314D03*
X50984Y-57086D03*
X54724Y-56102D03*
X54330Y-57480D03*
X53149Y-57480D03*
X56299Y-56889D03*
X56692Y-54724D03*
X55708Y-53937D03*
X56889Y-53740D03*
X51968Y-50984D03*
X57480Y-51574D03*
X60039Y-49409D03*
X63188Y-50787D03*
X64763Y-50787D03*
X65354Y-52559D03*
X62992Y-55905D03*
X65354Y-55905D03*
X60236Y-55511D03*
X60039Y-57086D03*
X59055Y-57480D03*
X55708Y-51377D03*
X61511Y-53295D03*
X61125Y-52673D03*
X57480Y-53440D03*
X59972Y-54665D03*
X61767Y-53661D03*
X60763Y-50086D03*
X56468Y-52874D03*
G54D40*
X57056Y-57815D02*
X57948Y-57070D01*
X56952Y-57918D02*
X57056Y-57815D01*
X56952Y-57992D02*
X56952Y-57918D01*
X56952Y-58090D02*
X56952Y-57992D01*
X56854Y-58267D02*
X56952Y-58090D01*
X53349Y-53494D02*
X53476Y-53480D01*
X53251Y-53494D02*
X53349Y-53494D01*
X52777Y-53494D02*
X53251Y-53494D01*
X52738Y-53494D02*
X52777Y-53494D01*
X53095Y-54307D02*
X53095Y-54409D01*
X53095Y-54209D02*
X53095Y-54307D01*
X53095Y-54136D02*
X53095Y-54209D01*
X52777Y-53494D02*
X53095Y-54136D01*
X52738Y-53494D02*
X52777Y-53494D01*
X58514Y-53417D02*
X58385Y-53496D01*
X58958Y-53338D02*
X58514Y-53417D01*
X59032Y-53338D02*
X58958Y-53338D01*
X59130Y-53338D02*
X59032Y-53338D01*
X59207Y-53315D02*
X59130Y-53338D01*
X53095Y-55335D02*
X53077Y-55511D01*
X53095Y-55236D02*
X53095Y-55335D01*
X53095Y-54609D02*
X53095Y-55236D01*
X53095Y-54511D02*
X53095Y-54609D01*
X53095Y-54409D02*
X53095Y-54511D01*
X55198Y-51542D02*
X55204Y-51968D01*
X55198Y-51469D02*
X55198Y-51542D01*
X55198Y-51370D02*
X55198Y-51469D01*
X55175Y-51294D02*
X55198Y-51370D01*
X54378Y-55586D02*
X54401Y-55401D01*
X54110Y-56323D02*
X54378Y-55586D01*
X54110Y-56395D02*
X54110Y-56323D01*
X54110Y-56494D02*
X54110Y-56395D01*
X54110Y-56595D02*
X54110Y-56494D01*
X57778Y-56318D02*
X57535Y-56086D01*
X57881Y-56420D02*
X57778Y-56318D01*
X57881Y-56493D02*
X57881Y-56420D01*
X57881Y-56591D02*
X57881Y-56493D01*
X57881Y-56693D02*
X57881Y-56591D01*
X58979Y-55605D02*
X58346Y-55311D01*
X59051Y-55605D02*
X58979Y-55605D01*
X59150Y-55605D02*
X59051Y-55605D01*
X59251Y-55605D02*
X59150Y-55605D01*
X58129Y-57070D02*
X57948Y-57070D01*
X59525Y-56557D02*
X58129Y-57070D01*
X59629Y-56453D02*
X59525Y-56557D01*
X59629Y-56307D02*
X59629Y-56453D01*
X59629Y-55957D02*
X59629Y-56307D01*
X59626Y-55708D02*
X59629Y-55957D01*
X59524Y-55605D02*
X59626Y-55708D01*
X59451Y-55605D02*
X59524Y-55605D01*
X59353Y-55605D02*
X59451Y-55605D01*
X59251Y-55605D02*
X59353Y-55605D01*
X59207Y-53417D02*
X59207Y-53315D01*
X59207Y-53515D02*
X59207Y-53417D01*
X59207Y-53587D02*
X59207Y-53515D01*
X59229Y-55357D02*
X59207Y-53587D01*
X59229Y-55430D02*
X59229Y-55357D01*
X59229Y-55528D02*
X59229Y-55430D01*
X59251Y-55605D02*
X59229Y-55528D01*
G54D41*
X58257Y-55315D02*
X58346Y-55311D01*
X58159Y-55315D02*
X58257Y-55315D01*
X58090Y-55246D02*
X58159Y-55315D01*
X58090Y-55197D02*
X58090Y-55246D01*
X58090Y-55157D02*
X58090Y-55197D01*
X57972Y-55138D02*
X58090Y-55157D01*
X58222Y-53544D02*
X58385Y-53496D01*
X58149Y-53564D02*
X58222Y-53544D01*
X57972Y-53564D02*
X58149Y-53564D01*
G54D40*
X53261Y-56972D02*
X54074Y-56976D01*
X52931Y-56945D02*
X53261Y-56972D01*
X52724Y-56737D02*
X52931Y-56945D01*
X52724Y-56443D02*
X52724Y-56737D01*
X53029Y-55860D02*
X52724Y-56443D01*
X53029Y-55786D02*
X53029Y-55860D01*
X53029Y-55688D02*
X53029Y-55786D01*
X53077Y-55511D02*
X53029Y-55688D01*
X53479Y-55310D02*
X54129Y-53303D01*
X53375Y-55414D02*
X53479Y-55310D01*
X53302Y-55414D02*
X53375Y-55414D01*
X53203Y-55414D02*
X53302Y-55414D01*
X53077Y-55511D02*
X53203Y-55414D01*
X62896Y-49503D02*
X62795Y-49503D01*
X62995Y-49503D02*
X62896Y-49503D01*
X63067Y-49503D02*
X62995Y-49503D01*
X63251Y-49586D02*
X63067Y-49503D01*
X55074Y-51294D02*
X55175Y-51294D01*
X54975Y-51294D02*
X55074Y-51294D01*
X54903Y-51294D02*
X54975Y-51294D01*
X54800Y-51396D02*
X54903Y-51294D01*
X54211Y-52874D02*
X54800Y-51396D01*
X54129Y-53303D02*
X54211Y-52874D01*
G54D41*
X57382Y-55905D02*
X57382Y-55728D01*
X57535Y-56086D02*
X57382Y-55905D01*
X54448Y-55138D02*
X54625Y-55138D01*
X54401Y-55401D02*
X54448Y-55138D01*
G54D40*
X57881Y-56794D02*
X57881Y-56693D01*
X57881Y-56893D02*
X57881Y-56794D01*
X57881Y-56965D02*
X57881Y-56893D01*
X57948Y-57070D02*
X57881Y-56965D01*
G54D41*
X55216Y-52205D02*
X55216Y-52382D01*
X55204Y-51968D02*
X55216Y-52205D01*
G54D40*
X54110Y-56697D02*
X54110Y-56595D01*
X54110Y-56795D02*
X54110Y-56697D01*
X54110Y-56868D02*
X54110Y-56795D01*
X54074Y-56976D02*
X54110Y-56868D01*
X56756Y-58090D02*
X56854Y-58267D01*
X56756Y-57992D02*
X56756Y-58090D01*
X56756Y-57918D02*
X56756Y-57992D01*
X56652Y-57814D02*
X56756Y-57918D01*
X54074Y-56976D02*
X56652Y-57814D01*
G54D41*
X47239Y-56164D02*
X47062Y-56133D01*
G54D40*
X47245Y-54152D02*
X47118Y-54250D01*
X47118Y-54250D02*
X47020Y-54250D01*
X47020Y-54250D02*
X46946Y-54250D01*
X46946Y-54250D02*
X46514Y-54645D01*
X46514Y-54645D02*
X46306Y-54853D01*
X46306Y-54853D02*
X46293Y-55185D01*
X46293Y-55185D02*
X46293Y-55775D01*
X46293Y-55775D02*
X46293Y-55922D01*
X46293Y-55922D02*
X46397Y-56026D01*
X46397Y-56026D02*
X47062Y-56133D01*
G54D41*
X47317Y-56292D02*
X47278Y-56164D01*
X47278Y-56164D02*
X47239Y-56164D01*
G54D40*
X47197Y-53976D02*
X47245Y-54152D01*
X47197Y-53877D02*
X47197Y-53976D01*
X47197Y-53804D02*
X47197Y-53877D01*
X47100Y-53194D02*
X47197Y-53804D01*
X47100Y-53152D02*
X47100Y-53194D01*
X47100Y-53054D02*
X47100Y-53152D01*
X47100Y-53002D02*
X47100Y-53054D01*
X47301Y-52330D02*
X47618Y-52409D01*
X47158Y-52252D02*
X47301Y-52330D01*
X47100Y-52194D02*
X47158Y-52252D01*
X47100Y-52152D02*
X47100Y-52194D01*
X47100Y-52054D02*
X47100Y-52152D01*
X47100Y-52002D02*
X47100Y-52054D01*
X53882Y-50764D02*
X53882Y-50866D01*
X53882Y-50666D02*
X53882Y-50764D01*
X53882Y-50593D02*
X53882Y-50666D01*
X54193Y-49904D02*
X53882Y-50593D01*
X54193Y-49831D02*
X54193Y-49904D01*
X54193Y-49732D02*
X54193Y-49831D01*
X54209Y-49606D02*
X54193Y-49732D01*
X54303Y-49606D02*
X54209Y-49606D01*
X54402Y-49606D02*
X54303Y-49606D01*
X54527Y-49606D02*
X54402Y-49606D01*
X52240Y-52667D02*
X52401Y-52712D01*
X52094Y-52667D02*
X52240Y-52667D01*
X51990Y-52770D02*
X52094Y-52667D01*
X51990Y-52844D02*
X51990Y-52770D01*
X51990Y-52942D02*
X51990Y-52844D01*
X51990Y-52982D02*
X51990Y-52942D01*
X52699Y-52982D02*
X52401Y-52712D01*
X52738Y-52982D02*
X52699Y-52982D01*
X56196Y-50514D02*
X56133Y-50283D01*
X56196Y-50587D02*
X56196Y-50514D01*
X56196Y-50685D02*
X56196Y-50587D01*
X56196Y-50787D02*
X56196Y-50685D01*
X53882Y-51673D02*
X53864Y-51850D01*
X53882Y-51575D02*
X53882Y-51673D01*
X53882Y-51066D02*
X53882Y-51575D01*
X53882Y-50967D02*
X53882Y-51066D01*
X53882Y-50866D02*
X53882Y-50967D01*
X63259Y-53658D02*
X61578Y-52893D01*
X63333Y-53658D02*
X63259Y-53658D01*
X63431Y-53658D02*
X63333Y-53658D01*
X63858Y-53781D02*
X63431Y-53658D01*
G54D41*
X61389Y-52999D02*
X61578Y-52893D01*
X61216Y-53172D02*
X61389Y-52999D01*
X60923Y-53627D02*
X61216Y-53172D01*
X60923Y-53790D02*
X60923Y-53627D01*
G54D40*
X61707Y-51479D02*
X61707Y-51377D01*
X61707Y-51577D02*
X61707Y-51479D01*
X61707Y-51650D02*
X61707Y-51577D01*
X61655Y-52013D02*
X61707Y-51650D01*
X61655Y-52087D02*
X61655Y-52013D01*
X61655Y-52185D02*
X61655Y-52087D01*
X61607Y-52362D02*
X61655Y-52185D01*
X47100Y-51951D02*
X47100Y-52002D01*
X47100Y-51852D02*
X47100Y-51951D01*
X47100Y-51811D02*
X47100Y-51852D01*
X47185Y-51236D02*
X47100Y-51811D01*
X47185Y-51163D02*
X47185Y-51236D01*
X47185Y-51065D02*
X47185Y-51163D01*
X47232Y-50888D02*
X47185Y-51065D01*
X53712Y-52302D02*
X53362Y-52649D01*
X53816Y-52198D02*
X53712Y-52302D01*
X53816Y-52125D02*
X53816Y-52198D01*
X53816Y-52026D02*
X53816Y-52125D01*
X53864Y-51850D02*
X53816Y-52026D01*
X61631Y-51355D02*
X61707Y-51377D01*
X61532Y-51355D02*
X61631Y-51355D01*
X61459Y-51355D02*
X61532Y-51355D01*
X58906Y-50082D02*
X61459Y-51355D01*
X57678Y-50079D02*
X58906Y-50082D01*
X56889Y-49606D02*
X57678Y-50079D01*
X56889Y-49606D02*
X56133Y-50283D01*
X47184Y-50711D02*
X47232Y-50888D01*
X47184Y-50613D02*
X47184Y-50711D01*
X47184Y-50540D02*
X47184Y-50613D01*
X46845Y-49589D02*
X47184Y-50540D01*
X55340Y-50058D02*
X54527Y-49606D01*
X56133Y-50283D02*
X55340Y-50058D01*
X53428Y-52921D02*
X53476Y-53016D01*
X53428Y-52823D02*
X53428Y-52921D01*
X53362Y-52649D02*
X53428Y-52823D01*
X52646Y-52666D02*
X52401Y-52712D01*
X53177Y-52645D02*
X52646Y-52666D01*
X53324Y-52645D02*
X53177Y-52645D01*
X53362Y-52649D02*
X53324Y-52645D01*
X61578Y-52538D02*
X61607Y-52362D01*
X61578Y-52637D02*
X61578Y-52538D01*
X61578Y-52893D02*
X61578Y-52637D01*
X53350Y-49676D02*
X53527Y-49606D01*
X53252Y-49676D02*
X53350Y-49676D01*
X52544Y-49676D02*
X53252Y-49676D01*
X52446Y-49676D02*
X52544Y-49676D01*
X51954Y-49746D02*
X52446Y-49676D01*
X53650Y-49606D02*
X53745Y-49606D01*
X53552Y-49606D02*
X53650Y-49606D01*
X53527Y-49606D02*
X53552Y-49606D01*
G54D41*
X58296Y-53279D02*
X58659Y-52953D01*
X58222Y-53347D02*
X58296Y-53279D01*
X58149Y-53367D02*
X58222Y-53347D01*
X57972Y-53367D02*
X58149Y-53367D01*
X48068Y-51901D02*
X48259Y-51574D01*
X47999Y-51970D02*
X48068Y-51901D01*
X47950Y-51970D02*
X47999Y-51970D01*
X47910Y-51970D02*
X47950Y-51970D01*
X47850Y-52002D02*
X47910Y-51970D01*
X56612Y-52131D02*
X56681Y-51889D01*
X56593Y-52205D02*
X56612Y-52131D01*
X56593Y-52382D02*
X56593Y-52205D01*
X58147Y-52027D02*
X58282Y-52007D01*
X58107Y-52027D02*
X58147Y-52027D01*
X57306Y-52027D02*
X58107Y-52027D01*
X57202Y-52131D02*
X57306Y-52027D01*
X57184Y-52205D02*
X57202Y-52131D01*
X57184Y-52382D02*
X57184Y-52205D01*
X54979Y-54276D02*
X55228Y-54704D01*
X54875Y-54172D02*
X54979Y-54276D01*
X54802Y-54154D02*
X54875Y-54172D01*
X54625Y-54154D02*
X54802Y-54154D01*
X55235Y-55978D02*
X55366Y-56460D01*
X55216Y-55905D02*
X55235Y-55978D01*
X55216Y-55728D02*
X55216Y-55905D01*
X54309Y-54803D02*
X53964Y-55114D01*
X54374Y-54763D02*
X54309Y-54803D01*
X54448Y-54744D02*
X54374Y-54763D01*
X54625Y-54744D02*
X54448Y-54744D01*
X55350Y-54409D02*
X55767Y-54822D01*
X54940Y-54015D02*
X55350Y-54409D01*
X54875Y-53976D02*
X54940Y-54015D01*
X54802Y-53957D02*
X54875Y-53976D01*
X54625Y-53957D02*
X54802Y-53957D01*
G54D40*
X58402Y-51363D02*
X58370Y-50787D01*
X57480Y-51574D02*
X58402Y-51363D01*
X60039Y-49409D02*
X60401Y-50090D01*
X62679Y-51378D02*
X62307Y-51377D01*
X63188Y-50787D02*
X62679Y-51378D01*
X60080Y-56234D02*
X60039Y-57086D01*
X60236Y-55511D02*
X60080Y-56234D01*
X60039Y-57086D02*
X60212Y-58267D01*
X59055Y-57480D02*
X60039Y-57086D01*
X56692Y-54724D02*
X57452Y-55236D01*
X55708Y-53937D02*
X56889Y-53740D01*
X56692Y-54724D02*
X55708Y-53937D01*
X57204Y-56670D02*
X57281Y-56693D01*
X57106Y-56670D02*
X57204Y-56670D01*
X57032Y-56670D02*
X57106Y-56670D01*
X56928Y-56566D02*
X57032Y-56670D01*
X56781Y-56272D02*
X56928Y-56566D01*
X56299Y-56889D02*
X56781Y-56272D01*
X55081Y-55059D02*
X55039Y-55019D01*
X55290Y-55111D02*
X55081Y-55059D01*
X54868Y-55536D02*
X55290Y-55111D01*
X54724Y-56102D02*
X54868Y-55536D01*
X53666Y-57814D02*
X53169Y-57901D01*
X54041Y-57814D02*
X53666Y-57814D01*
X54330Y-57480D02*
X54041Y-57814D01*
X53169Y-57901D02*
X51964Y-58110D01*
X53149Y-57480D02*
X53169Y-57901D01*
X52150Y-55609D02*
X52277Y-55511D01*
X52052Y-55609D02*
X52150Y-55609D01*
X51978Y-55609D02*
X52052Y-55609D01*
X50967Y-55895D02*
X51978Y-55609D01*
X50984Y-57086D02*
X50967Y-55895D01*
X50984Y-53937D02*
X50787Y-55314D01*
X49409Y-54133D02*
X50984Y-53937D01*
X49409Y-54133D02*
X48045Y-54152D01*
X50590Y-52165D02*
X51968Y-50984D01*
X50787Y-50393D02*
X50590Y-52165D01*
X49212Y-50984D02*
X50787Y-50393D01*
X50000Y-49409D02*
X49212Y-50984D01*
X48813Y-49589D02*
X50000Y-49409D01*
X45866Y-50984D02*
X45866Y-49606D01*
X45866Y-52559D02*
X45866Y-50984D01*
X45866Y-54133D02*
X45937Y-55671D01*
X45866Y-54133D02*
X45866Y-52559D01*
X55553Y-51542D02*
X55484Y-51905D01*
X55708Y-51377D02*
X55553Y-51542D01*
X45802Y-56813D02*
X45802Y-56419D01*
X45802Y-56912D02*
X45802Y-56813D01*
X45802Y-57581D02*
X45802Y-56912D01*
X45802Y-57679D02*
X45802Y-57581D01*
X45802Y-58073D02*
X45802Y-57679D01*
X50152Y-58110D02*
X51964Y-58110D01*
X50053Y-58110D02*
X50152Y-58110D01*
X49857Y-58073D02*
X50053Y-58110D01*
X45920Y-55854D02*
X45937Y-55671D01*
X45920Y-55927D02*
X45920Y-55854D01*
X45920Y-56026D02*
X45920Y-55927D01*
X45802Y-56419D02*
X45920Y-56026D01*
X49857Y-57679D02*
X49857Y-58073D01*
X49857Y-57581D02*
X49857Y-57679D01*
X49857Y-56912D02*
X49857Y-57581D01*
X49857Y-56813D02*
X49857Y-56912D01*
X49857Y-56419D02*
X49857Y-56813D01*
X50225Y-56105D02*
X50967Y-55895D01*
X50152Y-56105D02*
X50225Y-56105D01*
X50053Y-56105D02*
X50152Y-56105D01*
X49857Y-56419D02*
X50053Y-56105D01*
X48302Y-55553D02*
X48695Y-55553D01*
X48203Y-55553D02*
X48302Y-55553D01*
X47455Y-55553D02*
X48203Y-55553D01*
X47357Y-55553D02*
X47455Y-55553D01*
X46963Y-55553D02*
X47357Y-55553D01*
X48724Y-55849D02*
X48724Y-56027D01*
X48724Y-55750D02*
X48724Y-55849D01*
X48695Y-55553D02*
X48724Y-55750D01*
G54D41*
X48302Y-56292D02*
X48341Y-56292D01*
X48262Y-56292D02*
X48302Y-56292D01*
X48164Y-56292D02*
X48262Y-56292D01*
X48124Y-56292D02*
X48164Y-56292D01*
X48085Y-56292D02*
X48124Y-56292D01*
X48469Y-56164D02*
X48724Y-56027D01*
X48420Y-56164D02*
X48469Y-56164D01*
X48380Y-56164D02*
X48420Y-56164D01*
X48341Y-56292D02*
X48380Y-56164D01*
G54D40*
X52229Y-55688D02*
X52277Y-55511D01*
X52229Y-55786D02*
X52229Y-55688D01*
X52229Y-55860D02*
X52229Y-55786D01*
X51964Y-58110D02*
X52229Y-55860D01*
X54854Y-58267D02*
X54041Y-57814D01*
X62163Y-58129D02*
X62211Y-57952D01*
X62163Y-58227D02*
X62163Y-58129D01*
X62163Y-58301D02*
X62163Y-58227D01*
X62059Y-58405D02*
X62163Y-58301D01*
X61912Y-58405D02*
X62059Y-58405D01*
X61112Y-58405D02*
X61912Y-58405D01*
X60212Y-58267D02*
X61112Y-58405D01*
X52937Y-51948D02*
X53064Y-51850D01*
X52839Y-51948D02*
X52937Y-51948D01*
X51979Y-52391D02*
X52839Y-51948D01*
X51714Y-52656D02*
X51979Y-52391D01*
X51636Y-52770D02*
X51714Y-52656D01*
X51636Y-53046D02*
X51636Y-52770D01*
X51636Y-53193D02*
X51636Y-53046D01*
X51740Y-53297D02*
X51636Y-53193D01*
X51951Y-53494D02*
X51740Y-53297D01*
X51990Y-53494D02*
X51951Y-53494D01*
X52495Y-54307D02*
X52495Y-54409D01*
X52495Y-54209D02*
X52495Y-54307D01*
X52495Y-54136D02*
X52495Y-54209D01*
X52029Y-53494D02*
X52495Y-54136D01*
X51990Y-53494D02*
X52029Y-53494D01*
X48171Y-54055D02*
X48045Y-54152D01*
X48270Y-54055D02*
X48171Y-54055D01*
X48343Y-54055D02*
X48270Y-54055D01*
X48447Y-53951D02*
X48343Y-54055D01*
X49112Y-53208D02*
X48447Y-53951D01*
X49112Y-53061D02*
X49112Y-53208D01*
X49112Y-52711D02*
X49112Y-53061D01*
X49110Y-52462D02*
X49112Y-52711D01*
X49007Y-52360D02*
X49110Y-52462D01*
X48935Y-52360D02*
X49007Y-52360D01*
X48836Y-52360D02*
X48935Y-52360D01*
X48735Y-52360D02*
X48836Y-52360D01*
X48159Y-50986D02*
X48032Y-50888D01*
X48257Y-50986D02*
X48159Y-50986D01*
X48331Y-50986D02*
X48257Y-50986D01*
X48434Y-51090D02*
X48331Y-50986D01*
X48614Y-51427D02*
X48434Y-51090D01*
X48712Y-52111D02*
X48614Y-51427D01*
X48712Y-52185D02*
X48712Y-52111D01*
X48712Y-52283D02*
X48712Y-52185D01*
X48735Y-52360D02*
X48712Y-52283D01*
X61906Y-49503D02*
X62007Y-49503D01*
X61807Y-49503D02*
X61906Y-49503D01*
X61420Y-49503D02*
X61807Y-49503D01*
X61322Y-49503D02*
X61420Y-49503D01*
X61220Y-49503D02*
X61322Y-49503D01*
X60409Y-49939D02*
X60401Y-50090D01*
X60616Y-49732D02*
X60409Y-49939D01*
X60947Y-49503D02*
X60616Y-49732D01*
X61020Y-49503D02*
X60947Y-49503D01*
X61118Y-49503D02*
X61020Y-49503D01*
X61220Y-49503D02*
X61118Y-49503D01*
X58723Y-50660D02*
X58759Y-50437D01*
X58619Y-50764D02*
X58723Y-50660D01*
X58545Y-50764D02*
X58619Y-50764D01*
X58447Y-50764D02*
X58545Y-50764D01*
X58370Y-50787D02*
X58447Y-50764D01*
X60409Y-50233D02*
X60401Y-50090D01*
X60616Y-50441D02*
X60409Y-50233D01*
X62205Y-51002D02*
X60616Y-50441D01*
X62307Y-51105D02*
X62205Y-51002D01*
X62307Y-51177D02*
X62307Y-51105D01*
X62307Y-51276D02*
X62307Y-51177D01*
X62307Y-51377D02*
X62307Y-51276D01*
X59807Y-53587D02*
X59748Y-53771D01*
X59807Y-53515D02*
X59807Y-53587D01*
X59807Y-53417D02*
X59807Y-53515D01*
X59807Y-53315D02*
X59807Y-53417D01*
X52324Y-55335D02*
X52277Y-55511D01*
X52324Y-55236D02*
X52324Y-55335D01*
X52324Y-55163D02*
X52324Y-55236D01*
X52495Y-54681D02*
X52324Y-55163D01*
X52495Y-54609D02*
X52495Y-54681D01*
X52495Y-54511D02*
X52495Y-54609D01*
X52495Y-54409D02*
X52495Y-54511D01*
X53034Y-50843D02*
X52850Y-50748D01*
X53107Y-50843D02*
X53034Y-50843D01*
X53206Y-50843D02*
X53107Y-50843D01*
X53282Y-50866D02*
X53206Y-50843D01*
X53112Y-51673D02*
X53064Y-51850D01*
X53112Y-51575D02*
X53112Y-51673D01*
X53112Y-51501D02*
X53112Y-51575D01*
X53282Y-51138D02*
X53112Y-51501D01*
X53282Y-51066D02*
X53282Y-51138D01*
X53282Y-50967D02*
X53282Y-51066D01*
X53282Y-50866D02*
X53282Y-50967D01*
X55553Y-51045D02*
X55708Y-51377D01*
X55550Y-50796D02*
X55553Y-51045D01*
X55448Y-50694D02*
X55550Y-50796D01*
X55375Y-50694D02*
X55448Y-50694D01*
X55277Y-50694D02*
X55375Y-50694D01*
X55175Y-50694D02*
X55277Y-50694D01*
X53510Y-56323D02*
X54102Y-55472D01*
X53510Y-56395D02*
X53510Y-56323D01*
X53510Y-56494D02*
X53510Y-56395D01*
X53510Y-56595D02*
X53510Y-56494D01*
X53335Y-56590D02*
X53078Y-56590D01*
X53433Y-56590D02*
X53335Y-56590D01*
X53510Y-56595D02*
X53433Y-56590D01*
G54D41*
X58149Y-53760D02*
X58661Y-53771D01*
X57972Y-53760D02*
X58149Y-53760D01*
X57617Y-53883D02*
X57468Y-54059D01*
X57721Y-53779D02*
X57617Y-53883D01*
X57795Y-53760D02*
X57721Y-53779D01*
X57972Y-53760D02*
X57795Y-53760D01*
X55413Y-52205D02*
X55484Y-51905D01*
X55413Y-52382D02*
X55413Y-52205D01*
X54875Y-54960D02*
X55039Y-55019D01*
X54802Y-54941D02*
X54875Y-54960D01*
X54625Y-54941D02*
X54802Y-54941D01*
X54184Y-55311D02*
X54102Y-55472D01*
X54260Y-55236D02*
X54184Y-55311D01*
X54270Y-55064D02*
X54260Y-55236D01*
X54374Y-54960D02*
X54270Y-55064D01*
X54448Y-54941D02*
X54374Y-54960D01*
X54625Y-54941D02*
X54448Y-54941D01*
X56613Y-55978D02*
X56716Y-56141D01*
X56594Y-55905D02*
X56613Y-55978D01*
X56594Y-55728D02*
X56594Y-55905D01*
X56470Y-55373D02*
X56102Y-55314D01*
X56574Y-55477D02*
X56470Y-55373D01*
X56594Y-55551D02*
X56574Y-55477D01*
X56594Y-55728D02*
X56594Y-55551D01*
X57185Y-55905D02*
X57224Y-56141D01*
X57185Y-55728D02*
X57185Y-55905D01*
X60923Y-54735D02*
X60894Y-54617D01*
X60923Y-54775D02*
X60923Y-54735D01*
X60923Y-54965D02*
X60923Y-54775D01*
X60923Y-55129D02*
X60923Y-54965D01*
G54D40*
X62462Y-54637D02*
X62564Y-54637D01*
X62364Y-54637D02*
X62462Y-54637D01*
X62291Y-54637D02*
X62364Y-54637D01*
X61746Y-54617D02*
X62291Y-54637D01*
X61681Y-54617D02*
X61746Y-54617D01*
X61583Y-54617D02*
X61681Y-54617D01*
X61524Y-54617D02*
X61583Y-54617D01*
X62509Y-57854D02*
X64488Y-57322D01*
X62436Y-57854D02*
X62509Y-57854D01*
X62337Y-57854D02*
X62436Y-57854D01*
X62211Y-57952D02*
X62337Y-57854D01*
X62706Y-52460D02*
X63740Y-53224D01*
X62632Y-52460D02*
X62706Y-52460D01*
X62534Y-52460D02*
X62632Y-52460D01*
X62407Y-52362D02*
X62534Y-52460D01*
X62307Y-51479D02*
X62307Y-51377D01*
X62307Y-51577D02*
X62307Y-51479D01*
X62307Y-51650D02*
X62307Y-51577D01*
X62360Y-52013D02*
X62307Y-51650D01*
X62360Y-52087D02*
X62360Y-52013D01*
X62360Y-52185D02*
X62360Y-52087D01*
X62407Y-52362D02*
X62360Y-52185D01*
X48380Y-55356D02*
X48695Y-55553D01*
X48380Y-55258D02*
X48380Y-55356D01*
X48380Y-55185D02*
X48380Y-55258D01*
X48092Y-54501D02*
X48380Y-55185D01*
X48092Y-54427D02*
X48092Y-54501D01*
X48092Y-54329D02*
X48092Y-54427D01*
X48045Y-54152D02*
X48092Y-54329D01*
X47475Y-51951D02*
X47475Y-52002D01*
X47475Y-51852D02*
X47475Y-51951D01*
X47475Y-51811D02*
X47475Y-51852D01*
X47985Y-51236D02*
X47475Y-51811D01*
X47985Y-51163D02*
X47985Y-51236D01*
X47985Y-51065D02*
X47985Y-51163D01*
X48032Y-50888D02*
X47985Y-51065D01*
X48080Y-50711D02*
X48032Y-50888D01*
X48080Y-50613D02*
X48080Y-50711D01*
X48080Y-50540D02*
X48080Y-50613D01*
X48813Y-49589D02*
X48080Y-50540D01*
X58858Y-49606D02*
X60401Y-50090D01*
X64740Y-52263D02*
X63740Y-53224D01*
X60520Y-54302D02*
X60579Y-54302D01*
X60421Y-54302D02*
X60520Y-54302D01*
X60356Y-54302D02*
X60421Y-54302D01*
X59748Y-53771D02*
X60356Y-54302D01*
X55074Y-50694D02*
X55175Y-50694D01*
X54975Y-50694D02*
X55074Y-50694D01*
X54903Y-50694D02*
X54975Y-50694D01*
X54535Y-50704D02*
X54903Y-50694D01*
X46661Y-55356D02*
X46963Y-55553D01*
X46661Y-55258D02*
X46661Y-55356D01*
X46661Y-55000D02*
X46661Y-55258D01*
G54D41*
X57185Y-55551D02*
X57185Y-55728D01*
X57204Y-55477D02*
X57185Y-55551D01*
X57308Y-55373D02*
X57204Y-55477D01*
X57452Y-55236D02*
X57308Y-55373D01*
G54D40*
X59150Y-56205D02*
X59251Y-56205D01*
X59051Y-56205D02*
X59150Y-56205D01*
X58979Y-56205D02*
X59051Y-56205D01*
X58795Y-56295D02*
X58979Y-56205D01*
X56102Y-55314D02*
X55290Y-55111D01*
X56102Y-55314D02*
X56102Y-55314D01*
X49660Y-56105D02*
X49857Y-56419D01*
X49561Y-56105D02*
X49660Y-56105D01*
X49488Y-56105D02*
X49561Y-56105D01*
X48724Y-56027D02*
X49488Y-56105D01*
X56716Y-56141D02*
X56781Y-56272D01*
X57281Y-56591D02*
X57281Y-56693D01*
X57281Y-56493D02*
X57281Y-56591D01*
X57281Y-56420D02*
X57281Y-56493D01*
X57224Y-56141D02*
X57281Y-56420D01*
X57452Y-55236D02*
X57468Y-54059D01*
G54D41*
X60667Y-53627D02*
X60667Y-53790D01*
X60317Y-52295D02*
X60667Y-53627D01*
X60317Y-52246D02*
X60317Y-52295D01*
X60317Y-52207D02*
X60317Y-52246D01*
X60236Y-52071D02*
X60317Y-52207D01*
X60075Y-52039D02*
X60236Y-52071D01*
X60036Y-52039D02*
X60075Y-52039D01*
X59057Y-52039D02*
X60036Y-52039D01*
X59018Y-52039D02*
X59057Y-52039D01*
X58882Y-52007D02*
X59018Y-52039D01*
X61313Y-53436D02*
X61511Y-53295D01*
X61244Y-53505D02*
X61313Y-53436D01*
X61179Y-53627D02*
X61244Y-53505D01*
X61179Y-53790D02*
X61179Y-53627D01*
X60396Y-51528D02*
X60236Y-51471D01*
X60436Y-51528D02*
X60396Y-51528D01*
X60485Y-51528D02*
X60436Y-51528D01*
X60554Y-51597D02*
X60485Y-51528D01*
X61125Y-52673D02*
X60554Y-51597D01*
X62482Y-53901D02*
X62564Y-54037D01*
X62482Y-53862D02*
X62482Y-53901D01*
X62482Y-53813D02*
X62482Y-53862D01*
X62413Y-53744D02*
X62482Y-53813D01*
X61890Y-53365D02*
X62413Y-53744D01*
X61511Y-53295D02*
X61890Y-53365D01*
X57617Y-53293D02*
X57480Y-53440D01*
X57721Y-53189D02*
X57617Y-53293D01*
X57795Y-53170D02*
X57721Y-53189D01*
X57972Y-53170D02*
X57795Y-53170D01*
X60667Y-54965D02*
X60667Y-55129D01*
X60372Y-54893D02*
X60667Y-54965D01*
X59972Y-54665D02*
X60372Y-54893D01*
X61557Y-53672D02*
X61767Y-53661D01*
X61508Y-53672D02*
X61557Y-53672D01*
X61468Y-53672D02*
X61508Y-53672D01*
X61435Y-53790D02*
X61468Y-53672D01*
G54D40*
X61458Y-57776D02*
X61411Y-57952D01*
X61458Y-57677D02*
X61458Y-57776D01*
X61458Y-57604D02*
X61458Y-57677D01*
X61562Y-57500D02*
X61458Y-57604D01*
X62791Y-57027D02*
X61562Y-57500D01*
X63794Y-56095D02*
X62791Y-57027D01*
X65152Y-55283D02*
X63794Y-56095D01*
X65256Y-55179D02*
X65152Y-55283D01*
X65256Y-55105D02*
X65256Y-55179D01*
X65256Y-55007D02*
X65256Y-55105D01*
X65354Y-54830D02*
X65256Y-55007D01*
G54D41*
X61179Y-55292D02*
X61122Y-55645D01*
X61179Y-55129D02*
X61179Y-55292D01*
G54D40*
X61284Y-57855D02*
X61411Y-57952D01*
X61186Y-57855D02*
X61284Y-57855D01*
X61112Y-57855D02*
X61186Y-57855D01*
X61008Y-57751D02*
X61112Y-57855D01*
X61008Y-56850D02*
X61008Y-57751D01*
X61008Y-56752D02*
X61008Y-56850D01*
X60824Y-56496D02*
X61008Y-56752D01*
X61041Y-56240D02*
X60824Y-56496D01*
X61041Y-56141D02*
X61041Y-56240D01*
X61041Y-56068D02*
X61041Y-56141D01*
X61122Y-55645D02*
X61041Y-56068D01*
G54D41*
X61435Y-55292D02*
X62196Y-55732D01*
X61435Y-55129D02*
X61435Y-55292D01*
G54D40*
X63431Y-55104D02*
X63858Y-54981D01*
X63333Y-55104D02*
X63431Y-55104D01*
X63259Y-55104D02*
X63333Y-55104D01*
X62196Y-55732D02*
X63259Y-55104D01*
X62196Y-56240D02*
X62324Y-56496D01*
X62196Y-56141D02*
X62196Y-56240D01*
X62196Y-55732D02*
X62196Y-56141D01*
G54D41*
X61847Y-50103D02*
X62007Y-50103D01*
X61807Y-50103D02*
X61847Y-50103D01*
X61420Y-50103D02*
X61807Y-50103D01*
X61381Y-50103D02*
X61420Y-50103D01*
X61220Y-50103D02*
X61381Y-50103D01*
X62634Y-50103D02*
X62795Y-50103D01*
X62595Y-50103D02*
X62634Y-50103D01*
X62207Y-50103D02*
X62595Y-50103D01*
X62168Y-50103D02*
X62207Y-50103D01*
X62007Y-50103D02*
X62168Y-50103D01*
X56322Y-52736D02*
X56468Y-52874D01*
X56218Y-52632D02*
X56322Y-52736D01*
X56199Y-52559D02*
X56218Y-52632D01*
X56199Y-52382D02*
X56199Y-52559D01*
X61059Y-50086D02*
X61220Y-50103D01*
X61020Y-50086D02*
X61059Y-50086D01*
X60763Y-50086D02*
X61020Y-50086D01*
X58222Y-53976D02*
X58725Y-54473D01*
X58149Y-53957D02*
X58222Y-53976D01*
X57972Y-53957D02*
X58149Y-53957D01*
X57089Y-50938D02*
X57090Y-50996D01*
X57020Y-50869D02*
X57089Y-50938D01*
X56971Y-50869D02*
X57020Y-50869D01*
X56931Y-50869D02*
X56971Y-50869D01*
X56796Y-50787D02*
X56931Y-50869D01*
X57089Y-51036D02*
X57090Y-50996D01*
X56385Y-51767D02*
X57089Y-51036D01*
X56385Y-52012D02*
X56385Y-51767D01*
X56396Y-52205D02*
X56385Y-52012D01*
X56396Y-52382D02*
X56396Y-52205D01*
X57635Y-50869D02*
X57770Y-50787D01*
X57595Y-50869D02*
X57635Y-50869D01*
X57546Y-50869D02*
X57595Y-50869D01*
X57090Y-50996D02*
X57546Y-50869D01*
X48574Y-52981D02*
X48735Y-52960D01*
X48535Y-52981D02*
X48574Y-52981D01*
X47950Y-52981D02*
X48535Y-52981D01*
X47910Y-52981D02*
X47950Y-52981D01*
X47850Y-53002D02*
X47910Y-52981D01*
G54D10*
G36*
X54153Y-55386D02*
X54135Y-55529D01*
X53877Y-56238D01*
X53874Y-56259D01*
X53850Y-56269D01*
X53823Y-56296D01*
X53780Y-56253D01*
X53718Y-56228D01*
X53602Y-56228D01*
X53561Y-56270D01*
X53561Y-56544D01*
X53569Y-56544D01*
X53569Y-56646D01*
X53561Y-56646D01*
X53561Y-56654D01*
X53459Y-56654D01*
X53459Y-56646D01*
X53459Y-56544D01*
X53459Y-56270D01*
X53417Y-56228D01*
X53302Y-56228D01*
X53240Y-56253D01*
X53193Y-56300D01*
X53168Y-56362D01*
X53168Y-56428D01*
X53168Y-56503D01*
X53209Y-56544D01*
X53459Y-56544D01*
X53459Y-56646D01*
X53209Y-56646D01*
X53168Y-56688D01*
X53168Y-56716D01*
X53042Y-56705D01*
X52971Y-56634D01*
X52971Y-56504D01*
X53248Y-55974D01*
X53251Y-55965D01*
X53258Y-55955D01*
X53262Y-55936D01*
X53331Y-55936D01*
X53386Y-55913D01*
X53428Y-55871D01*
X53451Y-55816D01*
X53451Y-55757D01*
X53451Y-55646D01*
X53470Y-55642D01*
X53550Y-55589D01*
X53654Y-55485D01*
X53660Y-55477D01*
X53667Y-55471D01*
X53686Y-55437D01*
X53708Y-55405D01*
X53710Y-55395D01*
X53715Y-55386D01*
X53729Y-55341D01*
X53779Y-55390D01*
X53899Y-55440D01*
X54029Y-55440D01*
X54149Y-55391D01*
X54153Y-55386D01*
X54153Y-55386D01*
G37*
G54D42*
X54153Y-55386D02*
X54135Y-55529D01*
X53877Y-56238D01*
X53874Y-56259D01*
X53850Y-56269D01*
X53823Y-56296D01*
X53780Y-56253D01*
X53718Y-56228D01*
X53602Y-56228D01*
X53561Y-56270D01*
X53561Y-56544D01*
X53569Y-56544D01*
X53569Y-56646D01*
X53561Y-56646D01*
X53561Y-56654D01*
X53459Y-56654D01*
X53459Y-56646D01*
X53459Y-56544D01*
X53459Y-56270D01*
X53417Y-56228D01*
X53302Y-56228D01*
X53240Y-56253D01*
X53193Y-56300D01*
X53168Y-56362D01*
X53168Y-56428D01*
X53168Y-56503D01*
X53209Y-56544D01*
X53459Y-56544D01*
X53459Y-56646D01*
X53209Y-56646D01*
X53168Y-56688D01*
X53168Y-56716D01*
X53042Y-56705D01*
X52971Y-56634D01*
X52971Y-56504D01*
X53248Y-55974D01*
X53251Y-55965D01*
X53258Y-55955D01*
X53262Y-55936D01*
X53331Y-55936D01*
X53386Y-55913D01*
X53428Y-55871D01*
X53451Y-55816D01*
X53451Y-55757D01*
X53451Y-55646D01*
X53470Y-55642D01*
X53550Y-55589D01*
X53654Y-55485D01*
X53660Y-55477D01*
X53667Y-55471D01*
X53686Y-55437D01*
X53708Y-55405D01*
X53710Y-55395D01*
X53715Y-55386D01*
X53729Y-55341D01*
X53779Y-55390D01*
X53899Y-55440D01*
X54029Y-55440D01*
X54149Y-55391D01*
X54153Y-55386D01*
G54D10*
G36*
X56730Y-51136D02*
X56249Y-51636D01*
X56230Y-51666D01*
X56211Y-51695D01*
X56211Y-51697D01*
X56210Y-51698D01*
X56203Y-51733D01*
X56197Y-51767D01*
X56197Y-51989D01*
X56119Y-52005D01*
X56101Y-52017D01*
X56082Y-52005D01*
X56003Y-51989D01*
X55923Y-52005D01*
X55904Y-52017D01*
X55885Y-52005D01*
X55806Y-51989D01*
X55726Y-52005D01*
X55707Y-52017D01*
X55688Y-52005D01*
X55609Y-51989D01*
X55529Y-52005D01*
X55528Y-52006D01*
X55477Y-51988D01*
X55464Y-52001D01*
X55464Y-51978D01*
X55449Y-51978D01*
X55452Y-51965D01*
X55447Y-51601D01*
X55460Y-51595D01*
X55502Y-51553D01*
X55525Y-51499D01*
X55525Y-51439D01*
X55525Y-51089D01*
X55502Y-51034D01*
X55474Y-51007D01*
X55517Y-50963D01*
X55543Y-50902D01*
X55543Y-50486D01*
X55517Y-50424D01*
X55470Y-50377D01*
X55409Y-50351D01*
X55342Y-50351D01*
X55268Y-50351D01*
X55226Y-50393D01*
X55226Y-50643D01*
X55501Y-50643D01*
X55543Y-50601D01*
X55543Y-50486D01*
X55543Y-50902D01*
X55543Y-50786D01*
X55501Y-50745D01*
X55226Y-50745D01*
X55226Y-50752D01*
X55125Y-50752D01*
X55125Y-50745D01*
X55125Y-50643D01*
X55125Y-50393D01*
X55083Y-50351D01*
X55009Y-50351D01*
X54942Y-50351D01*
X54881Y-50377D01*
X54834Y-50424D01*
X54808Y-50486D01*
X54808Y-50601D01*
X54850Y-50643D01*
X55125Y-50643D01*
X55125Y-50745D01*
X54850Y-50745D01*
X54808Y-50786D01*
X54808Y-50902D01*
X54834Y-50963D01*
X54877Y-51007D01*
X54849Y-51034D01*
X54839Y-51059D01*
X54808Y-51065D01*
X54728Y-51119D01*
X54626Y-51220D01*
X54622Y-51223D01*
X54569Y-51304D01*
X54238Y-52136D01*
X54238Y-52095D01*
X54238Y-51545D01*
X54216Y-51490D01*
X54174Y-51448D01*
X54130Y-51430D01*
X54130Y-51197D01*
X54142Y-51192D01*
X54184Y-51150D01*
X54206Y-51095D01*
X54206Y-51036D01*
X54206Y-50636D01*
X54184Y-50581D01*
X54167Y-50564D01*
X54414Y-50018D01*
X54442Y-50030D01*
X54611Y-50030D01*
X54708Y-49990D01*
X55219Y-50274D01*
X55246Y-50283D01*
X55272Y-50296D01*
X55917Y-50479D01*
X55894Y-50502D01*
X55871Y-50557D01*
X55871Y-50616D01*
X55871Y-51016D01*
X55894Y-51071D01*
X55936Y-51113D01*
X55991Y-51136D01*
X56050Y-51136D01*
X56400Y-51136D01*
X56455Y-51113D01*
X56496Y-51073D01*
X56536Y-51113D01*
X56591Y-51136D01*
X56650Y-51136D01*
X56730Y-51136D01*
X56730Y-51136D01*
G37*
G54D42*
X56730Y-51136D02*
X56249Y-51636D01*
X56230Y-51666D01*
X56211Y-51695D01*
X56211Y-51697D01*
X56210Y-51698D01*
X56203Y-51733D01*
X56197Y-51767D01*
X56197Y-51989D01*
X56119Y-52005D01*
X56101Y-52017D01*
X56082Y-52005D01*
X56003Y-51989D01*
X55923Y-52005D01*
X55904Y-52017D01*
X55885Y-52005D01*
X55806Y-51989D01*
X55726Y-52005D01*
X55707Y-52017D01*
X55688Y-52005D01*
X55609Y-51989D01*
X55529Y-52005D01*
X55528Y-52006D01*
X55477Y-51988D01*
X55464Y-52001D01*
X55464Y-51978D01*
X55449Y-51978D01*
X55452Y-51965D01*
X55447Y-51601D01*
X55460Y-51595D01*
X55502Y-51553D01*
X55525Y-51499D01*
X55525Y-51439D01*
X55525Y-51089D01*
X55502Y-51034D01*
X55474Y-51007D01*
X55517Y-50963D01*
X55543Y-50902D01*
X55543Y-50486D01*
X55517Y-50424D01*
X55470Y-50377D01*
X55409Y-50351D01*
X55342Y-50351D01*
X55268Y-50351D01*
X55226Y-50393D01*
X55226Y-50643D01*
X55501Y-50643D01*
X55543Y-50601D01*
X55543Y-50486D01*
X55543Y-50902D01*
X55543Y-50786D01*
X55501Y-50745D01*
X55226Y-50745D01*
X55226Y-50752D01*
X55125Y-50752D01*
X55125Y-50745D01*
X55125Y-50643D01*
X55125Y-50393D01*
X55083Y-50351D01*
X55009Y-50351D01*
X54942Y-50351D01*
X54881Y-50377D01*
X54834Y-50424D01*
X54808Y-50486D01*
X54808Y-50601D01*
X54850Y-50643D01*
X55125Y-50643D01*
X55125Y-50745D01*
X54850Y-50745D01*
X54808Y-50786D01*
X54808Y-50902D01*
X54834Y-50963D01*
X54877Y-51007D01*
X54849Y-51034D01*
X54839Y-51059D01*
X54808Y-51065D01*
X54728Y-51119D01*
X54626Y-51220D01*
X54622Y-51223D01*
X54569Y-51304D01*
X54238Y-52136D01*
X54238Y-52095D01*
X54238Y-51545D01*
X54216Y-51490D01*
X54174Y-51448D01*
X54130Y-51430D01*
X54130Y-51197D01*
X54142Y-51192D01*
X54184Y-51150D01*
X54206Y-51095D01*
X54206Y-51036D01*
X54206Y-50636D01*
X54184Y-50581D01*
X54167Y-50564D01*
X54414Y-50018D01*
X54442Y-50030D01*
X54611Y-50030D01*
X54708Y-49990D01*
X55219Y-50274D01*
X55246Y-50283D01*
X55272Y-50296D01*
X55917Y-50479D01*
X55894Y-50502D01*
X55871Y-50557D01*
X55871Y-50616D01*
X55871Y-51016D01*
X55894Y-51071D01*
X55936Y-51113D01*
X55991Y-51136D01*
X56050Y-51136D01*
X56400Y-51136D01*
X56455Y-51113D01*
X56496Y-51073D01*
X56536Y-51113D01*
X56591Y-51136D01*
X56650Y-51136D01*
X56730Y-51136D01*
G54D10*
G36*
X58967Y-54225D02*
X58922Y-54179D01*
X58794Y-54127D01*
X58657Y-54127D01*
X58647Y-54131D01*
X58358Y-53846D01*
X58366Y-53824D01*
X58331Y-53789D01*
X58273Y-53789D01*
X58236Y-53764D01*
X58215Y-53760D01*
X58236Y-53756D01*
X58275Y-53730D01*
X58314Y-53730D01*
X58328Y-53736D01*
X58424Y-53740D01*
X58515Y-53707D01*
X58604Y-53652D01*
X58905Y-53599D01*
X58905Y-53599D01*
X58947Y-53641D01*
X58960Y-53647D01*
X58967Y-54225D01*
X58967Y-54225D01*
G37*
G54D42*
X58967Y-54225D02*
X58922Y-54179D01*
X58794Y-54127D01*
X58657Y-54127D01*
X58647Y-54131D01*
X58358Y-53846D01*
X58366Y-53824D01*
X58331Y-53789D01*
X58273Y-53789D01*
X58236Y-53764D01*
X58215Y-53760D01*
X58236Y-53756D01*
X58275Y-53730D01*
X58314Y-53730D01*
X58328Y-53736D01*
X58424Y-53740D01*
X58515Y-53707D01*
X58604Y-53652D01*
X58905Y-53599D01*
X58905Y-53599D01*
X58947Y-53641D01*
X58960Y-53647D01*
X58967Y-54225D01*
G54D10*
G36*
X60957Y-55188D02*
X60889Y-55188D01*
X60889Y-55070D01*
X60957Y-55070D01*
X60957Y-55188D01*
X60957Y-55188D01*
G37*
G54D42*
X60957Y-55188D02*
X60889Y-55188D01*
X60889Y-55070D01*
X60957Y-55070D01*
X60957Y-55188D01*
G54D10*
G36*
X61449Y-51705D02*
X61416Y-51937D01*
X61353Y-51937D01*
X61298Y-51960D01*
X61256Y-52002D01*
X61233Y-52057D01*
X61233Y-52116D01*
X61233Y-52364D01*
X61191Y-52346D01*
X61166Y-52346D01*
X60721Y-51509D01*
X60703Y-51487D01*
X60687Y-51464D01*
X60618Y-51394D01*
X60585Y-51372D01*
X60585Y-51267D01*
X60562Y-51212D01*
X60520Y-51170D01*
X60466Y-51147D01*
X60406Y-51147D01*
X60006Y-51147D01*
X59951Y-51170D01*
X59909Y-51212D01*
X59887Y-51266D01*
X59886Y-51326D01*
X59886Y-51676D01*
X59909Y-51731D01*
X59950Y-51771D01*
X59909Y-51812D01*
X59893Y-51851D01*
X59206Y-51851D01*
X59206Y-51778D01*
X59184Y-51723D01*
X59142Y-51681D01*
X59087Y-51658D01*
X59028Y-51658D01*
X58713Y-51658D01*
X58713Y-50954D01*
X58713Y-50620D01*
X58713Y-50553D01*
X58687Y-50492D01*
X58640Y-50445D01*
X58579Y-50420D01*
X58463Y-50420D01*
X58421Y-50461D01*
X58421Y-50736D01*
X58671Y-50736D01*
X58713Y-50694D01*
X58713Y-50620D01*
X58713Y-50954D01*
X58713Y-50880D01*
X58671Y-50838D01*
X58421Y-50838D01*
X58421Y-51112D01*
X58463Y-51154D01*
X58579Y-51154D01*
X58640Y-51129D01*
X58687Y-51082D01*
X58713Y-51020D01*
X58713Y-50954D01*
X58713Y-51658D01*
X58678Y-51658D01*
X58623Y-51681D01*
X58582Y-51721D01*
X58542Y-51681D01*
X58487Y-51658D01*
X58428Y-51658D01*
X58078Y-51658D01*
X58023Y-51681D01*
X57981Y-51723D01*
X57958Y-51778D01*
X57958Y-51837D01*
X57958Y-51839D01*
X57306Y-51839D01*
X57234Y-51853D01*
X57214Y-51867D01*
X57173Y-51894D01*
X57069Y-51998D01*
X57065Y-52004D01*
X56992Y-51990D01*
X57007Y-51954D01*
X57007Y-51825D01*
X56957Y-51705D01*
X56866Y-51613D01*
X56815Y-51592D01*
X57218Y-51173D01*
X57218Y-51173D01*
X57218Y-51173D01*
X57225Y-51167D01*
X57234Y-51151D01*
X57480Y-51083D01*
X57511Y-51113D01*
X57566Y-51136D01*
X57625Y-51136D01*
X57975Y-51136D01*
X58030Y-51113D01*
X58058Y-51086D01*
X58101Y-51129D01*
X58162Y-51154D01*
X58278Y-51154D01*
X58320Y-51112D01*
X58320Y-50838D01*
X58312Y-50838D01*
X58312Y-50736D01*
X58320Y-50736D01*
X58320Y-50461D01*
X58278Y-50420D01*
X58162Y-50420D01*
X58101Y-50445D01*
X58058Y-50488D01*
X58030Y-50460D01*
X57975Y-50438D01*
X57916Y-50438D01*
X57566Y-50438D01*
X57511Y-50460D01*
X57469Y-50502D01*
X57446Y-50557D01*
X57446Y-50616D01*
X57446Y-50701D01*
X57190Y-50772D01*
X57153Y-50735D01*
X57120Y-50713D01*
X57120Y-50557D01*
X57097Y-50502D01*
X57055Y-50460D01*
X57000Y-50438D01*
X56941Y-50438D01*
X56591Y-50438D01*
X56536Y-50460D01*
X56496Y-50501D01*
X56455Y-50460D01*
X56435Y-50452D01*
X56435Y-50450D01*
X56412Y-50366D01*
X56775Y-50040D01*
X56800Y-50050D01*
X56977Y-50051D01*
X57079Y-50009D01*
X57550Y-50292D01*
X57570Y-50299D01*
X57582Y-50307D01*
X57607Y-50312D01*
X57641Y-50324D01*
X57662Y-50323D01*
X57677Y-50326D01*
X58849Y-50330D01*
X61348Y-51576D01*
X61357Y-51579D01*
X61364Y-51584D01*
X61383Y-51587D01*
X61383Y-51607D01*
X61406Y-51662D01*
X61448Y-51704D01*
X61449Y-51705D01*
X61449Y-51705D01*
G37*
G54D42*
X61449Y-51705D02*
X61416Y-51937D01*
X61353Y-51937D01*
X61298Y-51960D01*
X61256Y-52002D01*
X61233Y-52057D01*
X61233Y-52116D01*
X61233Y-52364D01*
X61191Y-52346D01*
X61166Y-52346D01*
X60721Y-51509D01*
X60703Y-51487D01*
X60687Y-51464D01*
X60618Y-51394D01*
X60585Y-51372D01*
X60585Y-51267D01*
X60562Y-51212D01*
X60520Y-51170D01*
X60466Y-51147D01*
X60406Y-51147D01*
X60006Y-51147D01*
X59951Y-51170D01*
X59909Y-51212D01*
X59887Y-51266D01*
X59886Y-51326D01*
X59886Y-51676D01*
X59909Y-51731D01*
X59950Y-51771D01*
X59909Y-51812D01*
X59893Y-51851D01*
X59206Y-51851D01*
X59206Y-51778D01*
X59184Y-51723D01*
X59142Y-51681D01*
X59087Y-51658D01*
X59028Y-51658D01*
X58713Y-51658D01*
X58713Y-50954D01*
X58713Y-50620D01*
X58713Y-50553D01*
X58687Y-50492D01*
X58640Y-50445D01*
X58579Y-50420D01*
X58463Y-50420D01*
X58421Y-50461D01*
X58421Y-50736D01*
X58671Y-50736D01*
X58713Y-50694D01*
X58713Y-50620D01*
X58713Y-50954D01*
X58713Y-50880D01*
X58671Y-50838D01*
X58421Y-50838D01*
X58421Y-51112D01*
X58463Y-51154D01*
X58579Y-51154D01*
X58640Y-51129D01*
X58687Y-51082D01*
X58713Y-51020D01*
X58713Y-50954D01*
X58713Y-51658D01*
X58678Y-51658D01*
X58623Y-51681D01*
X58582Y-51721D01*
X58542Y-51681D01*
X58487Y-51658D01*
X58428Y-51658D01*
X58078Y-51658D01*
X58023Y-51681D01*
X57981Y-51723D01*
X57958Y-51778D01*
X57958Y-51837D01*
X57958Y-51839D01*
X57306Y-51839D01*
X57234Y-51853D01*
X57214Y-51867D01*
X57173Y-51894D01*
X57069Y-51998D01*
X57065Y-52004D01*
X56992Y-51990D01*
X57007Y-51954D01*
X57007Y-51825D01*
X56957Y-51705D01*
X56866Y-51613D01*
X56815Y-51592D01*
X57218Y-51173D01*
X57218Y-51173D01*
X57218Y-51173D01*
X57225Y-51167D01*
X57234Y-51151D01*
X57480Y-51083D01*
X57511Y-51113D01*
X57566Y-51136D01*
X57625Y-51136D01*
X57975Y-51136D01*
X58030Y-51113D01*
X58058Y-51086D01*
X58101Y-51129D01*
X58162Y-51154D01*
X58278Y-51154D01*
X58320Y-51112D01*
X58320Y-50838D01*
X58312Y-50838D01*
X58312Y-50736D01*
X58320Y-50736D01*
X58320Y-50461D01*
X58278Y-50420D01*
X58162Y-50420D01*
X58101Y-50445D01*
X58058Y-50488D01*
X58030Y-50460D01*
X57975Y-50438D01*
X57916Y-50438D01*
X57566Y-50438D01*
X57511Y-50460D01*
X57469Y-50502D01*
X57446Y-50557D01*
X57446Y-50616D01*
X57446Y-50701D01*
X57190Y-50772D01*
X57153Y-50735D01*
X57120Y-50713D01*
X57120Y-50557D01*
X57097Y-50502D01*
X57055Y-50460D01*
X57000Y-50438D01*
X56941Y-50438D01*
X56591Y-50438D01*
X56536Y-50460D01*
X56496Y-50501D01*
X56455Y-50460D01*
X56435Y-50452D01*
X56435Y-50450D01*
X56412Y-50366D01*
X56775Y-50040D01*
X56800Y-50050D01*
X56977Y-50051D01*
X57079Y-50009D01*
X57550Y-50292D01*
X57570Y-50299D01*
X57582Y-50307D01*
X57607Y-50312D01*
X57641Y-50324D01*
X57662Y-50323D01*
X57677Y-50326D01*
X58849Y-50330D01*
X61348Y-51576D01*
X61357Y-51579D01*
X61364Y-51584D01*
X61383Y-51587D01*
X61383Y-51607D01*
X61406Y-51662D01*
X61448Y-51704D01*
X61449Y-51705D01*
G54D10*
G36*
X64446Y-55416D02*
X63667Y-55883D01*
X63646Y-55902D01*
X63625Y-55914D01*
X62867Y-56619D01*
X62867Y-56112D01*
X62844Y-56057D01*
X62802Y-56015D01*
X62748Y-55992D01*
X62688Y-55992D01*
X62444Y-55992D01*
X62444Y-55873D01*
X63242Y-55401D01*
X63248Y-55407D01*
X63303Y-55430D01*
X63362Y-55430D01*
X64412Y-55430D01*
X64446Y-55416D01*
X64446Y-55416D01*
G37*
G54D42*
X64446Y-55416D02*
X63667Y-55883D01*
X63646Y-55902D01*
X63625Y-55914D01*
X62867Y-56619D01*
X62867Y-56112D01*
X62844Y-56057D01*
X62802Y-56015D01*
X62748Y-55992D01*
X62688Y-55992D01*
X62444Y-55992D01*
X62444Y-55873D01*
X63242Y-55401D01*
X63248Y-55407D01*
X63303Y-55430D01*
X63362Y-55430D01*
X64412Y-55430D01*
X64446Y-55416D01*
G54D10*
G36*
X65728Y-58720D02*
X65394Y-58720D01*
X65394Y-58300D01*
X64488Y-57394D01*
X63582Y-58300D01*
X63721Y-58464D01*
X64216Y-58670D01*
X64753Y-58671D01*
X65249Y-58467D01*
X65254Y-58464D01*
X65394Y-58300D01*
X65394Y-58720D01*
X62603Y-58720D01*
X62603Y-58194D01*
X62603Y-58045D01*
X62561Y-58003D01*
X62261Y-58003D01*
X62261Y-58353D01*
X62303Y-58395D01*
X62469Y-58395D01*
X62530Y-58369D01*
X62577Y-58322D01*
X62603Y-58261D01*
X62603Y-58194D01*
X62603Y-58720D01*
X62160Y-58720D01*
X62160Y-58353D01*
X62160Y-58003D01*
X61860Y-58003D01*
X61818Y-58045D01*
X61818Y-58194D01*
X61818Y-58261D01*
X61844Y-58322D01*
X61891Y-58369D01*
X61952Y-58395D01*
X62118Y-58395D01*
X62160Y-58353D01*
X62160Y-58720D01*
X60660Y-58720D01*
X60660Y-58322D01*
X60647Y-58147D01*
X60604Y-58045D01*
X60535Y-58016D01*
X60463Y-58088D01*
X60463Y-57944D01*
X60434Y-57875D01*
X60267Y-57820D01*
X60092Y-57833D01*
X59990Y-57875D01*
X59961Y-57944D01*
X60212Y-58195D01*
X60463Y-57944D01*
X60463Y-58088D01*
X60284Y-58267D01*
X60535Y-58518D01*
X60604Y-58490D01*
X60660Y-58322D01*
X60660Y-58720D01*
X60463Y-58720D01*
X60463Y-58590D01*
X60212Y-58339D01*
X60140Y-58411D01*
X60140Y-58267D01*
X59889Y-58016D01*
X59820Y-58045D01*
X59765Y-58212D01*
X59777Y-58387D01*
X59820Y-58490D01*
X59889Y-58518D01*
X60140Y-58267D01*
X60140Y-58411D01*
X59961Y-58590D01*
X59990Y-58660D01*
X60157Y-58715D01*
X60332Y-58702D01*
X60434Y-58660D01*
X60463Y-58590D01*
X60463Y-58720D01*
X59636Y-58720D01*
X59636Y-58183D01*
X59572Y-58027D01*
X59453Y-57908D01*
X59297Y-57843D01*
X59128Y-57843D01*
X58972Y-57907D01*
X58853Y-58027D01*
X58788Y-58182D01*
X58788Y-58351D01*
X58852Y-58507D01*
X58971Y-58627D01*
X59127Y-58691D01*
X59296Y-58692D01*
X59452Y-58627D01*
X59572Y-58508D01*
X59636Y-58352D01*
X59636Y-58183D01*
X59636Y-58720D01*
X58636Y-58720D01*
X58636Y-58513D01*
X58636Y-57963D01*
X58614Y-57908D01*
X58572Y-57866D01*
X58517Y-57843D01*
X58458Y-57843D01*
X57908Y-57843D01*
X57853Y-57866D01*
X57811Y-57908D01*
X57788Y-57962D01*
X57788Y-58022D01*
X57788Y-58572D01*
X57811Y-58627D01*
X57852Y-58669D01*
X57907Y-58691D01*
X57967Y-58691D01*
X58517Y-58691D01*
X58572Y-58669D01*
X58614Y-58627D01*
X58636Y-58572D01*
X58636Y-58513D01*
X58636Y-58720D01*
X56279Y-58720D01*
X56279Y-58183D01*
X56214Y-58027D01*
X56095Y-57907D01*
X55939Y-57843D01*
X55770Y-57842D01*
X55614Y-57907D01*
X55494Y-58026D01*
X55429Y-58182D01*
X55429Y-58351D01*
X55494Y-58507D01*
X55613Y-58627D01*
X55769Y-58692D01*
X55938Y-58692D01*
X56094Y-58627D01*
X56214Y-58508D01*
X56278Y-58352D01*
X56279Y-58183D01*
X56279Y-58720D01*
X55302Y-58720D01*
X55302Y-58323D01*
X55289Y-58147D01*
X55247Y-58045D01*
X55177Y-58016D01*
X55105Y-58088D01*
X55105Y-57944D01*
X55076Y-57874D01*
X54909Y-57819D01*
X54733Y-57832D01*
X54631Y-57874D01*
X54602Y-57944D01*
X54854Y-58195D01*
X55105Y-57944D01*
X55105Y-58088D01*
X54926Y-58267D01*
X55177Y-58519D01*
X55247Y-58490D01*
X55302Y-58323D01*
X55302Y-58720D01*
X55105Y-58720D01*
X55105Y-58591D01*
X54854Y-58339D01*
X54782Y-58411D01*
X54782Y-58267D01*
X54530Y-58016D01*
X54461Y-58045D01*
X54406Y-58212D01*
X54419Y-58388D01*
X54461Y-58490D01*
X54530Y-58519D01*
X54782Y-58267D01*
X54782Y-58411D01*
X54602Y-58591D01*
X54631Y-58660D01*
X54798Y-58715D01*
X54974Y-58702D01*
X55076Y-58660D01*
X55105Y-58591D01*
X55105Y-58720D01*
X54279Y-58720D01*
X54279Y-58183D01*
X54214Y-58027D01*
X54095Y-57907D01*
X53939Y-57843D01*
X53770Y-57842D01*
X53614Y-57907D01*
X53494Y-58026D01*
X53429Y-58182D01*
X53429Y-58351D01*
X53494Y-58507D01*
X53613Y-58627D01*
X53769Y-58692D01*
X53938Y-58692D01*
X54094Y-58627D01*
X54214Y-58508D01*
X54278Y-58352D01*
X54279Y-58183D01*
X54279Y-58720D01*
X52726Y-58720D01*
X52726Y-58240D01*
X52718Y-57939D01*
X52618Y-57698D01*
X52516Y-57630D01*
X52444Y-57702D01*
X52444Y-57558D01*
X52376Y-57456D01*
X52226Y-57398D01*
X52226Y-55912D01*
X52226Y-55562D01*
X52226Y-55461D01*
X52226Y-55111D01*
X52184Y-55069D01*
X52019Y-55069D01*
X51957Y-55094D01*
X51939Y-55112D01*
X51939Y-53756D01*
X51939Y-53544D01*
X51693Y-53544D01*
X51662Y-53591D01*
X51698Y-53663D01*
X51782Y-53747D01*
X51892Y-53792D01*
X51939Y-53756D01*
X51939Y-55112D01*
X51910Y-55141D01*
X51884Y-55203D01*
X51884Y-55269D01*
X51884Y-55419D01*
X51926Y-55461D01*
X52226Y-55461D01*
X52226Y-55562D01*
X51926Y-55562D01*
X51884Y-55604D01*
X51884Y-55753D01*
X51884Y-55820D01*
X51910Y-55881D01*
X51957Y-55928D01*
X52019Y-55954D01*
X52184Y-55954D01*
X52226Y-55912D01*
X52226Y-57398D01*
X52095Y-57348D01*
X51793Y-57356D01*
X51552Y-57456D01*
X51484Y-57558D01*
X51964Y-58038D01*
X52444Y-57558D01*
X52444Y-57702D01*
X52036Y-58110D01*
X52516Y-58589D01*
X52618Y-58522D01*
X52726Y-58240D01*
X52726Y-58720D01*
X52405Y-58720D01*
X52444Y-58661D01*
X51964Y-58182D01*
X51892Y-58253D01*
X51892Y-58110D01*
X51413Y-57630D01*
X51311Y-57698D01*
X51203Y-57979D01*
X51211Y-58281D01*
X51311Y-58522D01*
X51413Y-58589D01*
X51892Y-58110D01*
X51892Y-58253D01*
X51484Y-58661D01*
X51523Y-58720D01*
X50256Y-58720D01*
X50299Y-58677D01*
X50324Y-58615D01*
X50324Y-57565D01*
X50324Y-56962D01*
X50324Y-55911D01*
X50299Y-55850D01*
X50252Y-55803D01*
X50190Y-55777D01*
X50124Y-55777D01*
X49954Y-55777D01*
X49912Y-55819D01*
X49912Y-56386D01*
X50282Y-56386D01*
X50324Y-56344D01*
X50324Y-55911D01*
X50324Y-56962D01*
X50324Y-56529D01*
X50282Y-56487D01*
X49912Y-56487D01*
X49912Y-57054D01*
X49954Y-57096D01*
X50124Y-57096D01*
X50190Y-57096D01*
X50252Y-57070D01*
X50299Y-57023D01*
X50324Y-56962D01*
X50324Y-57565D01*
X50299Y-57503D01*
X50252Y-57456D01*
X50190Y-57431D01*
X50124Y-57431D01*
X49954Y-57431D01*
X49912Y-57472D01*
X49912Y-58039D01*
X50282Y-58039D01*
X50324Y-57997D01*
X50324Y-57565D01*
X50324Y-58615D01*
X50324Y-58183D01*
X50282Y-58141D01*
X49912Y-58141D01*
X49912Y-58149D01*
X49811Y-58149D01*
X49811Y-58141D01*
X49803Y-58141D01*
X49803Y-58039D01*
X49811Y-58039D01*
X49811Y-57472D01*
X49769Y-57431D01*
X49600Y-57431D01*
X49547Y-57431D01*
X49547Y-57096D01*
X49600Y-57096D01*
X49769Y-57096D01*
X49811Y-57054D01*
X49811Y-56487D01*
X49811Y-56386D01*
X49811Y-55819D01*
X49769Y-55777D01*
X49600Y-55777D01*
X49533Y-55777D01*
X49472Y-55803D01*
X49424Y-55850D01*
X49399Y-55911D01*
X49399Y-56344D01*
X49441Y-56386D01*
X49811Y-56386D01*
X49811Y-56487D01*
X49441Y-56487D01*
X49438Y-56490D01*
X49437Y-56489D01*
X49370Y-56476D01*
X49360Y-56476D01*
X49360Y-55833D01*
X49360Y-55308D01*
X49360Y-55242D01*
X49334Y-55180D01*
X49287Y-55133D01*
X49281Y-55131D01*
X49281Y-49649D01*
X49269Y-49465D01*
X49223Y-49354D01*
X49151Y-49323D01*
X48885Y-49589D01*
X49151Y-49855D01*
X49223Y-49823D01*
X49281Y-49649D01*
X49281Y-55131D01*
X49226Y-55108D01*
X48793Y-55108D01*
X48751Y-55150D01*
X48751Y-55520D01*
X49318Y-55520D01*
X49360Y-55478D01*
X49360Y-55308D01*
X49360Y-55833D01*
X49360Y-55663D01*
X49318Y-55621D01*
X48751Y-55621D01*
X48751Y-55991D01*
X48793Y-56033D01*
X49226Y-56033D01*
X49287Y-56008D01*
X49334Y-55961D01*
X49360Y-55899D01*
X49360Y-55833D01*
X49360Y-56476D01*
X48650Y-56476D01*
X48592Y-56476D01*
X48592Y-56401D01*
X48550Y-56359D01*
X48385Y-56359D01*
X48385Y-56367D01*
X48307Y-56367D01*
X48307Y-56359D01*
X48294Y-56359D01*
X48142Y-56359D01*
X48129Y-56359D01*
X48129Y-56367D01*
X48062Y-56367D01*
X48062Y-56250D01*
X48129Y-56250D01*
X48129Y-56258D01*
X48142Y-56258D01*
X48294Y-56258D01*
X48307Y-56258D01*
X48307Y-56250D01*
X48385Y-56250D01*
X48385Y-56258D01*
X48550Y-56258D01*
X48592Y-56216D01*
X48592Y-56033D01*
X48608Y-56033D01*
X48650Y-55991D01*
X48650Y-55621D01*
X48650Y-55520D01*
X48650Y-55150D01*
X48608Y-55108D01*
X48437Y-55108D01*
X48437Y-54394D01*
X48437Y-53911D01*
X48437Y-53844D01*
X48411Y-53783D01*
X48364Y-53735D01*
X48303Y-53710D01*
X48137Y-53710D01*
X48095Y-53752D01*
X48095Y-54102D01*
X48395Y-54102D01*
X48437Y-54060D01*
X48437Y-53911D01*
X48437Y-54394D01*
X48437Y-54245D01*
X48395Y-54203D01*
X48095Y-54203D01*
X48095Y-54553D01*
X48137Y-54595D01*
X48303Y-54595D01*
X48364Y-54569D01*
X48411Y-54522D01*
X48437Y-54461D01*
X48437Y-54394D01*
X48437Y-55108D01*
X48175Y-55108D01*
X48114Y-55133D01*
X48066Y-55180D01*
X48041Y-55242D01*
X48041Y-55308D01*
X48041Y-55478D01*
X48083Y-55520D01*
X48650Y-55520D01*
X48650Y-55621D01*
X48083Y-55621D01*
X48041Y-55663D01*
X48041Y-55833D01*
X48041Y-55895D01*
X48041Y-55895D01*
X48039Y-55895D01*
X48039Y-55926D01*
X48009Y-55895D01*
X47994Y-55895D01*
X47994Y-54553D01*
X47994Y-54203D01*
X47994Y-54102D01*
X47994Y-53752D01*
X47952Y-53710D01*
X47786Y-53710D01*
X47725Y-53735D01*
X47678Y-53783D01*
X47652Y-53844D01*
X47652Y-53911D01*
X47652Y-54060D01*
X47694Y-54102D01*
X47994Y-54102D01*
X47994Y-54203D01*
X47694Y-54203D01*
X47652Y-54245D01*
X47652Y-54394D01*
X47652Y-54461D01*
X47678Y-54522D01*
X47725Y-54569D01*
X47786Y-54595D01*
X47952Y-54595D01*
X47994Y-54553D01*
X47994Y-55895D01*
X47978Y-55895D01*
X47934Y-55913D01*
X47883Y-55913D01*
X47726Y-55913D01*
X47706Y-55921D01*
X47687Y-55913D01*
X47627Y-55913D01*
X47622Y-55913D01*
X47627Y-55899D01*
X47627Y-55833D01*
X47627Y-55308D01*
X47627Y-55242D01*
X47602Y-55180D01*
X47555Y-55133D01*
X47493Y-55108D01*
X47061Y-55108D01*
X47019Y-55150D01*
X47019Y-55520D01*
X47586Y-55520D01*
X47627Y-55478D01*
X47627Y-55308D01*
X47627Y-55833D01*
X47627Y-55663D01*
X47586Y-55621D01*
X47019Y-55621D01*
X47019Y-55629D01*
X46917Y-55629D01*
X46917Y-55621D01*
X46909Y-55621D01*
X46909Y-55520D01*
X46917Y-55520D01*
X46917Y-55150D01*
X46875Y-55108D01*
X46544Y-55108D01*
X46550Y-54959D01*
X46685Y-54824D01*
X46967Y-54567D01*
X46990Y-54577D01*
X47049Y-54577D01*
X47499Y-54577D01*
X47554Y-54554D01*
X47596Y-54512D01*
X47619Y-54457D01*
X47619Y-54398D01*
X47619Y-53848D01*
X47596Y-53793D01*
X47554Y-53751D01*
X47499Y-53728D01*
X47440Y-53728D01*
X47436Y-53728D01*
X47349Y-53182D01*
X47349Y-53182D01*
X47349Y-53123D01*
X47349Y-52823D01*
X47326Y-52768D01*
X47284Y-52726D01*
X47230Y-52703D01*
X47170Y-52703D01*
X46970Y-52703D01*
X46915Y-52726D01*
X46873Y-52768D01*
X46851Y-52822D01*
X46850Y-52882D01*
X46850Y-53182D01*
X46852Y-53186D01*
X46852Y-53194D01*
X46856Y-53213D01*
X46855Y-53233D01*
X46938Y-53750D01*
X46935Y-53751D01*
X46893Y-53793D01*
X46870Y-53848D01*
X46870Y-53907D01*
X46870Y-54016D01*
X46862Y-54017D01*
X46857Y-54020D01*
X46851Y-54021D01*
X46815Y-54046D01*
X46779Y-54067D01*
X46347Y-54462D01*
X46344Y-54467D01*
X46339Y-54470D01*
X46131Y-54678D01*
X46109Y-54710D01*
X46081Y-54749D01*
X46080Y-54754D01*
X46078Y-54758D01*
X46070Y-54796D01*
X46059Y-54843D01*
X46046Y-55175D01*
X46047Y-55180D01*
X46046Y-55185D01*
X46046Y-55775D01*
X46046Y-55777D01*
X45899Y-55777D01*
X45857Y-55819D01*
X45857Y-56386D01*
X46227Y-56386D01*
X46269Y-56344D01*
X46269Y-56237D01*
X46286Y-56244D01*
X46303Y-56255D01*
X46331Y-56260D01*
X46358Y-56270D01*
X47023Y-56378D01*
X47094Y-56376D01*
X47094Y-56476D01*
X46299Y-56476D01*
X46231Y-56489D01*
X46230Y-56490D01*
X46227Y-56487D01*
X45857Y-56487D01*
X45857Y-57054D01*
X45899Y-57096D01*
X46069Y-57096D01*
X46122Y-57096D01*
X46122Y-57431D01*
X46069Y-57431D01*
X45899Y-57431D01*
X45857Y-57472D01*
X45857Y-58039D01*
X45865Y-58039D01*
X45865Y-58141D01*
X45857Y-58141D01*
X45857Y-58149D01*
X45756Y-58149D01*
X45756Y-58141D01*
X45748Y-58141D01*
X45748Y-58039D01*
X45756Y-58039D01*
X45756Y-57472D01*
X45714Y-57431D01*
X45570Y-57431D01*
X45570Y-57096D01*
X45714Y-57096D01*
X45756Y-57054D01*
X45756Y-56487D01*
X45748Y-56487D01*
X45748Y-56386D01*
X45756Y-56386D01*
X45756Y-55819D01*
X45714Y-55777D01*
X45570Y-55777D01*
X45570Y-49232D01*
X46573Y-49232D01*
X46468Y-49337D01*
X46400Y-49500D01*
X46400Y-49677D01*
X46468Y-49840D01*
X46593Y-49966D01*
X46738Y-50026D01*
X46908Y-50501D01*
X46881Y-50528D01*
X46858Y-50583D01*
X46858Y-50643D01*
X46858Y-51193D01*
X46881Y-51247D01*
X46923Y-51289D01*
X46926Y-51291D01*
X46855Y-51775D01*
X46856Y-51793D01*
X46852Y-51811D01*
X46852Y-51819D01*
X46851Y-51822D01*
X46850Y-51882D01*
X46850Y-52182D01*
X46852Y-52186D01*
X46852Y-52194D01*
X46871Y-52288D01*
X46925Y-52369D01*
X46983Y-52427D01*
X47013Y-52447D01*
X47041Y-52470D01*
X47184Y-52547D01*
X47213Y-52556D01*
X47241Y-52570D01*
X47342Y-52595D01*
X47432Y-52685D01*
X47552Y-52735D01*
X47656Y-52735D01*
X47623Y-52768D01*
X47601Y-52822D01*
X47600Y-52882D01*
X47600Y-53182D01*
X47623Y-53237D01*
X47665Y-53279D01*
X47720Y-53301D01*
X47779Y-53301D01*
X47979Y-53301D01*
X48034Y-53279D01*
X48076Y-53237D01*
X48099Y-53182D01*
X48099Y-53169D01*
X48388Y-53169D01*
X48408Y-53219D01*
X48450Y-53261D01*
X48505Y-53284D01*
X48564Y-53284D01*
X48964Y-53284D01*
X49019Y-53261D01*
X49061Y-53219D01*
X49084Y-53164D01*
X49084Y-53105D01*
X49084Y-52755D01*
X49061Y-52700D01*
X49033Y-52672D01*
X49077Y-52629D01*
X49102Y-52568D01*
X49102Y-52151D01*
X49079Y-52097D01*
X49079Y-49927D01*
X48813Y-49661D01*
X48741Y-49732D01*
X48741Y-49589D01*
X48475Y-49323D01*
X48404Y-49354D01*
X48345Y-49529D01*
X48358Y-49712D01*
X48404Y-49823D01*
X48475Y-49855D01*
X48741Y-49589D01*
X48741Y-49732D01*
X48547Y-49927D01*
X48579Y-49998D01*
X48753Y-50057D01*
X48937Y-50044D01*
X49048Y-49998D01*
X49079Y-49927D01*
X49079Y-52097D01*
X49077Y-52090D01*
X49029Y-52043D01*
X48968Y-52017D01*
X48901Y-52017D01*
X48827Y-52017D01*
X48785Y-52059D01*
X48785Y-52309D01*
X49060Y-52309D01*
X49102Y-52267D01*
X49102Y-52151D01*
X49102Y-52568D01*
X49102Y-52452D01*
X49060Y-52410D01*
X48785Y-52410D01*
X48785Y-52418D01*
X48684Y-52418D01*
X48684Y-52410D01*
X48684Y-52309D01*
X48684Y-52059D01*
X48642Y-52017D01*
X48568Y-52017D01*
X48501Y-52017D01*
X48440Y-52043D01*
X48393Y-52090D01*
X48367Y-52151D01*
X48367Y-52267D01*
X48409Y-52309D01*
X48684Y-52309D01*
X48684Y-52410D01*
X48409Y-52410D01*
X48367Y-52452D01*
X48367Y-52568D01*
X48393Y-52629D01*
X48436Y-52672D01*
X48408Y-52700D01*
X48385Y-52755D01*
X48385Y-52792D01*
X48086Y-52792D01*
X48076Y-52768D01*
X48034Y-52726D01*
X47980Y-52703D01*
X47920Y-52703D01*
X47761Y-52703D01*
X47802Y-52686D01*
X47894Y-52594D01*
X47944Y-52474D01*
X47944Y-52344D01*
X47926Y-52301D01*
X47979Y-52301D01*
X48034Y-52279D01*
X48076Y-52237D01*
X48099Y-52182D01*
X48099Y-52126D01*
X48132Y-52104D01*
X48201Y-52035D01*
X48215Y-52014D01*
X48231Y-51996D01*
X48287Y-51901D01*
X48324Y-51901D01*
X48444Y-51851D01*
X48536Y-51759D01*
X48586Y-51640D01*
X48586Y-51510D01*
X48536Y-51390D01*
X48444Y-51298D01*
X48384Y-51273D01*
X48399Y-51258D01*
X48425Y-51196D01*
X48425Y-51130D01*
X48425Y-50646D01*
X48425Y-50580D01*
X48399Y-50518D01*
X48352Y-50471D01*
X48290Y-50446D01*
X48125Y-50446D01*
X48083Y-50487D01*
X48083Y-50837D01*
X48383Y-50837D01*
X48425Y-50795D01*
X48425Y-50646D01*
X48425Y-51130D01*
X48425Y-50981D01*
X48383Y-50939D01*
X48083Y-50939D01*
X48083Y-51288D01*
X48087Y-51292D01*
X48075Y-51297D01*
X47983Y-51389D01*
X47981Y-51393D01*
X47981Y-51288D01*
X47981Y-50939D01*
X47981Y-50837D01*
X47981Y-50487D01*
X47940Y-50446D01*
X47774Y-50446D01*
X47713Y-50471D01*
X47665Y-50518D01*
X47640Y-50580D01*
X47640Y-50646D01*
X47640Y-50795D01*
X47682Y-50837D01*
X47981Y-50837D01*
X47981Y-50939D01*
X47682Y-50939D01*
X47640Y-50981D01*
X47640Y-51130D01*
X47640Y-51196D01*
X47665Y-51258D01*
X47713Y-51305D01*
X47774Y-51330D01*
X47940Y-51330D01*
X47981Y-51288D01*
X47981Y-51393D01*
X47933Y-51509D01*
X47933Y-51639D01*
X47959Y-51703D01*
X47920Y-51703D01*
X47720Y-51703D01*
X47679Y-51720D01*
X47669Y-51710D01*
X47608Y-51685D01*
X47567Y-51685D01*
X47525Y-51727D01*
X47525Y-51951D01*
X47533Y-51951D01*
X47533Y-52053D01*
X47525Y-52053D01*
X47525Y-52061D01*
X47425Y-52061D01*
X47425Y-52053D01*
X47416Y-52053D01*
X47416Y-51951D01*
X47425Y-51951D01*
X47425Y-51727D01*
X47383Y-51685D01*
X47369Y-51685D01*
X47424Y-51312D01*
X47487Y-51312D01*
X47542Y-51290D01*
X47584Y-51248D01*
X47606Y-51193D01*
X47606Y-51133D01*
X47606Y-50583D01*
X47584Y-50529D01*
X47542Y-50487D01*
X47487Y-50464D01*
X47428Y-50464D01*
X47419Y-50464D01*
X47418Y-50456D01*
X47204Y-49858D01*
X47222Y-49841D01*
X47289Y-49678D01*
X47290Y-49501D01*
X47222Y-49337D01*
X47117Y-49232D01*
X47557Y-49232D01*
X47452Y-49337D01*
X47384Y-49500D01*
X47384Y-49677D01*
X47452Y-49840D01*
X47577Y-49966D01*
X47740Y-50033D01*
X47917Y-50034D01*
X48081Y-49966D01*
X48206Y-49841D01*
X48274Y-49678D01*
X48274Y-49501D01*
X48206Y-49337D01*
X48101Y-49232D01*
X48556Y-49232D01*
X48547Y-49251D01*
X48813Y-49517D01*
X49079Y-49251D01*
X49071Y-49232D01*
X51214Y-49232D01*
X51214Y-50366D01*
X51237Y-50421D01*
X51279Y-50463D01*
X51333Y-50486D01*
X51393Y-50486D01*
X52574Y-50486D01*
X52629Y-50463D01*
X52671Y-50421D01*
X52693Y-50367D01*
X52693Y-50307D01*
X52693Y-49924D01*
X53108Y-49924D01*
X53125Y-49965D01*
X53167Y-50007D01*
X53222Y-50030D01*
X53282Y-50030D01*
X53832Y-50030D01*
X53872Y-50013D01*
X53656Y-50491D01*
X53656Y-50495D01*
X53653Y-50498D01*
X53647Y-50529D01*
X53623Y-50539D01*
X53595Y-50567D01*
X53552Y-50524D01*
X53490Y-50498D01*
X53375Y-50498D01*
X53333Y-50540D01*
X53333Y-50815D01*
X53341Y-50815D01*
X53341Y-50916D01*
X53333Y-50916D01*
X53333Y-51191D01*
X53375Y-51233D01*
X53490Y-51233D01*
X53552Y-51208D01*
X53595Y-51164D01*
X53623Y-51192D01*
X53635Y-51197D01*
X53635Y-51426D01*
X53610Y-51426D01*
X53555Y-51448D01*
X53513Y-51490D01*
X53490Y-51545D01*
X53490Y-51604D01*
X53490Y-52154D01*
X53496Y-52168D01*
X53456Y-52207D01*
X53456Y-52092D01*
X53456Y-51608D01*
X53456Y-51541D01*
X53431Y-51480D01*
X53384Y-51433D01*
X53322Y-51408D01*
X53231Y-51408D01*
X53231Y-51191D01*
X53231Y-50916D01*
X53231Y-50815D01*
X53231Y-50540D01*
X53190Y-50498D01*
X53074Y-50498D01*
X53013Y-50524D01*
X52965Y-50571D01*
X52940Y-50632D01*
X52940Y-50699D01*
X52940Y-50773D01*
X52982Y-50815D01*
X53231Y-50815D01*
X53231Y-50916D01*
X52982Y-50916D01*
X52940Y-50958D01*
X52940Y-51033D01*
X52940Y-51099D01*
X52965Y-51161D01*
X53013Y-51208D01*
X53074Y-51233D01*
X53190Y-51233D01*
X53231Y-51191D01*
X53231Y-51408D01*
X53157Y-51408D01*
X53115Y-51449D01*
X53115Y-51799D01*
X53415Y-51799D01*
X53456Y-51757D01*
X53456Y-51608D01*
X53456Y-52092D01*
X53456Y-51943D01*
X53415Y-51901D01*
X53115Y-51901D01*
X53115Y-52250D01*
X53157Y-52292D01*
X53322Y-52292D01*
X53384Y-52267D01*
X53431Y-52220D01*
X53456Y-52158D01*
X53456Y-52092D01*
X53456Y-52207D01*
X53264Y-52398D01*
X53177Y-52398D01*
X53173Y-52398D01*
X53167Y-52398D01*
X53013Y-52404D01*
X53013Y-52250D01*
X53013Y-51901D01*
X53013Y-51799D01*
X53013Y-51449D01*
X52971Y-51408D01*
X52806Y-51408D01*
X52744Y-51433D01*
X52697Y-51480D01*
X52672Y-51541D01*
X52672Y-51608D01*
X52672Y-51757D01*
X52714Y-51799D01*
X53013Y-51799D01*
X53013Y-51901D01*
X52714Y-51901D01*
X52672Y-51943D01*
X52672Y-52092D01*
X52672Y-52158D01*
X52697Y-52220D01*
X52744Y-52267D01*
X52806Y-52292D01*
X52971Y-52292D01*
X53013Y-52250D01*
X53013Y-52404D01*
X52637Y-52419D01*
X52619Y-52423D01*
X52601Y-52423D01*
X52570Y-52429D01*
X52466Y-52386D01*
X52336Y-52386D01*
X52251Y-52421D01*
X52240Y-52419D01*
X52094Y-52419D01*
X51999Y-52438D01*
X51919Y-52492D01*
X51815Y-52595D01*
X51761Y-52676D01*
X51755Y-52706D01*
X51729Y-52717D01*
X51687Y-52759D01*
X51664Y-52814D01*
X51664Y-52873D01*
X51664Y-53149D01*
X51686Y-53204D01*
X51728Y-53246D01*
X51762Y-53260D01*
X51698Y-53324D01*
X51662Y-53396D01*
X51693Y-53443D01*
X51939Y-53443D01*
X51939Y-53435D01*
X52041Y-53435D01*
X52041Y-53443D01*
X52288Y-53443D01*
X52318Y-53396D01*
X52282Y-53324D01*
X52218Y-53260D01*
X52251Y-53246D01*
X52293Y-53204D01*
X52316Y-53149D01*
X52316Y-53090D01*
X52316Y-53030D01*
X52336Y-53038D01*
X52393Y-53038D01*
X52422Y-53065D01*
X52427Y-53092D01*
X52490Y-53185D01*
X52569Y-53238D01*
X52490Y-53291D01*
X52427Y-53384D01*
X52405Y-53494D01*
X52427Y-53604D01*
X52490Y-53697D01*
X52583Y-53759D01*
X52637Y-53770D01*
X52804Y-54106D01*
X52764Y-54067D01*
X52703Y-54042D01*
X52587Y-54042D01*
X52546Y-54083D01*
X52546Y-54358D01*
X52553Y-54358D01*
X52553Y-54460D01*
X52546Y-54460D01*
X52546Y-54734D01*
X52587Y-54776D01*
X52703Y-54776D01*
X52764Y-54751D01*
X52808Y-54708D01*
X52835Y-54735D01*
X52847Y-54740D01*
X52847Y-55087D01*
X52822Y-55087D01*
X52767Y-55110D01*
X52725Y-55152D01*
X52702Y-55207D01*
X52702Y-55266D01*
X52702Y-55816D01*
X52725Y-55871D01*
X52737Y-55883D01*
X52669Y-56013D01*
X52669Y-55753D01*
X52669Y-55269D01*
X52669Y-55203D01*
X52643Y-55141D01*
X52596Y-55094D01*
X52535Y-55069D01*
X52444Y-55069D01*
X52444Y-54734D01*
X52444Y-54460D01*
X52444Y-54358D01*
X52444Y-54083D01*
X52402Y-54042D01*
X52318Y-54042D01*
X52318Y-53591D01*
X52288Y-53544D01*
X52041Y-53544D01*
X52041Y-53756D01*
X52088Y-53792D01*
X52198Y-53747D01*
X52282Y-53663D01*
X52318Y-53591D01*
X52318Y-54042D01*
X52287Y-54042D01*
X52225Y-54067D01*
X52178Y-54114D01*
X52152Y-54176D01*
X52152Y-54242D01*
X52152Y-54316D01*
X52194Y-54358D01*
X52444Y-54358D01*
X52444Y-54460D01*
X52194Y-54460D01*
X52152Y-54502D01*
X52152Y-54576D01*
X52152Y-54642D01*
X52178Y-54704D01*
X52225Y-54751D01*
X52287Y-54776D01*
X52402Y-54776D01*
X52444Y-54734D01*
X52444Y-55069D01*
X52369Y-55069D01*
X52327Y-55111D01*
X52327Y-55461D01*
X52627Y-55461D01*
X52669Y-55419D01*
X52669Y-55269D01*
X52669Y-55753D01*
X52669Y-55604D01*
X52627Y-55562D01*
X52327Y-55562D01*
X52327Y-55912D01*
X52369Y-55954D01*
X52535Y-55954D01*
X52596Y-55928D01*
X52643Y-55881D01*
X52669Y-55820D01*
X52669Y-55753D01*
X52669Y-56013D01*
X52504Y-56328D01*
X52501Y-56339D01*
X52495Y-56348D01*
X52488Y-56385D01*
X52477Y-56421D01*
X52478Y-56432D01*
X52476Y-56443D01*
X52476Y-56737D01*
X52495Y-56832D01*
X52549Y-56912D01*
X52756Y-57120D01*
X52788Y-57141D01*
X52818Y-57165D01*
X52828Y-57168D01*
X52837Y-57173D01*
X52874Y-57181D01*
X52911Y-57191D01*
X53241Y-57219D01*
X53250Y-57218D01*
X53261Y-57220D01*
X54033Y-57223D01*
X56429Y-58001D01*
X56429Y-58021D01*
X56429Y-58572D01*
X56452Y-58627D01*
X56494Y-58669D01*
X56549Y-58692D01*
X56608Y-58692D01*
X57159Y-58692D01*
X57214Y-58669D01*
X57256Y-58627D01*
X57279Y-58573D01*
X57279Y-58513D01*
X57279Y-57962D01*
X57275Y-57954D01*
X58039Y-57318D01*
X58130Y-57318D01*
X58170Y-57310D01*
X58215Y-57303D01*
X59610Y-56789D01*
X59613Y-56788D01*
X59620Y-56786D01*
X59671Y-56752D01*
X59693Y-56739D01*
X59694Y-56736D01*
X59700Y-56732D01*
X59804Y-56629D01*
X59804Y-56629D01*
X59804Y-56629D01*
X59858Y-56548D01*
X59858Y-56548D01*
X59876Y-56453D01*
X59876Y-56453D01*
X59876Y-56307D01*
X59876Y-55957D01*
X59876Y-55955D01*
X59876Y-55954D01*
X59874Y-55705D01*
X59864Y-55659D01*
X59855Y-55613D01*
X59855Y-55612D01*
X59854Y-55611D01*
X59828Y-55572D01*
X59802Y-55532D01*
X59699Y-55430D01*
X59619Y-55376D01*
X59588Y-55370D01*
X59578Y-55346D01*
X59536Y-55304D01*
X59481Y-55281D01*
X59475Y-55281D01*
X59455Y-53646D01*
X59466Y-53642D01*
X59494Y-53614D01*
X59537Y-53657D01*
X59599Y-53682D01*
X59714Y-53682D01*
X59756Y-53640D01*
X59756Y-53366D01*
X59748Y-53366D01*
X59748Y-53264D01*
X59756Y-53264D01*
X59756Y-52989D01*
X59714Y-52948D01*
X59599Y-52948D01*
X59537Y-52973D01*
X59494Y-53016D01*
X59467Y-52989D01*
X59412Y-52966D01*
X59352Y-52966D01*
X59002Y-52966D01*
X58986Y-52973D01*
X58986Y-52888D01*
X58936Y-52768D01*
X58845Y-52676D01*
X58725Y-52626D01*
X58595Y-52626D01*
X58475Y-52676D01*
X58383Y-52768D01*
X58338Y-52876D01*
X58304Y-52825D01*
X58237Y-52780D01*
X58157Y-52764D01*
X57788Y-52764D01*
X57708Y-52780D01*
X57641Y-52825D01*
X57596Y-52893D01*
X57580Y-52973D01*
X57596Y-53051D01*
X57588Y-53056D01*
X57530Y-53114D01*
X57415Y-53114D01*
X57295Y-53164D01*
X57203Y-53255D01*
X57153Y-53375D01*
X57153Y-53505D01*
X57203Y-53625D01*
X57295Y-53717D01*
X57415Y-53767D01*
X57544Y-53767D01*
X57633Y-53730D01*
X57669Y-53730D01*
X57707Y-53756D01*
X57728Y-53760D01*
X57707Y-53764D01*
X57670Y-53789D01*
X57613Y-53789D01*
X57578Y-53824D01*
X57596Y-53875D01*
X57595Y-53877D01*
X57579Y-53957D01*
X57595Y-54036D01*
X57607Y-54055D01*
X57595Y-54074D01*
X57579Y-54154D01*
X57595Y-54233D01*
X57607Y-54252D01*
X57595Y-54271D01*
X57579Y-54351D01*
X57595Y-54430D01*
X57607Y-54449D01*
X57595Y-54468D01*
X57579Y-54548D01*
X57595Y-54627D01*
X57607Y-54646D01*
X57595Y-54665D01*
X57579Y-54745D01*
X57595Y-54824D01*
X57607Y-54843D01*
X57595Y-54862D01*
X57579Y-54942D01*
X57595Y-55021D01*
X57597Y-55024D01*
X57587Y-55049D01*
X57586Y-55108D01*
X57586Y-55226D01*
X57609Y-55281D01*
X57651Y-55323D01*
X57706Y-55346D01*
X57765Y-55346D01*
X57934Y-55346D01*
X57956Y-55379D01*
X58025Y-55448D01*
X58087Y-55489D01*
X58087Y-55489D01*
X58159Y-55503D01*
X58198Y-55503D01*
X58242Y-55535D01*
X58875Y-55829D01*
X58878Y-55830D01*
X58884Y-55834D01*
X58915Y-55840D01*
X58925Y-55864D01*
X58953Y-55892D01*
X58910Y-55935D01*
X58884Y-55997D01*
X58884Y-56112D01*
X58926Y-56154D01*
X59201Y-56154D01*
X59201Y-56146D01*
X59302Y-56146D01*
X59302Y-56154D01*
X59310Y-56154D01*
X59310Y-56256D01*
X59302Y-56256D01*
X59302Y-56264D01*
X59201Y-56264D01*
X59201Y-56256D01*
X58926Y-56256D01*
X58884Y-56298D01*
X58884Y-56413D01*
X58910Y-56475D01*
X58942Y-56507D01*
X58205Y-56778D01*
X58205Y-56463D01*
X58182Y-56408D01*
X58140Y-56366D01*
X58116Y-56356D01*
X58109Y-56326D01*
X58056Y-56245D01*
X57953Y-56143D01*
X57951Y-56141D01*
X57949Y-56138D01*
X57706Y-55907D01*
X57624Y-55855D01*
X57590Y-55849D01*
X57590Y-55543D01*
X57574Y-55463D01*
X57529Y-55396D01*
X57461Y-55351D01*
X57382Y-55335D01*
X57302Y-55351D01*
X57300Y-55352D01*
X57249Y-55334D01*
X57214Y-55369D01*
X57214Y-55426D01*
X57189Y-55463D01*
X57185Y-55487D01*
X57180Y-55463D01*
X57155Y-55426D01*
X57155Y-55369D01*
X57120Y-55334D01*
X57069Y-55352D01*
X57067Y-55351D01*
X56988Y-55335D01*
X56908Y-55351D01*
X56889Y-55363D01*
X56870Y-55351D01*
X56791Y-55335D01*
X56711Y-55351D01*
X56709Y-55352D01*
X56658Y-55334D01*
X56623Y-55369D01*
X56623Y-55426D01*
X56598Y-55463D01*
X56594Y-55487D01*
X56589Y-55463D01*
X56564Y-55426D01*
X56564Y-55369D01*
X56529Y-55334D01*
X56478Y-55352D01*
X56476Y-55351D01*
X56397Y-55335D01*
X56317Y-55351D01*
X56299Y-55363D01*
X56280Y-55351D01*
X56201Y-55335D01*
X56121Y-55351D01*
X56102Y-55363D01*
X56083Y-55351D01*
X56004Y-55335D01*
X55924Y-55351D01*
X55905Y-55363D01*
X55886Y-55351D01*
X55807Y-55335D01*
X55727Y-55351D01*
X55708Y-55363D01*
X55689Y-55351D01*
X55610Y-55335D01*
X55530Y-55351D01*
X55511Y-55363D01*
X55492Y-55351D01*
X55413Y-55335D01*
X55333Y-55351D01*
X55314Y-55363D01*
X55295Y-55351D01*
X55216Y-55335D01*
X55136Y-55351D01*
X55068Y-55396D01*
X55023Y-55463D01*
X55008Y-55543D01*
X55008Y-55912D01*
X55023Y-55992D01*
X55058Y-56043D01*
X55114Y-56251D01*
X55089Y-56275D01*
X55039Y-56395D01*
X55039Y-56525D01*
X55089Y-56645D01*
X55181Y-56737D01*
X55300Y-56786D01*
X55430Y-56787D01*
X55550Y-56737D01*
X55642Y-56645D01*
X55692Y-56525D01*
X55692Y-56395D01*
X55642Y-56275D01*
X55551Y-56184D01*
X55478Y-56153D01*
X55466Y-56110D01*
X55492Y-56105D01*
X55511Y-56092D01*
X55530Y-56105D01*
X55610Y-56120D01*
X55689Y-56105D01*
X55708Y-56092D01*
X55727Y-56105D01*
X55807Y-56120D01*
X55886Y-56105D01*
X55905Y-56092D01*
X55924Y-56105D01*
X56004Y-56120D01*
X56083Y-56105D01*
X56102Y-56092D01*
X56121Y-56105D01*
X56201Y-56120D01*
X56280Y-56105D01*
X56299Y-56092D01*
X56317Y-56105D01*
X56397Y-56120D01*
X56476Y-56105D01*
X56478Y-56103D01*
X56529Y-56122D01*
X56564Y-56087D01*
X56564Y-56029D01*
X56589Y-55992D01*
X56594Y-55969D01*
X56598Y-55992D01*
X56623Y-56029D01*
X56623Y-56087D01*
X56658Y-56122D01*
X56709Y-56103D01*
X56711Y-56105D01*
X56791Y-56120D01*
X56870Y-56105D01*
X56889Y-56092D01*
X56908Y-56105D01*
X56988Y-56120D01*
X57067Y-56105D01*
X57069Y-56103D01*
X57120Y-56122D01*
X57155Y-56087D01*
X57155Y-56029D01*
X57180Y-55992D01*
X57185Y-55969D01*
X57189Y-55992D01*
X57214Y-56029D01*
X57214Y-56087D01*
X57249Y-56122D01*
X57291Y-56107D01*
X57309Y-56186D01*
X57364Y-56265D01*
X57427Y-56325D01*
X57373Y-56325D01*
X57331Y-56367D01*
X57331Y-56642D01*
X57339Y-56642D01*
X57339Y-56744D01*
X57331Y-56744D01*
X57331Y-57018D01*
X57373Y-57060D01*
X57489Y-57060D01*
X57550Y-57035D01*
X57594Y-56992D01*
X57621Y-57019D01*
X57623Y-57020D01*
X57230Y-57347D01*
X57230Y-57018D01*
X57230Y-56744D01*
X57230Y-56642D01*
X57230Y-56367D01*
X57188Y-56325D01*
X57073Y-56325D01*
X57011Y-56351D01*
X56964Y-56398D01*
X56938Y-56459D01*
X56938Y-56526D01*
X56938Y-56600D01*
X56980Y-56642D01*
X57230Y-56642D01*
X57230Y-56744D01*
X56980Y-56744D01*
X56938Y-56785D01*
X56938Y-56860D01*
X56938Y-56926D01*
X56964Y-56988D01*
X57011Y-57035D01*
X57073Y-57060D01*
X57188Y-57060D01*
X57230Y-57018D01*
X57230Y-57347D01*
X56897Y-57624D01*
X56890Y-57633D01*
X56881Y-57639D01*
X56854Y-57666D01*
X56827Y-57639D01*
X56821Y-57635D01*
X56813Y-57625D01*
X56769Y-57601D01*
X56747Y-57586D01*
X56740Y-57584D01*
X56729Y-57578D01*
X54431Y-56831D01*
X54434Y-56825D01*
X54434Y-56766D01*
X54434Y-56366D01*
X54411Y-56311D01*
X54387Y-56286D01*
X54611Y-55671D01*
X54615Y-55642D01*
X54623Y-55617D01*
X54647Y-55432D01*
X54641Y-55346D01*
X54809Y-55346D01*
X54889Y-55330D01*
X54956Y-55285D01*
X55002Y-55217D01*
X55017Y-55138D01*
X55002Y-55058D01*
X55001Y-55056D01*
X55019Y-55005D01*
X55005Y-54991D01*
X55028Y-54991D01*
X55028Y-54966D01*
X55043Y-54981D01*
X55163Y-55031D01*
X55292Y-55031D01*
X55412Y-54981D01*
X55460Y-54934D01*
X55490Y-55007D01*
X55582Y-55099D01*
X55702Y-55149D01*
X55832Y-55149D01*
X55952Y-55099D01*
X56044Y-55007D01*
X56094Y-54888D01*
X56094Y-54758D01*
X56044Y-54638D01*
X55952Y-54546D01*
X55832Y-54496D01*
X55706Y-54496D01*
X55483Y-54275D01*
X55481Y-54274D01*
X55481Y-54273D01*
X55071Y-53879D01*
X55052Y-53867D01*
X55036Y-53852D01*
X55003Y-53833D01*
X55017Y-53760D01*
X55002Y-53680D01*
X54989Y-53661D01*
X55002Y-53642D01*
X55017Y-53563D01*
X55002Y-53483D01*
X54989Y-53464D01*
X55002Y-53445D01*
X55017Y-53366D01*
X55002Y-53286D01*
X54989Y-53267D01*
X55002Y-53248D01*
X55017Y-53169D01*
X55002Y-53089D01*
X54989Y-53070D01*
X55002Y-53051D01*
X55017Y-52972D01*
X55002Y-52892D01*
X54956Y-52824D01*
X54889Y-52779D01*
X54809Y-52763D01*
X54522Y-52763D01*
X54952Y-51681D01*
X54956Y-51971D01*
X54977Y-52066D01*
X55021Y-52130D01*
X55008Y-52197D01*
X55008Y-52566D01*
X55023Y-52646D01*
X55068Y-52713D01*
X55136Y-52759D01*
X55216Y-52774D01*
X55295Y-52759D01*
X55297Y-52757D01*
X55348Y-52776D01*
X55383Y-52741D01*
X55383Y-52683D01*
X55408Y-52646D01*
X55412Y-52625D01*
X55416Y-52646D01*
X55442Y-52685D01*
X55442Y-52741D01*
X55477Y-52776D01*
X55528Y-52758D01*
X55529Y-52759D01*
X55609Y-52774D01*
X55688Y-52759D01*
X55707Y-52746D01*
X55726Y-52759D01*
X55806Y-52774D01*
X55885Y-52759D01*
X55904Y-52746D01*
X55923Y-52759D01*
X56003Y-52774D01*
X56081Y-52759D01*
X56085Y-52765D01*
X56142Y-52822D01*
X56142Y-52938D01*
X56191Y-53058D01*
X56283Y-53150D01*
X56403Y-53200D01*
X56533Y-53200D01*
X56653Y-53150D01*
X56745Y-53059D01*
X56794Y-52939D01*
X56794Y-52809D01*
X56779Y-52772D01*
X56790Y-52774D01*
X56869Y-52759D01*
X56888Y-52746D01*
X56907Y-52759D01*
X56987Y-52774D01*
X57066Y-52759D01*
X57085Y-52746D01*
X57104Y-52759D01*
X57184Y-52774D01*
X57263Y-52759D01*
X57282Y-52746D01*
X57300Y-52759D01*
X57380Y-52774D01*
X57459Y-52759D01*
X57527Y-52713D01*
X57572Y-52646D01*
X57588Y-52566D01*
X57588Y-52216D01*
X57958Y-52216D01*
X57958Y-52237D01*
X57981Y-52292D01*
X58023Y-52334D01*
X58077Y-52357D01*
X58137Y-52357D01*
X58487Y-52357D01*
X58542Y-52334D01*
X58582Y-52293D01*
X58623Y-52334D01*
X58677Y-52357D01*
X58737Y-52357D01*
X59087Y-52357D01*
X59142Y-52334D01*
X59184Y-52292D01*
X59206Y-52237D01*
X59206Y-52228D01*
X59886Y-52228D01*
X59886Y-52276D01*
X59909Y-52331D01*
X59951Y-52373D01*
X60006Y-52395D01*
X60065Y-52395D01*
X60149Y-52395D01*
X60456Y-53566D01*
X60445Y-53619D01*
X60445Y-53961D01*
X60448Y-53977D01*
X60388Y-53977D01*
X60326Y-54003D01*
X60279Y-54050D01*
X60254Y-54111D01*
X60254Y-54209D01*
X60296Y-54251D01*
X60528Y-54251D01*
X60528Y-54243D01*
X60603Y-54243D01*
X60611Y-54251D01*
X60629Y-54251D01*
X60843Y-54251D01*
X60862Y-54251D01*
X60869Y-54243D01*
X60918Y-54243D01*
X60926Y-54251D01*
X60944Y-54251D01*
X61158Y-54251D01*
X61177Y-54251D01*
X61184Y-54243D01*
X61233Y-54243D01*
X61241Y-54251D01*
X61259Y-54251D01*
X61473Y-54251D01*
X61492Y-54251D01*
X61499Y-54243D01*
X61574Y-54243D01*
X61574Y-54251D01*
X61806Y-54251D01*
X61848Y-54209D01*
X61848Y-54111D01*
X61823Y-54050D01*
X61776Y-54003D01*
X61738Y-53987D01*
X61832Y-53987D01*
X61952Y-53938D01*
X62044Y-53846D01*
X62087Y-53741D01*
X62214Y-53833D01*
X62214Y-53892D01*
X62214Y-54242D01*
X62237Y-54296D01*
X62265Y-54324D01*
X62222Y-54367D01*
X62196Y-54429D01*
X62196Y-54544D01*
X62238Y-54586D01*
X62513Y-54586D01*
X62513Y-54578D01*
X62614Y-54578D01*
X62614Y-54586D01*
X62889Y-54586D01*
X62931Y-54544D01*
X62931Y-54429D01*
X62906Y-54367D01*
X62862Y-54324D01*
X62890Y-54297D01*
X62913Y-54242D01*
X62913Y-54182D01*
X62913Y-53832D01*
X62890Y-53778D01*
X62864Y-53751D01*
X63156Y-53884D01*
X63163Y-53886D01*
X63165Y-53887D01*
X63183Y-53891D01*
X63184Y-53891D01*
X63184Y-54111D01*
X63206Y-54165D01*
X63248Y-54207D01*
X63303Y-54230D01*
X63362Y-54230D01*
X64412Y-54230D01*
X64467Y-54208D01*
X64509Y-54166D01*
X64532Y-54111D01*
X64532Y-54051D01*
X64532Y-53451D01*
X64509Y-53397D01*
X64467Y-53355D01*
X64413Y-53332D01*
X64353Y-53332D01*
X63303Y-53332D01*
X63248Y-53354D01*
X63229Y-53373D01*
X62800Y-53178D01*
X62800Y-52604D01*
X62800Y-52120D01*
X62800Y-52053D01*
X62774Y-51992D01*
X62727Y-51945D01*
X62666Y-51919D01*
X62650Y-51919D01*
X62650Y-51544D01*
X62650Y-51211D01*
X62650Y-51144D01*
X62624Y-51083D01*
X62577Y-51036D01*
X62516Y-51010D01*
X62400Y-51010D01*
X62358Y-51052D01*
X62358Y-51327D01*
X62608Y-51327D01*
X62650Y-51285D01*
X62650Y-51211D01*
X62650Y-51544D01*
X62650Y-51470D01*
X62608Y-51428D01*
X62358Y-51428D01*
X62358Y-51703D01*
X62400Y-51745D01*
X62516Y-51745D01*
X62577Y-51719D01*
X62624Y-51672D01*
X62650Y-51611D01*
X62650Y-51544D01*
X62650Y-51919D01*
X62500Y-51919D01*
X62458Y-51961D01*
X62458Y-52311D01*
X62758Y-52311D01*
X62800Y-52269D01*
X62800Y-52120D01*
X62800Y-52604D01*
X62800Y-52454D01*
X62758Y-52412D01*
X62458Y-52412D01*
X62458Y-52762D01*
X62500Y-52804D01*
X62666Y-52804D01*
X62727Y-52779D01*
X62774Y-52732D01*
X62800Y-52670D01*
X62800Y-52604D01*
X62800Y-53178D01*
X62357Y-52976D01*
X62357Y-52762D01*
X62357Y-52412D01*
X62357Y-52311D01*
X62357Y-51961D01*
X62315Y-51919D01*
X62149Y-51919D01*
X62088Y-51945D01*
X62041Y-51992D01*
X62015Y-52053D01*
X62015Y-52120D01*
X62015Y-52269D01*
X62057Y-52311D01*
X62357Y-52311D01*
X62357Y-52412D01*
X62057Y-52412D01*
X62015Y-52454D01*
X62015Y-52604D01*
X62015Y-52670D01*
X62041Y-52732D01*
X62088Y-52779D01*
X62149Y-52804D01*
X62315Y-52804D01*
X62357Y-52762D01*
X62357Y-52976D01*
X61903Y-52769D01*
X61917Y-52763D01*
X61959Y-52721D01*
X61982Y-52667D01*
X61982Y-52607D01*
X61982Y-52057D01*
X61959Y-52002D01*
X61917Y-51960D01*
X61913Y-51959D01*
X61949Y-51712D01*
X61967Y-51704D01*
X61995Y-51676D01*
X62038Y-51719D01*
X62099Y-51745D01*
X62215Y-51745D01*
X62257Y-51703D01*
X62257Y-51428D01*
X62249Y-51428D01*
X62249Y-51327D01*
X62257Y-51327D01*
X62257Y-51052D01*
X62215Y-51010D01*
X62099Y-51010D01*
X62038Y-51036D01*
X61995Y-51079D01*
X61967Y-51051D01*
X61912Y-51028D01*
X61853Y-51028D01*
X61503Y-51028D01*
X61448Y-51051D01*
X61433Y-51065D01*
X59326Y-50014D01*
X59326Y-49666D01*
X59313Y-49482D01*
X59267Y-49371D01*
X59196Y-49340D01*
X58930Y-49606D01*
X59196Y-49872D01*
X59267Y-49840D01*
X59326Y-49666D01*
X59326Y-50014D01*
X59064Y-49884D01*
X58858Y-49678D01*
X58852Y-49683D01*
X58780Y-49611D01*
X58786Y-49606D01*
X58520Y-49340D01*
X58448Y-49371D01*
X58390Y-49546D01*
X58402Y-49729D01*
X58446Y-49834D01*
X58261Y-49833D01*
X58318Y-49695D01*
X58318Y-49518D01*
X58251Y-49354D01*
X58129Y-49232D01*
X58608Y-49232D01*
X58592Y-49268D01*
X58858Y-49534D01*
X59124Y-49268D01*
X59108Y-49232D01*
X60879Y-49232D01*
X60878Y-49233D01*
X60853Y-49295D01*
X60853Y-49410D01*
X60894Y-49452D01*
X61169Y-49452D01*
X61169Y-49444D01*
X61271Y-49444D01*
X61271Y-49452D01*
X61545Y-49452D01*
X61587Y-49410D01*
X61587Y-49295D01*
X61562Y-49233D01*
X61561Y-49232D01*
X61667Y-49232D01*
X61665Y-49233D01*
X61640Y-49295D01*
X61640Y-49410D01*
X61682Y-49452D01*
X61957Y-49452D01*
X61957Y-49444D01*
X62058Y-49444D01*
X62058Y-49452D01*
X62333Y-49452D01*
X62375Y-49410D01*
X62375Y-49295D01*
X62349Y-49233D01*
X62348Y-49232D01*
X62480Y-49232D01*
X62468Y-49243D01*
X62446Y-49298D01*
X62446Y-49357D01*
X62446Y-49707D01*
X62468Y-49762D01*
X62509Y-49803D01*
X62468Y-49843D01*
X62446Y-49898D01*
X62446Y-49914D01*
X62357Y-49914D01*
X62357Y-49898D01*
X62334Y-49843D01*
X62306Y-49815D01*
X62349Y-49772D01*
X62375Y-49711D01*
X62375Y-49595D01*
X62333Y-49553D01*
X62058Y-49553D01*
X62058Y-49561D01*
X61957Y-49561D01*
X61957Y-49553D01*
X61682Y-49553D01*
X61640Y-49595D01*
X61640Y-49711D01*
X61665Y-49772D01*
X61709Y-49815D01*
X61681Y-49843D01*
X61658Y-49898D01*
X61658Y-49914D01*
X61569Y-49914D01*
X61569Y-49898D01*
X61547Y-49843D01*
X61519Y-49815D01*
X61562Y-49772D01*
X61587Y-49711D01*
X61587Y-49595D01*
X61545Y-49553D01*
X61271Y-49553D01*
X61271Y-49561D01*
X61169Y-49561D01*
X61169Y-49553D01*
X60894Y-49553D01*
X60853Y-49595D01*
X60853Y-49711D01*
X60878Y-49772D01*
X60892Y-49786D01*
X60828Y-49760D01*
X60699Y-49760D01*
X60579Y-49809D01*
X60487Y-49901D01*
X60437Y-50021D01*
X60437Y-50151D01*
X60486Y-50271D01*
X60578Y-50363D01*
X60698Y-50412D01*
X60828Y-50413D01*
X60910Y-50379D01*
X60935Y-50404D01*
X60990Y-50427D01*
X61050Y-50427D01*
X61450Y-50427D01*
X61504Y-50404D01*
X61546Y-50362D01*
X61569Y-50307D01*
X61569Y-50291D01*
X61658Y-50291D01*
X61658Y-50307D01*
X61681Y-50362D01*
X61723Y-50404D01*
X61778Y-50427D01*
X61837Y-50427D01*
X62237Y-50427D01*
X62292Y-50404D01*
X62334Y-50362D01*
X62357Y-50307D01*
X62357Y-50291D01*
X62446Y-50291D01*
X62446Y-50307D01*
X62468Y-50362D01*
X62510Y-50404D01*
X62565Y-50427D01*
X62624Y-50427D01*
X63024Y-50427D01*
X63079Y-50404D01*
X63121Y-50362D01*
X63144Y-50307D01*
X63144Y-50248D01*
X63144Y-49898D01*
X63142Y-49894D01*
X63186Y-49912D01*
X63316Y-49913D01*
X63436Y-49863D01*
X63528Y-49771D01*
X63578Y-49651D01*
X63578Y-49521D01*
X63528Y-49401D01*
X63437Y-49310D01*
X63317Y-49260D01*
X63187Y-49260D01*
X63156Y-49273D01*
X63131Y-49268D01*
X63121Y-49243D01*
X63110Y-49232D01*
X65728Y-49232D01*
X65728Y-53625D01*
X65714Y-53590D01*
X65691Y-53568D01*
X65691Y-49766D01*
X65679Y-49590D01*
X65636Y-49488D01*
X65567Y-49460D01*
X65495Y-49531D01*
X65495Y-49388D01*
X65466Y-49318D01*
X65299Y-49263D01*
X65124Y-49276D01*
X65022Y-49318D01*
X64993Y-49388D01*
X65244Y-49639D01*
X65495Y-49388D01*
X65495Y-49531D01*
X65316Y-49711D01*
X65567Y-49962D01*
X65636Y-49933D01*
X65691Y-49766D01*
X65691Y-53568D01*
X65594Y-53471D01*
X65495Y-53430D01*
X65495Y-50034D01*
X65244Y-49783D01*
X65172Y-49854D01*
X65172Y-49711D01*
X64921Y-49460D01*
X64851Y-49488D01*
X64796Y-49655D01*
X64809Y-49831D01*
X64851Y-49933D01*
X64921Y-49962D01*
X65172Y-49711D01*
X65172Y-49854D01*
X64993Y-50034D01*
X65022Y-50103D01*
X65189Y-50158D01*
X65364Y-50145D01*
X65466Y-50103D01*
X65495Y-50034D01*
X65495Y-53430D01*
X65439Y-53406D01*
X65270Y-53406D01*
X65114Y-53470D01*
X64994Y-53590D01*
X64930Y-53745D01*
X64930Y-53914D01*
X64994Y-54070D01*
X65113Y-54190D01*
X65269Y-54254D01*
X65438Y-54254D01*
X65594Y-54190D01*
X65713Y-54071D01*
X65728Y-54036D01*
X65728Y-54443D01*
X65713Y-54429D01*
X65659Y-54406D01*
X65599Y-54406D01*
X65049Y-54406D01*
X64994Y-54429D01*
X64952Y-54471D01*
X64930Y-54525D01*
X64930Y-54585D01*
X64930Y-55127D01*
X64668Y-55283D01*
X64668Y-49956D01*
X64668Y-49406D01*
X64645Y-49351D01*
X64604Y-49309D01*
X64549Y-49286D01*
X64489Y-49286D01*
X63939Y-49286D01*
X63884Y-49309D01*
X63842Y-49351D01*
X63820Y-49406D01*
X63820Y-49465D01*
X63820Y-50015D01*
X63842Y-50070D01*
X63884Y-50112D01*
X63939Y-50135D01*
X63998Y-50135D01*
X64548Y-50135D01*
X64603Y-50112D01*
X64645Y-50070D01*
X64668Y-50015D01*
X64668Y-49956D01*
X64668Y-55283D01*
X64477Y-55398D01*
X64509Y-55366D01*
X64532Y-55311D01*
X64532Y-55251D01*
X64532Y-54651D01*
X64509Y-54597D01*
X64467Y-54555D01*
X64413Y-54532D01*
X64353Y-54532D01*
X63303Y-54532D01*
X63248Y-54554D01*
X63206Y-54596D01*
X63184Y-54651D01*
X63184Y-54711D01*
X63184Y-54871D01*
X63165Y-54875D01*
X63151Y-54884D01*
X63133Y-54890D01*
X62931Y-55010D01*
X62931Y-54845D01*
X62931Y-54730D01*
X62889Y-54688D01*
X62614Y-54688D01*
X62614Y-54937D01*
X62656Y-54979D01*
X62730Y-54979D01*
X62797Y-54979D01*
X62859Y-54954D01*
X62906Y-54907D01*
X62931Y-54845D01*
X62931Y-55010D01*
X62513Y-55257D01*
X62513Y-54937D01*
X62513Y-54688D01*
X62238Y-54688D01*
X62196Y-54730D01*
X62196Y-54845D01*
X62222Y-54907D01*
X62269Y-54954D01*
X62330Y-54979D01*
X62397Y-54979D01*
X62471Y-54979D01*
X62513Y-54937D01*
X62513Y-55257D01*
X62136Y-55480D01*
X61657Y-55203D01*
X61657Y-54958D01*
X61654Y-54942D01*
X61714Y-54942D01*
X61776Y-54916D01*
X61823Y-54869D01*
X61848Y-54808D01*
X61848Y-54493D01*
X61848Y-54460D01*
X61848Y-54426D01*
X61848Y-54426D01*
X61848Y-54395D01*
X61826Y-54372D01*
X61823Y-54365D01*
X61776Y-54318D01*
X61714Y-54292D01*
X61648Y-54292D01*
X61616Y-54292D01*
X61574Y-54334D01*
X61574Y-54353D01*
X61574Y-54566D01*
X61574Y-54585D01*
X61616Y-54627D01*
X61648Y-54627D01*
X61714Y-54627D01*
X61776Y-54601D01*
X61823Y-54554D01*
X61826Y-54547D01*
X61848Y-54524D01*
X61848Y-54493D01*
X61848Y-54493D01*
X61848Y-54808D01*
X61848Y-54710D01*
X61806Y-54668D01*
X61574Y-54668D01*
X61574Y-54676D01*
X61533Y-54676D01*
X61533Y-54493D01*
X61533Y-54460D01*
X61533Y-54426D01*
X61533Y-54426D01*
X61533Y-54395D01*
X61511Y-54372D01*
X61508Y-54365D01*
X61461Y-54318D01*
X61453Y-54315D01*
X61431Y-54292D01*
X61399Y-54292D01*
X61366Y-54292D01*
X61333Y-54292D01*
X61301Y-54292D01*
X61279Y-54315D01*
X61271Y-54318D01*
X61224Y-54365D01*
X61221Y-54372D01*
X61209Y-54385D01*
X61196Y-54372D01*
X61193Y-54365D01*
X61146Y-54318D01*
X61138Y-54315D01*
X61116Y-54292D01*
X61084Y-54292D01*
X61051Y-54292D01*
X61018Y-54292D01*
X60986Y-54292D01*
X60964Y-54315D01*
X60956Y-54318D01*
X60909Y-54365D01*
X60906Y-54372D01*
X60894Y-54385D01*
X60881Y-54372D01*
X60878Y-54365D01*
X60831Y-54318D01*
X60823Y-54315D01*
X60801Y-54292D01*
X60769Y-54292D01*
X60736Y-54292D01*
X60703Y-54292D01*
X60671Y-54292D01*
X60649Y-54315D01*
X60641Y-54318D01*
X60594Y-54365D01*
X60591Y-54372D01*
X60569Y-54395D01*
X60569Y-54426D01*
X60569Y-54426D01*
X60569Y-54460D01*
X60569Y-54493D01*
X60569Y-54493D01*
X60569Y-54524D01*
X60591Y-54547D01*
X60594Y-54554D01*
X60641Y-54601D01*
X60649Y-54605D01*
X60671Y-54627D01*
X60703Y-54627D01*
X60736Y-54627D01*
X60769Y-54627D01*
X60801Y-54627D01*
X60823Y-54605D01*
X60831Y-54601D01*
X60878Y-54554D01*
X60881Y-54547D01*
X60894Y-54534D01*
X60906Y-54547D01*
X60909Y-54554D01*
X60956Y-54601D01*
X60964Y-54605D01*
X60986Y-54627D01*
X61018Y-54627D01*
X61051Y-54627D01*
X61084Y-54627D01*
X61116Y-54627D01*
X61138Y-54605D01*
X61146Y-54601D01*
X61193Y-54554D01*
X61196Y-54547D01*
X61209Y-54534D01*
X61221Y-54547D01*
X61224Y-54554D01*
X61271Y-54601D01*
X61279Y-54605D01*
X61301Y-54627D01*
X61333Y-54627D01*
X61366Y-54627D01*
X61399Y-54627D01*
X61431Y-54627D01*
X61453Y-54605D01*
X61461Y-54601D01*
X61508Y-54554D01*
X61511Y-54547D01*
X61533Y-54524D01*
X61533Y-54493D01*
X61533Y-54493D01*
X61533Y-54676D01*
X61499Y-54676D01*
X61492Y-54668D01*
X61473Y-54668D01*
X61259Y-54668D01*
X61241Y-54668D01*
X61233Y-54676D01*
X61184Y-54676D01*
X61177Y-54668D01*
X61158Y-54668D01*
X60944Y-54668D01*
X60926Y-54668D01*
X60894Y-54700D01*
X60862Y-54668D01*
X60843Y-54668D01*
X60629Y-54668D01*
X60611Y-54668D01*
X60603Y-54676D01*
X60528Y-54676D01*
X60528Y-54668D01*
X60520Y-54668D01*
X60520Y-54593D01*
X60528Y-54585D01*
X60528Y-54566D01*
X60528Y-54353D01*
X60528Y-54334D01*
X60486Y-54292D01*
X60454Y-54292D01*
X60388Y-54292D01*
X60326Y-54318D01*
X60279Y-54365D01*
X60276Y-54372D01*
X60254Y-54395D01*
X60254Y-54426D01*
X60254Y-54426D01*
X60254Y-54460D01*
X60254Y-54492D01*
X60249Y-54480D01*
X60157Y-54388D01*
X60149Y-54385D01*
X60149Y-53482D01*
X60149Y-53148D01*
X60149Y-53082D01*
X60124Y-53020D01*
X60077Y-52973D01*
X60015Y-52948D01*
X59900Y-52948D01*
X59858Y-52989D01*
X59858Y-53264D01*
X60107Y-53264D01*
X60149Y-53222D01*
X60149Y-53148D01*
X60149Y-53482D01*
X60149Y-53408D01*
X60107Y-53366D01*
X59858Y-53366D01*
X59858Y-53640D01*
X59900Y-53682D01*
X60015Y-53682D01*
X60077Y-53657D01*
X60124Y-53610D01*
X60149Y-53548D01*
X60149Y-53482D01*
X60149Y-54385D01*
X60037Y-54339D01*
X59907Y-54338D01*
X59787Y-54388D01*
X59695Y-54480D01*
X59646Y-54600D01*
X59646Y-54729D01*
X59695Y-54849D01*
X59787Y-54941D01*
X59907Y-54991D01*
X60037Y-54991D01*
X60110Y-54961D01*
X60279Y-55057D01*
X60305Y-55066D01*
X60327Y-55076D01*
X60445Y-55105D01*
X60445Y-55300D01*
X60462Y-55385D01*
X60510Y-55457D01*
X60582Y-55505D01*
X60667Y-55522D01*
X60752Y-55505D01*
X60778Y-55487D01*
X60789Y-55498D01*
X60850Y-55521D01*
X60872Y-55500D01*
X60872Y-55532D01*
X60905Y-55532D01*
X60878Y-55599D01*
X60803Y-55992D01*
X60401Y-55992D01*
X60346Y-56014D01*
X60304Y-56056D01*
X60282Y-56111D01*
X60282Y-56171D01*
X60282Y-56880D01*
X60304Y-56934D01*
X60346Y-56976D01*
X60401Y-56999D01*
X60460Y-56999D01*
X60761Y-56999D01*
X60761Y-57751D01*
X60779Y-57845D01*
X60833Y-57926D01*
X60937Y-58030D01*
X60937Y-58030D01*
X61017Y-58083D01*
X61036Y-58087D01*
X61036Y-58257D01*
X61059Y-58312D01*
X61101Y-58354D01*
X61156Y-58376D01*
X61215Y-58376D01*
X61665Y-58376D01*
X61720Y-58354D01*
X61762Y-58312D01*
X61785Y-58257D01*
X61785Y-58198D01*
X61785Y-57680D01*
X61818Y-57667D01*
X61818Y-57710D01*
X61818Y-57860D01*
X61860Y-57901D01*
X62160Y-57901D01*
X62160Y-57894D01*
X62261Y-57894D01*
X62261Y-57901D01*
X62561Y-57901D01*
X62603Y-57860D01*
X62603Y-57710D01*
X62603Y-57644D01*
X62577Y-57582D01*
X62530Y-57535D01*
X62469Y-57510D01*
X62303Y-57510D01*
X62261Y-57552D01*
X62261Y-57510D01*
X62227Y-57510D01*
X62880Y-57259D01*
X62962Y-57208D01*
X62963Y-57205D01*
X63147Y-57035D01*
X63140Y-57051D01*
X63139Y-57587D01*
X63343Y-58083D01*
X63346Y-58089D01*
X63510Y-58228D01*
X64416Y-57322D01*
X64410Y-57317D01*
X64482Y-57245D01*
X64488Y-57251D01*
X65394Y-56345D01*
X65254Y-56181D01*
X64759Y-55975D01*
X64479Y-55974D01*
X65279Y-55495D01*
X65300Y-55476D01*
X65327Y-55458D01*
X65431Y-55354D01*
X65431Y-55354D01*
X65431Y-55354D01*
X65485Y-55273D01*
X65485Y-55273D01*
X65489Y-55254D01*
X65658Y-55254D01*
X65713Y-55232D01*
X65728Y-55217D01*
X65728Y-56793D01*
X65633Y-56561D01*
X65629Y-56556D01*
X65465Y-56416D01*
X64560Y-57322D01*
X65465Y-58228D01*
X65629Y-58089D01*
X65728Y-57852D01*
X65728Y-58720D01*
X65728Y-58720D01*
G37*
G54D42*
X65728Y-58720D02*
X65394Y-58720D01*
X65394Y-58300D01*
X64488Y-57394D01*
X63582Y-58300D01*
X63721Y-58464D01*
X64216Y-58670D01*
X64753Y-58671D01*
X65249Y-58467D01*
X65254Y-58464D01*
X65394Y-58300D01*
X65394Y-58720D01*
X62603Y-58720D01*
X62603Y-58194D01*
X62603Y-58045D01*
X62561Y-58003D01*
X62261Y-58003D01*
X62261Y-58353D01*
X62303Y-58395D01*
X62469Y-58395D01*
X62530Y-58369D01*
X62577Y-58322D01*
X62603Y-58261D01*
X62603Y-58194D01*
X62603Y-58720D01*
X62160Y-58720D01*
X62160Y-58353D01*
X62160Y-58003D01*
X61860Y-58003D01*
X61818Y-58045D01*
X61818Y-58194D01*
X61818Y-58261D01*
X61844Y-58322D01*
X61891Y-58369D01*
X61952Y-58395D01*
X62118Y-58395D01*
X62160Y-58353D01*
X62160Y-58720D01*
X60660Y-58720D01*
X60660Y-58322D01*
X60647Y-58147D01*
X60604Y-58045D01*
X60535Y-58016D01*
X60463Y-58088D01*
X60463Y-57944D01*
X60434Y-57875D01*
X60267Y-57820D01*
X60092Y-57833D01*
X59990Y-57875D01*
X59961Y-57944D01*
X60212Y-58195D01*
X60463Y-57944D01*
X60463Y-58088D01*
X60284Y-58267D01*
X60535Y-58518D01*
X60604Y-58490D01*
X60660Y-58322D01*
X60660Y-58720D01*
X60463Y-58720D01*
X60463Y-58590D01*
X60212Y-58339D01*
X60140Y-58411D01*
X60140Y-58267D01*
X59889Y-58016D01*
X59820Y-58045D01*
X59765Y-58212D01*
X59777Y-58387D01*
X59820Y-58490D01*
X59889Y-58518D01*
X60140Y-58267D01*
X60140Y-58411D01*
X59961Y-58590D01*
X59990Y-58660D01*
X60157Y-58715D01*
X60332Y-58702D01*
X60434Y-58660D01*
X60463Y-58590D01*
X60463Y-58720D01*
X59636Y-58720D01*
X59636Y-58183D01*
X59572Y-58027D01*
X59453Y-57908D01*
X59297Y-57843D01*
X59128Y-57843D01*
X58972Y-57907D01*
X58853Y-58027D01*
X58788Y-58182D01*
X58788Y-58351D01*
X58852Y-58507D01*
X58971Y-58627D01*
X59127Y-58691D01*
X59296Y-58692D01*
X59452Y-58627D01*
X59572Y-58508D01*
X59636Y-58352D01*
X59636Y-58183D01*
X59636Y-58720D01*
X58636Y-58720D01*
X58636Y-58513D01*
X58636Y-57963D01*
X58614Y-57908D01*
X58572Y-57866D01*
X58517Y-57843D01*
X58458Y-57843D01*
X57908Y-57843D01*
X57853Y-57866D01*
X57811Y-57908D01*
X57788Y-57962D01*
X57788Y-58022D01*
X57788Y-58572D01*
X57811Y-58627D01*
X57852Y-58669D01*
X57907Y-58691D01*
X57967Y-58691D01*
X58517Y-58691D01*
X58572Y-58669D01*
X58614Y-58627D01*
X58636Y-58572D01*
X58636Y-58513D01*
X58636Y-58720D01*
X56279Y-58720D01*
X56279Y-58183D01*
X56214Y-58027D01*
X56095Y-57907D01*
X55939Y-57843D01*
X55770Y-57842D01*
X55614Y-57907D01*
X55494Y-58026D01*
X55429Y-58182D01*
X55429Y-58351D01*
X55494Y-58507D01*
X55613Y-58627D01*
X55769Y-58692D01*
X55938Y-58692D01*
X56094Y-58627D01*
X56214Y-58508D01*
X56278Y-58352D01*
X56279Y-58183D01*
X56279Y-58720D01*
X55302Y-58720D01*
X55302Y-58323D01*
X55289Y-58147D01*
X55247Y-58045D01*
X55177Y-58016D01*
X55105Y-58088D01*
X55105Y-57944D01*
X55076Y-57874D01*
X54909Y-57819D01*
X54733Y-57832D01*
X54631Y-57874D01*
X54602Y-57944D01*
X54854Y-58195D01*
X55105Y-57944D01*
X55105Y-58088D01*
X54926Y-58267D01*
X55177Y-58519D01*
X55247Y-58490D01*
X55302Y-58323D01*
X55302Y-58720D01*
X55105Y-58720D01*
X55105Y-58591D01*
X54854Y-58339D01*
X54782Y-58411D01*
X54782Y-58267D01*
X54530Y-58016D01*
X54461Y-58045D01*
X54406Y-58212D01*
X54419Y-58388D01*
X54461Y-58490D01*
X54530Y-58519D01*
X54782Y-58267D01*
X54782Y-58411D01*
X54602Y-58591D01*
X54631Y-58660D01*
X54798Y-58715D01*
X54974Y-58702D01*
X55076Y-58660D01*
X55105Y-58591D01*
X55105Y-58720D01*
X54279Y-58720D01*
X54279Y-58183D01*
X54214Y-58027D01*
X54095Y-57907D01*
X53939Y-57843D01*
X53770Y-57842D01*
X53614Y-57907D01*
X53494Y-58026D01*
X53429Y-58182D01*
X53429Y-58351D01*
X53494Y-58507D01*
X53613Y-58627D01*
X53769Y-58692D01*
X53938Y-58692D01*
X54094Y-58627D01*
X54214Y-58508D01*
X54278Y-58352D01*
X54279Y-58183D01*
X54279Y-58720D01*
X52726Y-58720D01*
X52726Y-58240D01*
X52718Y-57939D01*
X52618Y-57698D01*
X52516Y-57630D01*
X52444Y-57702D01*
X52444Y-57558D01*
X52376Y-57456D01*
X52226Y-57398D01*
X52226Y-55912D01*
X52226Y-55562D01*
X52226Y-55461D01*
X52226Y-55111D01*
X52184Y-55069D01*
X52019Y-55069D01*
X51957Y-55094D01*
X51939Y-55112D01*
X51939Y-53756D01*
X51939Y-53544D01*
X51693Y-53544D01*
X51662Y-53591D01*
X51698Y-53663D01*
X51782Y-53747D01*
X51892Y-53792D01*
X51939Y-53756D01*
X51939Y-55112D01*
X51910Y-55141D01*
X51884Y-55203D01*
X51884Y-55269D01*
X51884Y-55419D01*
X51926Y-55461D01*
X52226Y-55461D01*
X52226Y-55562D01*
X51926Y-55562D01*
X51884Y-55604D01*
X51884Y-55753D01*
X51884Y-55820D01*
X51910Y-55881D01*
X51957Y-55928D01*
X52019Y-55954D01*
X52184Y-55954D01*
X52226Y-55912D01*
X52226Y-57398D01*
X52095Y-57348D01*
X51793Y-57356D01*
X51552Y-57456D01*
X51484Y-57558D01*
X51964Y-58038D01*
X52444Y-57558D01*
X52444Y-57702D01*
X52036Y-58110D01*
X52516Y-58589D01*
X52618Y-58522D01*
X52726Y-58240D01*
X52726Y-58720D01*
X52405Y-58720D01*
X52444Y-58661D01*
X51964Y-58182D01*
X51892Y-58253D01*
X51892Y-58110D01*
X51413Y-57630D01*
X51311Y-57698D01*
X51203Y-57979D01*
X51211Y-58281D01*
X51311Y-58522D01*
X51413Y-58589D01*
X51892Y-58110D01*
X51892Y-58253D01*
X51484Y-58661D01*
X51523Y-58720D01*
X50256Y-58720D01*
X50299Y-58677D01*
X50324Y-58615D01*
X50324Y-57565D01*
X50324Y-56962D01*
X50324Y-55911D01*
X50299Y-55850D01*
X50252Y-55803D01*
X50190Y-55777D01*
X50124Y-55777D01*
X49954Y-55777D01*
X49912Y-55819D01*
X49912Y-56386D01*
X50282Y-56386D01*
X50324Y-56344D01*
X50324Y-55911D01*
X50324Y-56962D01*
X50324Y-56529D01*
X50282Y-56487D01*
X49912Y-56487D01*
X49912Y-57054D01*
X49954Y-57096D01*
X50124Y-57096D01*
X50190Y-57096D01*
X50252Y-57070D01*
X50299Y-57023D01*
X50324Y-56962D01*
X50324Y-57565D01*
X50299Y-57503D01*
X50252Y-57456D01*
X50190Y-57431D01*
X50124Y-57431D01*
X49954Y-57431D01*
X49912Y-57472D01*
X49912Y-58039D01*
X50282Y-58039D01*
X50324Y-57997D01*
X50324Y-57565D01*
X50324Y-58615D01*
X50324Y-58183D01*
X50282Y-58141D01*
X49912Y-58141D01*
X49912Y-58149D01*
X49811Y-58149D01*
X49811Y-58141D01*
X49803Y-58141D01*
X49803Y-58039D01*
X49811Y-58039D01*
X49811Y-57472D01*
X49769Y-57431D01*
X49600Y-57431D01*
X49547Y-57431D01*
X49547Y-57096D01*
X49600Y-57096D01*
X49769Y-57096D01*
X49811Y-57054D01*
X49811Y-56487D01*
X49811Y-56386D01*
X49811Y-55819D01*
X49769Y-55777D01*
X49600Y-55777D01*
X49533Y-55777D01*
X49472Y-55803D01*
X49424Y-55850D01*
X49399Y-55911D01*
X49399Y-56344D01*
X49441Y-56386D01*
X49811Y-56386D01*
X49811Y-56487D01*
X49441Y-56487D01*
X49438Y-56490D01*
X49437Y-56489D01*
X49370Y-56476D01*
X49360Y-56476D01*
X49360Y-55833D01*
X49360Y-55308D01*
X49360Y-55242D01*
X49334Y-55180D01*
X49287Y-55133D01*
X49281Y-55131D01*
X49281Y-49649D01*
X49269Y-49465D01*
X49223Y-49354D01*
X49151Y-49323D01*
X48885Y-49589D01*
X49151Y-49855D01*
X49223Y-49823D01*
X49281Y-49649D01*
X49281Y-55131D01*
X49226Y-55108D01*
X48793Y-55108D01*
X48751Y-55150D01*
X48751Y-55520D01*
X49318Y-55520D01*
X49360Y-55478D01*
X49360Y-55308D01*
X49360Y-55833D01*
X49360Y-55663D01*
X49318Y-55621D01*
X48751Y-55621D01*
X48751Y-55991D01*
X48793Y-56033D01*
X49226Y-56033D01*
X49287Y-56008D01*
X49334Y-55961D01*
X49360Y-55899D01*
X49360Y-55833D01*
X49360Y-56476D01*
X48650Y-56476D01*
X48592Y-56476D01*
X48592Y-56401D01*
X48550Y-56359D01*
X48385Y-56359D01*
X48385Y-56367D01*
X48307Y-56367D01*
X48307Y-56359D01*
X48294Y-56359D01*
X48142Y-56359D01*
X48129Y-56359D01*
X48129Y-56367D01*
X48062Y-56367D01*
X48062Y-56250D01*
X48129Y-56250D01*
X48129Y-56258D01*
X48142Y-56258D01*
X48294Y-56258D01*
X48307Y-56258D01*
X48307Y-56250D01*
X48385Y-56250D01*
X48385Y-56258D01*
X48550Y-56258D01*
X48592Y-56216D01*
X48592Y-56033D01*
X48608Y-56033D01*
X48650Y-55991D01*
X48650Y-55621D01*
X48650Y-55520D01*
X48650Y-55150D01*
X48608Y-55108D01*
X48437Y-55108D01*
X48437Y-54394D01*
X48437Y-53911D01*
X48437Y-53844D01*
X48411Y-53783D01*
X48364Y-53735D01*
X48303Y-53710D01*
X48137Y-53710D01*
X48095Y-53752D01*
X48095Y-54102D01*
X48395Y-54102D01*
X48437Y-54060D01*
X48437Y-53911D01*
X48437Y-54394D01*
X48437Y-54245D01*
X48395Y-54203D01*
X48095Y-54203D01*
X48095Y-54553D01*
X48137Y-54595D01*
X48303Y-54595D01*
X48364Y-54569D01*
X48411Y-54522D01*
X48437Y-54461D01*
X48437Y-54394D01*
X48437Y-55108D01*
X48175Y-55108D01*
X48114Y-55133D01*
X48066Y-55180D01*
X48041Y-55242D01*
X48041Y-55308D01*
X48041Y-55478D01*
X48083Y-55520D01*
X48650Y-55520D01*
X48650Y-55621D01*
X48083Y-55621D01*
X48041Y-55663D01*
X48041Y-55833D01*
X48041Y-55895D01*
X48041Y-55895D01*
X48039Y-55895D01*
X48039Y-55926D01*
X48009Y-55895D01*
X47994Y-55895D01*
X47994Y-54553D01*
X47994Y-54203D01*
X47994Y-54102D01*
X47994Y-53752D01*
X47952Y-53710D01*
X47786Y-53710D01*
X47725Y-53735D01*
X47678Y-53783D01*
X47652Y-53844D01*
X47652Y-53911D01*
X47652Y-54060D01*
X47694Y-54102D01*
X47994Y-54102D01*
X47994Y-54203D01*
X47694Y-54203D01*
X47652Y-54245D01*
X47652Y-54394D01*
X47652Y-54461D01*
X47678Y-54522D01*
X47725Y-54569D01*
X47786Y-54595D01*
X47952Y-54595D01*
X47994Y-54553D01*
X47994Y-55895D01*
X47978Y-55895D01*
X47934Y-55913D01*
X47883Y-55913D01*
X47726Y-55913D01*
X47706Y-55921D01*
X47687Y-55913D01*
X47627Y-55913D01*
X47622Y-55913D01*
X47627Y-55899D01*
X47627Y-55833D01*
X47627Y-55308D01*
X47627Y-55242D01*
X47602Y-55180D01*
X47555Y-55133D01*
X47493Y-55108D01*
X47061Y-55108D01*
X47019Y-55150D01*
X47019Y-55520D01*
X47586Y-55520D01*
X47627Y-55478D01*
X47627Y-55308D01*
X47627Y-55833D01*
X47627Y-55663D01*
X47586Y-55621D01*
X47019Y-55621D01*
X47019Y-55629D01*
X46917Y-55629D01*
X46917Y-55621D01*
X46909Y-55621D01*
X46909Y-55520D01*
X46917Y-55520D01*
X46917Y-55150D01*
X46875Y-55108D01*
X46544Y-55108D01*
X46550Y-54959D01*
X46685Y-54824D01*
X46967Y-54567D01*
X46990Y-54577D01*
X47049Y-54577D01*
X47499Y-54577D01*
X47554Y-54554D01*
X47596Y-54512D01*
X47619Y-54457D01*
X47619Y-54398D01*
X47619Y-53848D01*
X47596Y-53793D01*
X47554Y-53751D01*
X47499Y-53728D01*
X47440Y-53728D01*
X47436Y-53728D01*
X47349Y-53182D01*
X47349Y-53182D01*
X47349Y-53123D01*
X47349Y-52823D01*
X47326Y-52768D01*
X47284Y-52726D01*
X47230Y-52703D01*
X47170Y-52703D01*
X46970Y-52703D01*
X46915Y-52726D01*
X46873Y-52768D01*
X46851Y-52822D01*
X46850Y-52882D01*
X46850Y-53182D01*
X46852Y-53186D01*
X46852Y-53194D01*
X46856Y-53213D01*
X46855Y-53233D01*
X46938Y-53750D01*
X46935Y-53751D01*
X46893Y-53793D01*
X46870Y-53848D01*
X46870Y-53907D01*
X46870Y-54016D01*
X46862Y-54017D01*
X46857Y-54020D01*
X46851Y-54021D01*
X46815Y-54046D01*
X46779Y-54067D01*
X46347Y-54462D01*
X46344Y-54467D01*
X46339Y-54470D01*
X46131Y-54678D01*
X46109Y-54710D01*
X46081Y-54749D01*
X46080Y-54754D01*
X46078Y-54758D01*
X46070Y-54796D01*
X46059Y-54843D01*
X46046Y-55175D01*
X46047Y-55180D01*
X46046Y-55185D01*
X46046Y-55775D01*
X46046Y-55777D01*
X45899Y-55777D01*
X45857Y-55819D01*
X45857Y-56386D01*
X46227Y-56386D01*
X46269Y-56344D01*
X46269Y-56237D01*
X46286Y-56244D01*
X46303Y-56255D01*
X46331Y-56260D01*
X46358Y-56270D01*
X47023Y-56378D01*
X47094Y-56376D01*
X47094Y-56476D01*
X46299Y-56476D01*
X46231Y-56489D01*
X46230Y-56490D01*
X46227Y-56487D01*
X45857Y-56487D01*
X45857Y-57054D01*
X45899Y-57096D01*
X46069Y-57096D01*
X46122Y-57096D01*
X46122Y-57431D01*
X46069Y-57431D01*
X45899Y-57431D01*
X45857Y-57472D01*
X45857Y-58039D01*
X45865Y-58039D01*
X45865Y-58141D01*
X45857Y-58141D01*
X45857Y-58149D01*
X45756Y-58149D01*
X45756Y-58141D01*
X45748Y-58141D01*
X45748Y-58039D01*
X45756Y-58039D01*
X45756Y-57472D01*
X45714Y-57431D01*
X45570Y-57431D01*
X45570Y-57096D01*
X45714Y-57096D01*
X45756Y-57054D01*
X45756Y-56487D01*
X45748Y-56487D01*
X45748Y-56386D01*
X45756Y-56386D01*
X45756Y-55819D01*
X45714Y-55777D01*
X45570Y-55777D01*
X45570Y-49232D01*
X46573Y-49232D01*
X46468Y-49337D01*
X46400Y-49500D01*
X46400Y-49677D01*
X46468Y-49840D01*
X46593Y-49966D01*
X46738Y-50026D01*
X46908Y-50501D01*
X46881Y-50528D01*
X46858Y-50583D01*
X46858Y-50643D01*
X46858Y-51193D01*
X46881Y-51247D01*
X46923Y-51289D01*
X46926Y-51291D01*
X46855Y-51775D01*
X46856Y-51793D01*
X46852Y-51811D01*
X46852Y-51819D01*
X46851Y-51822D01*
X46850Y-51882D01*
X46850Y-52182D01*
X46852Y-52186D01*
X46852Y-52194D01*
X46871Y-52288D01*
X46925Y-52369D01*
X46983Y-52427D01*
X47013Y-52447D01*
X47041Y-52470D01*
X47184Y-52547D01*
X47213Y-52556D01*
X47241Y-52570D01*
X47342Y-52595D01*
X47432Y-52685D01*
X47552Y-52735D01*
X47656Y-52735D01*
X47623Y-52768D01*
X47601Y-52822D01*
X47600Y-52882D01*
X47600Y-53182D01*
X47623Y-53237D01*
X47665Y-53279D01*
X47720Y-53301D01*
X47779Y-53301D01*
X47979Y-53301D01*
X48034Y-53279D01*
X48076Y-53237D01*
X48099Y-53182D01*
X48099Y-53169D01*
X48388Y-53169D01*
X48408Y-53219D01*
X48450Y-53261D01*
X48505Y-53284D01*
X48564Y-53284D01*
X48964Y-53284D01*
X49019Y-53261D01*
X49061Y-53219D01*
X49084Y-53164D01*
X49084Y-53105D01*
X49084Y-52755D01*
X49061Y-52700D01*
X49033Y-52672D01*
X49077Y-52629D01*
X49102Y-52568D01*
X49102Y-52151D01*
X49079Y-52097D01*
X49079Y-49927D01*
X48813Y-49661D01*
X48741Y-49732D01*
X48741Y-49589D01*
X48475Y-49323D01*
X48404Y-49354D01*
X48345Y-49529D01*
X48358Y-49712D01*
X48404Y-49823D01*
X48475Y-49855D01*
X48741Y-49589D01*
X48741Y-49732D01*
X48547Y-49927D01*
X48579Y-49998D01*
X48753Y-50057D01*
X48937Y-50044D01*
X49048Y-49998D01*
X49079Y-49927D01*
X49079Y-52097D01*
X49077Y-52090D01*
X49029Y-52043D01*
X48968Y-52017D01*
X48901Y-52017D01*
X48827Y-52017D01*
X48785Y-52059D01*
X48785Y-52309D01*
X49060Y-52309D01*
X49102Y-52267D01*
X49102Y-52151D01*
X49102Y-52568D01*
X49102Y-52452D01*
X49060Y-52410D01*
X48785Y-52410D01*
X48785Y-52418D01*
X48684Y-52418D01*
X48684Y-52410D01*
X48684Y-52309D01*
X48684Y-52059D01*
X48642Y-52017D01*
X48568Y-52017D01*
X48501Y-52017D01*
X48440Y-52043D01*
X48393Y-52090D01*
X48367Y-52151D01*
X48367Y-52267D01*
X48409Y-52309D01*
X48684Y-52309D01*
X48684Y-52410D01*
X48409Y-52410D01*
X48367Y-52452D01*
X48367Y-52568D01*
X48393Y-52629D01*
X48436Y-52672D01*
X48408Y-52700D01*
X48385Y-52755D01*
X48385Y-52792D01*
X48086Y-52792D01*
X48076Y-52768D01*
X48034Y-52726D01*
X47980Y-52703D01*
X47920Y-52703D01*
X47761Y-52703D01*
X47802Y-52686D01*
X47894Y-52594D01*
X47944Y-52474D01*
X47944Y-52344D01*
X47926Y-52301D01*
X47979Y-52301D01*
X48034Y-52279D01*
X48076Y-52237D01*
X48099Y-52182D01*
X48099Y-52126D01*
X48132Y-52104D01*
X48201Y-52035D01*
X48215Y-52014D01*
X48231Y-51996D01*
X48287Y-51901D01*
X48324Y-51901D01*
X48444Y-51851D01*
X48536Y-51759D01*
X48586Y-51640D01*
X48586Y-51510D01*
X48536Y-51390D01*
X48444Y-51298D01*
X48384Y-51273D01*
X48399Y-51258D01*
X48425Y-51196D01*
X48425Y-51130D01*
X48425Y-50646D01*
X48425Y-50580D01*
X48399Y-50518D01*
X48352Y-50471D01*
X48290Y-50446D01*
X48125Y-50446D01*
X48083Y-50487D01*
X48083Y-50837D01*
X48383Y-50837D01*
X48425Y-50795D01*
X48425Y-50646D01*
X48425Y-51130D01*
X48425Y-50981D01*
X48383Y-50939D01*
X48083Y-50939D01*
X48083Y-51288D01*
X48087Y-51292D01*
X48075Y-51297D01*
X47983Y-51389D01*
X47981Y-51393D01*
X47981Y-51288D01*
X47981Y-50939D01*
X47981Y-50837D01*
X47981Y-50487D01*
X47940Y-50446D01*
X47774Y-50446D01*
X47713Y-50471D01*
X47665Y-50518D01*
X47640Y-50580D01*
X47640Y-50646D01*
X47640Y-50795D01*
X47682Y-50837D01*
X47981Y-50837D01*
X47981Y-50939D01*
X47682Y-50939D01*
X47640Y-50981D01*
X47640Y-51130D01*
X47640Y-51196D01*
X47665Y-51258D01*
X47713Y-51305D01*
X47774Y-51330D01*
X47940Y-51330D01*
X47981Y-51288D01*
X47981Y-51393D01*
X47933Y-51509D01*
X47933Y-51639D01*
X47959Y-51703D01*
X47920Y-51703D01*
X47720Y-51703D01*
X47679Y-51720D01*
X47669Y-51710D01*
X47608Y-51685D01*
X47567Y-51685D01*
X47525Y-51727D01*
X47525Y-51951D01*
X47533Y-51951D01*
X47533Y-52053D01*
X47525Y-52053D01*
X47525Y-52061D01*
X47425Y-52061D01*
X47425Y-52053D01*
X47416Y-52053D01*
X47416Y-51951D01*
X47425Y-51951D01*
X47425Y-51727D01*
X47383Y-51685D01*
X47369Y-51685D01*
X47424Y-51312D01*
X47487Y-51312D01*
X47542Y-51290D01*
X47584Y-51248D01*
X47606Y-51193D01*
X47606Y-51133D01*
X47606Y-50583D01*
X47584Y-50529D01*
X47542Y-50487D01*
X47487Y-50464D01*
X47428Y-50464D01*
X47419Y-50464D01*
X47418Y-50456D01*
X47204Y-49858D01*
X47222Y-49841D01*
X47289Y-49678D01*
X47290Y-49501D01*
X47222Y-49337D01*
X47117Y-49232D01*
X47557Y-49232D01*
X47452Y-49337D01*
X47384Y-49500D01*
X47384Y-49677D01*
X47452Y-49840D01*
X47577Y-49966D01*
X47740Y-50033D01*
X47917Y-50034D01*
X48081Y-49966D01*
X48206Y-49841D01*
X48274Y-49678D01*
X48274Y-49501D01*
X48206Y-49337D01*
X48101Y-49232D01*
X48556Y-49232D01*
X48547Y-49251D01*
X48813Y-49517D01*
X49079Y-49251D01*
X49071Y-49232D01*
X51214Y-49232D01*
X51214Y-50366D01*
X51237Y-50421D01*
X51279Y-50463D01*
X51333Y-50486D01*
X51393Y-50486D01*
X52574Y-50486D01*
X52629Y-50463D01*
X52671Y-50421D01*
X52693Y-50367D01*
X52693Y-50307D01*
X52693Y-49924D01*
X53108Y-49924D01*
X53125Y-49965D01*
X53167Y-50007D01*
X53222Y-50030D01*
X53282Y-50030D01*
X53832Y-50030D01*
X53872Y-50013D01*
X53656Y-50491D01*
X53656Y-50495D01*
X53653Y-50498D01*
X53647Y-50529D01*
X53623Y-50539D01*
X53595Y-50567D01*
X53552Y-50524D01*
X53490Y-50498D01*
X53375Y-50498D01*
X53333Y-50540D01*
X53333Y-50815D01*
X53341Y-50815D01*
X53341Y-50916D01*
X53333Y-50916D01*
X53333Y-51191D01*
X53375Y-51233D01*
X53490Y-51233D01*
X53552Y-51208D01*
X53595Y-51164D01*
X53623Y-51192D01*
X53635Y-51197D01*
X53635Y-51426D01*
X53610Y-51426D01*
X53555Y-51448D01*
X53513Y-51490D01*
X53490Y-51545D01*
X53490Y-51604D01*
X53490Y-52154D01*
X53496Y-52168D01*
X53456Y-52207D01*
X53456Y-52092D01*
X53456Y-51608D01*
X53456Y-51541D01*
X53431Y-51480D01*
X53384Y-51433D01*
X53322Y-51408D01*
X53231Y-51408D01*
X53231Y-51191D01*
X53231Y-50916D01*
X53231Y-50815D01*
X53231Y-50540D01*
X53190Y-50498D01*
X53074Y-50498D01*
X53013Y-50524D01*
X52965Y-50571D01*
X52940Y-50632D01*
X52940Y-50699D01*
X52940Y-50773D01*
X52982Y-50815D01*
X53231Y-50815D01*
X53231Y-50916D01*
X52982Y-50916D01*
X52940Y-50958D01*
X52940Y-51033D01*
X52940Y-51099D01*
X52965Y-51161D01*
X53013Y-51208D01*
X53074Y-51233D01*
X53190Y-51233D01*
X53231Y-51191D01*
X53231Y-51408D01*
X53157Y-51408D01*
X53115Y-51449D01*
X53115Y-51799D01*
X53415Y-51799D01*
X53456Y-51757D01*
X53456Y-51608D01*
X53456Y-52092D01*
X53456Y-51943D01*
X53415Y-51901D01*
X53115Y-51901D01*
X53115Y-52250D01*
X53157Y-52292D01*
X53322Y-52292D01*
X53384Y-52267D01*
X53431Y-52220D01*
X53456Y-52158D01*
X53456Y-52092D01*
X53456Y-52207D01*
X53264Y-52398D01*
X53177Y-52398D01*
X53173Y-52398D01*
X53167Y-52398D01*
X53013Y-52404D01*
X53013Y-52250D01*
X53013Y-51901D01*
X53013Y-51799D01*
X53013Y-51449D01*
X52971Y-51408D01*
X52806Y-51408D01*
X52744Y-51433D01*
X52697Y-51480D01*
X52672Y-51541D01*
X52672Y-51608D01*
X52672Y-51757D01*
X52714Y-51799D01*
X53013Y-51799D01*
X53013Y-51901D01*
X52714Y-51901D01*
X52672Y-51943D01*
X52672Y-52092D01*
X52672Y-52158D01*
X52697Y-52220D01*
X52744Y-52267D01*
X52806Y-52292D01*
X52971Y-52292D01*
X53013Y-52250D01*
X53013Y-52404D01*
X52637Y-52419D01*
X52619Y-52423D01*
X52601Y-52423D01*
X52570Y-52429D01*
X52466Y-52386D01*
X52336Y-52386D01*
X52251Y-52421D01*
X52240Y-52419D01*
X52094Y-52419D01*
X51999Y-52438D01*
X51919Y-52492D01*
X51815Y-52595D01*
X51761Y-52676D01*
X51755Y-52706D01*
X51729Y-52717D01*
X51687Y-52759D01*
X51664Y-52814D01*
X51664Y-52873D01*
X51664Y-53149D01*
X51686Y-53204D01*
X51728Y-53246D01*
X51762Y-53260D01*
X51698Y-53324D01*
X51662Y-53396D01*
X51693Y-53443D01*
X51939Y-53443D01*
X51939Y-53435D01*
X52041Y-53435D01*
X52041Y-53443D01*
X52288Y-53443D01*
X52318Y-53396D01*
X52282Y-53324D01*
X52218Y-53260D01*
X52251Y-53246D01*
X52293Y-53204D01*
X52316Y-53149D01*
X52316Y-53090D01*
X52316Y-53030D01*
X52336Y-53038D01*
X52393Y-53038D01*
X52422Y-53065D01*
X52427Y-53092D01*
X52490Y-53185D01*
X52569Y-53238D01*
X52490Y-53291D01*
X52427Y-53384D01*
X52405Y-53494D01*
X52427Y-53604D01*
X52490Y-53697D01*
X52583Y-53759D01*
X52637Y-53770D01*
X52804Y-54106D01*
X52764Y-54067D01*
X52703Y-54042D01*
X52587Y-54042D01*
X52546Y-54083D01*
X52546Y-54358D01*
X52553Y-54358D01*
X52553Y-54460D01*
X52546Y-54460D01*
X52546Y-54734D01*
X52587Y-54776D01*
X52703Y-54776D01*
X52764Y-54751D01*
X52808Y-54708D01*
X52835Y-54735D01*
X52847Y-54740D01*
X52847Y-55087D01*
X52822Y-55087D01*
X52767Y-55110D01*
X52725Y-55152D01*
X52702Y-55207D01*
X52702Y-55266D01*
X52702Y-55816D01*
X52725Y-55871D01*
X52737Y-55883D01*
X52669Y-56013D01*
X52669Y-55753D01*
X52669Y-55269D01*
X52669Y-55203D01*
X52643Y-55141D01*
X52596Y-55094D01*
X52535Y-55069D01*
X52444Y-55069D01*
X52444Y-54734D01*
X52444Y-54460D01*
X52444Y-54358D01*
X52444Y-54083D01*
X52402Y-54042D01*
X52318Y-54042D01*
X52318Y-53591D01*
X52288Y-53544D01*
X52041Y-53544D01*
X52041Y-53756D01*
X52088Y-53792D01*
X52198Y-53747D01*
X52282Y-53663D01*
X52318Y-53591D01*
X52318Y-54042D01*
X52287Y-54042D01*
X52225Y-54067D01*
X52178Y-54114D01*
X52152Y-54176D01*
X52152Y-54242D01*
X52152Y-54316D01*
X52194Y-54358D01*
X52444Y-54358D01*
X52444Y-54460D01*
X52194Y-54460D01*
X52152Y-54502D01*
X52152Y-54576D01*
X52152Y-54642D01*
X52178Y-54704D01*
X52225Y-54751D01*
X52287Y-54776D01*
X52402Y-54776D01*
X52444Y-54734D01*
X52444Y-55069D01*
X52369Y-55069D01*
X52327Y-55111D01*
X52327Y-55461D01*
X52627Y-55461D01*
X52669Y-55419D01*
X52669Y-55269D01*
X52669Y-55753D01*
X52669Y-55604D01*
X52627Y-55562D01*
X52327Y-55562D01*
X52327Y-55912D01*
X52369Y-55954D01*
X52535Y-55954D01*
X52596Y-55928D01*
X52643Y-55881D01*
X52669Y-55820D01*
X52669Y-55753D01*
X52669Y-56013D01*
X52504Y-56328D01*
X52501Y-56339D01*
X52495Y-56348D01*
X52488Y-56385D01*
X52477Y-56421D01*
X52478Y-56432D01*
X52476Y-56443D01*
X52476Y-56737D01*
X52495Y-56832D01*
X52549Y-56912D01*
X52756Y-57120D01*
X52788Y-57141D01*
X52818Y-57165D01*
X52828Y-57168D01*
X52837Y-57173D01*
X52874Y-57181D01*
X52911Y-57191D01*
X53241Y-57219D01*
X53250Y-57218D01*
X53261Y-57220D01*
X54033Y-57223D01*
X56429Y-58001D01*
X56429Y-58021D01*
X56429Y-58572D01*
X56452Y-58627D01*
X56494Y-58669D01*
X56549Y-58692D01*
X56608Y-58692D01*
X57159Y-58692D01*
X57214Y-58669D01*
X57256Y-58627D01*
X57279Y-58573D01*
X57279Y-58513D01*
X57279Y-57962D01*
X57275Y-57954D01*
X58039Y-57318D01*
X58130Y-57318D01*
X58170Y-57310D01*
X58215Y-57303D01*
X59610Y-56789D01*
X59613Y-56788D01*
X59620Y-56786D01*
X59671Y-56752D01*
X59693Y-56739D01*
X59694Y-56736D01*
X59700Y-56732D01*
X59804Y-56629D01*
X59804Y-56629D01*
X59804Y-56629D01*
X59858Y-56548D01*
X59858Y-56548D01*
X59876Y-56453D01*
X59876Y-56453D01*
X59876Y-56307D01*
X59876Y-55957D01*
X59876Y-55955D01*
X59876Y-55954D01*
X59874Y-55705D01*
X59864Y-55659D01*
X59855Y-55613D01*
X59855Y-55612D01*
X59854Y-55611D01*
X59828Y-55572D01*
X59802Y-55532D01*
X59699Y-55430D01*
X59619Y-55376D01*
X59588Y-55370D01*
X59578Y-55346D01*
X59536Y-55304D01*
X59481Y-55281D01*
X59475Y-55281D01*
X59455Y-53646D01*
X59466Y-53642D01*
X59494Y-53614D01*
X59537Y-53657D01*
X59599Y-53682D01*
X59714Y-53682D01*
X59756Y-53640D01*
X59756Y-53366D01*
X59748Y-53366D01*
X59748Y-53264D01*
X59756Y-53264D01*
X59756Y-52989D01*
X59714Y-52948D01*
X59599Y-52948D01*
X59537Y-52973D01*
X59494Y-53016D01*
X59467Y-52989D01*
X59412Y-52966D01*
X59352Y-52966D01*
X59002Y-52966D01*
X58986Y-52973D01*
X58986Y-52888D01*
X58936Y-52768D01*
X58845Y-52676D01*
X58725Y-52626D01*
X58595Y-52626D01*
X58475Y-52676D01*
X58383Y-52768D01*
X58338Y-52876D01*
X58304Y-52825D01*
X58237Y-52780D01*
X58157Y-52764D01*
X57788Y-52764D01*
X57708Y-52780D01*
X57641Y-52825D01*
X57596Y-52893D01*
X57580Y-52973D01*
X57596Y-53051D01*
X57588Y-53056D01*
X57530Y-53114D01*
X57415Y-53114D01*
X57295Y-53164D01*
X57203Y-53255D01*
X57153Y-53375D01*
X57153Y-53505D01*
X57203Y-53625D01*
X57295Y-53717D01*
X57415Y-53767D01*
X57544Y-53767D01*
X57633Y-53730D01*
X57669Y-53730D01*
X57707Y-53756D01*
X57728Y-53760D01*
X57707Y-53764D01*
X57670Y-53789D01*
X57613Y-53789D01*
X57578Y-53824D01*
X57596Y-53875D01*
X57595Y-53877D01*
X57579Y-53957D01*
X57595Y-54036D01*
X57607Y-54055D01*
X57595Y-54074D01*
X57579Y-54154D01*
X57595Y-54233D01*
X57607Y-54252D01*
X57595Y-54271D01*
X57579Y-54351D01*
X57595Y-54430D01*
X57607Y-54449D01*
X57595Y-54468D01*
X57579Y-54548D01*
X57595Y-54627D01*
X57607Y-54646D01*
X57595Y-54665D01*
X57579Y-54745D01*
X57595Y-54824D01*
X57607Y-54843D01*
X57595Y-54862D01*
X57579Y-54942D01*
X57595Y-55021D01*
X57597Y-55024D01*
X57587Y-55049D01*
X57586Y-55108D01*
X57586Y-55226D01*
X57609Y-55281D01*
X57651Y-55323D01*
X57706Y-55346D01*
X57765Y-55346D01*
X57934Y-55346D01*
X57956Y-55379D01*
X58025Y-55448D01*
X58087Y-55489D01*
X58087Y-55489D01*
X58159Y-55503D01*
X58198Y-55503D01*
X58242Y-55535D01*
X58875Y-55829D01*
X58878Y-55830D01*
X58884Y-55834D01*
X58915Y-55840D01*
X58925Y-55864D01*
X58953Y-55892D01*
X58910Y-55935D01*
X58884Y-55997D01*
X58884Y-56112D01*
X58926Y-56154D01*
X59201Y-56154D01*
X59201Y-56146D01*
X59302Y-56146D01*
X59302Y-56154D01*
X59310Y-56154D01*
X59310Y-56256D01*
X59302Y-56256D01*
X59302Y-56264D01*
X59201Y-56264D01*
X59201Y-56256D01*
X58926Y-56256D01*
X58884Y-56298D01*
X58884Y-56413D01*
X58910Y-56475D01*
X58942Y-56507D01*
X58205Y-56778D01*
X58205Y-56463D01*
X58182Y-56408D01*
X58140Y-56366D01*
X58116Y-56356D01*
X58109Y-56326D01*
X58056Y-56245D01*
X57953Y-56143D01*
X57951Y-56141D01*
X57949Y-56138D01*
X57706Y-55907D01*
X57624Y-55855D01*
X57590Y-55849D01*
X57590Y-55543D01*
X57574Y-55463D01*
X57529Y-55396D01*
X57461Y-55351D01*
X57382Y-55335D01*
X57302Y-55351D01*
X57300Y-55352D01*
X57249Y-55334D01*
X57214Y-55369D01*
X57214Y-55426D01*
X57189Y-55463D01*
X57185Y-55487D01*
X57180Y-55463D01*
X57155Y-55426D01*
X57155Y-55369D01*
X57120Y-55334D01*
X57069Y-55352D01*
X57067Y-55351D01*
X56988Y-55335D01*
X56908Y-55351D01*
X56889Y-55363D01*
X56870Y-55351D01*
X56791Y-55335D01*
X56711Y-55351D01*
X56709Y-55352D01*
X56658Y-55334D01*
X56623Y-55369D01*
X56623Y-55426D01*
X56598Y-55463D01*
X56594Y-55487D01*
X56589Y-55463D01*
X56564Y-55426D01*
X56564Y-55369D01*
X56529Y-55334D01*
X56478Y-55352D01*
X56476Y-55351D01*
X56397Y-55335D01*
X56317Y-55351D01*
X56299Y-55363D01*
X56280Y-55351D01*
X56201Y-55335D01*
X56121Y-55351D01*
X56102Y-55363D01*
X56083Y-55351D01*
X56004Y-55335D01*
X55924Y-55351D01*
X55905Y-55363D01*
X55886Y-55351D01*
X55807Y-55335D01*
X55727Y-55351D01*
X55708Y-55363D01*
X55689Y-55351D01*
X55610Y-55335D01*
X55530Y-55351D01*
X55511Y-55363D01*
X55492Y-55351D01*
X55413Y-55335D01*
X55333Y-55351D01*
X55314Y-55363D01*
X55295Y-55351D01*
X55216Y-55335D01*
X55136Y-55351D01*
X55068Y-55396D01*
X55023Y-55463D01*
X55008Y-55543D01*
X55008Y-55912D01*
X55023Y-55992D01*
X55058Y-56043D01*
X55114Y-56251D01*
X55089Y-56275D01*
X55039Y-56395D01*
X55039Y-56525D01*
X55089Y-56645D01*
X55181Y-56737D01*
X55300Y-56786D01*
X55430Y-56787D01*
X55550Y-56737D01*
X55642Y-56645D01*
X55692Y-56525D01*
X55692Y-56395D01*
X55642Y-56275D01*
X55551Y-56184D01*
X55478Y-56153D01*
X55466Y-56110D01*
X55492Y-56105D01*
X55511Y-56092D01*
X55530Y-56105D01*
X55610Y-56120D01*
X55689Y-56105D01*
X55708Y-56092D01*
X55727Y-56105D01*
X55807Y-56120D01*
X55886Y-56105D01*
X55905Y-56092D01*
X55924Y-56105D01*
X56004Y-56120D01*
X56083Y-56105D01*
X56102Y-56092D01*
X56121Y-56105D01*
X56201Y-56120D01*
X56280Y-56105D01*
X56299Y-56092D01*
X56317Y-56105D01*
X56397Y-56120D01*
X56476Y-56105D01*
X56478Y-56103D01*
X56529Y-56122D01*
X56564Y-56087D01*
X56564Y-56029D01*
X56589Y-55992D01*
X56594Y-55969D01*
X56598Y-55992D01*
X56623Y-56029D01*
X56623Y-56087D01*
X56658Y-56122D01*
X56709Y-56103D01*
X56711Y-56105D01*
X56791Y-56120D01*
X56870Y-56105D01*
X56889Y-56092D01*
X56908Y-56105D01*
X56988Y-56120D01*
X57067Y-56105D01*
X57069Y-56103D01*
X57120Y-56122D01*
X57155Y-56087D01*
X57155Y-56029D01*
X57180Y-55992D01*
X57185Y-55969D01*
X57189Y-55992D01*
X57214Y-56029D01*
X57214Y-56087D01*
X57249Y-56122D01*
X57291Y-56107D01*
X57309Y-56186D01*
X57364Y-56265D01*
X57427Y-56325D01*
X57373Y-56325D01*
X57331Y-56367D01*
X57331Y-56642D01*
X57339Y-56642D01*
X57339Y-56744D01*
X57331Y-56744D01*
X57331Y-57018D01*
X57373Y-57060D01*
X57489Y-57060D01*
X57550Y-57035D01*
X57594Y-56992D01*
X57621Y-57019D01*
X57623Y-57020D01*
X57230Y-57347D01*
X57230Y-57018D01*
X57230Y-56744D01*
X57230Y-56642D01*
X57230Y-56367D01*
X57188Y-56325D01*
X57073Y-56325D01*
X57011Y-56351D01*
X56964Y-56398D01*
X56938Y-56459D01*
X56938Y-56526D01*
X56938Y-56600D01*
X56980Y-56642D01*
X57230Y-56642D01*
X57230Y-56744D01*
X56980Y-56744D01*
X56938Y-56785D01*
X56938Y-56860D01*
X56938Y-56926D01*
X56964Y-56988D01*
X57011Y-57035D01*
X57073Y-57060D01*
X57188Y-57060D01*
X57230Y-57018D01*
X57230Y-57347D01*
X56897Y-57624D01*
X56890Y-57633D01*
X56881Y-57639D01*
X56854Y-57666D01*
X56827Y-57639D01*
X56821Y-57635D01*
X56813Y-57625D01*
X56769Y-57601D01*
X56747Y-57586D01*
X56740Y-57584D01*
X56729Y-57578D01*
X54431Y-56831D01*
X54434Y-56825D01*
X54434Y-56766D01*
X54434Y-56366D01*
X54411Y-56311D01*
X54387Y-56286D01*
X54611Y-55671D01*
X54615Y-55642D01*
X54623Y-55617D01*
X54647Y-55432D01*
X54641Y-55346D01*
X54809Y-55346D01*
X54889Y-55330D01*
X54956Y-55285D01*
X55002Y-55217D01*
X55017Y-55138D01*
X55002Y-55058D01*
X55001Y-55056D01*
X55019Y-55005D01*
X55005Y-54991D01*
X55028Y-54991D01*
X55028Y-54966D01*
X55043Y-54981D01*
X55163Y-55031D01*
X55292Y-55031D01*
X55412Y-54981D01*
X55460Y-54934D01*
X55490Y-55007D01*
X55582Y-55099D01*
X55702Y-55149D01*
X55832Y-55149D01*
X55952Y-55099D01*
X56044Y-55007D01*
X56094Y-54888D01*
X56094Y-54758D01*
X56044Y-54638D01*
X55952Y-54546D01*
X55832Y-54496D01*
X55706Y-54496D01*
X55483Y-54275D01*
X55481Y-54274D01*
X55481Y-54273D01*
X55071Y-53879D01*
X55052Y-53867D01*
X55036Y-53852D01*
X55003Y-53833D01*
X55017Y-53760D01*
X55002Y-53680D01*
X54989Y-53661D01*
X55002Y-53642D01*
X55017Y-53563D01*
X55002Y-53483D01*
X54989Y-53464D01*
X55002Y-53445D01*
X55017Y-53366D01*
X55002Y-53286D01*
X54989Y-53267D01*
X55002Y-53248D01*
X55017Y-53169D01*
X55002Y-53089D01*
X54989Y-53070D01*
X55002Y-53051D01*
X55017Y-52972D01*
X55002Y-52892D01*
X54956Y-52824D01*
X54889Y-52779D01*
X54809Y-52763D01*
X54522Y-52763D01*
X54952Y-51681D01*
X54956Y-51971D01*
X54977Y-52066D01*
X55021Y-52130D01*
X55008Y-52197D01*
X55008Y-52566D01*
X55023Y-52646D01*
X55068Y-52713D01*
X55136Y-52759D01*
X55216Y-52774D01*
X55295Y-52759D01*
X55297Y-52757D01*
X55348Y-52776D01*
X55383Y-52741D01*
X55383Y-52683D01*
X55408Y-52646D01*
X55412Y-52625D01*
X55416Y-52646D01*
X55442Y-52685D01*
X55442Y-52741D01*
X55477Y-52776D01*
X55528Y-52758D01*
X55529Y-52759D01*
X55609Y-52774D01*
X55688Y-52759D01*
X55707Y-52746D01*
X55726Y-52759D01*
X55806Y-52774D01*
X55885Y-52759D01*
X55904Y-52746D01*
X55923Y-52759D01*
X56003Y-52774D01*
X56081Y-52759D01*
X56085Y-52765D01*
X56142Y-52822D01*
X56142Y-52938D01*
X56191Y-53058D01*
X56283Y-53150D01*
X56403Y-53200D01*
X56533Y-53200D01*
X56653Y-53150D01*
X56745Y-53059D01*
X56794Y-52939D01*
X56794Y-52809D01*
X56779Y-52772D01*
X56790Y-52774D01*
X56869Y-52759D01*
X56888Y-52746D01*
X56907Y-52759D01*
X56987Y-52774D01*
X57066Y-52759D01*
X57085Y-52746D01*
X57104Y-52759D01*
X57184Y-52774D01*
X57263Y-52759D01*
X57282Y-52746D01*
X57300Y-52759D01*
X57380Y-52774D01*
X57459Y-52759D01*
X57527Y-52713D01*
X57572Y-52646D01*
X57588Y-52566D01*
X57588Y-52216D01*
X57958Y-52216D01*
X57958Y-52237D01*
X57981Y-52292D01*
X58023Y-52334D01*
X58077Y-52357D01*
X58137Y-52357D01*
X58487Y-52357D01*
X58542Y-52334D01*
X58582Y-52293D01*
X58623Y-52334D01*
X58677Y-52357D01*
X58737Y-52357D01*
X59087Y-52357D01*
X59142Y-52334D01*
X59184Y-52292D01*
X59206Y-52237D01*
X59206Y-52228D01*
X59886Y-52228D01*
X59886Y-52276D01*
X59909Y-52331D01*
X59951Y-52373D01*
X60006Y-52395D01*
X60065Y-52395D01*
X60149Y-52395D01*
X60456Y-53566D01*
X60445Y-53619D01*
X60445Y-53961D01*
X60448Y-53977D01*
X60388Y-53977D01*
X60326Y-54003D01*
X60279Y-54050D01*
X60254Y-54111D01*
X60254Y-54209D01*
X60296Y-54251D01*
X60528Y-54251D01*
X60528Y-54243D01*
X60603Y-54243D01*
X60611Y-54251D01*
X60629Y-54251D01*
X60843Y-54251D01*
X60862Y-54251D01*
X60869Y-54243D01*
X60918Y-54243D01*
X60926Y-54251D01*
X60944Y-54251D01*
X61158Y-54251D01*
X61177Y-54251D01*
X61184Y-54243D01*
X61233Y-54243D01*
X61241Y-54251D01*
X61259Y-54251D01*
X61473Y-54251D01*
X61492Y-54251D01*
X61499Y-54243D01*
X61574Y-54243D01*
X61574Y-54251D01*
X61806Y-54251D01*
X61848Y-54209D01*
X61848Y-54111D01*
X61823Y-54050D01*
X61776Y-54003D01*
X61738Y-53987D01*
X61832Y-53987D01*
X61952Y-53938D01*
X62044Y-53846D01*
X62087Y-53741D01*
X62214Y-53833D01*
X62214Y-53892D01*
X62214Y-54242D01*
X62237Y-54296D01*
X62265Y-54324D01*
X62222Y-54367D01*
X62196Y-54429D01*
X62196Y-54544D01*
X62238Y-54586D01*
X62513Y-54586D01*
X62513Y-54578D01*
X62614Y-54578D01*
X62614Y-54586D01*
X62889Y-54586D01*
X62931Y-54544D01*
X62931Y-54429D01*
X62906Y-54367D01*
X62862Y-54324D01*
X62890Y-54297D01*
X62913Y-54242D01*
X62913Y-54182D01*
X62913Y-53832D01*
X62890Y-53778D01*
X62864Y-53751D01*
X63156Y-53884D01*
X63163Y-53886D01*
X63165Y-53887D01*
X63183Y-53891D01*
X63184Y-53891D01*
X63184Y-54111D01*
X63206Y-54165D01*
X63248Y-54207D01*
X63303Y-54230D01*
X63362Y-54230D01*
X64412Y-54230D01*
X64467Y-54208D01*
X64509Y-54166D01*
X64532Y-54111D01*
X64532Y-54051D01*
X64532Y-53451D01*
X64509Y-53397D01*
X64467Y-53355D01*
X64413Y-53332D01*
X64353Y-53332D01*
X63303Y-53332D01*
X63248Y-53354D01*
X63229Y-53373D01*
X62800Y-53178D01*
X62800Y-52604D01*
X62800Y-52120D01*
X62800Y-52053D01*
X62774Y-51992D01*
X62727Y-51945D01*
X62666Y-51919D01*
X62650Y-51919D01*
X62650Y-51544D01*
X62650Y-51211D01*
X62650Y-51144D01*
X62624Y-51083D01*
X62577Y-51036D01*
X62516Y-51010D01*
X62400Y-51010D01*
X62358Y-51052D01*
X62358Y-51327D01*
X62608Y-51327D01*
X62650Y-51285D01*
X62650Y-51211D01*
X62650Y-51544D01*
X62650Y-51470D01*
X62608Y-51428D01*
X62358Y-51428D01*
X62358Y-51703D01*
X62400Y-51745D01*
X62516Y-51745D01*
X62577Y-51719D01*
X62624Y-51672D01*
X62650Y-51611D01*
X62650Y-51544D01*
X62650Y-51919D01*
X62500Y-51919D01*
X62458Y-51961D01*
X62458Y-52311D01*
X62758Y-52311D01*
X62800Y-52269D01*
X62800Y-52120D01*
X62800Y-52604D01*
X62800Y-52454D01*
X62758Y-52412D01*
X62458Y-52412D01*
X62458Y-52762D01*
X62500Y-52804D01*
X62666Y-52804D01*
X62727Y-52779D01*
X62774Y-52732D01*
X62800Y-52670D01*
X62800Y-52604D01*
X62800Y-53178D01*
X62357Y-52976D01*
X62357Y-52762D01*
X62357Y-52412D01*
X62357Y-52311D01*
X62357Y-51961D01*
X62315Y-51919D01*
X62149Y-51919D01*
X62088Y-51945D01*
X62041Y-51992D01*
X62015Y-52053D01*
X62015Y-52120D01*
X62015Y-52269D01*
X62057Y-52311D01*
X62357Y-52311D01*
X62357Y-52412D01*
X62057Y-52412D01*
X62015Y-52454D01*
X62015Y-52604D01*
X62015Y-52670D01*
X62041Y-52732D01*
X62088Y-52779D01*
X62149Y-52804D01*
X62315Y-52804D01*
X62357Y-52762D01*
X62357Y-52976D01*
X61903Y-52769D01*
X61917Y-52763D01*
X61959Y-52721D01*
X61982Y-52667D01*
X61982Y-52607D01*
X61982Y-52057D01*
X61959Y-52002D01*
X61917Y-51960D01*
X61913Y-51959D01*
X61949Y-51712D01*
X61967Y-51704D01*
X61995Y-51676D01*
X62038Y-51719D01*
X62099Y-51745D01*
X62215Y-51745D01*
X62257Y-51703D01*
X62257Y-51428D01*
X62249Y-51428D01*
X62249Y-51327D01*
X62257Y-51327D01*
X62257Y-51052D01*
X62215Y-51010D01*
X62099Y-51010D01*
X62038Y-51036D01*
X61995Y-51079D01*
X61967Y-51051D01*
X61912Y-51028D01*
X61853Y-51028D01*
X61503Y-51028D01*
X61448Y-51051D01*
X61433Y-51065D01*
X59326Y-50014D01*
X59326Y-49666D01*
X59313Y-49482D01*
X59267Y-49371D01*
X59196Y-49340D01*
X58930Y-49606D01*
X59196Y-49872D01*
X59267Y-49840D01*
X59326Y-49666D01*
X59326Y-50014D01*
X59064Y-49884D01*
X58858Y-49678D01*
X58852Y-49683D01*
X58780Y-49611D01*
X58786Y-49606D01*
X58520Y-49340D01*
X58448Y-49371D01*
X58390Y-49546D01*
X58402Y-49729D01*
X58446Y-49834D01*
X58261Y-49833D01*
X58318Y-49695D01*
X58318Y-49518D01*
X58251Y-49354D01*
X58129Y-49232D01*
X58608Y-49232D01*
X58592Y-49268D01*
X58858Y-49534D01*
X59124Y-49268D01*
X59108Y-49232D01*
X60879Y-49232D01*
X60878Y-49233D01*
X60853Y-49295D01*
X60853Y-49410D01*
X60894Y-49452D01*
X61169Y-49452D01*
X61169Y-49444D01*
X61271Y-49444D01*
X61271Y-49452D01*
X61545Y-49452D01*
X61587Y-49410D01*
X61587Y-49295D01*
X61562Y-49233D01*
X61561Y-49232D01*
X61667Y-49232D01*
X61665Y-49233D01*
X61640Y-49295D01*
X61640Y-49410D01*
X61682Y-49452D01*
X61957Y-49452D01*
X61957Y-49444D01*
X62058Y-49444D01*
X62058Y-49452D01*
X62333Y-49452D01*
X62375Y-49410D01*
X62375Y-49295D01*
X62349Y-49233D01*
X62348Y-49232D01*
X62480Y-49232D01*
X62468Y-49243D01*
X62446Y-49298D01*
X62446Y-49357D01*
X62446Y-49707D01*
X62468Y-49762D01*
X62509Y-49803D01*
X62468Y-49843D01*
X62446Y-49898D01*
X62446Y-49914D01*
X62357Y-49914D01*
X62357Y-49898D01*
X62334Y-49843D01*
X62306Y-49815D01*
X62349Y-49772D01*
X62375Y-49711D01*
X62375Y-49595D01*
X62333Y-49553D01*
X62058Y-49553D01*
X62058Y-49561D01*
X61957Y-49561D01*
X61957Y-49553D01*
X61682Y-49553D01*
X61640Y-49595D01*
X61640Y-49711D01*
X61665Y-49772D01*
X61709Y-49815D01*
X61681Y-49843D01*
X61658Y-49898D01*
X61658Y-49914D01*
X61569Y-49914D01*
X61569Y-49898D01*
X61547Y-49843D01*
X61519Y-49815D01*
X61562Y-49772D01*
X61587Y-49711D01*
X61587Y-49595D01*
X61545Y-49553D01*
X61271Y-49553D01*
X61271Y-49561D01*
X61169Y-49561D01*
X61169Y-49553D01*
X60894Y-49553D01*
X60853Y-49595D01*
X60853Y-49711D01*
X60878Y-49772D01*
X60892Y-49786D01*
X60828Y-49760D01*
X60699Y-49760D01*
X60579Y-49809D01*
X60487Y-49901D01*
X60437Y-50021D01*
X60437Y-50151D01*
X60486Y-50271D01*
X60578Y-50363D01*
X60698Y-50412D01*
X60828Y-50413D01*
X60910Y-50379D01*
X60935Y-50404D01*
X60990Y-50427D01*
X61050Y-50427D01*
X61450Y-50427D01*
X61504Y-50404D01*
X61546Y-50362D01*
X61569Y-50307D01*
X61569Y-50291D01*
X61658Y-50291D01*
X61658Y-50307D01*
X61681Y-50362D01*
X61723Y-50404D01*
X61778Y-50427D01*
X61837Y-50427D01*
X62237Y-50427D01*
X62292Y-50404D01*
X62334Y-50362D01*
X62357Y-50307D01*
X62357Y-50291D01*
X62446Y-50291D01*
X62446Y-50307D01*
X62468Y-50362D01*
X62510Y-50404D01*
X62565Y-50427D01*
X62624Y-50427D01*
X63024Y-50427D01*
X63079Y-50404D01*
X63121Y-50362D01*
X63144Y-50307D01*
X63144Y-50248D01*
X63144Y-49898D01*
X63142Y-49894D01*
X63186Y-49912D01*
X63316Y-49913D01*
X63436Y-49863D01*
X63528Y-49771D01*
X63578Y-49651D01*
X63578Y-49521D01*
X63528Y-49401D01*
X63437Y-49310D01*
X63317Y-49260D01*
X63187Y-49260D01*
X63156Y-49273D01*
X63131Y-49268D01*
X63121Y-49243D01*
X63110Y-49232D01*
X65728Y-49232D01*
X65728Y-53625D01*
X65714Y-53590D01*
X65691Y-53568D01*
X65691Y-49766D01*
X65679Y-49590D01*
X65636Y-49488D01*
X65567Y-49460D01*
X65495Y-49531D01*
X65495Y-49388D01*
X65466Y-49318D01*
X65299Y-49263D01*
X65124Y-49276D01*
X65022Y-49318D01*
X64993Y-49388D01*
X65244Y-49639D01*
X65495Y-49388D01*
X65495Y-49531D01*
X65316Y-49711D01*
X65567Y-49962D01*
X65636Y-49933D01*
X65691Y-49766D01*
X65691Y-53568D01*
X65594Y-53471D01*
X65495Y-53430D01*
X65495Y-50034D01*
X65244Y-49783D01*
X65172Y-49854D01*
X65172Y-49711D01*
X64921Y-49460D01*
X64851Y-49488D01*
X64796Y-49655D01*
X64809Y-49831D01*
X64851Y-49933D01*
X64921Y-49962D01*
X65172Y-49711D01*
X65172Y-49854D01*
X64993Y-50034D01*
X65022Y-50103D01*
X65189Y-50158D01*
X65364Y-50145D01*
X65466Y-50103D01*
X65495Y-50034D01*
X65495Y-53430D01*
X65439Y-53406D01*
X65270Y-53406D01*
X65114Y-53470D01*
X64994Y-53590D01*
X64930Y-53745D01*
X64930Y-53914D01*
X64994Y-54070D01*
X65113Y-54190D01*
X65269Y-54254D01*
X65438Y-54254D01*
X65594Y-54190D01*
X65713Y-54071D01*
X65728Y-54036D01*
X65728Y-54443D01*
X65713Y-54429D01*
X65659Y-54406D01*
X65599Y-54406D01*
X65049Y-54406D01*
X64994Y-54429D01*
X64952Y-54471D01*
X64930Y-54525D01*
X64930Y-54585D01*
X64930Y-55127D01*
X64668Y-55283D01*
X64668Y-49956D01*
X64668Y-49406D01*
X64645Y-49351D01*
X64604Y-49309D01*
X64549Y-49286D01*
X64489Y-49286D01*
X63939Y-49286D01*
X63884Y-49309D01*
X63842Y-49351D01*
X63820Y-49406D01*
X63820Y-49465D01*
X63820Y-50015D01*
X63842Y-50070D01*
X63884Y-50112D01*
X63939Y-50135D01*
X63998Y-50135D01*
X64548Y-50135D01*
X64603Y-50112D01*
X64645Y-50070D01*
X64668Y-50015D01*
X64668Y-49956D01*
X64668Y-55283D01*
X64477Y-55398D01*
X64509Y-55366D01*
X64532Y-55311D01*
X64532Y-55251D01*
X64532Y-54651D01*
X64509Y-54597D01*
X64467Y-54555D01*
X64413Y-54532D01*
X64353Y-54532D01*
X63303Y-54532D01*
X63248Y-54554D01*
X63206Y-54596D01*
X63184Y-54651D01*
X63184Y-54711D01*
X63184Y-54871D01*
X63165Y-54875D01*
X63151Y-54884D01*
X63133Y-54890D01*
X62931Y-55010D01*
X62931Y-54845D01*
X62931Y-54730D01*
X62889Y-54688D01*
X62614Y-54688D01*
X62614Y-54937D01*
X62656Y-54979D01*
X62730Y-54979D01*
X62797Y-54979D01*
X62859Y-54954D01*
X62906Y-54907D01*
X62931Y-54845D01*
X62931Y-55010D01*
X62513Y-55257D01*
X62513Y-54937D01*
X62513Y-54688D01*
X62238Y-54688D01*
X62196Y-54730D01*
X62196Y-54845D01*
X62222Y-54907D01*
X62269Y-54954D01*
X62330Y-54979D01*
X62397Y-54979D01*
X62471Y-54979D01*
X62513Y-54937D01*
X62513Y-55257D01*
X62136Y-55480D01*
X61657Y-55203D01*
X61657Y-54958D01*
X61654Y-54942D01*
X61714Y-54942D01*
X61776Y-54916D01*
X61823Y-54869D01*
X61848Y-54808D01*
X61848Y-54493D01*
X61848Y-54460D01*
X61848Y-54426D01*
X61848Y-54426D01*
X61848Y-54395D01*
X61826Y-54372D01*
X61823Y-54365D01*
X61776Y-54318D01*
X61714Y-54292D01*
X61648Y-54292D01*
X61616Y-54292D01*
X61574Y-54334D01*
X61574Y-54353D01*
X61574Y-54566D01*
X61574Y-54585D01*
X61616Y-54627D01*
X61648Y-54627D01*
X61714Y-54627D01*
X61776Y-54601D01*
X61823Y-54554D01*
X61826Y-54547D01*
X61848Y-54524D01*
X61848Y-54493D01*
X61848Y-54493D01*
X61848Y-54808D01*
X61848Y-54710D01*
X61806Y-54668D01*
X61574Y-54668D01*
X61574Y-54676D01*
X61533Y-54676D01*
X61533Y-54493D01*
X61533Y-54460D01*
X61533Y-54426D01*
X61533Y-54426D01*
X61533Y-54395D01*
X61511Y-54372D01*
X61508Y-54365D01*
X61461Y-54318D01*
X61453Y-54315D01*
X61431Y-54292D01*
X61399Y-54292D01*
X61366Y-54292D01*
X61333Y-54292D01*
X61301Y-54292D01*
X61279Y-54315D01*
X61271Y-54318D01*
X61224Y-54365D01*
X61221Y-54372D01*
X61209Y-54385D01*
X61196Y-54372D01*
X61193Y-54365D01*
X61146Y-54318D01*
X61138Y-54315D01*
X61116Y-54292D01*
X61084Y-54292D01*
X61051Y-54292D01*
X61018Y-54292D01*
X60986Y-54292D01*
X60964Y-54315D01*
X60956Y-54318D01*
X60909Y-54365D01*
X60906Y-54372D01*
X60894Y-54385D01*
X60881Y-54372D01*
X60878Y-54365D01*
X60831Y-54318D01*
X60823Y-54315D01*
X60801Y-54292D01*
X60769Y-54292D01*
X60736Y-54292D01*
X60703Y-54292D01*
X60671Y-54292D01*
X60649Y-54315D01*
X60641Y-54318D01*
X60594Y-54365D01*
X60591Y-54372D01*
X60569Y-54395D01*
X60569Y-54426D01*
X60569Y-54426D01*
X60569Y-54460D01*
X60569Y-54493D01*
X60569Y-54493D01*
X60569Y-54524D01*
X60591Y-54547D01*
X60594Y-54554D01*
X60641Y-54601D01*
X60649Y-54605D01*
X60671Y-54627D01*
X60703Y-54627D01*
X60736Y-54627D01*
X60769Y-54627D01*
X60801Y-54627D01*
X60823Y-54605D01*
X60831Y-54601D01*
X60878Y-54554D01*
X60881Y-54547D01*
X60894Y-54534D01*
X60906Y-54547D01*
X60909Y-54554D01*
X60956Y-54601D01*
X60964Y-54605D01*
X60986Y-54627D01*
X61018Y-54627D01*
X61051Y-54627D01*
X61084Y-54627D01*
X61116Y-54627D01*
X61138Y-54605D01*
X61146Y-54601D01*
X61193Y-54554D01*
X61196Y-54547D01*
X61209Y-54534D01*
X61221Y-54547D01*
X61224Y-54554D01*
X61271Y-54601D01*
X61279Y-54605D01*
X61301Y-54627D01*
X61333Y-54627D01*
X61366Y-54627D01*
X61399Y-54627D01*
X61431Y-54627D01*
X61453Y-54605D01*
X61461Y-54601D01*
X61508Y-54554D01*
X61511Y-54547D01*
X61533Y-54524D01*
X61533Y-54493D01*
X61533Y-54493D01*
X61533Y-54676D01*
X61499Y-54676D01*
X61492Y-54668D01*
X61473Y-54668D01*
X61259Y-54668D01*
X61241Y-54668D01*
X61233Y-54676D01*
X61184Y-54676D01*
X61177Y-54668D01*
X61158Y-54668D01*
X60944Y-54668D01*
X60926Y-54668D01*
X60894Y-54700D01*
X60862Y-54668D01*
X60843Y-54668D01*
X60629Y-54668D01*
X60611Y-54668D01*
X60603Y-54676D01*
X60528Y-54676D01*
X60528Y-54668D01*
X60520Y-54668D01*
X60520Y-54593D01*
X60528Y-54585D01*
X60528Y-54566D01*
X60528Y-54353D01*
X60528Y-54334D01*
X60486Y-54292D01*
X60454Y-54292D01*
X60388Y-54292D01*
X60326Y-54318D01*
X60279Y-54365D01*
X60276Y-54372D01*
X60254Y-54395D01*
X60254Y-54426D01*
X60254Y-54426D01*
X60254Y-54460D01*
X60254Y-54492D01*
X60249Y-54480D01*
X60157Y-54388D01*
X60149Y-54385D01*
X60149Y-53482D01*
X60149Y-53148D01*
X60149Y-53082D01*
X60124Y-53020D01*
X60077Y-52973D01*
X60015Y-52948D01*
X59900Y-52948D01*
X59858Y-52989D01*
X59858Y-53264D01*
X60107Y-53264D01*
X60149Y-53222D01*
X60149Y-53148D01*
X60149Y-53482D01*
X60149Y-53408D01*
X60107Y-53366D01*
X59858Y-53366D01*
X59858Y-53640D01*
X59900Y-53682D01*
X60015Y-53682D01*
X60077Y-53657D01*
X60124Y-53610D01*
X60149Y-53548D01*
X60149Y-53482D01*
X60149Y-54385D01*
X60037Y-54339D01*
X59907Y-54338D01*
X59787Y-54388D01*
X59695Y-54480D01*
X59646Y-54600D01*
X59646Y-54729D01*
X59695Y-54849D01*
X59787Y-54941D01*
X59907Y-54991D01*
X60037Y-54991D01*
X60110Y-54961D01*
X60279Y-55057D01*
X60305Y-55066D01*
X60327Y-55076D01*
X60445Y-55105D01*
X60445Y-55300D01*
X60462Y-55385D01*
X60510Y-55457D01*
X60582Y-55505D01*
X60667Y-55522D01*
X60752Y-55505D01*
X60778Y-55487D01*
X60789Y-55498D01*
X60850Y-55521D01*
X60872Y-55500D01*
X60872Y-55532D01*
X60905Y-55532D01*
X60878Y-55599D01*
X60803Y-55992D01*
X60401Y-55992D01*
X60346Y-56014D01*
X60304Y-56056D01*
X60282Y-56111D01*
X60282Y-56171D01*
X60282Y-56880D01*
X60304Y-56934D01*
X60346Y-56976D01*
X60401Y-56999D01*
X60460Y-56999D01*
X60761Y-56999D01*
X60761Y-57751D01*
X60779Y-57845D01*
X60833Y-57926D01*
X60937Y-58030D01*
X60937Y-58030D01*
X61017Y-58083D01*
X61036Y-58087D01*
X61036Y-58257D01*
X61059Y-58312D01*
X61101Y-58354D01*
X61156Y-58376D01*
X61215Y-58376D01*
X61665Y-58376D01*
X61720Y-58354D01*
X61762Y-58312D01*
X61785Y-58257D01*
X61785Y-58198D01*
X61785Y-57680D01*
X61818Y-57667D01*
X61818Y-57710D01*
X61818Y-57860D01*
X61860Y-57901D01*
X62160Y-57901D01*
X62160Y-57894D01*
X62261Y-57894D01*
X62261Y-57901D01*
X62561Y-57901D01*
X62603Y-57860D01*
X62603Y-57710D01*
X62603Y-57644D01*
X62577Y-57582D01*
X62530Y-57535D01*
X62469Y-57510D01*
X62303Y-57510D01*
X62261Y-57552D01*
X62261Y-57510D01*
X62227Y-57510D01*
X62880Y-57259D01*
X62962Y-57208D01*
X62963Y-57205D01*
X63147Y-57035D01*
X63140Y-57051D01*
X63139Y-57587D01*
X63343Y-58083D01*
X63346Y-58089D01*
X63510Y-58228D01*
X64416Y-57322D01*
X64410Y-57317D01*
X64482Y-57245D01*
X64488Y-57251D01*
X65394Y-56345D01*
X65254Y-56181D01*
X64759Y-55975D01*
X64479Y-55974D01*
X65279Y-55495D01*
X65300Y-55476D01*
X65327Y-55458D01*
X65431Y-55354D01*
X65431Y-55354D01*
X65431Y-55354D01*
X65485Y-55273D01*
X65485Y-55273D01*
X65489Y-55254D01*
X65658Y-55254D01*
X65713Y-55232D01*
X65728Y-55217D01*
X65728Y-56793D01*
X65633Y-56561D01*
X65629Y-56556D01*
X65465Y-56416D01*
X64560Y-57322D01*
X65465Y-58228D01*
X65629Y-58089D01*
X65728Y-57852D01*
X65728Y-58720D01*
M02*
