M48
;DRILL file {Pcbnew (2012-01-19 BZR 3256)-stable} date 24/12/2012 01:38:16
;FORMAT={-:-/ absolute / metric / decimal}
FMAT,2
METRIC,TZ
T1C0.399
T2C0.500
T3C0.800
T4C0.813
T5C0.899
T6C1.199
T7C1.501
T8C3.500
%
G90
G05
M71
T1
X123.401Y-80.401
X124.800Y-86.401
X125.199Y-93.599
X125.199Y-97.201
X131.001Y-85.999
X131.300Y-76.810
X131.600Y-80.599
X133.401Y-101.999
X135.400Y-76.599
X138.151Y-92.781
X139.050Y-90.589
X139.710Y-75.209
X140.701Y-74.069
X141.069Y-98.910
X141.310Y-85.689
X141.399Y-79.200
X142.799Y-102.199
X142.900Y-88.349
X144.709Y-78.331
X144.869Y-83.929
X145.910Y-90.830
X147.000Y-74.000
X147.399Y-78.199
X147.429Y-86.820
X147.450Y-90.609
X147.521Y-82.840
X148.069Y-80.929
X148.389Y-91.229
X148.801Y-94.460
X149.230Y-91.951
X150.381Y-91.940
X150.599Y-74.399
X150.599Y-78.199
X151.011Y-90.300
X151.201Y-102.601
X151.801Y-82.890
X152.359Y-91.389
X152.390Y-86.629
X153.299Y-88.519
X153.309Y-82.890
X153.619Y-86.540
X154.429Y-89.190
X154.810Y-93.901
X155.001Y-86.200
X155.499Y-78.720
X156.230Y-93.901
X156.721Y-86.929
X156.909Y-99.187
X156.921Y-85.481
X157.000Y-74.000
X157.000Y-96.200
X157.221Y-81.161
X157.810Y-80.040
X158.001Y-101.801
X158.600Y-82.799
X159.200Y-74.201
X159.431Y-86.070
X160.200Y-78.999
X160.660Y-82.329
X160.800Y-91.399
X161.600Y-88.801
X163.040Y-84.531
X163.159Y-97.150
X163.660Y-94.579
X164.579Y-92.131
X165.001Y-80.201
X165.049Y-98.900
X166.400Y-86.401
X167.599Y-76.599
X169.799Y-94.089
X173.200Y-75.199
X174.201Y-99.400
X175.199Y-93.200
X176.200Y-78.999
X176.649Y-95.001
X177.201Y-83.401
X178.839Y-89.601
X181.399Y-87.800
X181.801Y-82.601
T2
X168.839Y-84.709
X169.840Y-83.708
X169.840Y-84.709
X169.840Y-85.710
X170.838Y-83.208
X170.838Y-84.209
X170.838Y-85.209
X170.838Y-86.210
X171.338Y-82.210
X171.338Y-87.208
X171.839Y-83.208
X171.839Y-84.209
X171.839Y-85.209
X171.839Y-86.210
X172.339Y-81.209
X172.339Y-82.210
X172.339Y-87.208
X172.339Y-88.209
X172.839Y-83.208
X172.839Y-84.209
X172.839Y-85.209
X172.839Y-86.210
X173.340Y-82.210
X173.340Y-87.208
X173.840Y-83.208
X173.840Y-84.209
X173.840Y-85.209
X173.840Y-86.210
X174.838Y-83.708
X174.838Y-84.709
X174.838Y-85.710
X175.839Y-84.709
T3
X167.546Y-93.980
X171.544Y-93.980
T4
X152.400Y-71.882
X154.940Y-71.882
X161.163Y-76.327
X163.703Y-76.327
T5
X158.623Y-71.882
X161.163Y-71.882
X163.703Y-71.882
X166.243Y-71.882
X170.978Y-71.326
X175.478Y-71.326
X181.531Y-72.807
X181.531Y-77.307
T6
X162.227Y-101.981
X165.227Y-101.981
X168.227Y-101.981
X169.728Y-73.825
X176.728Y-73.825
X179.032Y-71.557
X179.032Y-78.557
T7
X121.539Y-103.378
X173.385Y-102.705
T8
X122.301Y-73.533
X179.451Y-102.362
T0
M30
