G04 (created by PCBNEW (2013-05-16 BZR 4016)-stable) date 03/07/2013 13:28:14*
%MOIN*%
G04 Gerber Fmt 3.4, Leading zero omitted, Abs format*
%FSLAX34Y34*%
G01*
G70*
G90*
G04 APERTURE LIST*
%ADD10C,0.00590551*%
%ADD11R,0.0315X0.0709*%
%ADD12C,0.0394*%
%ADD13R,0.0708661X0.0708661*%
%ADD14C,0.0708661*%
%ADD15R,0.0433X0.0177*%
%ADD16O,0.0433X0.0177*%
%ADD17R,0.036X0.036*%
%ADD18O,0.02X0.0591*%
%ADD19R,0.02X0.0591*%
%ADD20R,0.045X0.0386*%
%ADD21R,0.0551X0.0551*%
%ADD22C,0.0551*%
%ADD23R,0.055X0.055*%
%ADD24C,0.055*%
%ADD25C,0.0591*%
%ADD26R,0.04X0.035*%
%ADD27R,0.035X0.04*%
%ADD28R,0.0472X0.0118*%
%ADD29O,0.0472X0.0118*%
%ADD30O,0.0118X0.0472*%
%ADD31R,0.1181X0.063*%
%ADD32R,0.0472X0.0748*%
%ADD33C,0.1181*%
%ADD34R,0.1181X0.1181*%
%ADD35C,0.1575*%
%ADD36R,0.055X0.045*%
%ADD37R,0.0512X0.0512*%
%ADD38C,0.0512*%
%ADD39R,0.0629921X0.0629921*%
%ADD40C,0.0629921*%
%ADD41C,0.2362*%
%ADD42R,0.06X0.06*%
%ADD43C,0.06*%
%ADD44R,0.045X0.055*%
%ADD45R,0.0386X0.045*%
%ADD46C,0.0354331*%
%ADD47C,0.00787402*%
%ADD48C,0.019685*%
%ADD49C,0.00984252*%
G04 APERTURE END LIST*
G54D10*
G54D11*
X101588Y-66062D03*
X102088Y-66062D03*
X101088Y-66062D03*
X100588Y-66062D03*
G54D12*
X104583Y-69123D03*
X108503Y-72440D03*
G54D13*
X107559Y-72440D03*
G54D14*
X107559Y-71574D03*
X107559Y-70708D03*
G54D15*
X106039Y-72106D03*
G54D16*
X106039Y-71850D03*
X106039Y-71594D03*
X105015Y-72106D03*
X105015Y-71338D03*
X105015Y-71594D03*
X106039Y-71338D03*
X105015Y-71850D03*
G54D17*
X108775Y-68510D03*
X108075Y-68510D03*
X108425Y-67710D03*
X96294Y-71423D03*
X95594Y-71423D03*
X95944Y-70623D03*
G54D18*
X105312Y-78821D03*
G54D19*
X105312Y-81021D03*
G54D18*
X105812Y-78821D03*
X106312Y-78821D03*
X106812Y-78821D03*
X105812Y-81021D03*
X106312Y-81021D03*
X106812Y-81021D03*
G54D20*
X95433Y-81421D03*
X95433Y-81885D03*
X97952Y-81421D03*
X97952Y-81885D03*
X97322Y-81421D03*
X97322Y-81885D03*
X96692Y-81421D03*
X96692Y-81885D03*
X96062Y-81421D03*
X96062Y-81885D03*
X99212Y-81421D03*
X99212Y-81885D03*
X98582Y-81421D03*
X98582Y-81885D03*
G54D21*
X92992Y-79059D03*
G54D22*
X92992Y-78059D03*
X92992Y-77059D03*
X92992Y-76059D03*
G54D23*
X92992Y-72700D03*
G54D24*
X92992Y-73700D03*
X92992Y-74700D03*
G54D23*
X100338Y-66929D03*
G54D24*
X101338Y-66929D03*
X102338Y-66929D03*
G54D25*
X97322Y-74881D03*
G54D26*
X103858Y-81087D03*
X103858Y-80487D03*
G54D27*
X100362Y-65047D03*
X100962Y-65047D03*
G54D26*
X94921Y-71402D03*
X94921Y-70802D03*
G54D27*
X96944Y-70590D03*
X97544Y-70590D03*
X105227Y-69123D03*
X105827Y-69123D03*
G54D26*
X107401Y-68488D03*
X107401Y-67888D03*
G54D27*
X105827Y-69832D03*
X105227Y-69832D03*
G54D26*
X103149Y-78803D03*
X103149Y-78203D03*
G54D27*
X98440Y-74173D03*
X99040Y-74173D03*
X98440Y-73385D03*
X99040Y-73385D03*
X98440Y-74960D03*
X99040Y-74960D03*
G54D26*
X100866Y-77859D03*
X100866Y-77259D03*
G54D28*
X99232Y-78957D03*
G54D29*
X99232Y-78761D03*
X99232Y-78564D03*
X99232Y-78367D03*
X99232Y-78170D03*
X99232Y-77973D03*
X99232Y-77776D03*
X99232Y-77579D03*
X99232Y-77383D03*
X99232Y-77186D03*
X99232Y-76989D03*
X99233Y-76792D03*
G54D30*
X98640Y-76201D03*
X98444Y-76201D03*
X98247Y-76201D03*
X98050Y-76201D03*
X97853Y-76201D03*
X97656Y-76201D03*
X97459Y-76201D03*
X97263Y-76201D03*
X97066Y-76201D03*
X96869Y-76201D03*
X96673Y-76201D03*
X96476Y-76201D03*
G54D29*
X95885Y-76791D03*
X95885Y-76988D03*
X95885Y-77185D03*
X95885Y-77382D03*
X95885Y-77579D03*
X95885Y-77776D03*
X95885Y-77973D03*
X95885Y-78169D03*
X95885Y-78366D03*
X95885Y-78563D03*
X95885Y-78760D03*
X95885Y-78957D03*
G54D30*
X96476Y-79547D03*
X96673Y-79547D03*
X96870Y-79547D03*
X97067Y-79547D03*
X97264Y-79547D03*
X97461Y-79547D03*
X97657Y-79547D03*
X97854Y-79547D03*
X98051Y-79547D03*
X98248Y-79547D03*
X98445Y-79547D03*
X98642Y-79547D03*
G54D31*
X102244Y-73386D03*
X102244Y-74173D03*
X102244Y-74960D03*
X100118Y-73386D03*
X100118Y-74173D03*
X100118Y-74960D03*
G54D27*
X100881Y-74173D03*
X101481Y-74173D03*
G54D32*
X102406Y-78801D03*
X102406Y-77345D03*
X101540Y-77345D03*
X101540Y-78801D03*
G54D33*
X104921Y-76377D03*
G54D34*
X107086Y-76377D03*
G54D35*
X108740Y-74566D03*
X108740Y-78188D03*
G54D36*
X102362Y-81344D03*
X102362Y-80544D03*
X95590Y-75203D03*
X95590Y-74403D03*
G54D26*
X100157Y-77229D03*
X100157Y-76629D03*
G54D27*
X105827Y-70540D03*
X105227Y-70540D03*
G54D26*
X94957Y-79084D03*
X94957Y-78484D03*
G54D27*
X99227Y-80472D03*
X99827Y-80472D03*
G54D26*
X100078Y-79148D03*
X100078Y-79748D03*
X96377Y-75260D03*
X96377Y-74660D03*
G54D27*
X102273Y-79648D03*
X101673Y-79648D03*
X101673Y-76498D03*
X102273Y-76498D03*
G54D26*
X103149Y-81087D03*
X103149Y-80487D03*
X104566Y-81087D03*
X104566Y-80487D03*
X104566Y-78803D03*
X104566Y-78203D03*
X103858Y-78803D03*
X103858Y-78203D03*
G54D27*
X101701Y-65047D03*
X102301Y-65047D03*
X97465Y-67480D03*
X96865Y-67480D03*
G54D37*
X105433Y-65748D03*
G54D38*
X105433Y-67322D03*
G54D39*
X102019Y-71574D03*
G54D40*
X103019Y-71574D03*
G54D39*
X99263Y-71574D03*
G54D40*
X100263Y-71574D03*
G54D39*
X102019Y-68897D03*
G54D40*
X103019Y-68897D03*
G54D39*
X99263Y-68897D03*
G54D40*
X100263Y-68897D03*
G54D41*
X108661Y-65944D03*
X93700Y-65944D03*
X108661Y-80905D03*
X93700Y-80905D03*
G54D27*
X105227Y-72824D03*
X105827Y-72824D03*
G54D42*
X98149Y-66692D03*
G54D43*
X96181Y-66692D03*
G54D44*
X107159Y-69527D03*
X107959Y-69527D03*
G54D45*
X100949Y-67952D03*
X101413Y-67952D03*
G54D27*
X96944Y-71338D03*
X97544Y-71338D03*
G54D46*
X99429Y-79385D03*
X100535Y-79161D03*
X100311Y-77685D03*
X95401Y-79429D03*
X95822Y-75992D03*
X104661Y-73141D03*
X104692Y-79236D03*
X106586Y-68732D03*
X96897Y-77110D03*
X98736Y-76692D03*
X101181Y-73437D03*
X104846Y-70952D03*
X98110Y-76696D03*
X98952Y-67692D03*
X97881Y-75681D03*
X101047Y-79129D03*
X102901Y-77771D03*
X100259Y-80212D03*
X98314Y-79055D03*
X98740Y-77590D03*
X100614Y-76606D03*
X96236Y-71862D03*
X96129Y-69909D03*
X104795Y-69748D03*
X108440Y-69350D03*
X100173Y-66118D03*
X102503Y-66118D03*
X101578Y-80106D03*
X103503Y-80102D03*
X105594Y-80539D03*
X109448Y-72755D03*
X109370Y-70944D03*
X109370Y-69133D03*
X104409Y-66771D03*
X106771Y-65275D03*
X103700Y-65275D03*
X103385Y-67874D03*
X99055Y-65196D03*
X96535Y-65275D03*
X97283Y-69448D03*
X100157Y-70000D03*
X101968Y-70236D03*
X101417Y-72440D03*
X103464Y-72992D03*
X103464Y-70708D03*
X104330Y-71968D03*
X106614Y-70472D03*
X106692Y-73937D03*
X106771Y-75039D03*
X105039Y-75039D03*
X103700Y-75039D03*
X103622Y-76771D03*
X106929Y-77874D03*
X108897Y-76456D03*
X106614Y-79606D03*
X105511Y-81811D03*
X100787Y-81732D03*
X103700Y-81811D03*
X100000Y-78582D03*
X97559Y-77795D03*
X96850Y-78897D03*
X95511Y-80236D03*
X93622Y-76141D03*
X100393Y-75748D03*
X104173Y-79606D03*
X102992Y-79606D03*
X94622Y-74503D03*
X94107Y-71810D03*
X94745Y-69212D03*
G54D47*
X105227Y-72663D02*
X105227Y-72824D01*
X105227Y-72624D02*
X105227Y-72663D01*
X105143Y-72106D02*
X105227Y-72624D01*
X105015Y-72106D02*
X105143Y-72106D01*
G54D48*
X104668Y-81087D02*
X104566Y-81087D01*
X104766Y-81087D02*
X104668Y-81087D01*
X105212Y-81087D02*
X104766Y-81087D01*
X105311Y-81087D02*
X105212Y-81087D01*
X105312Y-81021D02*
X105311Y-81087D01*
X103251Y-81087D02*
X103149Y-81087D01*
X103349Y-81087D02*
X103251Y-81087D01*
X103658Y-81087D02*
X103349Y-81087D01*
X103756Y-81087D02*
X103658Y-81087D01*
X103858Y-81087D02*
X103756Y-81087D01*
X100157Y-77486D02*
X100311Y-77685D01*
X100157Y-77404D02*
X100157Y-77486D01*
X100157Y-77305D02*
X100157Y-77404D01*
X100157Y-77229D02*
X100157Y-77305D01*
X99227Y-80199D02*
X99429Y-79385D01*
X99227Y-80272D02*
X99227Y-80199D01*
X99227Y-80370D02*
X99227Y-80272D01*
X99227Y-80472D02*
X99227Y-80370D01*
G54D47*
X96476Y-76024D02*
X96476Y-76201D01*
X96452Y-75893D02*
X96476Y-76024D01*
X96377Y-75435D02*
X96452Y-75893D01*
X96377Y-75396D02*
X96377Y-75435D01*
X96377Y-75260D02*
X96377Y-75396D01*
G54D48*
X102538Y-81353D02*
X102362Y-81344D01*
X102637Y-81353D02*
X102538Y-81353D01*
X102726Y-81353D02*
X102637Y-81353D01*
X102866Y-81462D02*
X102726Y-81353D01*
X103032Y-81462D02*
X102866Y-81462D01*
X103149Y-81345D02*
X103032Y-81462D01*
X103149Y-81262D02*
X103149Y-81345D01*
X103149Y-81163D02*
X103149Y-81262D01*
X103149Y-81087D02*
X103149Y-81163D01*
X103959Y-81087D02*
X103858Y-81087D01*
X104058Y-81087D02*
X103959Y-81087D01*
X104366Y-81087D02*
X104058Y-81087D01*
X104465Y-81087D02*
X104366Y-81087D01*
X104566Y-81087D02*
X104465Y-81087D01*
G54D47*
X99492Y-78957D02*
X99669Y-79062D01*
X99468Y-78957D02*
X99492Y-78957D01*
X99428Y-78957D02*
X99468Y-78957D01*
X99232Y-78957D02*
X99428Y-78957D01*
X99490Y-77383D02*
X99681Y-77303D01*
X99409Y-77383D02*
X99490Y-77383D01*
X99232Y-77383D02*
X99409Y-77383D01*
X95117Y-79084D02*
X94957Y-79084D01*
X95157Y-79084D02*
X95117Y-79084D01*
X95708Y-78957D02*
X95157Y-79084D01*
X95885Y-78957D02*
X95708Y-78957D01*
X98642Y-79724D02*
X98740Y-79996D01*
X98642Y-79547D02*
X98642Y-79724D01*
G54D48*
X101185Y-80269D02*
X100535Y-79161D01*
X101870Y-81209D02*
X101185Y-80269D01*
X101997Y-81336D02*
X101870Y-81209D01*
X102087Y-81336D02*
X101997Y-81336D01*
X102185Y-81336D02*
X102087Y-81336D01*
X102362Y-81344D02*
X102185Y-81336D01*
X96276Y-75260D02*
X96377Y-75260D01*
X96177Y-75260D02*
X96276Y-75260D01*
X96105Y-75260D02*
X96177Y-75260D01*
X95955Y-75211D02*
X96105Y-75260D01*
X95865Y-75211D02*
X95955Y-75211D01*
X95767Y-75211D02*
X95865Y-75211D01*
X95590Y-75203D02*
X95767Y-75211D01*
X105151Y-72824D02*
X105227Y-72824D01*
X105052Y-72824D02*
X105151Y-72824D01*
X104970Y-72824D02*
X105052Y-72824D01*
X104852Y-72941D02*
X104970Y-72824D01*
X104661Y-73141D02*
X104852Y-72941D01*
X95648Y-75329D02*
X95590Y-75203D01*
X95648Y-75428D02*
X95648Y-75329D01*
X95648Y-75517D02*
X95648Y-75428D01*
X95822Y-75992D02*
X95648Y-75517D01*
X94957Y-79160D02*
X94957Y-79084D01*
X94957Y-79259D02*
X94957Y-79160D01*
X94957Y-79342D02*
X94957Y-79259D01*
X95074Y-79459D02*
X94957Y-79342D01*
X95239Y-79459D02*
X95074Y-79459D01*
X95401Y-79429D02*
X95239Y-79459D01*
X100180Y-79148D02*
X100078Y-79148D01*
X100278Y-79148D02*
X100180Y-79148D01*
X100351Y-79148D02*
X100278Y-79148D01*
X100535Y-79161D02*
X100351Y-79148D01*
X99977Y-79148D02*
X100078Y-79148D01*
X99878Y-79148D02*
X99977Y-79148D01*
X99806Y-79148D02*
X99878Y-79148D01*
X99669Y-79062D02*
X99806Y-79148D01*
X100055Y-77229D02*
X100157Y-77229D01*
X99957Y-77229D02*
X100055Y-77229D01*
X99885Y-77229D02*
X99957Y-77229D01*
X99681Y-77303D02*
X99885Y-77229D01*
X99150Y-80472D02*
X99227Y-80472D01*
X99052Y-80472D02*
X99150Y-80472D01*
X98969Y-80472D02*
X99052Y-80472D01*
X98852Y-80355D02*
X98969Y-80472D01*
X98740Y-79996D02*
X98852Y-80355D01*
X99362Y-68681D02*
X99263Y-68897D01*
X99362Y-68582D02*
X99362Y-68681D01*
X99362Y-68492D02*
X99362Y-68582D01*
X99489Y-68366D02*
X99362Y-68492D01*
X100666Y-67961D02*
X99489Y-68366D01*
X100756Y-67961D02*
X100666Y-67961D01*
X100854Y-67961D02*
X100756Y-67961D01*
X100949Y-67952D02*
X100854Y-67961D01*
X105312Y-78803D02*
X105312Y-78821D01*
X104766Y-78803D02*
X105312Y-78803D01*
X104668Y-78803D02*
X104766Y-78803D01*
X104566Y-78803D02*
X104668Y-78803D01*
X104566Y-79061D02*
X104692Y-79236D01*
X104566Y-78978D02*
X104566Y-79061D01*
X104566Y-78880D02*
X104566Y-78978D01*
X104566Y-78803D02*
X104566Y-78880D01*
X104465Y-78803D02*
X104566Y-78803D01*
X104366Y-78803D02*
X104465Y-78803D01*
X104058Y-78803D02*
X104366Y-78803D01*
X103959Y-78803D02*
X104058Y-78803D01*
X103858Y-78803D02*
X103959Y-78803D01*
X97723Y-67480D02*
X97866Y-67460D01*
X97640Y-67480D02*
X97723Y-67480D01*
X97541Y-67480D02*
X97640Y-67480D01*
X97465Y-67480D02*
X97541Y-67480D01*
X99047Y-68799D02*
X99263Y-68897D01*
X98948Y-68799D02*
X99047Y-68799D01*
X98859Y-68799D02*
X98948Y-68799D01*
X98732Y-68672D02*
X98859Y-68799D01*
X97866Y-67460D02*
X98732Y-68672D01*
X98065Y-67082D02*
X97866Y-67460D01*
X98065Y-66992D02*
X98065Y-67082D01*
X98065Y-66894D02*
X98065Y-66992D01*
X98149Y-66692D02*
X98065Y-66894D01*
G54D47*
X107136Y-68506D02*
X106586Y-68732D01*
X107201Y-68506D02*
X107136Y-68506D01*
X107240Y-68506D02*
X107201Y-68506D01*
X107401Y-68488D02*
X107240Y-68506D01*
X96062Y-77185D02*
X95885Y-77185D01*
X96143Y-77185D02*
X96062Y-77185D01*
X96897Y-77110D02*
X96143Y-77185D01*
X107666Y-67556D02*
X105433Y-67322D01*
X108179Y-67687D02*
X107666Y-67556D01*
X108245Y-67687D02*
X108179Y-67687D01*
X108284Y-67687D02*
X108245Y-67687D01*
X108425Y-67710D02*
X108284Y-67687D01*
X106351Y-71780D02*
X106673Y-71527D01*
X106269Y-71840D02*
X106351Y-71780D01*
X106167Y-71850D02*
X106269Y-71840D01*
X106039Y-71850D02*
X106167Y-71850D01*
G54D48*
X107167Y-69892D02*
X107559Y-70708D01*
X107167Y-69802D02*
X107167Y-69892D01*
X107167Y-69704D02*
X107167Y-69802D01*
X107159Y-69527D02*
X107167Y-69704D01*
X106673Y-71527D02*
X107559Y-70708D01*
G54D47*
X101496Y-73005D02*
X101181Y-73437D01*
X101588Y-72913D02*
X101496Y-73005D01*
X103215Y-72047D02*
X101588Y-72913D01*
X103492Y-71770D02*
X103215Y-72047D01*
X104583Y-69123D02*
X103492Y-71770D01*
X105092Y-69123D02*
X105227Y-69123D01*
X105052Y-69123D02*
X105092Y-69123D01*
X104583Y-69123D02*
X105052Y-69123D01*
X98444Y-76378D02*
X98444Y-76201D01*
X98444Y-76459D02*
X98444Y-76378D01*
X98558Y-76574D02*
X98444Y-76459D01*
X98736Y-76692D02*
X98558Y-76574D01*
X97552Y-75817D02*
X97322Y-74881D01*
X97656Y-75942D02*
X97552Y-75817D01*
X97656Y-76024D02*
X97656Y-75942D01*
X97656Y-76201D02*
X97656Y-76024D01*
G54D48*
X104852Y-70658D02*
X104846Y-70952D01*
X104970Y-70540D02*
X104852Y-70658D01*
X105052Y-70540D02*
X104970Y-70540D01*
X105151Y-70540D02*
X105052Y-70540D01*
X105227Y-70540D02*
X105151Y-70540D01*
X99668Y-72106D02*
X100263Y-71574D01*
X99489Y-72106D02*
X99668Y-72106D01*
X98859Y-72106D02*
X99489Y-72106D01*
X97646Y-71713D02*
X98859Y-72106D01*
X97544Y-71611D02*
X97646Y-71713D01*
X97544Y-71538D02*
X97544Y-71611D01*
X97544Y-71440D02*
X97544Y-71538D01*
X97544Y-71338D02*
X97544Y-71440D01*
X101704Y-71574D02*
X100263Y-71574D01*
X101803Y-71574D02*
X101704Y-71574D01*
X102019Y-71574D02*
X101803Y-71574D01*
X99362Y-71358D02*
X99263Y-71574D01*
X99362Y-71259D02*
X99362Y-71358D01*
X99362Y-71170D02*
X99362Y-71259D01*
X99489Y-71043D02*
X99362Y-71170D01*
X102424Y-69429D02*
X99489Y-71043D01*
X103019Y-68897D02*
X102424Y-69429D01*
X101507Y-67961D02*
X101413Y-67952D01*
X101606Y-67961D02*
X101507Y-67961D01*
X101695Y-67961D02*
X101606Y-67961D01*
X102424Y-68366D02*
X101695Y-67961D01*
X103019Y-68897D02*
X102424Y-68366D01*
X99711Y-69523D02*
X100263Y-68897D01*
X97784Y-70548D02*
X99711Y-69523D01*
X97719Y-70548D02*
X97784Y-70548D01*
X97679Y-70548D02*
X97719Y-70548D01*
X97544Y-70590D02*
X97679Y-70548D01*
X101704Y-68897D02*
X100263Y-68897D01*
X101803Y-68897D02*
X101704Y-68897D01*
X102019Y-68897D02*
X101803Y-68897D01*
G54D47*
X93956Y-76003D02*
X92992Y-74700D01*
X95131Y-77641D02*
X93956Y-76003D01*
X95448Y-77958D02*
X95131Y-77641D01*
X95483Y-77973D02*
X95448Y-77958D01*
X95708Y-77973D02*
X95483Y-77973D01*
X95885Y-77973D02*
X95708Y-77973D01*
X96476Y-79724D02*
X96476Y-79547D01*
X95540Y-79763D02*
X96476Y-79724D01*
X95262Y-79763D02*
X95540Y-79763D01*
X94961Y-79731D02*
X95262Y-79763D01*
X92992Y-78059D02*
X94961Y-79731D01*
X95708Y-78563D02*
X95885Y-78563D01*
X95633Y-78545D02*
X95708Y-78563D01*
X95528Y-78440D02*
X95633Y-78545D01*
X95501Y-78405D02*
X95528Y-78440D01*
X95357Y-78261D02*
X95501Y-78405D01*
X92992Y-76059D02*
X95357Y-78261D01*
X95708Y-77579D02*
X95885Y-77579D01*
X95626Y-77579D02*
X95708Y-77579D01*
X95511Y-77463D02*
X95626Y-77579D01*
X95158Y-75493D02*
X95511Y-77463D01*
X94963Y-71642D02*
X95158Y-75493D01*
X94963Y-71577D02*
X94963Y-71642D01*
X94963Y-71537D02*
X94963Y-71577D01*
X94921Y-71402D02*
X94963Y-71537D01*
X95708Y-77776D02*
X95885Y-77776D01*
X95544Y-77776D02*
X95708Y-77776D01*
X95314Y-77545D02*
X95544Y-77776D01*
X92992Y-73700D02*
X95314Y-77545D01*
X101088Y-66378D02*
X101088Y-66062D01*
X101088Y-66417D02*
X101088Y-66378D01*
X101088Y-66482D02*
X101088Y-66417D01*
X100996Y-66575D02*
X101088Y-66482D01*
X100678Y-66811D02*
X100996Y-66575D01*
X100613Y-66811D02*
X100678Y-66811D01*
X100574Y-66811D02*
X100613Y-66811D01*
X100338Y-66929D02*
X100574Y-66811D01*
X98597Y-77027D02*
X98110Y-76696D01*
X98973Y-77186D02*
X98597Y-77027D01*
X99055Y-77186D02*
X98973Y-77186D01*
X99232Y-77186D02*
X99055Y-77186D01*
X98050Y-76378D02*
X98050Y-76201D01*
X98050Y-76459D02*
X98050Y-76378D01*
X98110Y-76696D02*
X98050Y-76459D01*
X100030Y-65182D02*
X98952Y-67692D01*
X100122Y-65089D02*
X100030Y-65182D01*
X100187Y-65089D02*
X100122Y-65089D01*
X100226Y-65089D02*
X100187Y-65089D01*
X100362Y-65047D02*
X100226Y-65089D01*
X97853Y-76024D02*
X97853Y-76201D01*
X97853Y-75942D02*
X97853Y-76024D01*
X97881Y-75681D02*
X97853Y-75942D01*
G54D48*
X94679Y-67644D02*
X93700Y-65944D01*
X94745Y-69212D02*
X94679Y-67644D01*
X94622Y-74503D02*
X94107Y-71810D01*
X96251Y-67279D02*
X96181Y-66692D01*
X96865Y-67480D02*
X96251Y-67279D01*
X96968Y-76614D02*
X98740Y-77590D01*
X102273Y-76397D02*
X102273Y-76498D01*
X102273Y-76298D02*
X102273Y-76397D01*
X102273Y-76226D02*
X102273Y-76298D01*
X102170Y-76124D02*
X102273Y-76226D01*
X101783Y-75964D02*
X102170Y-76124D01*
X101830Y-75176D02*
X102244Y-74960D01*
X101830Y-75275D02*
X101830Y-75176D01*
X101830Y-75348D02*
X101830Y-75275D01*
X101783Y-75964D02*
X101830Y-75348D01*
X105827Y-72722D02*
X105827Y-72824D01*
X105827Y-72624D02*
X105827Y-72722D01*
X105827Y-72551D02*
X105827Y-72624D01*
X105646Y-72267D02*
X105827Y-72551D01*
X105646Y-72120D02*
X105646Y-72267D01*
X105646Y-71739D02*
X105646Y-72120D01*
X105653Y-71732D02*
X105646Y-71739D01*
X106312Y-81216D02*
X106312Y-81021D01*
X106312Y-81320D02*
X106312Y-81216D01*
X106459Y-81466D02*
X106312Y-81320D01*
X106700Y-81492D02*
X106459Y-81466D01*
X106927Y-81492D02*
X108661Y-80905D01*
X106700Y-81492D02*
X106927Y-81492D01*
X106812Y-81216D02*
X106812Y-81021D01*
X106700Y-81492D02*
X106812Y-81216D01*
X95058Y-78484D02*
X94957Y-78484D01*
X95157Y-78484D02*
X95058Y-78484D01*
X95229Y-78484D02*
X95157Y-78484D01*
X95448Y-78669D02*
X95229Y-78484D01*
X96479Y-74660D02*
X96377Y-74660D01*
X96577Y-74660D02*
X96479Y-74660D01*
X96650Y-74660D02*
X96577Y-74660D01*
X96752Y-74762D02*
X96650Y-74660D01*
X96755Y-75012D02*
X96752Y-74762D01*
X96755Y-75362D02*
X96755Y-75012D01*
X96755Y-75509D02*
X96755Y-75362D01*
X96708Y-75787D02*
X96755Y-75509D01*
X103011Y-74039D02*
X103137Y-74137D01*
X102736Y-74195D02*
X102244Y-74173D01*
X102834Y-74195D02*
X102736Y-74195D01*
X103011Y-74039D02*
X102834Y-74195D01*
X102736Y-74822D02*
X102244Y-74960D01*
X102834Y-74822D02*
X102736Y-74822D01*
X102907Y-74822D02*
X102834Y-74822D01*
X103011Y-74718D02*
X102907Y-74822D01*
X103137Y-74137D02*
X103011Y-74718D01*
X102544Y-77542D02*
X102406Y-77345D01*
X102642Y-77542D02*
X102544Y-77542D01*
X102715Y-77542D02*
X102642Y-77542D01*
X102819Y-77646D02*
X102715Y-77542D01*
X102901Y-77771D02*
X102819Y-77646D01*
X103126Y-78127D02*
X103149Y-78203D01*
X103126Y-78029D02*
X103126Y-78127D01*
X103126Y-77955D02*
X103126Y-78029D01*
X103023Y-77851D02*
X103126Y-77955D01*
X102901Y-77771D02*
X103023Y-77851D01*
X100101Y-79825D02*
X100078Y-79748D01*
X100101Y-79923D02*
X100101Y-79825D01*
X100101Y-79997D02*
X100101Y-79923D01*
X100259Y-80212D02*
X100101Y-79997D01*
G54D47*
X97853Y-79370D02*
X97853Y-79546D01*
X97873Y-79296D02*
X97853Y-79370D01*
X97977Y-79192D02*
X97873Y-79296D01*
X98314Y-79055D02*
X97977Y-79192D01*
X98444Y-79370D02*
X98444Y-79546D01*
X98425Y-79296D02*
X98444Y-79370D01*
X98314Y-79055D02*
X98425Y-79296D01*
G54D48*
X98740Y-77590D02*
X98314Y-79055D01*
X101424Y-76121D02*
X101783Y-75964D01*
X100614Y-76606D02*
X101424Y-76121D01*
X96001Y-67753D02*
X96251Y-67279D01*
X96129Y-69909D02*
X96001Y-67753D01*
X108772Y-68591D02*
X108775Y-68510D01*
X108772Y-68690D02*
X108772Y-68591D01*
X108772Y-68763D02*
X108772Y-68690D01*
X108440Y-69350D02*
X108772Y-68763D01*
X102147Y-66118D02*
X102088Y-66062D01*
X102246Y-66118D02*
X102147Y-66118D01*
X102503Y-66118D02*
X102246Y-66118D01*
X102185Y-80497D02*
X102362Y-80544D01*
X102087Y-80497D02*
X102185Y-80497D01*
X102013Y-80497D02*
X102087Y-80497D01*
X101578Y-80106D02*
X102013Y-80497D01*
X106312Y-80825D02*
X106312Y-81021D01*
X105927Y-80548D02*
X106312Y-80825D01*
X105594Y-80539D02*
X105927Y-80548D01*
X108257Y-69429D02*
X108440Y-69350D01*
X108184Y-69429D02*
X108257Y-69429D01*
X108085Y-69429D02*
X108184Y-69429D01*
X107959Y-69527D02*
X108085Y-69429D01*
X93700Y-65944D02*
X96181Y-66692D01*
X96276Y-74660D02*
X96377Y-74660D01*
X96177Y-74660D02*
X96276Y-74660D01*
X96111Y-74646D02*
X96177Y-74660D01*
X95932Y-74467D02*
X96111Y-74646D01*
X95865Y-74451D02*
X95932Y-74467D01*
X95766Y-74451D02*
X95865Y-74451D01*
X95590Y-74403D02*
X95766Y-74451D01*
X103048Y-80487D02*
X103149Y-80487D01*
X102949Y-80487D02*
X103048Y-80487D01*
X102877Y-80487D02*
X102949Y-80487D01*
X102710Y-80497D02*
X102877Y-80487D01*
X102637Y-80497D02*
X102710Y-80497D01*
X102538Y-80497D02*
X102637Y-80497D01*
X102362Y-80544D02*
X102538Y-80497D01*
X101231Y-78998D02*
X101047Y-79129D01*
X101304Y-78998D02*
X101231Y-78998D01*
X101402Y-78998D02*
X101304Y-78998D01*
X101540Y-78801D02*
X101402Y-78998D01*
X102273Y-76600D02*
X102273Y-76498D01*
X102273Y-76698D02*
X102273Y-76600D01*
X102273Y-76771D02*
X102273Y-76698D01*
X102347Y-76898D02*
X102273Y-76771D01*
X102347Y-76971D02*
X102347Y-76898D01*
X102347Y-77070D02*
X102347Y-76971D01*
X102406Y-77345D02*
X102347Y-77070D01*
X101751Y-74173D02*
X102244Y-74173D01*
X101655Y-74173D02*
X101751Y-74173D01*
X101653Y-74173D02*
X101655Y-74173D01*
X101481Y-74173D02*
X101653Y-74173D01*
X103011Y-73784D02*
X103011Y-74039D01*
X103011Y-73627D02*
X103011Y-73784D01*
X102907Y-73524D02*
X103011Y-73627D01*
X102834Y-73524D02*
X102907Y-73524D01*
X102736Y-73524D02*
X102834Y-73524D01*
X102244Y-73386D02*
X102736Y-73524D01*
G54D47*
X95634Y-78740D02*
X95448Y-78669D01*
X95707Y-78759D02*
X95634Y-78740D01*
X95885Y-78759D02*
X95707Y-78759D01*
X96795Y-76555D02*
X96968Y-76614D01*
X96691Y-76451D02*
X96795Y-76555D01*
X96673Y-76377D02*
X96691Y-76451D01*
X96673Y-76201D02*
X96673Y-76377D01*
X96673Y-76024D02*
X96708Y-75787D01*
X96673Y-76201D02*
X96673Y-76024D01*
X99055Y-77579D02*
X98740Y-77590D01*
X99231Y-77579D02*
X99055Y-77579D01*
G54D48*
X106076Y-72846D02*
X106747Y-72926D01*
X106003Y-72846D02*
X106076Y-72846D01*
X105904Y-72846D02*
X106003Y-72846D01*
X105827Y-72824D02*
X105904Y-72846D01*
X105725Y-73199D02*
X103907Y-73858D01*
X105827Y-73096D02*
X105725Y-73199D01*
X105827Y-73024D02*
X105827Y-73096D01*
X105827Y-72925D02*
X105827Y-73024D01*
X105827Y-72824D02*
X105827Y-72925D01*
X102088Y-65807D02*
X102088Y-66062D01*
X102088Y-65708D02*
X102088Y-65807D01*
X102088Y-65643D02*
X102088Y-65708D01*
X102301Y-65319D02*
X102088Y-65643D01*
X102301Y-65247D02*
X102301Y-65319D01*
X102301Y-65148D02*
X102301Y-65247D01*
X102301Y-65047D02*
X102301Y-65148D01*
X104465Y-78203D02*
X104566Y-78203D01*
X104366Y-78203D02*
X104465Y-78203D01*
X104058Y-78203D02*
X104366Y-78203D01*
X103959Y-78203D02*
X104058Y-78203D01*
X103858Y-78203D02*
X103959Y-78203D01*
X104589Y-77955D02*
X104921Y-76377D01*
X104589Y-78029D02*
X104589Y-77955D01*
X104589Y-78127D02*
X104589Y-78029D01*
X104566Y-78203D02*
X104589Y-78127D01*
X103275Y-80135D02*
X103503Y-80102D01*
X103172Y-80238D02*
X103275Y-80135D01*
X103172Y-80312D02*
X103172Y-80238D01*
X103172Y-80411D02*
X103172Y-80312D01*
X103149Y-80487D02*
X103172Y-80411D01*
X101673Y-79920D02*
X101578Y-80106D01*
X101673Y-79848D02*
X101673Y-79920D01*
X101673Y-79750D02*
X101673Y-79848D01*
X101673Y-79648D02*
X101673Y-79750D01*
X101599Y-79077D02*
X101540Y-78801D01*
X101599Y-79175D02*
X101599Y-79077D01*
X101599Y-79249D02*
X101599Y-79175D01*
X101673Y-79375D02*
X101599Y-79249D01*
X101673Y-79448D02*
X101673Y-79375D01*
X101673Y-79546D02*
X101673Y-79448D01*
X101673Y-79648D02*
X101673Y-79546D01*
X96603Y-73360D02*
X96236Y-71862D01*
X96400Y-74412D02*
X96603Y-73360D01*
X96400Y-74485D02*
X96400Y-74412D01*
X96400Y-74584D02*
X96400Y-74485D01*
X96377Y-74660D02*
X96400Y-74584D01*
X100179Y-80346D02*
X100259Y-80212D01*
X100075Y-80449D02*
X100179Y-80346D01*
X100002Y-80449D02*
X100075Y-80449D01*
X99903Y-80449D02*
X100002Y-80449D01*
X99827Y-80472D02*
X99903Y-80449D01*
X94684Y-78484D02*
X92992Y-77059D01*
X94757Y-78484D02*
X94684Y-78484D01*
X94855Y-78484D02*
X94757Y-78484D01*
X94957Y-78484D02*
X94855Y-78484D01*
X100429Y-76629D02*
X100614Y-76606D01*
X100357Y-76629D02*
X100429Y-76629D01*
X100259Y-76629D02*
X100357Y-76629D01*
X100157Y-76629D02*
X100259Y-76629D01*
X103756Y-78203D02*
X103858Y-78203D01*
X103658Y-78203D02*
X103756Y-78203D01*
X103349Y-78203D02*
X103658Y-78203D01*
X103251Y-78203D02*
X103349Y-78203D01*
X103149Y-78203D02*
X103251Y-78203D01*
X104979Y-69809D02*
X104795Y-69748D01*
X105053Y-69809D02*
X104979Y-69809D01*
X105151Y-69809D02*
X105053Y-69809D01*
X105227Y-69832D02*
X105151Y-69809D01*
X102790Y-66741D02*
X102503Y-66118D01*
X102790Y-67116D02*
X102790Y-66741D01*
X102525Y-67381D02*
X102790Y-67116D01*
X102151Y-67381D02*
X102525Y-67381D01*
X101338Y-66929D02*
X102151Y-67381D01*
X93089Y-72352D02*
X93700Y-65944D01*
X93089Y-72425D02*
X93089Y-72352D01*
X93089Y-72524D02*
X93089Y-72425D01*
X92992Y-72700D02*
X93089Y-72524D01*
X98079Y-81885D02*
X97952Y-81885D01*
X98177Y-81885D02*
X98079Y-81885D01*
X98357Y-81885D02*
X98177Y-81885D01*
X98455Y-81885D02*
X98357Y-81885D01*
X98582Y-81885D02*
X98455Y-81885D01*
X99614Y-81766D02*
X99868Y-81307D01*
X99511Y-81870D02*
X99614Y-81766D01*
X99437Y-81870D02*
X99511Y-81870D01*
X99339Y-81870D02*
X99437Y-81870D01*
X99212Y-81885D02*
X99339Y-81870D01*
X98709Y-81885D02*
X98582Y-81885D01*
X98807Y-81885D02*
X98709Y-81885D01*
X98987Y-81885D02*
X98807Y-81885D01*
X99085Y-81885D02*
X98987Y-81885D01*
X99212Y-81885D02*
X99085Y-81885D01*
X96566Y-81885D02*
X96692Y-81885D01*
X96467Y-81885D02*
X96566Y-81885D01*
X96288Y-81885D02*
X96467Y-81885D01*
X96189Y-81885D02*
X96288Y-81885D01*
X96062Y-81885D02*
X96189Y-81885D01*
X96819Y-81885D02*
X96692Y-81885D01*
X96918Y-81885D02*
X96819Y-81885D01*
X97097Y-81885D02*
X96918Y-81885D01*
X97196Y-81885D02*
X97097Y-81885D01*
X97322Y-81885D02*
X97196Y-81885D01*
X97449Y-81885D02*
X97322Y-81885D01*
X97548Y-81885D02*
X97449Y-81885D01*
X97727Y-81885D02*
X97548Y-81885D01*
X97825Y-81885D02*
X97727Y-81885D01*
X97952Y-81885D02*
X97825Y-81885D01*
X95936Y-81885D02*
X96062Y-81885D01*
X95837Y-81885D02*
X95936Y-81885D01*
X95658Y-81885D02*
X95837Y-81885D01*
X95559Y-81885D02*
X95658Y-81885D01*
X95433Y-81885D02*
X95559Y-81885D01*
X95134Y-81870D02*
X93700Y-80905D01*
X95207Y-81870D02*
X95134Y-81870D01*
X95306Y-81870D02*
X95207Y-81870D01*
X95433Y-81885D02*
X95306Y-81870D01*
X96292Y-71677D02*
X96236Y-71862D01*
X96292Y-71603D02*
X96292Y-71677D01*
X96292Y-71505D02*
X96292Y-71603D01*
X96294Y-71423D02*
X96292Y-71505D01*
X108782Y-67456D02*
X108661Y-65944D01*
X108782Y-67816D02*
X108782Y-67456D01*
X108782Y-67963D02*
X108782Y-67816D01*
X108777Y-68256D02*
X108782Y-67963D01*
X108777Y-68330D02*
X108777Y-68256D01*
X108777Y-68428D02*
X108777Y-68330D01*
X108775Y-68510D02*
X108777Y-68428D01*
G54D47*
X105705Y-71508D02*
X105653Y-71732D01*
X105826Y-71387D02*
X105705Y-71508D01*
X105912Y-71337D02*
X105826Y-71387D01*
X106040Y-71337D02*
X105912Y-71337D01*
G54D48*
X100431Y-66118D02*
X100173Y-66118D01*
X100529Y-66118D02*
X100431Y-66118D01*
X100588Y-66062D02*
X100529Y-66118D01*
X99055Y-65196D02*
X96535Y-65275D01*
X102301Y-65047D02*
X103700Y-65275D01*
X104409Y-66771D02*
X103700Y-65275D01*
X104409Y-66771D02*
X103385Y-67874D01*
X106771Y-65275D02*
X108661Y-65944D01*
X109291Y-68582D02*
X109370Y-69133D01*
X108775Y-68510D02*
X109291Y-68582D01*
X109370Y-69133D02*
X109370Y-70944D01*
X109370Y-70944D02*
X109448Y-72755D01*
X108878Y-72285D02*
X108440Y-69350D01*
X108878Y-72596D02*
X108878Y-72285D01*
X108659Y-72815D02*
X108878Y-72596D01*
X107987Y-72972D02*
X108659Y-72815D01*
X107839Y-72972D02*
X107987Y-72972D01*
X107131Y-72972D02*
X107839Y-72972D01*
X106747Y-72926D02*
X107131Y-72972D01*
X106747Y-72926D02*
X106692Y-73937D01*
X106692Y-73937D02*
X106771Y-75039D01*
X104330Y-71968D02*
X103464Y-72992D01*
X103464Y-72992D02*
X103907Y-73858D01*
X103907Y-73858D02*
X103137Y-74137D01*
X103700Y-75039D02*
X103907Y-73858D01*
X103700Y-75039D02*
X105039Y-75039D01*
X107999Y-77218D02*
X108897Y-76456D01*
X106929Y-77874D02*
X107999Y-77218D01*
X108661Y-80905D02*
X107747Y-79305D01*
X106614Y-79606D02*
X107747Y-79305D01*
X107747Y-79305D02*
X106929Y-77874D01*
X102901Y-77771D02*
X103622Y-76771D01*
X102992Y-79606D02*
X103503Y-80102D01*
X100259Y-80379D02*
X100259Y-80212D01*
X100179Y-80746D02*
X100259Y-80379D01*
X99868Y-81307D02*
X100179Y-80746D01*
X99868Y-81307D02*
X100787Y-81732D01*
X96850Y-78897D02*
X97559Y-77795D01*
X97559Y-77795D02*
X98740Y-77590D01*
X95511Y-80236D02*
X93700Y-80905D01*
X97283Y-69448D02*
X96129Y-69909D01*
X103464Y-70708D02*
X101968Y-70236D01*
X100000Y-78582D02*
X101540Y-78801D01*
G54D47*
X99409Y-77973D02*
X99232Y-77973D01*
X99572Y-77973D02*
X99409Y-77973D01*
X100172Y-78019D02*
X99572Y-77973D01*
X100449Y-78019D02*
X100172Y-78019D01*
X100600Y-77876D02*
X100449Y-78019D01*
X100666Y-77876D02*
X100600Y-77876D01*
X100705Y-77876D02*
X100666Y-77876D01*
X100866Y-77859D02*
X100705Y-77876D01*
X99566Y-74960D02*
X100118Y-74960D01*
X99527Y-74960D02*
X99566Y-74960D01*
X99215Y-74960D02*
X99527Y-74960D01*
X99175Y-74960D02*
X99215Y-74960D01*
X99040Y-74960D02*
X99175Y-74960D01*
X107913Y-72440D02*
X108503Y-72440D01*
X107874Y-72440D02*
X107913Y-72440D01*
X107559Y-72440D02*
X107874Y-72440D01*
X107244Y-72244D02*
X107559Y-72440D01*
X107204Y-72244D02*
X107244Y-72244D01*
X107139Y-72244D02*
X107204Y-72244D01*
X106293Y-72106D02*
X107139Y-72244D01*
X106256Y-72106D02*
X106293Y-72106D01*
X106217Y-72106D02*
X106256Y-72106D01*
X106039Y-72106D02*
X106217Y-72106D01*
X101343Y-77276D02*
X101540Y-77345D01*
X101304Y-77276D02*
X101343Y-77276D01*
X101066Y-77276D02*
X101304Y-77276D01*
X101026Y-77276D02*
X101066Y-77276D01*
X100866Y-77259D02*
X101026Y-77276D01*
X101655Y-76659D02*
X101673Y-76498D01*
X101655Y-76698D02*
X101655Y-76659D01*
X101655Y-76764D02*
X101655Y-76698D01*
X101618Y-76906D02*
X101655Y-76764D01*
X101618Y-76971D02*
X101618Y-76906D01*
X101618Y-77010D02*
X101618Y-76971D01*
X101540Y-77345D02*
X101618Y-77010D01*
X105963Y-70583D02*
X105827Y-70540D01*
X106002Y-70583D02*
X105963Y-70583D01*
X106068Y-70583D02*
X106002Y-70583D01*
X106160Y-70675D02*
X106068Y-70583D01*
X106413Y-71236D02*
X106160Y-70675D01*
X106413Y-71439D02*
X106413Y-71236D01*
X106269Y-71584D02*
X106413Y-71439D01*
X106167Y-71594D02*
X106269Y-71584D01*
X106039Y-71594D02*
X106167Y-71594D01*
X105827Y-69671D02*
X105827Y-69832D01*
X105827Y-69632D02*
X105827Y-69671D01*
X105827Y-69323D02*
X105827Y-69632D01*
X105827Y-69284D02*
X105827Y-69323D01*
X105827Y-69123D02*
X105827Y-69284D01*
X105827Y-69992D02*
X105827Y-69832D01*
X105827Y-70032D02*
X105827Y-69992D01*
X105827Y-70340D02*
X105827Y-70032D01*
X105827Y-70380D02*
X105827Y-70340D01*
X105827Y-70540D02*
X105827Y-70380D01*
X95500Y-81267D02*
X95433Y-81421D01*
X95500Y-81228D02*
X95500Y-81267D01*
X95500Y-81163D02*
X95500Y-81228D01*
X95592Y-81071D02*
X95500Y-81163D01*
X96754Y-79920D02*
X95592Y-81071D01*
X96870Y-79805D02*
X96754Y-79920D01*
X96870Y-79724D02*
X96870Y-79805D01*
X96870Y-79547D02*
X96870Y-79724D01*
X99145Y-81267D02*
X99212Y-81421D01*
X99145Y-81228D02*
X99145Y-81267D01*
X99145Y-81163D02*
X99145Y-81228D01*
X98580Y-80468D02*
X99145Y-81163D01*
X98248Y-79805D02*
X98580Y-80468D01*
X98248Y-79724D02*
X98248Y-79805D01*
X98248Y-79547D02*
X98248Y-79724D01*
X108052Y-68369D02*
X108075Y-68510D01*
X108052Y-68330D02*
X108052Y-68369D01*
X108052Y-68265D02*
X108052Y-68330D01*
X107960Y-68172D02*
X108052Y-68265D01*
X107666Y-67906D02*
X107960Y-68172D01*
X107601Y-67906D02*
X107666Y-67906D01*
X107562Y-67906D02*
X107601Y-67906D01*
X107401Y-67888D02*
X107562Y-67906D01*
X102209Y-78585D02*
X102406Y-78801D01*
X102170Y-78585D02*
X102209Y-78585D01*
X102105Y-78585D02*
X102170Y-78585D01*
X102012Y-78492D02*
X102105Y-78585D01*
X101933Y-78362D02*
X102012Y-78492D01*
X101841Y-78270D02*
X101933Y-78362D01*
X100098Y-78216D02*
X101841Y-78270D01*
X99490Y-78170D02*
X100098Y-78216D01*
X99409Y-78170D02*
X99490Y-78170D01*
X99232Y-78170D02*
X99409Y-78170D01*
X102290Y-79487D02*
X102273Y-79648D01*
X102290Y-79448D02*
X102290Y-79487D01*
X102290Y-79383D02*
X102290Y-79448D01*
X102327Y-79240D02*
X102290Y-79383D01*
X102327Y-79175D02*
X102327Y-79240D01*
X102327Y-79136D02*
X102327Y-79175D01*
X102406Y-78801D02*
X102327Y-79136D01*
X98051Y-79724D02*
X98051Y-79547D01*
X98051Y-79887D02*
X98051Y-79724D01*
X98515Y-81163D02*
X98051Y-79887D01*
X98515Y-81228D02*
X98515Y-81163D01*
X98515Y-81267D02*
X98515Y-81228D01*
X98582Y-81421D02*
X98515Y-81267D01*
X97461Y-79724D02*
X97461Y-79547D01*
X97461Y-79987D02*
X97461Y-79724D01*
X97390Y-81163D02*
X97461Y-79987D01*
X97390Y-81228D02*
X97390Y-81163D01*
X97390Y-81267D02*
X97390Y-81228D01*
X97322Y-81421D02*
X97390Y-81267D01*
X97657Y-79724D02*
X97657Y-79547D01*
X97657Y-79805D02*
X97657Y-79724D01*
X97885Y-81163D02*
X97657Y-79805D01*
X97885Y-81228D02*
X97885Y-81163D01*
X97885Y-81267D02*
X97885Y-81228D01*
X97952Y-81421D02*
X97885Y-81267D01*
X99566Y-74173D02*
X100118Y-74173D01*
X99527Y-74173D02*
X99566Y-74173D01*
X99215Y-74173D02*
X99527Y-74173D01*
X99175Y-74173D02*
X99215Y-74173D01*
X99040Y-74173D02*
X99175Y-74173D01*
X100669Y-74173D02*
X100118Y-74173D01*
X100708Y-74173D02*
X100669Y-74173D01*
X100706Y-74173D02*
X100708Y-74173D01*
X100745Y-74173D02*
X100706Y-74173D01*
X100881Y-74173D02*
X100745Y-74173D01*
X96808Y-70607D02*
X96944Y-70590D01*
X96769Y-70607D02*
X96808Y-70607D01*
X96124Y-70607D02*
X96769Y-70607D01*
X96085Y-70607D02*
X96124Y-70607D01*
X95944Y-70623D02*
X96085Y-70607D01*
X96944Y-71177D02*
X96944Y-71338D01*
X96944Y-71138D02*
X96944Y-71177D01*
X96944Y-70790D02*
X96944Y-71138D01*
X96944Y-70751D02*
X96944Y-70790D01*
X96944Y-70590D02*
X96944Y-70751D01*
X95572Y-71282D02*
X95594Y-71423D01*
X95572Y-71243D02*
X95572Y-71282D01*
X95572Y-71178D02*
X95572Y-71243D01*
X95480Y-71086D02*
X95572Y-71178D01*
X95186Y-70819D02*
X95480Y-71086D01*
X95121Y-70819D02*
X95186Y-70819D01*
X95081Y-70819D02*
X95121Y-70819D01*
X94921Y-70802D02*
X95081Y-70819D01*
X104406Y-80487D02*
X104566Y-80487D01*
X104366Y-80487D02*
X104406Y-80487D01*
X104058Y-80487D02*
X104366Y-80487D01*
X104018Y-80487D02*
X104058Y-80487D01*
X103858Y-80487D02*
X104018Y-80487D01*
X103838Y-80351D02*
X103858Y-80487D01*
X103838Y-80312D02*
X103838Y-80351D01*
X103838Y-79963D02*
X103838Y-80312D01*
X103192Y-79044D02*
X103838Y-79963D01*
X103192Y-78978D02*
X103192Y-79044D01*
X103192Y-78939D02*
X103192Y-78978D01*
X103149Y-78803D02*
X103192Y-78939D01*
X105812Y-79016D02*
X105812Y-78821D01*
X104924Y-80377D02*
X105812Y-79016D01*
X104832Y-80469D02*
X104924Y-80377D01*
X104766Y-80469D02*
X104832Y-80469D01*
X104727Y-80469D02*
X104766Y-80469D01*
X104566Y-80487D02*
X104727Y-80469D01*
X97067Y-79724D02*
X97067Y-79547D01*
X97067Y-79887D02*
X97067Y-79724D01*
X96130Y-81163D02*
X97067Y-79887D01*
X96130Y-81228D02*
X96130Y-81163D01*
X96130Y-81267D02*
X96130Y-81228D01*
X96062Y-81421D02*
X96130Y-81267D01*
X96760Y-81267D02*
X96692Y-81421D01*
X96760Y-81228D02*
X96760Y-81267D01*
X96760Y-81163D02*
X96760Y-81228D01*
X97249Y-79983D02*
X96760Y-81163D01*
X97264Y-79948D02*
X97249Y-79983D01*
X97264Y-79724D02*
X97264Y-79948D01*
X97264Y-79547D02*
X97264Y-79724D01*
X101683Y-65207D02*
X101701Y-65047D01*
X101683Y-65247D02*
X101683Y-65207D01*
X101683Y-65312D02*
X101683Y-65247D01*
X101588Y-65643D02*
X101683Y-65312D01*
X101588Y-65708D02*
X101588Y-65643D01*
X101588Y-65747D02*
X101588Y-65708D01*
X101588Y-66062D02*
X101588Y-65747D01*
X101588Y-66378D02*
X101588Y-66062D01*
X101588Y-66417D02*
X101588Y-66378D01*
X101588Y-66482D02*
X101588Y-66417D01*
X101680Y-66575D02*
X101588Y-66482D01*
X102338Y-66929D02*
X101680Y-66575D01*
X101098Y-65047D02*
X100962Y-65047D01*
X101137Y-65047D02*
X101098Y-65047D01*
X101526Y-65047D02*
X101137Y-65047D01*
X101565Y-65047D02*
X101526Y-65047D01*
X101701Y-65047D02*
X101565Y-65047D01*
X99070Y-76792D02*
X99233Y-76792D01*
X99070Y-76554D02*
X99070Y-76792D01*
X98856Y-75853D02*
X99070Y-76554D01*
X98614Y-75611D02*
X98856Y-75853D01*
X98468Y-75515D02*
X98614Y-75611D01*
X98206Y-75301D02*
X98468Y-75515D01*
X98124Y-75218D02*
X98206Y-75301D01*
X98107Y-75068D02*
X98124Y-75218D01*
X98107Y-74937D02*
X98107Y-75068D01*
X98107Y-74307D02*
X98107Y-74937D01*
X98199Y-74215D02*
X98107Y-74307D01*
X98265Y-74215D02*
X98199Y-74215D01*
X98304Y-74215D02*
X98265Y-74215D01*
X98440Y-74173D02*
X98304Y-74215D01*
X99566Y-73386D02*
X100118Y-73386D01*
X99527Y-73386D02*
X99566Y-73386D01*
X99215Y-73386D02*
X99527Y-73386D01*
X99175Y-73386D02*
X99215Y-73386D01*
X99040Y-73385D02*
X99175Y-73386D01*
X99409Y-76989D02*
X99232Y-76989D01*
X99491Y-76989D02*
X99409Y-76989D01*
X99607Y-76873D02*
X99491Y-76989D01*
X99607Y-76710D02*
X99607Y-76873D01*
X99036Y-75754D02*
X99607Y-76710D01*
X98713Y-75431D02*
X99036Y-75754D01*
X98549Y-75318D02*
X98713Y-75431D01*
X98457Y-75225D02*
X98549Y-75318D01*
X98457Y-75160D02*
X98457Y-75225D01*
X98457Y-75121D02*
X98457Y-75160D01*
X98440Y-74960D02*
X98457Y-75121D01*
X98640Y-76024D02*
X98640Y-76201D01*
X98640Y-75942D02*
X98640Y-76024D01*
X98525Y-75828D02*
X98640Y-75942D01*
X98378Y-75703D02*
X98525Y-75828D01*
X98132Y-75481D02*
X98378Y-75703D01*
X97944Y-75293D02*
X98132Y-75481D01*
X97910Y-75149D02*
X97944Y-75293D01*
X97910Y-74856D02*
X97910Y-75149D01*
X97910Y-74226D02*
X97910Y-74856D01*
X98107Y-73520D02*
X97910Y-74226D01*
X98199Y-73428D02*
X98107Y-73520D01*
X98265Y-73428D02*
X98199Y-73428D01*
X98304Y-73428D02*
X98265Y-73428D01*
X98440Y-73385D02*
X98304Y-73428D01*
G54D10*
G36*
X95595Y-78760D02*
X95570Y-78776D01*
X95308Y-78837D01*
X95299Y-78814D01*
X95268Y-78784D01*
X95299Y-78753D01*
X95324Y-78692D01*
X95324Y-78576D01*
X95282Y-78535D01*
X95324Y-78535D01*
X95324Y-78519D01*
X95346Y-78541D01*
X95364Y-78566D01*
X95375Y-78575D01*
X95382Y-78586D01*
X95487Y-78691D01*
X95491Y-78693D01*
X95491Y-78695D01*
X95525Y-78730D01*
X95546Y-78730D01*
X95554Y-78736D01*
X95561Y-78737D01*
X95595Y-78760D01*
X95595Y-78760D01*
G37*
G54D49*
X95595Y-78760D02*
X95570Y-78776D01*
X95308Y-78837D01*
X95299Y-78814D01*
X95268Y-78784D01*
X95299Y-78753D01*
X95324Y-78692D01*
X95324Y-78576D01*
X95282Y-78535D01*
X95324Y-78535D01*
X95324Y-78519D01*
X95346Y-78541D01*
X95364Y-78566D01*
X95375Y-78575D01*
X95382Y-78586D01*
X95487Y-78691D01*
X95491Y-78693D01*
X95491Y-78695D01*
X95525Y-78730D01*
X95546Y-78730D01*
X95554Y-78736D01*
X95561Y-78737D01*
X95595Y-78760D01*
G54D10*
G36*
X99144Y-79183D02*
X99137Y-79190D01*
X99084Y-79317D01*
X99084Y-79454D01*
X99118Y-79535D01*
X99010Y-79970D01*
X98993Y-79916D01*
X98944Y-79825D01*
X98879Y-79773D01*
X98867Y-79738D01*
X98868Y-79731D01*
X98868Y-79362D01*
X98851Y-79275D01*
X98802Y-79202D01*
X98728Y-79153D01*
X98642Y-79135D01*
X98555Y-79153D01*
X98539Y-79163D01*
X98509Y-79153D01*
X98474Y-79187D01*
X98474Y-79213D01*
X98445Y-79257D01*
X98415Y-79213D01*
X98415Y-79187D01*
X98380Y-79153D01*
X98350Y-79163D01*
X98334Y-79153D01*
X98248Y-79135D01*
X98161Y-79153D01*
X98149Y-79160D01*
X98137Y-79153D01*
X98051Y-79135D01*
X97964Y-79153D01*
X97948Y-79163D01*
X97918Y-79153D01*
X97883Y-79187D01*
X97883Y-79213D01*
X97854Y-79257D01*
X97824Y-79213D01*
X97824Y-79187D01*
X97789Y-79153D01*
X97759Y-79163D01*
X97743Y-79153D01*
X97657Y-79135D01*
X97570Y-79153D01*
X97559Y-79160D01*
X97547Y-79153D01*
X97461Y-79135D01*
X97374Y-79153D01*
X97362Y-79160D01*
X97350Y-79153D01*
X97264Y-79135D01*
X97177Y-79153D01*
X97165Y-79160D01*
X97153Y-79153D01*
X97067Y-79135D01*
X96980Y-79153D01*
X96968Y-79160D01*
X96956Y-79153D01*
X96870Y-79135D01*
X96783Y-79153D01*
X96771Y-79160D01*
X96759Y-79153D01*
X96673Y-79135D01*
X96586Y-79153D01*
X96574Y-79160D01*
X96562Y-79153D01*
X96476Y-79135D01*
X96389Y-79153D01*
X96316Y-79202D01*
X96266Y-79275D01*
X96249Y-79362D01*
X96249Y-79527D01*
X95724Y-79549D01*
X95746Y-79497D01*
X95746Y-79360D01*
X95693Y-79234D01*
X95643Y-79184D01*
X95671Y-79177D01*
X95700Y-79183D01*
X96069Y-79183D01*
X96156Y-79166D01*
X96229Y-79117D01*
X96279Y-79043D01*
X96296Y-78957D01*
X96279Y-78870D01*
X96268Y-78854D01*
X96279Y-78824D01*
X96244Y-78789D01*
X96218Y-78789D01*
X96174Y-78760D01*
X96218Y-78730D01*
X96244Y-78730D01*
X96279Y-78695D01*
X96268Y-78665D01*
X96279Y-78649D01*
X96296Y-78563D01*
X96279Y-78476D01*
X96271Y-78464D01*
X96279Y-78452D01*
X96296Y-78366D01*
X96279Y-78279D01*
X96271Y-78267D01*
X96279Y-78255D01*
X96296Y-78169D01*
X96279Y-78082D01*
X96271Y-78071D01*
X96279Y-78059D01*
X96296Y-77973D01*
X96279Y-77886D01*
X96271Y-77874D01*
X96279Y-77862D01*
X96296Y-77776D01*
X96279Y-77689D01*
X96271Y-77677D01*
X96279Y-77665D01*
X96296Y-77579D01*
X96279Y-77492D01*
X96271Y-77480D01*
X96279Y-77468D01*
X96296Y-77382D01*
X96295Y-77377D01*
X96643Y-77342D01*
X96702Y-77402D01*
X96828Y-77454D01*
X96965Y-77454D01*
X97092Y-77402D01*
X97189Y-77305D01*
X97242Y-77179D01*
X97242Y-77042D01*
X97189Y-76915D01*
X97093Y-76818D01*
X96966Y-76765D01*
X96829Y-76765D01*
X96702Y-76818D01*
X96605Y-76914D01*
X96598Y-76931D01*
X96291Y-76962D01*
X96279Y-76901D01*
X96271Y-76889D01*
X96279Y-76877D01*
X96296Y-76791D01*
X96279Y-76704D01*
X96229Y-76630D01*
X96156Y-76581D01*
X96069Y-76564D01*
X95700Y-76564D01*
X95613Y-76581D01*
X95569Y-76611D01*
X95386Y-75595D01*
X95397Y-75595D01*
X95399Y-75609D01*
X95497Y-75877D01*
X95478Y-75923D01*
X95478Y-76060D01*
X95530Y-76187D01*
X95627Y-76283D01*
X95754Y-76336D01*
X95891Y-76336D01*
X96017Y-76284D01*
X96114Y-76187D01*
X96167Y-76060D01*
X96167Y-75923D01*
X96115Y-75797D01*
X96018Y-75700D01*
X95995Y-75690D01*
X95952Y-75573D01*
X95960Y-75570D01*
X96007Y-75523D01*
X96012Y-75509D01*
X96022Y-75513D01*
X96029Y-75514D01*
X96036Y-75530D01*
X96083Y-75577D01*
X96144Y-75602D01*
X96195Y-75602D01*
X96248Y-75926D01*
X96249Y-75927D01*
X96249Y-75929D01*
X96257Y-75976D01*
X96249Y-76016D01*
X96249Y-76385D01*
X96266Y-76472D01*
X96316Y-76545D01*
X96389Y-76595D01*
X96476Y-76612D01*
X96562Y-76595D01*
X96578Y-76584D01*
X96608Y-76595D01*
X96643Y-76560D01*
X96643Y-76534D01*
X96672Y-76491D01*
X96702Y-76536D01*
X96702Y-76560D01*
X96737Y-76595D01*
X96766Y-76584D01*
X96782Y-76595D01*
X96869Y-76612D01*
X96955Y-76595D01*
X96967Y-76587D01*
X96979Y-76595D01*
X97066Y-76612D01*
X97152Y-76595D01*
X97164Y-76587D01*
X97176Y-76595D01*
X97263Y-76612D01*
X97349Y-76595D01*
X97361Y-76587D01*
X97372Y-76595D01*
X97459Y-76612D01*
X97545Y-76595D01*
X97557Y-76587D01*
X97569Y-76595D01*
X97656Y-76612D01*
X97742Y-76595D01*
X97754Y-76587D01*
X97766Y-76595D01*
X97778Y-76597D01*
X97765Y-76628D01*
X97765Y-76765D01*
X97818Y-76891D01*
X97914Y-76988D01*
X98041Y-77041D01*
X98178Y-77041D01*
X98222Y-77023D01*
X98481Y-77198D01*
X98501Y-77207D01*
X98517Y-77218D01*
X98827Y-77349D01*
X98820Y-77383D01*
X98838Y-77469D01*
X98848Y-77485D01*
X98838Y-77514D01*
X98872Y-77549D01*
X98896Y-77549D01*
X98941Y-77579D01*
X98898Y-77608D01*
X98872Y-77608D01*
X98838Y-77643D01*
X98848Y-77673D01*
X98838Y-77689D01*
X98820Y-77776D01*
X98838Y-77862D01*
X98846Y-77874D01*
X98838Y-77886D01*
X98820Y-77973D01*
X98838Y-78059D01*
X98846Y-78071D01*
X98838Y-78083D01*
X98820Y-78170D01*
X98838Y-78256D01*
X98846Y-78268D01*
X98838Y-78280D01*
X98820Y-78367D01*
X98838Y-78453D01*
X98846Y-78465D01*
X98838Y-78477D01*
X98820Y-78564D01*
X98838Y-78650D01*
X98846Y-78662D01*
X98838Y-78674D01*
X98820Y-78761D01*
X98837Y-78843D01*
X98828Y-78864D01*
X98828Y-78931D01*
X98828Y-79049D01*
X98854Y-79110D01*
X98901Y-79157D01*
X98962Y-79183D01*
X99029Y-79183D01*
X99144Y-79183D01*
X99144Y-79183D01*
G37*
G54D49*
X99144Y-79183D02*
X99137Y-79190D01*
X99084Y-79317D01*
X99084Y-79454D01*
X99118Y-79535D01*
X99010Y-79970D01*
X98993Y-79916D01*
X98944Y-79825D01*
X98879Y-79773D01*
X98867Y-79738D01*
X98868Y-79731D01*
X98868Y-79362D01*
X98851Y-79275D01*
X98802Y-79202D01*
X98728Y-79153D01*
X98642Y-79135D01*
X98555Y-79153D01*
X98539Y-79163D01*
X98509Y-79153D01*
X98474Y-79187D01*
X98474Y-79213D01*
X98445Y-79257D01*
X98415Y-79213D01*
X98415Y-79187D01*
X98380Y-79153D01*
X98350Y-79163D01*
X98334Y-79153D01*
X98248Y-79135D01*
X98161Y-79153D01*
X98149Y-79160D01*
X98137Y-79153D01*
X98051Y-79135D01*
X97964Y-79153D01*
X97948Y-79163D01*
X97918Y-79153D01*
X97883Y-79187D01*
X97883Y-79213D01*
X97854Y-79257D01*
X97824Y-79213D01*
X97824Y-79187D01*
X97789Y-79153D01*
X97759Y-79163D01*
X97743Y-79153D01*
X97657Y-79135D01*
X97570Y-79153D01*
X97559Y-79160D01*
X97547Y-79153D01*
X97461Y-79135D01*
X97374Y-79153D01*
X97362Y-79160D01*
X97350Y-79153D01*
X97264Y-79135D01*
X97177Y-79153D01*
X97165Y-79160D01*
X97153Y-79153D01*
X97067Y-79135D01*
X96980Y-79153D01*
X96968Y-79160D01*
X96956Y-79153D01*
X96870Y-79135D01*
X96783Y-79153D01*
X96771Y-79160D01*
X96759Y-79153D01*
X96673Y-79135D01*
X96586Y-79153D01*
X96574Y-79160D01*
X96562Y-79153D01*
X96476Y-79135D01*
X96389Y-79153D01*
X96316Y-79202D01*
X96266Y-79275D01*
X96249Y-79362D01*
X96249Y-79527D01*
X95724Y-79549D01*
X95746Y-79497D01*
X95746Y-79360D01*
X95693Y-79234D01*
X95643Y-79184D01*
X95671Y-79177D01*
X95700Y-79183D01*
X96069Y-79183D01*
X96156Y-79166D01*
X96229Y-79117D01*
X96279Y-79043D01*
X96296Y-78957D01*
X96279Y-78870D01*
X96268Y-78854D01*
X96279Y-78824D01*
X96244Y-78789D01*
X96218Y-78789D01*
X96174Y-78760D01*
X96218Y-78730D01*
X96244Y-78730D01*
X96279Y-78695D01*
X96268Y-78665D01*
X96279Y-78649D01*
X96296Y-78563D01*
X96279Y-78476D01*
X96271Y-78464D01*
X96279Y-78452D01*
X96296Y-78366D01*
X96279Y-78279D01*
X96271Y-78267D01*
X96279Y-78255D01*
X96296Y-78169D01*
X96279Y-78082D01*
X96271Y-78071D01*
X96279Y-78059D01*
X96296Y-77973D01*
X96279Y-77886D01*
X96271Y-77874D01*
X96279Y-77862D01*
X96296Y-77776D01*
X96279Y-77689D01*
X96271Y-77677D01*
X96279Y-77665D01*
X96296Y-77579D01*
X96279Y-77492D01*
X96271Y-77480D01*
X96279Y-77468D01*
X96296Y-77382D01*
X96295Y-77377D01*
X96643Y-77342D01*
X96702Y-77402D01*
X96828Y-77454D01*
X96965Y-77454D01*
X97092Y-77402D01*
X97189Y-77305D01*
X97242Y-77179D01*
X97242Y-77042D01*
X97189Y-76915D01*
X97093Y-76818D01*
X96966Y-76765D01*
X96829Y-76765D01*
X96702Y-76818D01*
X96605Y-76914D01*
X96598Y-76931D01*
X96291Y-76962D01*
X96279Y-76901D01*
X96271Y-76889D01*
X96279Y-76877D01*
X96296Y-76791D01*
X96279Y-76704D01*
X96229Y-76630D01*
X96156Y-76581D01*
X96069Y-76564D01*
X95700Y-76564D01*
X95613Y-76581D01*
X95569Y-76611D01*
X95386Y-75595D01*
X95397Y-75595D01*
X95399Y-75609D01*
X95497Y-75877D01*
X95478Y-75923D01*
X95478Y-76060D01*
X95530Y-76187D01*
X95627Y-76283D01*
X95754Y-76336D01*
X95891Y-76336D01*
X96017Y-76284D01*
X96114Y-76187D01*
X96167Y-76060D01*
X96167Y-75923D01*
X96115Y-75797D01*
X96018Y-75700D01*
X95995Y-75690D01*
X95952Y-75573D01*
X95960Y-75570D01*
X96007Y-75523D01*
X96012Y-75509D01*
X96022Y-75513D01*
X96029Y-75514D01*
X96036Y-75530D01*
X96083Y-75577D01*
X96144Y-75602D01*
X96195Y-75602D01*
X96248Y-75926D01*
X96249Y-75927D01*
X96249Y-75929D01*
X96257Y-75976D01*
X96249Y-76016D01*
X96249Y-76385D01*
X96266Y-76472D01*
X96316Y-76545D01*
X96389Y-76595D01*
X96476Y-76612D01*
X96562Y-76595D01*
X96578Y-76584D01*
X96608Y-76595D01*
X96643Y-76560D01*
X96643Y-76534D01*
X96672Y-76491D01*
X96702Y-76536D01*
X96702Y-76560D01*
X96737Y-76595D01*
X96766Y-76584D01*
X96782Y-76595D01*
X96869Y-76612D01*
X96955Y-76595D01*
X96967Y-76587D01*
X96979Y-76595D01*
X97066Y-76612D01*
X97152Y-76595D01*
X97164Y-76587D01*
X97176Y-76595D01*
X97263Y-76612D01*
X97349Y-76595D01*
X97361Y-76587D01*
X97372Y-76595D01*
X97459Y-76612D01*
X97545Y-76595D01*
X97557Y-76587D01*
X97569Y-76595D01*
X97656Y-76612D01*
X97742Y-76595D01*
X97754Y-76587D01*
X97766Y-76595D01*
X97778Y-76597D01*
X97765Y-76628D01*
X97765Y-76765D01*
X97818Y-76891D01*
X97914Y-76988D01*
X98041Y-77041D01*
X98178Y-77041D01*
X98222Y-77023D01*
X98481Y-77198D01*
X98501Y-77207D01*
X98517Y-77218D01*
X98827Y-77349D01*
X98820Y-77383D01*
X98838Y-77469D01*
X98848Y-77485D01*
X98838Y-77514D01*
X98872Y-77549D01*
X98896Y-77549D01*
X98941Y-77579D01*
X98898Y-77608D01*
X98872Y-77608D01*
X98838Y-77643D01*
X98848Y-77673D01*
X98838Y-77689D01*
X98820Y-77776D01*
X98838Y-77862D01*
X98846Y-77874D01*
X98838Y-77886D01*
X98820Y-77973D01*
X98838Y-78059D01*
X98846Y-78071D01*
X98838Y-78083D01*
X98820Y-78170D01*
X98838Y-78256D01*
X98846Y-78268D01*
X98838Y-78280D01*
X98820Y-78367D01*
X98838Y-78453D01*
X98846Y-78465D01*
X98838Y-78477D01*
X98820Y-78564D01*
X98838Y-78650D01*
X98846Y-78662D01*
X98838Y-78674D01*
X98820Y-78761D01*
X98837Y-78843D01*
X98828Y-78864D01*
X98828Y-78931D01*
X98828Y-79049D01*
X98854Y-79110D01*
X98901Y-79157D01*
X98962Y-79183D01*
X99029Y-79183D01*
X99144Y-79183D01*
G54D10*
G36*
X101962Y-69379D02*
X99360Y-70810D01*
X99332Y-70834D01*
X99301Y-70855D01*
X99174Y-70982D01*
X99116Y-71068D01*
X99111Y-71092D01*
X98915Y-71092D01*
X98854Y-71117D01*
X98807Y-71164D01*
X98781Y-71226D01*
X98781Y-71292D01*
X98781Y-71800D01*
X97886Y-71511D01*
X97886Y-71505D01*
X97886Y-71105D01*
X97861Y-71043D01*
X97813Y-70996D01*
X97752Y-70971D01*
X97685Y-70971D01*
X97335Y-70971D01*
X97274Y-70996D01*
X97244Y-71026D01*
X97213Y-70996D01*
X97152Y-70971D01*
X97150Y-70971D01*
X97150Y-70957D01*
X97152Y-70957D01*
X97213Y-70932D01*
X97244Y-70902D01*
X97274Y-70932D01*
X97335Y-70957D01*
X97402Y-70957D01*
X97752Y-70957D01*
X97813Y-70932D01*
X97860Y-70885D01*
X97886Y-70823D01*
X97886Y-70793D01*
X97896Y-70786D01*
X97909Y-70782D01*
X99835Y-69758D01*
X99879Y-69722D01*
X99910Y-69699D01*
X99915Y-69693D01*
X99916Y-69692D01*
X99916Y-69692D01*
X100192Y-69379D01*
X100359Y-69380D01*
X100536Y-69306D01*
X100672Y-69171D01*
X100675Y-69163D01*
X101537Y-69163D01*
X101537Y-69245D01*
X101562Y-69307D01*
X101609Y-69354D01*
X101671Y-69379D01*
X101737Y-69379D01*
X101962Y-69379D01*
X101962Y-69379D01*
G37*
G54D49*
X101962Y-69379D02*
X99360Y-70810D01*
X99332Y-70834D01*
X99301Y-70855D01*
X99174Y-70982D01*
X99116Y-71068D01*
X99111Y-71092D01*
X98915Y-71092D01*
X98854Y-71117D01*
X98807Y-71164D01*
X98781Y-71226D01*
X98781Y-71292D01*
X98781Y-71800D01*
X97886Y-71511D01*
X97886Y-71505D01*
X97886Y-71105D01*
X97861Y-71043D01*
X97813Y-70996D01*
X97752Y-70971D01*
X97685Y-70971D01*
X97335Y-70971D01*
X97274Y-70996D01*
X97244Y-71026D01*
X97213Y-70996D01*
X97152Y-70971D01*
X97150Y-70971D01*
X97150Y-70957D01*
X97152Y-70957D01*
X97213Y-70932D01*
X97244Y-70902D01*
X97274Y-70932D01*
X97335Y-70957D01*
X97402Y-70957D01*
X97752Y-70957D01*
X97813Y-70932D01*
X97860Y-70885D01*
X97886Y-70823D01*
X97886Y-70793D01*
X97896Y-70786D01*
X97909Y-70782D01*
X99835Y-69758D01*
X99879Y-69722D01*
X99910Y-69699D01*
X99915Y-69693D01*
X99916Y-69692D01*
X99916Y-69692D01*
X100192Y-69379D01*
X100359Y-69380D01*
X100536Y-69306D01*
X100672Y-69171D01*
X100675Y-69163D01*
X101537Y-69163D01*
X101537Y-69245D01*
X101562Y-69307D01*
X101609Y-69354D01*
X101671Y-69379D01*
X101737Y-69379D01*
X101962Y-69379D01*
G54D10*
G36*
X103631Y-80145D02*
X103625Y-80145D01*
X103563Y-80170D01*
X103516Y-80217D01*
X103503Y-80247D01*
X103491Y-80217D01*
X103444Y-80170D01*
X103383Y-80145D01*
X103316Y-80145D01*
X103242Y-80145D01*
X103200Y-80186D01*
X103200Y-80436D01*
X103208Y-80436D01*
X103208Y-80538D01*
X103200Y-80538D01*
X103200Y-80546D01*
X103098Y-80546D01*
X103098Y-80538D01*
X103098Y-80436D01*
X103098Y-80186D01*
X103056Y-80145D01*
X102982Y-80145D01*
X102916Y-80145D01*
X102854Y-80170D01*
X102807Y-80217D01*
X102791Y-80256D01*
X102779Y-80225D01*
X102732Y-80178D01*
X102670Y-80152D01*
X102604Y-80152D01*
X102454Y-80152D01*
X102412Y-80194D01*
X102412Y-80494D01*
X102762Y-80494D01*
X102804Y-80452D01*
X102804Y-80417D01*
X102824Y-80436D01*
X103098Y-80436D01*
X103098Y-80538D01*
X102824Y-80538D01*
X102782Y-80580D01*
X102782Y-80615D01*
X102762Y-80595D01*
X102412Y-80595D01*
X102412Y-80895D01*
X102454Y-80937D01*
X102604Y-80937D01*
X102670Y-80937D01*
X102732Y-80911D01*
X102779Y-80864D01*
X102804Y-80803D01*
X102804Y-80749D01*
X102807Y-80757D01*
X102837Y-80787D01*
X102807Y-80817D01*
X102782Y-80878D01*
X102782Y-80945D01*
X102782Y-81032D01*
X102779Y-81025D01*
X102732Y-80978D01*
X102670Y-80952D01*
X102604Y-80952D01*
X102054Y-80952D01*
X102021Y-80965D01*
X101954Y-80874D01*
X101992Y-80911D01*
X102053Y-80937D01*
X102120Y-80937D01*
X102269Y-80937D01*
X102311Y-80895D01*
X102311Y-80595D01*
X102311Y-80494D01*
X102311Y-80194D01*
X102269Y-80152D01*
X102120Y-80152D01*
X102053Y-80152D01*
X101992Y-80178D01*
X101945Y-80225D01*
X101919Y-80286D01*
X101919Y-80452D01*
X101961Y-80494D01*
X102311Y-80494D01*
X102311Y-80595D01*
X101961Y-80595D01*
X101919Y-80637D01*
X101919Y-80803D01*
X101941Y-80856D01*
X101622Y-80418D01*
X101622Y-79973D01*
X101622Y-79699D01*
X101372Y-79699D01*
X101330Y-79741D01*
X101330Y-79815D01*
X101330Y-79881D01*
X101356Y-79943D01*
X101403Y-79990D01*
X101465Y-80015D01*
X101580Y-80015D01*
X101622Y-79973D01*
X101622Y-80418D01*
X101410Y-80126D01*
X100879Y-79223D01*
X100879Y-79093D01*
X100827Y-78966D01*
X100730Y-78869D01*
X100604Y-78816D01*
X100467Y-78816D01*
X100390Y-78848D01*
X100373Y-78832D01*
X100312Y-78806D01*
X100245Y-78806D01*
X99845Y-78806D01*
X99789Y-78829D01*
X99713Y-78800D01*
X99637Y-78803D01*
X99635Y-78801D01*
X99643Y-78761D01*
X99626Y-78674D01*
X99618Y-78662D01*
X99626Y-78650D01*
X99643Y-78564D01*
X99626Y-78477D01*
X99618Y-78465D01*
X99626Y-78453D01*
X99638Y-78388D01*
X100082Y-78422D01*
X100087Y-78422D01*
X100091Y-78423D01*
X101136Y-78456D01*
X101136Y-78709D01*
X101178Y-78750D01*
X101489Y-78750D01*
X101489Y-78742D01*
X101591Y-78742D01*
X101591Y-78750D01*
X101901Y-78750D01*
X101940Y-78712D01*
X101958Y-78731D01*
X101958Y-78731D01*
X102002Y-78760D01*
X102002Y-79208D01*
X102028Y-79270D01*
X102046Y-79288D01*
X102003Y-79306D01*
X101973Y-79336D01*
X101942Y-79306D01*
X101899Y-79288D01*
X101918Y-79270D01*
X101943Y-79208D01*
X101943Y-78894D01*
X101901Y-78852D01*
X101591Y-78852D01*
X101591Y-78860D01*
X101489Y-78860D01*
X101489Y-78852D01*
X101178Y-78852D01*
X101136Y-78894D01*
X101136Y-79208D01*
X101162Y-79270D01*
X101209Y-79317D01*
X101270Y-79342D01*
X101337Y-79342D01*
X101367Y-79342D01*
X101356Y-79353D01*
X101330Y-79414D01*
X101330Y-79481D01*
X101330Y-79555D01*
X101372Y-79597D01*
X101622Y-79597D01*
X101622Y-79589D01*
X101724Y-79589D01*
X101724Y-79597D01*
X101731Y-79597D01*
X101731Y-79699D01*
X101724Y-79699D01*
X101724Y-79973D01*
X101765Y-80015D01*
X101881Y-80015D01*
X101942Y-79990D01*
X101973Y-79960D01*
X102003Y-79990D01*
X102064Y-80015D01*
X102131Y-80015D01*
X102481Y-80015D01*
X102542Y-79990D01*
X102589Y-79943D01*
X102615Y-79881D01*
X102615Y-79815D01*
X102615Y-79415D01*
X102590Y-79353D01*
X102579Y-79342D01*
X102675Y-79342D01*
X102736Y-79317D01*
X102783Y-79270D01*
X102809Y-79209D01*
X102809Y-79142D01*
X102809Y-79075D01*
X102854Y-79120D01*
X102916Y-79146D01*
X102982Y-79146D01*
X103015Y-79146D01*
X103022Y-79163D01*
X103631Y-80029D01*
X103631Y-80145D01*
X103631Y-80145D01*
G37*
G54D49*
X103631Y-80145D02*
X103625Y-80145D01*
X103563Y-80170D01*
X103516Y-80217D01*
X103503Y-80247D01*
X103491Y-80217D01*
X103444Y-80170D01*
X103383Y-80145D01*
X103316Y-80145D01*
X103242Y-80145D01*
X103200Y-80186D01*
X103200Y-80436D01*
X103208Y-80436D01*
X103208Y-80538D01*
X103200Y-80538D01*
X103200Y-80546D01*
X103098Y-80546D01*
X103098Y-80538D01*
X103098Y-80436D01*
X103098Y-80186D01*
X103056Y-80145D01*
X102982Y-80145D01*
X102916Y-80145D01*
X102854Y-80170D01*
X102807Y-80217D01*
X102791Y-80256D01*
X102779Y-80225D01*
X102732Y-80178D01*
X102670Y-80152D01*
X102604Y-80152D01*
X102454Y-80152D01*
X102412Y-80194D01*
X102412Y-80494D01*
X102762Y-80494D01*
X102804Y-80452D01*
X102804Y-80417D01*
X102824Y-80436D01*
X103098Y-80436D01*
X103098Y-80538D01*
X102824Y-80538D01*
X102782Y-80580D01*
X102782Y-80615D01*
X102762Y-80595D01*
X102412Y-80595D01*
X102412Y-80895D01*
X102454Y-80937D01*
X102604Y-80937D01*
X102670Y-80937D01*
X102732Y-80911D01*
X102779Y-80864D01*
X102804Y-80803D01*
X102804Y-80749D01*
X102807Y-80757D01*
X102837Y-80787D01*
X102807Y-80817D01*
X102782Y-80878D01*
X102782Y-80945D01*
X102782Y-81032D01*
X102779Y-81025D01*
X102732Y-80978D01*
X102670Y-80952D01*
X102604Y-80952D01*
X102054Y-80952D01*
X102021Y-80965D01*
X101954Y-80874D01*
X101992Y-80911D01*
X102053Y-80937D01*
X102120Y-80937D01*
X102269Y-80937D01*
X102311Y-80895D01*
X102311Y-80595D01*
X102311Y-80494D01*
X102311Y-80194D01*
X102269Y-80152D01*
X102120Y-80152D01*
X102053Y-80152D01*
X101992Y-80178D01*
X101945Y-80225D01*
X101919Y-80286D01*
X101919Y-80452D01*
X101961Y-80494D01*
X102311Y-80494D01*
X102311Y-80595D01*
X101961Y-80595D01*
X101919Y-80637D01*
X101919Y-80803D01*
X101941Y-80856D01*
X101622Y-80418D01*
X101622Y-79973D01*
X101622Y-79699D01*
X101372Y-79699D01*
X101330Y-79741D01*
X101330Y-79815D01*
X101330Y-79881D01*
X101356Y-79943D01*
X101403Y-79990D01*
X101465Y-80015D01*
X101580Y-80015D01*
X101622Y-79973D01*
X101622Y-80418D01*
X101410Y-80126D01*
X100879Y-79223D01*
X100879Y-79093D01*
X100827Y-78966D01*
X100730Y-78869D01*
X100604Y-78816D01*
X100467Y-78816D01*
X100390Y-78848D01*
X100373Y-78832D01*
X100312Y-78806D01*
X100245Y-78806D01*
X99845Y-78806D01*
X99789Y-78829D01*
X99713Y-78800D01*
X99637Y-78803D01*
X99635Y-78801D01*
X99643Y-78761D01*
X99626Y-78674D01*
X99618Y-78662D01*
X99626Y-78650D01*
X99643Y-78564D01*
X99626Y-78477D01*
X99618Y-78465D01*
X99626Y-78453D01*
X99638Y-78388D01*
X100082Y-78422D01*
X100087Y-78422D01*
X100091Y-78423D01*
X101136Y-78456D01*
X101136Y-78709D01*
X101178Y-78750D01*
X101489Y-78750D01*
X101489Y-78742D01*
X101591Y-78742D01*
X101591Y-78750D01*
X101901Y-78750D01*
X101940Y-78712D01*
X101958Y-78731D01*
X101958Y-78731D01*
X102002Y-78760D01*
X102002Y-79208D01*
X102028Y-79270D01*
X102046Y-79288D01*
X102003Y-79306D01*
X101973Y-79336D01*
X101942Y-79306D01*
X101899Y-79288D01*
X101918Y-79270D01*
X101943Y-79208D01*
X101943Y-78894D01*
X101901Y-78852D01*
X101591Y-78852D01*
X101591Y-78860D01*
X101489Y-78860D01*
X101489Y-78852D01*
X101178Y-78852D01*
X101136Y-78894D01*
X101136Y-79208D01*
X101162Y-79270D01*
X101209Y-79317D01*
X101270Y-79342D01*
X101337Y-79342D01*
X101367Y-79342D01*
X101356Y-79353D01*
X101330Y-79414D01*
X101330Y-79481D01*
X101330Y-79555D01*
X101372Y-79597D01*
X101622Y-79597D01*
X101622Y-79589D01*
X101724Y-79589D01*
X101724Y-79597D01*
X101731Y-79597D01*
X101731Y-79699D01*
X101724Y-79699D01*
X101724Y-79973D01*
X101765Y-80015D01*
X101881Y-80015D01*
X101942Y-79990D01*
X101973Y-79960D01*
X102003Y-79990D01*
X102064Y-80015D01*
X102131Y-80015D01*
X102481Y-80015D01*
X102542Y-79990D01*
X102589Y-79943D01*
X102615Y-79881D01*
X102615Y-79815D01*
X102615Y-79415D01*
X102590Y-79353D01*
X102579Y-79342D01*
X102675Y-79342D01*
X102736Y-79317D01*
X102783Y-79270D01*
X102809Y-79209D01*
X102809Y-79142D01*
X102809Y-79075D01*
X102854Y-79120D01*
X102916Y-79146D01*
X102982Y-79146D01*
X103015Y-79146D01*
X103022Y-79163D01*
X103631Y-80029D01*
X103631Y-80145D01*
G54D10*
G36*
X105395Y-79276D02*
X104823Y-80154D01*
X104800Y-80145D01*
X104733Y-80145D01*
X104333Y-80145D01*
X104272Y-80170D01*
X104225Y-80217D01*
X104212Y-80247D01*
X104200Y-80217D01*
X104153Y-80170D01*
X104091Y-80145D01*
X104045Y-80145D01*
X104045Y-79963D01*
X104040Y-79940D01*
X104040Y-79918D01*
X104033Y-79903D01*
X104029Y-79884D01*
X104016Y-79864D01*
X104007Y-79845D01*
X103476Y-79088D01*
X103491Y-79073D01*
X103503Y-79043D01*
X103516Y-79073D01*
X103563Y-79120D01*
X103624Y-79146D01*
X103691Y-79146D01*
X104091Y-79146D01*
X104152Y-79120D01*
X104200Y-79073D01*
X104201Y-79069D01*
X104223Y-79069D01*
X104224Y-79073D01*
X104272Y-79120D01*
X104315Y-79138D01*
X104317Y-79142D01*
X104321Y-79163D01*
X104338Y-79189D01*
X104348Y-79210D01*
X104348Y-79304D01*
X104400Y-79431D01*
X104497Y-79528D01*
X104624Y-79580D01*
X104761Y-79580D01*
X104887Y-79528D01*
X104984Y-79431D01*
X105037Y-79305D01*
X105037Y-79167D01*
X104996Y-79069D01*
X105054Y-79069D01*
X105066Y-79128D01*
X105123Y-79214D01*
X105210Y-79272D01*
X105312Y-79293D01*
X105395Y-79276D01*
X105395Y-79276D01*
G37*
G54D49*
X105395Y-79276D02*
X104823Y-80154D01*
X104800Y-80145D01*
X104733Y-80145D01*
X104333Y-80145D01*
X104272Y-80170D01*
X104225Y-80217D01*
X104212Y-80247D01*
X104200Y-80217D01*
X104153Y-80170D01*
X104091Y-80145D01*
X104045Y-80145D01*
X104045Y-79963D01*
X104040Y-79940D01*
X104040Y-79918D01*
X104033Y-79903D01*
X104029Y-79884D01*
X104016Y-79864D01*
X104007Y-79845D01*
X103476Y-79088D01*
X103491Y-79073D01*
X103503Y-79043D01*
X103516Y-79073D01*
X103563Y-79120D01*
X103624Y-79146D01*
X103691Y-79146D01*
X104091Y-79146D01*
X104152Y-79120D01*
X104200Y-79073D01*
X104201Y-79069D01*
X104223Y-79069D01*
X104224Y-79073D01*
X104272Y-79120D01*
X104315Y-79138D01*
X104317Y-79142D01*
X104321Y-79163D01*
X104338Y-79189D01*
X104348Y-79210D01*
X104348Y-79304D01*
X104400Y-79431D01*
X104497Y-79528D01*
X104624Y-79580D01*
X104761Y-79580D01*
X104887Y-79528D01*
X104984Y-79431D01*
X105037Y-79305D01*
X105037Y-79167D01*
X104996Y-79069D01*
X105054Y-79069D01*
X105066Y-79128D01*
X105123Y-79214D01*
X105210Y-79272D01*
X105312Y-79293D01*
X105395Y-79276D01*
G54D10*
G36*
X109842Y-82086D02*
X109334Y-82086D01*
X109422Y-82050D01*
X109427Y-82046D01*
X109567Y-81883D01*
X108661Y-80977D01*
X108589Y-81049D01*
X108589Y-80905D01*
X107683Y-79999D01*
X107520Y-80139D01*
X107313Y-80634D01*
X107312Y-81170D01*
X107516Y-81666D01*
X107520Y-81671D01*
X107683Y-81811D01*
X108589Y-80905D01*
X108589Y-81049D01*
X107755Y-81883D01*
X107895Y-82046D01*
X107990Y-82086D01*
X107080Y-82086D01*
X107080Y-81267D01*
X107080Y-81072D01*
X107080Y-80970D01*
X107080Y-80774D01*
X107040Y-80676D01*
X106966Y-80600D01*
X106903Y-80574D01*
X106862Y-80605D01*
X106862Y-80970D01*
X107080Y-80970D01*
X107080Y-81072D01*
X106862Y-81072D01*
X106862Y-81436D01*
X106903Y-81468D01*
X106966Y-81441D01*
X107040Y-81365D01*
X107080Y-81267D01*
X107080Y-82086D01*
X106762Y-82086D01*
X106762Y-81436D01*
X106762Y-81072D01*
X106762Y-80970D01*
X106762Y-80605D01*
X106722Y-80574D01*
X106659Y-80600D01*
X106585Y-80676D01*
X106562Y-80732D01*
X106540Y-80676D01*
X106466Y-80600D01*
X106403Y-80574D01*
X106362Y-80605D01*
X106362Y-80970D01*
X106545Y-80970D01*
X106580Y-80970D01*
X106762Y-80970D01*
X106762Y-81072D01*
X106580Y-81072D01*
X106545Y-81072D01*
X106362Y-81072D01*
X106362Y-81436D01*
X106403Y-81468D01*
X106466Y-81441D01*
X106540Y-81365D01*
X106562Y-81310D01*
X106585Y-81365D01*
X106659Y-81441D01*
X106722Y-81468D01*
X106762Y-81436D01*
X106762Y-82086D01*
X100446Y-82086D01*
X100446Y-79956D01*
X100446Y-79841D01*
X100404Y-79799D01*
X100129Y-79799D01*
X100129Y-80049D01*
X100171Y-80091D01*
X100245Y-80091D01*
X100312Y-80091D01*
X100373Y-80065D01*
X100420Y-80018D01*
X100446Y-79956D01*
X100446Y-82086D01*
X100169Y-82086D01*
X100169Y-80639D01*
X100169Y-80305D01*
X100169Y-80239D01*
X100144Y-80177D01*
X100097Y-80130D01*
X100035Y-80105D01*
X100027Y-80105D01*
X100027Y-80049D01*
X100027Y-79799D01*
X99753Y-79799D01*
X99711Y-79841D01*
X99711Y-79956D01*
X99736Y-80018D01*
X99783Y-80065D01*
X99845Y-80091D01*
X99911Y-80091D01*
X99986Y-80091D01*
X100027Y-80049D01*
X100027Y-80105D01*
X99920Y-80105D01*
X99878Y-80146D01*
X99878Y-80421D01*
X100128Y-80421D01*
X100169Y-80379D01*
X100169Y-80305D01*
X100169Y-80639D01*
X100169Y-80565D01*
X100128Y-80523D01*
X99878Y-80523D01*
X99878Y-80797D01*
X99920Y-80839D01*
X100035Y-80839D01*
X100097Y-80814D01*
X100144Y-80767D01*
X100169Y-80705D01*
X100169Y-80639D01*
X100169Y-82086D01*
X99604Y-82086D01*
X99604Y-81978D01*
X99563Y-81936D01*
X99263Y-81936D01*
X99263Y-81944D01*
X99161Y-81944D01*
X99161Y-81936D01*
X98933Y-81936D01*
X98862Y-81936D01*
X98633Y-81936D01*
X98633Y-81944D01*
X98531Y-81944D01*
X98531Y-81936D01*
X98303Y-81936D01*
X98232Y-81936D01*
X98003Y-81936D01*
X98003Y-81944D01*
X97901Y-81944D01*
X97901Y-81936D01*
X97673Y-81936D01*
X97602Y-81936D01*
X97373Y-81936D01*
X97373Y-81944D01*
X97272Y-81944D01*
X97272Y-81936D01*
X97043Y-81936D01*
X96972Y-81936D01*
X96743Y-81936D01*
X96743Y-81944D01*
X96642Y-81944D01*
X96642Y-81936D01*
X96413Y-81936D01*
X96342Y-81936D01*
X96113Y-81936D01*
X96113Y-81944D01*
X96012Y-81944D01*
X96012Y-81936D01*
X95783Y-81936D01*
X95712Y-81936D01*
X95483Y-81936D01*
X95483Y-81944D01*
X95382Y-81944D01*
X95382Y-81936D01*
X95082Y-81936D01*
X95040Y-81978D01*
X95040Y-82086D01*
X94373Y-82086D01*
X94461Y-82050D01*
X94467Y-82046D01*
X94606Y-81883D01*
X93700Y-80977D01*
X92794Y-81883D01*
X92934Y-82046D01*
X93029Y-82086D01*
X92519Y-82086D01*
X92519Y-81578D01*
X92555Y-81666D01*
X92559Y-81671D01*
X92723Y-81811D01*
X93628Y-80905D01*
X92723Y-79999D01*
X92559Y-80139D01*
X92519Y-80234D01*
X92519Y-66617D01*
X92555Y-66705D01*
X92559Y-66711D01*
X92723Y-66850D01*
X93628Y-65944D01*
X92723Y-65038D01*
X92559Y-65178D01*
X92519Y-65273D01*
X92519Y-64763D01*
X93027Y-64763D01*
X92939Y-64800D01*
X92934Y-64803D01*
X92794Y-64967D01*
X93700Y-65873D01*
X94606Y-64967D01*
X94467Y-64803D01*
X94371Y-64763D01*
X100041Y-64763D01*
X100020Y-64813D01*
X100020Y-64880D01*
X100020Y-64914D01*
X99976Y-64943D01*
X99888Y-65031D01*
X99884Y-65033D01*
X99839Y-65100D01*
X98873Y-67352D01*
X98757Y-67400D01*
X98660Y-67497D01*
X98608Y-67624D01*
X98608Y-67761D01*
X98660Y-67887D01*
X98757Y-67984D01*
X98883Y-68037D01*
X99020Y-68037D01*
X99147Y-67985D01*
X99244Y-67888D01*
X99297Y-67761D01*
X99297Y-67624D01*
X99252Y-67517D01*
X100154Y-65414D01*
X100154Y-65414D01*
X100220Y-65414D01*
X100570Y-65414D01*
X100632Y-65389D01*
X100662Y-65358D01*
X100692Y-65389D01*
X100754Y-65414D01*
X100820Y-65414D01*
X101170Y-65414D01*
X101232Y-65389D01*
X101279Y-65342D01*
X101304Y-65280D01*
X101304Y-65253D01*
X101358Y-65253D01*
X101358Y-65280D01*
X101384Y-65341D01*
X101431Y-65389D01*
X101444Y-65394D01*
X101402Y-65541D01*
X101397Y-65541D01*
X101338Y-65565D01*
X101279Y-65541D01*
X101212Y-65541D01*
X100897Y-65541D01*
X100838Y-65565D01*
X100779Y-65541D01*
X100681Y-65541D01*
X100639Y-65583D01*
X100639Y-66012D01*
X100647Y-66012D01*
X100647Y-66113D01*
X100639Y-66113D01*
X100639Y-66121D01*
X100537Y-66121D01*
X100537Y-66113D01*
X100537Y-66012D01*
X100537Y-65583D01*
X100495Y-65541D01*
X100397Y-65541D01*
X100336Y-65566D01*
X100289Y-65613D01*
X100263Y-65675D01*
X100263Y-65741D01*
X100263Y-65970D01*
X100305Y-66012D01*
X100537Y-66012D01*
X100537Y-66113D01*
X100305Y-66113D01*
X100263Y-66155D01*
X100263Y-66384D01*
X100263Y-66450D01*
X100278Y-66486D01*
X100030Y-66486D01*
X99968Y-66512D01*
X99921Y-66559D01*
X99896Y-66620D01*
X99896Y-66687D01*
X99896Y-67237D01*
X99921Y-67298D01*
X99968Y-67345D01*
X100030Y-67371D01*
X100096Y-67371D01*
X100646Y-67371D01*
X100708Y-67346D01*
X100755Y-67299D01*
X100780Y-67237D01*
X100780Y-67170D01*
X100780Y-66987D01*
X100802Y-66977D01*
X100893Y-66909D01*
X100903Y-67049D01*
X100946Y-67151D01*
X101015Y-67180D01*
X101266Y-66929D01*
X101261Y-66923D01*
X101333Y-66851D01*
X101338Y-66857D01*
X101344Y-66851D01*
X101415Y-66923D01*
X101410Y-66929D01*
X101661Y-67180D01*
X101730Y-67151D01*
X101786Y-66984D01*
X101777Y-66861D01*
X101896Y-66925D01*
X101896Y-67016D01*
X101963Y-67179D01*
X102087Y-67303D01*
X102250Y-67371D01*
X102426Y-67371D01*
X102588Y-67304D01*
X102713Y-67180D01*
X102780Y-67017D01*
X102780Y-66841D01*
X102713Y-66678D01*
X102643Y-66608D01*
X102643Y-65214D01*
X102643Y-65139D01*
X102601Y-65098D01*
X102351Y-65098D01*
X102351Y-65372D01*
X102393Y-65414D01*
X102509Y-65414D01*
X102570Y-65389D01*
X102617Y-65342D01*
X102643Y-65280D01*
X102643Y-65214D01*
X102643Y-66608D01*
X102589Y-66554D01*
X102426Y-66486D01*
X102398Y-66486D01*
X102413Y-66450D01*
X102413Y-66384D01*
X102413Y-65741D01*
X102413Y-65675D01*
X102387Y-65613D01*
X102340Y-65566D01*
X102279Y-65541D01*
X102181Y-65541D01*
X102139Y-65583D01*
X102139Y-66012D01*
X102371Y-66012D01*
X102413Y-65970D01*
X102413Y-65741D01*
X102413Y-66384D01*
X102413Y-66155D01*
X102371Y-66113D01*
X102139Y-66113D01*
X102139Y-66121D01*
X102037Y-66121D01*
X102037Y-66113D01*
X102029Y-66113D01*
X102029Y-66012D01*
X102037Y-66012D01*
X102037Y-65583D01*
X101995Y-65541D01*
X101897Y-65541D01*
X101838Y-65565D01*
X101827Y-65560D01*
X101869Y-65414D01*
X101909Y-65414D01*
X101970Y-65389D01*
X102001Y-65358D01*
X102031Y-65389D01*
X102093Y-65414D01*
X102208Y-65414D01*
X102250Y-65372D01*
X102250Y-65098D01*
X102242Y-65098D01*
X102242Y-64996D01*
X102250Y-64996D01*
X102250Y-64988D01*
X102351Y-64988D01*
X102351Y-64996D01*
X102601Y-64996D01*
X102643Y-64954D01*
X102643Y-64880D01*
X102643Y-64813D01*
X102622Y-64763D01*
X107988Y-64763D01*
X107900Y-64800D01*
X107895Y-64803D01*
X107755Y-64967D01*
X108661Y-65873D01*
X109567Y-64967D01*
X109427Y-64803D01*
X109332Y-64763D01*
X109842Y-64763D01*
X109842Y-65271D01*
X109806Y-65183D01*
X109802Y-65178D01*
X109639Y-65038D01*
X108733Y-65944D01*
X109639Y-66850D01*
X109802Y-66711D01*
X109842Y-66615D01*
X109842Y-80232D01*
X109806Y-80144D01*
X109802Y-80139D01*
X109695Y-80047D01*
X109695Y-77999D01*
X109695Y-74377D01*
X109567Y-74067D01*
X109567Y-66922D01*
X108661Y-66016D01*
X108589Y-66088D01*
X108589Y-65944D01*
X107683Y-65038D01*
X107520Y-65178D01*
X107313Y-65673D01*
X107312Y-66209D01*
X107516Y-66705D01*
X107520Y-66711D01*
X107683Y-66850D01*
X108589Y-65944D01*
X108589Y-66088D01*
X107755Y-66922D01*
X107895Y-67086D01*
X108390Y-67292D01*
X108926Y-67293D01*
X109422Y-67089D01*
X109427Y-67086D01*
X109567Y-66922D01*
X109567Y-74067D01*
X109550Y-74026D01*
X109282Y-73757D01*
X109122Y-73691D01*
X109122Y-68657D01*
X109122Y-68363D01*
X109122Y-68296D01*
X109096Y-68235D01*
X109049Y-68188D01*
X108988Y-68162D01*
X108867Y-68162D01*
X108825Y-68204D01*
X108825Y-68459D01*
X109080Y-68459D01*
X109122Y-68417D01*
X109122Y-68363D01*
X109122Y-68657D01*
X109122Y-68602D01*
X109080Y-68561D01*
X108825Y-68561D01*
X108825Y-68815D01*
X108867Y-68857D01*
X108988Y-68857D01*
X109049Y-68832D01*
X109096Y-68785D01*
X109122Y-68723D01*
X109122Y-68657D01*
X109122Y-73691D01*
X108931Y-73612D01*
X108868Y-73612D01*
X108868Y-72368D01*
X108812Y-72234D01*
X108772Y-72194D01*
X108772Y-67857D01*
X108772Y-67497D01*
X108747Y-67435D01*
X108700Y-67388D01*
X108638Y-67362D01*
X108572Y-67362D01*
X108212Y-67362D01*
X108150Y-67388D01*
X108103Y-67435D01*
X108095Y-67453D01*
X107718Y-67356D01*
X107699Y-67355D01*
X107688Y-67351D01*
X105856Y-67159D01*
X105856Y-65971D01*
X105856Y-65459D01*
X105831Y-65397D01*
X105783Y-65350D01*
X105722Y-65325D01*
X105655Y-65325D01*
X105143Y-65325D01*
X105082Y-65350D01*
X105035Y-65397D01*
X105009Y-65459D01*
X105009Y-65525D01*
X105009Y-66037D01*
X105035Y-66099D01*
X105082Y-66146D01*
X105143Y-66171D01*
X105210Y-66171D01*
X105722Y-66171D01*
X105783Y-66146D01*
X105830Y-66099D01*
X105856Y-66037D01*
X105856Y-65971D01*
X105856Y-67159D01*
X105822Y-67155D01*
X105792Y-67082D01*
X105673Y-66963D01*
X105517Y-66899D01*
X105349Y-66899D01*
X105193Y-66963D01*
X105074Y-67082D01*
X105009Y-67237D01*
X105009Y-67406D01*
X105073Y-67561D01*
X105192Y-67681D01*
X105348Y-67745D01*
X105516Y-67745D01*
X105672Y-67681D01*
X105786Y-67567D01*
X107034Y-67698D01*
X107034Y-67747D01*
X107034Y-68097D01*
X107059Y-68158D01*
X107089Y-68188D01*
X107059Y-68219D01*
X107034Y-68280D01*
X107034Y-68325D01*
X106767Y-68434D01*
X106655Y-68387D01*
X106518Y-68387D01*
X106391Y-68440D01*
X106294Y-68536D01*
X106242Y-68663D01*
X106242Y-68800D01*
X106294Y-68927D01*
X106391Y-69024D01*
X106517Y-69076D01*
X106654Y-69076D01*
X106781Y-69024D01*
X106878Y-68927D01*
X106924Y-68817D01*
X107061Y-68760D01*
X107106Y-68805D01*
X107168Y-68831D01*
X107234Y-68831D01*
X107634Y-68831D01*
X107696Y-68805D01*
X107742Y-68759D01*
X107753Y-68784D01*
X107800Y-68832D01*
X107861Y-68857D01*
X107928Y-68857D01*
X108288Y-68857D01*
X108349Y-68832D01*
X108396Y-68785D01*
X108422Y-68723D01*
X108422Y-68657D01*
X108422Y-68297D01*
X108397Y-68235D01*
X108350Y-68188D01*
X108288Y-68162D01*
X108228Y-68162D01*
X108198Y-68118D01*
X108198Y-68118D01*
X108106Y-68026D01*
X108102Y-68023D01*
X108099Y-68019D01*
X107885Y-67826D01*
X108077Y-67875D01*
X108077Y-67923D01*
X108103Y-67984D01*
X108150Y-68032D01*
X108211Y-68057D01*
X108278Y-68057D01*
X108638Y-68057D01*
X108699Y-68032D01*
X108746Y-67985D01*
X108772Y-67923D01*
X108772Y-67857D01*
X108772Y-72194D01*
X108724Y-72146D01*
X108724Y-68815D01*
X108724Y-68561D01*
X108724Y-68459D01*
X108724Y-68204D01*
X108682Y-68162D01*
X108562Y-68162D01*
X108500Y-68188D01*
X108453Y-68235D01*
X108427Y-68296D01*
X108427Y-68363D01*
X108427Y-68417D01*
X108469Y-68459D01*
X108724Y-68459D01*
X108724Y-68561D01*
X108469Y-68561D01*
X108427Y-68602D01*
X108427Y-68657D01*
X108427Y-68723D01*
X108453Y-68785D01*
X108500Y-68832D01*
X108562Y-68857D01*
X108682Y-68857D01*
X108724Y-68815D01*
X108724Y-72146D01*
X108710Y-72132D01*
X108576Y-72076D01*
X108431Y-72076D01*
X108351Y-72109D01*
X108351Y-69769D01*
X108351Y-69285D01*
X108351Y-69219D01*
X108325Y-69157D01*
X108278Y-69110D01*
X108217Y-69085D01*
X108051Y-69085D01*
X108009Y-69127D01*
X108009Y-69476D01*
X108309Y-69476D01*
X108351Y-69434D01*
X108351Y-69285D01*
X108351Y-69769D01*
X108351Y-69620D01*
X108309Y-69578D01*
X108009Y-69578D01*
X108009Y-69928D01*
X108051Y-69969D01*
X108217Y-69969D01*
X108278Y-69944D01*
X108325Y-69897D01*
X108351Y-69835D01*
X108351Y-69769D01*
X108351Y-72109D01*
X108297Y-72131D01*
X108195Y-72234D01*
X108080Y-72234D01*
X108080Y-72053D01*
X108055Y-71991D01*
X108008Y-71944D01*
X107950Y-71920D01*
X108001Y-71870D01*
X108080Y-71679D01*
X108080Y-71471D01*
X108001Y-71279D01*
X107863Y-71141D01*
X108001Y-71004D01*
X108080Y-70812D01*
X108080Y-70605D01*
X108001Y-70413D01*
X107908Y-70320D01*
X107908Y-69928D01*
X107908Y-69578D01*
X107908Y-69476D01*
X107908Y-69127D01*
X107866Y-69085D01*
X107700Y-69085D01*
X107639Y-69110D01*
X107592Y-69157D01*
X107566Y-69219D01*
X107566Y-69285D01*
X107566Y-69434D01*
X107608Y-69476D01*
X107908Y-69476D01*
X107908Y-69578D01*
X107608Y-69578D01*
X107566Y-69620D01*
X107566Y-69769D01*
X107566Y-69835D01*
X107592Y-69897D01*
X107639Y-69944D01*
X107700Y-69969D01*
X107866Y-69969D01*
X107908Y-69928D01*
X107908Y-70320D01*
X107854Y-70266D01*
X107663Y-70187D01*
X107603Y-70187D01*
X107484Y-69938D01*
X107525Y-69897D01*
X107551Y-69835D01*
X107551Y-69769D01*
X107551Y-69219D01*
X107525Y-69157D01*
X107478Y-69110D01*
X107417Y-69085D01*
X107350Y-69085D01*
X106900Y-69085D01*
X106839Y-69110D01*
X106792Y-69157D01*
X106766Y-69219D01*
X106766Y-69285D01*
X106766Y-69835D01*
X106792Y-69897D01*
X106839Y-69944D01*
X106900Y-69969D01*
X106917Y-69969D01*
X106921Y-69993D01*
X106926Y-70000D01*
X106927Y-70007D01*
X107120Y-70409D01*
X107117Y-70412D01*
X107037Y-70604D01*
X107037Y-70811D01*
X107042Y-70823D01*
X106617Y-71217D01*
X106614Y-71206D01*
X106604Y-71157D01*
X106602Y-71153D01*
X106601Y-71151D01*
X106348Y-70590D01*
X106327Y-70560D01*
X106306Y-70529D01*
X106214Y-70437D01*
X106170Y-70407D01*
X106170Y-70307D01*
X106144Y-70246D01*
X106097Y-70199D01*
X106067Y-70186D01*
X106097Y-70174D01*
X106144Y-70127D01*
X106170Y-70065D01*
X106170Y-69999D01*
X106170Y-69599D01*
X106144Y-69537D01*
X106097Y-69490D01*
X106067Y-69477D01*
X106097Y-69465D01*
X106144Y-69418D01*
X106170Y-69357D01*
X106170Y-69290D01*
X106170Y-68890D01*
X106144Y-68828D01*
X106097Y-68781D01*
X106036Y-68756D01*
X105969Y-68756D01*
X105619Y-68756D01*
X105558Y-68781D01*
X105527Y-68811D01*
X105497Y-68781D01*
X105436Y-68756D01*
X105369Y-68756D01*
X105019Y-68756D01*
X104958Y-68781D01*
X104911Y-68828D01*
X104885Y-68890D01*
X104885Y-68911D01*
X104789Y-68814D01*
X104655Y-68759D01*
X104510Y-68759D01*
X104376Y-68814D01*
X104274Y-68916D01*
X104218Y-69050D01*
X104218Y-69195D01*
X104274Y-69329D01*
X104274Y-69330D01*
X103502Y-71204D01*
X103502Y-68802D01*
X103428Y-68624D01*
X103293Y-68489D01*
X103116Y-68415D01*
X102924Y-68415D01*
X102892Y-68428D01*
X102601Y-68167D01*
X102573Y-68151D01*
X102553Y-68134D01*
X101825Y-67728D01*
X101810Y-67724D01*
X101797Y-67715D01*
X101773Y-67710D01*
X101773Y-67694D01*
X101748Y-67633D01*
X101701Y-67585D01*
X101639Y-67560D01*
X101589Y-67560D01*
X101589Y-67252D01*
X101338Y-67000D01*
X101087Y-67252D01*
X101116Y-67321D01*
X101283Y-67376D01*
X101458Y-67363D01*
X101560Y-67321D01*
X101589Y-67252D01*
X101589Y-67560D01*
X101572Y-67560D01*
X101186Y-67560D01*
X101181Y-67562D01*
X101175Y-67560D01*
X101108Y-67560D01*
X100722Y-67560D01*
X100661Y-67585D01*
X100614Y-67632D01*
X100588Y-67694D01*
X100588Y-67708D01*
X100579Y-67709D01*
X99402Y-68114D01*
X99395Y-68118D01*
X99387Y-68120D01*
X99350Y-68144D01*
X99312Y-68167D01*
X99307Y-68173D01*
X99301Y-68178D01*
X99174Y-68305D01*
X99116Y-68391D01*
X99111Y-68415D01*
X98915Y-68415D01*
X98885Y-68427D01*
X98177Y-67439D01*
X98301Y-67207D01*
X98304Y-67194D01*
X98311Y-67184D01*
X98316Y-67160D01*
X98482Y-67160D01*
X98544Y-67134D01*
X98591Y-67087D01*
X98616Y-67026D01*
X98616Y-66959D01*
X98616Y-66359D01*
X98591Y-66298D01*
X98544Y-66251D01*
X98482Y-66225D01*
X98416Y-66225D01*
X97816Y-66225D01*
X97754Y-66250D01*
X97707Y-66298D01*
X97682Y-66359D01*
X97682Y-66426D01*
X97682Y-67026D01*
X97707Y-67087D01*
X97743Y-67123D01*
X97735Y-67139D01*
X97735Y-67138D01*
X97673Y-67113D01*
X97607Y-67112D01*
X97257Y-67112D01*
X97195Y-67138D01*
X97165Y-67168D01*
X97135Y-67138D01*
X97073Y-67112D01*
X96957Y-67112D01*
X96916Y-67154D01*
X96916Y-67429D01*
X96924Y-67429D01*
X96924Y-67531D01*
X96916Y-67531D01*
X96916Y-67805D01*
X96957Y-67847D01*
X97073Y-67847D01*
X97135Y-67822D01*
X97165Y-67791D01*
X97195Y-67822D01*
X97256Y-67847D01*
X97323Y-67847D01*
X97673Y-67847D01*
X97735Y-67822D01*
X97771Y-67785D01*
X98517Y-68826D01*
X98529Y-68837D01*
X98544Y-68860D01*
X98671Y-68987D01*
X98671Y-68987D01*
X98728Y-69025D01*
X98757Y-69044D01*
X98757Y-69044D01*
X98781Y-69049D01*
X98781Y-69245D01*
X98806Y-69307D01*
X98853Y-69354D01*
X98915Y-69379D01*
X98981Y-69379D01*
X99415Y-69379D01*
X97795Y-70241D01*
X97752Y-70223D01*
X97685Y-70223D01*
X97335Y-70223D01*
X97274Y-70248D01*
X97244Y-70278D01*
X97213Y-70248D01*
X97152Y-70223D01*
X97085Y-70223D01*
X96814Y-70223D01*
X96814Y-67805D01*
X96814Y-67531D01*
X96814Y-67429D01*
X96814Y-67154D01*
X96772Y-67112D01*
X96657Y-67112D01*
X96653Y-67114D01*
X96653Y-66754D01*
X96641Y-66568D01*
X96594Y-66455D01*
X96522Y-66423D01*
X96450Y-66495D01*
X96450Y-66351D01*
X96418Y-66279D01*
X96242Y-66220D01*
X96057Y-66232D01*
X95943Y-66279D01*
X95912Y-66351D01*
X96181Y-66621D01*
X96450Y-66351D01*
X96450Y-66495D01*
X96253Y-66692D01*
X96522Y-66962D01*
X96594Y-66930D01*
X96653Y-66754D01*
X96653Y-67114D01*
X96595Y-67138D01*
X96548Y-67185D01*
X96523Y-67246D01*
X96523Y-67313D01*
X96523Y-67387D01*
X96564Y-67429D01*
X96814Y-67429D01*
X96814Y-67531D01*
X96564Y-67531D01*
X96523Y-67572D01*
X96523Y-67647D01*
X96523Y-67713D01*
X96548Y-67775D01*
X96595Y-67822D01*
X96657Y-67847D01*
X96772Y-67847D01*
X96814Y-67805D01*
X96814Y-70223D01*
X96735Y-70223D01*
X96674Y-70248D01*
X96627Y-70295D01*
X96601Y-70357D01*
X96601Y-70400D01*
X96450Y-70400D01*
X96450Y-67034D01*
X96181Y-66764D01*
X96109Y-66836D01*
X96109Y-66692D01*
X95840Y-66423D01*
X95768Y-66455D01*
X95708Y-66631D01*
X95721Y-66817D01*
X95768Y-66930D01*
X95840Y-66962D01*
X96109Y-66692D01*
X96109Y-66836D01*
X95912Y-67034D01*
X95943Y-67106D01*
X96120Y-67165D01*
X96305Y-67152D01*
X96418Y-67106D01*
X96450Y-67034D01*
X96450Y-70400D01*
X96288Y-70400D01*
X96266Y-70348D01*
X96219Y-70301D01*
X96158Y-70276D01*
X96091Y-70276D01*
X95731Y-70276D01*
X95670Y-70301D01*
X95623Y-70348D01*
X95597Y-70410D01*
X95597Y-70476D01*
X95597Y-70836D01*
X95622Y-70898D01*
X95669Y-70945D01*
X95731Y-70970D01*
X95798Y-70970D01*
X96158Y-70970D01*
X96219Y-70945D01*
X96266Y-70898D01*
X96292Y-70837D01*
X96292Y-70813D01*
X96601Y-70813D01*
X96601Y-70823D01*
X96627Y-70885D01*
X96674Y-70932D01*
X96735Y-70957D01*
X96737Y-70957D01*
X96737Y-70971D01*
X96735Y-70971D01*
X96674Y-70996D01*
X96627Y-71043D01*
X96601Y-71105D01*
X96601Y-71133D01*
X96569Y-71101D01*
X96508Y-71076D01*
X96387Y-71076D01*
X96345Y-71118D01*
X96345Y-71372D01*
X96353Y-71372D01*
X96353Y-71474D01*
X96345Y-71474D01*
X96345Y-71729D01*
X96387Y-71770D01*
X96508Y-71770D01*
X96569Y-71745D01*
X96616Y-71698D01*
X96638Y-71644D01*
X96674Y-71680D01*
X96735Y-71705D01*
X96802Y-71705D01*
X97152Y-71705D01*
X97213Y-71680D01*
X97244Y-71650D01*
X97274Y-71680D01*
X97293Y-71688D01*
X97298Y-71712D01*
X97356Y-71798D01*
X97458Y-71901D01*
X97467Y-71907D01*
X97474Y-71915D01*
X97510Y-71936D01*
X97544Y-71959D01*
X97555Y-71961D01*
X97564Y-71966D01*
X98756Y-72351D01*
X98757Y-72351D01*
X98759Y-72352D01*
X98777Y-72358D01*
X98805Y-72361D01*
X98859Y-72372D01*
X99489Y-72372D01*
X99668Y-72372D01*
X99712Y-72363D01*
X99756Y-72357D01*
X99762Y-72353D01*
X99770Y-72351D01*
X99807Y-72327D01*
X99845Y-72304D01*
X100136Y-72044D01*
X100167Y-72057D01*
X100359Y-72057D01*
X100536Y-71983D01*
X100672Y-71848D01*
X100675Y-71840D01*
X101537Y-71840D01*
X101537Y-71922D01*
X101562Y-71984D01*
X101609Y-72031D01*
X101671Y-72057D01*
X101737Y-72057D01*
X102367Y-72057D01*
X102429Y-72031D01*
X102476Y-71984D01*
X102501Y-71923D01*
X102501Y-71856D01*
X102501Y-71226D01*
X102476Y-71165D01*
X102429Y-71118D01*
X102368Y-71092D01*
X102301Y-71092D01*
X101671Y-71092D01*
X101610Y-71117D01*
X101562Y-71164D01*
X101537Y-71226D01*
X101537Y-71292D01*
X101537Y-71309D01*
X100675Y-71309D01*
X100672Y-71301D01*
X100537Y-71166D01*
X100360Y-71092D01*
X100168Y-71092D01*
X99990Y-71165D01*
X99855Y-71301D01*
X99781Y-71478D01*
X99781Y-71648D01*
X99746Y-71680D01*
X99746Y-71226D01*
X99738Y-71209D01*
X102552Y-69662D01*
X102577Y-69641D01*
X102601Y-69627D01*
X102892Y-69367D01*
X102923Y-69379D01*
X103115Y-69380D01*
X103292Y-69306D01*
X103428Y-69171D01*
X103501Y-68993D01*
X103502Y-68802D01*
X103502Y-71204D01*
X103445Y-71341D01*
X103428Y-71301D01*
X103293Y-71166D01*
X103116Y-71092D01*
X102924Y-71092D01*
X102746Y-71165D01*
X102611Y-71301D01*
X102537Y-71478D01*
X102537Y-71670D01*
X102610Y-71847D01*
X102746Y-71983D01*
X102831Y-72018D01*
X101491Y-72731D01*
X101467Y-72750D01*
X101442Y-72767D01*
X101349Y-72859D01*
X101340Y-72874D01*
X101329Y-72884D01*
X101177Y-73092D01*
X101112Y-73092D01*
X100986Y-73144D01*
X100889Y-73241D01*
X100875Y-73273D01*
X100875Y-73038D01*
X100850Y-72976D01*
X100803Y-72929D01*
X100742Y-72903D01*
X100675Y-72903D01*
X99494Y-72903D01*
X99432Y-72929D01*
X99385Y-72976D01*
X99360Y-73037D01*
X99360Y-73098D01*
X99357Y-73091D01*
X99310Y-73044D01*
X99248Y-73018D01*
X99182Y-73018D01*
X98832Y-73018D01*
X98770Y-73043D01*
X98740Y-73074D01*
X98710Y-73044D01*
X98648Y-73018D01*
X98582Y-73018D01*
X98232Y-73018D01*
X98170Y-73043D01*
X98123Y-73090D01*
X98097Y-73152D01*
X98097Y-73218D01*
X98097Y-73252D01*
X98053Y-73282D01*
X97961Y-73374D01*
X97954Y-73385D01*
X97945Y-73393D01*
X97933Y-73416D01*
X97916Y-73441D01*
X97914Y-73454D01*
X97908Y-73465D01*
X97711Y-74170D01*
X97709Y-74198D01*
X97704Y-74226D01*
X97704Y-74608D01*
X97585Y-74489D01*
X97415Y-74419D01*
X97231Y-74418D01*
X97061Y-74489D01*
X96930Y-74619D01*
X96860Y-74789D01*
X96859Y-74973D01*
X96930Y-75143D01*
X97060Y-75274D01*
X97222Y-75341D01*
X97336Y-75804D01*
X97263Y-75789D01*
X97176Y-75807D01*
X97164Y-75814D01*
X97152Y-75807D01*
X97066Y-75789D01*
X96979Y-75807D01*
X96967Y-75814D01*
X96955Y-75807D01*
X96869Y-75789D01*
X96782Y-75807D01*
X96766Y-75817D01*
X96737Y-75807D01*
X96702Y-75841D01*
X96702Y-75865D01*
X96672Y-75910D01*
X96663Y-75896D01*
X96656Y-75860D01*
X96656Y-75859D01*
X96614Y-75601D01*
X96672Y-75577D01*
X96719Y-75530D01*
X96745Y-75469D01*
X96745Y-75402D01*
X96745Y-75052D01*
X96719Y-74990D01*
X96689Y-74960D01*
X96719Y-74930D01*
X96745Y-74868D01*
X96745Y-74452D01*
X96719Y-74390D01*
X96672Y-74343D01*
X96611Y-74318D01*
X96544Y-74318D01*
X96470Y-74318D01*
X96428Y-74360D01*
X96428Y-74609D01*
X96703Y-74609D01*
X96745Y-74568D01*
X96745Y-74452D01*
X96745Y-74868D01*
X96745Y-74753D01*
X96703Y-74711D01*
X96428Y-74711D01*
X96428Y-74719D01*
X96327Y-74719D01*
X96327Y-74711D01*
X96319Y-74711D01*
X96319Y-74609D01*
X96327Y-74609D01*
X96327Y-74360D01*
X96285Y-74318D01*
X96244Y-74318D01*
X96244Y-71729D01*
X96244Y-71474D01*
X96244Y-71372D01*
X96244Y-71118D01*
X96202Y-71076D01*
X96081Y-71076D01*
X96020Y-71101D01*
X95973Y-71148D01*
X95947Y-71210D01*
X95947Y-71276D01*
X95947Y-71331D01*
X95989Y-71372D01*
X96244Y-71372D01*
X96244Y-71474D01*
X95989Y-71474D01*
X95947Y-71516D01*
X95947Y-71570D01*
X95947Y-71637D01*
X95973Y-71698D01*
X96020Y-71745D01*
X96081Y-71770D01*
X96202Y-71770D01*
X96244Y-71729D01*
X96244Y-74318D01*
X96211Y-74318D01*
X96144Y-74318D01*
X96083Y-74343D01*
X96036Y-74390D01*
X96032Y-74398D01*
X96032Y-74398D01*
X96032Y-74352D01*
X95991Y-74352D01*
X96032Y-74310D01*
X96032Y-74145D01*
X96007Y-74083D01*
X95960Y-74036D01*
X95898Y-74010D01*
X95832Y-74010D01*
X95683Y-74010D01*
X95641Y-74052D01*
X95641Y-74352D01*
X95649Y-74352D01*
X95649Y-74453D01*
X95641Y-74453D01*
X95641Y-74753D01*
X95683Y-74795D01*
X95832Y-74795D01*
X95898Y-74795D01*
X95960Y-74769D01*
X96007Y-74722D01*
X96012Y-74711D01*
X96052Y-74711D01*
X96010Y-74753D01*
X96010Y-74868D01*
X96036Y-74930D01*
X96066Y-74960D01*
X96060Y-74966D01*
X96037Y-74958D01*
X96032Y-74958D01*
X96032Y-74945D01*
X96007Y-74883D01*
X95960Y-74836D01*
X95898Y-74810D01*
X95832Y-74810D01*
X95331Y-74810D01*
X95330Y-74795D01*
X95348Y-74795D01*
X95497Y-74795D01*
X95539Y-74753D01*
X95539Y-74453D01*
X95531Y-74453D01*
X95531Y-74352D01*
X95539Y-74352D01*
X95539Y-74052D01*
X95497Y-74010D01*
X95348Y-74010D01*
X95290Y-74010D01*
X95175Y-71736D01*
X95215Y-71719D01*
X95262Y-71672D01*
X95272Y-71698D01*
X95319Y-71745D01*
X95381Y-71770D01*
X95448Y-71770D01*
X95808Y-71770D01*
X95869Y-71745D01*
X95916Y-71698D01*
X95942Y-71637D01*
X95942Y-71570D01*
X95942Y-71210D01*
X95916Y-71148D01*
X95869Y-71101D01*
X95808Y-71076D01*
X95747Y-71076D01*
X95718Y-71032D01*
X95718Y-71032D01*
X95626Y-70939D01*
X95622Y-70937D01*
X95618Y-70932D01*
X95325Y-70666D01*
X95295Y-70648D01*
X95288Y-70644D01*
X95288Y-70594D01*
X95263Y-70532D01*
X95216Y-70485D01*
X95154Y-70460D01*
X95088Y-70460D01*
X95049Y-70460D01*
X95049Y-65679D01*
X94845Y-65183D01*
X94842Y-65178D01*
X94678Y-65038D01*
X93772Y-65944D01*
X94678Y-66850D01*
X94842Y-66711D01*
X95048Y-66216D01*
X95049Y-65679D01*
X95049Y-70460D01*
X94688Y-70460D01*
X94626Y-70485D01*
X94606Y-70505D01*
X94606Y-66922D01*
X93700Y-66016D01*
X92794Y-66922D01*
X92934Y-67086D01*
X93429Y-67292D01*
X93965Y-67293D01*
X94461Y-67089D01*
X94467Y-67086D01*
X94606Y-66922D01*
X94606Y-70505D01*
X94579Y-70532D01*
X94553Y-70593D01*
X94553Y-70660D01*
X94553Y-71010D01*
X94579Y-71072D01*
X94609Y-71102D01*
X94579Y-71132D01*
X94553Y-71193D01*
X94553Y-71260D01*
X94553Y-71610D01*
X94579Y-71672D01*
X94626Y-71719D01*
X94687Y-71744D01*
X94754Y-71744D01*
X94761Y-71744D01*
X94952Y-75503D01*
X94954Y-75513D01*
X94954Y-75529D01*
X95217Y-76989D01*
X93374Y-73934D01*
X93434Y-73789D01*
X93434Y-73613D01*
X93434Y-73613D01*
X93434Y-73008D01*
X93434Y-72392D01*
X93409Y-72331D01*
X93362Y-72284D01*
X93300Y-72258D01*
X93233Y-72258D01*
X93084Y-72258D01*
X93042Y-72300D01*
X93042Y-72650D01*
X93392Y-72650D01*
X93434Y-72608D01*
X93434Y-72392D01*
X93434Y-73008D01*
X93434Y-72793D01*
X93392Y-72751D01*
X93042Y-72751D01*
X93042Y-73101D01*
X93084Y-73143D01*
X93233Y-73143D01*
X93300Y-73143D01*
X93362Y-73117D01*
X93409Y-73070D01*
X93434Y-73008D01*
X93434Y-73613D01*
X93367Y-73450D01*
X93243Y-73326D01*
X93080Y-73258D01*
X92941Y-73258D01*
X92941Y-73101D01*
X92941Y-72751D01*
X92941Y-72650D01*
X92941Y-72300D01*
X92899Y-72258D01*
X92750Y-72258D01*
X92683Y-72258D01*
X92622Y-72284D01*
X92575Y-72331D01*
X92549Y-72392D01*
X92549Y-72608D01*
X92591Y-72650D01*
X92941Y-72650D01*
X92941Y-72751D01*
X92591Y-72751D01*
X92549Y-72793D01*
X92549Y-73008D01*
X92575Y-73070D01*
X92622Y-73117D01*
X92683Y-73143D01*
X92750Y-73143D01*
X92899Y-73143D01*
X92941Y-73101D01*
X92941Y-73258D01*
X92904Y-73258D01*
X92741Y-73325D01*
X92617Y-73449D01*
X92549Y-73612D01*
X92549Y-73788D01*
X92616Y-73951D01*
X92741Y-74075D01*
X92903Y-74143D01*
X93017Y-74143D01*
X93089Y-74262D01*
X93080Y-74258D01*
X92904Y-74258D01*
X92741Y-74325D01*
X92617Y-74449D01*
X92549Y-74612D01*
X92549Y-74788D01*
X92616Y-74951D01*
X92741Y-75075D01*
X92903Y-75143D01*
X93062Y-75143D01*
X93789Y-76126D01*
X93792Y-76128D01*
X94630Y-77299D01*
X93422Y-76176D01*
X93434Y-76147D01*
X93435Y-75971D01*
X93367Y-75808D01*
X93243Y-75683D01*
X93080Y-75616D01*
X92904Y-75616D01*
X92741Y-75683D01*
X92616Y-75807D01*
X92549Y-75970D01*
X92549Y-76146D01*
X92616Y-76309D01*
X92740Y-76434D01*
X92903Y-76501D01*
X93079Y-76501D01*
X93138Y-76477D01*
X94929Y-78141D01*
X94906Y-78141D01*
X94906Y-78183D01*
X94864Y-78141D01*
X94790Y-78141D01*
X94723Y-78141D01*
X94662Y-78167D01*
X94615Y-78214D01*
X94589Y-78276D01*
X94589Y-78391D01*
X94631Y-78433D01*
X94906Y-78433D01*
X94906Y-78425D01*
X95007Y-78425D01*
X95007Y-78433D01*
X95015Y-78433D01*
X95015Y-78535D01*
X95007Y-78535D01*
X95007Y-78542D01*
X94906Y-78542D01*
X94906Y-78535D01*
X94631Y-78535D01*
X94589Y-78576D01*
X94589Y-78692D01*
X94615Y-78753D01*
X94645Y-78784D01*
X94615Y-78814D01*
X94589Y-78875D01*
X94589Y-78942D01*
X94589Y-79142D01*
X93440Y-78168D01*
X93440Y-77114D01*
X93427Y-76938D01*
X93384Y-76836D01*
X93315Y-76807D01*
X93243Y-76879D01*
X93243Y-76735D01*
X93214Y-76666D01*
X93047Y-76610D01*
X92871Y-76623D01*
X92769Y-76666D01*
X92740Y-76735D01*
X92992Y-76987D01*
X93243Y-76735D01*
X93243Y-76879D01*
X93063Y-77059D01*
X93315Y-77310D01*
X93384Y-77281D01*
X93440Y-77114D01*
X93440Y-78168D01*
X93429Y-78159D01*
X93434Y-78147D01*
X93435Y-77971D01*
X93367Y-77808D01*
X93243Y-77684D01*
X93243Y-77382D01*
X92992Y-77130D01*
X92920Y-77202D01*
X92920Y-77059D01*
X92668Y-76807D01*
X92599Y-76836D01*
X92544Y-77003D01*
X92556Y-77179D01*
X92599Y-77281D01*
X92668Y-77310D01*
X92920Y-77059D01*
X92920Y-77202D01*
X92740Y-77382D01*
X92769Y-77451D01*
X92936Y-77507D01*
X93112Y-77494D01*
X93214Y-77451D01*
X93243Y-77382D01*
X93243Y-77684D01*
X93243Y-77683D01*
X93080Y-77616D01*
X92904Y-77616D01*
X92741Y-77683D01*
X92616Y-77807D01*
X92549Y-77970D01*
X92549Y-78146D01*
X92616Y-78309D01*
X92740Y-78434D01*
X92903Y-78501D01*
X93079Y-78501D01*
X93157Y-78470D01*
X93356Y-78639D01*
X93301Y-78616D01*
X93234Y-78616D01*
X92683Y-78616D01*
X92621Y-78641D01*
X92574Y-78688D01*
X92549Y-78750D01*
X92549Y-78816D01*
X92549Y-79367D01*
X92574Y-79429D01*
X92621Y-79476D01*
X92683Y-79501D01*
X92749Y-79501D01*
X93300Y-79501D01*
X93362Y-79476D01*
X93409Y-79429D01*
X93434Y-79367D01*
X93434Y-79301D01*
X93434Y-78750D01*
X93409Y-78688D01*
X93378Y-78657D01*
X94829Y-79887D01*
X94838Y-79892D01*
X94862Y-79913D01*
X94890Y-79922D01*
X94899Y-79927D01*
X94910Y-79928D01*
X94939Y-79937D01*
X95240Y-79969D01*
X95252Y-79968D01*
X95262Y-79970D01*
X95540Y-79970D01*
X95544Y-79969D01*
X95548Y-79970D01*
X96381Y-79935D01*
X96389Y-79941D01*
X96432Y-79949D01*
X95447Y-80924D01*
X95447Y-80924D01*
X95446Y-80924D01*
X95354Y-81017D01*
X95324Y-81061D01*
X95174Y-81061D01*
X95113Y-81086D01*
X95066Y-81133D01*
X95048Y-81176D01*
X95049Y-80640D01*
X94845Y-80144D01*
X94842Y-80139D01*
X94678Y-79999D01*
X94606Y-80071D01*
X94606Y-79927D01*
X94467Y-79764D01*
X93972Y-79557D01*
X93435Y-79556D01*
X92939Y-79760D01*
X92934Y-79764D01*
X92794Y-79927D01*
X93700Y-80833D01*
X94606Y-79927D01*
X94606Y-80071D01*
X93772Y-80905D01*
X94678Y-81811D01*
X94842Y-81671D01*
X95040Y-81195D01*
X95040Y-81261D01*
X95040Y-81647D01*
X95043Y-81653D01*
X95040Y-81659D01*
X95040Y-81792D01*
X95082Y-81834D01*
X95382Y-81834D01*
X95382Y-81826D01*
X95483Y-81826D01*
X95483Y-81834D01*
X95712Y-81834D01*
X95783Y-81834D01*
X96012Y-81834D01*
X96012Y-81826D01*
X96113Y-81826D01*
X96113Y-81834D01*
X96342Y-81834D01*
X96413Y-81834D01*
X96642Y-81834D01*
X96642Y-81826D01*
X96743Y-81826D01*
X96743Y-81834D01*
X96972Y-81834D01*
X97043Y-81834D01*
X97272Y-81834D01*
X97272Y-81826D01*
X97373Y-81826D01*
X97373Y-81834D01*
X97602Y-81834D01*
X97673Y-81834D01*
X97901Y-81834D01*
X97901Y-81826D01*
X98003Y-81826D01*
X98003Y-81834D01*
X98232Y-81834D01*
X98303Y-81834D01*
X98531Y-81834D01*
X98531Y-81826D01*
X98633Y-81826D01*
X98633Y-81834D01*
X98862Y-81834D01*
X98933Y-81834D01*
X99161Y-81834D01*
X99161Y-81826D01*
X99263Y-81826D01*
X99263Y-81834D01*
X99563Y-81834D01*
X99604Y-81792D01*
X99604Y-81659D01*
X99602Y-81653D01*
X99604Y-81647D01*
X99604Y-81581D01*
X99604Y-81195D01*
X99579Y-81133D01*
X99532Y-81086D01*
X99471Y-81061D01*
X99404Y-81061D01*
X99320Y-81061D01*
X99318Y-81058D01*
X99305Y-81033D01*
X99148Y-80839D01*
X99435Y-80839D01*
X99497Y-80814D01*
X99527Y-80784D01*
X99557Y-80814D01*
X99619Y-80839D01*
X99734Y-80839D01*
X99776Y-80797D01*
X99776Y-80523D01*
X99768Y-80523D01*
X99768Y-80421D01*
X99776Y-80421D01*
X99776Y-80146D01*
X99734Y-80105D01*
X99619Y-80105D01*
X99557Y-80130D01*
X99527Y-80160D01*
X99514Y-80147D01*
X99632Y-79669D01*
X99711Y-79590D01*
X99711Y-79656D01*
X99753Y-79698D01*
X100027Y-79698D01*
X100027Y-79690D01*
X100129Y-79690D01*
X100129Y-79698D01*
X100404Y-79698D01*
X100446Y-79656D01*
X100446Y-79540D01*
X100437Y-79519D01*
X100956Y-80403D01*
X100964Y-80412D01*
X100970Y-80425D01*
X101655Y-81366D01*
X101671Y-81380D01*
X101682Y-81397D01*
X101809Y-81524D01*
X101809Y-81524D01*
X101867Y-81562D01*
X101895Y-81581D01*
X101895Y-81581D01*
X101919Y-81586D01*
X101919Y-81603D01*
X101945Y-81664D01*
X101992Y-81711D01*
X102053Y-81737D01*
X102120Y-81737D01*
X102670Y-81737D01*
X102731Y-81711D01*
X102747Y-81696D01*
X102765Y-81707D01*
X102780Y-81711D01*
X102795Y-81718D01*
X102832Y-81721D01*
X102866Y-81728D01*
X103032Y-81728D01*
X103134Y-81707D01*
X103134Y-81707D01*
X103220Y-81650D01*
X103337Y-81533D01*
X103337Y-81533D01*
X103337Y-81533D01*
X103395Y-81446D01*
X103395Y-81446D01*
X103399Y-81422D01*
X103444Y-81404D01*
X103491Y-81357D01*
X103493Y-81353D01*
X103514Y-81353D01*
X103516Y-81357D01*
X103563Y-81404D01*
X103624Y-81429D01*
X103691Y-81429D01*
X104091Y-81429D01*
X104152Y-81404D01*
X104200Y-81357D01*
X104201Y-81353D01*
X104223Y-81353D01*
X104224Y-81357D01*
X104272Y-81404D01*
X104333Y-81429D01*
X104400Y-81429D01*
X104800Y-81429D01*
X104861Y-81404D01*
X104908Y-81357D01*
X104910Y-81353D01*
X105046Y-81353D01*
X105071Y-81411D01*
X105118Y-81458D01*
X105179Y-81484D01*
X105246Y-81484D01*
X105446Y-81484D01*
X105507Y-81458D01*
X105554Y-81411D01*
X105580Y-81350D01*
X105580Y-81349D01*
X105623Y-81414D01*
X105710Y-81472D01*
X105812Y-81493D01*
X105915Y-81472D01*
X106002Y-81414D01*
X106059Y-81328D01*
X106063Y-81311D01*
X106085Y-81365D01*
X106159Y-81441D01*
X106222Y-81468D01*
X106262Y-81436D01*
X106262Y-81072D01*
X106254Y-81072D01*
X106254Y-80970D01*
X106262Y-80970D01*
X106262Y-80605D01*
X106222Y-80574D01*
X106159Y-80600D01*
X106085Y-80676D01*
X106063Y-80731D01*
X106059Y-80714D01*
X106002Y-80627D01*
X105915Y-80569D01*
X105812Y-80549D01*
X105710Y-80569D01*
X105623Y-80627D01*
X105580Y-80692D01*
X105580Y-80692D01*
X105554Y-80631D01*
X105507Y-80583D01*
X105446Y-80558D01*
X105379Y-80558D01*
X105179Y-80558D01*
X105118Y-80583D01*
X105071Y-80630D01*
X105045Y-80692D01*
X105045Y-80758D01*
X105045Y-80821D01*
X104910Y-80821D01*
X104908Y-80817D01*
X104878Y-80787D01*
X104908Y-80757D01*
X104934Y-80695D01*
X104934Y-80645D01*
X104978Y-80616D01*
X105070Y-80523D01*
X105082Y-80505D01*
X105097Y-80490D01*
X105887Y-79278D01*
X105915Y-79272D01*
X106002Y-79214D01*
X106059Y-79128D01*
X106062Y-79112D01*
X106066Y-79128D01*
X106123Y-79214D01*
X106210Y-79272D01*
X106312Y-79293D01*
X106415Y-79272D01*
X106502Y-79214D01*
X106559Y-79128D01*
X106562Y-79112D01*
X106566Y-79128D01*
X106623Y-79214D01*
X106710Y-79272D01*
X106812Y-79293D01*
X106915Y-79272D01*
X107002Y-79214D01*
X107059Y-79128D01*
X107080Y-79025D01*
X107080Y-78616D01*
X107059Y-78514D01*
X107002Y-78427D01*
X106915Y-78369D01*
X106812Y-78349D01*
X106710Y-78369D01*
X106623Y-78427D01*
X106566Y-78514D01*
X106562Y-78529D01*
X106559Y-78514D01*
X106502Y-78427D01*
X106415Y-78369D01*
X106312Y-78349D01*
X106210Y-78369D01*
X106170Y-78396D01*
X106170Y-72991D01*
X106170Y-72657D01*
X106170Y-72590D01*
X106144Y-72529D01*
X106097Y-72482D01*
X106036Y-72457D01*
X105920Y-72457D01*
X105878Y-72498D01*
X105878Y-72773D01*
X106128Y-72773D01*
X106170Y-72731D01*
X106170Y-72657D01*
X106170Y-72991D01*
X106170Y-72917D01*
X106128Y-72875D01*
X105878Y-72875D01*
X105878Y-73149D01*
X105920Y-73191D01*
X106036Y-73191D01*
X106097Y-73166D01*
X106144Y-73119D01*
X106170Y-73057D01*
X106170Y-72991D01*
X106170Y-78396D01*
X106123Y-78427D01*
X106066Y-78514D01*
X106062Y-78529D01*
X106059Y-78514D01*
X106002Y-78427D01*
X105915Y-78369D01*
X105812Y-78349D01*
X105710Y-78369D01*
X105683Y-78388D01*
X105683Y-76508D01*
X105675Y-76207D01*
X105575Y-75965D01*
X105473Y-75898D01*
X105401Y-75970D01*
X105401Y-75826D01*
X105333Y-75724D01*
X105052Y-75616D01*
X104750Y-75624D01*
X104509Y-75724D01*
X104441Y-75826D01*
X104921Y-76306D01*
X105401Y-75826D01*
X105401Y-75970D01*
X104993Y-76377D01*
X105473Y-76857D01*
X105575Y-76790D01*
X105683Y-76508D01*
X105683Y-78388D01*
X105623Y-78427D01*
X105566Y-78514D01*
X105562Y-78529D01*
X105559Y-78514D01*
X105502Y-78427D01*
X105415Y-78369D01*
X105401Y-78366D01*
X105401Y-76929D01*
X104921Y-76449D01*
X104849Y-76521D01*
X104849Y-76377D01*
X104370Y-75898D01*
X104268Y-75965D01*
X104160Y-76247D01*
X104168Y-76548D01*
X104268Y-76790D01*
X104370Y-76857D01*
X104849Y-76377D01*
X104849Y-76521D01*
X104441Y-76929D01*
X104509Y-77031D01*
X104791Y-77139D01*
X105092Y-77131D01*
X105333Y-77031D01*
X105401Y-76929D01*
X105401Y-78366D01*
X105312Y-78349D01*
X105210Y-78369D01*
X105123Y-78427D01*
X105066Y-78514D01*
X105061Y-78538D01*
X104910Y-78538D01*
X104908Y-78534D01*
X104878Y-78503D01*
X104908Y-78473D01*
X104934Y-78412D01*
X104934Y-77995D01*
X104908Y-77934D01*
X104861Y-77887D01*
X104800Y-77861D01*
X104733Y-77861D01*
X104659Y-77861D01*
X104617Y-77903D01*
X104617Y-78153D01*
X104892Y-78153D01*
X104934Y-78111D01*
X104934Y-77995D01*
X104934Y-78412D01*
X104934Y-78296D01*
X104892Y-78254D01*
X104617Y-78254D01*
X104617Y-78262D01*
X104516Y-78262D01*
X104516Y-78254D01*
X104516Y-78153D01*
X104516Y-77903D01*
X104474Y-77861D01*
X104400Y-77861D01*
X104333Y-77861D01*
X104272Y-77887D01*
X104224Y-77934D01*
X104212Y-77964D01*
X104200Y-77934D01*
X104153Y-77887D01*
X104091Y-77861D01*
X104025Y-77861D01*
X103950Y-77861D01*
X103909Y-77903D01*
X103909Y-78153D01*
X104183Y-78153D01*
X104212Y-78124D01*
X104241Y-78153D01*
X104516Y-78153D01*
X104516Y-78254D01*
X104241Y-78254D01*
X104212Y-78283D01*
X104183Y-78254D01*
X103909Y-78254D01*
X103909Y-78262D01*
X103807Y-78262D01*
X103807Y-78254D01*
X103807Y-78153D01*
X103807Y-77903D01*
X103765Y-77861D01*
X103691Y-77861D01*
X103624Y-77861D01*
X103563Y-77887D01*
X103516Y-77934D01*
X103503Y-77964D01*
X103491Y-77934D01*
X103444Y-77887D01*
X103383Y-77861D01*
X103316Y-77861D01*
X103242Y-77861D01*
X103200Y-77903D01*
X103200Y-78153D01*
X103475Y-78153D01*
X103503Y-78124D01*
X103532Y-78153D01*
X103807Y-78153D01*
X103807Y-78254D01*
X103532Y-78254D01*
X103503Y-78283D01*
X103475Y-78254D01*
X103200Y-78254D01*
X103200Y-78262D01*
X103098Y-78262D01*
X103098Y-78254D01*
X103098Y-78153D01*
X103098Y-77903D01*
X103056Y-77861D01*
X103001Y-77861D01*
X103001Y-75242D01*
X103001Y-74678D01*
X103001Y-74611D01*
X102983Y-74566D01*
X103001Y-74521D01*
X103001Y-74455D01*
X103001Y-73891D01*
X103001Y-73824D01*
X102983Y-73779D01*
X103001Y-73734D01*
X103001Y-73668D01*
X103001Y-73104D01*
X103001Y-73037D01*
X102976Y-72976D01*
X102929Y-72929D01*
X102867Y-72903D01*
X102336Y-72903D01*
X102294Y-72945D01*
X102294Y-73335D01*
X102960Y-73335D01*
X103001Y-73293D01*
X103001Y-73104D01*
X103001Y-73668D01*
X103001Y-73478D01*
X102960Y-73437D01*
X102294Y-73437D01*
X102294Y-73732D01*
X102294Y-73826D01*
X102294Y-74122D01*
X102960Y-74122D01*
X103001Y-74080D01*
X103001Y-73891D01*
X103001Y-74455D01*
X103001Y-74265D01*
X102960Y-74224D01*
X102294Y-74224D01*
X102294Y-74519D01*
X102294Y-74613D01*
X102294Y-74909D01*
X102960Y-74909D01*
X103001Y-74867D01*
X103001Y-74678D01*
X103001Y-75242D01*
X103001Y-75052D01*
X102960Y-75011D01*
X102294Y-75011D01*
X102294Y-75400D01*
X102336Y-75442D01*
X102867Y-75442D01*
X102929Y-75417D01*
X102976Y-75370D01*
X103001Y-75308D01*
X103001Y-75242D01*
X103001Y-77861D01*
X102982Y-77861D01*
X102916Y-77861D01*
X102854Y-77887D01*
X102809Y-77932D01*
X102809Y-77752D01*
X102809Y-77438D01*
X102767Y-77396D01*
X102457Y-77396D01*
X102457Y-77845D01*
X102498Y-77886D01*
X102609Y-77886D01*
X102675Y-77886D01*
X102737Y-77861D01*
X102784Y-77814D01*
X102809Y-77752D01*
X102809Y-77932D01*
X102807Y-77934D01*
X102782Y-77995D01*
X102782Y-78111D01*
X102824Y-78153D01*
X103098Y-78153D01*
X103098Y-78254D01*
X102824Y-78254D01*
X102782Y-78296D01*
X102782Y-78331D01*
X102737Y-78285D01*
X102675Y-78260D01*
X102609Y-78260D01*
X102355Y-78260D01*
X102355Y-77845D01*
X102355Y-77396D01*
X102044Y-77396D01*
X102002Y-77438D01*
X102002Y-77752D01*
X102028Y-77814D01*
X102075Y-77861D01*
X102136Y-77886D01*
X102203Y-77886D01*
X102313Y-77886D01*
X102355Y-77845D01*
X102355Y-78260D01*
X102137Y-78260D01*
X102118Y-78268D01*
X102110Y-78255D01*
X102093Y-78236D01*
X102079Y-78216D01*
X101987Y-78123D01*
X101927Y-78084D01*
X101926Y-78083D01*
X101926Y-78082D01*
X101920Y-78079D01*
X101841Y-78063D01*
X101836Y-78064D01*
X101233Y-78045D01*
X101233Y-78000D01*
X101233Y-77871D01*
X101270Y-77886D01*
X101337Y-77886D01*
X101809Y-77886D01*
X101870Y-77861D01*
X101917Y-77814D01*
X101943Y-77753D01*
X101943Y-77686D01*
X101943Y-76938D01*
X101918Y-76876D01*
X101899Y-76858D01*
X101942Y-76840D01*
X101973Y-76810D01*
X102003Y-76840D01*
X102046Y-76858D01*
X102028Y-76876D01*
X102002Y-76938D01*
X102002Y-77253D01*
X102044Y-77294D01*
X102355Y-77294D01*
X102355Y-77286D01*
X102457Y-77286D01*
X102457Y-77294D01*
X102767Y-77294D01*
X102809Y-77253D01*
X102809Y-76938D01*
X102784Y-76876D01*
X102737Y-76829D01*
X102675Y-76804D01*
X102609Y-76804D01*
X102579Y-76804D01*
X102589Y-76793D01*
X102615Y-76732D01*
X102615Y-76665D01*
X102615Y-76331D01*
X102615Y-76265D01*
X102589Y-76203D01*
X102542Y-76156D01*
X102481Y-76131D01*
X102365Y-76131D01*
X102324Y-76173D01*
X102324Y-76448D01*
X102573Y-76448D01*
X102615Y-76406D01*
X102615Y-76331D01*
X102615Y-76665D01*
X102615Y-76591D01*
X102573Y-76549D01*
X102324Y-76549D01*
X102324Y-76557D01*
X102222Y-76557D01*
X102222Y-76549D01*
X102214Y-76549D01*
X102214Y-76448D01*
X102222Y-76448D01*
X102222Y-76173D01*
X102193Y-76144D01*
X102193Y-75400D01*
X102193Y-75011D01*
X102193Y-74909D01*
X102193Y-74613D01*
X102193Y-74519D01*
X102193Y-74224D01*
X101781Y-74224D01*
X101531Y-74224D01*
X101528Y-74224D01*
X101486Y-74265D01*
X101486Y-74455D01*
X101486Y-74521D01*
X101505Y-74566D01*
X101486Y-74611D01*
X101486Y-74678D01*
X101486Y-74867D01*
X101528Y-74909D01*
X102193Y-74909D01*
X102193Y-75011D01*
X101528Y-75011D01*
X101486Y-75052D01*
X101486Y-75242D01*
X101486Y-75308D01*
X101511Y-75370D01*
X101558Y-75417D01*
X101620Y-75442D01*
X102151Y-75442D01*
X102193Y-75400D01*
X102193Y-76144D01*
X102180Y-76131D01*
X102065Y-76131D01*
X102003Y-76156D01*
X101973Y-76187D01*
X101943Y-76157D01*
X101881Y-76131D01*
X101815Y-76131D01*
X101465Y-76131D01*
X101403Y-76156D01*
X101356Y-76203D01*
X101330Y-76265D01*
X101330Y-76331D01*
X101330Y-76731D01*
X101356Y-76793D01*
X101367Y-76804D01*
X101271Y-76804D01*
X101209Y-76829D01*
X101162Y-76876D01*
X101139Y-76933D01*
X101099Y-76916D01*
X101033Y-76916D01*
X100633Y-76916D01*
X100571Y-76942D01*
X100524Y-76989D01*
X100518Y-77004D01*
X100499Y-76959D01*
X100469Y-76929D01*
X100499Y-76898D01*
X100524Y-76837D01*
X100524Y-76420D01*
X100499Y-76359D01*
X100452Y-76312D01*
X100390Y-76286D01*
X100324Y-76286D01*
X100250Y-76286D01*
X100208Y-76328D01*
X100208Y-76578D01*
X100482Y-76578D01*
X100524Y-76536D01*
X100524Y-76420D01*
X100524Y-76837D01*
X100524Y-76721D01*
X100482Y-76679D01*
X100208Y-76679D01*
X100208Y-76687D01*
X100106Y-76687D01*
X100106Y-76679D01*
X100098Y-76679D01*
X100098Y-76578D01*
X100106Y-76578D01*
X100106Y-76328D01*
X100064Y-76286D01*
X99990Y-76286D01*
X99924Y-76286D01*
X99862Y-76312D01*
X99815Y-76359D01*
X99790Y-76420D01*
X99790Y-76536D01*
X99831Y-76578D01*
X99790Y-76578D01*
X99790Y-76619D01*
X99787Y-76615D01*
X99783Y-76604D01*
X99213Y-75648D01*
X99196Y-75629D01*
X99182Y-75608D01*
X98902Y-75327D01*
X99248Y-75327D01*
X99309Y-75302D01*
X99356Y-75255D01*
X99360Y-75247D01*
X99360Y-75308D01*
X99385Y-75369D01*
X99432Y-75416D01*
X99494Y-75442D01*
X99560Y-75442D01*
X100741Y-75442D01*
X100803Y-75417D01*
X100850Y-75370D01*
X100875Y-75308D01*
X100875Y-75242D01*
X100875Y-74612D01*
X100857Y-74566D01*
X100868Y-74540D01*
X101089Y-74540D01*
X101150Y-74515D01*
X101181Y-74484D01*
X101211Y-74515D01*
X101272Y-74540D01*
X101388Y-74540D01*
X101430Y-74498D01*
X101430Y-74224D01*
X101422Y-74224D01*
X101422Y-74122D01*
X101430Y-74122D01*
X101430Y-73847D01*
X101388Y-73805D01*
X101272Y-73805D01*
X101211Y-73831D01*
X101181Y-73861D01*
X101151Y-73831D01*
X101089Y-73805D01*
X101022Y-73805D01*
X100868Y-73805D01*
X100857Y-73779D01*
X100875Y-73734D01*
X100875Y-73668D01*
X100875Y-73600D01*
X100888Y-73631D01*
X100985Y-73728D01*
X101112Y-73781D01*
X101249Y-73781D01*
X101375Y-73729D01*
X101472Y-73632D01*
X101486Y-73600D01*
X101486Y-73668D01*
X101486Y-73734D01*
X101505Y-73779D01*
X101486Y-73824D01*
X101486Y-73891D01*
X101486Y-74080D01*
X101528Y-74122D01*
X101531Y-74122D01*
X101781Y-74122D01*
X102193Y-74122D01*
X102193Y-73826D01*
X102193Y-73732D01*
X102193Y-73437D01*
X102185Y-73437D01*
X102185Y-73335D01*
X102193Y-73335D01*
X102193Y-72945D01*
X102151Y-72903D01*
X102047Y-72903D01*
X103312Y-72230D01*
X103345Y-72203D01*
X103361Y-72193D01*
X103374Y-72180D01*
X103375Y-72179D01*
X103375Y-72179D01*
X103638Y-71916D01*
X103638Y-71916D01*
X103638Y-71916D01*
X103660Y-71882D01*
X103683Y-71849D01*
X103683Y-71849D01*
X103683Y-71849D01*
X104656Y-69487D01*
X104789Y-69432D01*
X104885Y-69336D01*
X104885Y-69356D01*
X104911Y-69418D01*
X104958Y-69465D01*
X104988Y-69477D01*
X104958Y-69490D01*
X104911Y-69537D01*
X104885Y-69598D01*
X104885Y-69665D01*
X104885Y-69739D01*
X104927Y-69781D01*
X105177Y-69781D01*
X105177Y-69773D01*
X105278Y-69773D01*
X105278Y-69781D01*
X105286Y-69781D01*
X105286Y-69883D01*
X105278Y-69883D01*
X105278Y-69890D01*
X105177Y-69890D01*
X105177Y-69883D01*
X104927Y-69883D01*
X104885Y-69924D01*
X104885Y-69999D01*
X104885Y-70065D01*
X104911Y-70127D01*
X104958Y-70174D01*
X104988Y-70186D01*
X104958Y-70199D01*
X104911Y-70246D01*
X104892Y-70290D01*
X104868Y-70295D01*
X104782Y-70353D01*
X104782Y-70353D01*
X104782Y-70353D01*
X104665Y-70470D01*
X104633Y-70516D01*
X104609Y-70550D01*
X104609Y-70553D01*
X104607Y-70556D01*
X104596Y-70612D01*
X104587Y-70652D01*
X104587Y-70657D01*
X104587Y-70658D01*
X104587Y-70658D01*
X104585Y-70726D01*
X104554Y-70757D01*
X104502Y-70883D01*
X104501Y-71020D01*
X104554Y-71147D01*
X104645Y-71238D01*
X104644Y-71240D01*
X104624Y-71338D01*
X104644Y-71435D01*
X104664Y-71466D01*
X104644Y-71496D01*
X104624Y-71594D01*
X104644Y-71691D01*
X104664Y-71722D01*
X104644Y-71752D01*
X104624Y-71850D01*
X104644Y-71947D01*
X104664Y-71978D01*
X104644Y-72008D01*
X104624Y-72106D01*
X104644Y-72203D01*
X104699Y-72286D01*
X104782Y-72342D01*
X104880Y-72361D01*
X104975Y-72361D01*
X104993Y-72468D01*
X104958Y-72482D01*
X104911Y-72529D01*
X104892Y-72574D01*
X104868Y-72578D01*
X104782Y-72636D01*
X104782Y-72636D01*
X104782Y-72636D01*
X104665Y-72753D01*
X104663Y-72755D01*
X104660Y-72757D01*
X104623Y-72797D01*
X104593Y-72797D01*
X104466Y-72849D01*
X104369Y-72946D01*
X104316Y-73072D01*
X104316Y-73209D01*
X104369Y-73336D01*
X104466Y-73433D01*
X104592Y-73486D01*
X104729Y-73486D01*
X104856Y-73433D01*
X104953Y-73337D01*
X105005Y-73210D01*
X105005Y-73186D01*
X105019Y-73191D01*
X105086Y-73191D01*
X105436Y-73191D01*
X105497Y-73166D01*
X105527Y-73136D01*
X105558Y-73166D01*
X105619Y-73191D01*
X105735Y-73191D01*
X105777Y-73149D01*
X105777Y-72875D01*
X105769Y-72875D01*
X105769Y-72773D01*
X105777Y-72773D01*
X105777Y-72498D01*
X105735Y-72457D01*
X105619Y-72457D01*
X105558Y-72482D01*
X105527Y-72512D01*
X105497Y-72482D01*
X105436Y-72457D01*
X105410Y-72457D01*
X105372Y-72226D01*
X105387Y-72203D01*
X105407Y-72106D01*
X105387Y-72008D01*
X105367Y-71978D01*
X105387Y-71947D01*
X105407Y-71850D01*
X105387Y-71752D01*
X105367Y-71722D01*
X105387Y-71691D01*
X105407Y-71594D01*
X105387Y-71496D01*
X105367Y-71466D01*
X105387Y-71435D01*
X105407Y-71338D01*
X105387Y-71240D01*
X105332Y-71157D01*
X105249Y-71101D01*
X105164Y-71084D01*
X105190Y-71021D01*
X105190Y-70908D01*
X105436Y-70908D01*
X105497Y-70882D01*
X105527Y-70852D01*
X105558Y-70882D01*
X105619Y-70908D01*
X105686Y-70908D01*
X106036Y-70908D01*
X106038Y-70907D01*
X106117Y-71082D01*
X106090Y-71082D01*
X106090Y-71293D01*
X106098Y-71293D01*
X106098Y-71338D01*
X105989Y-71338D01*
X105989Y-71293D01*
X105989Y-71082D01*
X105861Y-71082D01*
X105767Y-71121D01*
X105695Y-71193D01*
X105670Y-71254D01*
X105702Y-71293D01*
X105989Y-71293D01*
X105989Y-71338D01*
X105904Y-71338D01*
X105806Y-71357D01*
X105769Y-71382D01*
X105702Y-71382D01*
X105670Y-71421D01*
X105688Y-71466D01*
X105668Y-71496D01*
X105648Y-71594D01*
X105668Y-71691D01*
X105688Y-71722D01*
X105668Y-71752D01*
X105648Y-71850D01*
X105668Y-71947D01*
X105669Y-71950D01*
X105656Y-71984D01*
X105656Y-72050D01*
X105656Y-72227D01*
X105681Y-72289D01*
X105728Y-72336D01*
X105790Y-72361D01*
X105856Y-72361D01*
X106289Y-72361D01*
X106351Y-72336D01*
X106360Y-72326D01*
X107037Y-72437D01*
X107037Y-72828D01*
X107062Y-72889D01*
X107109Y-72937D01*
X107171Y-72962D01*
X107237Y-72962D01*
X107946Y-72962D01*
X108008Y-72937D01*
X108055Y-72890D01*
X108080Y-72828D01*
X108080Y-72762D01*
X108080Y-72647D01*
X108195Y-72647D01*
X108297Y-72749D01*
X108431Y-72805D01*
X108576Y-72805D01*
X108710Y-72749D01*
X108812Y-72647D01*
X108868Y-72513D01*
X108868Y-72368D01*
X108868Y-73612D01*
X108551Y-73611D01*
X108200Y-73757D01*
X107931Y-74025D01*
X107785Y-74376D01*
X107785Y-74756D01*
X107930Y-75107D01*
X108199Y-75375D01*
X108549Y-75521D01*
X108929Y-75521D01*
X109280Y-75376D01*
X109549Y-75108D01*
X109695Y-74757D01*
X109695Y-74377D01*
X109695Y-77999D01*
X109550Y-77648D01*
X109282Y-77379D01*
X108931Y-77234D01*
X108551Y-77233D01*
X108200Y-77379D01*
X107931Y-77647D01*
X107844Y-77857D01*
X107844Y-76935D01*
X107844Y-75754D01*
X107819Y-75692D01*
X107772Y-75645D01*
X107710Y-75620D01*
X107643Y-75620D01*
X106462Y-75620D01*
X106401Y-75645D01*
X106354Y-75692D01*
X106328Y-75754D01*
X106328Y-75820D01*
X106328Y-77001D01*
X106354Y-77063D01*
X106401Y-77110D01*
X106462Y-77135D01*
X106529Y-77135D01*
X107710Y-77135D01*
X107771Y-77110D01*
X107818Y-77063D01*
X107844Y-77001D01*
X107844Y-76935D01*
X107844Y-77857D01*
X107785Y-77998D01*
X107785Y-78378D01*
X107930Y-78729D01*
X108199Y-78997D01*
X108549Y-79143D01*
X108929Y-79143D01*
X109280Y-78998D01*
X109549Y-78730D01*
X109695Y-78379D01*
X109695Y-77999D01*
X109695Y-80047D01*
X109639Y-79999D01*
X109567Y-80071D01*
X109567Y-79927D01*
X109427Y-79764D01*
X108932Y-79557D01*
X108396Y-79556D01*
X107900Y-79760D01*
X107895Y-79764D01*
X107755Y-79927D01*
X108661Y-80833D01*
X109567Y-79927D01*
X109567Y-80071D01*
X108733Y-80905D01*
X109639Y-81811D01*
X109802Y-81671D01*
X109842Y-81576D01*
X109842Y-82086D01*
X109842Y-82086D01*
G37*
G54D49*
X109842Y-82086D02*
X109334Y-82086D01*
X109422Y-82050D01*
X109427Y-82046D01*
X109567Y-81883D01*
X108661Y-80977D01*
X108589Y-81049D01*
X108589Y-80905D01*
X107683Y-79999D01*
X107520Y-80139D01*
X107313Y-80634D01*
X107312Y-81170D01*
X107516Y-81666D01*
X107520Y-81671D01*
X107683Y-81811D01*
X108589Y-80905D01*
X108589Y-81049D01*
X107755Y-81883D01*
X107895Y-82046D01*
X107990Y-82086D01*
X107080Y-82086D01*
X107080Y-81267D01*
X107080Y-81072D01*
X107080Y-80970D01*
X107080Y-80774D01*
X107040Y-80676D01*
X106966Y-80600D01*
X106903Y-80574D01*
X106862Y-80605D01*
X106862Y-80970D01*
X107080Y-80970D01*
X107080Y-81072D01*
X106862Y-81072D01*
X106862Y-81436D01*
X106903Y-81468D01*
X106966Y-81441D01*
X107040Y-81365D01*
X107080Y-81267D01*
X107080Y-82086D01*
X106762Y-82086D01*
X106762Y-81436D01*
X106762Y-81072D01*
X106762Y-80970D01*
X106762Y-80605D01*
X106722Y-80574D01*
X106659Y-80600D01*
X106585Y-80676D01*
X106562Y-80732D01*
X106540Y-80676D01*
X106466Y-80600D01*
X106403Y-80574D01*
X106362Y-80605D01*
X106362Y-80970D01*
X106545Y-80970D01*
X106580Y-80970D01*
X106762Y-80970D01*
X106762Y-81072D01*
X106580Y-81072D01*
X106545Y-81072D01*
X106362Y-81072D01*
X106362Y-81436D01*
X106403Y-81468D01*
X106466Y-81441D01*
X106540Y-81365D01*
X106562Y-81310D01*
X106585Y-81365D01*
X106659Y-81441D01*
X106722Y-81468D01*
X106762Y-81436D01*
X106762Y-82086D01*
X100446Y-82086D01*
X100446Y-79956D01*
X100446Y-79841D01*
X100404Y-79799D01*
X100129Y-79799D01*
X100129Y-80049D01*
X100171Y-80091D01*
X100245Y-80091D01*
X100312Y-80091D01*
X100373Y-80065D01*
X100420Y-80018D01*
X100446Y-79956D01*
X100446Y-82086D01*
X100169Y-82086D01*
X100169Y-80639D01*
X100169Y-80305D01*
X100169Y-80239D01*
X100144Y-80177D01*
X100097Y-80130D01*
X100035Y-80105D01*
X100027Y-80105D01*
X100027Y-80049D01*
X100027Y-79799D01*
X99753Y-79799D01*
X99711Y-79841D01*
X99711Y-79956D01*
X99736Y-80018D01*
X99783Y-80065D01*
X99845Y-80091D01*
X99911Y-80091D01*
X99986Y-80091D01*
X100027Y-80049D01*
X100027Y-80105D01*
X99920Y-80105D01*
X99878Y-80146D01*
X99878Y-80421D01*
X100128Y-80421D01*
X100169Y-80379D01*
X100169Y-80305D01*
X100169Y-80639D01*
X100169Y-80565D01*
X100128Y-80523D01*
X99878Y-80523D01*
X99878Y-80797D01*
X99920Y-80839D01*
X100035Y-80839D01*
X100097Y-80814D01*
X100144Y-80767D01*
X100169Y-80705D01*
X100169Y-80639D01*
X100169Y-82086D01*
X99604Y-82086D01*
X99604Y-81978D01*
X99563Y-81936D01*
X99263Y-81936D01*
X99263Y-81944D01*
X99161Y-81944D01*
X99161Y-81936D01*
X98933Y-81936D01*
X98862Y-81936D01*
X98633Y-81936D01*
X98633Y-81944D01*
X98531Y-81944D01*
X98531Y-81936D01*
X98303Y-81936D01*
X98232Y-81936D01*
X98003Y-81936D01*
X98003Y-81944D01*
X97901Y-81944D01*
X97901Y-81936D01*
X97673Y-81936D01*
X97602Y-81936D01*
X97373Y-81936D01*
X97373Y-81944D01*
X97272Y-81944D01*
X97272Y-81936D01*
X97043Y-81936D01*
X96972Y-81936D01*
X96743Y-81936D01*
X96743Y-81944D01*
X96642Y-81944D01*
X96642Y-81936D01*
X96413Y-81936D01*
X96342Y-81936D01*
X96113Y-81936D01*
X96113Y-81944D01*
X96012Y-81944D01*
X96012Y-81936D01*
X95783Y-81936D01*
X95712Y-81936D01*
X95483Y-81936D01*
X95483Y-81944D01*
X95382Y-81944D01*
X95382Y-81936D01*
X95082Y-81936D01*
X95040Y-81978D01*
X95040Y-82086D01*
X94373Y-82086D01*
X94461Y-82050D01*
X94467Y-82046D01*
X94606Y-81883D01*
X93700Y-80977D01*
X92794Y-81883D01*
X92934Y-82046D01*
X93029Y-82086D01*
X92519Y-82086D01*
X92519Y-81578D01*
X92555Y-81666D01*
X92559Y-81671D01*
X92723Y-81811D01*
X93628Y-80905D01*
X92723Y-79999D01*
X92559Y-80139D01*
X92519Y-80234D01*
X92519Y-66617D01*
X92555Y-66705D01*
X92559Y-66711D01*
X92723Y-66850D01*
X93628Y-65944D01*
X92723Y-65038D01*
X92559Y-65178D01*
X92519Y-65273D01*
X92519Y-64763D01*
X93027Y-64763D01*
X92939Y-64800D01*
X92934Y-64803D01*
X92794Y-64967D01*
X93700Y-65873D01*
X94606Y-64967D01*
X94467Y-64803D01*
X94371Y-64763D01*
X100041Y-64763D01*
X100020Y-64813D01*
X100020Y-64880D01*
X100020Y-64914D01*
X99976Y-64943D01*
X99888Y-65031D01*
X99884Y-65033D01*
X99839Y-65100D01*
X98873Y-67352D01*
X98757Y-67400D01*
X98660Y-67497D01*
X98608Y-67624D01*
X98608Y-67761D01*
X98660Y-67887D01*
X98757Y-67984D01*
X98883Y-68037D01*
X99020Y-68037D01*
X99147Y-67985D01*
X99244Y-67888D01*
X99297Y-67761D01*
X99297Y-67624D01*
X99252Y-67517D01*
X100154Y-65414D01*
X100154Y-65414D01*
X100220Y-65414D01*
X100570Y-65414D01*
X100632Y-65389D01*
X100662Y-65358D01*
X100692Y-65389D01*
X100754Y-65414D01*
X100820Y-65414D01*
X101170Y-65414D01*
X101232Y-65389D01*
X101279Y-65342D01*
X101304Y-65280D01*
X101304Y-65253D01*
X101358Y-65253D01*
X101358Y-65280D01*
X101384Y-65341D01*
X101431Y-65389D01*
X101444Y-65394D01*
X101402Y-65541D01*
X101397Y-65541D01*
X101338Y-65565D01*
X101279Y-65541D01*
X101212Y-65541D01*
X100897Y-65541D01*
X100838Y-65565D01*
X100779Y-65541D01*
X100681Y-65541D01*
X100639Y-65583D01*
X100639Y-66012D01*
X100647Y-66012D01*
X100647Y-66113D01*
X100639Y-66113D01*
X100639Y-66121D01*
X100537Y-66121D01*
X100537Y-66113D01*
X100537Y-66012D01*
X100537Y-65583D01*
X100495Y-65541D01*
X100397Y-65541D01*
X100336Y-65566D01*
X100289Y-65613D01*
X100263Y-65675D01*
X100263Y-65741D01*
X100263Y-65970D01*
X100305Y-66012D01*
X100537Y-66012D01*
X100537Y-66113D01*
X100305Y-66113D01*
X100263Y-66155D01*
X100263Y-66384D01*
X100263Y-66450D01*
X100278Y-66486D01*
X100030Y-66486D01*
X99968Y-66512D01*
X99921Y-66559D01*
X99896Y-66620D01*
X99896Y-66687D01*
X99896Y-67237D01*
X99921Y-67298D01*
X99968Y-67345D01*
X100030Y-67371D01*
X100096Y-67371D01*
X100646Y-67371D01*
X100708Y-67346D01*
X100755Y-67299D01*
X100780Y-67237D01*
X100780Y-67170D01*
X100780Y-66987D01*
X100802Y-66977D01*
X100893Y-66909D01*
X100903Y-67049D01*
X100946Y-67151D01*
X101015Y-67180D01*
X101266Y-66929D01*
X101261Y-66923D01*
X101333Y-66851D01*
X101338Y-66857D01*
X101344Y-66851D01*
X101415Y-66923D01*
X101410Y-66929D01*
X101661Y-67180D01*
X101730Y-67151D01*
X101786Y-66984D01*
X101777Y-66861D01*
X101896Y-66925D01*
X101896Y-67016D01*
X101963Y-67179D01*
X102087Y-67303D01*
X102250Y-67371D01*
X102426Y-67371D01*
X102588Y-67304D01*
X102713Y-67180D01*
X102780Y-67017D01*
X102780Y-66841D01*
X102713Y-66678D01*
X102643Y-66608D01*
X102643Y-65214D01*
X102643Y-65139D01*
X102601Y-65098D01*
X102351Y-65098D01*
X102351Y-65372D01*
X102393Y-65414D01*
X102509Y-65414D01*
X102570Y-65389D01*
X102617Y-65342D01*
X102643Y-65280D01*
X102643Y-65214D01*
X102643Y-66608D01*
X102589Y-66554D01*
X102426Y-66486D01*
X102398Y-66486D01*
X102413Y-66450D01*
X102413Y-66384D01*
X102413Y-65741D01*
X102413Y-65675D01*
X102387Y-65613D01*
X102340Y-65566D01*
X102279Y-65541D01*
X102181Y-65541D01*
X102139Y-65583D01*
X102139Y-66012D01*
X102371Y-66012D01*
X102413Y-65970D01*
X102413Y-65741D01*
X102413Y-66384D01*
X102413Y-66155D01*
X102371Y-66113D01*
X102139Y-66113D01*
X102139Y-66121D01*
X102037Y-66121D01*
X102037Y-66113D01*
X102029Y-66113D01*
X102029Y-66012D01*
X102037Y-66012D01*
X102037Y-65583D01*
X101995Y-65541D01*
X101897Y-65541D01*
X101838Y-65565D01*
X101827Y-65560D01*
X101869Y-65414D01*
X101909Y-65414D01*
X101970Y-65389D01*
X102001Y-65358D01*
X102031Y-65389D01*
X102093Y-65414D01*
X102208Y-65414D01*
X102250Y-65372D01*
X102250Y-65098D01*
X102242Y-65098D01*
X102242Y-64996D01*
X102250Y-64996D01*
X102250Y-64988D01*
X102351Y-64988D01*
X102351Y-64996D01*
X102601Y-64996D01*
X102643Y-64954D01*
X102643Y-64880D01*
X102643Y-64813D01*
X102622Y-64763D01*
X107988Y-64763D01*
X107900Y-64800D01*
X107895Y-64803D01*
X107755Y-64967D01*
X108661Y-65873D01*
X109567Y-64967D01*
X109427Y-64803D01*
X109332Y-64763D01*
X109842Y-64763D01*
X109842Y-65271D01*
X109806Y-65183D01*
X109802Y-65178D01*
X109639Y-65038D01*
X108733Y-65944D01*
X109639Y-66850D01*
X109802Y-66711D01*
X109842Y-66615D01*
X109842Y-80232D01*
X109806Y-80144D01*
X109802Y-80139D01*
X109695Y-80047D01*
X109695Y-77999D01*
X109695Y-74377D01*
X109567Y-74067D01*
X109567Y-66922D01*
X108661Y-66016D01*
X108589Y-66088D01*
X108589Y-65944D01*
X107683Y-65038D01*
X107520Y-65178D01*
X107313Y-65673D01*
X107312Y-66209D01*
X107516Y-66705D01*
X107520Y-66711D01*
X107683Y-66850D01*
X108589Y-65944D01*
X108589Y-66088D01*
X107755Y-66922D01*
X107895Y-67086D01*
X108390Y-67292D01*
X108926Y-67293D01*
X109422Y-67089D01*
X109427Y-67086D01*
X109567Y-66922D01*
X109567Y-74067D01*
X109550Y-74026D01*
X109282Y-73757D01*
X109122Y-73691D01*
X109122Y-68657D01*
X109122Y-68363D01*
X109122Y-68296D01*
X109096Y-68235D01*
X109049Y-68188D01*
X108988Y-68162D01*
X108867Y-68162D01*
X108825Y-68204D01*
X108825Y-68459D01*
X109080Y-68459D01*
X109122Y-68417D01*
X109122Y-68363D01*
X109122Y-68657D01*
X109122Y-68602D01*
X109080Y-68561D01*
X108825Y-68561D01*
X108825Y-68815D01*
X108867Y-68857D01*
X108988Y-68857D01*
X109049Y-68832D01*
X109096Y-68785D01*
X109122Y-68723D01*
X109122Y-68657D01*
X109122Y-73691D01*
X108931Y-73612D01*
X108868Y-73612D01*
X108868Y-72368D01*
X108812Y-72234D01*
X108772Y-72194D01*
X108772Y-67857D01*
X108772Y-67497D01*
X108747Y-67435D01*
X108700Y-67388D01*
X108638Y-67362D01*
X108572Y-67362D01*
X108212Y-67362D01*
X108150Y-67388D01*
X108103Y-67435D01*
X108095Y-67453D01*
X107718Y-67356D01*
X107699Y-67355D01*
X107688Y-67351D01*
X105856Y-67159D01*
X105856Y-65971D01*
X105856Y-65459D01*
X105831Y-65397D01*
X105783Y-65350D01*
X105722Y-65325D01*
X105655Y-65325D01*
X105143Y-65325D01*
X105082Y-65350D01*
X105035Y-65397D01*
X105009Y-65459D01*
X105009Y-65525D01*
X105009Y-66037D01*
X105035Y-66099D01*
X105082Y-66146D01*
X105143Y-66171D01*
X105210Y-66171D01*
X105722Y-66171D01*
X105783Y-66146D01*
X105830Y-66099D01*
X105856Y-66037D01*
X105856Y-65971D01*
X105856Y-67159D01*
X105822Y-67155D01*
X105792Y-67082D01*
X105673Y-66963D01*
X105517Y-66899D01*
X105349Y-66899D01*
X105193Y-66963D01*
X105074Y-67082D01*
X105009Y-67237D01*
X105009Y-67406D01*
X105073Y-67561D01*
X105192Y-67681D01*
X105348Y-67745D01*
X105516Y-67745D01*
X105672Y-67681D01*
X105786Y-67567D01*
X107034Y-67698D01*
X107034Y-67747D01*
X107034Y-68097D01*
X107059Y-68158D01*
X107089Y-68188D01*
X107059Y-68219D01*
X107034Y-68280D01*
X107034Y-68325D01*
X106767Y-68434D01*
X106655Y-68387D01*
X106518Y-68387D01*
X106391Y-68440D01*
X106294Y-68536D01*
X106242Y-68663D01*
X106242Y-68800D01*
X106294Y-68927D01*
X106391Y-69024D01*
X106517Y-69076D01*
X106654Y-69076D01*
X106781Y-69024D01*
X106878Y-68927D01*
X106924Y-68817D01*
X107061Y-68760D01*
X107106Y-68805D01*
X107168Y-68831D01*
X107234Y-68831D01*
X107634Y-68831D01*
X107696Y-68805D01*
X107742Y-68759D01*
X107753Y-68784D01*
X107800Y-68832D01*
X107861Y-68857D01*
X107928Y-68857D01*
X108288Y-68857D01*
X108349Y-68832D01*
X108396Y-68785D01*
X108422Y-68723D01*
X108422Y-68657D01*
X108422Y-68297D01*
X108397Y-68235D01*
X108350Y-68188D01*
X108288Y-68162D01*
X108228Y-68162D01*
X108198Y-68118D01*
X108198Y-68118D01*
X108106Y-68026D01*
X108102Y-68023D01*
X108099Y-68019D01*
X107885Y-67826D01*
X108077Y-67875D01*
X108077Y-67923D01*
X108103Y-67984D01*
X108150Y-68032D01*
X108211Y-68057D01*
X108278Y-68057D01*
X108638Y-68057D01*
X108699Y-68032D01*
X108746Y-67985D01*
X108772Y-67923D01*
X108772Y-67857D01*
X108772Y-72194D01*
X108724Y-72146D01*
X108724Y-68815D01*
X108724Y-68561D01*
X108724Y-68459D01*
X108724Y-68204D01*
X108682Y-68162D01*
X108562Y-68162D01*
X108500Y-68188D01*
X108453Y-68235D01*
X108427Y-68296D01*
X108427Y-68363D01*
X108427Y-68417D01*
X108469Y-68459D01*
X108724Y-68459D01*
X108724Y-68561D01*
X108469Y-68561D01*
X108427Y-68602D01*
X108427Y-68657D01*
X108427Y-68723D01*
X108453Y-68785D01*
X108500Y-68832D01*
X108562Y-68857D01*
X108682Y-68857D01*
X108724Y-68815D01*
X108724Y-72146D01*
X108710Y-72132D01*
X108576Y-72076D01*
X108431Y-72076D01*
X108351Y-72109D01*
X108351Y-69769D01*
X108351Y-69285D01*
X108351Y-69219D01*
X108325Y-69157D01*
X108278Y-69110D01*
X108217Y-69085D01*
X108051Y-69085D01*
X108009Y-69127D01*
X108009Y-69476D01*
X108309Y-69476D01*
X108351Y-69434D01*
X108351Y-69285D01*
X108351Y-69769D01*
X108351Y-69620D01*
X108309Y-69578D01*
X108009Y-69578D01*
X108009Y-69928D01*
X108051Y-69969D01*
X108217Y-69969D01*
X108278Y-69944D01*
X108325Y-69897D01*
X108351Y-69835D01*
X108351Y-69769D01*
X108351Y-72109D01*
X108297Y-72131D01*
X108195Y-72234D01*
X108080Y-72234D01*
X108080Y-72053D01*
X108055Y-71991D01*
X108008Y-71944D01*
X107950Y-71920D01*
X108001Y-71870D01*
X108080Y-71679D01*
X108080Y-71471D01*
X108001Y-71279D01*
X107863Y-71141D01*
X108001Y-71004D01*
X108080Y-70812D01*
X108080Y-70605D01*
X108001Y-70413D01*
X107908Y-70320D01*
X107908Y-69928D01*
X107908Y-69578D01*
X107908Y-69476D01*
X107908Y-69127D01*
X107866Y-69085D01*
X107700Y-69085D01*
X107639Y-69110D01*
X107592Y-69157D01*
X107566Y-69219D01*
X107566Y-69285D01*
X107566Y-69434D01*
X107608Y-69476D01*
X107908Y-69476D01*
X107908Y-69578D01*
X107608Y-69578D01*
X107566Y-69620D01*
X107566Y-69769D01*
X107566Y-69835D01*
X107592Y-69897D01*
X107639Y-69944D01*
X107700Y-69969D01*
X107866Y-69969D01*
X107908Y-69928D01*
X107908Y-70320D01*
X107854Y-70266D01*
X107663Y-70187D01*
X107603Y-70187D01*
X107484Y-69938D01*
X107525Y-69897D01*
X107551Y-69835D01*
X107551Y-69769D01*
X107551Y-69219D01*
X107525Y-69157D01*
X107478Y-69110D01*
X107417Y-69085D01*
X107350Y-69085D01*
X106900Y-69085D01*
X106839Y-69110D01*
X106792Y-69157D01*
X106766Y-69219D01*
X106766Y-69285D01*
X106766Y-69835D01*
X106792Y-69897D01*
X106839Y-69944D01*
X106900Y-69969D01*
X106917Y-69969D01*
X106921Y-69993D01*
X106926Y-70000D01*
X106927Y-70007D01*
X107120Y-70409D01*
X107117Y-70412D01*
X107037Y-70604D01*
X107037Y-70811D01*
X107042Y-70823D01*
X106617Y-71217D01*
X106614Y-71206D01*
X106604Y-71157D01*
X106602Y-71153D01*
X106601Y-71151D01*
X106348Y-70590D01*
X106327Y-70560D01*
X106306Y-70529D01*
X106214Y-70437D01*
X106170Y-70407D01*
X106170Y-70307D01*
X106144Y-70246D01*
X106097Y-70199D01*
X106067Y-70186D01*
X106097Y-70174D01*
X106144Y-70127D01*
X106170Y-70065D01*
X106170Y-69999D01*
X106170Y-69599D01*
X106144Y-69537D01*
X106097Y-69490D01*
X106067Y-69477D01*
X106097Y-69465D01*
X106144Y-69418D01*
X106170Y-69357D01*
X106170Y-69290D01*
X106170Y-68890D01*
X106144Y-68828D01*
X106097Y-68781D01*
X106036Y-68756D01*
X105969Y-68756D01*
X105619Y-68756D01*
X105558Y-68781D01*
X105527Y-68811D01*
X105497Y-68781D01*
X105436Y-68756D01*
X105369Y-68756D01*
X105019Y-68756D01*
X104958Y-68781D01*
X104911Y-68828D01*
X104885Y-68890D01*
X104885Y-68911D01*
X104789Y-68814D01*
X104655Y-68759D01*
X104510Y-68759D01*
X104376Y-68814D01*
X104274Y-68916D01*
X104218Y-69050D01*
X104218Y-69195D01*
X104274Y-69329D01*
X104274Y-69330D01*
X103502Y-71204D01*
X103502Y-68802D01*
X103428Y-68624D01*
X103293Y-68489D01*
X103116Y-68415D01*
X102924Y-68415D01*
X102892Y-68428D01*
X102601Y-68167D01*
X102573Y-68151D01*
X102553Y-68134D01*
X101825Y-67728D01*
X101810Y-67724D01*
X101797Y-67715D01*
X101773Y-67710D01*
X101773Y-67694D01*
X101748Y-67633D01*
X101701Y-67585D01*
X101639Y-67560D01*
X101589Y-67560D01*
X101589Y-67252D01*
X101338Y-67000D01*
X101087Y-67252D01*
X101116Y-67321D01*
X101283Y-67376D01*
X101458Y-67363D01*
X101560Y-67321D01*
X101589Y-67252D01*
X101589Y-67560D01*
X101572Y-67560D01*
X101186Y-67560D01*
X101181Y-67562D01*
X101175Y-67560D01*
X101108Y-67560D01*
X100722Y-67560D01*
X100661Y-67585D01*
X100614Y-67632D01*
X100588Y-67694D01*
X100588Y-67708D01*
X100579Y-67709D01*
X99402Y-68114D01*
X99395Y-68118D01*
X99387Y-68120D01*
X99350Y-68144D01*
X99312Y-68167D01*
X99307Y-68173D01*
X99301Y-68178D01*
X99174Y-68305D01*
X99116Y-68391D01*
X99111Y-68415D01*
X98915Y-68415D01*
X98885Y-68427D01*
X98177Y-67439D01*
X98301Y-67207D01*
X98304Y-67194D01*
X98311Y-67184D01*
X98316Y-67160D01*
X98482Y-67160D01*
X98544Y-67134D01*
X98591Y-67087D01*
X98616Y-67026D01*
X98616Y-66959D01*
X98616Y-66359D01*
X98591Y-66298D01*
X98544Y-66251D01*
X98482Y-66225D01*
X98416Y-66225D01*
X97816Y-66225D01*
X97754Y-66250D01*
X97707Y-66298D01*
X97682Y-66359D01*
X97682Y-66426D01*
X97682Y-67026D01*
X97707Y-67087D01*
X97743Y-67123D01*
X97735Y-67139D01*
X97735Y-67138D01*
X97673Y-67113D01*
X97607Y-67112D01*
X97257Y-67112D01*
X97195Y-67138D01*
X97165Y-67168D01*
X97135Y-67138D01*
X97073Y-67112D01*
X96957Y-67112D01*
X96916Y-67154D01*
X96916Y-67429D01*
X96924Y-67429D01*
X96924Y-67531D01*
X96916Y-67531D01*
X96916Y-67805D01*
X96957Y-67847D01*
X97073Y-67847D01*
X97135Y-67822D01*
X97165Y-67791D01*
X97195Y-67822D01*
X97256Y-67847D01*
X97323Y-67847D01*
X97673Y-67847D01*
X97735Y-67822D01*
X97771Y-67785D01*
X98517Y-68826D01*
X98529Y-68837D01*
X98544Y-68860D01*
X98671Y-68987D01*
X98671Y-68987D01*
X98728Y-69025D01*
X98757Y-69044D01*
X98757Y-69044D01*
X98781Y-69049D01*
X98781Y-69245D01*
X98806Y-69307D01*
X98853Y-69354D01*
X98915Y-69379D01*
X98981Y-69379D01*
X99415Y-69379D01*
X97795Y-70241D01*
X97752Y-70223D01*
X97685Y-70223D01*
X97335Y-70223D01*
X97274Y-70248D01*
X97244Y-70278D01*
X97213Y-70248D01*
X97152Y-70223D01*
X97085Y-70223D01*
X96814Y-70223D01*
X96814Y-67805D01*
X96814Y-67531D01*
X96814Y-67429D01*
X96814Y-67154D01*
X96772Y-67112D01*
X96657Y-67112D01*
X96653Y-67114D01*
X96653Y-66754D01*
X96641Y-66568D01*
X96594Y-66455D01*
X96522Y-66423D01*
X96450Y-66495D01*
X96450Y-66351D01*
X96418Y-66279D01*
X96242Y-66220D01*
X96057Y-66232D01*
X95943Y-66279D01*
X95912Y-66351D01*
X96181Y-66621D01*
X96450Y-66351D01*
X96450Y-66495D01*
X96253Y-66692D01*
X96522Y-66962D01*
X96594Y-66930D01*
X96653Y-66754D01*
X96653Y-67114D01*
X96595Y-67138D01*
X96548Y-67185D01*
X96523Y-67246D01*
X96523Y-67313D01*
X96523Y-67387D01*
X96564Y-67429D01*
X96814Y-67429D01*
X96814Y-67531D01*
X96564Y-67531D01*
X96523Y-67572D01*
X96523Y-67647D01*
X96523Y-67713D01*
X96548Y-67775D01*
X96595Y-67822D01*
X96657Y-67847D01*
X96772Y-67847D01*
X96814Y-67805D01*
X96814Y-70223D01*
X96735Y-70223D01*
X96674Y-70248D01*
X96627Y-70295D01*
X96601Y-70357D01*
X96601Y-70400D01*
X96450Y-70400D01*
X96450Y-67034D01*
X96181Y-66764D01*
X96109Y-66836D01*
X96109Y-66692D01*
X95840Y-66423D01*
X95768Y-66455D01*
X95708Y-66631D01*
X95721Y-66817D01*
X95768Y-66930D01*
X95840Y-66962D01*
X96109Y-66692D01*
X96109Y-66836D01*
X95912Y-67034D01*
X95943Y-67106D01*
X96120Y-67165D01*
X96305Y-67152D01*
X96418Y-67106D01*
X96450Y-67034D01*
X96450Y-70400D01*
X96288Y-70400D01*
X96266Y-70348D01*
X96219Y-70301D01*
X96158Y-70276D01*
X96091Y-70276D01*
X95731Y-70276D01*
X95670Y-70301D01*
X95623Y-70348D01*
X95597Y-70410D01*
X95597Y-70476D01*
X95597Y-70836D01*
X95622Y-70898D01*
X95669Y-70945D01*
X95731Y-70970D01*
X95798Y-70970D01*
X96158Y-70970D01*
X96219Y-70945D01*
X96266Y-70898D01*
X96292Y-70837D01*
X96292Y-70813D01*
X96601Y-70813D01*
X96601Y-70823D01*
X96627Y-70885D01*
X96674Y-70932D01*
X96735Y-70957D01*
X96737Y-70957D01*
X96737Y-70971D01*
X96735Y-70971D01*
X96674Y-70996D01*
X96627Y-71043D01*
X96601Y-71105D01*
X96601Y-71133D01*
X96569Y-71101D01*
X96508Y-71076D01*
X96387Y-71076D01*
X96345Y-71118D01*
X96345Y-71372D01*
X96353Y-71372D01*
X96353Y-71474D01*
X96345Y-71474D01*
X96345Y-71729D01*
X96387Y-71770D01*
X96508Y-71770D01*
X96569Y-71745D01*
X96616Y-71698D01*
X96638Y-71644D01*
X96674Y-71680D01*
X96735Y-71705D01*
X96802Y-71705D01*
X97152Y-71705D01*
X97213Y-71680D01*
X97244Y-71650D01*
X97274Y-71680D01*
X97293Y-71688D01*
X97298Y-71712D01*
X97356Y-71798D01*
X97458Y-71901D01*
X97467Y-71907D01*
X97474Y-71915D01*
X97510Y-71936D01*
X97544Y-71959D01*
X97555Y-71961D01*
X97564Y-71966D01*
X98756Y-72351D01*
X98757Y-72351D01*
X98759Y-72352D01*
X98777Y-72358D01*
X98805Y-72361D01*
X98859Y-72372D01*
X99489Y-72372D01*
X99668Y-72372D01*
X99712Y-72363D01*
X99756Y-72357D01*
X99762Y-72353D01*
X99770Y-72351D01*
X99807Y-72327D01*
X99845Y-72304D01*
X100136Y-72044D01*
X100167Y-72057D01*
X100359Y-72057D01*
X100536Y-71983D01*
X100672Y-71848D01*
X100675Y-71840D01*
X101537Y-71840D01*
X101537Y-71922D01*
X101562Y-71984D01*
X101609Y-72031D01*
X101671Y-72057D01*
X101737Y-72057D01*
X102367Y-72057D01*
X102429Y-72031D01*
X102476Y-71984D01*
X102501Y-71923D01*
X102501Y-71856D01*
X102501Y-71226D01*
X102476Y-71165D01*
X102429Y-71118D01*
X102368Y-71092D01*
X102301Y-71092D01*
X101671Y-71092D01*
X101610Y-71117D01*
X101562Y-71164D01*
X101537Y-71226D01*
X101537Y-71292D01*
X101537Y-71309D01*
X100675Y-71309D01*
X100672Y-71301D01*
X100537Y-71166D01*
X100360Y-71092D01*
X100168Y-71092D01*
X99990Y-71165D01*
X99855Y-71301D01*
X99781Y-71478D01*
X99781Y-71648D01*
X99746Y-71680D01*
X99746Y-71226D01*
X99738Y-71209D01*
X102552Y-69662D01*
X102577Y-69641D01*
X102601Y-69627D01*
X102892Y-69367D01*
X102923Y-69379D01*
X103115Y-69380D01*
X103292Y-69306D01*
X103428Y-69171D01*
X103501Y-68993D01*
X103502Y-68802D01*
X103502Y-71204D01*
X103445Y-71341D01*
X103428Y-71301D01*
X103293Y-71166D01*
X103116Y-71092D01*
X102924Y-71092D01*
X102746Y-71165D01*
X102611Y-71301D01*
X102537Y-71478D01*
X102537Y-71670D01*
X102610Y-71847D01*
X102746Y-71983D01*
X102831Y-72018D01*
X101491Y-72731D01*
X101467Y-72750D01*
X101442Y-72767D01*
X101349Y-72859D01*
X101340Y-72874D01*
X101329Y-72884D01*
X101177Y-73092D01*
X101112Y-73092D01*
X100986Y-73144D01*
X100889Y-73241D01*
X100875Y-73273D01*
X100875Y-73038D01*
X100850Y-72976D01*
X100803Y-72929D01*
X100742Y-72903D01*
X100675Y-72903D01*
X99494Y-72903D01*
X99432Y-72929D01*
X99385Y-72976D01*
X99360Y-73037D01*
X99360Y-73098D01*
X99357Y-73091D01*
X99310Y-73044D01*
X99248Y-73018D01*
X99182Y-73018D01*
X98832Y-73018D01*
X98770Y-73043D01*
X98740Y-73074D01*
X98710Y-73044D01*
X98648Y-73018D01*
X98582Y-73018D01*
X98232Y-73018D01*
X98170Y-73043D01*
X98123Y-73090D01*
X98097Y-73152D01*
X98097Y-73218D01*
X98097Y-73252D01*
X98053Y-73282D01*
X97961Y-73374D01*
X97954Y-73385D01*
X97945Y-73393D01*
X97933Y-73416D01*
X97916Y-73441D01*
X97914Y-73454D01*
X97908Y-73465D01*
X97711Y-74170D01*
X97709Y-74198D01*
X97704Y-74226D01*
X97704Y-74608D01*
X97585Y-74489D01*
X97415Y-74419D01*
X97231Y-74418D01*
X97061Y-74489D01*
X96930Y-74619D01*
X96860Y-74789D01*
X96859Y-74973D01*
X96930Y-75143D01*
X97060Y-75274D01*
X97222Y-75341D01*
X97336Y-75804D01*
X97263Y-75789D01*
X97176Y-75807D01*
X97164Y-75814D01*
X97152Y-75807D01*
X97066Y-75789D01*
X96979Y-75807D01*
X96967Y-75814D01*
X96955Y-75807D01*
X96869Y-75789D01*
X96782Y-75807D01*
X96766Y-75817D01*
X96737Y-75807D01*
X96702Y-75841D01*
X96702Y-75865D01*
X96672Y-75910D01*
X96663Y-75896D01*
X96656Y-75860D01*
X96656Y-75859D01*
X96614Y-75601D01*
X96672Y-75577D01*
X96719Y-75530D01*
X96745Y-75469D01*
X96745Y-75402D01*
X96745Y-75052D01*
X96719Y-74990D01*
X96689Y-74960D01*
X96719Y-74930D01*
X96745Y-74868D01*
X96745Y-74452D01*
X96719Y-74390D01*
X96672Y-74343D01*
X96611Y-74318D01*
X96544Y-74318D01*
X96470Y-74318D01*
X96428Y-74360D01*
X96428Y-74609D01*
X96703Y-74609D01*
X96745Y-74568D01*
X96745Y-74452D01*
X96745Y-74868D01*
X96745Y-74753D01*
X96703Y-74711D01*
X96428Y-74711D01*
X96428Y-74719D01*
X96327Y-74719D01*
X96327Y-74711D01*
X96319Y-74711D01*
X96319Y-74609D01*
X96327Y-74609D01*
X96327Y-74360D01*
X96285Y-74318D01*
X96244Y-74318D01*
X96244Y-71729D01*
X96244Y-71474D01*
X96244Y-71372D01*
X96244Y-71118D01*
X96202Y-71076D01*
X96081Y-71076D01*
X96020Y-71101D01*
X95973Y-71148D01*
X95947Y-71210D01*
X95947Y-71276D01*
X95947Y-71331D01*
X95989Y-71372D01*
X96244Y-71372D01*
X96244Y-71474D01*
X95989Y-71474D01*
X95947Y-71516D01*
X95947Y-71570D01*
X95947Y-71637D01*
X95973Y-71698D01*
X96020Y-71745D01*
X96081Y-71770D01*
X96202Y-71770D01*
X96244Y-71729D01*
X96244Y-74318D01*
X96211Y-74318D01*
X96144Y-74318D01*
X96083Y-74343D01*
X96036Y-74390D01*
X96032Y-74398D01*
X96032Y-74398D01*
X96032Y-74352D01*
X95991Y-74352D01*
X96032Y-74310D01*
X96032Y-74145D01*
X96007Y-74083D01*
X95960Y-74036D01*
X95898Y-74010D01*
X95832Y-74010D01*
X95683Y-74010D01*
X95641Y-74052D01*
X95641Y-74352D01*
X95649Y-74352D01*
X95649Y-74453D01*
X95641Y-74453D01*
X95641Y-74753D01*
X95683Y-74795D01*
X95832Y-74795D01*
X95898Y-74795D01*
X95960Y-74769D01*
X96007Y-74722D01*
X96012Y-74711D01*
X96052Y-74711D01*
X96010Y-74753D01*
X96010Y-74868D01*
X96036Y-74930D01*
X96066Y-74960D01*
X96060Y-74966D01*
X96037Y-74958D01*
X96032Y-74958D01*
X96032Y-74945D01*
X96007Y-74883D01*
X95960Y-74836D01*
X95898Y-74810D01*
X95832Y-74810D01*
X95331Y-74810D01*
X95330Y-74795D01*
X95348Y-74795D01*
X95497Y-74795D01*
X95539Y-74753D01*
X95539Y-74453D01*
X95531Y-74453D01*
X95531Y-74352D01*
X95539Y-74352D01*
X95539Y-74052D01*
X95497Y-74010D01*
X95348Y-74010D01*
X95290Y-74010D01*
X95175Y-71736D01*
X95215Y-71719D01*
X95262Y-71672D01*
X95272Y-71698D01*
X95319Y-71745D01*
X95381Y-71770D01*
X95448Y-71770D01*
X95808Y-71770D01*
X95869Y-71745D01*
X95916Y-71698D01*
X95942Y-71637D01*
X95942Y-71570D01*
X95942Y-71210D01*
X95916Y-71148D01*
X95869Y-71101D01*
X95808Y-71076D01*
X95747Y-71076D01*
X95718Y-71032D01*
X95718Y-71032D01*
X95626Y-70939D01*
X95622Y-70937D01*
X95618Y-70932D01*
X95325Y-70666D01*
X95295Y-70648D01*
X95288Y-70644D01*
X95288Y-70594D01*
X95263Y-70532D01*
X95216Y-70485D01*
X95154Y-70460D01*
X95088Y-70460D01*
X95049Y-70460D01*
X95049Y-65679D01*
X94845Y-65183D01*
X94842Y-65178D01*
X94678Y-65038D01*
X93772Y-65944D01*
X94678Y-66850D01*
X94842Y-66711D01*
X95048Y-66216D01*
X95049Y-65679D01*
X95049Y-70460D01*
X94688Y-70460D01*
X94626Y-70485D01*
X94606Y-70505D01*
X94606Y-66922D01*
X93700Y-66016D01*
X92794Y-66922D01*
X92934Y-67086D01*
X93429Y-67292D01*
X93965Y-67293D01*
X94461Y-67089D01*
X94467Y-67086D01*
X94606Y-66922D01*
X94606Y-70505D01*
X94579Y-70532D01*
X94553Y-70593D01*
X94553Y-70660D01*
X94553Y-71010D01*
X94579Y-71072D01*
X94609Y-71102D01*
X94579Y-71132D01*
X94553Y-71193D01*
X94553Y-71260D01*
X94553Y-71610D01*
X94579Y-71672D01*
X94626Y-71719D01*
X94687Y-71744D01*
X94754Y-71744D01*
X94761Y-71744D01*
X94952Y-75503D01*
X94954Y-75513D01*
X94954Y-75529D01*
X95217Y-76989D01*
X93374Y-73934D01*
X93434Y-73789D01*
X93434Y-73613D01*
X93434Y-73613D01*
X93434Y-73008D01*
X93434Y-72392D01*
X93409Y-72331D01*
X93362Y-72284D01*
X93300Y-72258D01*
X93233Y-72258D01*
X93084Y-72258D01*
X93042Y-72300D01*
X93042Y-72650D01*
X93392Y-72650D01*
X93434Y-72608D01*
X93434Y-72392D01*
X93434Y-73008D01*
X93434Y-72793D01*
X93392Y-72751D01*
X93042Y-72751D01*
X93042Y-73101D01*
X93084Y-73143D01*
X93233Y-73143D01*
X93300Y-73143D01*
X93362Y-73117D01*
X93409Y-73070D01*
X93434Y-73008D01*
X93434Y-73613D01*
X93367Y-73450D01*
X93243Y-73326D01*
X93080Y-73258D01*
X92941Y-73258D01*
X92941Y-73101D01*
X92941Y-72751D01*
X92941Y-72650D01*
X92941Y-72300D01*
X92899Y-72258D01*
X92750Y-72258D01*
X92683Y-72258D01*
X92622Y-72284D01*
X92575Y-72331D01*
X92549Y-72392D01*
X92549Y-72608D01*
X92591Y-72650D01*
X92941Y-72650D01*
X92941Y-72751D01*
X92591Y-72751D01*
X92549Y-72793D01*
X92549Y-73008D01*
X92575Y-73070D01*
X92622Y-73117D01*
X92683Y-73143D01*
X92750Y-73143D01*
X92899Y-73143D01*
X92941Y-73101D01*
X92941Y-73258D01*
X92904Y-73258D01*
X92741Y-73325D01*
X92617Y-73449D01*
X92549Y-73612D01*
X92549Y-73788D01*
X92616Y-73951D01*
X92741Y-74075D01*
X92903Y-74143D01*
X93017Y-74143D01*
X93089Y-74262D01*
X93080Y-74258D01*
X92904Y-74258D01*
X92741Y-74325D01*
X92617Y-74449D01*
X92549Y-74612D01*
X92549Y-74788D01*
X92616Y-74951D01*
X92741Y-75075D01*
X92903Y-75143D01*
X93062Y-75143D01*
X93789Y-76126D01*
X93792Y-76128D01*
X94630Y-77299D01*
X93422Y-76176D01*
X93434Y-76147D01*
X93435Y-75971D01*
X93367Y-75808D01*
X93243Y-75683D01*
X93080Y-75616D01*
X92904Y-75616D01*
X92741Y-75683D01*
X92616Y-75807D01*
X92549Y-75970D01*
X92549Y-76146D01*
X92616Y-76309D01*
X92740Y-76434D01*
X92903Y-76501D01*
X93079Y-76501D01*
X93138Y-76477D01*
X94929Y-78141D01*
X94906Y-78141D01*
X94906Y-78183D01*
X94864Y-78141D01*
X94790Y-78141D01*
X94723Y-78141D01*
X94662Y-78167D01*
X94615Y-78214D01*
X94589Y-78276D01*
X94589Y-78391D01*
X94631Y-78433D01*
X94906Y-78433D01*
X94906Y-78425D01*
X95007Y-78425D01*
X95007Y-78433D01*
X95015Y-78433D01*
X95015Y-78535D01*
X95007Y-78535D01*
X95007Y-78542D01*
X94906Y-78542D01*
X94906Y-78535D01*
X94631Y-78535D01*
X94589Y-78576D01*
X94589Y-78692D01*
X94615Y-78753D01*
X94645Y-78784D01*
X94615Y-78814D01*
X94589Y-78875D01*
X94589Y-78942D01*
X94589Y-79142D01*
X93440Y-78168D01*
X93440Y-77114D01*
X93427Y-76938D01*
X93384Y-76836D01*
X93315Y-76807D01*
X93243Y-76879D01*
X93243Y-76735D01*
X93214Y-76666D01*
X93047Y-76610D01*
X92871Y-76623D01*
X92769Y-76666D01*
X92740Y-76735D01*
X92992Y-76987D01*
X93243Y-76735D01*
X93243Y-76879D01*
X93063Y-77059D01*
X93315Y-77310D01*
X93384Y-77281D01*
X93440Y-77114D01*
X93440Y-78168D01*
X93429Y-78159D01*
X93434Y-78147D01*
X93435Y-77971D01*
X93367Y-77808D01*
X93243Y-77684D01*
X93243Y-77382D01*
X92992Y-77130D01*
X92920Y-77202D01*
X92920Y-77059D01*
X92668Y-76807D01*
X92599Y-76836D01*
X92544Y-77003D01*
X92556Y-77179D01*
X92599Y-77281D01*
X92668Y-77310D01*
X92920Y-77059D01*
X92920Y-77202D01*
X92740Y-77382D01*
X92769Y-77451D01*
X92936Y-77507D01*
X93112Y-77494D01*
X93214Y-77451D01*
X93243Y-77382D01*
X93243Y-77684D01*
X93243Y-77683D01*
X93080Y-77616D01*
X92904Y-77616D01*
X92741Y-77683D01*
X92616Y-77807D01*
X92549Y-77970D01*
X92549Y-78146D01*
X92616Y-78309D01*
X92740Y-78434D01*
X92903Y-78501D01*
X93079Y-78501D01*
X93157Y-78470D01*
X93356Y-78639D01*
X93301Y-78616D01*
X93234Y-78616D01*
X92683Y-78616D01*
X92621Y-78641D01*
X92574Y-78688D01*
X92549Y-78750D01*
X92549Y-78816D01*
X92549Y-79367D01*
X92574Y-79429D01*
X92621Y-79476D01*
X92683Y-79501D01*
X92749Y-79501D01*
X93300Y-79501D01*
X93362Y-79476D01*
X93409Y-79429D01*
X93434Y-79367D01*
X93434Y-79301D01*
X93434Y-78750D01*
X93409Y-78688D01*
X93378Y-78657D01*
X94829Y-79887D01*
X94838Y-79892D01*
X94862Y-79913D01*
X94890Y-79922D01*
X94899Y-79927D01*
X94910Y-79928D01*
X94939Y-79937D01*
X95240Y-79969D01*
X95252Y-79968D01*
X95262Y-79970D01*
X95540Y-79970D01*
X95544Y-79969D01*
X95548Y-79970D01*
X96381Y-79935D01*
X96389Y-79941D01*
X96432Y-79949D01*
X95447Y-80924D01*
X95447Y-80924D01*
X95446Y-80924D01*
X95354Y-81017D01*
X95324Y-81061D01*
X95174Y-81061D01*
X95113Y-81086D01*
X95066Y-81133D01*
X95048Y-81176D01*
X95049Y-80640D01*
X94845Y-80144D01*
X94842Y-80139D01*
X94678Y-79999D01*
X94606Y-80071D01*
X94606Y-79927D01*
X94467Y-79764D01*
X93972Y-79557D01*
X93435Y-79556D01*
X92939Y-79760D01*
X92934Y-79764D01*
X92794Y-79927D01*
X93700Y-80833D01*
X94606Y-79927D01*
X94606Y-80071D01*
X93772Y-80905D01*
X94678Y-81811D01*
X94842Y-81671D01*
X95040Y-81195D01*
X95040Y-81261D01*
X95040Y-81647D01*
X95043Y-81653D01*
X95040Y-81659D01*
X95040Y-81792D01*
X95082Y-81834D01*
X95382Y-81834D01*
X95382Y-81826D01*
X95483Y-81826D01*
X95483Y-81834D01*
X95712Y-81834D01*
X95783Y-81834D01*
X96012Y-81834D01*
X96012Y-81826D01*
X96113Y-81826D01*
X96113Y-81834D01*
X96342Y-81834D01*
X96413Y-81834D01*
X96642Y-81834D01*
X96642Y-81826D01*
X96743Y-81826D01*
X96743Y-81834D01*
X96972Y-81834D01*
X97043Y-81834D01*
X97272Y-81834D01*
X97272Y-81826D01*
X97373Y-81826D01*
X97373Y-81834D01*
X97602Y-81834D01*
X97673Y-81834D01*
X97901Y-81834D01*
X97901Y-81826D01*
X98003Y-81826D01*
X98003Y-81834D01*
X98232Y-81834D01*
X98303Y-81834D01*
X98531Y-81834D01*
X98531Y-81826D01*
X98633Y-81826D01*
X98633Y-81834D01*
X98862Y-81834D01*
X98933Y-81834D01*
X99161Y-81834D01*
X99161Y-81826D01*
X99263Y-81826D01*
X99263Y-81834D01*
X99563Y-81834D01*
X99604Y-81792D01*
X99604Y-81659D01*
X99602Y-81653D01*
X99604Y-81647D01*
X99604Y-81581D01*
X99604Y-81195D01*
X99579Y-81133D01*
X99532Y-81086D01*
X99471Y-81061D01*
X99404Y-81061D01*
X99320Y-81061D01*
X99318Y-81058D01*
X99305Y-81033D01*
X99148Y-80839D01*
X99435Y-80839D01*
X99497Y-80814D01*
X99527Y-80784D01*
X99557Y-80814D01*
X99619Y-80839D01*
X99734Y-80839D01*
X99776Y-80797D01*
X99776Y-80523D01*
X99768Y-80523D01*
X99768Y-80421D01*
X99776Y-80421D01*
X99776Y-80146D01*
X99734Y-80105D01*
X99619Y-80105D01*
X99557Y-80130D01*
X99527Y-80160D01*
X99514Y-80147D01*
X99632Y-79669D01*
X99711Y-79590D01*
X99711Y-79656D01*
X99753Y-79698D01*
X100027Y-79698D01*
X100027Y-79690D01*
X100129Y-79690D01*
X100129Y-79698D01*
X100404Y-79698D01*
X100446Y-79656D01*
X100446Y-79540D01*
X100437Y-79519D01*
X100956Y-80403D01*
X100964Y-80412D01*
X100970Y-80425D01*
X101655Y-81366D01*
X101671Y-81380D01*
X101682Y-81397D01*
X101809Y-81524D01*
X101809Y-81524D01*
X101867Y-81562D01*
X101895Y-81581D01*
X101895Y-81581D01*
X101919Y-81586D01*
X101919Y-81603D01*
X101945Y-81664D01*
X101992Y-81711D01*
X102053Y-81737D01*
X102120Y-81737D01*
X102670Y-81737D01*
X102731Y-81711D01*
X102747Y-81696D01*
X102765Y-81707D01*
X102780Y-81711D01*
X102795Y-81718D01*
X102832Y-81721D01*
X102866Y-81728D01*
X103032Y-81728D01*
X103134Y-81707D01*
X103134Y-81707D01*
X103220Y-81650D01*
X103337Y-81533D01*
X103337Y-81533D01*
X103337Y-81533D01*
X103395Y-81446D01*
X103395Y-81446D01*
X103399Y-81422D01*
X103444Y-81404D01*
X103491Y-81357D01*
X103493Y-81353D01*
X103514Y-81353D01*
X103516Y-81357D01*
X103563Y-81404D01*
X103624Y-81429D01*
X103691Y-81429D01*
X104091Y-81429D01*
X104152Y-81404D01*
X104200Y-81357D01*
X104201Y-81353D01*
X104223Y-81353D01*
X104224Y-81357D01*
X104272Y-81404D01*
X104333Y-81429D01*
X104400Y-81429D01*
X104800Y-81429D01*
X104861Y-81404D01*
X104908Y-81357D01*
X104910Y-81353D01*
X105046Y-81353D01*
X105071Y-81411D01*
X105118Y-81458D01*
X105179Y-81484D01*
X105246Y-81484D01*
X105446Y-81484D01*
X105507Y-81458D01*
X105554Y-81411D01*
X105580Y-81350D01*
X105580Y-81349D01*
X105623Y-81414D01*
X105710Y-81472D01*
X105812Y-81493D01*
X105915Y-81472D01*
X106002Y-81414D01*
X106059Y-81328D01*
X106063Y-81311D01*
X106085Y-81365D01*
X106159Y-81441D01*
X106222Y-81468D01*
X106262Y-81436D01*
X106262Y-81072D01*
X106254Y-81072D01*
X106254Y-80970D01*
X106262Y-80970D01*
X106262Y-80605D01*
X106222Y-80574D01*
X106159Y-80600D01*
X106085Y-80676D01*
X106063Y-80731D01*
X106059Y-80714D01*
X106002Y-80627D01*
X105915Y-80569D01*
X105812Y-80549D01*
X105710Y-80569D01*
X105623Y-80627D01*
X105580Y-80692D01*
X105580Y-80692D01*
X105554Y-80631D01*
X105507Y-80583D01*
X105446Y-80558D01*
X105379Y-80558D01*
X105179Y-80558D01*
X105118Y-80583D01*
X105071Y-80630D01*
X105045Y-80692D01*
X105045Y-80758D01*
X105045Y-80821D01*
X104910Y-80821D01*
X104908Y-80817D01*
X104878Y-80787D01*
X104908Y-80757D01*
X104934Y-80695D01*
X104934Y-80645D01*
X104978Y-80616D01*
X105070Y-80523D01*
X105082Y-80505D01*
X105097Y-80490D01*
X105887Y-79278D01*
X105915Y-79272D01*
X106002Y-79214D01*
X106059Y-79128D01*
X106062Y-79112D01*
X106066Y-79128D01*
X106123Y-79214D01*
X106210Y-79272D01*
X106312Y-79293D01*
X106415Y-79272D01*
X106502Y-79214D01*
X106559Y-79128D01*
X106562Y-79112D01*
X106566Y-79128D01*
X106623Y-79214D01*
X106710Y-79272D01*
X106812Y-79293D01*
X106915Y-79272D01*
X107002Y-79214D01*
X107059Y-79128D01*
X107080Y-79025D01*
X107080Y-78616D01*
X107059Y-78514D01*
X107002Y-78427D01*
X106915Y-78369D01*
X106812Y-78349D01*
X106710Y-78369D01*
X106623Y-78427D01*
X106566Y-78514D01*
X106562Y-78529D01*
X106559Y-78514D01*
X106502Y-78427D01*
X106415Y-78369D01*
X106312Y-78349D01*
X106210Y-78369D01*
X106170Y-78396D01*
X106170Y-72991D01*
X106170Y-72657D01*
X106170Y-72590D01*
X106144Y-72529D01*
X106097Y-72482D01*
X106036Y-72457D01*
X105920Y-72457D01*
X105878Y-72498D01*
X105878Y-72773D01*
X106128Y-72773D01*
X106170Y-72731D01*
X106170Y-72657D01*
X106170Y-72991D01*
X106170Y-72917D01*
X106128Y-72875D01*
X105878Y-72875D01*
X105878Y-73149D01*
X105920Y-73191D01*
X106036Y-73191D01*
X106097Y-73166D01*
X106144Y-73119D01*
X106170Y-73057D01*
X106170Y-72991D01*
X106170Y-78396D01*
X106123Y-78427D01*
X106066Y-78514D01*
X106062Y-78529D01*
X106059Y-78514D01*
X106002Y-78427D01*
X105915Y-78369D01*
X105812Y-78349D01*
X105710Y-78369D01*
X105683Y-78388D01*
X105683Y-76508D01*
X105675Y-76207D01*
X105575Y-75965D01*
X105473Y-75898D01*
X105401Y-75970D01*
X105401Y-75826D01*
X105333Y-75724D01*
X105052Y-75616D01*
X104750Y-75624D01*
X104509Y-75724D01*
X104441Y-75826D01*
X104921Y-76306D01*
X105401Y-75826D01*
X105401Y-75970D01*
X104993Y-76377D01*
X105473Y-76857D01*
X105575Y-76790D01*
X105683Y-76508D01*
X105683Y-78388D01*
X105623Y-78427D01*
X105566Y-78514D01*
X105562Y-78529D01*
X105559Y-78514D01*
X105502Y-78427D01*
X105415Y-78369D01*
X105401Y-78366D01*
X105401Y-76929D01*
X104921Y-76449D01*
X104849Y-76521D01*
X104849Y-76377D01*
X104370Y-75898D01*
X104268Y-75965D01*
X104160Y-76247D01*
X104168Y-76548D01*
X104268Y-76790D01*
X104370Y-76857D01*
X104849Y-76377D01*
X104849Y-76521D01*
X104441Y-76929D01*
X104509Y-77031D01*
X104791Y-77139D01*
X105092Y-77131D01*
X105333Y-77031D01*
X105401Y-76929D01*
X105401Y-78366D01*
X105312Y-78349D01*
X105210Y-78369D01*
X105123Y-78427D01*
X105066Y-78514D01*
X105061Y-78538D01*
X104910Y-78538D01*
X104908Y-78534D01*
X104878Y-78503D01*
X104908Y-78473D01*
X104934Y-78412D01*
X104934Y-77995D01*
X104908Y-77934D01*
X104861Y-77887D01*
X104800Y-77861D01*
X104733Y-77861D01*
X104659Y-77861D01*
X104617Y-77903D01*
X104617Y-78153D01*
X104892Y-78153D01*
X104934Y-78111D01*
X104934Y-77995D01*
X104934Y-78412D01*
X104934Y-78296D01*
X104892Y-78254D01*
X104617Y-78254D01*
X104617Y-78262D01*
X104516Y-78262D01*
X104516Y-78254D01*
X104516Y-78153D01*
X104516Y-77903D01*
X104474Y-77861D01*
X104400Y-77861D01*
X104333Y-77861D01*
X104272Y-77887D01*
X104224Y-77934D01*
X104212Y-77964D01*
X104200Y-77934D01*
X104153Y-77887D01*
X104091Y-77861D01*
X104025Y-77861D01*
X103950Y-77861D01*
X103909Y-77903D01*
X103909Y-78153D01*
X104183Y-78153D01*
X104212Y-78124D01*
X104241Y-78153D01*
X104516Y-78153D01*
X104516Y-78254D01*
X104241Y-78254D01*
X104212Y-78283D01*
X104183Y-78254D01*
X103909Y-78254D01*
X103909Y-78262D01*
X103807Y-78262D01*
X103807Y-78254D01*
X103807Y-78153D01*
X103807Y-77903D01*
X103765Y-77861D01*
X103691Y-77861D01*
X103624Y-77861D01*
X103563Y-77887D01*
X103516Y-77934D01*
X103503Y-77964D01*
X103491Y-77934D01*
X103444Y-77887D01*
X103383Y-77861D01*
X103316Y-77861D01*
X103242Y-77861D01*
X103200Y-77903D01*
X103200Y-78153D01*
X103475Y-78153D01*
X103503Y-78124D01*
X103532Y-78153D01*
X103807Y-78153D01*
X103807Y-78254D01*
X103532Y-78254D01*
X103503Y-78283D01*
X103475Y-78254D01*
X103200Y-78254D01*
X103200Y-78262D01*
X103098Y-78262D01*
X103098Y-78254D01*
X103098Y-78153D01*
X103098Y-77903D01*
X103056Y-77861D01*
X103001Y-77861D01*
X103001Y-75242D01*
X103001Y-74678D01*
X103001Y-74611D01*
X102983Y-74566D01*
X103001Y-74521D01*
X103001Y-74455D01*
X103001Y-73891D01*
X103001Y-73824D01*
X102983Y-73779D01*
X103001Y-73734D01*
X103001Y-73668D01*
X103001Y-73104D01*
X103001Y-73037D01*
X102976Y-72976D01*
X102929Y-72929D01*
X102867Y-72903D01*
X102336Y-72903D01*
X102294Y-72945D01*
X102294Y-73335D01*
X102960Y-73335D01*
X103001Y-73293D01*
X103001Y-73104D01*
X103001Y-73668D01*
X103001Y-73478D01*
X102960Y-73437D01*
X102294Y-73437D01*
X102294Y-73732D01*
X102294Y-73826D01*
X102294Y-74122D01*
X102960Y-74122D01*
X103001Y-74080D01*
X103001Y-73891D01*
X103001Y-74455D01*
X103001Y-74265D01*
X102960Y-74224D01*
X102294Y-74224D01*
X102294Y-74519D01*
X102294Y-74613D01*
X102294Y-74909D01*
X102960Y-74909D01*
X103001Y-74867D01*
X103001Y-74678D01*
X103001Y-75242D01*
X103001Y-75052D01*
X102960Y-75011D01*
X102294Y-75011D01*
X102294Y-75400D01*
X102336Y-75442D01*
X102867Y-75442D01*
X102929Y-75417D01*
X102976Y-75370D01*
X103001Y-75308D01*
X103001Y-75242D01*
X103001Y-77861D01*
X102982Y-77861D01*
X102916Y-77861D01*
X102854Y-77887D01*
X102809Y-77932D01*
X102809Y-77752D01*
X102809Y-77438D01*
X102767Y-77396D01*
X102457Y-77396D01*
X102457Y-77845D01*
X102498Y-77886D01*
X102609Y-77886D01*
X102675Y-77886D01*
X102737Y-77861D01*
X102784Y-77814D01*
X102809Y-77752D01*
X102809Y-77932D01*
X102807Y-77934D01*
X102782Y-77995D01*
X102782Y-78111D01*
X102824Y-78153D01*
X103098Y-78153D01*
X103098Y-78254D01*
X102824Y-78254D01*
X102782Y-78296D01*
X102782Y-78331D01*
X102737Y-78285D01*
X102675Y-78260D01*
X102609Y-78260D01*
X102355Y-78260D01*
X102355Y-77845D01*
X102355Y-77396D01*
X102044Y-77396D01*
X102002Y-77438D01*
X102002Y-77752D01*
X102028Y-77814D01*
X102075Y-77861D01*
X102136Y-77886D01*
X102203Y-77886D01*
X102313Y-77886D01*
X102355Y-77845D01*
X102355Y-78260D01*
X102137Y-78260D01*
X102118Y-78268D01*
X102110Y-78255D01*
X102093Y-78236D01*
X102079Y-78216D01*
X101987Y-78123D01*
X101927Y-78084D01*
X101926Y-78083D01*
X101926Y-78082D01*
X101920Y-78079D01*
X101841Y-78063D01*
X101836Y-78064D01*
X101233Y-78045D01*
X101233Y-78000D01*
X101233Y-77871D01*
X101270Y-77886D01*
X101337Y-77886D01*
X101809Y-77886D01*
X101870Y-77861D01*
X101917Y-77814D01*
X101943Y-77753D01*
X101943Y-77686D01*
X101943Y-76938D01*
X101918Y-76876D01*
X101899Y-76858D01*
X101942Y-76840D01*
X101973Y-76810D01*
X102003Y-76840D01*
X102046Y-76858D01*
X102028Y-76876D01*
X102002Y-76938D01*
X102002Y-77253D01*
X102044Y-77294D01*
X102355Y-77294D01*
X102355Y-77286D01*
X102457Y-77286D01*
X102457Y-77294D01*
X102767Y-77294D01*
X102809Y-77253D01*
X102809Y-76938D01*
X102784Y-76876D01*
X102737Y-76829D01*
X102675Y-76804D01*
X102609Y-76804D01*
X102579Y-76804D01*
X102589Y-76793D01*
X102615Y-76732D01*
X102615Y-76665D01*
X102615Y-76331D01*
X102615Y-76265D01*
X102589Y-76203D01*
X102542Y-76156D01*
X102481Y-76131D01*
X102365Y-76131D01*
X102324Y-76173D01*
X102324Y-76448D01*
X102573Y-76448D01*
X102615Y-76406D01*
X102615Y-76331D01*
X102615Y-76665D01*
X102615Y-76591D01*
X102573Y-76549D01*
X102324Y-76549D01*
X102324Y-76557D01*
X102222Y-76557D01*
X102222Y-76549D01*
X102214Y-76549D01*
X102214Y-76448D01*
X102222Y-76448D01*
X102222Y-76173D01*
X102193Y-76144D01*
X102193Y-75400D01*
X102193Y-75011D01*
X102193Y-74909D01*
X102193Y-74613D01*
X102193Y-74519D01*
X102193Y-74224D01*
X101781Y-74224D01*
X101531Y-74224D01*
X101528Y-74224D01*
X101486Y-74265D01*
X101486Y-74455D01*
X101486Y-74521D01*
X101505Y-74566D01*
X101486Y-74611D01*
X101486Y-74678D01*
X101486Y-74867D01*
X101528Y-74909D01*
X102193Y-74909D01*
X102193Y-75011D01*
X101528Y-75011D01*
X101486Y-75052D01*
X101486Y-75242D01*
X101486Y-75308D01*
X101511Y-75370D01*
X101558Y-75417D01*
X101620Y-75442D01*
X102151Y-75442D01*
X102193Y-75400D01*
X102193Y-76144D01*
X102180Y-76131D01*
X102065Y-76131D01*
X102003Y-76156D01*
X101973Y-76187D01*
X101943Y-76157D01*
X101881Y-76131D01*
X101815Y-76131D01*
X101465Y-76131D01*
X101403Y-76156D01*
X101356Y-76203D01*
X101330Y-76265D01*
X101330Y-76331D01*
X101330Y-76731D01*
X101356Y-76793D01*
X101367Y-76804D01*
X101271Y-76804D01*
X101209Y-76829D01*
X101162Y-76876D01*
X101139Y-76933D01*
X101099Y-76916D01*
X101033Y-76916D01*
X100633Y-76916D01*
X100571Y-76942D01*
X100524Y-76989D01*
X100518Y-77004D01*
X100499Y-76959D01*
X100469Y-76929D01*
X100499Y-76898D01*
X100524Y-76837D01*
X100524Y-76420D01*
X100499Y-76359D01*
X100452Y-76312D01*
X100390Y-76286D01*
X100324Y-76286D01*
X100250Y-76286D01*
X100208Y-76328D01*
X100208Y-76578D01*
X100482Y-76578D01*
X100524Y-76536D01*
X100524Y-76420D01*
X100524Y-76837D01*
X100524Y-76721D01*
X100482Y-76679D01*
X100208Y-76679D01*
X100208Y-76687D01*
X100106Y-76687D01*
X100106Y-76679D01*
X100098Y-76679D01*
X100098Y-76578D01*
X100106Y-76578D01*
X100106Y-76328D01*
X100064Y-76286D01*
X99990Y-76286D01*
X99924Y-76286D01*
X99862Y-76312D01*
X99815Y-76359D01*
X99790Y-76420D01*
X99790Y-76536D01*
X99831Y-76578D01*
X99790Y-76578D01*
X99790Y-76619D01*
X99787Y-76615D01*
X99783Y-76604D01*
X99213Y-75648D01*
X99196Y-75629D01*
X99182Y-75608D01*
X98902Y-75327D01*
X99248Y-75327D01*
X99309Y-75302D01*
X99356Y-75255D01*
X99360Y-75247D01*
X99360Y-75308D01*
X99385Y-75369D01*
X99432Y-75416D01*
X99494Y-75442D01*
X99560Y-75442D01*
X100741Y-75442D01*
X100803Y-75417D01*
X100850Y-75370D01*
X100875Y-75308D01*
X100875Y-75242D01*
X100875Y-74612D01*
X100857Y-74566D01*
X100868Y-74540D01*
X101089Y-74540D01*
X101150Y-74515D01*
X101181Y-74484D01*
X101211Y-74515D01*
X101272Y-74540D01*
X101388Y-74540D01*
X101430Y-74498D01*
X101430Y-74224D01*
X101422Y-74224D01*
X101422Y-74122D01*
X101430Y-74122D01*
X101430Y-73847D01*
X101388Y-73805D01*
X101272Y-73805D01*
X101211Y-73831D01*
X101181Y-73861D01*
X101151Y-73831D01*
X101089Y-73805D01*
X101022Y-73805D01*
X100868Y-73805D01*
X100857Y-73779D01*
X100875Y-73734D01*
X100875Y-73668D01*
X100875Y-73600D01*
X100888Y-73631D01*
X100985Y-73728D01*
X101112Y-73781D01*
X101249Y-73781D01*
X101375Y-73729D01*
X101472Y-73632D01*
X101486Y-73600D01*
X101486Y-73668D01*
X101486Y-73734D01*
X101505Y-73779D01*
X101486Y-73824D01*
X101486Y-73891D01*
X101486Y-74080D01*
X101528Y-74122D01*
X101531Y-74122D01*
X101781Y-74122D01*
X102193Y-74122D01*
X102193Y-73826D01*
X102193Y-73732D01*
X102193Y-73437D01*
X102185Y-73437D01*
X102185Y-73335D01*
X102193Y-73335D01*
X102193Y-72945D01*
X102151Y-72903D01*
X102047Y-72903D01*
X103312Y-72230D01*
X103345Y-72203D01*
X103361Y-72193D01*
X103374Y-72180D01*
X103375Y-72179D01*
X103375Y-72179D01*
X103638Y-71916D01*
X103638Y-71916D01*
X103638Y-71916D01*
X103660Y-71882D01*
X103683Y-71849D01*
X103683Y-71849D01*
X103683Y-71849D01*
X104656Y-69487D01*
X104789Y-69432D01*
X104885Y-69336D01*
X104885Y-69356D01*
X104911Y-69418D01*
X104958Y-69465D01*
X104988Y-69477D01*
X104958Y-69490D01*
X104911Y-69537D01*
X104885Y-69598D01*
X104885Y-69665D01*
X104885Y-69739D01*
X104927Y-69781D01*
X105177Y-69781D01*
X105177Y-69773D01*
X105278Y-69773D01*
X105278Y-69781D01*
X105286Y-69781D01*
X105286Y-69883D01*
X105278Y-69883D01*
X105278Y-69890D01*
X105177Y-69890D01*
X105177Y-69883D01*
X104927Y-69883D01*
X104885Y-69924D01*
X104885Y-69999D01*
X104885Y-70065D01*
X104911Y-70127D01*
X104958Y-70174D01*
X104988Y-70186D01*
X104958Y-70199D01*
X104911Y-70246D01*
X104892Y-70290D01*
X104868Y-70295D01*
X104782Y-70353D01*
X104782Y-70353D01*
X104782Y-70353D01*
X104665Y-70470D01*
X104633Y-70516D01*
X104609Y-70550D01*
X104609Y-70553D01*
X104607Y-70556D01*
X104596Y-70612D01*
X104587Y-70652D01*
X104587Y-70657D01*
X104587Y-70658D01*
X104587Y-70658D01*
X104585Y-70726D01*
X104554Y-70757D01*
X104502Y-70883D01*
X104501Y-71020D01*
X104554Y-71147D01*
X104645Y-71238D01*
X104644Y-71240D01*
X104624Y-71338D01*
X104644Y-71435D01*
X104664Y-71466D01*
X104644Y-71496D01*
X104624Y-71594D01*
X104644Y-71691D01*
X104664Y-71722D01*
X104644Y-71752D01*
X104624Y-71850D01*
X104644Y-71947D01*
X104664Y-71978D01*
X104644Y-72008D01*
X104624Y-72106D01*
X104644Y-72203D01*
X104699Y-72286D01*
X104782Y-72342D01*
X104880Y-72361D01*
X104975Y-72361D01*
X104993Y-72468D01*
X104958Y-72482D01*
X104911Y-72529D01*
X104892Y-72574D01*
X104868Y-72578D01*
X104782Y-72636D01*
X104782Y-72636D01*
X104782Y-72636D01*
X104665Y-72753D01*
X104663Y-72755D01*
X104660Y-72757D01*
X104623Y-72797D01*
X104593Y-72797D01*
X104466Y-72849D01*
X104369Y-72946D01*
X104316Y-73072D01*
X104316Y-73209D01*
X104369Y-73336D01*
X104466Y-73433D01*
X104592Y-73486D01*
X104729Y-73486D01*
X104856Y-73433D01*
X104953Y-73337D01*
X105005Y-73210D01*
X105005Y-73186D01*
X105019Y-73191D01*
X105086Y-73191D01*
X105436Y-73191D01*
X105497Y-73166D01*
X105527Y-73136D01*
X105558Y-73166D01*
X105619Y-73191D01*
X105735Y-73191D01*
X105777Y-73149D01*
X105777Y-72875D01*
X105769Y-72875D01*
X105769Y-72773D01*
X105777Y-72773D01*
X105777Y-72498D01*
X105735Y-72457D01*
X105619Y-72457D01*
X105558Y-72482D01*
X105527Y-72512D01*
X105497Y-72482D01*
X105436Y-72457D01*
X105410Y-72457D01*
X105372Y-72226D01*
X105387Y-72203D01*
X105407Y-72106D01*
X105387Y-72008D01*
X105367Y-71978D01*
X105387Y-71947D01*
X105407Y-71850D01*
X105387Y-71752D01*
X105367Y-71722D01*
X105387Y-71691D01*
X105407Y-71594D01*
X105387Y-71496D01*
X105367Y-71466D01*
X105387Y-71435D01*
X105407Y-71338D01*
X105387Y-71240D01*
X105332Y-71157D01*
X105249Y-71101D01*
X105164Y-71084D01*
X105190Y-71021D01*
X105190Y-70908D01*
X105436Y-70908D01*
X105497Y-70882D01*
X105527Y-70852D01*
X105558Y-70882D01*
X105619Y-70908D01*
X105686Y-70908D01*
X106036Y-70908D01*
X106038Y-70907D01*
X106117Y-71082D01*
X106090Y-71082D01*
X106090Y-71293D01*
X106098Y-71293D01*
X106098Y-71338D01*
X105989Y-71338D01*
X105989Y-71293D01*
X105989Y-71082D01*
X105861Y-71082D01*
X105767Y-71121D01*
X105695Y-71193D01*
X105670Y-71254D01*
X105702Y-71293D01*
X105989Y-71293D01*
X105989Y-71338D01*
X105904Y-71338D01*
X105806Y-71357D01*
X105769Y-71382D01*
X105702Y-71382D01*
X105670Y-71421D01*
X105688Y-71466D01*
X105668Y-71496D01*
X105648Y-71594D01*
X105668Y-71691D01*
X105688Y-71722D01*
X105668Y-71752D01*
X105648Y-71850D01*
X105668Y-71947D01*
X105669Y-71950D01*
X105656Y-71984D01*
X105656Y-72050D01*
X105656Y-72227D01*
X105681Y-72289D01*
X105728Y-72336D01*
X105790Y-72361D01*
X105856Y-72361D01*
X106289Y-72361D01*
X106351Y-72336D01*
X106360Y-72326D01*
X107037Y-72437D01*
X107037Y-72828D01*
X107062Y-72889D01*
X107109Y-72937D01*
X107171Y-72962D01*
X107237Y-72962D01*
X107946Y-72962D01*
X108008Y-72937D01*
X108055Y-72890D01*
X108080Y-72828D01*
X108080Y-72762D01*
X108080Y-72647D01*
X108195Y-72647D01*
X108297Y-72749D01*
X108431Y-72805D01*
X108576Y-72805D01*
X108710Y-72749D01*
X108812Y-72647D01*
X108868Y-72513D01*
X108868Y-72368D01*
X108868Y-73612D01*
X108551Y-73611D01*
X108200Y-73757D01*
X107931Y-74025D01*
X107785Y-74376D01*
X107785Y-74756D01*
X107930Y-75107D01*
X108199Y-75375D01*
X108549Y-75521D01*
X108929Y-75521D01*
X109280Y-75376D01*
X109549Y-75108D01*
X109695Y-74757D01*
X109695Y-74377D01*
X109695Y-77999D01*
X109550Y-77648D01*
X109282Y-77379D01*
X108931Y-77234D01*
X108551Y-77233D01*
X108200Y-77379D01*
X107931Y-77647D01*
X107844Y-77857D01*
X107844Y-76935D01*
X107844Y-75754D01*
X107819Y-75692D01*
X107772Y-75645D01*
X107710Y-75620D01*
X107643Y-75620D01*
X106462Y-75620D01*
X106401Y-75645D01*
X106354Y-75692D01*
X106328Y-75754D01*
X106328Y-75820D01*
X106328Y-77001D01*
X106354Y-77063D01*
X106401Y-77110D01*
X106462Y-77135D01*
X106529Y-77135D01*
X107710Y-77135D01*
X107771Y-77110D01*
X107818Y-77063D01*
X107844Y-77001D01*
X107844Y-76935D01*
X107844Y-77857D01*
X107785Y-77998D01*
X107785Y-78378D01*
X107930Y-78729D01*
X108199Y-78997D01*
X108549Y-79143D01*
X108929Y-79143D01*
X109280Y-78998D01*
X109549Y-78730D01*
X109695Y-78379D01*
X109695Y-77999D01*
X109695Y-80047D01*
X109639Y-79999D01*
X109567Y-80071D01*
X109567Y-79927D01*
X109427Y-79764D01*
X108932Y-79557D01*
X108396Y-79556D01*
X107900Y-79760D01*
X107895Y-79764D01*
X107755Y-79927D01*
X108661Y-80833D01*
X109567Y-79927D01*
X109567Y-80071D01*
X108733Y-80905D01*
X109639Y-81811D01*
X109802Y-81671D01*
X109842Y-81576D01*
X109842Y-82086D01*
M02*
