G04 (created by PCBNEW (2013-05-16 BZR 4016)-stable) date 03/07/2013 13:28:14*
%MOIN*%
G04 Gerber Fmt 3.4, Leading zero omitted, Abs format*
%FSLAX34Y34*%
G01*
G70*
G90*
G04 APERTURE LIST*
%ADD10C,0.00590551*%
%ADD11R,0.039374X0.078774*%
%ADD12C,0.047274*%
%ADD13R,0.0787402X0.0787402*%
%ADD14C,0.0787402*%
%ADD15R,0.051174X0.025574*%
%ADD16O,0.051174X0.025574*%
%ADD17R,0.043874X0.043874*%
%ADD18O,0.027874X0.066974*%
%ADD19R,0.027874X0.066974*%
%ADD20R,0.052874X0.046474*%
%ADD21R,0.062974X0.062974*%
%ADD22C,0.062974*%
%ADD23R,0.062874X0.062874*%
%ADD24C,0.062874*%
%ADD25C,0.066974*%
%ADD26R,0.047874X0.042874*%
%ADD27R,0.042874X0.047874*%
%ADD28R,0.055074X0.019674*%
%ADD29O,0.055074X0.019674*%
%ADD30O,0.019674X0.055074*%
%ADD31R,0.125974X0.070874*%
%ADD32R,0.055074X0.082674*%
%ADD33C,0.125974*%
%ADD34R,0.125974X0.125974*%
%ADD35C,0.165374*%
%ADD36R,0.062874X0.052874*%
%ADD37R,0.059074X0.059074*%
%ADD38C,0.059074*%
%ADD39R,0.0708661X0.0708661*%
%ADD40C,0.0708661*%
%ADD41C,0.244074*%
%ADD42R,0.067874X0.067874*%
%ADD43C,0.067874*%
%ADD44R,0.052874X0.062874*%
%ADD45R,0.046474X0.052874*%
G04 APERTURE END LIST*
G54D10*
G54D11*
X101588Y-66062D03*
X102088Y-66062D03*
X101088Y-66062D03*
X100588Y-66062D03*
G54D12*
X104583Y-69123D03*
X108503Y-72440D03*
G54D13*
X107559Y-72440D03*
G54D14*
X107559Y-71574D03*
X107559Y-70708D03*
G54D15*
X106039Y-72106D03*
G54D16*
X106039Y-71850D03*
X106039Y-71594D03*
X105015Y-72106D03*
X105015Y-71338D03*
X105015Y-71594D03*
X106039Y-71338D03*
X105015Y-71850D03*
G54D17*
X108775Y-68510D03*
X108075Y-68510D03*
X108425Y-67710D03*
X96294Y-71423D03*
X95594Y-71423D03*
X95944Y-70623D03*
G54D18*
X105312Y-78821D03*
G54D19*
X105312Y-81021D03*
G54D18*
X105812Y-78821D03*
X106312Y-78821D03*
X106812Y-78821D03*
X105812Y-81021D03*
X106312Y-81021D03*
X106812Y-81021D03*
G54D20*
X95433Y-81421D03*
X95433Y-81885D03*
X97952Y-81421D03*
X97952Y-81885D03*
X97322Y-81421D03*
X97322Y-81885D03*
X96692Y-81421D03*
X96692Y-81885D03*
X96062Y-81421D03*
X96062Y-81885D03*
X99212Y-81421D03*
X99212Y-81885D03*
X98582Y-81421D03*
X98582Y-81885D03*
G54D21*
X92992Y-79059D03*
G54D22*
X92992Y-78059D03*
X92992Y-77059D03*
X92992Y-76059D03*
G54D23*
X92992Y-72700D03*
G54D24*
X92992Y-73700D03*
X92992Y-74700D03*
G54D23*
X100338Y-66929D03*
G54D24*
X101338Y-66929D03*
X102338Y-66929D03*
G54D25*
X97322Y-74881D03*
G54D26*
X103858Y-81087D03*
X103858Y-80487D03*
G54D27*
X100362Y-65047D03*
X100962Y-65047D03*
G54D26*
X94921Y-71402D03*
X94921Y-70802D03*
G54D27*
X96944Y-70590D03*
X97544Y-70590D03*
X105227Y-69123D03*
X105827Y-69123D03*
G54D26*
X107401Y-68488D03*
X107401Y-67888D03*
G54D27*
X105827Y-69832D03*
X105227Y-69832D03*
G54D26*
X103149Y-78803D03*
X103149Y-78203D03*
G54D27*
X98440Y-74173D03*
X99040Y-74173D03*
X98440Y-73385D03*
X99040Y-73385D03*
X98440Y-74960D03*
X99040Y-74960D03*
G54D26*
X100866Y-77859D03*
X100866Y-77259D03*
G54D28*
X99232Y-78957D03*
G54D29*
X99232Y-78761D03*
X99232Y-78564D03*
X99232Y-78367D03*
X99232Y-78170D03*
X99232Y-77973D03*
X99232Y-77776D03*
X99232Y-77579D03*
X99232Y-77383D03*
X99232Y-77186D03*
X99232Y-76989D03*
X99233Y-76792D03*
G54D30*
X98640Y-76201D03*
X98444Y-76201D03*
X98247Y-76201D03*
X98050Y-76201D03*
X97853Y-76201D03*
X97656Y-76201D03*
X97459Y-76201D03*
X97263Y-76201D03*
X97066Y-76201D03*
X96869Y-76201D03*
X96673Y-76201D03*
X96476Y-76201D03*
G54D29*
X95885Y-76791D03*
X95885Y-76988D03*
X95885Y-77185D03*
X95885Y-77382D03*
X95885Y-77579D03*
X95885Y-77776D03*
X95885Y-77973D03*
X95885Y-78169D03*
X95885Y-78366D03*
X95885Y-78563D03*
X95885Y-78760D03*
X95885Y-78957D03*
G54D30*
X96476Y-79547D03*
X96673Y-79547D03*
X96870Y-79547D03*
X97067Y-79547D03*
X97264Y-79547D03*
X97461Y-79547D03*
X97657Y-79547D03*
X97854Y-79547D03*
X98051Y-79547D03*
X98248Y-79547D03*
X98445Y-79547D03*
X98642Y-79547D03*
G54D31*
X102244Y-73386D03*
X102244Y-74173D03*
X102244Y-74960D03*
X100118Y-73386D03*
X100118Y-74173D03*
X100118Y-74960D03*
G54D27*
X100881Y-74173D03*
X101481Y-74173D03*
G54D32*
X102406Y-78801D03*
X102406Y-77345D03*
X101540Y-77345D03*
X101540Y-78801D03*
G54D33*
X104921Y-76377D03*
G54D34*
X107086Y-76377D03*
G54D35*
X108740Y-74566D03*
X108740Y-78188D03*
G54D36*
X102362Y-81344D03*
X102362Y-80544D03*
X95590Y-75203D03*
X95590Y-74403D03*
G54D26*
X100157Y-77229D03*
X100157Y-76629D03*
G54D27*
X105827Y-70540D03*
X105227Y-70540D03*
G54D26*
X94957Y-79084D03*
X94957Y-78484D03*
G54D27*
X99227Y-80472D03*
X99827Y-80472D03*
G54D26*
X100078Y-79148D03*
X100078Y-79748D03*
X96377Y-75260D03*
X96377Y-74660D03*
G54D27*
X102273Y-79648D03*
X101673Y-79648D03*
X101673Y-76498D03*
X102273Y-76498D03*
G54D26*
X103149Y-81087D03*
X103149Y-80487D03*
X104566Y-81087D03*
X104566Y-80487D03*
X104566Y-78803D03*
X104566Y-78203D03*
X103858Y-78803D03*
X103858Y-78203D03*
G54D27*
X101701Y-65047D03*
X102301Y-65047D03*
X97465Y-67480D03*
X96865Y-67480D03*
G54D37*
X105433Y-65748D03*
G54D38*
X105433Y-67322D03*
G54D39*
X102019Y-71574D03*
G54D40*
X103019Y-71574D03*
G54D39*
X99263Y-71574D03*
G54D40*
X100263Y-71574D03*
G54D39*
X102019Y-68897D03*
G54D40*
X103019Y-68897D03*
G54D39*
X99263Y-68897D03*
G54D40*
X100263Y-68897D03*
G54D41*
X108661Y-65944D03*
X93700Y-65944D03*
X108661Y-80905D03*
X93700Y-80905D03*
G54D27*
X105227Y-72824D03*
X105827Y-72824D03*
G54D42*
X98149Y-66692D03*
G54D43*
X96181Y-66692D03*
G54D44*
X107159Y-69527D03*
X107959Y-69527D03*
G54D45*
X100949Y-67952D03*
X101413Y-67952D03*
G54D27*
X96944Y-71338D03*
X97544Y-71338D03*
M02*
