G04 (created by PCBNEW-RS274X (2012-01-19 BZR 3256)-stable) date 24/12/2012 01:38:18*
G01*
G70*
G90*
%MOIN*%
G04 Gerber Fmt 3.4, Leading zero omitted, Abs format*
%FSLAX34Y34*%
G04 APERTURE LIST*
%ADD10C,0.006000*%
%ADD11C,0.078700*%
%ADD12R,0.027800X0.037800*%
%ADD13R,0.043800X0.043800*%
%ADD14R,0.046400X0.052800*%
%ADD15R,0.125900X0.125900*%
%ADD16C,0.125900*%
%ADD17R,0.062900X0.062900*%
%ADD18C,0.062900*%
%ADD19R,0.035400X0.043200*%
%ADD20O,0.035400X0.043200*%
%ADD21R,0.062800X0.042800*%
%ADD22R,0.042800X0.062800*%
%ADD23R,0.032800X0.052800*%
%ADD24R,0.052800X0.032800*%
%ADD25R,0.055000X0.019600*%
%ADD26O,0.055000X0.019600*%
%ADD27O,0.019600X0.055000*%
%ADD28R,0.047200X0.047200*%
%ADD29R,0.073800X0.073800*%
%ADD30C,0.073800*%
%ADD31R,0.092400X0.236100*%
%ADD32R,0.066900X0.133800*%
%ADD33C,0.244000*%
%ADD34R,0.078700X0.086500*%
%ADD35R,0.078700X0.137700*%
%ADD36O,0.029500X0.019600*%
%ADD37R,0.029500X0.019600*%
%ADD38R,0.037800X0.017600*%
%ADD39R,0.059000X0.059000*%
%ADD40C,0.059000*%
%ADD41C,0.066900*%
%ADD42C,0.086500*%
%ADD43R,0.062800X0.062800*%
%ADD44C,0.062800*%
G04 APERTURE END LIST*
G54D10*
G54D11*
X65050Y-40150D03*
X66231Y-40150D03*
X63869Y-40150D03*
G54D12*
X70475Y-37500D03*
X71225Y-37500D03*
X70475Y-36500D03*
X70850Y-37500D03*
X71225Y-36500D03*
G54D13*
X54655Y-29985D03*
X55355Y-29985D03*
X55005Y-30785D03*
X50650Y-30500D03*
X49950Y-30500D03*
X50300Y-29700D03*
X64976Y-35607D03*
X64976Y-34907D03*
X65776Y-35257D03*
G54D14*
X50168Y-28750D03*
X50632Y-28750D03*
G54D15*
X68262Y-40435D03*
G54D16*
X47850Y-40700D03*
G54D17*
X65450Y-28300D03*
G54D18*
X64450Y-28300D03*
X63450Y-28300D03*
X62450Y-28300D03*
G54D19*
X69944Y-37374D03*
G54D20*
X70456Y-37374D03*
X70456Y-36626D03*
X69944Y-36626D03*
G54D21*
X55200Y-35275D03*
X55200Y-36025D03*
G54D22*
X48325Y-37200D03*
X47575Y-37200D03*
G54D21*
X53200Y-35275D03*
X53200Y-36025D03*
X52150Y-35275D03*
X52150Y-36025D03*
G54D22*
X48325Y-39300D03*
X47575Y-39300D03*
X48325Y-38200D03*
X47575Y-38200D03*
G54D21*
X54200Y-35275D03*
X54200Y-36025D03*
G54D22*
X48325Y-36200D03*
X47575Y-36200D03*
G54D23*
X64762Y-38430D03*
X65362Y-38430D03*
X48250Y-33850D03*
X47650Y-33850D03*
X63252Y-38411D03*
X63852Y-38411D03*
G54D24*
X64252Y-35576D03*
X64252Y-34976D03*
G54D23*
X60930Y-31417D03*
X60330Y-31417D03*
G54D24*
X49996Y-31198D03*
X49996Y-31798D03*
G54D23*
X56122Y-30061D03*
X56722Y-30061D03*
G54D25*
X58927Y-33717D03*
G54D26*
X58927Y-33913D03*
X58927Y-34110D03*
X58927Y-34307D03*
X58927Y-34504D03*
X58927Y-34701D03*
X58927Y-34898D03*
X58927Y-35095D03*
X58927Y-35291D03*
X58927Y-35488D03*
X58927Y-35685D03*
X58926Y-35882D03*
G54D27*
X59519Y-36473D03*
X59715Y-36473D03*
X59912Y-36473D03*
X60109Y-36473D03*
X60306Y-36473D03*
X60503Y-36473D03*
X60700Y-36473D03*
X60896Y-36473D03*
X61093Y-36473D03*
X61290Y-36473D03*
X61486Y-36473D03*
X61683Y-36473D03*
G54D26*
X62274Y-35883D03*
X62274Y-35686D03*
X62274Y-35489D03*
X62274Y-35292D03*
X62274Y-35095D03*
X62274Y-34898D03*
X62274Y-34701D03*
X62274Y-34505D03*
X62274Y-34308D03*
X62274Y-34111D03*
X62274Y-33914D03*
X62274Y-33717D03*
G54D27*
X61683Y-33127D03*
X61486Y-33127D03*
X61289Y-33127D03*
X61092Y-33127D03*
X60895Y-33127D03*
X60698Y-33127D03*
X60502Y-33127D03*
X60305Y-33127D03*
X60108Y-33127D03*
X59911Y-33127D03*
X59714Y-33127D03*
X59517Y-33127D03*
G54D28*
X68047Y-33153D03*
X67653Y-33153D03*
X67653Y-33547D03*
X68047Y-33547D03*
X68441Y-33547D03*
X68441Y-33153D03*
X68441Y-32759D03*
X68047Y-32759D03*
X67653Y-32759D03*
X67259Y-32759D03*
X67259Y-33153D03*
X67259Y-33547D03*
X67259Y-33941D03*
X67653Y-33941D03*
X68047Y-33941D03*
X68441Y-33941D03*
X68834Y-32956D03*
X68834Y-33350D03*
X68834Y-33744D03*
X68244Y-32366D03*
X67850Y-32366D03*
X67456Y-32366D03*
X66866Y-32956D03*
X66866Y-33350D03*
X66866Y-33744D03*
X67456Y-34334D03*
X67850Y-34334D03*
X68244Y-34334D03*
X66472Y-33350D03*
X67850Y-31972D03*
X69228Y-33350D03*
X67850Y-34728D03*
G54D29*
X63450Y-30050D03*
G54D30*
X64450Y-30050D03*
G54D31*
X53658Y-38000D03*
X52142Y-38000D03*
G54D32*
X55593Y-32196D03*
X54215Y-32196D03*
G54D33*
X48150Y-28950D03*
X70650Y-40300D03*
G54D28*
X52838Y-30950D03*
X53862Y-30950D03*
G54D34*
X50551Y-38781D03*
X50551Y-37281D03*
G54D35*
X50300Y-35600D03*
G54D36*
X50831Y-35600D03*
X49769Y-35600D03*
X50831Y-35403D03*
X50831Y-35206D03*
X50831Y-35009D03*
X50831Y-35797D03*
X50831Y-35994D03*
X50831Y-36191D03*
X49769Y-35403D03*
X49769Y-35206D03*
G54D37*
X49769Y-35009D03*
G54D36*
X49769Y-35797D03*
X49769Y-35994D03*
X49769Y-36191D03*
G54D38*
X53980Y-29346D03*
X53980Y-29149D03*
X53980Y-28952D03*
X53980Y-28755D03*
X53980Y-28558D03*
X51618Y-28558D03*
X51618Y-28755D03*
X51618Y-28952D03*
X51618Y-29149D03*
X51618Y-29346D03*
G54D21*
X58300Y-38275D03*
X58300Y-39025D03*
X56308Y-38275D03*
X56308Y-39025D03*
X57250Y-38275D03*
X57250Y-39025D03*
X59350Y-38275D03*
X59350Y-39025D03*
G54D23*
X58676Y-31417D03*
X59276Y-31417D03*
G54D24*
X62677Y-36629D03*
X62677Y-37229D03*
X69971Y-35600D03*
X69971Y-35000D03*
G54D23*
X69400Y-38500D03*
X70000Y-38500D03*
G54D24*
X63431Y-33397D03*
X63431Y-32797D03*
G54D23*
X58676Y-32047D03*
X59276Y-32047D03*
X57544Y-35276D03*
X56944Y-35276D03*
X56936Y-33527D03*
X57536Y-33527D03*
X48250Y-34900D03*
X47650Y-34900D03*
G54D24*
X55050Y-38500D03*
X55050Y-39100D03*
G54D23*
X56865Y-32047D03*
X57465Y-32047D03*
X51954Y-30945D03*
X51354Y-30945D03*
G54D39*
X67537Y-37000D03*
G54D40*
X65963Y-37000D03*
G54D41*
X71469Y-28664D03*
X71469Y-30436D03*
G54D42*
X70485Y-28172D03*
X70485Y-30928D03*
G54D41*
X67314Y-28081D03*
X69086Y-28081D03*
G54D42*
X66822Y-29065D03*
X69578Y-29065D03*
G54D43*
X61000Y-28300D03*
G54D44*
X60000Y-28300D03*
M02*
