G04 (created by PCBNEW-RS274X (2012-01-19 BZR 3256)-stable) date 30/09/2012 19:30:16*
G01*
G70*
G90*
%MOIN*%
G04 Gerber Fmt 3.4, Leading zero omitted, Abs format*
%FSLAX34Y34*%
G04 APERTURE LIST*
%ADD10C,0.006000*%
%ADD11C,0.039400*%
%ADD12R,0.055000X0.035000*%
%ADD13R,0.045000X0.025000*%
%ADD14R,0.025000X0.045000*%
%ADD15R,0.011800X0.039400*%
%ADD16R,0.039400X0.011800*%
%ADD17C,0.035400*%
%ADD18C,0.019700*%
%ADD19C,0.007900*%
%ADD20C,0.010000*%
G04 APERTURE END LIST*
G54D10*
G54D11*
X54646Y-33543D03*
X55197Y-33543D03*
X55748Y-33543D03*
X56299Y-33543D03*
X56850Y-33543D03*
X53071Y-32520D03*
X53071Y-33543D03*
G54D12*
X53701Y-32460D03*
X53701Y-33210D03*
G54D13*
X54331Y-32456D03*
X54331Y-33056D03*
G54D14*
X53607Y-31732D03*
X53007Y-31732D03*
G54D15*
X55522Y-32677D03*
X55778Y-32677D03*
X56034Y-32677D03*
X56290Y-32677D03*
G54D16*
X56693Y-32274D03*
X56693Y-32018D03*
X56693Y-31762D03*
X56693Y-31506D03*
G54D15*
X56290Y-31103D03*
X56034Y-31103D03*
X55778Y-31103D03*
X55522Y-31103D03*
G54D16*
X55119Y-31506D03*
X55119Y-31762D03*
X55119Y-32018D03*
X55119Y-32274D03*
G54D13*
X54331Y-31796D03*
X54331Y-31196D03*
G54D14*
X53007Y-31102D03*
X53607Y-31102D03*
G54D17*
X53874Y-33622D03*
X55827Y-31732D03*
X54882Y-31102D03*
X56929Y-31024D03*
X54858Y-32831D03*
G54D18*
X53353Y-32460D02*
X53071Y-32520D01*
X53426Y-32460D02*
X53353Y-32460D01*
X53524Y-32460D02*
X53426Y-32460D01*
X53701Y-32460D02*
X53524Y-32460D01*
X53877Y-32460D02*
X53701Y-32460D01*
X53976Y-32460D02*
X53877Y-32460D01*
X54048Y-32460D02*
X53976Y-32460D01*
X54054Y-32456D02*
X54048Y-32460D01*
X54106Y-32456D02*
X54054Y-32456D01*
X54204Y-32456D02*
X54106Y-32456D01*
X54331Y-32456D02*
X54204Y-32456D01*
G54D19*
X54855Y-32492D02*
X54752Y-32437D01*
X54998Y-32494D02*
X54855Y-32492D01*
X55396Y-32639D02*
X54998Y-32494D01*
X55462Y-32639D02*
X55396Y-32639D01*
X55502Y-32639D02*
X55462Y-32639D01*
X55521Y-32677D02*
X55502Y-32639D01*
X54762Y-32149D02*
X54728Y-32240D01*
X54855Y-32055D02*
X54762Y-32149D01*
X54897Y-32018D02*
X54855Y-32055D01*
X54921Y-32018D02*
X54897Y-32018D01*
X54961Y-32018D02*
X54921Y-32018D01*
X55119Y-32018D02*
X54961Y-32018D01*
X54834Y-32240D02*
X54728Y-32240D01*
X54897Y-32274D02*
X54834Y-32240D01*
X54921Y-32274D02*
X54897Y-32274D01*
X54961Y-32274D02*
X54921Y-32274D01*
X55119Y-32274D02*
X54961Y-32274D01*
G54D18*
X54457Y-32456D02*
X54331Y-32456D01*
X54556Y-32456D02*
X54457Y-32456D01*
X54607Y-32456D02*
X54556Y-32456D01*
X54752Y-32437D02*
X54607Y-32456D01*
X54739Y-32409D02*
X54752Y-32437D01*
X54739Y-32255D02*
X54739Y-32409D01*
X54728Y-32240D02*
X54739Y-32255D01*
G54D19*
X57049Y-32399D02*
X56850Y-33543D01*
X57049Y-32267D02*
X57049Y-32399D01*
X57049Y-32149D02*
X57049Y-32267D01*
X56956Y-32055D02*
X57049Y-32149D01*
X56914Y-32018D02*
X56956Y-32055D01*
X56890Y-32018D02*
X56914Y-32018D01*
X56850Y-32018D02*
X56890Y-32018D01*
X56693Y-32018D02*
X56850Y-32018D01*
X56502Y-33101D02*
X56299Y-33543D01*
X56508Y-33087D02*
X56502Y-33101D01*
X56655Y-32399D02*
X56508Y-33087D01*
X56655Y-32333D02*
X56655Y-32399D01*
X56655Y-32293D02*
X56655Y-32333D01*
X56693Y-32274D02*
X56655Y-32293D01*
X55049Y-33186D02*
X54646Y-33543D01*
X55537Y-33018D02*
X55049Y-33186D01*
X55640Y-33018D02*
X55537Y-33018D01*
X55743Y-32933D02*
X55640Y-33018D01*
X55778Y-32898D02*
X55743Y-32933D01*
X55778Y-32874D02*
X55778Y-32898D01*
X55778Y-32834D02*
X55778Y-32874D01*
X55778Y-32677D02*
X55778Y-32834D01*
X55607Y-33202D02*
X55197Y-33543D01*
X55716Y-33202D02*
X55607Y-33202D01*
X55849Y-33189D02*
X55716Y-33202D01*
X56034Y-33004D02*
X55849Y-33189D01*
X56034Y-32874D02*
X56034Y-33004D01*
X56034Y-32834D02*
X56034Y-32874D01*
X56034Y-32677D02*
X56034Y-32834D01*
X56105Y-33189D02*
X55748Y-33543D01*
X56290Y-33004D02*
X56105Y-33189D01*
X56290Y-32874D02*
X56290Y-33004D01*
X56290Y-32834D02*
X56290Y-32874D01*
X56290Y-32677D02*
X56290Y-32834D01*
G54D18*
X53757Y-33385D02*
X53874Y-33622D01*
X53757Y-33286D02*
X53757Y-33385D01*
X53701Y-33210D02*
X53757Y-33286D01*
X54066Y-33603D02*
X53874Y-33622D01*
X54194Y-33475D02*
X54066Y-33603D01*
X54230Y-33371D02*
X54194Y-33475D01*
X54324Y-33271D02*
X54230Y-33371D01*
X54324Y-33181D02*
X54324Y-33271D01*
X54324Y-33082D02*
X54324Y-33181D01*
X54331Y-33056D02*
X54324Y-33082D01*
X54607Y-31196D02*
X54882Y-31102D01*
X54556Y-31196D02*
X54607Y-31196D01*
X54457Y-31196D02*
X54556Y-31196D01*
X54331Y-31196D02*
X54457Y-31196D01*
X54204Y-31196D02*
X54331Y-31196D01*
X54106Y-31196D02*
X54204Y-31196D01*
X54054Y-31196D02*
X54106Y-31196D01*
X53823Y-31109D02*
X54054Y-31196D01*
X53732Y-31109D02*
X53823Y-31109D01*
X53634Y-31109D02*
X53732Y-31109D01*
X53607Y-31102D02*
X53634Y-31109D01*
G54D19*
X56693Y-31447D02*
X56929Y-31024D01*
X56693Y-31486D02*
X56693Y-31447D01*
X56693Y-31506D02*
X56693Y-31486D01*
X56284Y-31457D02*
X56276Y-31449D01*
X56471Y-31506D02*
X56284Y-31457D01*
X56496Y-31506D02*
X56471Y-31506D01*
X56535Y-31506D02*
X56496Y-31506D01*
X56693Y-31506D02*
X56535Y-31506D01*
X56290Y-31324D02*
X56276Y-31449D01*
X56290Y-31300D02*
X56290Y-31324D01*
X56290Y-31260D02*
X56290Y-31300D01*
X56290Y-31103D02*
X56290Y-31260D01*
X55521Y-31324D02*
X55492Y-31461D01*
X55521Y-31300D02*
X55521Y-31324D01*
X55521Y-31260D02*
X55521Y-31300D01*
X55521Y-31103D02*
X55521Y-31260D01*
X55340Y-31506D02*
X55492Y-31461D01*
X55316Y-31506D02*
X55340Y-31506D01*
X55276Y-31506D02*
X55316Y-31506D01*
X55119Y-31506D02*
X55276Y-31506D01*
X56309Y-31065D02*
X56290Y-31103D01*
X56349Y-31065D02*
X56309Y-31065D01*
X56415Y-31065D02*
X56349Y-31065D01*
X56929Y-31024D02*
X56415Y-31065D01*
X55081Y-31486D02*
X55119Y-31506D01*
X55081Y-31447D02*
X55081Y-31486D01*
X55081Y-31381D02*
X55081Y-31447D01*
X54882Y-31102D02*
X55081Y-31381D01*
X55502Y-31102D02*
X55521Y-31103D01*
X55462Y-31102D02*
X55502Y-31102D01*
X54882Y-31102D02*
X55462Y-31102D01*
X55778Y-31260D02*
X55778Y-31103D01*
X55778Y-31300D02*
X55778Y-31260D01*
X55778Y-31324D02*
X55778Y-31300D01*
X55827Y-31732D02*
X55778Y-31324D01*
X55827Y-31732D02*
X56075Y-31461D01*
X55689Y-31657D02*
X55492Y-31461D01*
X55827Y-31732D02*
X55689Y-31657D01*
G54D18*
X53335Y-33603D02*
X53071Y-33543D01*
X53874Y-33622D02*
X53335Y-33603D01*
G54D19*
X56034Y-31260D02*
X56034Y-31103D01*
X56034Y-31300D02*
X56034Y-31260D01*
X56034Y-31324D02*
X56034Y-31300D01*
X56075Y-31461D02*
X56034Y-31324D01*
X56159Y-31459D02*
X56276Y-31449D01*
X56075Y-31461D02*
X56159Y-31459D01*
X53007Y-31547D02*
X53007Y-31732D01*
X53007Y-31507D02*
X53007Y-31547D01*
X53007Y-31327D02*
X53007Y-31507D01*
X53007Y-31288D02*
X53007Y-31327D01*
X53007Y-31102D02*
X53007Y-31288D01*
X53693Y-31796D02*
X53607Y-31732D01*
X53732Y-31796D02*
X53693Y-31796D01*
X54106Y-31796D02*
X53732Y-31796D01*
X54145Y-31796D02*
X54106Y-31796D01*
X54331Y-31796D02*
X54145Y-31796D01*
X54516Y-31796D02*
X54331Y-31796D01*
X54556Y-31796D02*
X54516Y-31796D01*
X54607Y-31796D02*
X54556Y-31796D01*
X54897Y-31762D02*
X54607Y-31796D01*
X54921Y-31762D02*
X54897Y-31762D01*
X54961Y-31762D02*
X54921Y-31762D01*
X55119Y-31762D02*
X54961Y-31762D01*
G54D10*
G36*
X55295Y-32882D02*
X54982Y-32990D01*
X54912Y-33031D01*
X54737Y-33185D01*
X54719Y-33178D01*
X54574Y-33178D01*
X54440Y-33233D01*
X54337Y-33336D01*
X54281Y-33470D01*
X54281Y-33615D01*
X54313Y-33694D01*
X52920Y-33694D01*
X52920Y-32852D01*
X52998Y-32885D01*
X53143Y-32885D01*
X53277Y-32830D01*
X53330Y-32776D01*
X53331Y-32777D01*
X53392Y-32803D01*
X53459Y-32803D01*
X54009Y-32803D01*
X54071Y-32778D01*
X54099Y-32749D01*
X54139Y-32749D01*
X54589Y-32749D01*
X54651Y-32724D01*
X54656Y-32718D01*
X54786Y-32701D01*
X54815Y-32691D01*
X54834Y-32697D01*
X54839Y-32696D01*
X54852Y-32699D01*
X54958Y-32700D01*
X55295Y-32822D01*
X55295Y-32882D01*
X55295Y-32882D01*
G37*
G54D20*
X55295Y-32882D02*
X54982Y-32990D01*
X54912Y-33031D01*
X54737Y-33185D01*
X54719Y-33178D01*
X54574Y-33178D01*
X54440Y-33233D01*
X54337Y-33336D01*
X54281Y-33470D01*
X54281Y-33615D01*
X54313Y-33694D01*
X52920Y-33694D01*
X52920Y-32852D01*
X52998Y-32885D01*
X53143Y-32885D01*
X53277Y-32830D01*
X53330Y-32776D01*
X53331Y-32777D01*
X53392Y-32803D01*
X53459Y-32803D01*
X54009Y-32803D01*
X54071Y-32778D01*
X54099Y-32749D01*
X54139Y-32749D01*
X54589Y-32749D01*
X54651Y-32724D01*
X54656Y-32718D01*
X54786Y-32701D01*
X54815Y-32691D01*
X54834Y-32697D01*
X54839Y-32696D01*
X54852Y-32699D01*
X54958Y-32700D01*
X55295Y-32822D01*
X55295Y-32882D01*
G54D10*
G36*
X57001Y-31576D02*
X56985Y-31561D01*
X56924Y-31535D01*
X56857Y-31535D01*
X56463Y-31535D01*
X56401Y-31560D01*
X56354Y-31608D01*
X56328Y-31669D01*
X56328Y-31736D01*
X56328Y-31854D01*
X56342Y-31890D01*
X56328Y-31925D01*
X56328Y-31992D01*
X56328Y-32110D01*
X56342Y-32146D01*
X56328Y-32181D01*
X56328Y-32248D01*
X56328Y-32312D01*
X56316Y-32312D01*
X56198Y-32312D01*
X56161Y-32326D01*
X56127Y-32312D01*
X56060Y-32312D01*
X55942Y-32312D01*
X55905Y-32326D01*
X55871Y-32312D01*
X55804Y-32312D01*
X55686Y-32312D01*
X55649Y-32326D01*
X55615Y-32312D01*
X55548Y-32312D01*
X55484Y-32312D01*
X55484Y-32300D01*
X55484Y-32182D01*
X55469Y-32145D01*
X55484Y-32111D01*
X55484Y-32044D01*
X55484Y-31926D01*
X55469Y-31889D01*
X55484Y-31855D01*
X55484Y-31788D01*
X55484Y-31670D01*
X55459Y-31608D01*
X55411Y-31561D01*
X55350Y-31535D01*
X55283Y-31535D01*
X54889Y-31535D01*
X54827Y-31560D01*
X54825Y-31561D01*
X54699Y-31576D01*
X54651Y-31529D01*
X54590Y-31503D01*
X54523Y-31503D01*
X54073Y-31503D01*
X54011Y-31528D01*
X53964Y-31576D01*
X53958Y-31589D01*
X53900Y-31589D01*
X53900Y-31474D01*
X53875Y-31412D01*
X53827Y-31365D01*
X53766Y-31339D01*
X53699Y-31339D01*
X53449Y-31339D01*
X53387Y-31364D01*
X53340Y-31412D01*
X53314Y-31473D01*
X53314Y-31540D01*
X53314Y-31990D01*
X53339Y-32052D01*
X53387Y-32099D01*
X53429Y-32117D01*
X53393Y-32117D01*
X53331Y-32142D01*
X53284Y-32190D01*
X53278Y-32204D01*
X53267Y-32206D01*
X53144Y-32155D01*
X52999Y-32155D01*
X52920Y-32187D01*
X52920Y-32125D01*
X53165Y-32125D01*
X53227Y-32100D01*
X53274Y-32052D01*
X53300Y-31991D01*
X53300Y-31924D01*
X53300Y-31474D01*
X53276Y-31415D01*
X53300Y-31361D01*
X53300Y-31294D01*
X53300Y-30844D01*
X53275Y-30782D01*
X53227Y-30735D01*
X53180Y-30715D01*
X57001Y-30715D01*
X57001Y-31576D01*
X57001Y-31576D01*
G37*
G54D20*
X57001Y-31576D02*
X56985Y-31561D01*
X56924Y-31535D01*
X56857Y-31535D01*
X56463Y-31535D01*
X56401Y-31560D01*
X56354Y-31608D01*
X56328Y-31669D01*
X56328Y-31736D01*
X56328Y-31854D01*
X56342Y-31890D01*
X56328Y-31925D01*
X56328Y-31992D01*
X56328Y-32110D01*
X56342Y-32146D01*
X56328Y-32181D01*
X56328Y-32248D01*
X56328Y-32312D01*
X56316Y-32312D01*
X56198Y-32312D01*
X56161Y-32326D01*
X56127Y-32312D01*
X56060Y-32312D01*
X55942Y-32312D01*
X55905Y-32326D01*
X55871Y-32312D01*
X55804Y-32312D01*
X55686Y-32312D01*
X55649Y-32326D01*
X55615Y-32312D01*
X55548Y-32312D01*
X55484Y-32312D01*
X55484Y-32300D01*
X55484Y-32182D01*
X55469Y-32145D01*
X55484Y-32111D01*
X55484Y-32044D01*
X55484Y-31926D01*
X55469Y-31889D01*
X55484Y-31855D01*
X55484Y-31788D01*
X55484Y-31670D01*
X55459Y-31608D01*
X55411Y-31561D01*
X55350Y-31535D01*
X55283Y-31535D01*
X54889Y-31535D01*
X54827Y-31560D01*
X54825Y-31561D01*
X54699Y-31576D01*
X54651Y-31529D01*
X54590Y-31503D01*
X54523Y-31503D01*
X54073Y-31503D01*
X54011Y-31528D01*
X53964Y-31576D01*
X53958Y-31589D01*
X53900Y-31589D01*
X53900Y-31474D01*
X53875Y-31412D01*
X53827Y-31365D01*
X53766Y-31339D01*
X53699Y-31339D01*
X53449Y-31339D01*
X53387Y-31364D01*
X53340Y-31412D01*
X53314Y-31473D01*
X53314Y-31540D01*
X53314Y-31990D01*
X53339Y-32052D01*
X53387Y-32099D01*
X53429Y-32117D01*
X53393Y-32117D01*
X53331Y-32142D01*
X53284Y-32190D01*
X53278Y-32204D01*
X53267Y-32206D01*
X53144Y-32155D01*
X52999Y-32155D01*
X52920Y-32187D01*
X52920Y-32125D01*
X53165Y-32125D01*
X53227Y-32100D01*
X53274Y-32052D01*
X53300Y-31991D01*
X53300Y-31924D01*
X53300Y-31474D01*
X53276Y-31415D01*
X53300Y-31361D01*
X53300Y-31294D01*
X53300Y-30844D01*
X53275Y-30782D01*
X53227Y-30735D01*
X53180Y-30715D01*
X57001Y-30715D01*
X57001Y-31576D01*
M02*
