G04 (created by PCBNEW-RS274X (2012-01-19 BZR 3256)-stable) date 30/09/2012 18:03:24*
G01*
G70*
G90*
%MOIN*%
G04 Gerber Fmt 3.4, Leading zero omitted, Abs format*
%FSLAX34Y34*%
G04 APERTURE LIST*
%ADD10C,0.006000*%
%ADD11R,0.039400X0.009800*%
%ADD12R,0.009800X0.039400*%
%ADD13C,0.039400*%
%ADD14R,0.035000X0.055000*%
%ADD15R,0.025000X0.045000*%
%ADD16C,0.035400*%
%ADD17C,0.019700*%
%ADD18C,0.007900*%
%ADD19C,0.010000*%
G04 APERTURE END LIST*
G54D10*
G54D11*
X55157Y-31889D03*
X55157Y-32086D03*
X55157Y-32283D03*
X55157Y-32480D03*
X55157Y-32677D03*
G54D12*
X55551Y-32874D03*
X55748Y-32874D03*
X55945Y-32874D03*
G54D11*
X56339Y-32677D03*
X56339Y-32480D03*
X56339Y-32283D03*
X56339Y-32086D03*
X56339Y-31889D03*
G54D12*
X55945Y-31692D03*
X55748Y-31692D03*
X55551Y-31692D03*
G54D13*
X54646Y-33543D03*
X55197Y-33543D03*
X55748Y-33543D03*
X56299Y-33543D03*
X56850Y-33543D03*
X54646Y-31575D03*
X54646Y-30906D03*
G54D14*
X56121Y-30945D03*
X56871Y-30945D03*
G54D15*
X55694Y-30906D03*
X55094Y-30906D03*
G54D16*
X56815Y-31969D03*
X55043Y-32996D03*
X55843Y-32209D03*
X54661Y-32122D03*
X56854Y-31504D03*
G54D17*
X56121Y-31121D02*
X56121Y-30945D01*
X56006Y-31216D02*
X56121Y-31121D01*
X55667Y-31185D02*
X56006Y-31216D01*
X55694Y-31032D02*
X55694Y-30906D01*
X55694Y-31131D02*
X55694Y-31032D01*
X55667Y-31185D02*
X55694Y-31131D01*
G54D18*
X55120Y-31774D02*
X55059Y-31630D01*
X55120Y-31840D02*
X55120Y-31774D01*
X55120Y-31880D02*
X55120Y-31840D01*
X55157Y-31889D02*
X55120Y-31880D01*
X55945Y-31475D02*
X56004Y-31424D01*
X55945Y-31495D02*
X55945Y-31475D01*
X55945Y-31535D02*
X55945Y-31495D01*
X55945Y-31692D02*
X55945Y-31535D01*
G54D17*
X55414Y-31313D02*
X55667Y-31185D01*
X55059Y-31630D02*
X55414Y-31313D01*
X55051Y-31622D02*
X55059Y-31630D01*
X54646Y-31575D02*
X55051Y-31622D01*
X56004Y-31424D02*
X56006Y-31216D01*
G54D18*
X56696Y-32414D02*
X56850Y-33543D01*
X56684Y-32370D02*
X56696Y-32414D01*
X56597Y-32283D02*
X56684Y-32370D01*
X56536Y-32283D02*
X56597Y-32283D01*
X56496Y-32283D02*
X56536Y-32283D01*
X56339Y-32283D02*
X56496Y-32283D01*
X56154Y-33005D02*
X56299Y-33543D01*
X56060Y-32912D02*
X56154Y-33005D01*
X55994Y-32912D02*
X56060Y-32912D01*
X55955Y-32912D02*
X55994Y-32912D01*
X55945Y-32874D02*
X55955Y-32912D01*
X54707Y-32857D02*
X54646Y-33543D01*
X54812Y-32567D02*
X54707Y-32857D01*
X54899Y-32480D02*
X54812Y-32567D01*
X54960Y-32480D02*
X54899Y-32480D01*
X55000Y-32480D02*
X54960Y-32480D01*
X55157Y-32480D02*
X55000Y-32480D01*
X55361Y-33128D02*
X55197Y-33543D01*
X55361Y-33013D02*
X55361Y-33128D01*
X55444Y-32931D02*
X55361Y-33013D01*
X55502Y-32912D02*
X55444Y-32931D01*
X55542Y-32912D02*
X55502Y-32912D01*
X55551Y-32874D02*
X55542Y-32912D01*
X55748Y-33071D02*
X55748Y-33543D01*
X55748Y-33032D02*
X55748Y-33071D01*
X55748Y-32874D02*
X55748Y-33032D01*
X55120Y-32793D02*
X55043Y-32996D01*
X55120Y-32726D02*
X55120Y-32793D01*
X55120Y-32687D02*
X55120Y-32726D01*
X55157Y-32677D02*
X55120Y-32687D01*
X56081Y-32086D02*
X55843Y-32209D01*
X56142Y-32086D02*
X56081Y-32086D01*
X56182Y-32086D02*
X56142Y-32086D01*
X56339Y-32086D02*
X56182Y-32086D01*
X56597Y-32086D02*
X56815Y-31969D01*
X56536Y-32086D02*
X56597Y-32086D01*
X56496Y-32086D02*
X56536Y-32086D01*
X56339Y-32086D02*
X56496Y-32086D01*
G54D17*
X55067Y-30912D02*
X55094Y-30906D01*
X54969Y-30912D02*
X55067Y-30912D01*
X54878Y-30912D02*
X54969Y-30912D01*
X54646Y-30906D02*
X54878Y-30912D01*
X56871Y-31121D02*
X56871Y-30945D01*
X56871Y-31220D02*
X56871Y-31121D01*
X56871Y-31292D02*
X56871Y-31220D01*
X56854Y-31504D02*
X56871Y-31292D01*
G54D18*
X56182Y-32480D02*
X56339Y-32480D01*
X56142Y-32480D02*
X56182Y-32480D01*
X56081Y-32480D02*
X56142Y-32480D01*
X55994Y-32394D02*
X56081Y-32480D01*
X55843Y-32209D02*
X55994Y-32394D01*
G54D17*
X56815Y-31969D02*
X56854Y-31504D01*
G54D10*
G36*
X54798Y-32184D02*
X54792Y-32200D01*
X54792Y-32267D01*
X54792Y-32307D01*
X54753Y-32334D01*
X54666Y-32421D01*
X54663Y-32424D01*
X54659Y-32428D01*
X54636Y-32464D01*
X54621Y-32488D01*
X54620Y-32491D01*
X54617Y-32497D01*
X54574Y-32615D01*
X54574Y-31940D01*
X54718Y-31940D01*
X54792Y-31909D01*
X54792Y-31971D01*
X54798Y-31987D01*
X54792Y-32003D01*
X54792Y-32070D01*
X54792Y-32168D01*
X54798Y-32184D01*
X54798Y-32184D01*
G37*
G54D19*
X54798Y-32184D02*
X54792Y-32200D01*
X54792Y-32267D01*
X54792Y-32307D01*
X54753Y-32334D01*
X54666Y-32421D01*
X54663Y-32424D01*
X54659Y-32428D01*
X54636Y-32464D01*
X54621Y-32488D01*
X54620Y-32491D01*
X54617Y-32497D01*
X54574Y-32615D01*
X54574Y-31940D01*
X54718Y-31940D01*
X54792Y-31909D01*
X54792Y-31971D01*
X54798Y-31987D01*
X54792Y-32003D01*
X54792Y-32070D01*
X54792Y-32168D01*
X54798Y-32184D01*
G54D10*
G36*
X55334Y-32760D02*
X55310Y-32774D01*
X55306Y-32778D01*
X55298Y-32784D01*
X55215Y-32866D01*
X55170Y-32933D01*
X55166Y-32949D01*
X55154Y-33013D01*
X55154Y-33089D01*
X55118Y-33180D01*
X54991Y-33233D01*
X54921Y-33302D01*
X54878Y-33259D01*
X54910Y-32903D01*
X54984Y-32697D01*
X54993Y-32697D01*
X55334Y-32697D01*
X55334Y-32710D01*
X55334Y-32759D01*
X55334Y-32760D01*
X55334Y-32760D01*
G37*
G54D19*
X55334Y-32760D02*
X55310Y-32774D01*
X55306Y-32778D01*
X55298Y-32784D01*
X55215Y-32866D01*
X55170Y-32933D01*
X55166Y-32949D01*
X55154Y-33013D01*
X55154Y-33089D01*
X55118Y-33180D01*
X54991Y-33233D01*
X54921Y-33302D01*
X54878Y-33259D01*
X54910Y-32903D01*
X54984Y-32697D01*
X54993Y-32697D01*
X55334Y-32697D01*
X55334Y-32710D01*
X55334Y-32759D01*
X55334Y-32760D01*
G54D10*
G36*
X55401Y-31021D02*
X55294Y-31076D01*
X55268Y-31095D01*
X55236Y-31115D01*
X54978Y-31346D01*
X54927Y-31340D01*
X54853Y-31266D01*
X54719Y-31210D01*
X54574Y-31210D01*
X54574Y-30794D01*
X55401Y-30794D01*
X55401Y-31021D01*
X55401Y-31021D01*
G37*
G54D19*
X55401Y-31021D02*
X55294Y-31076D01*
X55268Y-31095D01*
X55236Y-31115D01*
X54978Y-31346D01*
X54927Y-31340D01*
X54853Y-31266D01*
X54719Y-31210D01*
X54574Y-31210D01*
X54574Y-30794D01*
X55401Y-30794D01*
X55401Y-31021D01*
G54D10*
G36*
X56060Y-32479D02*
X56047Y-32485D01*
X56023Y-32509D01*
X55961Y-32509D01*
X55863Y-32509D01*
X55846Y-32515D01*
X55831Y-32509D01*
X55764Y-32509D01*
X55666Y-32509D01*
X55649Y-32515D01*
X55634Y-32509D01*
X55567Y-32509D01*
X55522Y-32509D01*
X55522Y-32496D01*
X55522Y-32398D01*
X55515Y-32381D01*
X55522Y-32366D01*
X55522Y-32299D01*
X55522Y-32201D01*
X55515Y-32184D01*
X55522Y-32169D01*
X55522Y-32102D01*
X55522Y-32057D01*
X55535Y-32057D01*
X55633Y-32057D01*
X55649Y-32050D01*
X55665Y-32057D01*
X55732Y-32057D01*
X55830Y-32057D01*
X55846Y-32050D01*
X55862Y-32057D01*
X55929Y-32057D01*
X56023Y-32057D01*
X56047Y-32080D01*
X56060Y-32085D01*
X56047Y-32091D01*
X56000Y-32139D01*
X55974Y-32200D01*
X55974Y-32267D01*
X55974Y-32365D01*
X55999Y-32427D01*
X56047Y-32474D01*
X56060Y-32479D01*
X56060Y-32479D01*
G37*
G54D19*
X56060Y-32479D02*
X56047Y-32485D01*
X56023Y-32509D01*
X55961Y-32509D01*
X55863Y-32509D01*
X55846Y-32515D01*
X55831Y-32509D01*
X55764Y-32509D01*
X55666Y-32509D01*
X55649Y-32515D01*
X55634Y-32509D01*
X55567Y-32509D01*
X55522Y-32509D01*
X55522Y-32496D01*
X55522Y-32398D01*
X55515Y-32381D01*
X55522Y-32366D01*
X55522Y-32299D01*
X55522Y-32201D01*
X55515Y-32184D01*
X55522Y-32169D01*
X55522Y-32102D01*
X55522Y-32057D01*
X55535Y-32057D01*
X55633Y-32057D01*
X55649Y-32050D01*
X55665Y-32057D01*
X55732Y-32057D01*
X55830Y-32057D01*
X55846Y-32050D01*
X55862Y-32057D01*
X55929Y-32057D01*
X56023Y-32057D01*
X56047Y-32080D01*
X56060Y-32085D01*
X56047Y-32091D01*
X56000Y-32139D01*
X55974Y-32200D01*
X55974Y-32267D01*
X55974Y-32365D01*
X55999Y-32427D01*
X56047Y-32474D01*
X56060Y-32479D01*
G54D10*
G36*
X56922Y-32538D02*
X56901Y-32386D01*
X56896Y-32374D01*
X56896Y-32359D01*
X56884Y-32315D01*
X56876Y-32301D01*
X56875Y-32291D01*
X56860Y-32269D01*
X56847Y-32243D01*
X56837Y-32234D01*
X56830Y-32224D01*
X56743Y-32137D01*
X56676Y-32092D01*
X56627Y-32082D01*
X56631Y-32081D01*
X56678Y-32033D01*
X56704Y-31972D01*
X56704Y-31905D01*
X56704Y-31807D01*
X56679Y-31745D01*
X56631Y-31698D01*
X56570Y-31672D01*
X56503Y-31672D01*
X56162Y-31672D01*
X56162Y-31632D01*
X56190Y-31614D01*
X56249Y-31529D01*
X56270Y-31427D01*
X56270Y-31388D01*
X56329Y-31388D01*
X56391Y-31363D01*
X56438Y-31315D01*
X56464Y-31254D01*
X56464Y-31187D01*
X56464Y-30794D01*
X56922Y-30794D01*
X56922Y-32538D01*
X56922Y-32538D01*
G37*
G54D19*
X56922Y-32538D02*
X56901Y-32386D01*
X56896Y-32374D01*
X56896Y-32359D01*
X56884Y-32315D01*
X56876Y-32301D01*
X56875Y-32291D01*
X56860Y-32269D01*
X56847Y-32243D01*
X56837Y-32234D01*
X56830Y-32224D01*
X56743Y-32137D01*
X56676Y-32092D01*
X56627Y-32082D01*
X56631Y-32081D01*
X56678Y-32033D01*
X56704Y-31972D01*
X56704Y-31905D01*
X56704Y-31807D01*
X56679Y-31745D01*
X56631Y-31698D01*
X56570Y-31672D01*
X56503Y-31672D01*
X56162Y-31672D01*
X56162Y-31632D01*
X56190Y-31614D01*
X56249Y-31529D01*
X56270Y-31427D01*
X56270Y-31388D01*
X56329Y-31388D01*
X56391Y-31363D01*
X56438Y-31315D01*
X56464Y-31254D01*
X56464Y-31187D01*
X56464Y-30794D01*
X56922Y-30794D01*
X56922Y-32538D01*
M02*
