G04 (created by PCBNEW-RS274X (2012-01-19 BZR 3256)-stable) date 30/09/2012 18:03:24*
G01*
G70*
G90*
%MOIN*%
G04 Gerber Fmt 3.4, Leading zero omitted, Abs format*
%FSLAX34Y34*%
G04 APERTURE LIST*
%ADD10C,0.006000*%
%ADD11C,0.039400*%
%ADD12C,0.035400*%
%ADD13C,0.019700*%
%ADD14C,0.010000*%
G04 APERTURE END LIST*
G54D10*
G54D11*
X54646Y-33543D03*
X55197Y-33543D03*
X55748Y-33543D03*
X56299Y-33543D03*
X56850Y-33543D03*
X54646Y-31575D03*
X54646Y-30906D03*
G54D12*
X56815Y-31969D03*
X55043Y-32996D03*
X55843Y-32209D03*
X54661Y-32122D03*
X56854Y-31504D03*
G54D13*
X54646Y-30906D02*
X55843Y-32209D01*
X55843Y-32209D02*
X55043Y-32996D01*
X55843Y-32209D02*
X54661Y-32122D01*
X55843Y-32209D02*
X56815Y-31969D01*
G54D10*
G36*
X56922Y-33178D02*
X56778Y-33178D01*
X56644Y-33233D01*
X56574Y-33302D01*
X56506Y-33234D01*
X56372Y-33178D01*
X56227Y-33178D01*
X56093Y-33233D01*
X56023Y-33302D01*
X55955Y-33234D01*
X55821Y-33178D01*
X55676Y-33178D01*
X55542Y-33233D01*
X55472Y-33302D01*
X55404Y-33234D01*
X55270Y-33178D01*
X55125Y-33178D01*
X54991Y-33233D01*
X54921Y-33302D01*
X54853Y-33234D01*
X54719Y-33178D01*
X54574Y-33178D01*
X54574Y-31940D01*
X54718Y-31940D01*
X54852Y-31885D01*
X54955Y-31782D01*
X55011Y-31648D01*
X55011Y-31503D01*
X54956Y-31369D01*
X54853Y-31266D01*
X54719Y-31210D01*
X54574Y-31210D01*
X54574Y-30794D01*
X56922Y-30794D01*
X56922Y-33178D01*
X56922Y-33178D01*
G37*
G54D14*
X56922Y-33178D02*
X56778Y-33178D01*
X56644Y-33233D01*
X56574Y-33302D01*
X56506Y-33234D01*
X56372Y-33178D01*
X56227Y-33178D01*
X56093Y-33233D01*
X56023Y-33302D01*
X55955Y-33234D01*
X55821Y-33178D01*
X55676Y-33178D01*
X55542Y-33233D01*
X55472Y-33302D01*
X55404Y-33234D01*
X55270Y-33178D01*
X55125Y-33178D01*
X54991Y-33233D01*
X54921Y-33302D01*
X54853Y-33234D01*
X54719Y-33178D01*
X54574Y-33178D01*
X54574Y-31940D01*
X54718Y-31940D01*
X54852Y-31885D01*
X54955Y-31782D01*
X55011Y-31648D01*
X55011Y-31503D01*
X54956Y-31369D01*
X54853Y-31266D01*
X54719Y-31210D01*
X54574Y-31210D01*
X54574Y-30794D01*
X56922Y-30794D01*
X56922Y-33178D01*
M02*
