G04 (created by PCBNEW (2013-07-07 BZR 4022)-stable) date 18/10/2014 20:02:36*
%MOIN*%
G04 Gerber Fmt 3.4, Leading zero omitted, Abs format*
%FSLAX34Y34*%
G01*
G70*
G90*
G04 APERTURE LIST*
%ADD10C,0.00590551*%
%ADD11C,0.00787402*%
%ADD12C,0.005*%
%ADD13C,0.01*%
%ADD14C,0.012*%
%ADD15C,0.0079*%
%ADD16C,0.0059*%
%ADD17C,0.00625*%
%ADD18C,0.0063*%
%ADD19C,0.0001*%
G04 APERTURE END LIST*
G54D10*
G54D11*
X75039Y-49645D02*
X75039Y-50944D01*
X72480Y-49645D02*
X75039Y-49645D01*
X86653Y-49212D02*
X87125Y-49212D01*
X86653Y-47952D02*
X86653Y-49212D01*
X87125Y-47952D02*
X86653Y-47952D01*
X79842Y-52637D02*
X79842Y-51456D01*
X79212Y-52637D02*
X79842Y-52637D01*
X77007Y-50905D02*
X77007Y-53267D01*
X78897Y-52637D02*
X78897Y-53267D01*
X79212Y-52637D02*
X78897Y-52637D01*
X78897Y-51456D02*
X79842Y-51456D01*
X78897Y-49409D02*
X78897Y-51456D01*
X77795Y-49409D02*
X78897Y-49409D01*
X87125Y-51535D02*
X87125Y-56338D01*
X87125Y-49212D02*
X87125Y-50354D01*
X87125Y-45354D02*
X87125Y-47952D01*
G54D10*
X78937Y-39763D02*
X79842Y-39763D01*
X79842Y-39763D02*
X79842Y-42795D01*
X79842Y-42795D02*
X78858Y-43464D01*
X78858Y-43464D02*
X75944Y-43464D01*
X75944Y-43464D02*
X74960Y-42795D01*
X74960Y-42795D02*
X74960Y-39763D01*
X74960Y-39763D02*
X75866Y-39763D01*
X78937Y-39763D02*
X78937Y-41968D01*
X78937Y-41968D02*
X75866Y-41968D01*
X75866Y-41968D02*
X75866Y-39763D01*
G54D12*
X85125Y-46977D02*
X85125Y-45777D01*
X85125Y-45777D02*
X85425Y-45777D01*
X85425Y-45777D02*
X85425Y-46977D01*
X85425Y-46977D02*
X85125Y-46977D01*
G54D13*
X80893Y-40811D02*
X79893Y-40811D01*
X80893Y-39811D02*
X80893Y-43811D01*
X80893Y-43811D02*
X79893Y-43811D01*
X79893Y-43811D02*
X79893Y-39811D01*
X79893Y-39811D02*
X80893Y-39811D01*
X89161Y-42358D02*
X89161Y-45358D01*
X89161Y-45358D02*
X88161Y-45358D01*
X88161Y-45358D02*
X88161Y-42358D01*
X88161Y-42358D02*
X89161Y-42358D01*
X88137Y-42358D02*
X88137Y-45358D01*
X88137Y-45358D02*
X87137Y-45358D01*
X87137Y-45358D02*
X87137Y-42358D01*
X87137Y-42358D02*
X88137Y-42358D01*
X73492Y-42437D02*
X73492Y-45437D01*
X73492Y-45437D02*
X72492Y-45437D01*
X72492Y-45437D02*
X72492Y-42437D01*
X72492Y-42437D02*
X73492Y-42437D01*
X74594Y-42437D02*
X74594Y-45437D01*
X74594Y-45437D02*
X73594Y-45437D01*
X73594Y-45437D02*
X73594Y-42437D01*
X73594Y-42437D02*
X74594Y-42437D01*
G54D14*
X75141Y-56405D02*
X75141Y-55405D01*
X75141Y-55405D02*
X77141Y-55405D01*
X77141Y-55405D02*
X77141Y-56405D01*
X77141Y-56405D02*
X75141Y-56405D01*
G54D15*
X84448Y-53976D02*
X84310Y-53976D01*
X84310Y-53976D02*
X84350Y-54015D01*
X84960Y-54035D02*
X84527Y-54035D01*
X84527Y-54035D02*
X84527Y-53523D01*
X84527Y-53523D02*
X85393Y-53523D01*
X85393Y-53523D02*
X85393Y-54035D01*
X85393Y-54035D02*
X84960Y-54035D01*
G54D10*
X79527Y-52637D02*
X79212Y-52637D01*
X79212Y-52637D02*
X79212Y-51456D01*
X79212Y-51456D02*
X79842Y-51456D01*
X79842Y-51456D02*
X79842Y-52637D01*
X79842Y-52637D02*
X79527Y-52637D01*
X78582Y-54448D02*
X78267Y-54448D01*
X78267Y-54448D02*
X78267Y-53267D01*
X78267Y-53267D02*
X78897Y-53267D01*
X78897Y-53267D02*
X78897Y-54448D01*
X78897Y-54448D02*
X78582Y-54448D01*
X84251Y-52952D02*
X83937Y-52952D01*
X83937Y-52952D02*
X83937Y-51771D01*
X83937Y-51771D02*
X84566Y-51771D01*
X84566Y-51771D02*
X84566Y-52952D01*
X84566Y-52952D02*
X84251Y-52952D01*
X84881Y-51771D02*
X85196Y-51771D01*
X85196Y-51771D02*
X85196Y-52952D01*
X85196Y-52952D02*
X84566Y-52952D01*
X84566Y-52952D02*
X84566Y-51771D01*
X84566Y-51771D02*
X84881Y-51771D01*
X73661Y-53307D02*
X73661Y-53622D01*
X73661Y-53622D02*
X72480Y-53622D01*
X72480Y-53622D02*
X72480Y-52992D01*
X72480Y-52992D02*
X73661Y-52992D01*
X73661Y-52992D02*
X73661Y-53307D01*
X73818Y-51968D02*
X73818Y-51653D01*
X73818Y-51653D02*
X75000Y-51653D01*
X75000Y-51653D02*
X75000Y-52283D01*
X75000Y-52283D02*
X73818Y-52283D01*
X73818Y-52283D02*
X73818Y-51968D01*
X73818Y-52677D02*
X73818Y-52362D01*
X73818Y-52362D02*
X75000Y-52362D01*
X75000Y-52362D02*
X75000Y-52992D01*
X75000Y-52992D02*
X73818Y-52992D01*
X73818Y-52992D02*
X73818Y-52677D01*
X77440Y-44251D02*
X77440Y-44566D01*
X77440Y-44566D02*
X76259Y-44566D01*
X76259Y-44566D02*
X76259Y-43937D01*
X76259Y-43937D02*
X77440Y-43937D01*
X77440Y-43937D02*
X77440Y-44251D01*
X78031Y-44527D02*
X78346Y-44527D01*
X78346Y-44527D02*
X78346Y-45708D01*
X78346Y-45708D02*
X77716Y-45708D01*
X77716Y-45708D02*
X77716Y-44527D01*
X77716Y-44527D02*
X78031Y-44527D01*
X85314Y-51259D02*
X85314Y-50944D01*
X85314Y-50944D02*
X86496Y-50944D01*
X86496Y-50944D02*
X86496Y-51574D01*
X86496Y-51574D02*
X85314Y-51574D01*
X85314Y-51574D02*
X85314Y-51259D01*
X73661Y-51338D02*
X73661Y-51653D01*
X73661Y-51653D02*
X72480Y-51653D01*
X72480Y-51653D02*
X72480Y-51023D01*
X72480Y-51023D02*
X73661Y-51023D01*
X73661Y-51023D02*
X73661Y-51338D01*
X80984Y-52677D02*
X80984Y-52362D01*
X80984Y-52362D02*
X82165Y-52362D01*
X82165Y-52362D02*
X82165Y-52992D01*
X82165Y-52992D02*
X80984Y-52992D01*
X80984Y-52992D02*
X80984Y-52677D01*
X89055Y-46653D02*
X88740Y-46653D01*
X88740Y-46653D02*
X88740Y-45472D01*
X88740Y-45472D02*
X89370Y-45472D01*
X89370Y-45472D02*
X89370Y-46653D01*
X89370Y-46653D02*
X89055Y-46653D01*
X88346Y-47459D02*
X88602Y-47203D01*
X88346Y-47203D02*
X89960Y-47203D01*
X89960Y-47203D02*
X89960Y-48817D01*
X89960Y-48817D02*
X88346Y-48817D01*
X88346Y-48817D02*
X88346Y-47203D01*
G54D16*
X77283Y-52441D02*
X77480Y-52638D01*
X77283Y-51456D02*
X78465Y-51456D01*
X78465Y-51456D02*
X78465Y-52638D01*
X78465Y-52638D02*
X77283Y-52638D01*
X77283Y-52638D02*
X77283Y-51456D01*
X81417Y-43976D02*
X86771Y-43976D01*
X85669Y-41969D02*
G75*
G03X86063Y-41575I0J394D01*
G74*
G01*
X86063Y-41575D02*
G75*
G03X85669Y-41181I-394J0D01*
G74*
G01*
X82519Y-41181D02*
G75*
G03X82125Y-41575I0J-394D01*
G74*
G01*
X82126Y-41575D02*
G75*
G03X82519Y-41968I393J0D01*
G74*
G01*
X85669Y-41181D02*
X82519Y-41181D01*
X82519Y-41968D02*
X85669Y-41968D01*
X81417Y-39842D02*
G75*
G03X86771Y-39842I2677J2677D01*
G74*
G01*
X81417Y-39842D02*
X86771Y-39842D01*
X86771Y-39842D02*
X86771Y-45512D01*
X86771Y-45512D02*
X81417Y-45512D01*
X81417Y-45512D02*
X81417Y-39842D01*
X80157Y-51338D02*
X80157Y-50787D01*
X80157Y-50787D02*
X79999Y-51023D01*
X80393Y-50551D02*
X79999Y-50157D01*
X79999Y-50551D02*
X79999Y-46613D01*
X79999Y-46613D02*
X83937Y-46613D01*
X83937Y-46613D02*
X83937Y-50551D01*
X83937Y-50551D02*
X79999Y-50551D01*
G54D12*
X77342Y-45827D02*
X77342Y-48543D01*
X77342Y-48543D02*
X74803Y-48543D01*
X74803Y-48523D02*
X74626Y-48346D01*
X74626Y-48346D02*
X74626Y-45807D01*
X74626Y-45807D02*
X77323Y-45807D01*
X75197Y-48149D02*
G75*
G03X75197Y-48149I-197J0D01*
G74*
G01*
G54D10*
X74921Y-44566D02*
X74862Y-44566D01*
X74862Y-44566D02*
X74862Y-43937D01*
X74862Y-43937D02*
X74921Y-43937D01*
X74921Y-43937D02*
X74822Y-43937D01*
X74822Y-43937D02*
X74822Y-44566D01*
X74822Y-44566D02*
X74862Y-44566D01*
X76102Y-44251D02*
X76102Y-44566D01*
X76102Y-44566D02*
X74921Y-44566D01*
X74921Y-44566D02*
X74921Y-43937D01*
X74921Y-43937D02*
X76102Y-43937D01*
X76102Y-43937D02*
X76102Y-44291D01*
G54D16*
X80197Y-54389D02*
X80295Y-54488D01*
X82165Y-53228D02*
X82165Y-54488D01*
X82165Y-54488D02*
X80197Y-54488D01*
X80197Y-54488D02*
X80197Y-53228D01*
X80197Y-53228D02*
X82165Y-53228D01*
X88897Y-50452D02*
X88897Y-51436D01*
X88897Y-51436D02*
X87637Y-51436D01*
X87637Y-51436D02*
X87637Y-50452D01*
X87637Y-50452D02*
X88897Y-50452D01*
G54D10*
X73976Y-49448D02*
X72480Y-49448D01*
X72480Y-49448D02*
X72480Y-48661D01*
X72480Y-48661D02*
X73976Y-48661D01*
X73976Y-48661D02*
X73976Y-49448D01*
X76574Y-50866D02*
X75078Y-50866D01*
X75078Y-50866D02*
X75078Y-50078D01*
X75078Y-50078D02*
X76574Y-50078D01*
X76574Y-50078D02*
X76574Y-50866D01*
X77007Y-50905D02*
X77007Y-49409D01*
X77007Y-49409D02*
X77795Y-49409D01*
X77795Y-49409D02*
X77795Y-50905D01*
X77795Y-50905D02*
X77007Y-50905D01*
X84921Y-48976D02*
X86417Y-48976D01*
X86417Y-48976D02*
X86417Y-49763D01*
X86417Y-49763D02*
X84921Y-49763D01*
X84921Y-49763D02*
X84921Y-48976D01*
X90551Y-46889D02*
X90236Y-46889D01*
X90236Y-46889D02*
X90236Y-45708D01*
X90236Y-45708D02*
X90866Y-45708D01*
X90866Y-45708D02*
X90866Y-46889D01*
X90866Y-46889D02*
X90551Y-46889D01*
X90000Y-49330D02*
X90314Y-49330D01*
X90314Y-49330D02*
X90314Y-50511D01*
X90314Y-50511D02*
X89685Y-50511D01*
X89685Y-50511D02*
X89685Y-49330D01*
X89685Y-49330D02*
X90000Y-49330D01*
X89645Y-49606D02*
X89645Y-49921D01*
X89645Y-49921D02*
X88464Y-49921D01*
X88464Y-49921D02*
X88464Y-49291D01*
X88464Y-49291D02*
X89645Y-49291D01*
X89645Y-49291D02*
X89645Y-49606D01*
X89685Y-46653D02*
X89370Y-46653D01*
X89370Y-46653D02*
X89370Y-45472D01*
X89370Y-45472D02*
X90000Y-45472D01*
X90000Y-45472D02*
X90000Y-46653D01*
X90000Y-46653D02*
X89685Y-46653D01*
X87834Y-48267D02*
X87834Y-48582D01*
X87834Y-48582D02*
X86653Y-48582D01*
X86653Y-48582D02*
X86653Y-47952D01*
X86653Y-47952D02*
X87834Y-47952D01*
X87834Y-47952D02*
X87834Y-48267D01*
X88425Y-46653D02*
X88110Y-46653D01*
X88110Y-46653D02*
X88110Y-45472D01*
X88110Y-45472D02*
X88740Y-45472D01*
X88740Y-45472D02*
X88740Y-46653D01*
X88740Y-46653D02*
X88425Y-46653D01*
X89370Y-50354D02*
X89685Y-50354D01*
X89685Y-50354D02*
X89685Y-51535D01*
X89685Y-51535D02*
X89055Y-51535D01*
X89055Y-51535D02*
X89055Y-50354D01*
X89055Y-50354D02*
X89370Y-50354D01*
X87834Y-48897D02*
X87834Y-49212D01*
X87834Y-49212D02*
X86653Y-49212D01*
X86653Y-49212D02*
X86653Y-48582D01*
X86653Y-48582D02*
X87834Y-48582D01*
X87834Y-48582D02*
X87834Y-48897D01*
X82755Y-53267D02*
X83070Y-53267D01*
X83070Y-53267D02*
X83070Y-54448D01*
X83070Y-54448D02*
X82440Y-54448D01*
X82440Y-54448D02*
X82440Y-53267D01*
X82440Y-53267D02*
X82755Y-53267D01*
X87165Y-51535D02*
X86850Y-51535D01*
X86850Y-51535D02*
X86850Y-50354D01*
X86850Y-50354D02*
X87480Y-50354D01*
X87480Y-50354D02*
X87480Y-51535D01*
X87480Y-51535D02*
X87165Y-51535D01*
X83149Y-51456D02*
X83464Y-51456D01*
X83464Y-51456D02*
X83464Y-52637D01*
X83464Y-52637D02*
X82834Y-52637D01*
X82834Y-52637D02*
X82834Y-51456D01*
X82834Y-51456D02*
X83149Y-51456D01*
X84921Y-47322D02*
X84921Y-47007D01*
X84921Y-47007D02*
X86102Y-47007D01*
X86102Y-47007D02*
X86102Y-47637D01*
X86102Y-47637D02*
X84921Y-47637D01*
X84921Y-47637D02*
X84921Y-47322D01*
X77322Y-53267D02*
X77637Y-53267D01*
X77637Y-53267D02*
X77637Y-54448D01*
X77637Y-54448D02*
X77007Y-54448D01*
X77007Y-54448D02*
X77007Y-53267D01*
X77007Y-53267D02*
X77322Y-53267D01*
X78661Y-45708D02*
X78346Y-45708D01*
X78346Y-45708D02*
X78346Y-44527D01*
X78346Y-44527D02*
X78976Y-44527D01*
X78976Y-44527D02*
X78976Y-45708D01*
X78976Y-45708D02*
X78661Y-45708D01*
X77952Y-53267D02*
X78267Y-53267D01*
X78267Y-53267D02*
X78267Y-54448D01*
X78267Y-54448D02*
X77637Y-54448D01*
X77637Y-54448D02*
X77637Y-53267D01*
X77637Y-53267D02*
X77952Y-53267D01*
X86220Y-45787D02*
X86535Y-45787D01*
X86535Y-45787D02*
X86535Y-46968D01*
X86535Y-46968D02*
X85905Y-46968D01*
X85905Y-46968D02*
X85905Y-45787D01*
X85905Y-45787D02*
X86220Y-45787D01*
X80236Y-45708D02*
X79921Y-45708D01*
X79921Y-45708D02*
X79921Y-44527D01*
X79921Y-44527D02*
X80551Y-44527D01*
X80551Y-44527D02*
X80551Y-45708D01*
X80551Y-45708D02*
X80236Y-45708D01*
X84921Y-47952D02*
X84921Y-47637D01*
X84921Y-47637D02*
X86102Y-47637D01*
X86102Y-47637D02*
X86102Y-48267D01*
X86102Y-48267D02*
X84921Y-48267D01*
X84921Y-48267D02*
X84921Y-47952D01*
X79527Y-45708D02*
X79212Y-45708D01*
X79212Y-45708D02*
X79212Y-44527D01*
X79212Y-44527D02*
X79842Y-44527D01*
X79842Y-44527D02*
X79842Y-45708D01*
X79842Y-45708D02*
X79527Y-45708D01*
X78582Y-50826D02*
X78267Y-50826D01*
X78267Y-50826D02*
X78267Y-49645D01*
X78267Y-49645D02*
X78897Y-49645D01*
X78897Y-49645D02*
X78897Y-50826D01*
X78897Y-50826D02*
X78582Y-50826D01*
X84921Y-50078D02*
X84921Y-49763D01*
X84921Y-49763D02*
X86102Y-49763D01*
X86102Y-49763D02*
X86102Y-50393D01*
X86102Y-50393D02*
X84921Y-50393D01*
X84921Y-50393D02*
X84921Y-50078D01*
X82519Y-51456D02*
X82834Y-51456D01*
X82834Y-51456D02*
X82834Y-52637D01*
X82834Y-52637D02*
X82204Y-52637D01*
X82204Y-52637D02*
X82204Y-51456D01*
X82204Y-51456D02*
X82519Y-51456D01*
X80472Y-51456D02*
X80787Y-51456D01*
X80787Y-51456D02*
X80787Y-52637D01*
X80787Y-52637D02*
X80157Y-52637D01*
X80157Y-52637D02*
X80157Y-51456D01*
X80157Y-51456D02*
X80472Y-51456D01*
X75393Y-54803D02*
X75393Y-54488D01*
X75393Y-54488D02*
X76574Y-54488D01*
X76574Y-54488D02*
X76574Y-55118D01*
X76574Y-55118D02*
X75393Y-55118D01*
X75393Y-55118D02*
X75393Y-54803D01*
X76574Y-51732D02*
X76574Y-52047D01*
X76574Y-52047D02*
X75393Y-52047D01*
X75393Y-52047D02*
X75393Y-51417D01*
X75393Y-51417D02*
X76574Y-51417D01*
X76574Y-51417D02*
X76574Y-51732D01*
X73661Y-47637D02*
X73661Y-47952D01*
X73661Y-47952D02*
X72480Y-47952D01*
X72480Y-47952D02*
X72480Y-47322D01*
X72480Y-47322D02*
X73661Y-47322D01*
X73661Y-47322D02*
X73661Y-47637D01*
X73661Y-48267D02*
X73661Y-48582D01*
X73661Y-48582D02*
X72480Y-48582D01*
X72480Y-48582D02*
X72480Y-47952D01*
X72480Y-47952D02*
X73661Y-47952D01*
X73661Y-47952D02*
X73661Y-48267D01*
X73661Y-52677D02*
X73661Y-52992D01*
X73661Y-52992D02*
X72480Y-52992D01*
X72480Y-52992D02*
X72480Y-52362D01*
X72480Y-52362D02*
X73661Y-52362D01*
X73661Y-52362D02*
X73661Y-52677D01*
X73661Y-51968D02*
X73661Y-52283D01*
X73661Y-52283D02*
X72480Y-52283D01*
X72480Y-52283D02*
X72480Y-51653D01*
X72480Y-51653D02*
X73661Y-51653D01*
X73661Y-51653D02*
X73661Y-51968D01*
X79606Y-54448D02*
X79291Y-54448D01*
X79291Y-54448D02*
X79291Y-53267D01*
X79291Y-53267D02*
X79921Y-53267D01*
X79921Y-53267D02*
X79921Y-54448D01*
X79921Y-54448D02*
X79606Y-54448D01*
X78582Y-47362D02*
X78267Y-47362D01*
X78267Y-47362D02*
X78267Y-46181D01*
X78267Y-46181D02*
X78897Y-46181D01*
X78897Y-46181D02*
X78897Y-47362D01*
X78897Y-47362D02*
X78582Y-47362D01*
X76259Y-49763D02*
X76259Y-50078D01*
X76259Y-50078D02*
X75078Y-50078D01*
X75078Y-50078D02*
X75078Y-49448D01*
X75078Y-49448D02*
X76259Y-49448D01*
X76259Y-49448D02*
X76259Y-49763D01*
X75000Y-51338D02*
X75000Y-51653D01*
X75000Y-51653D02*
X73818Y-51653D01*
X73818Y-51653D02*
X73818Y-51023D01*
X73818Y-51023D02*
X75000Y-51023D01*
X75000Y-51023D02*
X75000Y-51338D01*
X78582Y-48858D02*
X78267Y-48858D01*
X78267Y-48858D02*
X78267Y-47677D01*
X78267Y-47677D02*
X78897Y-47677D01*
X78897Y-47677D02*
X78897Y-48858D01*
X78897Y-48858D02*
X78582Y-48858D01*
X75000Y-53307D02*
X75000Y-53622D01*
X75000Y-53622D02*
X73818Y-53622D01*
X73818Y-53622D02*
X73818Y-52992D01*
X73818Y-52992D02*
X75000Y-52992D01*
X75000Y-52992D02*
X75000Y-53307D01*
X73661Y-46692D02*
X73661Y-47007D01*
X73661Y-47007D02*
X72480Y-47007D01*
X72480Y-47007D02*
X72480Y-46377D01*
X72480Y-46377D02*
X73661Y-46377D01*
X73661Y-46377D02*
X73661Y-46692D01*
X86062Y-53267D02*
X86377Y-53267D01*
X86377Y-53267D02*
X86377Y-54448D01*
X86377Y-54448D02*
X85748Y-54448D01*
X85748Y-54448D02*
X85748Y-53267D01*
X85748Y-53267D02*
X86062Y-53267D01*
X84015Y-54448D02*
X83700Y-54448D01*
X83700Y-54448D02*
X83700Y-53267D01*
X83700Y-53267D02*
X84330Y-53267D01*
X84330Y-53267D02*
X84330Y-54448D01*
X84330Y-54448D02*
X84015Y-54448D01*
X73661Y-46062D02*
X73661Y-46377D01*
X73661Y-46377D02*
X72480Y-46377D01*
X72480Y-46377D02*
X72480Y-45748D01*
X72480Y-45748D02*
X73661Y-45748D01*
X73661Y-45748D02*
X73661Y-46062D01*
X76732Y-52677D02*
X76653Y-52755D01*
X76653Y-52755D02*
X76653Y-52519D01*
G54D16*
X76456Y-52716D02*
X76575Y-52835D01*
G54D12*
X75393Y-53898D02*
X75393Y-52716D01*
X75393Y-52716D02*
X76575Y-52716D01*
X76575Y-52716D02*
X76575Y-53898D01*
X76575Y-53898D02*
X75393Y-53898D01*
X85305Y-52212D02*
X86505Y-52212D01*
X86505Y-52212D02*
X86505Y-52512D01*
X86505Y-52512D02*
X85305Y-52512D01*
X85305Y-52512D02*
X85305Y-52212D01*
G54D10*
X84724Y-56456D02*
X84724Y-58031D01*
X84724Y-58031D02*
X85511Y-58031D01*
X85511Y-58031D02*
X85511Y-56456D01*
X83031Y-54724D02*
X86417Y-54724D01*
X86417Y-54724D02*
X86417Y-56456D01*
X86417Y-56456D02*
X83031Y-56456D01*
X83031Y-56456D02*
X83031Y-54724D01*
X89901Y-49526D02*
X90248Y-49526D01*
X90248Y-49526D02*
X90248Y-49920D01*
X89901Y-46692D02*
X90248Y-46692D01*
X90248Y-46692D02*
X90248Y-46298D01*
X74071Y-41782D02*
X74308Y-41625D01*
X74071Y-41625D02*
X74308Y-41782D01*
X74308Y-41422D02*
X74308Y-41535D01*
X74071Y-41535D01*
X74071Y-41231D02*
X74071Y-41344D01*
X74184Y-41355D01*
X74173Y-41344D01*
X74161Y-41321D01*
X74161Y-41265D01*
X74173Y-41242D01*
X74184Y-41231D01*
X74206Y-41220D01*
X74263Y-41220D01*
X74285Y-41231D01*
X74296Y-41242D01*
X74308Y-41265D01*
X74308Y-41321D01*
X74296Y-41344D01*
X74285Y-41355D01*
G54D16*
X85432Y-45534D02*
X85421Y-45556D01*
X85399Y-45579D01*
X85365Y-45612D01*
X85354Y-45635D01*
X85354Y-45657D01*
X85410Y-45646D02*
X85399Y-45669D01*
X85376Y-45691D01*
X85331Y-45702D01*
X85253Y-45702D01*
X85208Y-45691D01*
X85185Y-45669D01*
X85174Y-45646D01*
X85174Y-45601D01*
X85185Y-45579D01*
X85208Y-45556D01*
X85253Y-45545D01*
X85331Y-45545D01*
X85376Y-45556D01*
X85399Y-45579D01*
X85410Y-45601D01*
X85410Y-45646D01*
X85410Y-45320D02*
X85410Y-45455D01*
X85410Y-45388D02*
X85174Y-45388D01*
X85208Y-45410D01*
X85230Y-45433D01*
X85241Y-45455D01*
X84544Y-46562D02*
X84308Y-46562D01*
X84544Y-46315D02*
X84431Y-46394D01*
X84544Y-46450D02*
X84308Y-46450D01*
X84308Y-46360D01*
X84319Y-46337D01*
X84330Y-46326D01*
X84353Y-46315D01*
X84387Y-46315D01*
X84409Y-46326D01*
X84420Y-46337D01*
X84431Y-46360D01*
X84431Y-46450D01*
X84544Y-46101D02*
X84544Y-46214D01*
X84308Y-46214D01*
X84544Y-46023D02*
X84308Y-46023D01*
X84476Y-45944D01*
X84308Y-45865D01*
X84544Y-45865D01*
X84544Y-45641D02*
X84544Y-45753D01*
X84308Y-45753D01*
X84544Y-45551D02*
X84544Y-45506D01*
X84533Y-45483D01*
X84521Y-45472D01*
X84488Y-45450D01*
X84443Y-45438D01*
X84353Y-45438D01*
X84330Y-45450D01*
X84319Y-45461D01*
X84308Y-45483D01*
X84308Y-45528D01*
X84319Y-45551D01*
X84330Y-45562D01*
X84353Y-45573D01*
X84409Y-45573D01*
X84431Y-45562D01*
X84443Y-45551D01*
X84454Y-45528D01*
X84454Y-45483D01*
X84443Y-45461D01*
X84431Y-45450D01*
X84409Y-45438D01*
X84308Y-45360D02*
X84308Y-45214D01*
X84398Y-45292D01*
X84398Y-45259D01*
X84409Y-45236D01*
X84420Y-45225D01*
X84443Y-45214D01*
X84499Y-45214D01*
X84521Y-45225D01*
X84533Y-45236D01*
X84544Y-45259D01*
X84544Y-45326D01*
X84533Y-45349D01*
X84521Y-45360D01*
X84308Y-45068D02*
X84308Y-45045D01*
X84319Y-45023D01*
X84330Y-45011D01*
X84353Y-45000D01*
X84398Y-44989D01*
X84454Y-44989D01*
X84499Y-45000D01*
X84521Y-45011D01*
X84533Y-45023D01*
X84544Y-45045D01*
X84544Y-45068D01*
X84533Y-45090D01*
X84521Y-45101D01*
X84499Y-45113D01*
X84454Y-45124D01*
X84398Y-45124D01*
X84353Y-45113D01*
X84330Y-45101D01*
X84319Y-45090D01*
X84308Y-45068D01*
X84308Y-44910D02*
X84308Y-44764D01*
X84398Y-44843D01*
X84398Y-44809D01*
X84409Y-44787D01*
X84420Y-44775D01*
X84443Y-44764D01*
X84499Y-44764D01*
X84521Y-44775D01*
X84533Y-44787D01*
X84544Y-44809D01*
X84544Y-44877D01*
X84533Y-44899D01*
X84521Y-44910D01*
G54D17*
X89260Y-42666D02*
X89510Y-42500D01*
X89260Y-42500D02*
X89510Y-42666D01*
X89510Y-42285D02*
X89510Y-42404D01*
X89260Y-42404D01*
X89510Y-42071D02*
X89510Y-42214D01*
X89510Y-42142D02*
X89260Y-42142D01*
X89296Y-42166D01*
X89320Y-42190D01*
X89332Y-42214D01*
X89510Y-41833D02*
X89510Y-41976D01*
X89510Y-41904D02*
X89260Y-41904D01*
X89296Y-41928D01*
X89320Y-41952D01*
X89332Y-41976D01*
G54D18*
G54D17*
X86859Y-42272D02*
X87109Y-42105D01*
X86859Y-42105D02*
X87109Y-42272D01*
X87109Y-41891D02*
X87109Y-42010D01*
X86859Y-42010D01*
X86859Y-41831D02*
X86859Y-41676D01*
X86954Y-41760D01*
X86954Y-41724D01*
X86966Y-41700D01*
X86978Y-41688D01*
X87001Y-41676D01*
X87061Y-41676D01*
X87085Y-41688D01*
X87097Y-41700D01*
X87109Y-41724D01*
X87109Y-41795D01*
X87097Y-41819D01*
X87085Y-41831D01*
G54D18*
G54D17*
X72491Y-42095D02*
X72658Y-42345D01*
X72658Y-42095D02*
X72491Y-42345D01*
X72872Y-42345D02*
X72753Y-42345D01*
X72753Y-42095D01*
X73086Y-42345D02*
X72944Y-42345D01*
X73015Y-42345D02*
X73015Y-42095D01*
X72991Y-42130D01*
X72967Y-42154D01*
X72944Y-42166D01*
G54D18*
G54D17*
X74654Y-42941D02*
X74904Y-42774D01*
X74654Y-42774D02*
X74904Y-42941D01*
X74904Y-42560D02*
X74904Y-42679D01*
X74654Y-42679D01*
X74654Y-42500D02*
X74654Y-42334D01*
X74904Y-42441D01*
G54D18*
G54D17*
X77216Y-56032D02*
X77382Y-56282D01*
X77382Y-56032D02*
X77216Y-56282D01*
X77597Y-56282D02*
X77478Y-56282D01*
X77478Y-56032D01*
X77787Y-56032D02*
X77739Y-56032D01*
X77716Y-56044D01*
X77704Y-56056D01*
X77680Y-56091D01*
X77668Y-56139D01*
X77668Y-56234D01*
X77680Y-56258D01*
X77692Y-56270D01*
X77716Y-56282D01*
X77763Y-56282D01*
X77787Y-56270D01*
X77799Y-56258D01*
X77811Y-56234D01*
X77811Y-56175D01*
X77799Y-56151D01*
X77787Y-56139D01*
X77763Y-56127D01*
X77716Y-56127D01*
X77692Y-56139D01*
X77680Y-56151D01*
X77668Y-56175D01*
G54D18*
G54D16*
X84685Y-53914D02*
X84685Y-53678D01*
X84741Y-53678D01*
X84775Y-53689D01*
X84797Y-53712D01*
X84808Y-53734D01*
X84820Y-53779D01*
X84820Y-53813D01*
X84808Y-53858D01*
X84797Y-53880D01*
X84775Y-53903D01*
X84741Y-53914D01*
X84685Y-53914D01*
X84910Y-53846D02*
X85022Y-53846D01*
X84887Y-53914D02*
X84966Y-53678D01*
X85044Y-53914D01*
X85101Y-53678D02*
X85247Y-53678D01*
X85168Y-53768D01*
X85202Y-53768D01*
X85224Y-53779D01*
X85235Y-53790D01*
X85247Y-53813D01*
X85247Y-53869D01*
X85235Y-53891D01*
X85224Y-53903D01*
X85202Y-53914D01*
X85134Y-53914D01*
X85112Y-53903D01*
X85101Y-53891D01*
X84084Y-54741D02*
X84084Y-54505D01*
X84218Y-54741D01*
X84218Y-54505D01*
X84466Y-54718D02*
X84454Y-54729D01*
X84421Y-54741D01*
X84398Y-54741D01*
X84365Y-54729D01*
X84342Y-54707D01*
X84331Y-54685D01*
X84320Y-54640D01*
X84320Y-54606D01*
X84331Y-54561D01*
X84342Y-54538D01*
X84365Y-54516D01*
X84398Y-54505D01*
X84421Y-54505D01*
X84454Y-54516D01*
X84466Y-54527D01*
X84567Y-54741D02*
X84567Y-54505D01*
X84657Y-54505D01*
X84679Y-54516D01*
X84690Y-54527D01*
X84702Y-54550D01*
X84702Y-54583D01*
X84690Y-54606D01*
X84679Y-54617D01*
X84657Y-54628D01*
X84567Y-54628D01*
X84915Y-54505D02*
X84803Y-54505D01*
X84792Y-54617D01*
X84803Y-54606D01*
X84825Y-54595D01*
X84881Y-54595D01*
X84904Y-54606D01*
X84915Y-54617D01*
X84926Y-54640D01*
X84926Y-54696D01*
X84915Y-54718D01*
X84904Y-54729D01*
X84881Y-54741D01*
X84825Y-54741D01*
X84803Y-54729D01*
X84792Y-54718D01*
X85061Y-54606D02*
X85039Y-54595D01*
X85028Y-54583D01*
X85016Y-54561D01*
X85016Y-54550D01*
X85028Y-54527D01*
X85039Y-54516D01*
X85061Y-54505D01*
X85106Y-54505D01*
X85129Y-54516D01*
X85140Y-54527D01*
X85151Y-54550D01*
X85151Y-54561D01*
X85140Y-54583D01*
X85129Y-54595D01*
X85106Y-54606D01*
X85061Y-54606D01*
X85039Y-54617D01*
X85028Y-54628D01*
X85016Y-54651D01*
X85016Y-54696D01*
X85028Y-54718D01*
X85039Y-54729D01*
X85061Y-54741D01*
X85106Y-54741D01*
X85129Y-54729D01*
X85140Y-54718D01*
X85151Y-54696D01*
X85151Y-54651D01*
X85140Y-54628D01*
X85129Y-54617D01*
X85106Y-54606D01*
X85230Y-54505D02*
X85376Y-54505D01*
X85297Y-54595D01*
X85331Y-54595D01*
X85353Y-54606D01*
X85365Y-54617D01*
X85376Y-54640D01*
X85376Y-54696D01*
X85365Y-54718D01*
X85353Y-54729D01*
X85331Y-54741D01*
X85264Y-54741D01*
X85241Y-54729D01*
X85230Y-54718D01*
X85466Y-54729D02*
X85500Y-54741D01*
X85556Y-54741D01*
X85578Y-54729D01*
X85589Y-54718D01*
X85601Y-54696D01*
X85601Y-54673D01*
X85589Y-54651D01*
X85578Y-54640D01*
X85556Y-54628D01*
X85511Y-54617D01*
X85488Y-54606D01*
X85477Y-54595D01*
X85466Y-54572D01*
X85466Y-54550D01*
X85477Y-54527D01*
X85488Y-54516D01*
X85511Y-54505D01*
X85567Y-54505D01*
X85601Y-54516D01*
X85859Y-54763D02*
X85837Y-54752D01*
X85814Y-54729D01*
X85781Y-54696D01*
X85758Y-54685D01*
X85736Y-54685D01*
X85747Y-54741D02*
X85724Y-54729D01*
X85702Y-54707D01*
X85691Y-54662D01*
X85691Y-54583D01*
X85702Y-54538D01*
X85724Y-54516D01*
X85747Y-54505D01*
X85792Y-54505D01*
X85814Y-54516D01*
X85837Y-54538D01*
X85848Y-54583D01*
X85848Y-54662D01*
X85837Y-54707D01*
X85814Y-54729D01*
X85792Y-54741D01*
X85747Y-54741D01*
G54D10*
X79173Y-52930D02*
X79094Y-52817D01*
X79038Y-52930D02*
X79038Y-52694D01*
X79128Y-52694D01*
X79150Y-52705D01*
X79161Y-52716D01*
X79173Y-52739D01*
X79173Y-52772D01*
X79161Y-52795D01*
X79150Y-52806D01*
X79128Y-52817D01*
X79038Y-52817D01*
X79263Y-52716D02*
X79274Y-52705D01*
X79296Y-52694D01*
X79353Y-52694D01*
X79375Y-52705D01*
X79386Y-52716D01*
X79398Y-52739D01*
X79398Y-52761D01*
X79386Y-52795D01*
X79251Y-52930D01*
X79398Y-52930D01*
X79032Y-52013D02*
X79190Y-52013D01*
X78942Y-52069D02*
X79111Y-52125D01*
X79111Y-51979D01*
X79190Y-51889D02*
X78953Y-51889D01*
X79100Y-51867D02*
X79190Y-51799D01*
X79032Y-51799D02*
X79122Y-51889D01*
X78953Y-51721D02*
X78953Y-51563D01*
X79190Y-51664D01*
X78678Y-54724D02*
X78565Y-54803D01*
X78678Y-54859D02*
X78442Y-54859D01*
X78442Y-54769D01*
X78453Y-54746D01*
X78464Y-54735D01*
X78487Y-54724D01*
X78520Y-54724D01*
X78543Y-54735D01*
X78554Y-54746D01*
X78565Y-54769D01*
X78565Y-54859D01*
X78678Y-54499D02*
X78678Y-54634D01*
X78678Y-54566D02*
X78442Y-54566D01*
X78475Y-54589D01*
X78498Y-54611D01*
X78509Y-54634D01*
X78520Y-55596D02*
X78678Y-55596D01*
X78430Y-55652D02*
X78599Y-55708D01*
X78599Y-55562D01*
X78678Y-55472D02*
X78442Y-55472D01*
X78588Y-55449D02*
X78678Y-55382D01*
X78520Y-55382D02*
X78610Y-55472D01*
X78442Y-55303D02*
X78442Y-55146D01*
X78678Y-55247D01*
X84111Y-51569D02*
X83998Y-51647D01*
X84111Y-51704D02*
X83875Y-51704D01*
X83875Y-51614D01*
X83886Y-51591D01*
X83897Y-51580D01*
X83920Y-51569D01*
X83953Y-51569D01*
X83976Y-51580D01*
X83987Y-51591D01*
X83998Y-51614D01*
X83998Y-51704D01*
X84111Y-51344D02*
X84111Y-51479D01*
X84111Y-51411D02*
X83875Y-51411D01*
X83908Y-51434D01*
X83931Y-51456D01*
X83942Y-51479D01*
X83897Y-51254D02*
X83886Y-51242D01*
X83875Y-51220D01*
X83875Y-51164D01*
X83886Y-51141D01*
X83897Y-51130D01*
X83920Y-51119D01*
X83942Y-51119D01*
X83976Y-51130D01*
X84111Y-51265D01*
X84111Y-51119D01*
X84820Y-51552D02*
X84820Y-51687D01*
X84820Y-51619D02*
X84583Y-51619D01*
X84617Y-51642D01*
X84640Y-51664D01*
X84651Y-51687D01*
X84583Y-51406D02*
X84583Y-51383D01*
X84595Y-51361D01*
X84606Y-51349D01*
X84628Y-51338D01*
X84673Y-51327D01*
X84730Y-51327D01*
X84775Y-51338D01*
X84797Y-51349D01*
X84808Y-51361D01*
X84820Y-51383D01*
X84820Y-51406D01*
X84808Y-51428D01*
X84797Y-51439D01*
X84775Y-51451D01*
X84730Y-51462D01*
X84673Y-51462D01*
X84628Y-51451D01*
X84606Y-51439D01*
X84595Y-51428D01*
X84583Y-51406D01*
X84583Y-51181D02*
X84583Y-51158D01*
X84595Y-51136D01*
X84606Y-51124D01*
X84628Y-51113D01*
X84673Y-51102D01*
X84730Y-51102D01*
X84775Y-51113D01*
X84797Y-51124D01*
X84808Y-51136D01*
X84820Y-51158D01*
X84820Y-51181D01*
X84808Y-51203D01*
X84797Y-51214D01*
X84775Y-51226D01*
X84730Y-51237D01*
X84673Y-51237D01*
X84628Y-51226D01*
X84606Y-51214D01*
X84595Y-51203D01*
X84583Y-51181D01*
X84820Y-51001D02*
X84583Y-51001D01*
X84730Y-50978D02*
X84820Y-50911D01*
X84662Y-50911D02*
X84752Y-51001D01*
X84769Y-53205D02*
X84690Y-53093D01*
X84634Y-53205D02*
X84634Y-52969D01*
X84724Y-52969D01*
X84746Y-52980D01*
X84758Y-52992D01*
X84769Y-53014D01*
X84769Y-53048D01*
X84758Y-53070D01*
X84746Y-53082D01*
X84724Y-53093D01*
X84634Y-53093D01*
X84994Y-53205D02*
X84859Y-53205D01*
X84926Y-53205D02*
X84926Y-52969D01*
X84904Y-53003D01*
X84881Y-53025D01*
X84859Y-53037D01*
X85073Y-52969D02*
X85219Y-52969D01*
X85140Y-53059D01*
X85174Y-53059D01*
X85196Y-53070D01*
X85208Y-53082D01*
X85219Y-53104D01*
X85219Y-53160D01*
X85208Y-53183D01*
X85196Y-53194D01*
X85174Y-53205D01*
X85106Y-53205D01*
X85084Y-53194D01*
X85073Y-53183D01*
X84426Y-51552D02*
X84426Y-51687D01*
X84426Y-51619D02*
X84190Y-51619D01*
X84223Y-51642D01*
X84246Y-51664D01*
X84257Y-51687D01*
X84190Y-51406D02*
X84190Y-51383D01*
X84201Y-51361D01*
X84212Y-51349D01*
X84235Y-51338D01*
X84280Y-51327D01*
X84336Y-51327D01*
X84381Y-51338D01*
X84403Y-51349D01*
X84415Y-51361D01*
X84426Y-51383D01*
X84426Y-51406D01*
X84415Y-51428D01*
X84403Y-51439D01*
X84381Y-51451D01*
X84336Y-51462D01*
X84280Y-51462D01*
X84235Y-51451D01*
X84212Y-51439D01*
X84201Y-51428D01*
X84190Y-51406D01*
X84190Y-51181D02*
X84190Y-51158D01*
X84201Y-51136D01*
X84212Y-51124D01*
X84235Y-51113D01*
X84280Y-51102D01*
X84336Y-51102D01*
X84381Y-51113D01*
X84403Y-51124D01*
X84415Y-51136D01*
X84426Y-51158D01*
X84426Y-51181D01*
X84415Y-51203D01*
X84403Y-51214D01*
X84381Y-51226D01*
X84336Y-51237D01*
X84280Y-51237D01*
X84235Y-51226D01*
X84212Y-51214D01*
X84201Y-51203D01*
X84190Y-51181D01*
X84426Y-51001D02*
X84190Y-51001D01*
X84336Y-50978D02*
X84426Y-50911D01*
X84268Y-50911D02*
X84358Y-51001D01*
X72716Y-50922D02*
X72637Y-50809D01*
X72581Y-50922D02*
X72581Y-50686D01*
X72671Y-50686D01*
X72694Y-50697D01*
X72705Y-50708D01*
X72716Y-50731D01*
X72716Y-50764D01*
X72705Y-50787D01*
X72694Y-50798D01*
X72671Y-50809D01*
X72581Y-50809D01*
X72930Y-50686D02*
X72817Y-50686D01*
X72806Y-50798D01*
X72817Y-50787D01*
X72840Y-50776D01*
X72896Y-50776D01*
X72919Y-50787D01*
X72930Y-50798D01*
X72941Y-50821D01*
X72941Y-50877D01*
X72930Y-50899D01*
X72919Y-50911D01*
X72896Y-50922D01*
X72840Y-50922D01*
X72817Y-50911D01*
X72806Y-50899D01*
X73323Y-50708D02*
X73335Y-50697D01*
X73357Y-50686D01*
X73413Y-50686D01*
X73436Y-50697D01*
X73447Y-50708D01*
X73458Y-50731D01*
X73458Y-50753D01*
X73447Y-50787D01*
X73312Y-50922D01*
X73458Y-50922D01*
X73605Y-50686D02*
X73627Y-50686D01*
X73650Y-50697D01*
X73661Y-50708D01*
X73672Y-50731D01*
X73683Y-50776D01*
X73683Y-50832D01*
X73672Y-50877D01*
X73661Y-50899D01*
X73650Y-50911D01*
X73627Y-50922D01*
X73605Y-50922D01*
X73582Y-50911D01*
X73571Y-50899D01*
X73560Y-50877D01*
X73548Y-50832D01*
X73548Y-50776D01*
X73560Y-50731D01*
X73571Y-50708D01*
X73582Y-50697D01*
X73605Y-50686D01*
X74015Y-50292D02*
X73937Y-50179D01*
X73880Y-50292D02*
X73880Y-50056D01*
X73970Y-50056D01*
X73993Y-50067D01*
X74004Y-50078D01*
X74015Y-50101D01*
X74015Y-50134D01*
X74004Y-50157D01*
X73993Y-50168D01*
X73970Y-50179D01*
X73880Y-50179D01*
X74150Y-50157D02*
X74128Y-50146D01*
X74116Y-50134D01*
X74105Y-50112D01*
X74105Y-50101D01*
X74116Y-50078D01*
X74128Y-50067D01*
X74150Y-50056D01*
X74195Y-50056D01*
X74218Y-50067D01*
X74229Y-50078D01*
X74240Y-50101D01*
X74240Y-50112D01*
X74229Y-50134D01*
X74218Y-50146D01*
X74195Y-50157D01*
X74150Y-50157D01*
X74128Y-50168D01*
X74116Y-50179D01*
X74105Y-50202D01*
X74105Y-50247D01*
X74116Y-50269D01*
X74128Y-50281D01*
X74150Y-50292D01*
X74195Y-50292D01*
X74218Y-50281D01*
X74229Y-50269D01*
X74240Y-50247D01*
X74240Y-50202D01*
X74229Y-50179D01*
X74218Y-50168D01*
X74195Y-50157D01*
X74544Y-50292D02*
X74409Y-50292D01*
X74476Y-50292D02*
X74476Y-50056D01*
X74454Y-50089D01*
X74431Y-50112D01*
X74409Y-50123D01*
X74690Y-50056D02*
X74713Y-50056D01*
X74735Y-50067D01*
X74746Y-50078D01*
X74758Y-50101D01*
X74769Y-50146D01*
X74769Y-50202D01*
X74758Y-50247D01*
X74746Y-50269D01*
X74735Y-50281D01*
X74713Y-50292D01*
X74690Y-50292D01*
X74668Y-50281D01*
X74656Y-50269D01*
X74645Y-50247D01*
X74634Y-50202D01*
X74634Y-50146D01*
X74645Y-50101D01*
X74656Y-50078D01*
X74668Y-50067D01*
X74690Y-50056D01*
X74870Y-50292D02*
X74870Y-50056D01*
X74893Y-50202D02*
X74960Y-50292D01*
X74960Y-50134D02*
X74870Y-50224D01*
X74015Y-50607D02*
X73937Y-50494D01*
X73880Y-50607D02*
X73880Y-50371D01*
X73970Y-50371D01*
X73993Y-50382D01*
X74004Y-50393D01*
X74015Y-50416D01*
X74015Y-50449D01*
X74004Y-50472D01*
X73993Y-50483D01*
X73970Y-50494D01*
X73880Y-50494D01*
X74094Y-50371D02*
X74251Y-50371D01*
X74150Y-50607D01*
X74544Y-50607D02*
X74409Y-50607D01*
X74476Y-50607D02*
X74476Y-50371D01*
X74454Y-50404D01*
X74431Y-50427D01*
X74409Y-50438D01*
X74690Y-50371D02*
X74713Y-50371D01*
X74735Y-50382D01*
X74746Y-50393D01*
X74758Y-50416D01*
X74769Y-50461D01*
X74769Y-50517D01*
X74758Y-50562D01*
X74746Y-50584D01*
X74735Y-50596D01*
X74713Y-50607D01*
X74690Y-50607D01*
X74668Y-50596D01*
X74656Y-50584D01*
X74645Y-50562D01*
X74634Y-50517D01*
X74634Y-50461D01*
X74645Y-50416D01*
X74656Y-50393D01*
X74668Y-50382D01*
X74690Y-50371D01*
X74870Y-50607D02*
X74870Y-50371D01*
X74893Y-50517D02*
X74960Y-50607D01*
X74960Y-50449D02*
X74870Y-50539D01*
X77013Y-44859D02*
X76934Y-44746D01*
X76878Y-44859D02*
X76878Y-44623D01*
X76968Y-44623D01*
X76991Y-44634D01*
X77002Y-44645D01*
X77013Y-44668D01*
X77013Y-44701D01*
X77002Y-44724D01*
X76991Y-44735D01*
X76968Y-44746D01*
X76878Y-44746D01*
X77238Y-44859D02*
X77103Y-44859D01*
X77170Y-44859D02*
X77170Y-44623D01*
X77148Y-44656D01*
X77125Y-44679D01*
X77103Y-44690D01*
X77463Y-44859D02*
X77328Y-44859D01*
X77395Y-44859D02*
X77395Y-44623D01*
X77373Y-44656D01*
X77350Y-44679D01*
X77328Y-44690D01*
X76507Y-43835D02*
X76372Y-43835D01*
X76439Y-43835D02*
X76439Y-43599D01*
X76417Y-43633D01*
X76394Y-43655D01*
X76372Y-43667D01*
X76608Y-43835D02*
X76608Y-43599D01*
X76631Y-43745D02*
X76698Y-43835D01*
X76698Y-43678D02*
X76608Y-43768D01*
X78323Y-43897D02*
X78211Y-43976D01*
X78323Y-44032D02*
X78087Y-44032D01*
X78087Y-43942D01*
X78098Y-43920D01*
X78110Y-43908D01*
X78132Y-43897D01*
X78166Y-43897D01*
X78188Y-43908D01*
X78200Y-43920D01*
X78211Y-43942D01*
X78211Y-44032D01*
X78323Y-43785D02*
X78323Y-43740D01*
X78312Y-43717D01*
X78301Y-43706D01*
X78267Y-43683D01*
X78222Y-43672D01*
X78132Y-43672D01*
X78110Y-43683D01*
X78098Y-43695D01*
X78087Y-43717D01*
X78087Y-43762D01*
X78098Y-43785D01*
X78110Y-43796D01*
X78132Y-43807D01*
X78188Y-43807D01*
X78211Y-43796D01*
X78222Y-43785D01*
X78233Y-43762D01*
X78233Y-43717D01*
X78222Y-43695D01*
X78211Y-43683D01*
X78188Y-43672D01*
X78008Y-44280D02*
X78008Y-44415D01*
X78008Y-44347D02*
X77772Y-44347D01*
X77806Y-44370D01*
X77829Y-44392D01*
X77840Y-44415D01*
X78008Y-44178D02*
X77772Y-44178D01*
X77919Y-44156D02*
X78008Y-44088D01*
X77851Y-44088D02*
X77941Y-44178D01*
X85039Y-51512D02*
X84960Y-51400D01*
X84904Y-51512D02*
X84904Y-51276D01*
X84994Y-51276D01*
X85016Y-51287D01*
X85028Y-51299D01*
X85039Y-51321D01*
X85039Y-51355D01*
X85028Y-51377D01*
X85016Y-51389D01*
X84994Y-51400D01*
X84904Y-51400D01*
X85241Y-51355D02*
X85241Y-51512D01*
X85185Y-51265D02*
X85129Y-51434D01*
X85275Y-51434D01*
X85050Y-51158D02*
X84915Y-51158D01*
X84983Y-51158D02*
X84983Y-50922D01*
X84960Y-50956D01*
X84938Y-50978D01*
X84915Y-50989D01*
X85151Y-51158D02*
X85151Y-50922D01*
X85174Y-51068D02*
X85241Y-51158D01*
X85241Y-51001D02*
X85151Y-51091D01*
X72716Y-49977D02*
X72637Y-49865D01*
X72581Y-49977D02*
X72581Y-49741D01*
X72671Y-49741D01*
X72694Y-49752D01*
X72705Y-49763D01*
X72716Y-49786D01*
X72716Y-49820D01*
X72705Y-49842D01*
X72694Y-49853D01*
X72671Y-49865D01*
X72581Y-49865D01*
X72795Y-49741D02*
X72941Y-49741D01*
X72862Y-49831D01*
X72896Y-49831D01*
X72919Y-49842D01*
X72930Y-49853D01*
X72941Y-49876D01*
X72941Y-49932D01*
X72930Y-49955D01*
X72919Y-49966D01*
X72896Y-49977D01*
X72829Y-49977D01*
X72806Y-49966D01*
X72795Y-49955D01*
X73323Y-49763D02*
X73335Y-49752D01*
X73357Y-49741D01*
X73413Y-49741D01*
X73436Y-49752D01*
X73447Y-49763D01*
X73458Y-49786D01*
X73458Y-49808D01*
X73447Y-49842D01*
X73312Y-49977D01*
X73458Y-49977D01*
X73605Y-49741D02*
X73627Y-49741D01*
X73650Y-49752D01*
X73661Y-49763D01*
X73672Y-49786D01*
X73683Y-49831D01*
X73683Y-49887D01*
X73672Y-49932D01*
X73661Y-49955D01*
X73650Y-49966D01*
X73627Y-49977D01*
X73605Y-49977D01*
X73582Y-49966D01*
X73571Y-49955D01*
X73560Y-49932D01*
X73548Y-49887D01*
X73548Y-49831D01*
X73560Y-49786D01*
X73571Y-49763D01*
X73582Y-49752D01*
X73605Y-49741D01*
X81107Y-51985D02*
X81029Y-51872D01*
X80973Y-51985D02*
X80973Y-51749D01*
X81062Y-51749D01*
X81085Y-51760D01*
X81096Y-51771D01*
X81107Y-51794D01*
X81107Y-51827D01*
X81096Y-51850D01*
X81085Y-51861D01*
X81062Y-51872D01*
X80973Y-51872D01*
X81332Y-51985D02*
X81197Y-51985D01*
X81265Y-51985D02*
X81265Y-51749D01*
X81242Y-51782D01*
X81220Y-51805D01*
X81197Y-51816D01*
X81479Y-51749D02*
X81501Y-51749D01*
X81524Y-51760D01*
X81535Y-51771D01*
X81546Y-51794D01*
X81557Y-51839D01*
X81557Y-51895D01*
X81546Y-51940D01*
X81535Y-51962D01*
X81524Y-51974D01*
X81501Y-51985D01*
X81479Y-51985D01*
X81456Y-51974D01*
X81445Y-51962D01*
X81434Y-51940D01*
X81422Y-51895D01*
X81422Y-51839D01*
X81434Y-51794D01*
X81445Y-51771D01*
X81456Y-51760D01*
X81479Y-51749D01*
X80967Y-52086D02*
X80978Y-52075D01*
X81001Y-52064D01*
X81057Y-52064D01*
X81079Y-52075D01*
X81091Y-52086D01*
X81102Y-52109D01*
X81102Y-52131D01*
X81091Y-52165D01*
X80956Y-52300D01*
X81102Y-52300D01*
X81192Y-52086D02*
X81203Y-52075D01*
X81226Y-52064D01*
X81282Y-52064D01*
X81304Y-52075D01*
X81316Y-52086D01*
X81327Y-52109D01*
X81327Y-52131D01*
X81316Y-52165D01*
X81181Y-52300D01*
X81327Y-52300D01*
X81473Y-52064D02*
X81496Y-52064D01*
X81518Y-52075D01*
X81529Y-52086D01*
X81541Y-52109D01*
X81552Y-52154D01*
X81552Y-52210D01*
X81541Y-52255D01*
X81529Y-52277D01*
X81518Y-52289D01*
X81496Y-52300D01*
X81473Y-52300D01*
X81451Y-52289D01*
X81439Y-52277D01*
X81428Y-52255D01*
X81417Y-52210D01*
X81417Y-52154D01*
X81428Y-52109D01*
X81439Y-52086D01*
X81451Y-52075D01*
X81473Y-52064D01*
X81788Y-52300D02*
X81709Y-52187D01*
X81653Y-52300D02*
X81653Y-52064D01*
X81743Y-52064D01*
X81766Y-52075D01*
X81777Y-52086D01*
X81788Y-52109D01*
X81788Y-52142D01*
X81777Y-52165D01*
X81766Y-52176D01*
X81743Y-52187D01*
X81653Y-52187D01*
X89144Y-46084D02*
X89032Y-46163D01*
X89144Y-46219D02*
X88908Y-46219D01*
X88908Y-46129D01*
X88919Y-46106D01*
X88931Y-46095D01*
X88953Y-46084D01*
X88987Y-46084D01*
X89009Y-46095D01*
X89021Y-46106D01*
X89032Y-46129D01*
X89032Y-46219D01*
X88908Y-45881D02*
X88908Y-45926D01*
X88919Y-45949D01*
X88931Y-45960D01*
X88964Y-45983D01*
X89009Y-45994D01*
X89099Y-45994D01*
X89122Y-45983D01*
X89133Y-45971D01*
X89144Y-45949D01*
X89144Y-45904D01*
X89133Y-45881D01*
X89122Y-45870D01*
X89099Y-45859D01*
X89043Y-45859D01*
X89021Y-45870D01*
X89009Y-45881D01*
X88998Y-45904D01*
X88998Y-45949D01*
X89009Y-45971D01*
X89021Y-45983D01*
X89043Y-45994D01*
X88987Y-45133D02*
X88987Y-45246D01*
X89099Y-45257D01*
X89088Y-45246D01*
X89077Y-45223D01*
X89077Y-45167D01*
X89088Y-45145D01*
X89099Y-45133D01*
X89122Y-45122D01*
X89178Y-45122D01*
X89200Y-45133D01*
X89212Y-45145D01*
X89223Y-45167D01*
X89223Y-45223D01*
X89212Y-45246D01*
X89200Y-45257D01*
X88987Y-44920D02*
X88987Y-44965D01*
X88998Y-44987D01*
X89009Y-44998D01*
X89043Y-45021D01*
X89088Y-45032D01*
X89178Y-45032D01*
X89200Y-45021D01*
X89212Y-45010D01*
X89223Y-44987D01*
X89223Y-44942D01*
X89212Y-44920D01*
X89200Y-44908D01*
X89178Y-44897D01*
X89122Y-44897D01*
X89099Y-44908D01*
X89088Y-44920D01*
X89077Y-44942D01*
X89077Y-44987D01*
X89088Y-45010D01*
X89099Y-45021D01*
X89122Y-45032D01*
X89223Y-44796D02*
X88987Y-44796D01*
X89133Y-44773D02*
X89223Y-44706D01*
X89066Y-44706D02*
X89155Y-44796D01*
X88859Y-47961D02*
X88859Y-47725D01*
X88915Y-47725D01*
X88949Y-47736D01*
X88971Y-47758D01*
X88982Y-47781D01*
X88994Y-47826D01*
X88994Y-47860D01*
X88982Y-47905D01*
X88971Y-47927D01*
X88949Y-47950D01*
X88915Y-47961D01*
X88859Y-47961D01*
X89095Y-47961D02*
X89095Y-47725D01*
X89151Y-47725D01*
X89185Y-47736D01*
X89207Y-47758D01*
X89219Y-47781D01*
X89230Y-47826D01*
X89230Y-47860D01*
X89219Y-47905D01*
X89207Y-47927D01*
X89185Y-47950D01*
X89151Y-47961D01*
X89095Y-47961D01*
X89320Y-47747D02*
X89331Y-47736D01*
X89354Y-47725D01*
X89410Y-47725D01*
X89432Y-47736D01*
X89444Y-47747D01*
X89455Y-47770D01*
X89455Y-47792D01*
X89444Y-47826D01*
X89309Y-47961D01*
X89455Y-47961D01*
X88678Y-48301D02*
X88667Y-48312D01*
X88633Y-48323D01*
X88610Y-48323D01*
X88577Y-48312D01*
X88554Y-48290D01*
X88543Y-48267D01*
X88532Y-48222D01*
X88532Y-48188D01*
X88543Y-48143D01*
X88554Y-48121D01*
X88577Y-48098D01*
X88610Y-48087D01*
X88633Y-48087D01*
X88667Y-48098D01*
X88678Y-48110D01*
X88914Y-48301D02*
X88903Y-48312D01*
X88869Y-48323D01*
X88847Y-48323D01*
X88813Y-48312D01*
X88790Y-48290D01*
X88779Y-48267D01*
X88768Y-48222D01*
X88768Y-48188D01*
X88779Y-48143D01*
X88790Y-48121D01*
X88813Y-48098D01*
X88847Y-48087D01*
X88869Y-48087D01*
X88903Y-48098D01*
X88914Y-48110D01*
X89004Y-48110D02*
X89015Y-48098D01*
X89038Y-48087D01*
X89094Y-48087D01*
X89116Y-48098D01*
X89128Y-48110D01*
X89139Y-48132D01*
X89139Y-48155D01*
X89128Y-48188D01*
X88993Y-48323D01*
X89139Y-48323D01*
X89353Y-48087D02*
X89240Y-48087D01*
X89229Y-48200D01*
X89240Y-48188D01*
X89263Y-48177D01*
X89319Y-48177D01*
X89341Y-48188D01*
X89353Y-48200D01*
X89364Y-48222D01*
X89364Y-48278D01*
X89353Y-48301D01*
X89341Y-48312D01*
X89319Y-48323D01*
X89263Y-48323D01*
X89240Y-48312D01*
X89229Y-48301D01*
X89510Y-48087D02*
X89533Y-48087D01*
X89555Y-48098D01*
X89566Y-48110D01*
X89578Y-48132D01*
X89589Y-48177D01*
X89589Y-48233D01*
X89578Y-48278D01*
X89566Y-48301D01*
X89555Y-48312D01*
X89533Y-48323D01*
X89510Y-48323D01*
X89488Y-48312D01*
X89476Y-48301D01*
X89465Y-48278D01*
X89454Y-48233D01*
X89454Y-48177D01*
X89465Y-48132D01*
X89476Y-48110D01*
X89488Y-48098D01*
X89510Y-48087D01*
X89735Y-48087D02*
X89758Y-48087D01*
X89780Y-48098D01*
X89791Y-48110D01*
X89803Y-48132D01*
X89814Y-48177D01*
X89814Y-48233D01*
X89803Y-48278D01*
X89791Y-48301D01*
X89780Y-48312D01*
X89758Y-48323D01*
X89735Y-48323D01*
X89713Y-48312D01*
X89701Y-48301D01*
X89690Y-48278D01*
X89679Y-48233D01*
X89679Y-48177D01*
X89690Y-48132D01*
X89701Y-48110D01*
X89713Y-48098D01*
X89735Y-48087D01*
G54D16*
X77500Y-52082D02*
X77500Y-51832D01*
X77559Y-51832D01*
X77595Y-51844D01*
X77619Y-51868D01*
X77631Y-51892D01*
X77643Y-51940D01*
X77643Y-51975D01*
X77631Y-52023D01*
X77619Y-52047D01*
X77595Y-52071D01*
X77559Y-52082D01*
X77500Y-52082D01*
X77750Y-52082D02*
X77750Y-51832D01*
X77809Y-51832D01*
X77845Y-51844D01*
X77869Y-51868D01*
X77881Y-51892D01*
X77893Y-51940D01*
X77893Y-51975D01*
X77881Y-52023D01*
X77869Y-52047D01*
X77845Y-52071D01*
X77809Y-52082D01*
X77750Y-52082D01*
X78131Y-52082D02*
X77988Y-52082D01*
X78059Y-52082D02*
X78059Y-51832D01*
X78036Y-51868D01*
X78012Y-51892D01*
X77988Y-51904D01*
X77130Y-49353D02*
X77130Y-49103D01*
X77213Y-49281D01*
X77297Y-49103D01*
X77297Y-49353D01*
X77416Y-49353D02*
X77416Y-49103D01*
X77499Y-49281D01*
X77582Y-49103D01*
X77582Y-49353D01*
X77689Y-49281D02*
X77808Y-49281D01*
X77666Y-49353D02*
X77749Y-49103D01*
X77832Y-49353D01*
X77951Y-49210D02*
X77928Y-49198D01*
X77916Y-49186D01*
X77904Y-49162D01*
X77904Y-49150D01*
X77916Y-49126D01*
X77928Y-49115D01*
X77951Y-49103D01*
X77999Y-49103D01*
X78023Y-49115D01*
X78035Y-49126D01*
X78047Y-49150D01*
X78047Y-49162D01*
X78035Y-49186D01*
X78023Y-49198D01*
X77999Y-49210D01*
X77951Y-49210D01*
X77928Y-49222D01*
X77916Y-49234D01*
X77904Y-49257D01*
X77904Y-49305D01*
X77916Y-49329D01*
X77928Y-49341D01*
X77951Y-49353D01*
X77999Y-49353D01*
X78023Y-49341D01*
X78035Y-49329D01*
X78047Y-49305D01*
X78047Y-49257D01*
X78035Y-49234D01*
X78023Y-49222D01*
X77999Y-49210D01*
X78261Y-49186D02*
X78261Y-49353D01*
X78201Y-49091D02*
X78142Y-49269D01*
X78297Y-49269D01*
X78511Y-49103D02*
X78392Y-49103D01*
X78380Y-49222D01*
X78392Y-49210D01*
X78416Y-49198D01*
X78475Y-49198D01*
X78499Y-49210D01*
X78511Y-49222D01*
X78523Y-49246D01*
X78523Y-49305D01*
X78511Y-49329D01*
X78499Y-49341D01*
X78475Y-49353D01*
X78416Y-49353D01*
X78392Y-49341D01*
X78380Y-49329D01*
X78618Y-49126D02*
X78630Y-49115D01*
X78654Y-49103D01*
X78713Y-49103D01*
X78737Y-49115D01*
X78749Y-49126D01*
X78761Y-49150D01*
X78761Y-49174D01*
X78749Y-49210D01*
X78606Y-49353D01*
X78761Y-49353D01*
X79035Y-49376D02*
X79011Y-49365D01*
X78987Y-49341D01*
X78951Y-49305D01*
X78928Y-49293D01*
X78904Y-49293D01*
X78916Y-49353D02*
X78892Y-49341D01*
X78868Y-49317D01*
X78856Y-49269D01*
X78856Y-49186D01*
X78868Y-49138D01*
X78892Y-49115D01*
X78916Y-49103D01*
X78963Y-49103D01*
X78987Y-49115D01*
X79011Y-49138D01*
X79023Y-49186D01*
X79023Y-49269D01*
X79011Y-49317D01*
X78987Y-49341D01*
X78963Y-49353D01*
X78916Y-49353D01*
X83840Y-43567D02*
X83997Y-43803D01*
X83997Y-43567D02*
X83840Y-43803D01*
X84199Y-43803D02*
X84087Y-43803D01*
X84087Y-43567D01*
X84312Y-43669D02*
X84289Y-43657D01*
X84278Y-43646D01*
X84267Y-43624D01*
X84267Y-43612D01*
X84278Y-43590D01*
X84289Y-43579D01*
X84312Y-43567D01*
X84357Y-43567D01*
X84379Y-43579D01*
X84390Y-43590D01*
X84402Y-43612D01*
X84402Y-43624D01*
X84390Y-43646D01*
X84379Y-43657D01*
X84357Y-43669D01*
X84312Y-43669D01*
X84289Y-43680D01*
X84278Y-43691D01*
X84267Y-43713D01*
X84267Y-43758D01*
X84278Y-43781D01*
X84289Y-43792D01*
X84312Y-43803D01*
X84357Y-43803D01*
X84379Y-43792D01*
X84390Y-43781D01*
X84402Y-43758D01*
X84402Y-43713D01*
X84390Y-43691D01*
X84379Y-43680D01*
X84357Y-43669D01*
X82997Y-44253D02*
X82986Y-44265D01*
X82952Y-44276D01*
X82929Y-44276D01*
X82896Y-44265D01*
X82873Y-44242D01*
X82862Y-44220D01*
X82851Y-44175D01*
X82851Y-44141D01*
X82862Y-44096D01*
X82873Y-44074D01*
X82896Y-44051D01*
X82929Y-44040D01*
X82952Y-44040D01*
X82986Y-44051D01*
X82997Y-44062D01*
X83143Y-44040D02*
X83188Y-44040D01*
X83210Y-44051D01*
X83233Y-44074D01*
X83244Y-44118D01*
X83244Y-44197D01*
X83233Y-44242D01*
X83210Y-44265D01*
X83188Y-44276D01*
X83143Y-44276D01*
X83120Y-44265D01*
X83098Y-44242D01*
X83087Y-44197D01*
X83087Y-44118D01*
X83098Y-44074D01*
X83120Y-44051D01*
X83143Y-44040D01*
X83345Y-44276D02*
X83345Y-44040D01*
X83480Y-44276D01*
X83480Y-44040D01*
X83592Y-44276D02*
X83592Y-44040D01*
X83727Y-44276D01*
X83727Y-44040D01*
X83784Y-44298D02*
X83963Y-44298D01*
X84020Y-44276D02*
X84020Y-44040D01*
X84098Y-44208D01*
X84177Y-44040D01*
X84177Y-44276D01*
X84289Y-44276D02*
X84289Y-44040D01*
X84536Y-44253D02*
X84525Y-44265D01*
X84492Y-44276D01*
X84469Y-44276D01*
X84435Y-44265D01*
X84413Y-44242D01*
X84402Y-44220D01*
X84390Y-44175D01*
X84390Y-44141D01*
X84402Y-44096D01*
X84413Y-44074D01*
X84435Y-44051D01*
X84469Y-44040D01*
X84492Y-44040D01*
X84525Y-44051D01*
X84536Y-44062D01*
X84772Y-44276D02*
X84694Y-44163D01*
X84638Y-44276D02*
X84638Y-44040D01*
X84728Y-44040D01*
X84750Y-44051D01*
X84761Y-44062D01*
X84772Y-44085D01*
X84772Y-44118D01*
X84761Y-44141D01*
X84750Y-44152D01*
X84728Y-44163D01*
X84638Y-44163D01*
X84919Y-44040D02*
X84964Y-44040D01*
X84986Y-44051D01*
X85008Y-44074D01*
X85020Y-44118D01*
X85020Y-44197D01*
X85008Y-44242D01*
X84986Y-44265D01*
X84964Y-44276D01*
X84919Y-44276D01*
X84896Y-44265D01*
X84874Y-44242D01*
X84862Y-44197D01*
X84862Y-44118D01*
X84874Y-44074D01*
X84896Y-44051D01*
X84919Y-44040D01*
X85110Y-44265D02*
X85143Y-44276D01*
X85200Y-44276D01*
X85222Y-44265D01*
X85233Y-44253D01*
X85244Y-44231D01*
X85244Y-44208D01*
X85233Y-44186D01*
X85222Y-44175D01*
X85200Y-44163D01*
X85155Y-44152D01*
X85132Y-44141D01*
X85121Y-44130D01*
X85110Y-44107D01*
X85110Y-44085D01*
X85121Y-44062D01*
X85132Y-44051D01*
X85155Y-44040D01*
X85211Y-44040D01*
X85244Y-44051D01*
X85346Y-44276D02*
X85346Y-44040D01*
X85402Y-44040D01*
X85436Y-44051D01*
X85458Y-44074D01*
X85469Y-44096D01*
X85480Y-44141D01*
X85480Y-44175D01*
X85469Y-44220D01*
X85458Y-44242D01*
X85436Y-44265D01*
X85402Y-44276D01*
X85346Y-44276D01*
X81709Y-48914D02*
X81473Y-48914D01*
X81473Y-48858D01*
X81484Y-48824D01*
X81507Y-48801D01*
X81529Y-48790D01*
X81574Y-48779D01*
X81608Y-48779D01*
X81653Y-48790D01*
X81675Y-48801D01*
X81698Y-48824D01*
X81709Y-48858D01*
X81709Y-48914D01*
X81709Y-48678D02*
X81473Y-48678D01*
X81473Y-48622D01*
X81484Y-48588D01*
X81507Y-48565D01*
X81529Y-48554D01*
X81574Y-48543D01*
X81608Y-48543D01*
X81653Y-48554D01*
X81675Y-48565D01*
X81698Y-48588D01*
X81709Y-48622D01*
X81709Y-48678D01*
X81473Y-48464D02*
X81473Y-48318D01*
X81563Y-48397D01*
X81563Y-48363D01*
X81574Y-48341D01*
X81586Y-48329D01*
X81608Y-48318D01*
X81664Y-48318D01*
X81687Y-48329D01*
X81698Y-48341D01*
X81709Y-48363D01*
X81709Y-48430D01*
X81698Y-48453D01*
X81687Y-48464D01*
X82092Y-50139D02*
X82103Y-50105D01*
X82103Y-50049D01*
X82092Y-50026D01*
X82080Y-50015D01*
X82058Y-50004D01*
X82035Y-50004D01*
X82013Y-50015D01*
X82002Y-50026D01*
X81991Y-50049D01*
X81979Y-50094D01*
X81968Y-50116D01*
X81957Y-50127D01*
X81934Y-50139D01*
X81912Y-50139D01*
X81889Y-50127D01*
X81878Y-50116D01*
X81867Y-50094D01*
X81867Y-50038D01*
X81878Y-50004D01*
X81867Y-49936D02*
X81867Y-49802D01*
X82103Y-49869D02*
X81867Y-49869D01*
X82103Y-49723D02*
X81867Y-49723D01*
X82035Y-49644D01*
X81867Y-49566D01*
X82103Y-49566D01*
X81867Y-49476D02*
X81867Y-49330D01*
X81957Y-49408D01*
X81957Y-49374D01*
X81968Y-49352D01*
X81979Y-49341D01*
X82002Y-49330D01*
X82058Y-49330D01*
X82080Y-49341D01*
X82092Y-49352D01*
X82103Y-49374D01*
X82103Y-49442D01*
X82092Y-49464D01*
X82080Y-49476D01*
X81889Y-49240D02*
X81878Y-49228D01*
X81867Y-49206D01*
X81867Y-49150D01*
X81878Y-49127D01*
X81889Y-49116D01*
X81912Y-49105D01*
X81934Y-49105D01*
X81968Y-49116D01*
X82103Y-49251D01*
X82103Y-49105D01*
X81979Y-48925D02*
X81979Y-49004D01*
X82103Y-49004D02*
X81867Y-49004D01*
X81867Y-48891D01*
X81889Y-48813D02*
X81878Y-48801D01*
X81867Y-48779D01*
X81867Y-48723D01*
X81878Y-48700D01*
X81889Y-48689D01*
X81912Y-48678D01*
X81934Y-48678D01*
X81968Y-48689D01*
X82103Y-48824D01*
X82103Y-48678D01*
X81867Y-48532D02*
X81867Y-48509D01*
X81878Y-48487D01*
X81889Y-48475D01*
X81912Y-48464D01*
X81957Y-48453D01*
X82013Y-48453D01*
X82058Y-48464D01*
X82080Y-48475D01*
X82092Y-48487D01*
X82103Y-48509D01*
X82103Y-48532D01*
X82092Y-48554D01*
X82080Y-48565D01*
X82058Y-48577D01*
X82013Y-48588D01*
X81957Y-48588D01*
X81912Y-48577D01*
X81889Y-48565D01*
X81878Y-48554D01*
X81867Y-48532D01*
X81867Y-48239D02*
X81867Y-48352D01*
X81979Y-48363D01*
X81968Y-48352D01*
X81957Y-48329D01*
X81957Y-48273D01*
X81968Y-48251D01*
X81979Y-48239D01*
X82002Y-48228D01*
X82058Y-48228D01*
X82080Y-48239D01*
X82092Y-48251D01*
X82103Y-48273D01*
X82103Y-48329D01*
X82092Y-48352D01*
X82080Y-48363D01*
X82103Y-47992D02*
X81991Y-48071D01*
X82103Y-48127D02*
X81867Y-48127D01*
X81867Y-48037D01*
X81878Y-48015D01*
X81889Y-48003D01*
X81912Y-47992D01*
X81946Y-47992D01*
X81968Y-48003D01*
X81979Y-48015D01*
X81991Y-48037D01*
X81991Y-48127D01*
X81867Y-47914D02*
X82103Y-47756D01*
X81867Y-47756D02*
X82103Y-47914D01*
X82013Y-47666D02*
X82013Y-47486D01*
X81867Y-47273D02*
X81867Y-47318D01*
X81878Y-47340D01*
X81889Y-47352D01*
X81923Y-47374D01*
X81968Y-47385D01*
X82058Y-47385D01*
X82080Y-47374D01*
X82092Y-47363D01*
X82103Y-47340D01*
X82103Y-47295D01*
X82092Y-47273D01*
X82080Y-47262D01*
X82058Y-47250D01*
X82002Y-47250D01*
X81979Y-47262D01*
X81968Y-47273D01*
X81957Y-47295D01*
X81957Y-47340D01*
X81968Y-47363D01*
X81979Y-47374D01*
X82002Y-47385D01*
X81946Y-47048D02*
X82103Y-47048D01*
X81856Y-47104D02*
X82024Y-47161D01*
X82024Y-47014D01*
X75749Y-47441D02*
X75513Y-47441D01*
X75513Y-47384D01*
X75524Y-47351D01*
X75547Y-47328D01*
X75569Y-47317D01*
X75614Y-47306D01*
X75648Y-47306D01*
X75693Y-47317D01*
X75715Y-47328D01*
X75738Y-47351D01*
X75749Y-47384D01*
X75749Y-47441D01*
X75682Y-47216D02*
X75682Y-47103D01*
X75749Y-47238D02*
X75513Y-47160D01*
X75749Y-47081D01*
X75749Y-46879D02*
X75749Y-47014D01*
X75749Y-46946D02*
X75513Y-46946D01*
X75547Y-46969D01*
X75569Y-46991D01*
X75581Y-47014D01*
X76182Y-47766D02*
X76418Y-47688D01*
X76182Y-47609D01*
X76407Y-47542D02*
X76418Y-47508D01*
X76418Y-47452D01*
X76407Y-47429D01*
X76396Y-47418D01*
X76374Y-47407D01*
X76351Y-47407D01*
X76329Y-47418D01*
X76317Y-47429D01*
X76306Y-47452D01*
X76295Y-47497D01*
X76284Y-47519D01*
X76272Y-47530D01*
X76250Y-47542D01*
X76227Y-47542D01*
X76205Y-47530D01*
X76194Y-47519D01*
X76182Y-47497D01*
X76182Y-47441D01*
X76194Y-47407D01*
X76418Y-47182D02*
X76418Y-47317D01*
X76418Y-47249D02*
X76182Y-47249D01*
X76216Y-47272D01*
X76239Y-47294D01*
X76250Y-47317D01*
X76182Y-47036D02*
X76182Y-47013D01*
X76194Y-46991D01*
X76205Y-46980D01*
X76227Y-46969D01*
X76272Y-46957D01*
X76329Y-46957D01*
X76374Y-46969D01*
X76396Y-46980D01*
X76407Y-46991D01*
X76418Y-47013D01*
X76418Y-47036D01*
X76407Y-47058D01*
X76396Y-47070D01*
X76374Y-47081D01*
X76329Y-47092D01*
X76272Y-47092D01*
X76227Y-47081D01*
X76205Y-47070D01*
X76194Y-47058D01*
X76182Y-47036D01*
X76418Y-46733D02*
X76418Y-46867D01*
X76418Y-46800D02*
X76182Y-46800D01*
X76216Y-46822D01*
X76239Y-46845D01*
X76250Y-46867D01*
X76418Y-46508D02*
X76418Y-46643D01*
X76418Y-46575D02*
X76182Y-46575D01*
X76216Y-46598D01*
X76239Y-46620D01*
X76250Y-46643D01*
G54D10*
X74904Y-43835D02*
X74904Y-43599D01*
X74960Y-43599D01*
X74994Y-43610D01*
X75016Y-43633D01*
X75028Y-43655D01*
X75039Y-43700D01*
X75039Y-43734D01*
X75028Y-43779D01*
X75016Y-43802D01*
X74994Y-43824D01*
X74960Y-43835D01*
X74904Y-43835D01*
X75264Y-43835D02*
X75129Y-43835D01*
X75196Y-43835D02*
X75196Y-43599D01*
X75174Y-43633D01*
X75151Y-43655D01*
X75129Y-43667D01*
X75674Y-43835D02*
X75562Y-43835D01*
X75562Y-43599D01*
X75753Y-43712D02*
X75832Y-43712D01*
X75866Y-43835D02*
X75753Y-43835D01*
X75753Y-43599D01*
X75866Y-43599D01*
X75967Y-43835D02*
X75967Y-43599D01*
X76023Y-43599D01*
X76057Y-43610D01*
X76079Y-43633D01*
X76091Y-43655D01*
X76102Y-43700D01*
X76102Y-43734D01*
X76091Y-43779D01*
X76079Y-43802D01*
X76057Y-43824D01*
X76023Y-43835D01*
X75967Y-43835D01*
X80613Y-54898D02*
X80478Y-54898D01*
X80545Y-54898D02*
X80545Y-54662D01*
X80523Y-54696D01*
X80500Y-54718D01*
X80478Y-54730D01*
X80703Y-54685D02*
X80714Y-54673D01*
X80736Y-54662D01*
X80793Y-54662D01*
X80815Y-54673D01*
X80826Y-54685D01*
X80838Y-54707D01*
X80838Y-54730D01*
X80826Y-54763D01*
X80691Y-54898D01*
X80838Y-54898D01*
X80939Y-54876D02*
X80950Y-54887D01*
X80939Y-54898D01*
X80928Y-54887D01*
X80939Y-54876D01*
X80939Y-54898D01*
X81096Y-54662D02*
X81119Y-54662D01*
X81141Y-54673D01*
X81152Y-54685D01*
X81164Y-54707D01*
X81175Y-54752D01*
X81175Y-54808D01*
X81164Y-54853D01*
X81152Y-54876D01*
X81141Y-54887D01*
X81119Y-54898D01*
X81096Y-54898D01*
X81074Y-54887D01*
X81062Y-54876D01*
X81051Y-54853D01*
X81040Y-54808D01*
X81040Y-54752D01*
X81051Y-54707D01*
X81062Y-54685D01*
X81074Y-54673D01*
X81096Y-54662D01*
X81276Y-54898D02*
X81276Y-54662D01*
X81355Y-54831D01*
X81434Y-54662D01*
X81434Y-54898D01*
X81546Y-54898D02*
X81546Y-54662D01*
X81546Y-54775D02*
X81681Y-54775D01*
X81681Y-54898D02*
X81681Y-54662D01*
X81771Y-54741D02*
X81895Y-54741D01*
X81771Y-54898D01*
X81895Y-54898D01*
G54D16*
X87632Y-51591D02*
X87789Y-51827D01*
X87789Y-51591D02*
X87632Y-51827D01*
X87846Y-51591D02*
X87980Y-51591D01*
X87913Y-51827D02*
X87913Y-51591D01*
X88048Y-51760D02*
X88160Y-51760D01*
X88025Y-51827D02*
X88104Y-51591D01*
X88183Y-51827D01*
X88374Y-51827D02*
X88261Y-51827D01*
X88261Y-51591D01*
X88576Y-51827D02*
X88441Y-51827D01*
X88509Y-51827D02*
X88509Y-51591D01*
X88486Y-51625D01*
X88464Y-51647D01*
X88441Y-51659D01*
X87615Y-51968D02*
X87627Y-51957D01*
X87649Y-51946D01*
X87705Y-51946D01*
X87728Y-51957D01*
X87739Y-51968D01*
X87750Y-51991D01*
X87750Y-52013D01*
X87739Y-52047D01*
X87604Y-52182D01*
X87750Y-52182D01*
X87829Y-51946D02*
X87986Y-51946D01*
X87885Y-52182D01*
X88076Y-52182D02*
X88076Y-51946D01*
X88155Y-52114D01*
X88233Y-51946D01*
X88233Y-52182D01*
X88346Y-52182D02*
X88346Y-51946D01*
X88346Y-52058D02*
X88481Y-52058D01*
X88481Y-52182D02*
X88481Y-51946D01*
X88571Y-52024D02*
X88694Y-52024D01*
X88571Y-52182D01*
X88694Y-52182D01*
G54D10*
X74246Y-49325D02*
X74257Y-49336D01*
X74268Y-49370D01*
X74268Y-49392D01*
X74257Y-49426D01*
X74235Y-49448D01*
X74212Y-49460D01*
X74167Y-49471D01*
X74133Y-49471D01*
X74088Y-49460D01*
X74066Y-49448D01*
X74043Y-49426D01*
X74032Y-49392D01*
X74032Y-49370D01*
X74043Y-49336D01*
X74055Y-49325D01*
X74055Y-49235D02*
X74043Y-49223D01*
X74032Y-49201D01*
X74032Y-49145D01*
X74043Y-49122D01*
X74055Y-49111D01*
X74077Y-49100D01*
X74100Y-49100D01*
X74133Y-49111D01*
X74268Y-49246D01*
X74268Y-49100D01*
X74032Y-48897D02*
X74032Y-48942D01*
X74043Y-48965D01*
X74055Y-48976D01*
X74088Y-48998D01*
X74133Y-49010D01*
X74223Y-49010D01*
X74246Y-48998D01*
X74257Y-48987D01*
X74268Y-48965D01*
X74268Y-48920D01*
X74257Y-48897D01*
X74246Y-48886D01*
X74223Y-48875D01*
X74167Y-48875D01*
X74145Y-48886D01*
X74133Y-48897D01*
X74122Y-48920D01*
X74122Y-48965D01*
X74133Y-48987D01*
X74145Y-48998D01*
X74167Y-49010D01*
X74583Y-49285D02*
X74583Y-49420D01*
X74583Y-49353D02*
X74347Y-49353D01*
X74381Y-49375D01*
X74403Y-49398D01*
X74415Y-49420D01*
X74347Y-49139D02*
X74347Y-49116D01*
X74358Y-49094D01*
X74370Y-49083D01*
X74392Y-49071D01*
X74437Y-49060D01*
X74493Y-49060D01*
X74538Y-49071D01*
X74561Y-49083D01*
X74572Y-49094D01*
X74583Y-49116D01*
X74583Y-49139D01*
X74572Y-49161D01*
X74561Y-49173D01*
X74538Y-49184D01*
X74493Y-49195D01*
X74437Y-49195D01*
X74392Y-49184D01*
X74370Y-49173D01*
X74358Y-49161D01*
X74347Y-49139D01*
X74426Y-48858D02*
X74583Y-48858D01*
X74426Y-48959D02*
X74550Y-48959D01*
X74572Y-48948D01*
X74583Y-48925D01*
X74583Y-48892D01*
X74572Y-48869D01*
X74561Y-48858D01*
X75399Y-51057D02*
X75388Y-51068D01*
X75354Y-51079D01*
X75331Y-51079D01*
X75298Y-51068D01*
X75275Y-51046D01*
X75264Y-51023D01*
X75253Y-50978D01*
X75253Y-50944D01*
X75264Y-50899D01*
X75275Y-50877D01*
X75298Y-50854D01*
X75331Y-50843D01*
X75354Y-50843D01*
X75388Y-50854D01*
X75399Y-50866D01*
X75478Y-50843D02*
X75624Y-50843D01*
X75545Y-50933D01*
X75579Y-50933D01*
X75601Y-50944D01*
X75613Y-50956D01*
X75624Y-50978D01*
X75624Y-51034D01*
X75613Y-51057D01*
X75601Y-51068D01*
X75579Y-51079D01*
X75511Y-51079D01*
X75489Y-51068D01*
X75478Y-51057D01*
X75770Y-50843D02*
X75793Y-50843D01*
X75815Y-50854D01*
X75826Y-50866D01*
X75838Y-50888D01*
X75849Y-50933D01*
X75849Y-50989D01*
X75838Y-51034D01*
X75826Y-51057D01*
X75815Y-51068D01*
X75793Y-51079D01*
X75770Y-51079D01*
X75748Y-51068D01*
X75736Y-51057D01*
X75725Y-51034D01*
X75714Y-50989D01*
X75714Y-50933D01*
X75725Y-50888D01*
X75736Y-50866D01*
X75748Y-50854D01*
X75770Y-50843D01*
X76670Y-49876D02*
X76670Y-50011D01*
X76670Y-49943D02*
X76434Y-49943D01*
X76467Y-49966D01*
X76490Y-49988D01*
X76501Y-50011D01*
X76434Y-49730D02*
X76434Y-49707D01*
X76445Y-49685D01*
X76456Y-49673D01*
X76479Y-49662D01*
X76524Y-49651D01*
X76580Y-49651D01*
X76625Y-49662D01*
X76647Y-49673D01*
X76659Y-49685D01*
X76670Y-49707D01*
X76670Y-49730D01*
X76659Y-49752D01*
X76647Y-49763D01*
X76625Y-49775D01*
X76580Y-49786D01*
X76524Y-49786D01*
X76479Y-49775D01*
X76456Y-49763D01*
X76445Y-49752D01*
X76434Y-49730D01*
X76512Y-49448D02*
X76670Y-49448D01*
X76512Y-49550D02*
X76636Y-49550D01*
X76659Y-49538D01*
X76670Y-49516D01*
X76670Y-49482D01*
X76659Y-49460D01*
X76647Y-49448D01*
X78065Y-50781D02*
X78076Y-50793D01*
X78087Y-50826D01*
X78087Y-50849D01*
X78076Y-50883D01*
X78053Y-50905D01*
X78031Y-50916D01*
X77986Y-50928D01*
X77952Y-50928D01*
X77907Y-50916D01*
X77885Y-50905D01*
X77862Y-50883D01*
X77851Y-50849D01*
X77851Y-50826D01*
X77862Y-50793D01*
X77874Y-50781D01*
X78087Y-50556D02*
X78087Y-50691D01*
X78087Y-50624D02*
X77851Y-50624D01*
X77885Y-50646D01*
X77907Y-50669D01*
X77919Y-50691D01*
X77851Y-50410D02*
X77851Y-50388D01*
X77862Y-50365D01*
X77874Y-50354D01*
X77896Y-50343D01*
X77941Y-50331D01*
X77997Y-50331D01*
X78042Y-50343D01*
X78065Y-50354D01*
X78076Y-50365D01*
X78087Y-50388D01*
X78087Y-50410D01*
X78076Y-50433D01*
X78065Y-50444D01*
X78042Y-50455D01*
X77997Y-50466D01*
X77941Y-50466D01*
X77896Y-50455D01*
X77874Y-50444D01*
X77862Y-50433D01*
X77851Y-50410D01*
X76946Y-50309D02*
X76946Y-50444D01*
X76946Y-50376D02*
X76709Y-50376D01*
X76743Y-50399D01*
X76766Y-50421D01*
X76777Y-50444D01*
X76709Y-50163D02*
X76709Y-50140D01*
X76721Y-50118D01*
X76732Y-50106D01*
X76754Y-50095D01*
X76799Y-50084D01*
X76856Y-50084D01*
X76901Y-50095D01*
X76923Y-50106D01*
X76934Y-50118D01*
X76946Y-50140D01*
X76946Y-50163D01*
X76934Y-50185D01*
X76923Y-50196D01*
X76901Y-50208D01*
X76856Y-50219D01*
X76799Y-50219D01*
X76754Y-50208D01*
X76732Y-50196D01*
X76721Y-50185D01*
X76709Y-50163D01*
X76788Y-49881D02*
X76946Y-49881D01*
X76788Y-49983D02*
X76912Y-49983D01*
X76934Y-49971D01*
X76946Y-49949D01*
X76946Y-49915D01*
X76934Y-49893D01*
X76923Y-49881D01*
X87002Y-49836D02*
X87013Y-49848D01*
X87024Y-49881D01*
X87024Y-49904D01*
X87013Y-49938D01*
X86991Y-49960D01*
X86968Y-49971D01*
X86923Y-49983D01*
X86889Y-49983D01*
X86844Y-49971D01*
X86822Y-49960D01*
X86799Y-49938D01*
X86788Y-49904D01*
X86788Y-49881D01*
X86799Y-49848D01*
X86811Y-49836D01*
X86867Y-49634D02*
X87024Y-49634D01*
X86777Y-49690D02*
X86946Y-49746D01*
X86946Y-49600D01*
X86788Y-49533D02*
X86788Y-49386D01*
X86878Y-49465D01*
X86878Y-49431D01*
X86889Y-49409D01*
X86901Y-49398D01*
X86923Y-49386D01*
X86979Y-49386D01*
X87002Y-49398D01*
X87013Y-49409D01*
X87024Y-49431D01*
X87024Y-49499D01*
X87013Y-49521D01*
X87002Y-49533D01*
X86709Y-49836D02*
X86709Y-49971D01*
X86709Y-49904D02*
X86473Y-49904D01*
X86507Y-49926D01*
X86529Y-49949D01*
X86541Y-49971D01*
X86473Y-49690D02*
X86473Y-49668D01*
X86484Y-49645D01*
X86496Y-49634D01*
X86518Y-49623D01*
X86563Y-49611D01*
X86619Y-49611D01*
X86664Y-49623D01*
X86687Y-49634D01*
X86698Y-49645D01*
X86709Y-49668D01*
X86709Y-49690D01*
X86698Y-49713D01*
X86687Y-49724D01*
X86664Y-49735D01*
X86619Y-49746D01*
X86563Y-49746D01*
X86518Y-49735D01*
X86496Y-49724D01*
X86484Y-49713D01*
X86473Y-49690D01*
X86552Y-49409D02*
X86709Y-49409D01*
X86552Y-49510D02*
X86676Y-49510D01*
X86698Y-49499D01*
X86709Y-49476D01*
X86709Y-49443D01*
X86698Y-49420D01*
X86687Y-49409D01*
X91136Y-46372D02*
X91147Y-46383D01*
X91158Y-46417D01*
X91158Y-46439D01*
X91147Y-46473D01*
X91124Y-46496D01*
X91102Y-46507D01*
X91057Y-46518D01*
X91023Y-46518D01*
X90978Y-46507D01*
X90956Y-46496D01*
X90933Y-46473D01*
X90922Y-46439D01*
X90922Y-46417D01*
X90933Y-46383D01*
X90944Y-46372D01*
X90944Y-46282D02*
X90933Y-46271D01*
X90922Y-46248D01*
X90922Y-46192D01*
X90933Y-46169D01*
X90944Y-46158D01*
X90967Y-46147D01*
X90989Y-46147D01*
X91023Y-46158D01*
X91158Y-46293D01*
X91158Y-46147D01*
X90922Y-46001D02*
X90922Y-45978D01*
X90933Y-45956D01*
X90944Y-45944D01*
X90967Y-45933D01*
X91012Y-45922D01*
X91068Y-45922D01*
X91113Y-45933D01*
X91136Y-45944D01*
X91147Y-45956D01*
X91158Y-45978D01*
X91158Y-46001D01*
X91147Y-46023D01*
X91136Y-46034D01*
X91113Y-46046D01*
X91068Y-46057D01*
X91012Y-46057D01*
X90967Y-46046D01*
X90944Y-46034D01*
X90933Y-46023D01*
X90922Y-46001D01*
X90410Y-45208D02*
X90410Y-45185D01*
X90421Y-45163D01*
X90433Y-45151D01*
X90455Y-45140D01*
X90500Y-45129D01*
X90556Y-45129D01*
X90601Y-45140D01*
X90624Y-45151D01*
X90635Y-45163D01*
X90646Y-45185D01*
X90646Y-45208D01*
X90635Y-45230D01*
X90624Y-45241D01*
X90601Y-45253D01*
X90556Y-45264D01*
X90500Y-45264D01*
X90455Y-45253D01*
X90433Y-45241D01*
X90421Y-45230D01*
X90410Y-45208D01*
X90624Y-45028D02*
X90635Y-45016D01*
X90646Y-45028D01*
X90635Y-45039D01*
X90624Y-45028D01*
X90646Y-45028D01*
X90646Y-44791D02*
X90646Y-44926D01*
X90646Y-44859D02*
X90410Y-44859D01*
X90444Y-44881D01*
X90466Y-44904D01*
X90478Y-44926D01*
X90489Y-44589D02*
X90646Y-44589D01*
X90489Y-44690D02*
X90613Y-44690D01*
X90635Y-44679D01*
X90646Y-44656D01*
X90646Y-44623D01*
X90635Y-44600D01*
X90624Y-44589D01*
X90624Y-50466D02*
X90635Y-50478D01*
X90646Y-50511D01*
X90646Y-50534D01*
X90635Y-50568D01*
X90613Y-50590D01*
X90590Y-50601D01*
X90545Y-50613D01*
X90511Y-50613D01*
X90466Y-50601D01*
X90444Y-50590D01*
X90421Y-50568D01*
X90410Y-50534D01*
X90410Y-50511D01*
X90421Y-50478D01*
X90433Y-50466D01*
X90646Y-50241D02*
X90646Y-50376D01*
X90646Y-50309D02*
X90410Y-50309D01*
X90444Y-50331D01*
X90466Y-50354D01*
X90478Y-50376D01*
X90410Y-50028D02*
X90410Y-50140D01*
X90523Y-50151D01*
X90511Y-50140D01*
X90500Y-50118D01*
X90500Y-50061D01*
X90511Y-50039D01*
X90523Y-50028D01*
X90545Y-50016D01*
X90601Y-50016D01*
X90624Y-50028D01*
X90635Y-50039D01*
X90646Y-50061D01*
X90646Y-50118D01*
X90635Y-50140D01*
X90624Y-50151D01*
X89544Y-52255D02*
X89544Y-52232D01*
X89555Y-52210D01*
X89566Y-52199D01*
X89589Y-52187D01*
X89634Y-52176D01*
X89690Y-52176D01*
X89735Y-52187D01*
X89758Y-52199D01*
X89769Y-52210D01*
X89780Y-52232D01*
X89780Y-52255D01*
X89769Y-52277D01*
X89758Y-52289D01*
X89735Y-52300D01*
X89690Y-52311D01*
X89634Y-52311D01*
X89589Y-52300D01*
X89566Y-52289D01*
X89555Y-52277D01*
X89544Y-52255D01*
X89758Y-52075D02*
X89769Y-52064D01*
X89780Y-52075D01*
X89769Y-52086D01*
X89758Y-52075D01*
X89780Y-52075D01*
X89780Y-51839D02*
X89780Y-51974D01*
X89780Y-51906D02*
X89544Y-51906D01*
X89578Y-51929D01*
X89600Y-51951D01*
X89611Y-51974D01*
X89623Y-51636D02*
X89780Y-51636D01*
X89623Y-51737D02*
X89746Y-51737D01*
X89769Y-51726D01*
X89780Y-51704D01*
X89780Y-51670D01*
X89769Y-51647D01*
X89758Y-51636D01*
X87919Y-49876D02*
X87907Y-49887D01*
X87874Y-49898D01*
X87851Y-49898D01*
X87817Y-49887D01*
X87795Y-49865D01*
X87784Y-49842D01*
X87772Y-49797D01*
X87772Y-49763D01*
X87784Y-49718D01*
X87795Y-49696D01*
X87817Y-49673D01*
X87851Y-49662D01*
X87874Y-49662D01*
X87907Y-49673D01*
X87919Y-49685D01*
X88008Y-49685D02*
X88020Y-49673D01*
X88042Y-49662D01*
X88098Y-49662D01*
X88121Y-49673D01*
X88132Y-49685D01*
X88143Y-49707D01*
X88143Y-49730D01*
X88132Y-49763D01*
X87997Y-49898D01*
X88143Y-49898D01*
X88368Y-49898D02*
X88233Y-49898D01*
X88301Y-49898D02*
X88301Y-49662D01*
X88278Y-49696D01*
X88256Y-49718D01*
X88233Y-49730D01*
X87373Y-50039D02*
X87384Y-50028D01*
X87407Y-50016D01*
X87463Y-50016D01*
X87485Y-50028D01*
X87497Y-50039D01*
X87508Y-50061D01*
X87508Y-50084D01*
X87497Y-50118D01*
X87362Y-50253D01*
X87508Y-50253D01*
X87598Y-50039D02*
X87609Y-50028D01*
X87632Y-50016D01*
X87688Y-50016D01*
X87710Y-50028D01*
X87722Y-50039D01*
X87733Y-50061D01*
X87733Y-50084D01*
X87722Y-50118D01*
X87587Y-50253D01*
X87733Y-50253D01*
X87879Y-50016D02*
X87902Y-50016D01*
X87924Y-50028D01*
X87935Y-50039D01*
X87947Y-50061D01*
X87958Y-50106D01*
X87958Y-50163D01*
X87947Y-50208D01*
X87935Y-50230D01*
X87924Y-50241D01*
X87902Y-50253D01*
X87879Y-50253D01*
X87857Y-50241D01*
X87845Y-50230D01*
X87834Y-50208D01*
X87823Y-50163D01*
X87823Y-50106D01*
X87834Y-50061D01*
X87845Y-50039D01*
X87857Y-50028D01*
X87879Y-50016D01*
X88059Y-50095D02*
X88059Y-50331D01*
X88059Y-50106D02*
X88082Y-50095D01*
X88127Y-50095D01*
X88149Y-50106D01*
X88160Y-50118D01*
X88172Y-50140D01*
X88172Y-50208D01*
X88160Y-50230D01*
X88149Y-50241D01*
X88127Y-50253D01*
X88082Y-50253D01*
X88059Y-50241D01*
X88352Y-50129D02*
X88273Y-50129D01*
X88273Y-50253D02*
X88273Y-50016D01*
X88385Y-50016D01*
X89493Y-45348D02*
X89482Y-45359D01*
X89448Y-45371D01*
X89426Y-45371D01*
X89392Y-45359D01*
X89370Y-45337D01*
X89358Y-45314D01*
X89347Y-45269D01*
X89347Y-45236D01*
X89358Y-45191D01*
X89370Y-45168D01*
X89392Y-45146D01*
X89426Y-45134D01*
X89448Y-45134D01*
X89482Y-45146D01*
X89493Y-45157D01*
X89718Y-45371D02*
X89583Y-45371D01*
X89651Y-45371D02*
X89651Y-45134D01*
X89628Y-45168D01*
X89606Y-45191D01*
X89583Y-45202D01*
X89921Y-45213D02*
X89921Y-45371D01*
X89865Y-45123D02*
X89808Y-45292D01*
X89955Y-45292D01*
X89566Y-44949D02*
X89555Y-44938D01*
X89544Y-44915D01*
X89544Y-44859D01*
X89555Y-44836D01*
X89566Y-44825D01*
X89589Y-44814D01*
X89611Y-44814D01*
X89645Y-44825D01*
X89780Y-44960D01*
X89780Y-44814D01*
X89566Y-44724D02*
X89555Y-44713D01*
X89544Y-44690D01*
X89544Y-44634D01*
X89555Y-44611D01*
X89566Y-44600D01*
X89589Y-44589D01*
X89611Y-44589D01*
X89645Y-44600D01*
X89780Y-44735D01*
X89780Y-44589D01*
X89544Y-44443D02*
X89544Y-44420D01*
X89555Y-44398D01*
X89566Y-44386D01*
X89589Y-44375D01*
X89634Y-44364D01*
X89690Y-44364D01*
X89735Y-44375D01*
X89758Y-44386D01*
X89769Y-44398D01*
X89780Y-44420D01*
X89780Y-44443D01*
X89769Y-44465D01*
X89758Y-44476D01*
X89735Y-44488D01*
X89690Y-44499D01*
X89634Y-44499D01*
X89589Y-44488D01*
X89566Y-44476D01*
X89555Y-44465D01*
X89544Y-44443D01*
X89623Y-44263D02*
X89859Y-44263D01*
X89634Y-44263D02*
X89623Y-44240D01*
X89623Y-44195D01*
X89634Y-44173D01*
X89645Y-44161D01*
X89668Y-44150D01*
X89735Y-44150D01*
X89758Y-44161D01*
X89769Y-44173D01*
X89780Y-44195D01*
X89780Y-44240D01*
X89769Y-44263D01*
X89656Y-43970D02*
X89656Y-44049D01*
X89780Y-44049D02*
X89544Y-44049D01*
X89544Y-43937D01*
X87407Y-47553D02*
X87395Y-47564D01*
X87362Y-47575D01*
X87339Y-47575D01*
X87305Y-47564D01*
X87283Y-47542D01*
X87272Y-47519D01*
X87260Y-47474D01*
X87260Y-47440D01*
X87272Y-47395D01*
X87283Y-47373D01*
X87305Y-47350D01*
X87339Y-47339D01*
X87362Y-47339D01*
X87395Y-47350D01*
X87407Y-47362D01*
X87632Y-47575D02*
X87497Y-47575D01*
X87564Y-47575D02*
X87564Y-47339D01*
X87542Y-47373D01*
X87519Y-47395D01*
X87497Y-47407D01*
X87834Y-47339D02*
X87789Y-47339D01*
X87767Y-47350D01*
X87755Y-47362D01*
X87733Y-47395D01*
X87722Y-47440D01*
X87722Y-47530D01*
X87733Y-47553D01*
X87744Y-47564D01*
X87767Y-47575D01*
X87812Y-47575D01*
X87834Y-47564D01*
X87845Y-47553D01*
X87857Y-47530D01*
X87857Y-47474D01*
X87845Y-47452D01*
X87834Y-47440D01*
X87812Y-47429D01*
X87767Y-47429D01*
X87744Y-47440D01*
X87733Y-47452D01*
X87722Y-47474D01*
X86878Y-47615D02*
X86901Y-47615D01*
X86923Y-47626D01*
X86934Y-47637D01*
X86946Y-47660D01*
X86957Y-47705D01*
X86957Y-47761D01*
X86946Y-47806D01*
X86934Y-47829D01*
X86923Y-47840D01*
X86901Y-47851D01*
X86878Y-47851D01*
X86856Y-47840D01*
X86844Y-47829D01*
X86833Y-47806D01*
X86822Y-47761D01*
X86822Y-47705D01*
X86833Y-47660D01*
X86844Y-47637D01*
X86856Y-47626D01*
X86878Y-47615D01*
X87058Y-47829D02*
X87069Y-47840D01*
X87058Y-47851D01*
X87047Y-47840D01*
X87058Y-47829D01*
X87058Y-47851D01*
X87294Y-47851D02*
X87159Y-47851D01*
X87227Y-47851D02*
X87227Y-47615D01*
X87204Y-47649D01*
X87182Y-47671D01*
X87159Y-47682D01*
X87497Y-47694D02*
X87497Y-47851D01*
X87395Y-47694D02*
X87395Y-47817D01*
X87407Y-47840D01*
X87429Y-47851D01*
X87463Y-47851D01*
X87485Y-47840D01*
X87497Y-47829D01*
X88025Y-46490D02*
X88037Y-46501D01*
X88048Y-46535D01*
X88048Y-46557D01*
X88037Y-46591D01*
X88014Y-46614D01*
X87992Y-46625D01*
X87947Y-46636D01*
X87913Y-46636D01*
X87868Y-46625D01*
X87845Y-46614D01*
X87823Y-46591D01*
X87812Y-46557D01*
X87812Y-46535D01*
X87823Y-46501D01*
X87834Y-46490D01*
X87834Y-46400D02*
X87823Y-46389D01*
X87812Y-46366D01*
X87812Y-46310D01*
X87823Y-46287D01*
X87834Y-46276D01*
X87857Y-46265D01*
X87879Y-46265D01*
X87913Y-46276D01*
X88048Y-46411D01*
X88048Y-46265D01*
X87834Y-46175D02*
X87823Y-46164D01*
X87812Y-46141D01*
X87812Y-46085D01*
X87823Y-46062D01*
X87834Y-46051D01*
X87857Y-46040D01*
X87879Y-46040D01*
X87913Y-46051D01*
X88048Y-46186D01*
X88048Y-46040D01*
X87519Y-46602D02*
X87508Y-46591D01*
X87497Y-46569D01*
X87497Y-46512D01*
X87508Y-46490D01*
X87519Y-46479D01*
X87542Y-46467D01*
X87564Y-46467D01*
X87598Y-46479D01*
X87733Y-46614D01*
X87733Y-46467D01*
X87519Y-46377D02*
X87508Y-46366D01*
X87497Y-46344D01*
X87497Y-46287D01*
X87508Y-46265D01*
X87519Y-46254D01*
X87542Y-46242D01*
X87564Y-46242D01*
X87598Y-46254D01*
X87733Y-46389D01*
X87733Y-46242D01*
X87497Y-46096D02*
X87497Y-46074D01*
X87508Y-46051D01*
X87519Y-46040D01*
X87542Y-46029D01*
X87587Y-46017D01*
X87643Y-46017D01*
X87688Y-46029D01*
X87710Y-46040D01*
X87722Y-46051D01*
X87733Y-46074D01*
X87733Y-46096D01*
X87722Y-46119D01*
X87710Y-46130D01*
X87688Y-46141D01*
X87643Y-46152D01*
X87587Y-46152D01*
X87542Y-46141D01*
X87519Y-46130D01*
X87508Y-46119D01*
X87497Y-46096D01*
X87575Y-45916D02*
X87812Y-45916D01*
X87587Y-45916D02*
X87575Y-45894D01*
X87575Y-45849D01*
X87587Y-45826D01*
X87598Y-45815D01*
X87620Y-45804D01*
X87688Y-45804D01*
X87710Y-45815D01*
X87722Y-45826D01*
X87733Y-45849D01*
X87733Y-45894D01*
X87722Y-45916D01*
X87609Y-45624D02*
X87609Y-45703D01*
X87733Y-45703D02*
X87497Y-45703D01*
X87497Y-45590D01*
X89443Y-52080D02*
X89454Y-52092D01*
X89465Y-52125D01*
X89465Y-52148D01*
X89454Y-52182D01*
X89431Y-52204D01*
X89409Y-52215D01*
X89364Y-52227D01*
X89330Y-52227D01*
X89285Y-52215D01*
X89263Y-52204D01*
X89240Y-52182D01*
X89229Y-52148D01*
X89229Y-52125D01*
X89240Y-52092D01*
X89251Y-52080D01*
X89465Y-51856D02*
X89465Y-51991D01*
X89465Y-51923D02*
X89229Y-51923D01*
X89263Y-51946D01*
X89285Y-51968D01*
X89296Y-51991D01*
X89465Y-51743D02*
X89465Y-51698D01*
X89454Y-51676D01*
X89443Y-51664D01*
X89409Y-51642D01*
X89364Y-51631D01*
X89274Y-51631D01*
X89251Y-51642D01*
X89240Y-51653D01*
X89229Y-51676D01*
X89229Y-51721D01*
X89240Y-51743D01*
X89251Y-51754D01*
X89274Y-51766D01*
X89330Y-51766D01*
X89353Y-51754D01*
X89364Y-51743D01*
X89375Y-51721D01*
X89375Y-51676D01*
X89364Y-51653D01*
X89353Y-51642D01*
X89330Y-51631D01*
X90961Y-50449D02*
X90961Y-50584D01*
X90961Y-50517D02*
X90725Y-50517D01*
X90759Y-50539D01*
X90781Y-50562D01*
X90793Y-50584D01*
X90725Y-50303D02*
X90725Y-50281D01*
X90736Y-50258D01*
X90748Y-50247D01*
X90770Y-50236D01*
X90815Y-50224D01*
X90871Y-50224D01*
X90916Y-50236D01*
X90939Y-50247D01*
X90950Y-50258D01*
X90961Y-50281D01*
X90961Y-50303D01*
X90950Y-50326D01*
X90939Y-50337D01*
X90916Y-50348D01*
X90871Y-50359D01*
X90815Y-50359D01*
X90770Y-50348D01*
X90748Y-50337D01*
X90736Y-50326D01*
X90725Y-50303D01*
X90804Y-50123D02*
X91040Y-50123D01*
X90815Y-50123D02*
X90804Y-50101D01*
X90804Y-50056D01*
X90815Y-50033D01*
X90826Y-50022D01*
X90849Y-50011D01*
X90916Y-50011D01*
X90939Y-50022D01*
X90950Y-50033D01*
X90961Y-50056D01*
X90961Y-50101D01*
X90950Y-50123D01*
X90838Y-49831D02*
X90838Y-49910D01*
X90961Y-49910D02*
X90725Y-49910D01*
X90725Y-49797D01*
X88037Y-49167D02*
X88025Y-49178D01*
X87992Y-49190D01*
X87969Y-49190D01*
X87935Y-49178D01*
X87913Y-49156D01*
X87902Y-49133D01*
X87890Y-49088D01*
X87890Y-49055D01*
X87902Y-49010D01*
X87913Y-48987D01*
X87935Y-48965D01*
X87969Y-48953D01*
X87992Y-48953D01*
X88025Y-48965D01*
X88037Y-48976D01*
X88262Y-49190D02*
X88127Y-49190D01*
X88194Y-49190D02*
X88194Y-48953D01*
X88172Y-48987D01*
X88149Y-49010D01*
X88127Y-49021D01*
X88340Y-48953D02*
X88498Y-48953D01*
X88397Y-49190D01*
X87232Y-49268D02*
X87255Y-49268D01*
X87277Y-49280D01*
X87289Y-49291D01*
X87300Y-49313D01*
X87311Y-49358D01*
X87311Y-49415D01*
X87300Y-49460D01*
X87289Y-49482D01*
X87277Y-49493D01*
X87255Y-49505D01*
X87232Y-49505D01*
X87210Y-49493D01*
X87199Y-49482D01*
X87187Y-49460D01*
X87176Y-49415D01*
X87176Y-49358D01*
X87187Y-49313D01*
X87199Y-49291D01*
X87210Y-49280D01*
X87232Y-49268D01*
X87412Y-49482D02*
X87424Y-49493D01*
X87412Y-49505D01*
X87401Y-49493D01*
X87412Y-49482D01*
X87412Y-49505D01*
X87649Y-49505D02*
X87514Y-49505D01*
X87581Y-49505D02*
X87581Y-49268D01*
X87559Y-49302D01*
X87536Y-49325D01*
X87514Y-49336D01*
X87851Y-49347D02*
X87851Y-49505D01*
X87750Y-49347D02*
X87750Y-49471D01*
X87761Y-49493D01*
X87784Y-49505D01*
X87817Y-49505D01*
X87840Y-49493D01*
X87851Y-49482D01*
X82947Y-55073D02*
X82958Y-55084D01*
X82969Y-55118D01*
X82969Y-55140D01*
X82958Y-55174D01*
X82935Y-55196D01*
X82913Y-55208D01*
X82868Y-55219D01*
X82834Y-55219D01*
X82789Y-55208D01*
X82767Y-55196D01*
X82744Y-55174D01*
X82733Y-55140D01*
X82733Y-55118D01*
X82744Y-55084D01*
X82755Y-55073D01*
X82733Y-54994D02*
X82733Y-54848D01*
X82823Y-54926D01*
X82823Y-54893D01*
X82834Y-54870D01*
X82845Y-54859D01*
X82868Y-54848D01*
X82924Y-54848D01*
X82947Y-54859D01*
X82958Y-54870D01*
X82969Y-54893D01*
X82969Y-54960D01*
X82958Y-54983D01*
X82947Y-54994D01*
X82733Y-54769D02*
X82733Y-54611D01*
X82969Y-54713D01*
X82401Y-55269D02*
X82390Y-55258D01*
X82379Y-55236D01*
X82379Y-55179D01*
X82390Y-55157D01*
X82401Y-55146D01*
X82424Y-55134D01*
X82446Y-55134D01*
X82480Y-55146D01*
X82615Y-55281D01*
X82615Y-55134D01*
X82379Y-54988D02*
X82379Y-54966D01*
X82390Y-54943D01*
X82401Y-54932D01*
X82424Y-54921D01*
X82469Y-54910D01*
X82525Y-54910D01*
X82570Y-54921D01*
X82592Y-54932D01*
X82604Y-54943D01*
X82615Y-54966D01*
X82615Y-54988D01*
X82604Y-55011D01*
X82592Y-55022D01*
X82570Y-55033D01*
X82525Y-55044D01*
X82469Y-55044D01*
X82424Y-55033D01*
X82401Y-55022D01*
X82390Y-55011D01*
X82379Y-54988D01*
X82457Y-54808D02*
X82694Y-54808D01*
X82469Y-54808D02*
X82457Y-54786D01*
X82457Y-54741D01*
X82469Y-54718D01*
X82480Y-54707D01*
X82502Y-54696D01*
X82570Y-54696D01*
X82592Y-54707D01*
X82604Y-54718D01*
X82615Y-54741D01*
X82615Y-54786D01*
X82604Y-54808D01*
X82491Y-54516D02*
X82491Y-54595D01*
X82615Y-54595D02*
X82379Y-54595D01*
X82379Y-54482D01*
X87002Y-52080D02*
X87013Y-52092D01*
X87024Y-52125D01*
X87024Y-52148D01*
X87013Y-52182D01*
X86991Y-52204D01*
X86968Y-52215D01*
X86923Y-52227D01*
X86889Y-52227D01*
X86844Y-52215D01*
X86822Y-52204D01*
X86799Y-52182D01*
X86788Y-52148D01*
X86788Y-52125D01*
X86799Y-52092D01*
X86811Y-52080D01*
X87024Y-51856D02*
X87024Y-51991D01*
X87024Y-51923D02*
X86788Y-51923D01*
X86822Y-51946D01*
X86844Y-51968D01*
X86856Y-51991D01*
X86889Y-51721D02*
X86878Y-51743D01*
X86867Y-51754D01*
X86844Y-51766D01*
X86833Y-51766D01*
X86811Y-51754D01*
X86799Y-51743D01*
X86788Y-51721D01*
X86788Y-51676D01*
X86799Y-51653D01*
X86811Y-51642D01*
X86833Y-51631D01*
X86844Y-51631D01*
X86867Y-51642D01*
X86878Y-51653D01*
X86889Y-51676D01*
X86889Y-51721D01*
X86901Y-51743D01*
X86912Y-51754D01*
X86934Y-51766D01*
X86979Y-51766D01*
X87002Y-51754D01*
X87013Y-51743D01*
X87024Y-51721D01*
X87024Y-51676D01*
X87013Y-51653D01*
X87002Y-51642D01*
X86979Y-51631D01*
X86934Y-51631D01*
X86912Y-51642D01*
X86901Y-51653D01*
X86889Y-51676D01*
X87457Y-52221D02*
X87457Y-52356D01*
X87457Y-52289D02*
X87221Y-52289D01*
X87255Y-52311D01*
X87277Y-52334D01*
X87289Y-52356D01*
X87221Y-52075D02*
X87221Y-52052D01*
X87232Y-52030D01*
X87244Y-52019D01*
X87266Y-52007D01*
X87311Y-51996D01*
X87367Y-51996D01*
X87412Y-52007D01*
X87435Y-52019D01*
X87446Y-52030D01*
X87457Y-52052D01*
X87457Y-52075D01*
X87446Y-52097D01*
X87435Y-52109D01*
X87412Y-52120D01*
X87367Y-52131D01*
X87311Y-52131D01*
X87266Y-52120D01*
X87244Y-52109D01*
X87232Y-52097D01*
X87221Y-52075D01*
X87300Y-51895D02*
X87536Y-51895D01*
X87311Y-51895D02*
X87300Y-51872D01*
X87300Y-51827D01*
X87311Y-51805D01*
X87322Y-51794D01*
X87345Y-51782D01*
X87412Y-51782D01*
X87435Y-51794D01*
X87446Y-51805D01*
X87457Y-51827D01*
X87457Y-51872D01*
X87446Y-51895D01*
X87334Y-51602D02*
X87334Y-51681D01*
X87457Y-51681D02*
X87221Y-51681D01*
X87221Y-51569D01*
X83734Y-51726D02*
X83745Y-51737D01*
X83757Y-51771D01*
X83757Y-51794D01*
X83745Y-51827D01*
X83723Y-51850D01*
X83700Y-51861D01*
X83655Y-51872D01*
X83622Y-51872D01*
X83577Y-51861D01*
X83554Y-51850D01*
X83532Y-51827D01*
X83520Y-51794D01*
X83520Y-51771D01*
X83532Y-51737D01*
X83543Y-51726D01*
X83599Y-51524D02*
X83757Y-51524D01*
X83509Y-51580D02*
X83678Y-51636D01*
X83678Y-51490D01*
X83520Y-51287D02*
X83520Y-51400D01*
X83633Y-51411D01*
X83622Y-51400D01*
X83610Y-51377D01*
X83610Y-51321D01*
X83622Y-51299D01*
X83633Y-51287D01*
X83655Y-51276D01*
X83712Y-51276D01*
X83734Y-51287D01*
X83745Y-51299D01*
X83757Y-51321D01*
X83757Y-51377D01*
X83745Y-51400D01*
X83734Y-51411D01*
X83717Y-52637D02*
X83717Y-52772D01*
X83717Y-52705D02*
X83481Y-52705D01*
X83515Y-52727D01*
X83537Y-52750D01*
X83548Y-52772D01*
X83560Y-52435D02*
X83717Y-52435D01*
X83560Y-52536D02*
X83683Y-52536D01*
X83706Y-52525D01*
X83717Y-52502D01*
X83717Y-52469D01*
X83706Y-52446D01*
X83695Y-52435D01*
X85478Y-46923D02*
X85466Y-46934D01*
X85433Y-46946D01*
X85410Y-46946D01*
X85376Y-46934D01*
X85354Y-46912D01*
X85343Y-46889D01*
X85331Y-46844D01*
X85331Y-46811D01*
X85343Y-46766D01*
X85354Y-46743D01*
X85376Y-46721D01*
X85410Y-46709D01*
X85433Y-46709D01*
X85466Y-46721D01*
X85478Y-46732D01*
X85556Y-46709D02*
X85703Y-46709D01*
X85624Y-46799D01*
X85658Y-46799D01*
X85680Y-46811D01*
X85691Y-46822D01*
X85703Y-46844D01*
X85703Y-46901D01*
X85691Y-46923D01*
X85680Y-46934D01*
X85658Y-46946D01*
X85590Y-46946D01*
X85568Y-46934D01*
X85556Y-46923D01*
X85815Y-46946D02*
X85860Y-46946D01*
X85883Y-46934D01*
X85894Y-46923D01*
X85916Y-46889D01*
X85928Y-46844D01*
X85928Y-46754D01*
X85916Y-46732D01*
X85905Y-46721D01*
X85883Y-46709D01*
X85838Y-46709D01*
X85815Y-46721D01*
X85804Y-46732D01*
X85793Y-46754D01*
X85793Y-46811D01*
X85804Y-46833D01*
X85815Y-46844D01*
X85838Y-46856D01*
X85883Y-46856D01*
X85905Y-46844D01*
X85916Y-46833D01*
X85928Y-46811D01*
X86248Y-47064D02*
X86271Y-47064D01*
X86293Y-47075D01*
X86304Y-47086D01*
X86316Y-47109D01*
X86327Y-47154D01*
X86327Y-47210D01*
X86316Y-47255D01*
X86304Y-47277D01*
X86293Y-47289D01*
X86271Y-47300D01*
X86248Y-47300D01*
X86226Y-47289D01*
X86214Y-47277D01*
X86203Y-47255D01*
X86192Y-47210D01*
X86192Y-47154D01*
X86203Y-47109D01*
X86214Y-47086D01*
X86226Y-47075D01*
X86248Y-47064D01*
X86428Y-47277D02*
X86439Y-47289D01*
X86428Y-47300D01*
X86417Y-47289D01*
X86428Y-47277D01*
X86428Y-47300D01*
X86664Y-47300D02*
X86529Y-47300D01*
X86597Y-47300D02*
X86597Y-47064D01*
X86574Y-47097D01*
X86552Y-47120D01*
X86529Y-47131D01*
X86867Y-47142D02*
X86867Y-47300D01*
X86766Y-47142D02*
X86766Y-47266D01*
X86777Y-47289D01*
X86799Y-47300D01*
X86833Y-47300D01*
X86856Y-47289D01*
X86867Y-47277D01*
X77395Y-54994D02*
X77407Y-55005D01*
X77418Y-55039D01*
X77418Y-55061D01*
X77407Y-55095D01*
X77384Y-55118D01*
X77362Y-55129D01*
X77317Y-55140D01*
X77283Y-55140D01*
X77238Y-55129D01*
X77215Y-55118D01*
X77193Y-55095D01*
X77182Y-55061D01*
X77182Y-55039D01*
X77193Y-55005D01*
X77204Y-54994D01*
X77418Y-54769D02*
X77418Y-54904D01*
X77418Y-54836D02*
X77182Y-54836D01*
X77215Y-54859D01*
X77238Y-54881D01*
X77249Y-54904D01*
X77418Y-54544D02*
X77418Y-54679D01*
X77418Y-54611D02*
X77182Y-54611D01*
X77215Y-54634D01*
X77238Y-54656D01*
X77249Y-54679D01*
X76709Y-54381D02*
X76709Y-54358D01*
X76721Y-54336D01*
X76732Y-54325D01*
X76754Y-54313D01*
X76799Y-54302D01*
X76856Y-54302D01*
X76901Y-54313D01*
X76923Y-54325D01*
X76934Y-54336D01*
X76946Y-54358D01*
X76946Y-54381D01*
X76934Y-54403D01*
X76923Y-54415D01*
X76901Y-54426D01*
X76856Y-54437D01*
X76799Y-54437D01*
X76754Y-54426D01*
X76732Y-54415D01*
X76721Y-54403D01*
X76709Y-54381D01*
X76923Y-54201D02*
X76934Y-54190D01*
X76946Y-54201D01*
X76934Y-54212D01*
X76923Y-54201D01*
X76946Y-54201D01*
X76946Y-53965D02*
X76946Y-54100D01*
X76946Y-54032D02*
X76709Y-54032D01*
X76743Y-54055D01*
X76766Y-54077D01*
X76777Y-54100D01*
X76788Y-53762D02*
X76946Y-53762D01*
X76788Y-53863D02*
X76912Y-53863D01*
X76934Y-53852D01*
X76946Y-53830D01*
X76946Y-53796D01*
X76934Y-53773D01*
X76923Y-53762D01*
X78695Y-44325D02*
X78706Y-44336D01*
X78717Y-44370D01*
X78717Y-44392D01*
X78706Y-44426D01*
X78683Y-44448D01*
X78661Y-44460D01*
X78616Y-44471D01*
X78582Y-44471D01*
X78537Y-44460D01*
X78515Y-44448D01*
X78492Y-44426D01*
X78481Y-44392D01*
X78481Y-44370D01*
X78492Y-44336D01*
X78503Y-44325D01*
X78481Y-44246D02*
X78481Y-44100D01*
X78571Y-44178D01*
X78571Y-44145D01*
X78582Y-44122D01*
X78593Y-44111D01*
X78616Y-44100D01*
X78672Y-44100D01*
X78695Y-44111D01*
X78706Y-44122D01*
X78717Y-44145D01*
X78717Y-44212D01*
X78706Y-44235D01*
X78695Y-44246D01*
X78560Y-43897D02*
X78717Y-43897D01*
X78470Y-43953D02*
X78638Y-44010D01*
X78638Y-43863D01*
X78796Y-44381D02*
X78796Y-44358D01*
X78807Y-44336D01*
X78818Y-44325D01*
X78841Y-44313D01*
X78886Y-44302D01*
X78942Y-44302D01*
X78987Y-44313D01*
X79010Y-44325D01*
X79021Y-44336D01*
X79032Y-44358D01*
X79032Y-44381D01*
X79021Y-44403D01*
X79010Y-44415D01*
X78987Y-44426D01*
X78942Y-44437D01*
X78886Y-44437D01*
X78841Y-44426D01*
X78818Y-44415D01*
X78807Y-44403D01*
X78796Y-44381D01*
X79010Y-44201D02*
X79021Y-44190D01*
X79032Y-44201D01*
X79021Y-44212D01*
X79010Y-44201D01*
X79032Y-44201D01*
X79032Y-43965D02*
X79032Y-44100D01*
X79032Y-44032D02*
X78796Y-44032D01*
X78830Y-44055D01*
X78852Y-44077D01*
X78863Y-44100D01*
X78875Y-43762D02*
X79032Y-43762D01*
X78875Y-43863D02*
X78998Y-43863D01*
X79021Y-43852D01*
X79032Y-43830D01*
X79032Y-43796D01*
X79021Y-43773D01*
X79010Y-43762D01*
X77800Y-54718D02*
X77789Y-54730D01*
X77755Y-54741D01*
X77733Y-54741D01*
X77699Y-54730D01*
X77677Y-54707D01*
X77665Y-54685D01*
X77654Y-54640D01*
X77654Y-54606D01*
X77665Y-54561D01*
X77677Y-54538D01*
X77699Y-54516D01*
X77733Y-54505D01*
X77755Y-54505D01*
X77789Y-54516D01*
X77800Y-54527D01*
X78025Y-54741D02*
X77890Y-54741D01*
X77958Y-54741D02*
X77958Y-54505D01*
X77935Y-54538D01*
X77913Y-54561D01*
X77890Y-54572D01*
X78115Y-54527D02*
X78127Y-54516D01*
X78149Y-54505D01*
X78205Y-54505D01*
X78228Y-54516D01*
X78239Y-54527D01*
X78250Y-54550D01*
X78250Y-54572D01*
X78239Y-54606D01*
X78104Y-54741D01*
X78250Y-54741D01*
X77851Y-55601D02*
X77851Y-55579D01*
X77862Y-55556D01*
X77874Y-55545D01*
X77896Y-55534D01*
X77941Y-55523D01*
X77997Y-55523D01*
X78042Y-55534D01*
X78065Y-55545D01*
X78076Y-55556D01*
X78087Y-55579D01*
X78087Y-55601D01*
X78076Y-55624D01*
X78065Y-55635D01*
X78042Y-55646D01*
X77997Y-55658D01*
X77941Y-55658D01*
X77896Y-55646D01*
X77874Y-55635D01*
X77862Y-55624D01*
X77851Y-55601D01*
X78065Y-55421D02*
X78076Y-55410D01*
X78087Y-55421D01*
X78076Y-55433D01*
X78065Y-55421D01*
X78087Y-55421D01*
X78087Y-55185D02*
X78087Y-55320D01*
X78087Y-55253D02*
X77851Y-55253D01*
X77885Y-55275D01*
X77907Y-55298D01*
X77919Y-55320D01*
X77930Y-54983D02*
X78087Y-54983D01*
X77930Y-55084D02*
X78053Y-55084D01*
X78076Y-55073D01*
X78087Y-55050D01*
X78087Y-55016D01*
X78076Y-54994D01*
X78065Y-54983D01*
X86175Y-45309D02*
X86186Y-45320D01*
X86197Y-45354D01*
X86197Y-45376D01*
X86186Y-45410D01*
X86164Y-45433D01*
X86141Y-45444D01*
X86096Y-45455D01*
X86062Y-45455D01*
X86017Y-45444D01*
X85995Y-45433D01*
X85973Y-45410D01*
X85961Y-45376D01*
X85961Y-45354D01*
X85973Y-45320D01*
X85984Y-45309D01*
X85961Y-45230D02*
X85961Y-45084D01*
X86051Y-45163D01*
X86051Y-45129D01*
X86062Y-45106D01*
X86074Y-45095D01*
X86096Y-45084D01*
X86152Y-45084D01*
X86175Y-45095D01*
X86186Y-45106D01*
X86197Y-45129D01*
X86197Y-45196D01*
X86186Y-45219D01*
X86175Y-45230D01*
X86062Y-44949D02*
X86051Y-44971D01*
X86040Y-44983D01*
X86017Y-44994D01*
X86006Y-44994D01*
X85984Y-44983D01*
X85973Y-44971D01*
X85961Y-44949D01*
X85961Y-44904D01*
X85973Y-44881D01*
X85984Y-44870D01*
X86006Y-44859D01*
X86017Y-44859D01*
X86040Y-44870D01*
X86051Y-44881D01*
X86062Y-44904D01*
X86062Y-44949D01*
X86074Y-44971D01*
X86085Y-44983D01*
X86107Y-44994D01*
X86152Y-44994D01*
X86175Y-44983D01*
X86186Y-44971D01*
X86197Y-44949D01*
X86197Y-44904D01*
X86186Y-44881D01*
X86175Y-44870D01*
X86152Y-44859D01*
X86107Y-44859D01*
X86085Y-44870D01*
X86074Y-44881D01*
X86062Y-44904D01*
X86276Y-45404D02*
X86276Y-45382D01*
X86287Y-45359D01*
X86299Y-45348D01*
X86321Y-45337D01*
X86366Y-45326D01*
X86422Y-45326D01*
X86467Y-45337D01*
X86490Y-45348D01*
X86501Y-45359D01*
X86512Y-45382D01*
X86512Y-45404D01*
X86501Y-45427D01*
X86490Y-45438D01*
X86467Y-45449D01*
X86422Y-45461D01*
X86366Y-45461D01*
X86321Y-45449D01*
X86299Y-45438D01*
X86287Y-45427D01*
X86276Y-45404D01*
X86490Y-45224D02*
X86501Y-45213D01*
X86512Y-45224D01*
X86501Y-45236D01*
X86490Y-45224D01*
X86512Y-45224D01*
X86512Y-44988D02*
X86512Y-45123D01*
X86512Y-45056D02*
X86276Y-45056D01*
X86310Y-45078D01*
X86332Y-45101D01*
X86344Y-45123D01*
X86355Y-44786D02*
X86512Y-44786D01*
X86355Y-44887D02*
X86479Y-44887D01*
X86501Y-44876D01*
X86512Y-44853D01*
X86512Y-44820D01*
X86501Y-44797D01*
X86490Y-44786D01*
X80922Y-45404D02*
X81158Y-45326D01*
X80922Y-45247D01*
X81136Y-45033D02*
X81147Y-45044D01*
X81158Y-45078D01*
X81158Y-45101D01*
X81147Y-45134D01*
X81124Y-45157D01*
X81102Y-45168D01*
X81057Y-45179D01*
X81023Y-45179D01*
X80978Y-45168D01*
X80956Y-45157D01*
X80933Y-45134D01*
X80922Y-45101D01*
X80922Y-45078D01*
X80933Y-45044D01*
X80944Y-45033D01*
X81158Y-44831D02*
X81034Y-44831D01*
X81012Y-44842D01*
X81001Y-44865D01*
X81001Y-44910D01*
X81012Y-44932D01*
X81147Y-44831D02*
X81158Y-44853D01*
X81158Y-44910D01*
X81147Y-44932D01*
X81124Y-44943D01*
X81102Y-44943D01*
X81079Y-44932D01*
X81068Y-44910D01*
X81068Y-44853D01*
X81057Y-44831D01*
X81001Y-44718D02*
X81237Y-44718D01*
X81012Y-44718D02*
X81001Y-44696D01*
X81001Y-44651D01*
X81012Y-44628D01*
X81023Y-44617D01*
X81046Y-44606D01*
X81113Y-44606D01*
X81136Y-44617D01*
X81147Y-44628D01*
X81158Y-44651D01*
X81158Y-44696D01*
X81147Y-44718D01*
X80944Y-44516D02*
X80933Y-44505D01*
X80922Y-44482D01*
X80922Y-44426D01*
X80933Y-44403D01*
X80944Y-44392D01*
X80967Y-44381D01*
X80989Y-44381D01*
X81023Y-44392D01*
X81158Y-44527D01*
X81158Y-44381D01*
X80629Y-45106D02*
X80618Y-45095D01*
X80607Y-45073D01*
X80607Y-45016D01*
X80618Y-44994D01*
X80629Y-44983D01*
X80652Y-44971D01*
X80674Y-44971D01*
X80708Y-44983D01*
X80843Y-45118D01*
X80843Y-44971D01*
X80821Y-44870D02*
X80832Y-44859D01*
X80843Y-44870D01*
X80832Y-44881D01*
X80821Y-44870D01*
X80843Y-44870D01*
X80629Y-44769D02*
X80618Y-44758D01*
X80607Y-44735D01*
X80607Y-44679D01*
X80618Y-44656D01*
X80629Y-44645D01*
X80652Y-44634D01*
X80674Y-44634D01*
X80708Y-44645D01*
X80843Y-44780D01*
X80843Y-44634D01*
X80686Y-44431D02*
X80843Y-44431D01*
X80686Y-44533D02*
X80809Y-44533D01*
X80832Y-44521D01*
X80843Y-44499D01*
X80843Y-44465D01*
X80832Y-44443D01*
X80821Y-44431D01*
X86197Y-48712D02*
X86434Y-48633D01*
X86197Y-48554D01*
X86411Y-48340D02*
X86422Y-48352D01*
X86434Y-48385D01*
X86434Y-48408D01*
X86422Y-48442D01*
X86400Y-48464D01*
X86377Y-48475D01*
X86332Y-48487D01*
X86299Y-48487D01*
X86254Y-48475D01*
X86231Y-48464D01*
X86209Y-48442D01*
X86197Y-48408D01*
X86197Y-48385D01*
X86209Y-48352D01*
X86220Y-48340D01*
X86434Y-48138D02*
X86310Y-48138D01*
X86287Y-48149D01*
X86276Y-48172D01*
X86276Y-48217D01*
X86287Y-48239D01*
X86422Y-48138D02*
X86434Y-48160D01*
X86434Y-48217D01*
X86422Y-48239D01*
X86400Y-48250D01*
X86377Y-48250D01*
X86355Y-48239D01*
X86344Y-48217D01*
X86344Y-48160D01*
X86332Y-48138D01*
X86276Y-48025D02*
X86512Y-48025D01*
X86287Y-48025D02*
X86276Y-48003D01*
X86276Y-47958D01*
X86287Y-47935D01*
X86299Y-47924D01*
X86321Y-47913D01*
X86389Y-47913D01*
X86411Y-47924D01*
X86422Y-47935D01*
X86434Y-47958D01*
X86434Y-48003D01*
X86422Y-48025D01*
X86434Y-47688D02*
X86434Y-47823D01*
X86434Y-47755D02*
X86197Y-47755D01*
X86231Y-47778D01*
X86254Y-47800D01*
X86265Y-47823D01*
X84932Y-48346D02*
X84943Y-48335D01*
X84966Y-48323D01*
X85022Y-48323D01*
X85044Y-48335D01*
X85056Y-48346D01*
X85067Y-48368D01*
X85067Y-48391D01*
X85056Y-48425D01*
X84921Y-48560D01*
X85067Y-48560D01*
X85168Y-48537D02*
X85179Y-48548D01*
X85168Y-48560D01*
X85157Y-48548D01*
X85168Y-48537D01*
X85168Y-48560D01*
X85269Y-48346D02*
X85281Y-48335D01*
X85303Y-48323D01*
X85359Y-48323D01*
X85382Y-48335D01*
X85393Y-48346D01*
X85404Y-48368D01*
X85404Y-48391D01*
X85393Y-48425D01*
X85258Y-48560D01*
X85404Y-48560D01*
X85607Y-48402D02*
X85607Y-48560D01*
X85506Y-48402D02*
X85506Y-48526D01*
X85517Y-48548D01*
X85539Y-48560D01*
X85573Y-48560D01*
X85596Y-48548D01*
X85607Y-48537D01*
X79443Y-44285D02*
X79454Y-44296D01*
X79465Y-44330D01*
X79465Y-44353D01*
X79454Y-44386D01*
X79431Y-44409D01*
X79409Y-44420D01*
X79364Y-44431D01*
X79330Y-44431D01*
X79285Y-44420D01*
X79263Y-44409D01*
X79240Y-44386D01*
X79229Y-44353D01*
X79229Y-44330D01*
X79240Y-44296D01*
X79251Y-44285D01*
X79308Y-44083D02*
X79465Y-44083D01*
X79218Y-44139D02*
X79386Y-44195D01*
X79386Y-44049D01*
X79229Y-43914D02*
X79229Y-43892D01*
X79240Y-43869D01*
X79251Y-43858D01*
X79274Y-43847D01*
X79319Y-43835D01*
X79375Y-43835D01*
X79420Y-43847D01*
X79443Y-43858D01*
X79454Y-43869D01*
X79465Y-43892D01*
X79465Y-43914D01*
X79454Y-43937D01*
X79443Y-43948D01*
X79420Y-43959D01*
X79375Y-43970D01*
X79319Y-43970D01*
X79274Y-43959D01*
X79251Y-43948D01*
X79240Y-43937D01*
X79229Y-43914D01*
X79507Y-44385D02*
X79507Y-44363D01*
X79518Y-44340D01*
X79530Y-44329D01*
X79552Y-44318D01*
X79597Y-44307D01*
X79653Y-44307D01*
X79698Y-44318D01*
X79721Y-44329D01*
X79732Y-44340D01*
X79743Y-44363D01*
X79743Y-44385D01*
X79732Y-44408D01*
X79721Y-44419D01*
X79698Y-44430D01*
X79653Y-44442D01*
X79597Y-44442D01*
X79552Y-44430D01*
X79530Y-44419D01*
X79518Y-44408D01*
X79507Y-44385D01*
X79721Y-44205D02*
X79732Y-44194D01*
X79743Y-44205D01*
X79732Y-44217D01*
X79721Y-44205D01*
X79743Y-44205D01*
X79743Y-43969D02*
X79743Y-44104D01*
X79743Y-44037D02*
X79507Y-44037D01*
X79541Y-44059D01*
X79563Y-44082D01*
X79575Y-44104D01*
X79586Y-43767D02*
X79743Y-43767D01*
X79586Y-43868D02*
X79710Y-43868D01*
X79732Y-43857D01*
X79743Y-43834D01*
X79743Y-43800D01*
X79732Y-43778D01*
X79721Y-43767D01*
X78183Y-49955D02*
X78194Y-49966D01*
X78205Y-50000D01*
X78205Y-50022D01*
X78194Y-50056D01*
X78172Y-50078D01*
X78149Y-50089D01*
X78104Y-50101D01*
X78070Y-50101D01*
X78025Y-50089D01*
X78003Y-50078D01*
X77980Y-50056D01*
X77969Y-50022D01*
X77969Y-50000D01*
X77980Y-49966D01*
X77992Y-49955D01*
X78048Y-49752D02*
X78205Y-49752D01*
X77958Y-49808D02*
X78127Y-49865D01*
X78127Y-49718D01*
X78205Y-49505D02*
X78205Y-49640D01*
X78205Y-49572D02*
X77969Y-49572D01*
X78003Y-49595D01*
X78025Y-49617D01*
X78037Y-49640D01*
X78993Y-50484D02*
X78993Y-50461D01*
X79004Y-50439D01*
X79015Y-50427D01*
X79038Y-50416D01*
X79083Y-50405D01*
X79139Y-50405D01*
X79184Y-50416D01*
X79206Y-50427D01*
X79218Y-50439D01*
X79229Y-50461D01*
X79229Y-50484D01*
X79218Y-50506D01*
X79206Y-50517D01*
X79184Y-50529D01*
X79139Y-50540D01*
X79083Y-50540D01*
X79038Y-50529D01*
X79015Y-50517D01*
X79004Y-50506D01*
X78993Y-50484D01*
X79206Y-50304D02*
X79218Y-50292D01*
X79229Y-50304D01*
X79218Y-50315D01*
X79206Y-50304D01*
X79229Y-50304D01*
X79229Y-50067D02*
X79229Y-50202D01*
X79229Y-50135D02*
X78993Y-50135D01*
X79026Y-50157D01*
X79049Y-50180D01*
X79060Y-50202D01*
X79071Y-49865D02*
X79229Y-49865D01*
X79071Y-49966D02*
X79195Y-49966D01*
X79218Y-49955D01*
X79229Y-49932D01*
X79229Y-49899D01*
X79218Y-49876D01*
X79206Y-49865D01*
X84769Y-50663D02*
X84758Y-50674D01*
X84724Y-50686D01*
X84701Y-50686D01*
X84668Y-50674D01*
X84645Y-50652D01*
X84634Y-50629D01*
X84623Y-50584D01*
X84623Y-50551D01*
X84634Y-50506D01*
X84645Y-50483D01*
X84668Y-50461D01*
X84701Y-50449D01*
X84724Y-50449D01*
X84758Y-50461D01*
X84769Y-50472D01*
X84971Y-50528D02*
X84971Y-50686D01*
X84915Y-50438D02*
X84859Y-50607D01*
X85005Y-50607D01*
X85084Y-50472D02*
X85095Y-50461D01*
X85118Y-50449D01*
X85174Y-50449D01*
X85196Y-50461D01*
X85208Y-50472D01*
X85219Y-50494D01*
X85219Y-50517D01*
X85208Y-50551D01*
X85073Y-50686D01*
X85219Y-50686D01*
X85736Y-50449D02*
X85759Y-50449D01*
X85781Y-50461D01*
X85793Y-50472D01*
X85804Y-50494D01*
X85815Y-50539D01*
X85815Y-50596D01*
X85804Y-50641D01*
X85793Y-50663D01*
X85781Y-50674D01*
X85759Y-50686D01*
X85736Y-50686D01*
X85714Y-50674D01*
X85703Y-50663D01*
X85691Y-50641D01*
X85680Y-50596D01*
X85680Y-50539D01*
X85691Y-50494D01*
X85703Y-50472D01*
X85714Y-50461D01*
X85736Y-50449D01*
X85916Y-50663D02*
X85928Y-50674D01*
X85916Y-50686D01*
X85905Y-50674D01*
X85916Y-50663D01*
X85916Y-50686D01*
X86152Y-50686D02*
X86017Y-50686D01*
X86085Y-50686D02*
X86085Y-50449D01*
X86062Y-50483D01*
X86040Y-50506D01*
X86017Y-50517D01*
X86355Y-50528D02*
X86355Y-50686D01*
X86254Y-50528D02*
X86254Y-50652D01*
X86265Y-50674D01*
X86287Y-50686D01*
X86321Y-50686D01*
X86344Y-50674D01*
X86355Y-50663D01*
X82367Y-52947D02*
X82356Y-52958D01*
X82322Y-52969D01*
X82300Y-52969D01*
X82266Y-52958D01*
X82244Y-52935D01*
X82232Y-52913D01*
X82221Y-52868D01*
X82221Y-52834D01*
X82232Y-52789D01*
X82244Y-52767D01*
X82266Y-52744D01*
X82300Y-52733D01*
X82322Y-52733D01*
X82356Y-52744D01*
X82367Y-52755D01*
X82570Y-52812D02*
X82570Y-52969D01*
X82514Y-52722D02*
X82457Y-52890D01*
X82604Y-52890D01*
X82795Y-52812D02*
X82795Y-52969D01*
X82739Y-52722D02*
X82682Y-52890D01*
X82829Y-52890D01*
X81906Y-51979D02*
X81906Y-51957D01*
X81917Y-51934D01*
X81929Y-51923D01*
X81951Y-51912D01*
X81996Y-51901D01*
X82052Y-51901D01*
X82097Y-51912D01*
X82120Y-51923D01*
X82131Y-51934D01*
X82142Y-51957D01*
X82142Y-51979D01*
X82131Y-52002D01*
X82120Y-52013D01*
X82097Y-52024D01*
X82052Y-52035D01*
X81996Y-52035D01*
X81951Y-52024D01*
X81929Y-52013D01*
X81917Y-52002D01*
X81906Y-51979D01*
X82120Y-51799D02*
X82131Y-51788D01*
X82142Y-51799D01*
X82131Y-51811D01*
X82120Y-51799D01*
X82142Y-51799D01*
X82142Y-51563D02*
X82142Y-51698D01*
X82142Y-51631D02*
X81906Y-51631D01*
X81940Y-51653D01*
X81962Y-51676D01*
X81974Y-51698D01*
X81985Y-51361D02*
X82142Y-51361D01*
X81985Y-51462D02*
X82109Y-51462D01*
X82131Y-51451D01*
X82142Y-51428D01*
X82142Y-51394D01*
X82131Y-51372D01*
X82120Y-51361D01*
X80084Y-53183D02*
X80073Y-53194D01*
X80039Y-53205D01*
X80016Y-53205D01*
X79983Y-53194D01*
X79960Y-53172D01*
X79949Y-53149D01*
X79938Y-53104D01*
X79938Y-53070D01*
X79949Y-53025D01*
X79960Y-53003D01*
X79983Y-52980D01*
X80016Y-52969D01*
X80039Y-52969D01*
X80073Y-52980D01*
X80084Y-52992D01*
X80286Y-53048D02*
X80286Y-53205D01*
X80230Y-52958D02*
X80174Y-53127D01*
X80320Y-53127D01*
X80511Y-52969D02*
X80466Y-52969D01*
X80444Y-52980D01*
X80433Y-52992D01*
X80410Y-53025D01*
X80399Y-53070D01*
X80399Y-53160D01*
X80410Y-53183D01*
X80421Y-53194D01*
X80444Y-53205D01*
X80489Y-53205D01*
X80511Y-53194D01*
X80523Y-53183D01*
X80534Y-53160D01*
X80534Y-53104D01*
X80523Y-53082D01*
X80511Y-53070D01*
X80489Y-53059D01*
X80444Y-53059D01*
X80421Y-53070D01*
X80410Y-53082D01*
X80399Y-53104D01*
X79910Y-52654D02*
X79932Y-52654D01*
X79955Y-52665D01*
X79966Y-52677D01*
X79977Y-52699D01*
X79988Y-52744D01*
X79988Y-52800D01*
X79977Y-52845D01*
X79966Y-52868D01*
X79955Y-52879D01*
X79932Y-52890D01*
X79910Y-52890D01*
X79887Y-52879D01*
X79876Y-52868D01*
X79865Y-52845D01*
X79853Y-52800D01*
X79853Y-52744D01*
X79865Y-52699D01*
X79876Y-52677D01*
X79887Y-52665D01*
X79910Y-52654D01*
X80089Y-52868D02*
X80101Y-52879D01*
X80089Y-52890D01*
X80078Y-52879D01*
X80089Y-52868D01*
X80089Y-52890D01*
X80326Y-52890D02*
X80191Y-52890D01*
X80258Y-52890D02*
X80258Y-52654D01*
X80236Y-52688D01*
X80213Y-52710D01*
X80191Y-52722D01*
X80528Y-52733D02*
X80528Y-52890D01*
X80427Y-52733D02*
X80427Y-52857D01*
X80438Y-52879D01*
X80461Y-52890D01*
X80494Y-52890D01*
X80517Y-52879D01*
X80528Y-52868D01*
X75309Y-54994D02*
X75320Y-55005D01*
X75331Y-55039D01*
X75331Y-55061D01*
X75320Y-55095D01*
X75298Y-55118D01*
X75275Y-55129D01*
X75230Y-55140D01*
X75196Y-55140D01*
X75151Y-55129D01*
X75129Y-55118D01*
X75106Y-55095D01*
X75095Y-55061D01*
X75095Y-55039D01*
X75106Y-55005D01*
X75118Y-54994D01*
X75095Y-54915D02*
X75095Y-54769D01*
X75185Y-54848D01*
X75185Y-54814D01*
X75196Y-54791D01*
X75208Y-54780D01*
X75230Y-54769D01*
X75286Y-54769D01*
X75309Y-54780D01*
X75320Y-54791D01*
X75331Y-54814D01*
X75331Y-54881D01*
X75320Y-54904D01*
X75309Y-54915D01*
X75095Y-54690D02*
X75095Y-54544D01*
X75185Y-54623D01*
X75185Y-54589D01*
X75196Y-54566D01*
X75208Y-54555D01*
X75230Y-54544D01*
X75286Y-54544D01*
X75309Y-54555D01*
X75320Y-54566D01*
X75331Y-54589D01*
X75331Y-54656D01*
X75320Y-54679D01*
X75309Y-54690D01*
X76811Y-55213D02*
X76676Y-55213D01*
X76743Y-55213D02*
X76743Y-54977D01*
X76721Y-55011D01*
X76698Y-55033D01*
X76676Y-55044D01*
X77013Y-55056D02*
X77013Y-55213D01*
X76912Y-55056D02*
X76912Y-55179D01*
X76923Y-55202D01*
X76946Y-55213D01*
X76979Y-55213D01*
X77002Y-55202D01*
X77013Y-55191D01*
X75399Y-51372D02*
X75388Y-51383D01*
X75354Y-51394D01*
X75331Y-51394D01*
X75298Y-51383D01*
X75275Y-51361D01*
X75264Y-51338D01*
X75253Y-51293D01*
X75253Y-51259D01*
X75264Y-51214D01*
X75275Y-51192D01*
X75298Y-51169D01*
X75331Y-51158D01*
X75354Y-51158D01*
X75388Y-51169D01*
X75399Y-51181D01*
X75478Y-51158D02*
X75624Y-51158D01*
X75545Y-51248D01*
X75579Y-51248D01*
X75601Y-51259D01*
X75613Y-51271D01*
X75624Y-51293D01*
X75624Y-51349D01*
X75613Y-51372D01*
X75601Y-51383D01*
X75579Y-51394D01*
X75511Y-51394D01*
X75489Y-51383D01*
X75478Y-51372D01*
X75838Y-51158D02*
X75725Y-51158D01*
X75714Y-51271D01*
X75725Y-51259D01*
X75748Y-51248D01*
X75804Y-51248D01*
X75826Y-51259D01*
X75838Y-51271D01*
X75849Y-51293D01*
X75849Y-51349D01*
X75838Y-51372D01*
X75826Y-51383D01*
X75804Y-51394D01*
X75748Y-51394D01*
X75725Y-51383D01*
X75714Y-51372D01*
X76259Y-51355D02*
X76124Y-51355D01*
X76192Y-51355D02*
X76192Y-51119D01*
X76169Y-51152D01*
X76147Y-51175D01*
X76124Y-51186D01*
X76462Y-51197D02*
X76462Y-51355D01*
X76361Y-51197D02*
X76361Y-51321D01*
X76372Y-51344D01*
X76394Y-51355D01*
X76428Y-51355D01*
X76451Y-51344D01*
X76462Y-51332D01*
X72868Y-47773D02*
X72856Y-47784D01*
X72823Y-47796D01*
X72800Y-47796D01*
X72766Y-47784D01*
X72744Y-47762D01*
X72733Y-47739D01*
X72721Y-47694D01*
X72721Y-47661D01*
X72733Y-47616D01*
X72744Y-47593D01*
X72766Y-47571D01*
X72800Y-47559D01*
X72823Y-47559D01*
X72856Y-47571D01*
X72868Y-47582D01*
X73093Y-47796D02*
X72958Y-47796D01*
X73025Y-47796D02*
X73025Y-47559D01*
X73003Y-47593D01*
X72980Y-47616D01*
X72958Y-47627D01*
X73171Y-47559D02*
X73318Y-47559D01*
X73239Y-47649D01*
X73273Y-47649D01*
X73295Y-47661D01*
X73306Y-47672D01*
X73318Y-47694D01*
X73318Y-47751D01*
X73306Y-47773D01*
X73295Y-47784D01*
X73273Y-47796D01*
X73205Y-47796D01*
X73183Y-47784D01*
X73171Y-47773D01*
X73678Y-47924D02*
X73678Y-47902D01*
X73689Y-47879D01*
X73700Y-47868D01*
X73723Y-47857D01*
X73768Y-47845D01*
X73824Y-47845D01*
X73869Y-47857D01*
X73892Y-47868D01*
X73903Y-47879D01*
X73914Y-47902D01*
X73914Y-47924D01*
X73903Y-47947D01*
X73892Y-47958D01*
X73869Y-47969D01*
X73824Y-47980D01*
X73768Y-47980D01*
X73723Y-47969D01*
X73700Y-47958D01*
X73689Y-47947D01*
X73678Y-47924D01*
X73892Y-47744D02*
X73903Y-47733D01*
X73914Y-47744D01*
X73903Y-47755D01*
X73892Y-47744D01*
X73914Y-47744D01*
X73914Y-47508D02*
X73914Y-47643D01*
X73914Y-47575D02*
X73678Y-47575D01*
X73712Y-47598D01*
X73734Y-47620D01*
X73745Y-47643D01*
X73757Y-47305D02*
X73914Y-47305D01*
X73757Y-47407D02*
X73880Y-47407D01*
X73903Y-47395D01*
X73914Y-47373D01*
X73914Y-47339D01*
X73903Y-47317D01*
X73892Y-47305D01*
X72888Y-48397D02*
X72877Y-48409D01*
X72843Y-48420D01*
X72821Y-48420D01*
X72787Y-48409D01*
X72764Y-48386D01*
X72753Y-48364D01*
X72742Y-48319D01*
X72742Y-48285D01*
X72753Y-48240D01*
X72764Y-48217D01*
X72787Y-48195D01*
X72821Y-48184D01*
X72843Y-48184D01*
X72877Y-48195D01*
X72888Y-48206D01*
X72978Y-48206D02*
X72989Y-48195D01*
X73012Y-48184D01*
X73068Y-48184D01*
X73090Y-48195D01*
X73102Y-48206D01*
X73113Y-48229D01*
X73113Y-48251D01*
X73102Y-48285D01*
X72967Y-48420D01*
X73113Y-48420D01*
X73192Y-48184D02*
X73338Y-48184D01*
X73259Y-48274D01*
X73293Y-48274D01*
X73315Y-48285D01*
X73327Y-48296D01*
X73338Y-48319D01*
X73338Y-48375D01*
X73327Y-48397D01*
X73315Y-48409D01*
X73293Y-48420D01*
X73225Y-48420D01*
X73203Y-48409D01*
X73192Y-48397D01*
X73678Y-48672D02*
X73678Y-48650D01*
X73689Y-48627D01*
X73700Y-48616D01*
X73723Y-48605D01*
X73768Y-48593D01*
X73824Y-48593D01*
X73869Y-48605D01*
X73892Y-48616D01*
X73903Y-48627D01*
X73914Y-48650D01*
X73914Y-48672D01*
X73903Y-48695D01*
X73892Y-48706D01*
X73869Y-48717D01*
X73824Y-48728D01*
X73768Y-48728D01*
X73723Y-48717D01*
X73700Y-48706D01*
X73689Y-48695D01*
X73678Y-48672D01*
X73892Y-48492D02*
X73903Y-48481D01*
X73914Y-48492D01*
X73903Y-48503D01*
X73892Y-48492D01*
X73914Y-48492D01*
X73914Y-48256D02*
X73914Y-48391D01*
X73914Y-48323D02*
X73678Y-48323D01*
X73712Y-48346D01*
X73734Y-48368D01*
X73745Y-48391D01*
X73757Y-48053D02*
X73914Y-48053D01*
X73757Y-48155D02*
X73880Y-48155D01*
X73903Y-48143D01*
X73914Y-48121D01*
X73914Y-48087D01*
X73903Y-48065D01*
X73892Y-48053D01*
X72682Y-50584D02*
X72671Y-50596D01*
X72637Y-50607D01*
X72615Y-50607D01*
X72581Y-50596D01*
X72559Y-50573D01*
X72547Y-50551D01*
X72536Y-50506D01*
X72536Y-50472D01*
X72547Y-50427D01*
X72559Y-50404D01*
X72581Y-50382D01*
X72615Y-50371D01*
X72637Y-50371D01*
X72671Y-50382D01*
X72682Y-50393D01*
X72761Y-50371D02*
X72907Y-50371D01*
X72829Y-50461D01*
X72862Y-50461D01*
X72885Y-50472D01*
X72896Y-50483D01*
X72907Y-50506D01*
X72907Y-50562D01*
X72896Y-50584D01*
X72885Y-50596D01*
X72862Y-50607D01*
X72795Y-50607D01*
X72772Y-50596D01*
X72761Y-50584D01*
X73132Y-50607D02*
X72997Y-50607D01*
X73065Y-50607D02*
X73065Y-50371D01*
X73042Y-50404D01*
X73020Y-50427D01*
X72997Y-50438D01*
X73464Y-50607D02*
X73329Y-50607D01*
X73397Y-50607D02*
X73397Y-50371D01*
X73374Y-50404D01*
X73352Y-50427D01*
X73329Y-50438D01*
X73667Y-50449D02*
X73667Y-50607D01*
X73565Y-50449D02*
X73565Y-50573D01*
X73577Y-50596D01*
X73599Y-50607D01*
X73633Y-50607D01*
X73655Y-50596D01*
X73667Y-50584D01*
X72682Y-50269D02*
X72671Y-50281D01*
X72637Y-50292D01*
X72615Y-50292D01*
X72581Y-50281D01*
X72559Y-50258D01*
X72547Y-50236D01*
X72536Y-50191D01*
X72536Y-50157D01*
X72547Y-50112D01*
X72559Y-50089D01*
X72581Y-50067D01*
X72615Y-50056D01*
X72637Y-50056D01*
X72671Y-50067D01*
X72682Y-50078D01*
X72761Y-50056D02*
X72907Y-50056D01*
X72829Y-50146D01*
X72862Y-50146D01*
X72885Y-50157D01*
X72896Y-50168D01*
X72907Y-50191D01*
X72907Y-50247D01*
X72896Y-50269D01*
X72885Y-50281D01*
X72862Y-50292D01*
X72795Y-50292D01*
X72772Y-50281D01*
X72761Y-50269D01*
X72997Y-50078D02*
X73008Y-50067D01*
X73031Y-50056D01*
X73087Y-50056D01*
X73110Y-50067D01*
X73121Y-50078D01*
X73132Y-50101D01*
X73132Y-50123D01*
X73121Y-50157D01*
X72986Y-50292D01*
X73132Y-50292D01*
X73464Y-50292D02*
X73329Y-50292D01*
X73397Y-50292D02*
X73397Y-50056D01*
X73374Y-50089D01*
X73352Y-50112D01*
X73329Y-50123D01*
X73667Y-50134D02*
X73667Y-50292D01*
X73565Y-50134D02*
X73565Y-50258D01*
X73577Y-50281D01*
X73599Y-50292D01*
X73633Y-50292D01*
X73655Y-50281D01*
X73667Y-50269D01*
X80073Y-54915D02*
X80084Y-54926D01*
X80095Y-54960D01*
X80095Y-54983D01*
X80084Y-55016D01*
X80061Y-55039D01*
X80039Y-55050D01*
X79994Y-55061D01*
X79960Y-55061D01*
X79915Y-55050D01*
X79893Y-55039D01*
X79870Y-55016D01*
X79859Y-54983D01*
X79859Y-54960D01*
X79870Y-54926D01*
X79881Y-54915D01*
X79859Y-54836D02*
X79859Y-54690D01*
X79949Y-54769D01*
X79949Y-54735D01*
X79960Y-54713D01*
X79971Y-54701D01*
X79994Y-54690D01*
X80050Y-54690D01*
X80073Y-54701D01*
X80084Y-54713D01*
X80095Y-54735D01*
X80095Y-54803D01*
X80084Y-54825D01*
X80073Y-54836D01*
X79859Y-54488D02*
X79859Y-54533D01*
X79870Y-54555D01*
X79881Y-54566D01*
X79915Y-54589D01*
X79960Y-54600D01*
X80050Y-54600D01*
X80073Y-54589D01*
X80084Y-54578D01*
X80095Y-54555D01*
X80095Y-54510D01*
X80084Y-54488D01*
X80073Y-54476D01*
X80050Y-54465D01*
X79994Y-54465D01*
X79971Y-54476D01*
X79960Y-54488D01*
X79949Y-54510D01*
X79949Y-54555D01*
X79960Y-54578D01*
X79971Y-54589D01*
X79994Y-54600D01*
X78982Y-54566D02*
X78993Y-54555D01*
X79015Y-54544D01*
X79071Y-54544D01*
X79094Y-54555D01*
X79105Y-54566D01*
X79116Y-54589D01*
X79116Y-54611D01*
X79105Y-54645D01*
X78970Y-54780D01*
X79116Y-54780D01*
X79263Y-54544D02*
X79285Y-54544D01*
X79308Y-54555D01*
X79319Y-54566D01*
X79330Y-54589D01*
X79341Y-54634D01*
X79341Y-54690D01*
X79330Y-54735D01*
X79319Y-54758D01*
X79308Y-54769D01*
X79285Y-54780D01*
X79263Y-54780D01*
X79240Y-54769D01*
X79229Y-54758D01*
X79218Y-54735D01*
X79206Y-54690D01*
X79206Y-54634D01*
X79218Y-54589D01*
X79229Y-54566D01*
X79240Y-54555D01*
X79263Y-54544D01*
X79443Y-54623D02*
X79443Y-54859D01*
X79443Y-54634D02*
X79465Y-54623D01*
X79510Y-54623D01*
X79533Y-54634D01*
X79544Y-54645D01*
X79555Y-54668D01*
X79555Y-54735D01*
X79544Y-54758D01*
X79533Y-54769D01*
X79510Y-54780D01*
X79465Y-54780D01*
X79443Y-54769D01*
X79735Y-54656D02*
X79656Y-54656D01*
X79656Y-54780D02*
X79656Y-54544D01*
X79769Y-54544D01*
X78183Y-46923D02*
X78194Y-46934D01*
X78205Y-46968D01*
X78205Y-46991D01*
X78194Y-47024D01*
X78172Y-47047D01*
X78149Y-47058D01*
X78104Y-47069D01*
X78070Y-47069D01*
X78025Y-47058D01*
X78003Y-47047D01*
X77980Y-47024D01*
X77969Y-46991D01*
X77969Y-46968D01*
X77980Y-46934D01*
X77992Y-46923D01*
X77992Y-46833D02*
X77980Y-46822D01*
X77969Y-46799D01*
X77969Y-46743D01*
X77980Y-46721D01*
X77992Y-46709D01*
X78014Y-46698D01*
X78037Y-46698D01*
X78070Y-46709D01*
X78205Y-46844D01*
X78205Y-46698D01*
X77969Y-46619D02*
X77969Y-46462D01*
X78205Y-46563D01*
X78953Y-46822D02*
X78953Y-46799D01*
X78965Y-46777D01*
X78976Y-46766D01*
X78998Y-46754D01*
X79043Y-46743D01*
X79100Y-46743D01*
X79145Y-46754D01*
X79167Y-46766D01*
X79178Y-46777D01*
X79190Y-46799D01*
X79190Y-46822D01*
X79178Y-46844D01*
X79167Y-46856D01*
X79145Y-46867D01*
X79100Y-46878D01*
X79043Y-46878D01*
X78998Y-46867D01*
X78976Y-46856D01*
X78965Y-46844D01*
X78953Y-46822D01*
X79167Y-46642D02*
X79178Y-46631D01*
X79190Y-46642D01*
X79178Y-46653D01*
X79167Y-46642D01*
X79190Y-46642D01*
X79190Y-46406D02*
X79190Y-46541D01*
X79190Y-46473D02*
X78953Y-46473D01*
X78987Y-46496D01*
X79010Y-46518D01*
X79021Y-46541D01*
X79032Y-46203D02*
X79190Y-46203D01*
X79032Y-46304D02*
X79156Y-46304D01*
X79178Y-46293D01*
X79190Y-46271D01*
X79190Y-46237D01*
X79178Y-46214D01*
X79167Y-46203D01*
X75084Y-49403D02*
X75073Y-49415D01*
X75039Y-49426D01*
X75016Y-49426D01*
X74983Y-49415D01*
X74960Y-49392D01*
X74949Y-49370D01*
X74938Y-49325D01*
X74938Y-49291D01*
X74949Y-49246D01*
X74960Y-49223D01*
X74983Y-49201D01*
X75016Y-49190D01*
X75039Y-49190D01*
X75073Y-49201D01*
X75084Y-49212D01*
X75174Y-49212D02*
X75185Y-49201D01*
X75208Y-49190D01*
X75264Y-49190D01*
X75286Y-49201D01*
X75298Y-49212D01*
X75309Y-49235D01*
X75309Y-49257D01*
X75298Y-49291D01*
X75163Y-49426D01*
X75309Y-49426D01*
X75421Y-49426D02*
X75466Y-49426D01*
X75489Y-49415D01*
X75500Y-49403D01*
X75523Y-49370D01*
X75534Y-49325D01*
X75534Y-49235D01*
X75523Y-49212D01*
X75511Y-49201D01*
X75489Y-49190D01*
X75444Y-49190D01*
X75421Y-49201D01*
X75410Y-49212D01*
X75399Y-49235D01*
X75399Y-49291D01*
X75410Y-49313D01*
X75421Y-49325D01*
X75444Y-49336D01*
X75489Y-49336D01*
X75511Y-49325D01*
X75523Y-49313D01*
X75534Y-49291D01*
X75815Y-49190D02*
X75838Y-49190D01*
X75860Y-49201D01*
X75871Y-49212D01*
X75883Y-49235D01*
X75894Y-49280D01*
X75894Y-49336D01*
X75883Y-49381D01*
X75871Y-49403D01*
X75860Y-49415D01*
X75838Y-49426D01*
X75815Y-49426D01*
X75793Y-49415D01*
X75781Y-49403D01*
X75770Y-49381D01*
X75759Y-49336D01*
X75759Y-49280D01*
X75770Y-49235D01*
X75781Y-49212D01*
X75793Y-49201D01*
X75815Y-49190D01*
X75995Y-49403D02*
X76006Y-49415D01*
X75995Y-49426D01*
X75984Y-49415D01*
X75995Y-49403D01*
X75995Y-49426D01*
X76231Y-49426D02*
X76096Y-49426D01*
X76164Y-49426D02*
X76164Y-49190D01*
X76141Y-49223D01*
X76119Y-49246D01*
X76096Y-49257D01*
X76434Y-49268D02*
X76434Y-49426D01*
X76332Y-49268D02*
X76332Y-49392D01*
X76344Y-49415D01*
X76366Y-49426D01*
X76400Y-49426D01*
X76422Y-49415D01*
X76434Y-49403D01*
X73976Y-49955D02*
X73965Y-49966D01*
X73931Y-49977D01*
X73908Y-49977D01*
X73875Y-49966D01*
X73852Y-49943D01*
X73841Y-49921D01*
X73830Y-49876D01*
X73830Y-49842D01*
X73841Y-49797D01*
X73852Y-49775D01*
X73875Y-49752D01*
X73908Y-49741D01*
X73931Y-49741D01*
X73965Y-49752D01*
X73976Y-49763D01*
X74201Y-49977D02*
X74066Y-49977D01*
X74133Y-49977D02*
X74133Y-49741D01*
X74111Y-49775D01*
X74088Y-49797D01*
X74066Y-49808D01*
X74533Y-49977D02*
X74398Y-49977D01*
X74465Y-49977D02*
X74465Y-49741D01*
X74443Y-49775D01*
X74420Y-49797D01*
X74398Y-49808D01*
X74679Y-49741D02*
X74701Y-49741D01*
X74724Y-49752D01*
X74735Y-49763D01*
X74746Y-49786D01*
X74758Y-49831D01*
X74758Y-49887D01*
X74746Y-49932D01*
X74735Y-49955D01*
X74724Y-49966D01*
X74701Y-49977D01*
X74679Y-49977D01*
X74656Y-49966D01*
X74645Y-49955D01*
X74634Y-49932D01*
X74623Y-49887D01*
X74623Y-49831D01*
X74634Y-49786D01*
X74645Y-49763D01*
X74656Y-49752D01*
X74679Y-49741D01*
X74859Y-49820D02*
X74859Y-49977D01*
X74859Y-49842D02*
X74870Y-49831D01*
X74893Y-49820D01*
X74926Y-49820D01*
X74949Y-49831D01*
X74960Y-49853D01*
X74960Y-49977D01*
X78183Y-48695D02*
X78194Y-48706D01*
X78205Y-48740D01*
X78205Y-48762D01*
X78194Y-48796D01*
X78172Y-48818D01*
X78149Y-48830D01*
X78104Y-48841D01*
X78070Y-48841D01*
X78025Y-48830D01*
X78003Y-48818D01*
X77980Y-48796D01*
X77969Y-48762D01*
X77969Y-48740D01*
X77980Y-48706D01*
X77992Y-48695D01*
X77992Y-48605D02*
X77980Y-48593D01*
X77969Y-48571D01*
X77969Y-48515D01*
X77980Y-48492D01*
X77992Y-48481D01*
X78014Y-48470D01*
X78037Y-48470D01*
X78070Y-48481D01*
X78205Y-48616D01*
X78205Y-48470D01*
X78070Y-48335D02*
X78059Y-48357D01*
X78048Y-48368D01*
X78025Y-48380D01*
X78014Y-48380D01*
X77992Y-48368D01*
X77980Y-48357D01*
X77969Y-48335D01*
X77969Y-48290D01*
X77980Y-48267D01*
X77992Y-48256D01*
X78014Y-48245D01*
X78025Y-48245D01*
X78048Y-48256D01*
X78059Y-48267D01*
X78070Y-48290D01*
X78070Y-48335D01*
X78082Y-48357D01*
X78093Y-48368D01*
X78115Y-48380D01*
X78160Y-48380D01*
X78183Y-48368D01*
X78194Y-48357D01*
X78205Y-48335D01*
X78205Y-48290D01*
X78194Y-48267D01*
X78183Y-48256D01*
X78160Y-48245D01*
X78115Y-48245D01*
X78093Y-48256D01*
X78082Y-48267D01*
X78070Y-48290D01*
X78993Y-48515D02*
X78993Y-48493D01*
X79004Y-48470D01*
X79015Y-48459D01*
X79038Y-48448D01*
X79083Y-48436D01*
X79139Y-48436D01*
X79184Y-48448D01*
X79206Y-48459D01*
X79218Y-48470D01*
X79229Y-48493D01*
X79229Y-48515D01*
X79218Y-48538D01*
X79206Y-48549D01*
X79184Y-48560D01*
X79139Y-48571D01*
X79083Y-48571D01*
X79038Y-48560D01*
X79015Y-48549D01*
X79004Y-48538D01*
X78993Y-48515D01*
X79206Y-48335D02*
X79218Y-48324D01*
X79229Y-48335D01*
X79218Y-48346D01*
X79206Y-48335D01*
X79229Y-48335D01*
X79229Y-48099D02*
X79229Y-48234D01*
X79229Y-48166D02*
X78993Y-48166D01*
X79026Y-48189D01*
X79049Y-48211D01*
X79060Y-48234D01*
X79071Y-47896D02*
X79229Y-47896D01*
X79071Y-47998D02*
X79195Y-47998D01*
X79218Y-47986D01*
X79229Y-47964D01*
X79229Y-47930D01*
X79218Y-47908D01*
X79206Y-47896D01*
X74015Y-50899D02*
X74004Y-50911D01*
X73970Y-50922D01*
X73948Y-50922D01*
X73914Y-50911D01*
X73892Y-50888D01*
X73880Y-50866D01*
X73869Y-50821D01*
X73869Y-50787D01*
X73880Y-50742D01*
X73892Y-50719D01*
X73914Y-50697D01*
X73948Y-50686D01*
X73970Y-50686D01*
X74004Y-50697D01*
X74015Y-50708D01*
X74094Y-50686D02*
X74240Y-50686D01*
X74161Y-50776D01*
X74195Y-50776D01*
X74218Y-50787D01*
X74229Y-50798D01*
X74240Y-50821D01*
X74240Y-50877D01*
X74229Y-50899D01*
X74218Y-50911D01*
X74195Y-50922D01*
X74128Y-50922D01*
X74105Y-50911D01*
X74094Y-50899D01*
X74533Y-50922D02*
X74398Y-50922D01*
X74465Y-50922D02*
X74465Y-50686D01*
X74443Y-50719D01*
X74420Y-50742D01*
X74398Y-50753D01*
X74679Y-50686D02*
X74701Y-50686D01*
X74724Y-50697D01*
X74735Y-50708D01*
X74746Y-50731D01*
X74758Y-50776D01*
X74758Y-50832D01*
X74746Y-50877D01*
X74735Y-50899D01*
X74724Y-50911D01*
X74701Y-50922D01*
X74679Y-50922D01*
X74656Y-50911D01*
X74645Y-50899D01*
X74634Y-50877D01*
X74623Y-50832D01*
X74623Y-50776D01*
X74634Y-50731D01*
X74645Y-50708D01*
X74656Y-50697D01*
X74679Y-50686D01*
X74859Y-50764D02*
X74859Y-50922D01*
X74859Y-50787D02*
X74870Y-50776D01*
X74893Y-50764D01*
X74926Y-50764D01*
X74949Y-50776D01*
X74960Y-50798D01*
X74960Y-50922D01*
X72883Y-46833D02*
X72872Y-46844D01*
X72838Y-46855D01*
X72815Y-46855D01*
X72782Y-46844D01*
X72759Y-46821D01*
X72748Y-46799D01*
X72737Y-46754D01*
X72737Y-46720D01*
X72748Y-46675D01*
X72759Y-46653D01*
X72782Y-46630D01*
X72815Y-46619D01*
X72838Y-46619D01*
X72872Y-46630D01*
X72883Y-46642D01*
X72973Y-46642D02*
X72984Y-46630D01*
X73007Y-46619D01*
X73063Y-46619D01*
X73085Y-46630D01*
X73097Y-46642D01*
X73108Y-46664D01*
X73108Y-46687D01*
X73097Y-46720D01*
X72962Y-46855D01*
X73108Y-46855D01*
X73310Y-46698D02*
X73310Y-46855D01*
X73254Y-46608D02*
X73198Y-46776D01*
X73344Y-46776D01*
X73678Y-47137D02*
X73678Y-47114D01*
X73689Y-47092D01*
X73700Y-47080D01*
X73723Y-47069D01*
X73768Y-47058D01*
X73824Y-47058D01*
X73869Y-47069D01*
X73892Y-47080D01*
X73903Y-47092D01*
X73914Y-47114D01*
X73914Y-47137D01*
X73903Y-47159D01*
X73892Y-47170D01*
X73869Y-47182D01*
X73824Y-47193D01*
X73768Y-47193D01*
X73723Y-47182D01*
X73700Y-47170D01*
X73689Y-47159D01*
X73678Y-47137D01*
X73892Y-46957D02*
X73903Y-46946D01*
X73914Y-46957D01*
X73903Y-46968D01*
X73892Y-46957D01*
X73914Y-46957D01*
X73914Y-46721D02*
X73914Y-46856D01*
X73914Y-46788D02*
X73678Y-46788D01*
X73712Y-46811D01*
X73734Y-46833D01*
X73745Y-46856D01*
X73757Y-46518D02*
X73914Y-46518D01*
X73757Y-46619D02*
X73880Y-46619D01*
X73903Y-46608D01*
X73914Y-46586D01*
X73914Y-46552D01*
X73903Y-46529D01*
X73892Y-46518D01*
X86647Y-53931D02*
X86659Y-53942D01*
X86670Y-53976D01*
X86670Y-53998D01*
X86659Y-54032D01*
X86636Y-54055D01*
X86614Y-54066D01*
X86569Y-54077D01*
X86535Y-54077D01*
X86490Y-54066D01*
X86467Y-54055D01*
X86445Y-54032D01*
X86434Y-53998D01*
X86434Y-53976D01*
X86445Y-53942D01*
X86456Y-53931D01*
X86512Y-53728D02*
X86670Y-53728D01*
X86422Y-53785D02*
X86591Y-53841D01*
X86591Y-53695D01*
X86535Y-53571D02*
X86524Y-53593D01*
X86512Y-53605D01*
X86490Y-53616D01*
X86479Y-53616D01*
X86456Y-53605D01*
X86445Y-53593D01*
X86434Y-53571D01*
X86434Y-53526D01*
X86445Y-53503D01*
X86456Y-53492D01*
X86479Y-53481D01*
X86490Y-53481D01*
X86512Y-53492D01*
X86524Y-53503D01*
X86535Y-53526D01*
X86535Y-53571D01*
X86546Y-53593D01*
X86557Y-53605D01*
X86580Y-53616D01*
X86625Y-53616D01*
X86647Y-53605D01*
X86659Y-53593D01*
X86670Y-53571D01*
X86670Y-53526D01*
X86659Y-53503D01*
X86647Y-53492D01*
X86625Y-53481D01*
X86580Y-53481D01*
X86557Y-53492D01*
X86546Y-53503D01*
X86535Y-53526D01*
X86985Y-53818D02*
X86985Y-53953D01*
X86985Y-53886D02*
X86749Y-53886D01*
X86782Y-53908D01*
X86805Y-53931D01*
X86816Y-53953D01*
X86827Y-53616D02*
X86985Y-53616D01*
X86827Y-53717D02*
X86951Y-53717D01*
X86974Y-53706D01*
X86985Y-53683D01*
X86985Y-53650D01*
X86974Y-53627D01*
X86962Y-53616D01*
X83616Y-54364D02*
X83627Y-54375D01*
X83638Y-54409D01*
X83638Y-54431D01*
X83627Y-54465D01*
X83605Y-54488D01*
X83582Y-54499D01*
X83537Y-54510D01*
X83503Y-54510D01*
X83458Y-54499D01*
X83436Y-54488D01*
X83413Y-54465D01*
X83402Y-54431D01*
X83402Y-54409D01*
X83413Y-54375D01*
X83425Y-54364D01*
X83481Y-54161D02*
X83638Y-54161D01*
X83391Y-54218D02*
X83560Y-54274D01*
X83560Y-54128D01*
X83402Y-54060D02*
X83402Y-53903D01*
X83638Y-54004D01*
X83638Y-53503D02*
X83638Y-53638D01*
X83638Y-53571D02*
X83402Y-53571D01*
X83436Y-53593D01*
X83458Y-53616D01*
X83470Y-53638D01*
X83481Y-53301D02*
X83638Y-53301D01*
X83481Y-53402D02*
X83605Y-53402D01*
X83627Y-53391D01*
X83638Y-53368D01*
X83638Y-53335D01*
X83627Y-53312D01*
X83616Y-53301D01*
X72879Y-46175D02*
X72868Y-46186D01*
X72834Y-46197D01*
X72812Y-46197D01*
X72778Y-46186D01*
X72755Y-46164D01*
X72744Y-46141D01*
X72733Y-46096D01*
X72733Y-46062D01*
X72744Y-46017D01*
X72755Y-45995D01*
X72778Y-45973D01*
X72812Y-45961D01*
X72834Y-45961D01*
X72868Y-45973D01*
X72879Y-45984D01*
X72969Y-45984D02*
X72980Y-45973D01*
X73003Y-45961D01*
X73059Y-45961D01*
X73082Y-45973D01*
X73093Y-45984D01*
X73104Y-46006D01*
X73104Y-46029D01*
X73093Y-46062D01*
X72958Y-46197D01*
X73104Y-46197D01*
X73318Y-45961D02*
X73205Y-45961D01*
X73194Y-46074D01*
X73205Y-46062D01*
X73228Y-46051D01*
X73284Y-46051D01*
X73307Y-46062D01*
X73318Y-46074D01*
X73329Y-46096D01*
X73329Y-46152D01*
X73318Y-46175D01*
X73307Y-46186D01*
X73284Y-46197D01*
X73228Y-46197D01*
X73205Y-46186D01*
X73194Y-46175D01*
X73678Y-46310D02*
X73678Y-46287D01*
X73689Y-46265D01*
X73700Y-46254D01*
X73723Y-46242D01*
X73768Y-46231D01*
X73824Y-46231D01*
X73869Y-46242D01*
X73892Y-46254D01*
X73903Y-46265D01*
X73914Y-46287D01*
X73914Y-46310D01*
X73903Y-46332D01*
X73892Y-46344D01*
X73869Y-46355D01*
X73824Y-46366D01*
X73768Y-46366D01*
X73723Y-46355D01*
X73700Y-46344D01*
X73689Y-46332D01*
X73678Y-46310D01*
X73892Y-46130D02*
X73903Y-46119D01*
X73914Y-46130D01*
X73903Y-46141D01*
X73892Y-46130D01*
X73914Y-46130D01*
X73914Y-45894D02*
X73914Y-46029D01*
X73914Y-45961D02*
X73678Y-45961D01*
X73712Y-45984D01*
X73734Y-46006D01*
X73745Y-46029D01*
X73757Y-45691D02*
X73914Y-45691D01*
X73757Y-45793D02*
X73880Y-45793D01*
X73903Y-45781D01*
X73914Y-45759D01*
X73914Y-45725D01*
X73903Y-45703D01*
X73892Y-45691D01*
X75826Y-53442D02*
X75826Y-53205D01*
X75883Y-53205D01*
X75916Y-53217D01*
X75939Y-53239D01*
X75950Y-53262D01*
X75961Y-53307D01*
X75961Y-53340D01*
X75950Y-53385D01*
X75939Y-53408D01*
X75916Y-53430D01*
X75883Y-53442D01*
X75826Y-53442D01*
X76051Y-53374D02*
X76164Y-53374D01*
X76029Y-53442D02*
X76107Y-53205D01*
X76186Y-53442D01*
X76254Y-53228D02*
X76265Y-53217D01*
X76287Y-53205D01*
X76344Y-53205D01*
X76366Y-53217D01*
X76377Y-53228D01*
X76389Y-53250D01*
X76389Y-53273D01*
X76377Y-53307D01*
X76242Y-53442D01*
X76389Y-53442D01*
X75095Y-54043D02*
X75095Y-53908D01*
X75331Y-53976D02*
X75095Y-53976D01*
X75331Y-53830D02*
X75095Y-53830D01*
X75095Y-53740D01*
X75106Y-53717D01*
X75118Y-53706D01*
X75140Y-53695D01*
X75174Y-53695D01*
X75196Y-53706D01*
X75208Y-53717D01*
X75219Y-53740D01*
X75219Y-53830D01*
X75264Y-53605D02*
X75264Y-53492D01*
X75331Y-53627D02*
X75095Y-53548D01*
X75331Y-53470D01*
X75095Y-53290D02*
X75095Y-53335D01*
X75106Y-53357D01*
X75118Y-53368D01*
X75151Y-53391D01*
X75196Y-53402D01*
X75286Y-53402D01*
X75309Y-53391D01*
X75320Y-53380D01*
X75331Y-53357D01*
X75331Y-53312D01*
X75320Y-53290D01*
X75309Y-53278D01*
X75286Y-53267D01*
X75230Y-53267D01*
X75208Y-53278D01*
X75196Y-53290D01*
X75185Y-53312D01*
X75185Y-53357D01*
X75196Y-53380D01*
X75208Y-53391D01*
X75230Y-53402D01*
X75118Y-53177D02*
X75106Y-53166D01*
X75095Y-53143D01*
X75095Y-53087D01*
X75106Y-53065D01*
X75118Y-53053D01*
X75140Y-53042D01*
X75163Y-53042D01*
X75196Y-53053D01*
X75331Y-53188D01*
X75331Y-53042D01*
X75331Y-52817D02*
X75331Y-52952D01*
X75331Y-52885D02*
X75095Y-52885D01*
X75129Y-52907D01*
X75151Y-52930D01*
X75163Y-52952D01*
X75331Y-52592D02*
X75331Y-52727D01*
X75331Y-52660D02*
X75095Y-52660D01*
X75129Y-52682D01*
X75151Y-52705D01*
X75163Y-52727D01*
G54D16*
X86394Y-52873D02*
X86372Y-52862D01*
X86349Y-52840D01*
X86316Y-52806D01*
X86293Y-52795D01*
X86271Y-52795D01*
X86282Y-52851D02*
X86259Y-52840D01*
X86237Y-52817D01*
X86226Y-52772D01*
X86226Y-52694D01*
X86237Y-52649D01*
X86259Y-52626D01*
X86282Y-52615D01*
X86327Y-52615D01*
X86349Y-52626D01*
X86372Y-52649D01*
X86383Y-52694D01*
X86383Y-52772D01*
X86372Y-52817D01*
X86349Y-52840D01*
X86327Y-52851D01*
X86282Y-52851D01*
X86473Y-52637D02*
X86484Y-52626D01*
X86507Y-52615D01*
X86563Y-52615D01*
X86585Y-52626D01*
X86597Y-52637D01*
X86608Y-52660D01*
X86608Y-52682D01*
X86597Y-52716D01*
X86462Y-52851D01*
X86608Y-52851D01*
X86333Y-53082D02*
X86367Y-53093D01*
X86378Y-53104D01*
X86389Y-53127D01*
X86389Y-53160D01*
X86378Y-53183D01*
X86367Y-53194D01*
X86344Y-53205D01*
X86254Y-53205D01*
X86254Y-52969D01*
X86333Y-52969D01*
X86355Y-52980D01*
X86367Y-52992D01*
X86378Y-53014D01*
X86378Y-53037D01*
X86367Y-53059D01*
X86355Y-53070D01*
X86333Y-53082D01*
X86254Y-53082D01*
X86625Y-53183D02*
X86614Y-53194D01*
X86580Y-53205D01*
X86558Y-53205D01*
X86524Y-53194D01*
X86501Y-53172D01*
X86490Y-53149D01*
X86479Y-53104D01*
X86479Y-53070D01*
X86490Y-53025D01*
X86501Y-53003D01*
X86524Y-52980D01*
X86558Y-52969D01*
X86580Y-52969D01*
X86614Y-52980D01*
X86625Y-52992D01*
X86760Y-53070D02*
X86737Y-53059D01*
X86726Y-53048D01*
X86715Y-53025D01*
X86715Y-53014D01*
X86726Y-52992D01*
X86737Y-52980D01*
X86760Y-52969D01*
X86805Y-52969D01*
X86827Y-52980D01*
X86839Y-52992D01*
X86850Y-53014D01*
X86850Y-53025D01*
X86839Y-53048D01*
X86827Y-53059D01*
X86805Y-53070D01*
X86760Y-53070D01*
X86737Y-53082D01*
X86726Y-53093D01*
X86715Y-53115D01*
X86715Y-53160D01*
X86726Y-53183D01*
X86737Y-53194D01*
X86760Y-53205D01*
X86805Y-53205D01*
X86827Y-53194D01*
X86839Y-53183D01*
X86850Y-53160D01*
X86850Y-53115D01*
X86839Y-53093D01*
X86827Y-53082D01*
X86805Y-53070D01*
X87075Y-53205D02*
X86940Y-53205D01*
X87007Y-53205D02*
X87007Y-52969D01*
X86985Y-53003D01*
X86962Y-53025D01*
X86940Y-53037D01*
X87153Y-52969D02*
X87311Y-52969D01*
X87209Y-53205D01*
G54D19*
X73458Y-39862D02*
X73458Y-39812D01*
X73458Y-39836D02*
X73486Y-39836D01*
X73486Y-39862D02*
X73486Y-39812D01*
X73520Y-39812D02*
X73529Y-39812D01*
X73534Y-39814D01*
X73539Y-39819D01*
X73541Y-39829D01*
X73541Y-39845D01*
X73539Y-39855D01*
X73534Y-39860D01*
X73529Y-39862D01*
X73520Y-39862D01*
X73515Y-39860D01*
X73510Y-39855D01*
X73508Y-39845D01*
X73508Y-39829D01*
X73510Y-39819D01*
X73515Y-39814D01*
X73520Y-39812D01*
X73586Y-39862D02*
X73563Y-39862D01*
X73563Y-39812D01*
X73603Y-39836D02*
X73620Y-39836D01*
X73627Y-39862D02*
X73603Y-39862D01*
X73603Y-39812D01*
X73627Y-39812D01*
X73636Y-39867D02*
X73675Y-39867D01*
X73686Y-39862D02*
X73686Y-39812D01*
X73703Y-39848D01*
X73720Y-39812D01*
X73720Y-39862D01*
X73744Y-39836D02*
X73760Y-39836D01*
X73767Y-39862D02*
X73744Y-39862D01*
X73744Y-39812D01*
X73767Y-39812D01*
X73782Y-39812D02*
X73810Y-39812D01*
X73796Y-39862D02*
X73796Y-39812D01*
X73825Y-39848D02*
X73848Y-39848D01*
X73820Y-39862D02*
X73836Y-39812D01*
X73853Y-39862D01*
X73894Y-39862D02*
X73870Y-39862D01*
X73870Y-39812D01*
X73934Y-39862D02*
X73910Y-39862D01*
X73910Y-39812D01*
X73951Y-39836D02*
X73967Y-39836D01*
X73975Y-39862D02*
X73951Y-39862D01*
X73951Y-39812D01*
X73975Y-39812D01*
X73996Y-39862D02*
X73996Y-39812D01*
X74008Y-39812D01*
X74015Y-39814D01*
X74020Y-39819D01*
X74022Y-39824D01*
X74025Y-39834D01*
X74025Y-39841D01*
X74022Y-39850D01*
X74020Y-39855D01*
X74015Y-39860D01*
X74008Y-39862D01*
X73996Y-39862D01*
X73458Y-53878D02*
X73458Y-53828D01*
X73458Y-53852D02*
X73486Y-53852D01*
X73486Y-53878D02*
X73486Y-53828D01*
X73520Y-53828D02*
X73529Y-53828D01*
X73534Y-53830D01*
X73539Y-53835D01*
X73541Y-53845D01*
X73541Y-53861D01*
X73539Y-53871D01*
X73534Y-53875D01*
X73529Y-53878D01*
X73520Y-53878D01*
X73515Y-53875D01*
X73510Y-53871D01*
X73508Y-53861D01*
X73508Y-53845D01*
X73510Y-53835D01*
X73515Y-53830D01*
X73520Y-53828D01*
X73586Y-53878D02*
X73563Y-53878D01*
X73563Y-53828D01*
X73603Y-53852D02*
X73620Y-53852D01*
X73627Y-53878D02*
X73603Y-53878D01*
X73603Y-53828D01*
X73627Y-53828D01*
X73636Y-53883D02*
X73675Y-53883D01*
X73686Y-53878D02*
X73686Y-53828D01*
X73703Y-53864D01*
X73720Y-53828D01*
X73720Y-53878D01*
X73744Y-53852D02*
X73760Y-53852D01*
X73767Y-53878D02*
X73744Y-53878D01*
X73744Y-53828D01*
X73767Y-53828D01*
X73782Y-53828D02*
X73810Y-53828D01*
X73796Y-53878D02*
X73796Y-53828D01*
X73825Y-53864D02*
X73848Y-53864D01*
X73820Y-53878D02*
X73836Y-53828D01*
X73853Y-53878D01*
X73894Y-53878D02*
X73870Y-53878D01*
X73870Y-53828D01*
X73934Y-53878D02*
X73910Y-53878D01*
X73910Y-53828D01*
X73951Y-53852D02*
X73967Y-53852D01*
X73975Y-53878D02*
X73951Y-53878D01*
X73951Y-53828D01*
X73975Y-53828D01*
X73996Y-53878D02*
X73996Y-53828D01*
X74008Y-53828D01*
X74015Y-53830D01*
X74020Y-53835D01*
X74022Y-53840D01*
X74025Y-53849D01*
X74025Y-53856D01*
X74022Y-53866D01*
X74020Y-53871D01*
X74015Y-53875D01*
X74008Y-53878D01*
X73996Y-53878D01*
X87946Y-39862D02*
X87946Y-39812D01*
X87946Y-39836D02*
X87975Y-39836D01*
X87975Y-39862D02*
X87975Y-39812D01*
X88008Y-39812D02*
X88018Y-39812D01*
X88022Y-39814D01*
X88027Y-39819D01*
X88029Y-39829D01*
X88029Y-39845D01*
X88027Y-39855D01*
X88022Y-39860D01*
X88018Y-39862D01*
X88008Y-39862D01*
X88003Y-39860D01*
X87998Y-39855D01*
X87996Y-39845D01*
X87996Y-39829D01*
X87998Y-39819D01*
X88003Y-39814D01*
X88008Y-39812D01*
X88075Y-39862D02*
X88051Y-39862D01*
X88051Y-39812D01*
X88091Y-39836D02*
X88108Y-39836D01*
X88115Y-39862D02*
X88091Y-39862D01*
X88091Y-39812D01*
X88115Y-39812D01*
X88125Y-39867D02*
X88163Y-39867D01*
X88175Y-39862D02*
X88175Y-39812D01*
X88191Y-39848D01*
X88208Y-39812D01*
X88208Y-39862D01*
X88232Y-39836D02*
X88248Y-39836D01*
X88256Y-39862D02*
X88232Y-39862D01*
X88232Y-39812D01*
X88256Y-39812D01*
X88270Y-39812D02*
X88298Y-39812D01*
X88284Y-39862D02*
X88284Y-39812D01*
X88313Y-39848D02*
X88337Y-39848D01*
X88308Y-39862D02*
X88325Y-39812D01*
X88341Y-39862D01*
X88382Y-39862D02*
X88358Y-39862D01*
X88358Y-39812D01*
X88422Y-39862D02*
X88398Y-39862D01*
X88398Y-39812D01*
X88439Y-39836D02*
X88456Y-39836D01*
X88463Y-39862D02*
X88439Y-39862D01*
X88439Y-39812D01*
X88463Y-39812D01*
X88484Y-39862D02*
X88484Y-39812D01*
X88496Y-39812D01*
X88503Y-39814D01*
X88508Y-39819D01*
X88510Y-39824D01*
X88513Y-39834D01*
X88513Y-39841D01*
X88510Y-39850D01*
X88508Y-39855D01*
X88503Y-39860D01*
X88496Y-39862D01*
X88484Y-39862D01*
X87946Y-53878D02*
X87946Y-53828D01*
X87946Y-53852D02*
X87975Y-53852D01*
X87975Y-53878D02*
X87975Y-53828D01*
X88008Y-53828D02*
X88018Y-53828D01*
X88022Y-53830D01*
X88027Y-53835D01*
X88029Y-53845D01*
X88029Y-53861D01*
X88027Y-53871D01*
X88022Y-53875D01*
X88018Y-53878D01*
X88008Y-53878D01*
X88003Y-53875D01*
X87998Y-53871D01*
X87996Y-53861D01*
X87996Y-53845D01*
X87998Y-53835D01*
X88003Y-53830D01*
X88008Y-53828D01*
X88075Y-53878D02*
X88051Y-53878D01*
X88051Y-53828D01*
X88091Y-53852D02*
X88108Y-53852D01*
X88115Y-53878D02*
X88091Y-53878D01*
X88091Y-53828D01*
X88115Y-53828D01*
X88125Y-53883D02*
X88163Y-53883D01*
X88175Y-53878D02*
X88175Y-53828D01*
X88191Y-53864D01*
X88208Y-53828D01*
X88208Y-53878D01*
X88232Y-53852D02*
X88248Y-53852D01*
X88256Y-53878D02*
X88232Y-53878D01*
X88232Y-53828D01*
X88256Y-53828D01*
X88270Y-53828D02*
X88298Y-53828D01*
X88284Y-53878D02*
X88284Y-53828D01*
X88313Y-53864D02*
X88337Y-53864D01*
X88308Y-53878D02*
X88325Y-53828D01*
X88341Y-53878D01*
X88382Y-53878D02*
X88358Y-53878D01*
X88358Y-53828D01*
X88422Y-53878D02*
X88398Y-53878D01*
X88398Y-53828D01*
X88439Y-53852D02*
X88456Y-53852D01*
X88463Y-53878D02*
X88439Y-53878D01*
X88439Y-53828D01*
X88463Y-53828D01*
X88484Y-53878D02*
X88484Y-53828D01*
X88496Y-53828D01*
X88503Y-53830D01*
X88508Y-53835D01*
X88510Y-53840D01*
X88513Y-53849D01*
X88513Y-53856D01*
X88510Y-53866D01*
X88508Y-53871D01*
X88503Y-53875D01*
X88496Y-53878D01*
X88484Y-53878D01*
G54D10*
X85708Y-56344D02*
X85742Y-56355D01*
X85798Y-56355D01*
X85821Y-56344D01*
X85832Y-56332D01*
X85843Y-56310D01*
X85843Y-56287D01*
X85832Y-56265D01*
X85821Y-56254D01*
X85798Y-56242D01*
X85753Y-56231D01*
X85731Y-56220D01*
X85719Y-56209D01*
X85708Y-56186D01*
X85708Y-56164D01*
X85719Y-56141D01*
X85731Y-56130D01*
X85753Y-56119D01*
X85809Y-56119D01*
X85843Y-56130D01*
X85922Y-56119D02*
X85978Y-56355D01*
X86023Y-56186D01*
X86068Y-56355D01*
X86124Y-56119D01*
X86338Y-56355D02*
X86203Y-56355D01*
X86271Y-56355D02*
X86271Y-56119D01*
X86248Y-56152D01*
X86226Y-56175D01*
X86203Y-56186D01*
M02*
