M48
;DRILL file {Pcbnew (2013-07-07 BZR 4022)-stable} date 18/10/2014 19:08:01
;FORMAT={-:-/ absolute / metric / decimal}
FMAT,2
METRIC,TZ
T1C0.400
T2C0.813
T3C0.899
T4C1.000
T5C1.400
T6C1.501
T7C3.500
%
G90
G05
M71
T1
X184.8Y-126.6
X184.8Y-129.
X185.014Y-119.842
X185.118Y-136.558
X186.765Y-119.821
X186.8Y-128.4
X187.534Y-123.014
X188.237Y-124.052
X189.041Y-116.249
X189.6Y-127.
X190.Y-117.984
X190.Y-119.084
X190.Y-128.8
X190.Y-120.84
X190.397Y-125.546
X190.6Y-109.8
X191.143Y-131.645
X191.2Y-121.
X191.251Y-122.865
X191.8Y-135.
X191.8Y-135.8
X192.Y-114.
X192.4Y-130.
X192.6Y-135.
X192.6Y-135.8
X192.788Y-119.103
X193.4Y-135.
X193.4Y-135.8
X193.472Y-140.359
X193.6Y-121.6
X194.2Y-135.
X194.2Y-135.8
X194.6Y-126.2
X194.84Y-113.898
X194.847Y-128.631
X194.856Y-138.89
X195.25Y-135.872
X195.388Y-122.798
X195.589Y-129.985
X195.699Y-118.947
X195.935Y-117.213
X196.76Y-138.659
X197.041Y-114.248
X198.Y-141.8
X198.051Y-131.949
X198.341Y-127.201
X198.514Y-120.365
X198.75Y-107.95
X198.762Y-112.312
X198.839Y-125.346
X199.268Y-134.816
X199.601Y-133.501
X199.915Y-110.751
X200.Y-130.8
X200.553Y-129.281
X200.758Y-119.613
X201.009Y-136.199
X201.364Y-120.66
X201.923Y-128.533
X202.086Y-118.851
X202.192Y-130.338
X202.41Y-116.474
X203.242Y-131.262
X203.724Y-120.534
X203.792Y-122.836
X204.824Y-120.54
X204.904Y-126.653
X204.907Y-125.539
X204.939Y-134.432
X204.958Y-115.164
X205.935Y-120.501
X206.252Y-123.058
X206.476Y-136.791
X206.808Y-125.202
X207.6Y-108.8
X207.6Y-122.
X207.849Y-118.899
X207.986Y-116.394
X208.199Y-130.4
X208.27Y-110.594
X208.275Y-114.993
X208.4Y-106.2
X208.442Y-132.493
X208.834Y-126.375
X208.88Y-127.89
X208.949Y-118.899
X209.6Y-102.4
X209.6Y-134.4
X209.789Y-125.774
X209.8Y-123.8
X209.979Y-109.307
X210.Y-121.6
X210.327Y-115.748
X210.6Y-113.2
X211.349Y-127.901
X211.8Y-119.6
X212.Y-134.4
X212.055Y-137.81
X212.358Y-130.867
X212.4Y-111.
X212.652Y-108.239
X212.688Y-125.274
X212.691Y-121.909
X212.842Y-131.939
X213.2Y-114.2
X213.4Y-102.4
X213.6Y-116.6
X213.6Y-129.4
X214.467Y-118.85
X214.534Y-110.805
X214.589Y-107.422
X215.208Y-125.114
X215.589Y-108.425
X215.8Y-104.4
X215.903Y-138.517
X216.Y-114.2
X216.833Y-108.133
X216.981Y-128.358
X217.092Y-134.439
X217.489Y-116.156
X217.8Y-102.2
X217.9Y-122.851
X218.Y-110.2
X218.4Y-112.8
X219.068Y-120.323
X219.083Y-126.757
X219.717Y-133.103
X220.2Y-107.8
X220.2Y-137.8
X220.586Y-113.878
X221.128Y-121.041
X221.347Y-126.092
X222.Y-119.
X222.2Y-133.2
X222.2Y-136.
X222.867Y-121.439
X223.424Y-116.252
X223.988Y-124.842
X224.2Y-119.
X224.4Y-134.4
X225.192Y-127.158
X225.2Y-131.4
X225.899Y-121.398
X225.899Y-122.498
X226.4Y-133.
X226.4Y-136.
X226.8Y-109.2
X226.8Y-111.6
X226.8Y-114.
X226.81Y-127.158
X226.999Y-121.398
X226.999Y-122.498
X228.6Y-102.4
X228.6Y-105.6
X228.6Y-108.
X228.6Y-110.4
X228.6Y-112.8
X228.6Y-115.2
X228.6Y-128.8
X228.6Y-131.6
X228.6Y-134.2
X228.6Y-136.8
X228.6Y-139.4
X228.6Y-142.4
X228.842Y-117.782
X229.766Y-126.37
X230.Y-115.6
T2
X185.4Y-109.06
X185.4Y-111.6
X185.4Y-114.14
X188.2Y-109.06
X188.2Y-111.6
X188.2Y-114.14
X192.13Y-142.
X194.67Y-142.
X222.6Y-108.86
X222.6Y-111.4
X222.6Y-113.94
X225.2Y-108.86
X225.2Y-111.4
X225.2Y-113.94
T3
X204.2Y-102.39
X204.2Y-104.93
X204.2Y-107.47
X204.2Y-110.01
T4
X213.2Y-141.2
X215.2Y-141.2
X217.2Y-141.2
T5
X211.1Y-141.2
X219.3Y-141.2
T6
X202.2Y-141.4
X207.Y-141.4
T7
X187.4Y-104.4
X187.4Y-140.
X224.2Y-104.4
X224.2Y-140.
T0
M30
